%TF.GenerationSoftware,KiCad,Pcbnew,(5.99.0-2309-gaf729d578)*%
%TF.CreationDate,2020-09-01T21:34:41-04:00*%
%TF.ProjectId,flex,666c6578-2e6b-4696-9361-645f70636258,rev?*%
%TF.SameCoordinates,Original*%
%TF.FileFunction,Soldermask,Top*%
%TF.FilePolarity,Negative*%
%FSLAX46Y46*%
G04 Gerber Fmt 4.6, Leading zero omitted, Abs format (unit mm)*
G04 Created by KiCad (PCBNEW (5.99.0-2309-gaf729d578)) date 2020-09-01 21:34:41*
%MOMM*%
%LPD*%
G01*
G04 APERTURE LIST*
%ADD10C,2.100000*%
%ADD11R,0.450000X1.500000*%
G04 APERTURE END LIST*
D10*
%TO.C,REF\u002A\u002A*%
X254750000Y-41750000D03*
%TD*%
%TO.C,REF\u002A\u002A*%
X253250000Y-28250000D03*
%TD*%
%TO.C,REF\u002A\u002A*%
X254750000Y-14750000D03*
%TD*%
%TO.C,R2*%
G36*
G01*
X278912500Y-28361316D02*
X279387500Y-28361316D01*
G75*
G02*
X279625000Y-28598816I0J-237500D01*
G01*
X279625000Y-29173816D01*
G75*
G02*
X279387500Y-29411316I-237500J0D01*
G01*
X278912500Y-29411316D01*
G75*
G02*
X278675000Y-29173816I0J237500D01*
G01*
X278675000Y-28598816D01*
G75*
G02*
X278912500Y-28361316I237500J0D01*
G01*
G37*
G36*
G01*
X278912500Y-26611316D02*
X279387500Y-26611316D01*
G75*
G02*
X279625000Y-26848816I0J-237500D01*
G01*
X279625000Y-27423816D01*
G75*
G02*
X279387500Y-27661316I-237500J0D01*
G01*
X278912500Y-27661316D01*
G75*
G02*
X278675000Y-27423816I0J237500D01*
G01*
X278675000Y-26848816D01*
G75*
G02*
X278912500Y-26611316I237500J0D01*
G01*
G37*
%TD*%
%TO.C,R1*%
G36*
G01*
X280412500Y-28361316D02*
X280887500Y-28361316D01*
G75*
G02*
X281125000Y-28598816I0J-237500D01*
G01*
X281125000Y-29173816D01*
G75*
G02*
X280887500Y-29411316I-237500J0D01*
G01*
X280412500Y-29411316D01*
G75*
G02*
X280175000Y-29173816I0J237500D01*
G01*
X280175000Y-28598816D01*
G75*
G02*
X280412500Y-28361316I237500J0D01*
G01*
G37*
G36*
G01*
X280412500Y-26611316D02*
X280887500Y-26611316D01*
G75*
G02*
X281125000Y-26848816I0J-237500D01*
G01*
X281125000Y-27423816D01*
G75*
G02*
X280887500Y-27661316I-237500J0D01*
G01*
X280412500Y-27661316D01*
G75*
G02*
X280175000Y-27423816I0J237500D01*
G01*
X280175000Y-26848816D01*
G75*
G02*
X280412500Y-26611316I237500J0D01*
G01*
G37*
%TD*%
D11*
%TO.C,Q1*%
X282850000Y-29341316D03*
X282200000Y-26681316D03*
X283500000Y-26681316D03*
%TD*%
M02*
