M48
; DRILL file {KiCad (5.99.0-8775-g06a515339c)} date Mon Feb 15 16:58:32 2021
; FORMAT={-:-/ absolute / inch / decimal}
; #@! TF.CreationDate,2021-02-15T16:58:32-05:00
; #@! TF.GenerationSoftware,Kicad,Pcbnew,(5.99.0-8775-g06a515339c)
; #@! TF.FileFunction,Plated,1,2,PTH
FMAT,2
INCH
T1C0.0079
T2C0.0118
T3C0.0236
T4C0.0315
%
G90
G05
T1
X0.6793Y-0.6233
X0.6793Y-0.6667
T2
X0.525Y-1.16
X0.536Y-0.922
X0.546Y-1.407
X0.56Y-1.038
X0.58Y-1.769
X0.586Y-0.7421
X0.586Y-1.313
X0.587Y-1.001
X0.59Y-0.57
X0.6086Y-1.392
X0.623Y-0.8632
X0.6256Y-1.0007
X0.628Y-1.5157
X0.632Y-0.71
X0.6346Y-0.9537
X0.645Y-1.2506
X0.645Y-1.4494
X0.656Y-1.182
X0.668Y-0.918
X0.671Y-1.4902
X0.68Y-1.0994
X0.6833Y-1.614
X0.685Y-0.705
X0.695Y-0.76
X0.6958Y-0.8108
X0.708Y-1.286
X0.7255Y-0.7095
X0.7382Y-1.063
X0.7392Y-1.2954
X0.7421Y-1.8379
X0.7442Y-1.3441
X0.752Y-1.7561
X0.7529Y-0.767
X0.7559Y-1.3189
X0.76Y-0.66
X0.766Y-0.816
X0.7692Y-1.0342
X0.775Y-1.113
X0.7804Y-0.6961
X0.7874Y-1.372
X0.79Y-1.715
X0.798Y-0.522
X0.804Y-1.262
X0.8118Y-1.5925
X0.8168Y-1.7247
X0.835Y-1.365
X0.8395Y-0.8604
X0.84Y-0.705
X0.84Y-0.734
X0.84Y-0.89
X0.8446Y-0.8354
X0.85Y-0.57
X0.8517Y-1.3943
X0.858Y-0.912
X0.8595Y-0.6275
X0.86Y-1.705
X0.875Y-1.745
X0.878Y-0.98
X0.88Y-0.81
X0.88Y-1.85
X0.896Y-0.952
X0.9Y-1.2895
X0.915Y-1.705
X0.917Y-1.799
X0.9217Y-1.3098
X0.9231Y-0.944
X0.93Y-1.6033
X0.94Y-1.335
X0.95Y-1.42
X0.958Y-0.756
X0.9583Y-1.1417
X0.968Y-1.562
X0.97Y-1.44
X0.98Y-0.82
X0.99Y-1.225
X0.9947Y-1.2965
X1.0Y-0.795
X1.0061Y-0.7303
X1.0079Y-1.3465
X1.015Y-1.175
X1.0223Y-0.9167
X1.025Y-0.82
X1.0264Y-0.9702
X1.0486Y-0.7833
X1.0493Y-0.8993
X1.05Y-1.16
X1.055Y-1.465
X1.07Y-1.7144
X1.072Y-1.614
X1.082Y-1.451
X1.0944Y-1.515
X1.0944Y-1.57
X1.095Y-1.68
X1.102Y-0.818
X1.1197Y-1.2282
X1.125Y-1.715
X1.1254Y-1.3216
X1.13Y-0.71
X1.13Y-1.4909
X1.14Y-1.15
X1.1465Y-1.8678
X1.15Y-0.94
X1.1516Y-1.7767
X1.165Y-1.265
X1.17Y-1.5106
X1.18Y-0.6862
X1.184Y-0.872
X1.184Y-1.715
X1.188Y-1.843
X1.1931Y-1.545
X1.2Y-1.265
X1.205Y-0.82
X1.218Y-0.902
X1.22Y-1.15
X1.232Y-1.306
X1.24Y-1.755
X1.285Y-1.76
X1.325Y-1.306
T4
X0.725Y-1.1406
X0.725Y-1.2194
X1.2598Y-1.8799
X1.3386Y-1.8799
T3
G00X0.6764Y-1.7075
M15
G01X0.6764Y-1.6642
M16
G05
G00X0.6764Y-1.8657
M15
G01X0.6764Y-1.8343
M16
G05
G00X1.0165Y-1.7075
M15
G01X1.0165Y-1.6642
M16
G05
G00X1.0165Y-1.8657
M15
G01X1.0165Y-1.8343
M16
G05
T0
M30
