G04 #@! TF.GenerationSoftware,KiCad,Pcbnew,(5.0.0-rc2-200-g1f6f76beb)*
G04 #@! TF.CreationDate,2020-02-24T22:29:36-05:00*
G04 #@! TF.ProjectId,watch-logic,77617463682D6C6F6769632E6B696361,rev?*
G04 #@! TF.SameCoordinates,Original*
G04 #@! TF.FileFunction,Paste,Top*
G04 #@! TF.FilePolarity,Positive*
%FSLAX46Y46*%
G04 Gerber Fmt 4.6, Leading zero omitted, Abs format (unit mm)*
G04 Created by KiCad (PCBNEW (5.0.0-rc2-200-g1f6f76beb)) date Mon Feb 24 22:29:36 2020*
%MOMM*%
%LPD*%
G01*
G04 APERTURE LIST*
%ADD10R,1.100000X1.050000*%
%ADD11C,0.100000*%
%ADD12C,1.425000*%
%ADD13R,0.800000X0.900000*%
%ADD14R,0.420000X0.400000*%
%ADD15C,0.950000*%
%ADD16R,1.500000X0.550000*%
%ADD17R,0.300000X0.250000*%
%ADD18R,0.200000X1.600000*%
%ADD19R,0.300000X0.700000*%
%ADD20R,0.300000X1.000000*%
G04 APERTURE END LIST*
D10*
G04 #@! TO.C,Y1*
X177927000Y-113284000D03*
X177927000Y-115134000D03*
G04 #@! TD*
D11*
G04 #@! TO.C,C1*
G36*
X183494004Y-112341204D02*
X183518273Y-112344804D01*
X183542071Y-112350765D01*
X183565171Y-112359030D01*
X183587349Y-112369520D01*
X183608393Y-112382133D01*
X183628098Y-112396747D01*
X183646277Y-112413223D01*
X183662753Y-112431402D01*
X183677367Y-112451107D01*
X183689980Y-112472151D01*
X183700470Y-112494329D01*
X183708735Y-112517429D01*
X183714696Y-112541227D01*
X183718296Y-112565496D01*
X183719500Y-112590000D01*
X183719500Y-114740000D01*
X183718296Y-114764504D01*
X183714696Y-114788773D01*
X183708735Y-114812571D01*
X183700470Y-114835671D01*
X183689980Y-114857849D01*
X183677367Y-114878893D01*
X183662753Y-114898598D01*
X183646277Y-114916777D01*
X183628098Y-114933253D01*
X183608393Y-114947867D01*
X183587349Y-114960480D01*
X183565171Y-114970970D01*
X183542071Y-114979235D01*
X183518273Y-114985196D01*
X183494004Y-114988796D01*
X183469500Y-114990000D01*
X182544500Y-114990000D01*
X182519996Y-114988796D01*
X182495727Y-114985196D01*
X182471929Y-114979235D01*
X182448829Y-114970970D01*
X182426651Y-114960480D01*
X182405607Y-114947867D01*
X182385902Y-114933253D01*
X182367723Y-114916777D01*
X182351247Y-114898598D01*
X182336633Y-114878893D01*
X182324020Y-114857849D01*
X182313530Y-114835671D01*
X182305265Y-114812571D01*
X182299304Y-114788773D01*
X182295704Y-114764504D01*
X182294500Y-114740000D01*
X182294500Y-112590000D01*
X182295704Y-112565496D01*
X182299304Y-112541227D01*
X182305265Y-112517429D01*
X182313530Y-112494329D01*
X182324020Y-112472151D01*
X182336633Y-112451107D01*
X182351247Y-112431402D01*
X182367723Y-112413223D01*
X182385902Y-112396747D01*
X182405607Y-112382133D01*
X182426651Y-112369520D01*
X182448829Y-112359030D01*
X182471929Y-112350765D01*
X182495727Y-112344804D01*
X182519996Y-112341204D01*
X182544500Y-112340000D01*
X183469500Y-112340000D01*
X183494004Y-112341204D01*
X183494004Y-112341204D01*
G37*
D12*
X183007000Y-113665000D03*
D11*
G36*
X180519004Y-112341204D02*
X180543273Y-112344804D01*
X180567071Y-112350765D01*
X180590171Y-112359030D01*
X180612349Y-112369520D01*
X180633393Y-112382133D01*
X180653098Y-112396747D01*
X180671277Y-112413223D01*
X180687753Y-112431402D01*
X180702367Y-112451107D01*
X180714980Y-112472151D01*
X180725470Y-112494329D01*
X180733735Y-112517429D01*
X180739696Y-112541227D01*
X180743296Y-112565496D01*
X180744500Y-112590000D01*
X180744500Y-114740000D01*
X180743296Y-114764504D01*
X180739696Y-114788773D01*
X180733735Y-114812571D01*
X180725470Y-114835671D01*
X180714980Y-114857849D01*
X180702367Y-114878893D01*
X180687753Y-114898598D01*
X180671277Y-114916777D01*
X180653098Y-114933253D01*
X180633393Y-114947867D01*
X180612349Y-114960480D01*
X180590171Y-114970970D01*
X180567071Y-114979235D01*
X180543273Y-114985196D01*
X180519004Y-114988796D01*
X180494500Y-114990000D01*
X179569500Y-114990000D01*
X179544996Y-114988796D01*
X179520727Y-114985196D01*
X179496929Y-114979235D01*
X179473829Y-114970970D01*
X179451651Y-114960480D01*
X179430607Y-114947867D01*
X179410902Y-114933253D01*
X179392723Y-114916777D01*
X179376247Y-114898598D01*
X179361633Y-114878893D01*
X179349020Y-114857849D01*
X179338530Y-114835671D01*
X179330265Y-114812571D01*
X179324304Y-114788773D01*
X179320704Y-114764504D01*
X179319500Y-114740000D01*
X179319500Y-112590000D01*
X179320704Y-112565496D01*
X179324304Y-112541227D01*
X179330265Y-112517429D01*
X179338530Y-112494329D01*
X179349020Y-112472151D01*
X179361633Y-112451107D01*
X179376247Y-112431402D01*
X179392723Y-112413223D01*
X179410902Y-112396747D01*
X179430607Y-112382133D01*
X179451651Y-112369520D01*
X179473829Y-112359030D01*
X179496929Y-112350765D01*
X179520727Y-112344804D01*
X179544996Y-112341204D01*
X179569500Y-112340000D01*
X180494500Y-112340000D01*
X180519004Y-112341204D01*
X180519004Y-112341204D01*
G37*
D12*
X180032000Y-113665000D03*
G04 #@! TD*
D13*
G04 #@! TO.C,D1*
X187005000Y-112665000D03*
X185105000Y-112665000D03*
X186055000Y-114665000D03*
G04 #@! TD*
D14*
G04 #@! TO.C,IC2*
X185790000Y-119275000D03*
X185790000Y-118375000D03*
X185790000Y-117475000D03*
X185790000Y-116575000D03*
X186690000Y-119275000D03*
X186690000Y-118375000D03*
X186690000Y-117475000D03*
X186690000Y-116575000D03*
G04 #@! TD*
D13*
G04 #@! TO.C,Q1*
X166050000Y-130445000D03*
X164150000Y-130445000D03*
X165100000Y-132445000D03*
G04 #@! TD*
G04 #@! TO.C,Q2*
X169545000Y-132445000D03*
X168595000Y-130445000D03*
X170495000Y-130445000D03*
G04 #@! TD*
D11*
G04 #@! TO.C,R3*
G36*
X172889779Y-115096144D02*
X172912834Y-115099563D01*
X172935443Y-115105227D01*
X172957387Y-115113079D01*
X172978457Y-115123044D01*
X172998448Y-115135026D01*
X173017168Y-115148910D01*
X173034438Y-115164562D01*
X173050090Y-115181832D01*
X173063974Y-115200552D01*
X173075956Y-115220543D01*
X173085921Y-115241613D01*
X173093773Y-115263557D01*
X173099437Y-115286166D01*
X173102856Y-115309221D01*
X173104000Y-115332500D01*
X173104000Y-115807500D01*
X173102856Y-115830779D01*
X173099437Y-115853834D01*
X173093773Y-115876443D01*
X173085921Y-115898387D01*
X173075956Y-115919457D01*
X173063974Y-115939448D01*
X173050090Y-115958168D01*
X173034438Y-115975438D01*
X173017168Y-115991090D01*
X172998448Y-116004974D01*
X172978457Y-116016956D01*
X172957387Y-116026921D01*
X172935443Y-116034773D01*
X172912834Y-116040437D01*
X172889779Y-116043856D01*
X172866500Y-116045000D01*
X172291500Y-116045000D01*
X172268221Y-116043856D01*
X172245166Y-116040437D01*
X172222557Y-116034773D01*
X172200613Y-116026921D01*
X172179543Y-116016956D01*
X172159552Y-116004974D01*
X172140832Y-115991090D01*
X172123562Y-115975438D01*
X172107910Y-115958168D01*
X172094026Y-115939448D01*
X172082044Y-115919457D01*
X172072079Y-115898387D01*
X172064227Y-115876443D01*
X172058563Y-115853834D01*
X172055144Y-115830779D01*
X172054000Y-115807500D01*
X172054000Y-115332500D01*
X172055144Y-115309221D01*
X172058563Y-115286166D01*
X172064227Y-115263557D01*
X172072079Y-115241613D01*
X172082044Y-115220543D01*
X172094026Y-115200552D01*
X172107910Y-115181832D01*
X172123562Y-115164562D01*
X172140832Y-115148910D01*
X172159552Y-115135026D01*
X172179543Y-115123044D01*
X172200613Y-115113079D01*
X172222557Y-115105227D01*
X172245166Y-115099563D01*
X172268221Y-115096144D01*
X172291500Y-115095000D01*
X172866500Y-115095000D01*
X172889779Y-115096144D01*
X172889779Y-115096144D01*
G37*
D15*
X172579000Y-115570000D03*
D11*
G36*
X171139779Y-115096144D02*
X171162834Y-115099563D01*
X171185443Y-115105227D01*
X171207387Y-115113079D01*
X171228457Y-115123044D01*
X171248448Y-115135026D01*
X171267168Y-115148910D01*
X171284438Y-115164562D01*
X171300090Y-115181832D01*
X171313974Y-115200552D01*
X171325956Y-115220543D01*
X171335921Y-115241613D01*
X171343773Y-115263557D01*
X171349437Y-115286166D01*
X171352856Y-115309221D01*
X171354000Y-115332500D01*
X171354000Y-115807500D01*
X171352856Y-115830779D01*
X171349437Y-115853834D01*
X171343773Y-115876443D01*
X171335921Y-115898387D01*
X171325956Y-115919457D01*
X171313974Y-115939448D01*
X171300090Y-115958168D01*
X171284438Y-115975438D01*
X171267168Y-115991090D01*
X171248448Y-116004974D01*
X171228457Y-116016956D01*
X171207387Y-116026921D01*
X171185443Y-116034773D01*
X171162834Y-116040437D01*
X171139779Y-116043856D01*
X171116500Y-116045000D01*
X170541500Y-116045000D01*
X170518221Y-116043856D01*
X170495166Y-116040437D01*
X170472557Y-116034773D01*
X170450613Y-116026921D01*
X170429543Y-116016956D01*
X170409552Y-116004974D01*
X170390832Y-115991090D01*
X170373562Y-115975438D01*
X170357910Y-115958168D01*
X170344026Y-115939448D01*
X170332044Y-115919457D01*
X170322079Y-115898387D01*
X170314227Y-115876443D01*
X170308563Y-115853834D01*
X170305144Y-115830779D01*
X170304000Y-115807500D01*
X170304000Y-115332500D01*
X170305144Y-115309221D01*
X170308563Y-115286166D01*
X170314227Y-115263557D01*
X170322079Y-115241613D01*
X170332044Y-115220543D01*
X170344026Y-115200552D01*
X170357910Y-115181832D01*
X170373562Y-115164562D01*
X170390832Y-115148910D01*
X170409552Y-115135026D01*
X170429543Y-115123044D01*
X170450613Y-115113079D01*
X170472557Y-115105227D01*
X170495166Y-115099563D01*
X170518221Y-115096144D01*
X170541500Y-115095000D01*
X171116500Y-115095000D01*
X171139779Y-115096144D01*
X171139779Y-115096144D01*
G37*
D15*
X170829000Y-115570000D03*
G04 #@! TD*
D11*
G04 #@! TO.C,R4*
G36*
X166779779Y-115096144D02*
X166802834Y-115099563D01*
X166825443Y-115105227D01*
X166847387Y-115113079D01*
X166868457Y-115123044D01*
X166888448Y-115135026D01*
X166907168Y-115148910D01*
X166924438Y-115164562D01*
X166940090Y-115181832D01*
X166953974Y-115200552D01*
X166965956Y-115220543D01*
X166975921Y-115241613D01*
X166983773Y-115263557D01*
X166989437Y-115286166D01*
X166992856Y-115309221D01*
X166994000Y-115332500D01*
X166994000Y-115807500D01*
X166992856Y-115830779D01*
X166989437Y-115853834D01*
X166983773Y-115876443D01*
X166975921Y-115898387D01*
X166965956Y-115919457D01*
X166953974Y-115939448D01*
X166940090Y-115958168D01*
X166924438Y-115975438D01*
X166907168Y-115991090D01*
X166888448Y-116004974D01*
X166868457Y-116016956D01*
X166847387Y-116026921D01*
X166825443Y-116034773D01*
X166802834Y-116040437D01*
X166779779Y-116043856D01*
X166756500Y-116045000D01*
X166181500Y-116045000D01*
X166158221Y-116043856D01*
X166135166Y-116040437D01*
X166112557Y-116034773D01*
X166090613Y-116026921D01*
X166069543Y-116016956D01*
X166049552Y-116004974D01*
X166030832Y-115991090D01*
X166013562Y-115975438D01*
X165997910Y-115958168D01*
X165984026Y-115939448D01*
X165972044Y-115919457D01*
X165962079Y-115898387D01*
X165954227Y-115876443D01*
X165948563Y-115853834D01*
X165945144Y-115830779D01*
X165944000Y-115807500D01*
X165944000Y-115332500D01*
X165945144Y-115309221D01*
X165948563Y-115286166D01*
X165954227Y-115263557D01*
X165962079Y-115241613D01*
X165972044Y-115220543D01*
X165984026Y-115200552D01*
X165997910Y-115181832D01*
X166013562Y-115164562D01*
X166030832Y-115148910D01*
X166049552Y-115135026D01*
X166069543Y-115123044D01*
X166090613Y-115113079D01*
X166112557Y-115105227D01*
X166135166Y-115099563D01*
X166158221Y-115096144D01*
X166181500Y-115095000D01*
X166756500Y-115095000D01*
X166779779Y-115096144D01*
X166779779Y-115096144D01*
G37*
D15*
X166469000Y-115570000D03*
D11*
G36*
X165029779Y-115096144D02*
X165052834Y-115099563D01*
X165075443Y-115105227D01*
X165097387Y-115113079D01*
X165118457Y-115123044D01*
X165138448Y-115135026D01*
X165157168Y-115148910D01*
X165174438Y-115164562D01*
X165190090Y-115181832D01*
X165203974Y-115200552D01*
X165215956Y-115220543D01*
X165225921Y-115241613D01*
X165233773Y-115263557D01*
X165239437Y-115286166D01*
X165242856Y-115309221D01*
X165244000Y-115332500D01*
X165244000Y-115807500D01*
X165242856Y-115830779D01*
X165239437Y-115853834D01*
X165233773Y-115876443D01*
X165225921Y-115898387D01*
X165215956Y-115919457D01*
X165203974Y-115939448D01*
X165190090Y-115958168D01*
X165174438Y-115975438D01*
X165157168Y-115991090D01*
X165138448Y-116004974D01*
X165118457Y-116016956D01*
X165097387Y-116026921D01*
X165075443Y-116034773D01*
X165052834Y-116040437D01*
X165029779Y-116043856D01*
X165006500Y-116045000D01*
X164431500Y-116045000D01*
X164408221Y-116043856D01*
X164385166Y-116040437D01*
X164362557Y-116034773D01*
X164340613Y-116026921D01*
X164319543Y-116016956D01*
X164299552Y-116004974D01*
X164280832Y-115991090D01*
X164263562Y-115975438D01*
X164247910Y-115958168D01*
X164234026Y-115939448D01*
X164222044Y-115919457D01*
X164212079Y-115898387D01*
X164204227Y-115876443D01*
X164198563Y-115853834D01*
X164195144Y-115830779D01*
X164194000Y-115807500D01*
X164194000Y-115332500D01*
X164195144Y-115309221D01*
X164198563Y-115286166D01*
X164204227Y-115263557D01*
X164212079Y-115241613D01*
X164222044Y-115220543D01*
X164234026Y-115200552D01*
X164247910Y-115181832D01*
X164263562Y-115164562D01*
X164280832Y-115148910D01*
X164299552Y-115135026D01*
X164319543Y-115123044D01*
X164340613Y-115113079D01*
X164362557Y-115105227D01*
X164385166Y-115099563D01*
X164408221Y-115096144D01*
X164431500Y-115095000D01*
X165006500Y-115095000D01*
X165029779Y-115096144D01*
X165029779Y-115096144D01*
G37*
D15*
X164719000Y-115570000D03*
G04 #@! TD*
D11*
G04 #@! TO.C,R5*
G36*
X184410779Y-123781144D02*
X184433834Y-123784563D01*
X184456443Y-123790227D01*
X184478387Y-123798079D01*
X184499457Y-123808044D01*
X184519448Y-123820026D01*
X184538168Y-123833910D01*
X184555438Y-123849562D01*
X184571090Y-123866832D01*
X184584974Y-123885552D01*
X184596956Y-123905543D01*
X184606921Y-123926613D01*
X184614773Y-123948557D01*
X184620437Y-123971166D01*
X184623856Y-123994221D01*
X184625000Y-124017500D01*
X184625000Y-124592500D01*
X184623856Y-124615779D01*
X184620437Y-124638834D01*
X184614773Y-124661443D01*
X184606921Y-124683387D01*
X184596956Y-124704457D01*
X184584974Y-124724448D01*
X184571090Y-124743168D01*
X184555438Y-124760438D01*
X184538168Y-124776090D01*
X184519448Y-124789974D01*
X184499457Y-124801956D01*
X184478387Y-124811921D01*
X184456443Y-124819773D01*
X184433834Y-124825437D01*
X184410779Y-124828856D01*
X184387500Y-124830000D01*
X183912500Y-124830000D01*
X183889221Y-124828856D01*
X183866166Y-124825437D01*
X183843557Y-124819773D01*
X183821613Y-124811921D01*
X183800543Y-124801956D01*
X183780552Y-124789974D01*
X183761832Y-124776090D01*
X183744562Y-124760438D01*
X183728910Y-124743168D01*
X183715026Y-124724448D01*
X183703044Y-124704457D01*
X183693079Y-124683387D01*
X183685227Y-124661443D01*
X183679563Y-124638834D01*
X183676144Y-124615779D01*
X183675000Y-124592500D01*
X183675000Y-124017500D01*
X183676144Y-123994221D01*
X183679563Y-123971166D01*
X183685227Y-123948557D01*
X183693079Y-123926613D01*
X183703044Y-123905543D01*
X183715026Y-123885552D01*
X183728910Y-123866832D01*
X183744562Y-123849562D01*
X183761832Y-123833910D01*
X183780552Y-123820026D01*
X183800543Y-123808044D01*
X183821613Y-123798079D01*
X183843557Y-123790227D01*
X183866166Y-123784563D01*
X183889221Y-123781144D01*
X183912500Y-123780000D01*
X184387500Y-123780000D01*
X184410779Y-123781144D01*
X184410779Y-123781144D01*
G37*
D15*
X184150000Y-124305000D03*
D11*
G36*
X184410779Y-122031144D02*
X184433834Y-122034563D01*
X184456443Y-122040227D01*
X184478387Y-122048079D01*
X184499457Y-122058044D01*
X184519448Y-122070026D01*
X184538168Y-122083910D01*
X184555438Y-122099562D01*
X184571090Y-122116832D01*
X184584974Y-122135552D01*
X184596956Y-122155543D01*
X184606921Y-122176613D01*
X184614773Y-122198557D01*
X184620437Y-122221166D01*
X184623856Y-122244221D01*
X184625000Y-122267500D01*
X184625000Y-122842500D01*
X184623856Y-122865779D01*
X184620437Y-122888834D01*
X184614773Y-122911443D01*
X184606921Y-122933387D01*
X184596956Y-122954457D01*
X184584974Y-122974448D01*
X184571090Y-122993168D01*
X184555438Y-123010438D01*
X184538168Y-123026090D01*
X184519448Y-123039974D01*
X184499457Y-123051956D01*
X184478387Y-123061921D01*
X184456443Y-123069773D01*
X184433834Y-123075437D01*
X184410779Y-123078856D01*
X184387500Y-123080000D01*
X183912500Y-123080000D01*
X183889221Y-123078856D01*
X183866166Y-123075437D01*
X183843557Y-123069773D01*
X183821613Y-123061921D01*
X183800543Y-123051956D01*
X183780552Y-123039974D01*
X183761832Y-123026090D01*
X183744562Y-123010438D01*
X183728910Y-122993168D01*
X183715026Y-122974448D01*
X183703044Y-122954457D01*
X183693079Y-122933387D01*
X183685227Y-122911443D01*
X183679563Y-122888834D01*
X183676144Y-122865779D01*
X183675000Y-122842500D01*
X183675000Y-122267500D01*
X183676144Y-122244221D01*
X183679563Y-122221166D01*
X183685227Y-122198557D01*
X183693079Y-122176613D01*
X183703044Y-122155543D01*
X183715026Y-122135552D01*
X183728910Y-122116832D01*
X183744562Y-122099562D01*
X183761832Y-122083910D01*
X183780552Y-122070026D01*
X183800543Y-122058044D01*
X183821613Y-122048079D01*
X183843557Y-122040227D01*
X183866166Y-122034563D01*
X183889221Y-122031144D01*
X183912500Y-122030000D01*
X184387500Y-122030000D01*
X184410779Y-122031144D01*
X184410779Y-122031144D01*
G37*
D15*
X184150000Y-122555000D03*
G04 #@! TD*
D11*
G04 #@! TO.C,R6*
G36*
X182505779Y-122031144D02*
X182528834Y-122034563D01*
X182551443Y-122040227D01*
X182573387Y-122048079D01*
X182594457Y-122058044D01*
X182614448Y-122070026D01*
X182633168Y-122083910D01*
X182650438Y-122099562D01*
X182666090Y-122116832D01*
X182679974Y-122135552D01*
X182691956Y-122155543D01*
X182701921Y-122176613D01*
X182709773Y-122198557D01*
X182715437Y-122221166D01*
X182718856Y-122244221D01*
X182720000Y-122267500D01*
X182720000Y-122842500D01*
X182718856Y-122865779D01*
X182715437Y-122888834D01*
X182709773Y-122911443D01*
X182701921Y-122933387D01*
X182691956Y-122954457D01*
X182679974Y-122974448D01*
X182666090Y-122993168D01*
X182650438Y-123010438D01*
X182633168Y-123026090D01*
X182614448Y-123039974D01*
X182594457Y-123051956D01*
X182573387Y-123061921D01*
X182551443Y-123069773D01*
X182528834Y-123075437D01*
X182505779Y-123078856D01*
X182482500Y-123080000D01*
X182007500Y-123080000D01*
X181984221Y-123078856D01*
X181961166Y-123075437D01*
X181938557Y-123069773D01*
X181916613Y-123061921D01*
X181895543Y-123051956D01*
X181875552Y-123039974D01*
X181856832Y-123026090D01*
X181839562Y-123010438D01*
X181823910Y-122993168D01*
X181810026Y-122974448D01*
X181798044Y-122954457D01*
X181788079Y-122933387D01*
X181780227Y-122911443D01*
X181774563Y-122888834D01*
X181771144Y-122865779D01*
X181770000Y-122842500D01*
X181770000Y-122267500D01*
X181771144Y-122244221D01*
X181774563Y-122221166D01*
X181780227Y-122198557D01*
X181788079Y-122176613D01*
X181798044Y-122155543D01*
X181810026Y-122135552D01*
X181823910Y-122116832D01*
X181839562Y-122099562D01*
X181856832Y-122083910D01*
X181875552Y-122070026D01*
X181895543Y-122058044D01*
X181916613Y-122048079D01*
X181938557Y-122040227D01*
X181961166Y-122034563D01*
X181984221Y-122031144D01*
X182007500Y-122030000D01*
X182482500Y-122030000D01*
X182505779Y-122031144D01*
X182505779Y-122031144D01*
G37*
D15*
X182245000Y-122555000D03*
D11*
G36*
X182505779Y-123781144D02*
X182528834Y-123784563D01*
X182551443Y-123790227D01*
X182573387Y-123798079D01*
X182594457Y-123808044D01*
X182614448Y-123820026D01*
X182633168Y-123833910D01*
X182650438Y-123849562D01*
X182666090Y-123866832D01*
X182679974Y-123885552D01*
X182691956Y-123905543D01*
X182701921Y-123926613D01*
X182709773Y-123948557D01*
X182715437Y-123971166D01*
X182718856Y-123994221D01*
X182720000Y-124017500D01*
X182720000Y-124592500D01*
X182718856Y-124615779D01*
X182715437Y-124638834D01*
X182709773Y-124661443D01*
X182701921Y-124683387D01*
X182691956Y-124704457D01*
X182679974Y-124724448D01*
X182666090Y-124743168D01*
X182650438Y-124760438D01*
X182633168Y-124776090D01*
X182614448Y-124789974D01*
X182594457Y-124801956D01*
X182573387Y-124811921D01*
X182551443Y-124819773D01*
X182528834Y-124825437D01*
X182505779Y-124828856D01*
X182482500Y-124830000D01*
X182007500Y-124830000D01*
X181984221Y-124828856D01*
X181961166Y-124825437D01*
X181938557Y-124819773D01*
X181916613Y-124811921D01*
X181895543Y-124801956D01*
X181875552Y-124789974D01*
X181856832Y-124776090D01*
X181839562Y-124760438D01*
X181823910Y-124743168D01*
X181810026Y-124724448D01*
X181798044Y-124704457D01*
X181788079Y-124683387D01*
X181780227Y-124661443D01*
X181774563Y-124638834D01*
X181771144Y-124615779D01*
X181770000Y-124592500D01*
X181770000Y-124017500D01*
X181771144Y-123994221D01*
X181774563Y-123971166D01*
X181780227Y-123948557D01*
X181788079Y-123926613D01*
X181798044Y-123905543D01*
X181810026Y-123885552D01*
X181823910Y-123866832D01*
X181839562Y-123849562D01*
X181856832Y-123833910D01*
X181875552Y-123820026D01*
X181895543Y-123808044D01*
X181916613Y-123798079D01*
X181938557Y-123790227D01*
X181961166Y-123784563D01*
X181984221Y-123781144D01*
X182007500Y-123780000D01*
X182482500Y-123780000D01*
X182505779Y-123781144D01*
X182505779Y-123781144D01*
G37*
D15*
X182245000Y-124305000D03*
G04 #@! TD*
D11*
G04 #@! TO.C,R7*
G36*
X166285779Y-128431144D02*
X166308834Y-128434563D01*
X166331443Y-128440227D01*
X166353387Y-128448079D01*
X166374457Y-128458044D01*
X166394448Y-128470026D01*
X166413168Y-128483910D01*
X166430438Y-128499562D01*
X166446090Y-128516832D01*
X166459974Y-128535552D01*
X166471956Y-128555543D01*
X166481921Y-128576613D01*
X166489773Y-128598557D01*
X166495437Y-128621166D01*
X166498856Y-128644221D01*
X166500000Y-128667500D01*
X166500000Y-129142500D01*
X166498856Y-129165779D01*
X166495437Y-129188834D01*
X166489773Y-129211443D01*
X166481921Y-129233387D01*
X166471956Y-129254457D01*
X166459974Y-129274448D01*
X166446090Y-129293168D01*
X166430438Y-129310438D01*
X166413168Y-129326090D01*
X166394448Y-129339974D01*
X166374457Y-129351956D01*
X166353387Y-129361921D01*
X166331443Y-129369773D01*
X166308834Y-129375437D01*
X166285779Y-129378856D01*
X166262500Y-129380000D01*
X165687500Y-129380000D01*
X165664221Y-129378856D01*
X165641166Y-129375437D01*
X165618557Y-129369773D01*
X165596613Y-129361921D01*
X165575543Y-129351956D01*
X165555552Y-129339974D01*
X165536832Y-129326090D01*
X165519562Y-129310438D01*
X165503910Y-129293168D01*
X165490026Y-129274448D01*
X165478044Y-129254457D01*
X165468079Y-129233387D01*
X165460227Y-129211443D01*
X165454563Y-129188834D01*
X165451144Y-129165779D01*
X165450000Y-129142500D01*
X165450000Y-128667500D01*
X165451144Y-128644221D01*
X165454563Y-128621166D01*
X165460227Y-128598557D01*
X165468079Y-128576613D01*
X165478044Y-128555543D01*
X165490026Y-128535552D01*
X165503910Y-128516832D01*
X165519562Y-128499562D01*
X165536832Y-128483910D01*
X165555552Y-128470026D01*
X165575543Y-128458044D01*
X165596613Y-128448079D01*
X165618557Y-128440227D01*
X165641166Y-128434563D01*
X165664221Y-128431144D01*
X165687500Y-128430000D01*
X166262500Y-128430000D01*
X166285779Y-128431144D01*
X166285779Y-128431144D01*
G37*
D15*
X165975000Y-128905000D03*
D11*
G36*
X164535779Y-128431144D02*
X164558834Y-128434563D01*
X164581443Y-128440227D01*
X164603387Y-128448079D01*
X164624457Y-128458044D01*
X164644448Y-128470026D01*
X164663168Y-128483910D01*
X164680438Y-128499562D01*
X164696090Y-128516832D01*
X164709974Y-128535552D01*
X164721956Y-128555543D01*
X164731921Y-128576613D01*
X164739773Y-128598557D01*
X164745437Y-128621166D01*
X164748856Y-128644221D01*
X164750000Y-128667500D01*
X164750000Y-129142500D01*
X164748856Y-129165779D01*
X164745437Y-129188834D01*
X164739773Y-129211443D01*
X164731921Y-129233387D01*
X164721956Y-129254457D01*
X164709974Y-129274448D01*
X164696090Y-129293168D01*
X164680438Y-129310438D01*
X164663168Y-129326090D01*
X164644448Y-129339974D01*
X164624457Y-129351956D01*
X164603387Y-129361921D01*
X164581443Y-129369773D01*
X164558834Y-129375437D01*
X164535779Y-129378856D01*
X164512500Y-129380000D01*
X163937500Y-129380000D01*
X163914221Y-129378856D01*
X163891166Y-129375437D01*
X163868557Y-129369773D01*
X163846613Y-129361921D01*
X163825543Y-129351956D01*
X163805552Y-129339974D01*
X163786832Y-129326090D01*
X163769562Y-129310438D01*
X163753910Y-129293168D01*
X163740026Y-129274448D01*
X163728044Y-129254457D01*
X163718079Y-129233387D01*
X163710227Y-129211443D01*
X163704563Y-129188834D01*
X163701144Y-129165779D01*
X163700000Y-129142500D01*
X163700000Y-128667500D01*
X163701144Y-128644221D01*
X163704563Y-128621166D01*
X163710227Y-128598557D01*
X163718079Y-128576613D01*
X163728044Y-128555543D01*
X163740026Y-128535552D01*
X163753910Y-128516832D01*
X163769562Y-128499562D01*
X163786832Y-128483910D01*
X163805552Y-128470026D01*
X163825543Y-128458044D01*
X163846613Y-128448079D01*
X163868557Y-128440227D01*
X163891166Y-128434563D01*
X163914221Y-128431144D01*
X163937500Y-128430000D01*
X164512500Y-128430000D01*
X164535779Y-128431144D01*
X164535779Y-128431144D01*
G37*
D15*
X164225000Y-128905000D03*
G04 #@! TD*
D11*
G04 #@! TO.C,R8*
G36*
X164535779Y-133511144D02*
X164558834Y-133514563D01*
X164581443Y-133520227D01*
X164603387Y-133528079D01*
X164624457Y-133538044D01*
X164644448Y-133550026D01*
X164663168Y-133563910D01*
X164680438Y-133579562D01*
X164696090Y-133596832D01*
X164709974Y-133615552D01*
X164721956Y-133635543D01*
X164731921Y-133656613D01*
X164739773Y-133678557D01*
X164745437Y-133701166D01*
X164748856Y-133724221D01*
X164750000Y-133747500D01*
X164750000Y-134222500D01*
X164748856Y-134245779D01*
X164745437Y-134268834D01*
X164739773Y-134291443D01*
X164731921Y-134313387D01*
X164721956Y-134334457D01*
X164709974Y-134354448D01*
X164696090Y-134373168D01*
X164680438Y-134390438D01*
X164663168Y-134406090D01*
X164644448Y-134419974D01*
X164624457Y-134431956D01*
X164603387Y-134441921D01*
X164581443Y-134449773D01*
X164558834Y-134455437D01*
X164535779Y-134458856D01*
X164512500Y-134460000D01*
X163937500Y-134460000D01*
X163914221Y-134458856D01*
X163891166Y-134455437D01*
X163868557Y-134449773D01*
X163846613Y-134441921D01*
X163825543Y-134431956D01*
X163805552Y-134419974D01*
X163786832Y-134406090D01*
X163769562Y-134390438D01*
X163753910Y-134373168D01*
X163740026Y-134354448D01*
X163728044Y-134334457D01*
X163718079Y-134313387D01*
X163710227Y-134291443D01*
X163704563Y-134268834D01*
X163701144Y-134245779D01*
X163700000Y-134222500D01*
X163700000Y-133747500D01*
X163701144Y-133724221D01*
X163704563Y-133701166D01*
X163710227Y-133678557D01*
X163718079Y-133656613D01*
X163728044Y-133635543D01*
X163740026Y-133615552D01*
X163753910Y-133596832D01*
X163769562Y-133579562D01*
X163786832Y-133563910D01*
X163805552Y-133550026D01*
X163825543Y-133538044D01*
X163846613Y-133528079D01*
X163868557Y-133520227D01*
X163891166Y-133514563D01*
X163914221Y-133511144D01*
X163937500Y-133510000D01*
X164512500Y-133510000D01*
X164535779Y-133511144D01*
X164535779Y-133511144D01*
G37*
D15*
X164225000Y-133985000D03*
D11*
G36*
X166285779Y-133511144D02*
X166308834Y-133514563D01*
X166331443Y-133520227D01*
X166353387Y-133528079D01*
X166374457Y-133538044D01*
X166394448Y-133550026D01*
X166413168Y-133563910D01*
X166430438Y-133579562D01*
X166446090Y-133596832D01*
X166459974Y-133615552D01*
X166471956Y-133635543D01*
X166481921Y-133656613D01*
X166489773Y-133678557D01*
X166495437Y-133701166D01*
X166498856Y-133724221D01*
X166500000Y-133747500D01*
X166500000Y-134222500D01*
X166498856Y-134245779D01*
X166495437Y-134268834D01*
X166489773Y-134291443D01*
X166481921Y-134313387D01*
X166471956Y-134334457D01*
X166459974Y-134354448D01*
X166446090Y-134373168D01*
X166430438Y-134390438D01*
X166413168Y-134406090D01*
X166394448Y-134419974D01*
X166374457Y-134431956D01*
X166353387Y-134441921D01*
X166331443Y-134449773D01*
X166308834Y-134455437D01*
X166285779Y-134458856D01*
X166262500Y-134460000D01*
X165687500Y-134460000D01*
X165664221Y-134458856D01*
X165641166Y-134455437D01*
X165618557Y-134449773D01*
X165596613Y-134441921D01*
X165575543Y-134431956D01*
X165555552Y-134419974D01*
X165536832Y-134406090D01*
X165519562Y-134390438D01*
X165503910Y-134373168D01*
X165490026Y-134354448D01*
X165478044Y-134334457D01*
X165468079Y-134313387D01*
X165460227Y-134291443D01*
X165454563Y-134268834D01*
X165451144Y-134245779D01*
X165450000Y-134222500D01*
X165450000Y-133747500D01*
X165451144Y-133724221D01*
X165454563Y-133701166D01*
X165460227Y-133678557D01*
X165468079Y-133656613D01*
X165478044Y-133635543D01*
X165490026Y-133615552D01*
X165503910Y-133596832D01*
X165519562Y-133579562D01*
X165536832Y-133563910D01*
X165555552Y-133550026D01*
X165575543Y-133538044D01*
X165596613Y-133528079D01*
X165618557Y-133520227D01*
X165641166Y-133514563D01*
X165664221Y-133511144D01*
X165687500Y-133510000D01*
X166262500Y-133510000D01*
X166285779Y-133511144D01*
X166285779Y-133511144D01*
G37*
D15*
X165975000Y-133985000D03*
G04 #@! TD*
D11*
G04 #@! TO.C,R9*
G36*
X170730779Y-128431144D02*
X170753834Y-128434563D01*
X170776443Y-128440227D01*
X170798387Y-128448079D01*
X170819457Y-128458044D01*
X170839448Y-128470026D01*
X170858168Y-128483910D01*
X170875438Y-128499562D01*
X170891090Y-128516832D01*
X170904974Y-128535552D01*
X170916956Y-128555543D01*
X170926921Y-128576613D01*
X170934773Y-128598557D01*
X170940437Y-128621166D01*
X170943856Y-128644221D01*
X170945000Y-128667500D01*
X170945000Y-129142500D01*
X170943856Y-129165779D01*
X170940437Y-129188834D01*
X170934773Y-129211443D01*
X170926921Y-129233387D01*
X170916956Y-129254457D01*
X170904974Y-129274448D01*
X170891090Y-129293168D01*
X170875438Y-129310438D01*
X170858168Y-129326090D01*
X170839448Y-129339974D01*
X170819457Y-129351956D01*
X170798387Y-129361921D01*
X170776443Y-129369773D01*
X170753834Y-129375437D01*
X170730779Y-129378856D01*
X170707500Y-129380000D01*
X170132500Y-129380000D01*
X170109221Y-129378856D01*
X170086166Y-129375437D01*
X170063557Y-129369773D01*
X170041613Y-129361921D01*
X170020543Y-129351956D01*
X170000552Y-129339974D01*
X169981832Y-129326090D01*
X169964562Y-129310438D01*
X169948910Y-129293168D01*
X169935026Y-129274448D01*
X169923044Y-129254457D01*
X169913079Y-129233387D01*
X169905227Y-129211443D01*
X169899563Y-129188834D01*
X169896144Y-129165779D01*
X169895000Y-129142500D01*
X169895000Y-128667500D01*
X169896144Y-128644221D01*
X169899563Y-128621166D01*
X169905227Y-128598557D01*
X169913079Y-128576613D01*
X169923044Y-128555543D01*
X169935026Y-128535552D01*
X169948910Y-128516832D01*
X169964562Y-128499562D01*
X169981832Y-128483910D01*
X170000552Y-128470026D01*
X170020543Y-128458044D01*
X170041613Y-128448079D01*
X170063557Y-128440227D01*
X170086166Y-128434563D01*
X170109221Y-128431144D01*
X170132500Y-128430000D01*
X170707500Y-128430000D01*
X170730779Y-128431144D01*
X170730779Y-128431144D01*
G37*
D15*
X170420000Y-128905000D03*
D11*
G36*
X168980779Y-128431144D02*
X169003834Y-128434563D01*
X169026443Y-128440227D01*
X169048387Y-128448079D01*
X169069457Y-128458044D01*
X169089448Y-128470026D01*
X169108168Y-128483910D01*
X169125438Y-128499562D01*
X169141090Y-128516832D01*
X169154974Y-128535552D01*
X169166956Y-128555543D01*
X169176921Y-128576613D01*
X169184773Y-128598557D01*
X169190437Y-128621166D01*
X169193856Y-128644221D01*
X169195000Y-128667500D01*
X169195000Y-129142500D01*
X169193856Y-129165779D01*
X169190437Y-129188834D01*
X169184773Y-129211443D01*
X169176921Y-129233387D01*
X169166956Y-129254457D01*
X169154974Y-129274448D01*
X169141090Y-129293168D01*
X169125438Y-129310438D01*
X169108168Y-129326090D01*
X169089448Y-129339974D01*
X169069457Y-129351956D01*
X169048387Y-129361921D01*
X169026443Y-129369773D01*
X169003834Y-129375437D01*
X168980779Y-129378856D01*
X168957500Y-129380000D01*
X168382500Y-129380000D01*
X168359221Y-129378856D01*
X168336166Y-129375437D01*
X168313557Y-129369773D01*
X168291613Y-129361921D01*
X168270543Y-129351956D01*
X168250552Y-129339974D01*
X168231832Y-129326090D01*
X168214562Y-129310438D01*
X168198910Y-129293168D01*
X168185026Y-129274448D01*
X168173044Y-129254457D01*
X168163079Y-129233387D01*
X168155227Y-129211443D01*
X168149563Y-129188834D01*
X168146144Y-129165779D01*
X168145000Y-129142500D01*
X168145000Y-128667500D01*
X168146144Y-128644221D01*
X168149563Y-128621166D01*
X168155227Y-128598557D01*
X168163079Y-128576613D01*
X168173044Y-128555543D01*
X168185026Y-128535552D01*
X168198910Y-128516832D01*
X168214562Y-128499562D01*
X168231832Y-128483910D01*
X168250552Y-128470026D01*
X168270543Y-128458044D01*
X168291613Y-128448079D01*
X168313557Y-128440227D01*
X168336166Y-128434563D01*
X168359221Y-128431144D01*
X168382500Y-128430000D01*
X168957500Y-128430000D01*
X168980779Y-128431144D01*
X168980779Y-128431144D01*
G37*
D15*
X168670000Y-128905000D03*
G04 #@! TD*
D11*
G04 #@! TO.C,R10*
G36*
X170730779Y-133511144D02*
X170753834Y-133514563D01*
X170776443Y-133520227D01*
X170798387Y-133528079D01*
X170819457Y-133538044D01*
X170839448Y-133550026D01*
X170858168Y-133563910D01*
X170875438Y-133579562D01*
X170891090Y-133596832D01*
X170904974Y-133615552D01*
X170916956Y-133635543D01*
X170926921Y-133656613D01*
X170934773Y-133678557D01*
X170940437Y-133701166D01*
X170943856Y-133724221D01*
X170945000Y-133747500D01*
X170945000Y-134222500D01*
X170943856Y-134245779D01*
X170940437Y-134268834D01*
X170934773Y-134291443D01*
X170926921Y-134313387D01*
X170916956Y-134334457D01*
X170904974Y-134354448D01*
X170891090Y-134373168D01*
X170875438Y-134390438D01*
X170858168Y-134406090D01*
X170839448Y-134419974D01*
X170819457Y-134431956D01*
X170798387Y-134441921D01*
X170776443Y-134449773D01*
X170753834Y-134455437D01*
X170730779Y-134458856D01*
X170707500Y-134460000D01*
X170132500Y-134460000D01*
X170109221Y-134458856D01*
X170086166Y-134455437D01*
X170063557Y-134449773D01*
X170041613Y-134441921D01*
X170020543Y-134431956D01*
X170000552Y-134419974D01*
X169981832Y-134406090D01*
X169964562Y-134390438D01*
X169948910Y-134373168D01*
X169935026Y-134354448D01*
X169923044Y-134334457D01*
X169913079Y-134313387D01*
X169905227Y-134291443D01*
X169899563Y-134268834D01*
X169896144Y-134245779D01*
X169895000Y-134222500D01*
X169895000Y-133747500D01*
X169896144Y-133724221D01*
X169899563Y-133701166D01*
X169905227Y-133678557D01*
X169913079Y-133656613D01*
X169923044Y-133635543D01*
X169935026Y-133615552D01*
X169948910Y-133596832D01*
X169964562Y-133579562D01*
X169981832Y-133563910D01*
X170000552Y-133550026D01*
X170020543Y-133538044D01*
X170041613Y-133528079D01*
X170063557Y-133520227D01*
X170086166Y-133514563D01*
X170109221Y-133511144D01*
X170132500Y-133510000D01*
X170707500Y-133510000D01*
X170730779Y-133511144D01*
X170730779Y-133511144D01*
G37*
D15*
X170420000Y-133985000D03*
D11*
G36*
X168980779Y-133511144D02*
X169003834Y-133514563D01*
X169026443Y-133520227D01*
X169048387Y-133528079D01*
X169069457Y-133538044D01*
X169089448Y-133550026D01*
X169108168Y-133563910D01*
X169125438Y-133579562D01*
X169141090Y-133596832D01*
X169154974Y-133615552D01*
X169166956Y-133635543D01*
X169176921Y-133656613D01*
X169184773Y-133678557D01*
X169190437Y-133701166D01*
X169193856Y-133724221D01*
X169195000Y-133747500D01*
X169195000Y-134222500D01*
X169193856Y-134245779D01*
X169190437Y-134268834D01*
X169184773Y-134291443D01*
X169176921Y-134313387D01*
X169166956Y-134334457D01*
X169154974Y-134354448D01*
X169141090Y-134373168D01*
X169125438Y-134390438D01*
X169108168Y-134406090D01*
X169089448Y-134419974D01*
X169069457Y-134431956D01*
X169048387Y-134441921D01*
X169026443Y-134449773D01*
X169003834Y-134455437D01*
X168980779Y-134458856D01*
X168957500Y-134460000D01*
X168382500Y-134460000D01*
X168359221Y-134458856D01*
X168336166Y-134455437D01*
X168313557Y-134449773D01*
X168291613Y-134441921D01*
X168270543Y-134431956D01*
X168250552Y-134419974D01*
X168231832Y-134406090D01*
X168214562Y-134390438D01*
X168198910Y-134373168D01*
X168185026Y-134354448D01*
X168173044Y-134334457D01*
X168163079Y-134313387D01*
X168155227Y-134291443D01*
X168149563Y-134268834D01*
X168146144Y-134245779D01*
X168145000Y-134222500D01*
X168145000Y-133747500D01*
X168146144Y-133724221D01*
X168149563Y-133701166D01*
X168155227Y-133678557D01*
X168163079Y-133656613D01*
X168173044Y-133635543D01*
X168185026Y-133615552D01*
X168198910Y-133596832D01*
X168214562Y-133579562D01*
X168231832Y-133563910D01*
X168250552Y-133550026D01*
X168270543Y-133538044D01*
X168291613Y-133528079D01*
X168313557Y-133520227D01*
X168336166Y-133514563D01*
X168359221Y-133511144D01*
X168382500Y-133510000D01*
X168957500Y-133510000D01*
X168980779Y-133511144D01*
X168980779Y-133511144D01*
G37*
D15*
X168670000Y-133985000D03*
G04 #@! TD*
D16*
G04 #@! TO.C,SW_BOOT1*
X165354000Y-117120000D03*
X165354000Y-120370000D03*
G04 #@! TD*
G04 #@! TO.C,SW_RESET1*
X171704000Y-117120000D03*
X171704000Y-120370000D03*
G04 #@! TD*
D17*
G04 #@! TO.C,U1*
X171520000Y-125615000D03*
X171520000Y-126115000D03*
X171520000Y-126615000D03*
X171520000Y-127115000D03*
X173920000Y-127115000D03*
X173920000Y-126615000D03*
X173920000Y-126115000D03*
X173920000Y-125615000D03*
D18*
X172720000Y-126365000D03*
G04 #@! TD*
D19*
G04 #@! TO.C,J5*
X186424000Y-134878200D03*
X185924000Y-134878200D03*
X185424000Y-134878200D03*
X184924000Y-134878200D03*
D20*
X187214000Y-132228200D03*
X184134000Y-132228200D03*
G04 #@! TD*
M02*
