G04 #@! TF.GenerationSoftware,KiCad,Pcbnew,(5.0.0-rc2-200-g1f6f76beb)*
G04 #@! TF.CreationDate,2020-02-24T22:29:36-05:00*
G04 #@! TF.ProjectId,watch-logic,77617463682D6C6F6769632E6B696361,rev?*
G04 #@! TF.SameCoordinates,Original*
G04 #@! TF.FileFunction,Legend,Bot*
G04 #@! TF.FilePolarity,Positive*
%FSLAX46Y46*%
G04 Gerber Fmt 4.6, Leading zero omitted, Abs format (unit mm)*
G04 Created by KiCad (PCBNEW (5.0.0-rc2-200-g1f6f76beb)) date Mon Feb 24 22:29:36 2020*
%MOMM*%
%LPD*%
G01*
G04 APERTURE LIST*
%ADD10C,0.125000*%
%ADD11C,0.120000*%
%ADD12C,0.050000*%
%ADD13C,0.100000*%
G04 APERTURE END LIST*
D10*
X165295090Y-129486297D02*
X164795090Y-129486297D01*
X164795090Y-129676773D01*
X164818900Y-129724392D01*
X164842709Y-129748202D01*
X164890328Y-129772011D01*
X164961757Y-129772011D01*
X165009376Y-129748202D01*
X165033185Y-129724392D01*
X165056995Y-129676773D01*
X165056995Y-129486297D01*
X165295090Y-129986297D02*
X164961757Y-129986297D01*
X164795090Y-129986297D02*
X164818900Y-129962488D01*
X164842709Y-129986297D01*
X164818900Y-130010107D01*
X164795090Y-129986297D01*
X164842709Y-129986297D01*
X164961757Y-130152964D02*
X164961757Y-130343440D01*
X164795090Y-130224392D02*
X165223661Y-130224392D01*
X165271280Y-130248202D01*
X165295090Y-130295821D01*
X165295090Y-130343440D01*
X164961757Y-130438678D02*
X164961757Y-130629154D01*
X164795090Y-130510107D02*
X165223661Y-130510107D01*
X165271280Y-130533916D01*
X165295090Y-130581535D01*
X165295090Y-130629154D01*
X165271280Y-130772011D02*
X165295090Y-130819630D01*
X165295090Y-130914869D01*
X165271280Y-130962488D01*
X165223661Y-130986297D01*
X165199852Y-130986297D01*
X165152233Y-130962488D01*
X165128423Y-130914869D01*
X165128423Y-130843440D01*
X165104614Y-130795821D01*
X165056995Y-130772011D01*
X165033185Y-130772011D01*
X164985566Y-130795821D01*
X164961757Y-130843440D01*
X164961757Y-130914869D01*
X164985566Y-130962488D01*
X165295090Y-131200583D02*
X164795090Y-131200583D01*
X164985566Y-131200583D02*
X164961757Y-131248202D01*
X164961757Y-131343440D01*
X164985566Y-131391059D01*
X165009376Y-131414869D01*
X165056995Y-131438678D01*
X165199852Y-131438678D01*
X165247471Y-131414869D01*
X165271280Y-131391059D01*
X165295090Y-131343440D01*
X165295090Y-131248202D01*
X165271280Y-131200583D01*
X164961757Y-131867250D02*
X165295090Y-131867250D01*
X164961757Y-131652964D02*
X165223661Y-131652964D01*
X165271280Y-131676773D01*
X165295090Y-131724392D01*
X165295090Y-131795821D01*
X165271280Y-131843440D01*
X165247471Y-131867250D01*
X165295090Y-132105345D02*
X164961757Y-132105345D01*
X165056995Y-132105345D02*
X165009376Y-132129154D01*
X164985566Y-132152964D01*
X164961757Y-132200583D01*
X164961757Y-132248202D01*
X164961757Y-132629154D02*
X165366519Y-132629154D01*
X165414138Y-132605345D01*
X165437947Y-132581535D01*
X165461757Y-132533916D01*
X165461757Y-132462488D01*
X165437947Y-132414869D01*
X165271280Y-132629154D02*
X165295090Y-132581535D01*
X165295090Y-132486297D01*
X165271280Y-132438678D01*
X165247471Y-132414869D01*
X165199852Y-132391059D01*
X165056995Y-132391059D01*
X165009376Y-132414869D01*
X164985566Y-132438678D01*
X164961757Y-132486297D01*
X164961757Y-132581535D01*
X164985566Y-132629154D01*
X165295090Y-132867250D02*
X164795090Y-132867250D01*
X165295090Y-133081535D02*
X165033185Y-133081535D01*
X164985566Y-133057726D01*
X164961757Y-133010107D01*
X164961757Y-132938678D01*
X164985566Y-132891059D01*
X165009376Y-132867250D01*
X165271280Y-133343440D02*
X165295090Y-133343440D01*
X165342709Y-133319630D01*
X165366519Y-133295821D01*
X165295090Y-133938678D02*
X164795090Y-133938678D01*
X164795090Y-134129154D01*
X164818900Y-134176773D01*
X164842709Y-134200583D01*
X164890328Y-134224392D01*
X164961757Y-134224392D01*
X165009376Y-134200583D01*
X165033185Y-134176773D01*
X165056995Y-134129154D01*
X165056995Y-133938678D01*
X165152233Y-134414869D02*
X165152233Y-134652964D01*
X165295090Y-134367250D02*
X164795090Y-134533916D01*
X165295090Y-134700583D01*
X165717709Y-129462488D02*
X165693900Y-129486297D01*
X165670090Y-129533916D01*
X165670090Y-129652964D01*
X165693900Y-129700583D01*
X165717709Y-129724392D01*
X165765328Y-129748202D01*
X165812947Y-129748202D01*
X165884376Y-129724392D01*
X166170090Y-129438678D01*
X166170090Y-129748202D01*
X165670090Y-130057726D02*
X165670090Y-130105345D01*
X165693900Y-130152964D01*
X165717709Y-130176773D01*
X165765328Y-130200583D01*
X165860566Y-130224392D01*
X165979614Y-130224392D01*
X166074852Y-130200583D01*
X166122471Y-130176773D01*
X166146280Y-130152964D01*
X166170090Y-130105345D01*
X166170090Y-130057726D01*
X166146280Y-130010107D01*
X166122471Y-129986297D01*
X166074852Y-129962488D01*
X165979614Y-129938678D01*
X165860566Y-129938678D01*
X165765328Y-129962488D01*
X165717709Y-129986297D01*
X165693900Y-130010107D01*
X165670090Y-130057726D01*
X165717709Y-130414869D02*
X165693900Y-130438678D01*
X165670090Y-130486297D01*
X165670090Y-130605345D01*
X165693900Y-130652964D01*
X165717709Y-130676773D01*
X165765328Y-130700583D01*
X165812947Y-130700583D01*
X165884376Y-130676773D01*
X166170090Y-130391059D01*
X166170090Y-130700583D01*
X165670090Y-131010107D02*
X165670090Y-131057726D01*
X165693900Y-131105345D01*
X165717709Y-131129154D01*
X165765328Y-131152964D01*
X165860566Y-131176773D01*
X165979614Y-131176773D01*
X166074852Y-131152964D01*
X166122471Y-131129154D01*
X166146280Y-131105345D01*
X166170090Y-131057726D01*
X166170090Y-131010107D01*
X166146280Y-130962488D01*
X166122471Y-130938678D01*
X166074852Y-130914869D01*
X165979614Y-130891059D01*
X165860566Y-130891059D01*
X165765328Y-130914869D01*
X165717709Y-130938678D01*
X165693900Y-130962488D01*
X165670090Y-131010107D01*
X163466085Y-124288142D02*
X164108942Y-124288142D01*
X164180371Y-124252428D01*
X164216085Y-124181000D01*
X164216085Y-124145285D01*
X163216085Y-124288142D02*
X163251800Y-124252428D01*
X163287514Y-124288142D01*
X163251800Y-124323857D01*
X163216085Y-124288142D01*
X163287514Y-124288142D01*
X163930371Y-124931000D02*
X163966085Y-124859571D01*
X163966085Y-124716714D01*
X163930371Y-124645285D01*
X163858942Y-124609571D01*
X163573228Y-124609571D01*
X163501800Y-124645285D01*
X163466085Y-124716714D01*
X163466085Y-124859571D01*
X163501800Y-124931000D01*
X163573228Y-124966714D01*
X163644657Y-124966714D01*
X163716085Y-124609571D01*
X163466085Y-125181000D02*
X163466085Y-125466714D01*
X163966085Y-125288142D02*
X163323228Y-125288142D01*
X163251800Y-125323857D01*
X163216085Y-125395285D01*
X163216085Y-125466714D01*
X163466085Y-125609571D02*
X163466085Y-125895285D01*
X163966085Y-125716714D02*
X163323228Y-125716714D01*
X163251800Y-125752428D01*
X163216085Y-125823857D01*
X163216085Y-125895285D01*
X163608942Y-126609571D02*
X163573228Y-126573857D01*
X163537514Y-126502428D01*
X163537514Y-126431000D01*
X163573228Y-126359571D01*
X163608942Y-126323857D01*
X163680371Y-126288142D01*
X163751800Y-126288142D01*
X163823228Y-126323857D01*
X163858942Y-126359571D01*
X163894657Y-126431000D01*
X163894657Y-126502428D01*
X163858942Y-126573857D01*
X163823228Y-126609571D01*
X163537514Y-126609571D02*
X163823228Y-126609571D01*
X163858942Y-126645285D01*
X163858942Y-126681000D01*
X163823228Y-126752428D01*
X163751800Y-126788142D01*
X163573228Y-126788142D01*
X163466085Y-126716714D01*
X163394657Y-126609571D01*
X163358942Y-126466714D01*
X163394657Y-126323857D01*
X163466085Y-126216714D01*
X163573228Y-126145285D01*
X163716085Y-126109571D01*
X163858942Y-126145285D01*
X163966085Y-126216714D01*
X164037514Y-126323857D01*
X164073228Y-126466714D01*
X164037514Y-126609571D01*
X163966085Y-126716714D01*
X163466085Y-127002428D02*
X163466085Y-127288142D01*
X163216085Y-127109571D02*
X163858942Y-127109571D01*
X163930371Y-127145285D01*
X163966085Y-127216714D01*
X163966085Y-127288142D01*
X163966085Y-127538142D02*
X163216085Y-127538142D01*
X163966085Y-127859571D02*
X163573228Y-127859571D01*
X163501800Y-127823857D01*
X163466085Y-127752428D01*
X163466085Y-127645285D01*
X163501800Y-127573857D01*
X163537514Y-127538142D01*
X163930371Y-128502428D02*
X163966085Y-128431000D01*
X163966085Y-128288142D01*
X163930371Y-128216714D01*
X163858942Y-128181000D01*
X163573228Y-128181000D01*
X163501800Y-128216714D01*
X163466085Y-128288142D01*
X163466085Y-128431000D01*
X163501800Y-128502428D01*
X163573228Y-128538142D01*
X163644657Y-128538142D01*
X163716085Y-128181000D01*
X163466085Y-128859571D02*
X164108942Y-128859571D01*
X164180371Y-128823857D01*
X164216085Y-128752428D01*
X164216085Y-128716714D01*
X163216085Y-128859571D02*
X163251800Y-128823857D01*
X163287514Y-128859571D01*
X163251800Y-128895285D01*
X163216085Y-128859571D01*
X163287514Y-128859571D01*
X163930371Y-129502428D02*
X163966085Y-129431000D01*
X163966085Y-129288142D01*
X163930371Y-129216714D01*
X163858942Y-129181000D01*
X163573228Y-129181000D01*
X163501800Y-129216714D01*
X163466085Y-129288142D01*
X163466085Y-129431000D01*
X163501800Y-129502428D01*
X163573228Y-129538142D01*
X163644657Y-129538142D01*
X163716085Y-129181000D01*
X163466085Y-129752428D02*
X163466085Y-130038142D01*
X163966085Y-129859571D02*
X163323228Y-129859571D01*
X163251800Y-129895285D01*
X163216085Y-129966714D01*
X163216085Y-130038142D01*
X163466085Y-130181000D02*
X163466085Y-130466714D01*
X163966085Y-130288142D02*
X163323228Y-130288142D01*
X163251800Y-130323857D01*
X163216085Y-130395285D01*
X163216085Y-130466714D01*
X163930371Y-131038142D02*
X163966085Y-130966714D01*
X163966085Y-130823857D01*
X163930371Y-130752428D01*
X163894657Y-130716714D01*
X163823228Y-130681000D01*
X163608942Y-130681000D01*
X163537514Y-130716714D01*
X163501800Y-130752428D01*
X163466085Y-130823857D01*
X163466085Y-130966714D01*
X163501800Y-131038142D01*
X163966085Y-131466714D02*
X163930371Y-131395285D01*
X163894657Y-131359571D01*
X163823228Y-131323857D01*
X163608942Y-131323857D01*
X163537514Y-131359571D01*
X163501800Y-131395285D01*
X163466085Y-131466714D01*
X163466085Y-131573857D01*
X163501800Y-131645285D01*
X163537514Y-131681000D01*
X163608942Y-131716714D01*
X163823228Y-131716714D01*
X163894657Y-131681000D01*
X163930371Y-131645285D01*
X163966085Y-131573857D01*
X163966085Y-131466714D01*
X163966085Y-132145285D02*
X163930371Y-132073857D01*
X163894657Y-132038142D01*
X163823228Y-132002428D01*
X163608942Y-132002428D01*
X163537514Y-132038142D01*
X163501800Y-132073857D01*
X163466085Y-132145285D01*
X163466085Y-132252428D01*
X163501800Y-132323857D01*
X163537514Y-132359571D01*
X163608942Y-132395285D01*
X163823228Y-132395285D01*
X163894657Y-132359571D01*
X163930371Y-132323857D01*
X163966085Y-132252428D01*
X163966085Y-132145285D01*
X163466085Y-132716714D02*
X164216085Y-132716714D01*
X163501800Y-132716714D02*
X163466085Y-132788142D01*
X163466085Y-132931000D01*
X163501800Y-133002428D01*
X163537514Y-133038142D01*
X163608942Y-133073857D01*
X163823228Y-133073857D01*
X163894657Y-133038142D01*
X163930371Y-133002428D01*
X163966085Y-132931000D01*
X163966085Y-132788142D01*
X163930371Y-132716714D01*
X163930371Y-133681000D02*
X163966085Y-133609571D01*
X163966085Y-133466714D01*
X163930371Y-133395285D01*
X163858942Y-133359571D01*
X163573228Y-133359571D01*
X163501800Y-133395285D01*
X163466085Y-133466714D01*
X163466085Y-133609571D01*
X163501800Y-133681000D01*
X163573228Y-133716714D01*
X163644657Y-133716714D01*
X163716085Y-133359571D01*
X163966085Y-134038142D02*
X163466085Y-134038142D01*
X163608942Y-134038142D02*
X163537514Y-134073857D01*
X163501800Y-134109571D01*
X163466085Y-134181000D01*
X163466085Y-134252428D01*
X163894657Y-134502428D02*
X163930371Y-134538142D01*
X163966085Y-134502428D01*
X163930371Y-134466714D01*
X163894657Y-134502428D01*
X163966085Y-134502428D01*
X163930371Y-135181000D02*
X163966085Y-135109571D01*
X163966085Y-134966714D01*
X163930371Y-134895285D01*
X163894657Y-134859571D01*
X163823228Y-134823857D01*
X163608942Y-134823857D01*
X163537514Y-134859571D01*
X163501800Y-134895285D01*
X163466085Y-134966714D01*
X163466085Y-135109571D01*
X163501800Y-135181000D01*
X163966085Y-135609571D02*
X163930371Y-135538142D01*
X163894657Y-135502428D01*
X163823228Y-135466714D01*
X163608942Y-135466714D01*
X163537514Y-135502428D01*
X163501800Y-135538142D01*
X163466085Y-135609571D01*
X163466085Y-135716714D01*
X163501800Y-135788142D01*
X163537514Y-135823857D01*
X163608942Y-135859571D01*
X163823228Y-135859571D01*
X163894657Y-135823857D01*
X163930371Y-135788142D01*
X163966085Y-135716714D01*
X163966085Y-135609571D01*
X163966085Y-136181000D02*
X163466085Y-136181000D01*
X163537514Y-136181000D02*
X163501800Y-136216714D01*
X163466085Y-136288142D01*
X163466085Y-136395285D01*
X163501800Y-136466714D01*
X163573228Y-136502428D01*
X163966085Y-136502428D01*
X163573228Y-136502428D02*
X163501800Y-136538142D01*
X163466085Y-136609571D01*
X163466085Y-136716714D01*
X163501800Y-136788142D01*
X163573228Y-136823857D01*
X163966085Y-136823857D01*
X185434157Y-131816742D02*
X185767490Y-131816742D01*
X185481776Y-131816742D02*
X185457966Y-131840552D01*
X185434157Y-131888171D01*
X185434157Y-131959600D01*
X185457966Y-132007219D01*
X185505585Y-132031028D01*
X185767490Y-132031028D01*
X185767490Y-132269123D02*
X185434157Y-132269123D01*
X185529395Y-132269123D02*
X185481776Y-132292933D01*
X185457966Y-132316742D01*
X185434157Y-132364361D01*
X185434157Y-132411980D01*
X185434157Y-132507219D02*
X185434157Y-132697695D01*
X185767490Y-132578647D02*
X185338919Y-132578647D01*
X185291300Y-132602457D01*
X185267490Y-132650076D01*
X185267490Y-132697695D01*
X185267490Y-133102457D02*
X185267490Y-132864361D01*
X185505585Y-132840552D01*
X185481776Y-132864361D01*
X185457966Y-132911980D01*
X185457966Y-133031028D01*
X185481776Y-133078647D01*
X185505585Y-133102457D01*
X185553204Y-133126266D01*
X185672252Y-133126266D01*
X185719871Y-133102457D01*
X185743680Y-133078647D01*
X185767490Y-133031028D01*
X185767490Y-132911980D01*
X185743680Y-132864361D01*
X185719871Y-132840552D01*
X185315109Y-133316742D02*
X185291300Y-133340552D01*
X185267490Y-133388171D01*
X185267490Y-133507219D01*
X185291300Y-133554838D01*
X185315109Y-133578647D01*
X185362728Y-133602457D01*
X185410347Y-133602457D01*
X185481776Y-133578647D01*
X185767490Y-133292933D01*
X185767490Y-133602457D01*
X185434157Y-134150076D02*
X185767490Y-134245314D01*
X185529395Y-134340552D01*
X185767490Y-134435790D01*
X185434157Y-134531028D01*
X185767490Y-134935790D02*
X185505585Y-134935790D01*
X185457966Y-134911980D01*
X185434157Y-134864361D01*
X185434157Y-134769123D01*
X185457966Y-134721504D01*
X185743680Y-134935790D02*
X185767490Y-134888171D01*
X185767490Y-134769123D01*
X185743680Y-134721504D01*
X185696061Y-134697695D01*
X185648442Y-134697695D01*
X185600823Y-134721504D01*
X185577014Y-134769123D01*
X185577014Y-134888171D01*
X185553204Y-134935790D01*
X185434157Y-135102457D02*
X185434157Y-135292933D01*
X185267490Y-135173885D02*
X185696061Y-135173885D01*
X185743680Y-135197695D01*
X185767490Y-135245314D01*
X185767490Y-135292933D01*
X185743680Y-135673885D02*
X185767490Y-135626266D01*
X185767490Y-135531028D01*
X185743680Y-135483409D01*
X185719871Y-135459600D01*
X185672252Y-135435790D01*
X185529395Y-135435790D01*
X185481776Y-135459600D01*
X185457966Y-135483409D01*
X185434157Y-135531028D01*
X185434157Y-135626266D01*
X185457966Y-135673885D01*
X185767490Y-135888171D02*
X185267490Y-135888171D01*
X185767490Y-136102457D02*
X185505585Y-136102457D01*
X185457966Y-136078647D01*
X185434157Y-136031028D01*
X185434157Y-135959600D01*
X185457966Y-135911980D01*
X185481776Y-135888171D01*
X186642490Y-131923885D02*
X186309157Y-131923885D01*
X186356776Y-131923885D02*
X186332966Y-131947695D01*
X186309157Y-131995314D01*
X186309157Y-132066742D01*
X186332966Y-132114361D01*
X186380585Y-132138171D01*
X186642490Y-132138171D01*
X186380585Y-132138171D02*
X186332966Y-132161980D01*
X186309157Y-132209600D01*
X186309157Y-132281028D01*
X186332966Y-132328647D01*
X186380585Y-132352457D01*
X186642490Y-132352457D01*
X186642490Y-132804838D02*
X186380585Y-132804838D01*
X186332966Y-132781028D01*
X186309157Y-132733409D01*
X186309157Y-132638171D01*
X186332966Y-132590552D01*
X186618680Y-132804838D02*
X186642490Y-132757219D01*
X186642490Y-132638171D01*
X186618680Y-132590552D01*
X186571061Y-132566742D01*
X186523442Y-132566742D01*
X186475823Y-132590552D01*
X186452014Y-132638171D01*
X186452014Y-132757219D01*
X186428204Y-132804838D01*
X186642490Y-133042933D02*
X186309157Y-133042933D01*
X186142490Y-133042933D02*
X186166300Y-133019123D01*
X186190109Y-133042933D01*
X186166300Y-133066742D01*
X186142490Y-133042933D01*
X186190109Y-133042933D01*
X186309157Y-133281028D02*
X186642490Y-133281028D01*
X186356776Y-133281028D02*
X186332966Y-133304838D01*
X186309157Y-133352457D01*
X186309157Y-133423885D01*
X186332966Y-133471504D01*
X186380585Y-133495314D01*
X186642490Y-133495314D01*
X186642490Y-134114361D02*
X186142490Y-134114361D01*
X186332966Y-134114361D02*
X186309157Y-134161980D01*
X186309157Y-134257219D01*
X186332966Y-134304838D01*
X186356776Y-134328647D01*
X186404395Y-134352457D01*
X186547252Y-134352457D01*
X186594871Y-134328647D01*
X186618680Y-134304838D01*
X186642490Y-134257219D01*
X186642490Y-134161980D01*
X186618680Y-134114361D01*
X186642490Y-134638171D02*
X186618680Y-134590552D01*
X186594871Y-134566742D01*
X186547252Y-134542933D01*
X186404395Y-134542933D01*
X186356776Y-134566742D01*
X186332966Y-134590552D01*
X186309157Y-134638171D01*
X186309157Y-134709600D01*
X186332966Y-134757219D01*
X186356776Y-134781028D01*
X186404395Y-134804838D01*
X186547252Y-134804838D01*
X186594871Y-134781028D01*
X186618680Y-134757219D01*
X186642490Y-134709600D01*
X186642490Y-134638171D01*
X186642490Y-135233409D02*
X186380585Y-135233409D01*
X186332966Y-135209600D01*
X186309157Y-135161980D01*
X186309157Y-135066742D01*
X186332966Y-135019123D01*
X186618680Y-135233409D02*
X186642490Y-135185790D01*
X186642490Y-135066742D01*
X186618680Y-135019123D01*
X186571061Y-134995314D01*
X186523442Y-134995314D01*
X186475823Y-135019123D01*
X186452014Y-135066742D01*
X186452014Y-135185790D01*
X186428204Y-135233409D01*
X186642490Y-135471504D02*
X186309157Y-135471504D01*
X186404395Y-135471504D02*
X186356776Y-135495314D01*
X186332966Y-135519123D01*
X186309157Y-135566742D01*
X186309157Y-135614361D01*
X186642490Y-135995314D02*
X186142490Y-135995314D01*
X186618680Y-135995314D02*
X186642490Y-135947695D01*
X186642490Y-135852457D01*
X186618680Y-135804838D01*
X186594871Y-135781028D01*
X186547252Y-135757219D01*
X186404395Y-135757219D01*
X186356776Y-135781028D01*
X186332966Y-135804838D01*
X186309157Y-135852457D01*
X186309157Y-135947695D01*
X186332966Y-135995314D01*
X187474990Y-132023752D02*
X187141657Y-132023752D01*
X187236895Y-132023752D02*
X187189276Y-132047561D01*
X187165466Y-132071371D01*
X187141657Y-132118990D01*
X187141657Y-132166609D01*
X187451180Y-132523752D02*
X187474990Y-132476133D01*
X187474990Y-132380895D01*
X187451180Y-132333276D01*
X187403561Y-132309466D01*
X187213085Y-132309466D01*
X187165466Y-132333276D01*
X187141657Y-132380895D01*
X187141657Y-132476133D01*
X187165466Y-132523752D01*
X187213085Y-132547561D01*
X187260704Y-132547561D01*
X187308323Y-132309466D01*
X187141657Y-132714228D02*
X187474990Y-132833276D01*
X187141657Y-132952323D01*
X187474990Y-133785657D02*
X187474990Y-133499942D01*
X187474990Y-133642800D02*
X186974990Y-133642800D01*
X187046419Y-133595180D01*
X187094038Y-133547561D01*
X187117847Y-133499942D01*
D11*
G04 #@! TO.C,C2*
X178433000Y-119857733D02*
X178433000Y-120200267D01*
X179453000Y-119857733D02*
X179453000Y-120200267D01*
G04 #@! TO.C,J1*
X187470000Y-125695000D02*
X187470000Y-129575000D01*
X183000000Y-130745000D02*
X183000000Y-129695000D01*
X185500000Y-130745000D02*
X183000000Y-130745000D01*
X183000000Y-125575000D02*
X182010000Y-125575000D01*
X183000000Y-124525000D02*
X183000000Y-125575000D01*
X185500000Y-124525000D02*
X183000000Y-124525000D01*
G04 #@! TO.C,J2*
X184085000Y-134700000D02*
X184085000Y-132200000D01*
X184085000Y-132200000D02*
X183035000Y-132200000D01*
X183035000Y-132200000D02*
X183035000Y-131210000D01*
X177865000Y-134700000D02*
X177865000Y-132200000D01*
X177865000Y-132200000D02*
X178915000Y-132200000D01*
X182915000Y-136670000D02*
X179035000Y-136670000D01*
G04 #@! TO.C,J4*
X181580000Y-116085000D02*
X181580000Y-114595000D01*
X181580000Y-114595000D02*
X182920000Y-114595000D01*
X181580000Y-121405000D02*
X181580000Y-122895000D01*
X181580000Y-122895000D02*
X182920000Y-122895000D01*
X185640000Y-114595000D02*
X187380000Y-114595000D01*
X187380000Y-114595000D02*
X187380000Y-122895000D01*
X187380000Y-122895000D02*
X185640000Y-122895000D01*
X181580000Y-116085000D02*
X180380000Y-116085000D01*
D12*
G04 #@! TO.C,P1*
X174850000Y-134675000D02*
G75*
G03X174850000Y-134675000I-70000J0D01*
G01*
D11*
G04 #@! TO.C,R1*
X178310000Y-125506267D02*
X178310000Y-125163733D01*
X177290000Y-125506267D02*
X177290000Y-125163733D01*
G04 #@! TO.C,R2*
X175385000Y-125506267D02*
X175385000Y-125163733D01*
X176405000Y-125506267D02*
X176405000Y-125163733D01*
D13*
G04 #@! TO.C,IC1*
X160652000Y-112733000D02*
X160652000Y-123233000D01*
X160652000Y-123233000D02*
X176152000Y-123233000D01*
X176152000Y-123233000D02*
X176152000Y-112733000D01*
X176152000Y-112733000D02*
X160652000Y-112733000D01*
X164602000Y-112383000D02*
X164602000Y-112383000D01*
X164702000Y-112383000D02*
X164702000Y-112383000D01*
X164702000Y-112383000D02*
G75*
G03X164602000Y-112383000I-50000J0D01*
G01*
X164602000Y-112383000D02*
G75*
G03X164702000Y-112383000I50000J0D01*
G01*
G04 #@! TO.C,C2*
D10*
X177691571Y-119945666D02*
X177715380Y-119921857D01*
X177739190Y-119850428D01*
X177739190Y-119802809D01*
X177715380Y-119731380D01*
X177667761Y-119683761D01*
X177620142Y-119659952D01*
X177524904Y-119636142D01*
X177453476Y-119636142D01*
X177358238Y-119659952D01*
X177310619Y-119683761D01*
X177263000Y-119731380D01*
X177239190Y-119802809D01*
X177239190Y-119850428D01*
X177263000Y-119921857D01*
X177286809Y-119945666D01*
X177286809Y-120136142D02*
X177263000Y-120159952D01*
X177239190Y-120207571D01*
X177239190Y-120326619D01*
X177263000Y-120374238D01*
X177286809Y-120398047D01*
X177334428Y-120421857D01*
X177382047Y-120421857D01*
X177453476Y-120398047D01*
X177739190Y-120112333D01*
X177739190Y-120421857D01*
G04 #@! TO.C,J1*
X184892190Y-127341333D02*
X185249333Y-127341333D01*
X185320761Y-127317523D01*
X185368380Y-127269904D01*
X185392190Y-127198476D01*
X185392190Y-127150857D01*
X185392190Y-127841333D02*
X185392190Y-127555619D01*
X185392190Y-127698476D02*
X184892190Y-127698476D01*
X184963619Y-127650857D01*
X185011238Y-127603238D01*
X185035047Y-127555619D01*
G04 #@! TO.C,J2*
X181167066Y-133888990D02*
X181167066Y-134246133D01*
X181190876Y-134317561D01*
X181238495Y-134365180D01*
X181309923Y-134388990D01*
X181357542Y-134388990D01*
X180952780Y-133936609D02*
X180928971Y-133912800D01*
X180881352Y-133888990D01*
X180762304Y-133888990D01*
X180714685Y-133912800D01*
X180690876Y-133936609D01*
X180667066Y-133984228D01*
X180667066Y-134031847D01*
X180690876Y-134103276D01*
X180976590Y-134388990D01*
X180667066Y-134388990D01*
G04 #@! TO.C,J4*
X185450990Y-117282933D02*
X185808133Y-117282933D01*
X185879561Y-117259123D01*
X185927180Y-117211504D01*
X185950990Y-117140076D01*
X185950990Y-117092457D01*
X185617657Y-117735314D02*
X185950990Y-117735314D01*
X185427180Y-117616266D02*
X185784323Y-117497219D01*
X185784323Y-117806742D01*
G04 #@! TO.C,P1*
X173647847Y-132814190D02*
X173647847Y-132314190D01*
X173457371Y-132314190D01*
X173409752Y-132338000D01*
X173385942Y-132361809D01*
X173362133Y-132409428D01*
X173362133Y-132480857D01*
X173385942Y-132528476D01*
X173409752Y-132552285D01*
X173457371Y-132576095D01*
X173647847Y-132576095D01*
X172885942Y-132814190D02*
X173171657Y-132814190D01*
X173028800Y-132814190D02*
X173028800Y-132314190D01*
X173076419Y-132385619D01*
X173124038Y-132433238D01*
X173171657Y-132457047D01*
G04 #@! TO.C,R1*
X178076990Y-127424666D02*
X177838895Y-127258000D01*
X178076990Y-127138952D02*
X177576990Y-127138952D01*
X177576990Y-127329428D01*
X177600800Y-127377047D01*
X177624609Y-127400857D01*
X177672228Y-127424666D01*
X177743657Y-127424666D01*
X177791276Y-127400857D01*
X177815085Y-127377047D01*
X177838895Y-127329428D01*
X177838895Y-127138952D01*
X178076990Y-127900857D02*
X178076990Y-127615142D01*
X178076990Y-127758000D02*
X177576990Y-127758000D01*
X177648419Y-127710380D01*
X177696038Y-127662761D01*
X177719847Y-127615142D01*
G04 #@! TO.C,R2*
X176146590Y-127424666D02*
X175908495Y-127258000D01*
X176146590Y-127138952D02*
X175646590Y-127138952D01*
X175646590Y-127329428D01*
X175670400Y-127377047D01*
X175694209Y-127400857D01*
X175741828Y-127424666D01*
X175813257Y-127424666D01*
X175860876Y-127400857D01*
X175884685Y-127377047D01*
X175908495Y-127329428D01*
X175908495Y-127138952D01*
X175694209Y-127615142D02*
X175670400Y-127638952D01*
X175646590Y-127686571D01*
X175646590Y-127805619D01*
X175670400Y-127853238D01*
X175694209Y-127877047D01*
X175741828Y-127900857D01*
X175789447Y-127900857D01*
X175860876Y-127877047D01*
X176146590Y-127591333D01*
X176146590Y-127900857D01*
G04 #@! TO.C,IC1*
X168170990Y-117418704D02*
X167670990Y-117418704D01*
X168123371Y-117942514D02*
X168147180Y-117918704D01*
X168170990Y-117847276D01*
X168170990Y-117799657D01*
X168147180Y-117728228D01*
X168099561Y-117680609D01*
X168051942Y-117656800D01*
X167956704Y-117632990D01*
X167885276Y-117632990D01*
X167790038Y-117656800D01*
X167742419Y-117680609D01*
X167694800Y-117728228D01*
X167670990Y-117799657D01*
X167670990Y-117847276D01*
X167694800Y-117918704D01*
X167718609Y-117942514D01*
X168170990Y-118418704D02*
X168170990Y-118132990D01*
X168170990Y-118275847D02*
X167670990Y-118275847D01*
X167742419Y-118228228D01*
X167790038Y-118180609D01*
X167813847Y-118132990D01*
G04 #@! TD*
M02*
