G04 #@! TF.GenerationSoftware,KiCad,Pcbnew,(5.0.0-rc2-200-g1f6f76beb)*
G04 #@! TF.CreationDate,2020-02-25T20:58:18-05:00*
G04 #@! TF.ProjectId,watch-logic,77617463682D6C6F6769632E6B696361,rev?*
G04 #@! TF.SameCoordinates,Original*
G04 #@! TF.FileFunction,Soldermask,Bot*
G04 #@! TF.FilePolarity,Negative*
%FSLAX46Y46*%
G04 Gerber Fmt 4.6, Leading zero omitted, Abs format (unit mm)*
G04 Created by KiCad (PCBNEW (5.0.0-rc2-200-g1f6f76beb)) date Tue Feb 25 20:58:18 2020*
%MOMM*%
%LPD*%
G01*
G04 APERTURE LIST*
%ADD10C,0.100000*%
%ADD11C,1.350000*%
%ADD12C,1.600000*%
%ADD13C,1.000000*%
%ADD14R,1.250000X1.250000*%
%ADD15O,1.250000X1.250000*%
%ADD16R,2.600000X2.200000*%
%ADD17R,1.700000X0.700000*%
%ADD18R,1.150000X0.630000*%
%ADD19R,1.055000X0.850000*%
%ADD20R,0.800000X1.000000*%
%ADD21R,1.000000X0.800000*%
G04 APERTURE END LIST*
D10*
G04 #@! TO.C,C2*
G36*
X179313581Y-118430625D02*
X179346343Y-118435485D01*
X179378471Y-118443533D01*
X179409656Y-118454691D01*
X179439596Y-118468852D01*
X179468005Y-118485879D01*
X179494608Y-118505609D01*
X179519149Y-118527851D01*
X179541391Y-118552392D01*
X179561121Y-118578995D01*
X179578148Y-118607404D01*
X179592309Y-118637344D01*
X179603467Y-118668529D01*
X179611515Y-118700657D01*
X179616375Y-118733419D01*
X179618000Y-118766500D01*
X179618000Y-119541500D01*
X179616375Y-119574581D01*
X179611515Y-119607343D01*
X179603467Y-119639471D01*
X179592309Y-119670656D01*
X179578148Y-119700596D01*
X179561121Y-119729005D01*
X179541391Y-119755608D01*
X179519149Y-119780149D01*
X179494608Y-119802391D01*
X179468005Y-119822121D01*
X179439596Y-119839148D01*
X179409656Y-119853309D01*
X179378471Y-119864467D01*
X179346343Y-119872515D01*
X179313581Y-119877375D01*
X179280500Y-119879000D01*
X178605500Y-119879000D01*
X178572419Y-119877375D01*
X178539657Y-119872515D01*
X178507529Y-119864467D01*
X178476344Y-119853309D01*
X178446404Y-119839148D01*
X178417995Y-119822121D01*
X178391392Y-119802391D01*
X178366851Y-119780149D01*
X178344609Y-119755608D01*
X178324879Y-119729005D01*
X178307852Y-119700596D01*
X178293691Y-119670656D01*
X178282533Y-119639471D01*
X178274485Y-119607343D01*
X178269625Y-119574581D01*
X178268000Y-119541500D01*
X178268000Y-118766500D01*
X178269625Y-118733419D01*
X178274485Y-118700657D01*
X178282533Y-118668529D01*
X178293691Y-118637344D01*
X178307852Y-118607404D01*
X178324879Y-118578995D01*
X178344609Y-118552392D01*
X178366851Y-118527851D01*
X178391392Y-118505609D01*
X178417995Y-118485879D01*
X178446404Y-118468852D01*
X178476344Y-118454691D01*
X178507529Y-118443533D01*
X178539657Y-118435485D01*
X178572419Y-118430625D01*
X178605500Y-118429000D01*
X179280500Y-118429000D01*
X179313581Y-118430625D01*
X179313581Y-118430625D01*
G37*
D11*
X178943000Y-119154000D03*
D10*
G36*
X179313581Y-120180625D02*
X179346343Y-120185485D01*
X179378471Y-120193533D01*
X179409656Y-120204691D01*
X179439596Y-120218852D01*
X179468005Y-120235879D01*
X179494608Y-120255609D01*
X179519149Y-120277851D01*
X179541391Y-120302392D01*
X179561121Y-120328995D01*
X179578148Y-120357404D01*
X179592309Y-120387344D01*
X179603467Y-120418529D01*
X179611515Y-120450657D01*
X179616375Y-120483419D01*
X179618000Y-120516500D01*
X179618000Y-121291500D01*
X179616375Y-121324581D01*
X179611515Y-121357343D01*
X179603467Y-121389471D01*
X179592309Y-121420656D01*
X179578148Y-121450596D01*
X179561121Y-121479005D01*
X179541391Y-121505608D01*
X179519149Y-121530149D01*
X179494608Y-121552391D01*
X179468005Y-121572121D01*
X179439596Y-121589148D01*
X179409656Y-121603309D01*
X179378471Y-121614467D01*
X179346343Y-121622515D01*
X179313581Y-121627375D01*
X179280500Y-121629000D01*
X178605500Y-121629000D01*
X178572419Y-121627375D01*
X178539657Y-121622515D01*
X178507529Y-121614467D01*
X178476344Y-121603309D01*
X178446404Y-121589148D01*
X178417995Y-121572121D01*
X178391392Y-121552391D01*
X178366851Y-121530149D01*
X178344609Y-121505608D01*
X178324879Y-121479005D01*
X178307852Y-121450596D01*
X178293691Y-121420656D01*
X178282533Y-121389471D01*
X178274485Y-121357343D01*
X178269625Y-121324581D01*
X178268000Y-121291500D01*
X178268000Y-120516500D01*
X178269625Y-120483419D01*
X178274485Y-120450657D01*
X178282533Y-120418529D01*
X178293691Y-120387344D01*
X178307852Y-120357404D01*
X178324879Y-120328995D01*
X178344609Y-120302392D01*
X178366851Y-120277851D01*
X178391392Y-120255609D01*
X178417995Y-120235879D01*
X178446404Y-120218852D01*
X178476344Y-120204691D01*
X178507529Y-120193533D01*
X178539657Y-120185485D01*
X178572419Y-120180625D01*
X178605500Y-120179000D01*
X179280500Y-120179000D01*
X179313581Y-120180625D01*
X179313581Y-120180625D01*
G37*
D11*
X178943000Y-120904000D03*
G04 #@! TD*
D10*
G04 #@! TO.C,J1*
G36*
X187459340Y-129636605D02*
X187491698Y-129641405D01*
X187523429Y-129649353D01*
X187554229Y-129660373D01*
X187583800Y-129674359D01*
X187611857Y-129691177D01*
X187638132Y-129710663D01*
X187662369Y-129732631D01*
X187684337Y-129756868D01*
X187703823Y-129783143D01*
X187720641Y-129811200D01*
X187734627Y-129840771D01*
X187745647Y-129871571D01*
X187753595Y-129903302D01*
X187758395Y-129935660D01*
X187760000Y-129968332D01*
X187760000Y-130901668D01*
X187758395Y-130934340D01*
X187753595Y-130966698D01*
X187745647Y-130998429D01*
X187734627Y-131029229D01*
X187720641Y-131058800D01*
X187703823Y-131086857D01*
X187684337Y-131113132D01*
X187662369Y-131137369D01*
X187638132Y-131159337D01*
X187611857Y-131178823D01*
X187583800Y-131195641D01*
X187554229Y-131209627D01*
X187523429Y-131220647D01*
X187491698Y-131228595D01*
X187459340Y-131233395D01*
X187426668Y-131235000D01*
X185893332Y-131235000D01*
X185860660Y-131233395D01*
X185828302Y-131228595D01*
X185796571Y-131220647D01*
X185765771Y-131209627D01*
X185736200Y-131195641D01*
X185708143Y-131178823D01*
X185681868Y-131159337D01*
X185657631Y-131137369D01*
X185635663Y-131113132D01*
X185616177Y-131086857D01*
X185599359Y-131058800D01*
X185585373Y-131029229D01*
X185574353Y-130998429D01*
X185566405Y-130966698D01*
X185561605Y-130934340D01*
X185560000Y-130901668D01*
X185560000Y-129968332D01*
X185561605Y-129935660D01*
X185566405Y-129903302D01*
X185574353Y-129871571D01*
X185585373Y-129840771D01*
X185599359Y-129811200D01*
X185616177Y-129783143D01*
X185635663Y-129756868D01*
X185657631Y-129732631D01*
X185681868Y-129710663D01*
X185708143Y-129691177D01*
X185736200Y-129674359D01*
X185765771Y-129660373D01*
X185796571Y-129649353D01*
X185828302Y-129641405D01*
X185860660Y-129636605D01*
X185893332Y-129635000D01*
X187426668Y-129635000D01*
X187459340Y-129636605D01*
X187459340Y-129636605D01*
G37*
D12*
X186660000Y-130435000D03*
D10*
G36*
X187459340Y-124036605D02*
X187491698Y-124041405D01*
X187523429Y-124049353D01*
X187554229Y-124060373D01*
X187583800Y-124074359D01*
X187611857Y-124091177D01*
X187638132Y-124110663D01*
X187662369Y-124132631D01*
X187684337Y-124156868D01*
X187703823Y-124183143D01*
X187720641Y-124211200D01*
X187734627Y-124240771D01*
X187745647Y-124271571D01*
X187753595Y-124303302D01*
X187758395Y-124335660D01*
X187760000Y-124368332D01*
X187760000Y-125301668D01*
X187758395Y-125334340D01*
X187753595Y-125366698D01*
X187745647Y-125398429D01*
X187734627Y-125429229D01*
X187720641Y-125458800D01*
X187703823Y-125486857D01*
X187684337Y-125513132D01*
X187662369Y-125537369D01*
X187638132Y-125559337D01*
X187611857Y-125578823D01*
X187583800Y-125595641D01*
X187554229Y-125609627D01*
X187523429Y-125620647D01*
X187491698Y-125628595D01*
X187459340Y-125633395D01*
X187426668Y-125635000D01*
X185893332Y-125635000D01*
X185860660Y-125633395D01*
X185828302Y-125628595D01*
X185796571Y-125620647D01*
X185765771Y-125609627D01*
X185736200Y-125595641D01*
X185708143Y-125578823D01*
X185681868Y-125559337D01*
X185657631Y-125537369D01*
X185635663Y-125513132D01*
X185616177Y-125486857D01*
X185599359Y-125458800D01*
X185585373Y-125429229D01*
X185574353Y-125398429D01*
X185566405Y-125366698D01*
X185561605Y-125334340D01*
X185560000Y-125301668D01*
X185560000Y-124368332D01*
X185561605Y-124335660D01*
X185566405Y-124303302D01*
X185574353Y-124271571D01*
X185585373Y-124240771D01*
X185599359Y-124211200D01*
X185616177Y-124183143D01*
X185635663Y-124156868D01*
X185657631Y-124132631D01*
X185681868Y-124110663D01*
X185708143Y-124091177D01*
X185736200Y-124074359D01*
X185765771Y-124060373D01*
X185796571Y-124049353D01*
X185828302Y-124041405D01*
X185860660Y-124036605D01*
X185893332Y-124035000D01*
X187426668Y-124035000D01*
X187459340Y-124036605D01*
X187459340Y-124036605D01*
G37*
D12*
X186660000Y-124835000D03*
D10*
G36*
X183534504Y-128636204D02*
X183558773Y-128639804D01*
X183582571Y-128645765D01*
X183605671Y-128654030D01*
X183627849Y-128664520D01*
X183648893Y-128677133D01*
X183668598Y-128691747D01*
X183686777Y-128708223D01*
X183703253Y-128726402D01*
X183717867Y-128746107D01*
X183730480Y-128767151D01*
X183740970Y-128789329D01*
X183749235Y-128812429D01*
X183755196Y-128836227D01*
X183758796Y-128860496D01*
X183760000Y-128885000D01*
X183760000Y-129385000D01*
X183758796Y-129409504D01*
X183755196Y-129433773D01*
X183749235Y-129457571D01*
X183740970Y-129480671D01*
X183730480Y-129502849D01*
X183717867Y-129523893D01*
X183703253Y-129543598D01*
X183686777Y-129561777D01*
X183668598Y-129578253D01*
X183648893Y-129592867D01*
X183627849Y-129605480D01*
X183605671Y-129615970D01*
X183582571Y-129624235D01*
X183558773Y-129630196D01*
X183534504Y-129633796D01*
X183510000Y-129635000D01*
X182060000Y-129635000D01*
X182035496Y-129633796D01*
X182011227Y-129630196D01*
X181987429Y-129624235D01*
X181964329Y-129615970D01*
X181942151Y-129605480D01*
X181921107Y-129592867D01*
X181901402Y-129578253D01*
X181883223Y-129561777D01*
X181866747Y-129543598D01*
X181852133Y-129523893D01*
X181839520Y-129502849D01*
X181829030Y-129480671D01*
X181820765Y-129457571D01*
X181814804Y-129433773D01*
X181811204Y-129409504D01*
X181810000Y-129385000D01*
X181810000Y-128885000D01*
X181811204Y-128860496D01*
X181814804Y-128836227D01*
X181820765Y-128812429D01*
X181829030Y-128789329D01*
X181839520Y-128767151D01*
X181852133Y-128746107D01*
X181866747Y-128726402D01*
X181883223Y-128708223D01*
X181901402Y-128691747D01*
X181921107Y-128677133D01*
X181942151Y-128664520D01*
X181964329Y-128654030D01*
X181987429Y-128645765D01*
X182011227Y-128639804D01*
X182035496Y-128636204D01*
X182060000Y-128635000D01*
X183510000Y-128635000D01*
X183534504Y-128636204D01*
X183534504Y-128636204D01*
G37*
D13*
X182785000Y-129135000D03*
D10*
G36*
X183534504Y-127636204D02*
X183558773Y-127639804D01*
X183582571Y-127645765D01*
X183605671Y-127654030D01*
X183627849Y-127664520D01*
X183648893Y-127677133D01*
X183668598Y-127691747D01*
X183686777Y-127708223D01*
X183703253Y-127726402D01*
X183717867Y-127746107D01*
X183730480Y-127767151D01*
X183740970Y-127789329D01*
X183749235Y-127812429D01*
X183755196Y-127836227D01*
X183758796Y-127860496D01*
X183760000Y-127885000D01*
X183760000Y-128385000D01*
X183758796Y-128409504D01*
X183755196Y-128433773D01*
X183749235Y-128457571D01*
X183740970Y-128480671D01*
X183730480Y-128502849D01*
X183717867Y-128523893D01*
X183703253Y-128543598D01*
X183686777Y-128561777D01*
X183668598Y-128578253D01*
X183648893Y-128592867D01*
X183627849Y-128605480D01*
X183605671Y-128615970D01*
X183582571Y-128624235D01*
X183558773Y-128630196D01*
X183534504Y-128633796D01*
X183510000Y-128635000D01*
X182060000Y-128635000D01*
X182035496Y-128633796D01*
X182011227Y-128630196D01*
X181987429Y-128624235D01*
X181964329Y-128615970D01*
X181942151Y-128605480D01*
X181921107Y-128592867D01*
X181901402Y-128578253D01*
X181883223Y-128561777D01*
X181866747Y-128543598D01*
X181852133Y-128523893D01*
X181839520Y-128502849D01*
X181829030Y-128480671D01*
X181820765Y-128457571D01*
X181814804Y-128433773D01*
X181811204Y-128409504D01*
X181810000Y-128385000D01*
X181810000Y-127885000D01*
X181811204Y-127860496D01*
X181814804Y-127836227D01*
X181820765Y-127812429D01*
X181829030Y-127789329D01*
X181839520Y-127767151D01*
X181852133Y-127746107D01*
X181866747Y-127726402D01*
X181883223Y-127708223D01*
X181901402Y-127691747D01*
X181921107Y-127677133D01*
X181942151Y-127664520D01*
X181964329Y-127654030D01*
X181987429Y-127645765D01*
X182011227Y-127639804D01*
X182035496Y-127636204D01*
X182060000Y-127635000D01*
X183510000Y-127635000D01*
X183534504Y-127636204D01*
X183534504Y-127636204D01*
G37*
D13*
X182785000Y-128135000D03*
D10*
G36*
X183534504Y-126636204D02*
X183558773Y-126639804D01*
X183582571Y-126645765D01*
X183605671Y-126654030D01*
X183627849Y-126664520D01*
X183648893Y-126677133D01*
X183668598Y-126691747D01*
X183686777Y-126708223D01*
X183703253Y-126726402D01*
X183717867Y-126746107D01*
X183730480Y-126767151D01*
X183740970Y-126789329D01*
X183749235Y-126812429D01*
X183755196Y-126836227D01*
X183758796Y-126860496D01*
X183760000Y-126885000D01*
X183760000Y-127385000D01*
X183758796Y-127409504D01*
X183755196Y-127433773D01*
X183749235Y-127457571D01*
X183740970Y-127480671D01*
X183730480Y-127502849D01*
X183717867Y-127523893D01*
X183703253Y-127543598D01*
X183686777Y-127561777D01*
X183668598Y-127578253D01*
X183648893Y-127592867D01*
X183627849Y-127605480D01*
X183605671Y-127615970D01*
X183582571Y-127624235D01*
X183558773Y-127630196D01*
X183534504Y-127633796D01*
X183510000Y-127635000D01*
X182060000Y-127635000D01*
X182035496Y-127633796D01*
X182011227Y-127630196D01*
X181987429Y-127624235D01*
X181964329Y-127615970D01*
X181942151Y-127605480D01*
X181921107Y-127592867D01*
X181901402Y-127578253D01*
X181883223Y-127561777D01*
X181866747Y-127543598D01*
X181852133Y-127523893D01*
X181839520Y-127502849D01*
X181829030Y-127480671D01*
X181820765Y-127457571D01*
X181814804Y-127433773D01*
X181811204Y-127409504D01*
X181810000Y-127385000D01*
X181810000Y-126885000D01*
X181811204Y-126860496D01*
X181814804Y-126836227D01*
X181820765Y-126812429D01*
X181829030Y-126789329D01*
X181839520Y-126767151D01*
X181852133Y-126746107D01*
X181866747Y-126726402D01*
X181883223Y-126708223D01*
X181901402Y-126691747D01*
X181921107Y-126677133D01*
X181942151Y-126664520D01*
X181964329Y-126654030D01*
X181987429Y-126645765D01*
X182011227Y-126639804D01*
X182035496Y-126636204D01*
X182060000Y-126635000D01*
X183510000Y-126635000D01*
X183534504Y-126636204D01*
X183534504Y-126636204D01*
G37*
D13*
X182785000Y-127135000D03*
D10*
G36*
X183534504Y-125636204D02*
X183558773Y-125639804D01*
X183582571Y-125645765D01*
X183605671Y-125654030D01*
X183627849Y-125664520D01*
X183648893Y-125677133D01*
X183668598Y-125691747D01*
X183686777Y-125708223D01*
X183703253Y-125726402D01*
X183717867Y-125746107D01*
X183730480Y-125767151D01*
X183740970Y-125789329D01*
X183749235Y-125812429D01*
X183755196Y-125836227D01*
X183758796Y-125860496D01*
X183760000Y-125885000D01*
X183760000Y-126385000D01*
X183758796Y-126409504D01*
X183755196Y-126433773D01*
X183749235Y-126457571D01*
X183740970Y-126480671D01*
X183730480Y-126502849D01*
X183717867Y-126523893D01*
X183703253Y-126543598D01*
X183686777Y-126561777D01*
X183668598Y-126578253D01*
X183648893Y-126592867D01*
X183627849Y-126605480D01*
X183605671Y-126615970D01*
X183582571Y-126624235D01*
X183558773Y-126630196D01*
X183534504Y-126633796D01*
X183510000Y-126635000D01*
X182060000Y-126635000D01*
X182035496Y-126633796D01*
X182011227Y-126630196D01*
X181987429Y-126624235D01*
X181964329Y-126615970D01*
X181942151Y-126605480D01*
X181921107Y-126592867D01*
X181901402Y-126578253D01*
X181883223Y-126561777D01*
X181866747Y-126543598D01*
X181852133Y-126523893D01*
X181839520Y-126502849D01*
X181829030Y-126480671D01*
X181820765Y-126457571D01*
X181814804Y-126433773D01*
X181811204Y-126409504D01*
X181810000Y-126385000D01*
X181810000Y-125885000D01*
X181811204Y-125860496D01*
X181814804Y-125836227D01*
X181820765Y-125812429D01*
X181829030Y-125789329D01*
X181839520Y-125767151D01*
X181852133Y-125746107D01*
X181866747Y-125726402D01*
X181883223Y-125708223D01*
X181901402Y-125691747D01*
X181921107Y-125677133D01*
X181942151Y-125664520D01*
X181964329Y-125654030D01*
X181987429Y-125645765D01*
X182011227Y-125639804D01*
X182035496Y-125636204D01*
X182060000Y-125635000D01*
X183510000Y-125635000D01*
X183534504Y-125636204D01*
X183534504Y-125636204D01*
G37*
D13*
X182785000Y-126135000D03*
G04 #@! TD*
D10*
G04 #@! TO.C,J2*
G36*
X182749504Y-131011204D02*
X182773773Y-131014804D01*
X182797571Y-131020765D01*
X182820671Y-131029030D01*
X182842849Y-131039520D01*
X182863893Y-131052133D01*
X182883598Y-131066747D01*
X182901777Y-131083223D01*
X182918253Y-131101402D01*
X182932867Y-131121107D01*
X182945480Y-131142151D01*
X182955970Y-131164329D01*
X182964235Y-131187429D01*
X182970196Y-131211227D01*
X182973796Y-131235496D01*
X182975000Y-131260000D01*
X182975000Y-132710000D01*
X182973796Y-132734504D01*
X182970196Y-132758773D01*
X182964235Y-132782571D01*
X182955970Y-132805671D01*
X182945480Y-132827849D01*
X182932867Y-132848893D01*
X182918253Y-132868598D01*
X182901777Y-132886777D01*
X182883598Y-132903253D01*
X182863893Y-132917867D01*
X182842849Y-132930480D01*
X182820671Y-132940970D01*
X182797571Y-132949235D01*
X182773773Y-132955196D01*
X182749504Y-132958796D01*
X182725000Y-132960000D01*
X182225000Y-132960000D01*
X182200496Y-132958796D01*
X182176227Y-132955196D01*
X182152429Y-132949235D01*
X182129329Y-132940970D01*
X182107151Y-132930480D01*
X182086107Y-132917867D01*
X182066402Y-132903253D01*
X182048223Y-132886777D01*
X182031747Y-132868598D01*
X182017133Y-132848893D01*
X182004520Y-132827849D01*
X181994030Y-132805671D01*
X181985765Y-132782571D01*
X181979804Y-132758773D01*
X181976204Y-132734504D01*
X181975000Y-132710000D01*
X181975000Y-131260000D01*
X181976204Y-131235496D01*
X181979804Y-131211227D01*
X181985765Y-131187429D01*
X181994030Y-131164329D01*
X182004520Y-131142151D01*
X182017133Y-131121107D01*
X182031747Y-131101402D01*
X182048223Y-131083223D01*
X182066402Y-131066747D01*
X182086107Y-131052133D01*
X182107151Y-131039520D01*
X182129329Y-131029030D01*
X182152429Y-131020765D01*
X182176227Y-131014804D01*
X182200496Y-131011204D01*
X182225000Y-131010000D01*
X182725000Y-131010000D01*
X182749504Y-131011204D01*
X182749504Y-131011204D01*
G37*
D13*
X182475000Y-131985000D03*
D10*
G36*
X181749504Y-131011204D02*
X181773773Y-131014804D01*
X181797571Y-131020765D01*
X181820671Y-131029030D01*
X181842849Y-131039520D01*
X181863893Y-131052133D01*
X181883598Y-131066747D01*
X181901777Y-131083223D01*
X181918253Y-131101402D01*
X181932867Y-131121107D01*
X181945480Y-131142151D01*
X181955970Y-131164329D01*
X181964235Y-131187429D01*
X181970196Y-131211227D01*
X181973796Y-131235496D01*
X181975000Y-131260000D01*
X181975000Y-132710000D01*
X181973796Y-132734504D01*
X181970196Y-132758773D01*
X181964235Y-132782571D01*
X181955970Y-132805671D01*
X181945480Y-132827849D01*
X181932867Y-132848893D01*
X181918253Y-132868598D01*
X181901777Y-132886777D01*
X181883598Y-132903253D01*
X181863893Y-132917867D01*
X181842849Y-132930480D01*
X181820671Y-132940970D01*
X181797571Y-132949235D01*
X181773773Y-132955196D01*
X181749504Y-132958796D01*
X181725000Y-132960000D01*
X181225000Y-132960000D01*
X181200496Y-132958796D01*
X181176227Y-132955196D01*
X181152429Y-132949235D01*
X181129329Y-132940970D01*
X181107151Y-132930480D01*
X181086107Y-132917867D01*
X181066402Y-132903253D01*
X181048223Y-132886777D01*
X181031747Y-132868598D01*
X181017133Y-132848893D01*
X181004520Y-132827849D01*
X180994030Y-132805671D01*
X180985765Y-132782571D01*
X180979804Y-132758773D01*
X180976204Y-132734504D01*
X180975000Y-132710000D01*
X180975000Y-131260000D01*
X180976204Y-131235496D01*
X180979804Y-131211227D01*
X180985765Y-131187429D01*
X180994030Y-131164329D01*
X181004520Y-131142151D01*
X181017133Y-131121107D01*
X181031747Y-131101402D01*
X181048223Y-131083223D01*
X181066402Y-131066747D01*
X181086107Y-131052133D01*
X181107151Y-131039520D01*
X181129329Y-131029030D01*
X181152429Y-131020765D01*
X181176227Y-131014804D01*
X181200496Y-131011204D01*
X181225000Y-131010000D01*
X181725000Y-131010000D01*
X181749504Y-131011204D01*
X181749504Y-131011204D01*
G37*
D13*
X181475000Y-131985000D03*
D10*
G36*
X180749504Y-131011204D02*
X180773773Y-131014804D01*
X180797571Y-131020765D01*
X180820671Y-131029030D01*
X180842849Y-131039520D01*
X180863893Y-131052133D01*
X180883598Y-131066747D01*
X180901777Y-131083223D01*
X180918253Y-131101402D01*
X180932867Y-131121107D01*
X180945480Y-131142151D01*
X180955970Y-131164329D01*
X180964235Y-131187429D01*
X180970196Y-131211227D01*
X180973796Y-131235496D01*
X180975000Y-131260000D01*
X180975000Y-132710000D01*
X180973796Y-132734504D01*
X180970196Y-132758773D01*
X180964235Y-132782571D01*
X180955970Y-132805671D01*
X180945480Y-132827849D01*
X180932867Y-132848893D01*
X180918253Y-132868598D01*
X180901777Y-132886777D01*
X180883598Y-132903253D01*
X180863893Y-132917867D01*
X180842849Y-132930480D01*
X180820671Y-132940970D01*
X180797571Y-132949235D01*
X180773773Y-132955196D01*
X180749504Y-132958796D01*
X180725000Y-132960000D01*
X180225000Y-132960000D01*
X180200496Y-132958796D01*
X180176227Y-132955196D01*
X180152429Y-132949235D01*
X180129329Y-132940970D01*
X180107151Y-132930480D01*
X180086107Y-132917867D01*
X180066402Y-132903253D01*
X180048223Y-132886777D01*
X180031747Y-132868598D01*
X180017133Y-132848893D01*
X180004520Y-132827849D01*
X179994030Y-132805671D01*
X179985765Y-132782571D01*
X179979804Y-132758773D01*
X179976204Y-132734504D01*
X179975000Y-132710000D01*
X179975000Y-131260000D01*
X179976204Y-131235496D01*
X179979804Y-131211227D01*
X179985765Y-131187429D01*
X179994030Y-131164329D01*
X180004520Y-131142151D01*
X180017133Y-131121107D01*
X180031747Y-131101402D01*
X180048223Y-131083223D01*
X180066402Y-131066747D01*
X180086107Y-131052133D01*
X180107151Y-131039520D01*
X180129329Y-131029030D01*
X180152429Y-131020765D01*
X180176227Y-131014804D01*
X180200496Y-131011204D01*
X180225000Y-131010000D01*
X180725000Y-131010000D01*
X180749504Y-131011204D01*
X180749504Y-131011204D01*
G37*
D13*
X180475000Y-131985000D03*
D10*
G36*
X179749504Y-131011204D02*
X179773773Y-131014804D01*
X179797571Y-131020765D01*
X179820671Y-131029030D01*
X179842849Y-131039520D01*
X179863893Y-131052133D01*
X179883598Y-131066747D01*
X179901777Y-131083223D01*
X179918253Y-131101402D01*
X179932867Y-131121107D01*
X179945480Y-131142151D01*
X179955970Y-131164329D01*
X179964235Y-131187429D01*
X179970196Y-131211227D01*
X179973796Y-131235496D01*
X179975000Y-131260000D01*
X179975000Y-132710000D01*
X179973796Y-132734504D01*
X179970196Y-132758773D01*
X179964235Y-132782571D01*
X179955970Y-132805671D01*
X179945480Y-132827849D01*
X179932867Y-132848893D01*
X179918253Y-132868598D01*
X179901777Y-132886777D01*
X179883598Y-132903253D01*
X179863893Y-132917867D01*
X179842849Y-132930480D01*
X179820671Y-132940970D01*
X179797571Y-132949235D01*
X179773773Y-132955196D01*
X179749504Y-132958796D01*
X179725000Y-132960000D01*
X179225000Y-132960000D01*
X179200496Y-132958796D01*
X179176227Y-132955196D01*
X179152429Y-132949235D01*
X179129329Y-132940970D01*
X179107151Y-132930480D01*
X179086107Y-132917867D01*
X179066402Y-132903253D01*
X179048223Y-132886777D01*
X179031747Y-132868598D01*
X179017133Y-132848893D01*
X179004520Y-132827849D01*
X178994030Y-132805671D01*
X178985765Y-132782571D01*
X178979804Y-132758773D01*
X178976204Y-132734504D01*
X178975000Y-132710000D01*
X178975000Y-131260000D01*
X178976204Y-131235496D01*
X178979804Y-131211227D01*
X178985765Y-131187429D01*
X178994030Y-131164329D01*
X179004520Y-131142151D01*
X179017133Y-131121107D01*
X179031747Y-131101402D01*
X179048223Y-131083223D01*
X179066402Y-131066747D01*
X179086107Y-131052133D01*
X179107151Y-131039520D01*
X179129329Y-131029030D01*
X179152429Y-131020765D01*
X179176227Y-131014804D01*
X179200496Y-131011204D01*
X179225000Y-131010000D01*
X179725000Y-131010000D01*
X179749504Y-131011204D01*
X179749504Y-131011204D01*
G37*
D13*
X179475000Y-131985000D03*
D10*
G36*
X184274340Y-134761605D02*
X184306698Y-134766405D01*
X184338429Y-134774353D01*
X184369229Y-134785373D01*
X184398800Y-134799359D01*
X184426857Y-134816177D01*
X184453132Y-134835663D01*
X184477369Y-134857631D01*
X184499337Y-134881868D01*
X184518823Y-134908143D01*
X184535641Y-134936200D01*
X184549627Y-134965771D01*
X184560647Y-134996571D01*
X184568595Y-135028302D01*
X184573395Y-135060660D01*
X184575000Y-135093332D01*
X184575000Y-136626668D01*
X184573395Y-136659340D01*
X184568595Y-136691698D01*
X184560647Y-136723429D01*
X184549627Y-136754229D01*
X184535641Y-136783800D01*
X184518823Y-136811857D01*
X184499337Y-136838132D01*
X184477369Y-136862369D01*
X184453132Y-136884337D01*
X184426857Y-136903823D01*
X184398800Y-136920641D01*
X184369229Y-136934627D01*
X184338429Y-136945647D01*
X184306698Y-136953595D01*
X184274340Y-136958395D01*
X184241668Y-136960000D01*
X183308332Y-136960000D01*
X183275660Y-136958395D01*
X183243302Y-136953595D01*
X183211571Y-136945647D01*
X183180771Y-136934627D01*
X183151200Y-136920641D01*
X183123143Y-136903823D01*
X183096868Y-136884337D01*
X183072631Y-136862369D01*
X183050663Y-136838132D01*
X183031177Y-136811857D01*
X183014359Y-136783800D01*
X183000373Y-136754229D01*
X182989353Y-136723429D01*
X182981405Y-136691698D01*
X182976605Y-136659340D01*
X182975000Y-136626668D01*
X182975000Y-135093332D01*
X182976605Y-135060660D01*
X182981405Y-135028302D01*
X182989353Y-134996571D01*
X183000373Y-134965771D01*
X183014359Y-134936200D01*
X183031177Y-134908143D01*
X183050663Y-134881868D01*
X183072631Y-134857631D01*
X183096868Y-134835663D01*
X183123143Y-134816177D01*
X183151200Y-134799359D01*
X183180771Y-134785373D01*
X183211571Y-134774353D01*
X183243302Y-134766405D01*
X183275660Y-134761605D01*
X183308332Y-134760000D01*
X184241668Y-134760000D01*
X184274340Y-134761605D01*
X184274340Y-134761605D01*
G37*
D12*
X183775000Y-135860000D03*
D10*
G36*
X178674340Y-134761605D02*
X178706698Y-134766405D01*
X178738429Y-134774353D01*
X178769229Y-134785373D01*
X178798800Y-134799359D01*
X178826857Y-134816177D01*
X178853132Y-134835663D01*
X178877369Y-134857631D01*
X178899337Y-134881868D01*
X178918823Y-134908143D01*
X178935641Y-134936200D01*
X178949627Y-134965771D01*
X178960647Y-134996571D01*
X178968595Y-135028302D01*
X178973395Y-135060660D01*
X178975000Y-135093332D01*
X178975000Y-136626668D01*
X178973395Y-136659340D01*
X178968595Y-136691698D01*
X178960647Y-136723429D01*
X178949627Y-136754229D01*
X178935641Y-136783800D01*
X178918823Y-136811857D01*
X178899337Y-136838132D01*
X178877369Y-136862369D01*
X178853132Y-136884337D01*
X178826857Y-136903823D01*
X178798800Y-136920641D01*
X178769229Y-136934627D01*
X178738429Y-136945647D01*
X178706698Y-136953595D01*
X178674340Y-136958395D01*
X178641668Y-136960000D01*
X177708332Y-136960000D01*
X177675660Y-136958395D01*
X177643302Y-136953595D01*
X177611571Y-136945647D01*
X177580771Y-136934627D01*
X177551200Y-136920641D01*
X177523143Y-136903823D01*
X177496868Y-136884337D01*
X177472631Y-136862369D01*
X177450663Y-136838132D01*
X177431177Y-136811857D01*
X177414359Y-136783800D01*
X177400373Y-136754229D01*
X177389353Y-136723429D01*
X177381405Y-136691698D01*
X177376605Y-136659340D01*
X177375000Y-136626668D01*
X177375000Y-135093332D01*
X177376605Y-135060660D01*
X177381405Y-135028302D01*
X177389353Y-134996571D01*
X177400373Y-134965771D01*
X177414359Y-134936200D01*
X177431177Y-134908143D01*
X177450663Y-134881868D01*
X177472631Y-134857631D01*
X177496868Y-134835663D01*
X177523143Y-134816177D01*
X177551200Y-134799359D01*
X177580771Y-134785373D01*
X177611571Y-134774353D01*
X177643302Y-134766405D01*
X177675660Y-134761605D01*
X177708332Y-134760000D01*
X178641668Y-134760000D01*
X178674340Y-134761605D01*
X178674340Y-134761605D01*
G37*
D12*
X178175000Y-135860000D03*
G04 #@! TD*
D14*
G04 #@! TO.C,J3*
X165735000Y-135890000D03*
D15*
X164735000Y-135890000D03*
G04 #@! TD*
D16*
G04 #@! TO.C,J4*
X184280000Y-122895000D03*
X184280000Y-114595000D03*
D17*
X181030000Y-116495000D03*
X181030000Y-116995000D03*
X181030000Y-117495000D03*
X181030000Y-117995000D03*
X181030000Y-118495000D03*
X181030000Y-118995000D03*
X181030000Y-119495000D03*
X181030000Y-119995000D03*
X181030000Y-120495000D03*
X181030000Y-120995000D03*
G04 #@! TD*
D18*
G04 #@! TO.C,P1*
X169130000Y-133350000D03*
X169130000Y-133750000D03*
X169130000Y-132950000D03*
X169130000Y-134150000D03*
X169130000Y-132550000D03*
X171580000Y-133350000D03*
X171580000Y-133750000D03*
X171580000Y-132950000D03*
X171580000Y-134150000D03*
X171580000Y-132550000D03*
D19*
X171057500Y-134950000D03*
X169652500Y-134950000D03*
X169652500Y-131750000D03*
X171057500Y-131750000D03*
G04 #@! TD*
D10*
G04 #@! TO.C,R1*
G36*
X178170581Y-125486625D02*
X178203343Y-125491485D01*
X178235471Y-125499533D01*
X178266656Y-125510691D01*
X178296596Y-125524852D01*
X178325005Y-125541879D01*
X178351608Y-125561609D01*
X178376149Y-125583851D01*
X178398391Y-125608392D01*
X178418121Y-125634995D01*
X178435148Y-125663404D01*
X178449309Y-125693344D01*
X178460467Y-125724529D01*
X178468515Y-125756657D01*
X178473375Y-125789419D01*
X178475000Y-125822500D01*
X178475000Y-126597500D01*
X178473375Y-126630581D01*
X178468515Y-126663343D01*
X178460467Y-126695471D01*
X178449309Y-126726656D01*
X178435148Y-126756596D01*
X178418121Y-126785005D01*
X178398391Y-126811608D01*
X178376149Y-126836149D01*
X178351608Y-126858391D01*
X178325005Y-126878121D01*
X178296596Y-126895148D01*
X178266656Y-126909309D01*
X178235471Y-126920467D01*
X178203343Y-126928515D01*
X178170581Y-126933375D01*
X178137500Y-126935000D01*
X177462500Y-126935000D01*
X177429419Y-126933375D01*
X177396657Y-126928515D01*
X177364529Y-126920467D01*
X177333344Y-126909309D01*
X177303404Y-126895148D01*
X177274995Y-126878121D01*
X177248392Y-126858391D01*
X177223851Y-126836149D01*
X177201609Y-126811608D01*
X177181879Y-126785005D01*
X177164852Y-126756596D01*
X177150691Y-126726656D01*
X177139533Y-126695471D01*
X177131485Y-126663343D01*
X177126625Y-126630581D01*
X177125000Y-126597500D01*
X177125000Y-125822500D01*
X177126625Y-125789419D01*
X177131485Y-125756657D01*
X177139533Y-125724529D01*
X177150691Y-125693344D01*
X177164852Y-125663404D01*
X177181879Y-125634995D01*
X177201609Y-125608392D01*
X177223851Y-125583851D01*
X177248392Y-125561609D01*
X177274995Y-125541879D01*
X177303404Y-125524852D01*
X177333344Y-125510691D01*
X177364529Y-125499533D01*
X177396657Y-125491485D01*
X177429419Y-125486625D01*
X177462500Y-125485000D01*
X178137500Y-125485000D01*
X178170581Y-125486625D01*
X178170581Y-125486625D01*
G37*
D11*
X177800000Y-126210000D03*
D10*
G36*
X178170581Y-123736625D02*
X178203343Y-123741485D01*
X178235471Y-123749533D01*
X178266656Y-123760691D01*
X178296596Y-123774852D01*
X178325005Y-123791879D01*
X178351608Y-123811609D01*
X178376149Y-123833851D01*
X178398391Y-123858392D01*
X178418121Y-123884995D01*
X178435148Y-123913404D01*
X178449309Y-123943344D01*
X178460467Y-123974529D01*
X178468515Y-124006657D01*
X178473375Y-124039419D01*
X178475000Y-124072500D01*
X178475000Y-124847500D01*
X178473375Y-124880581D01*
X178468515Y-124913343D01*
X178460467Y-124945471D01*
X178449309Y-124976656D01*
X178435148Y-125006596D01*
X178418121Y-125035005D01*
X178398391Y-125061608D01*
X178376149Y-125086149D01*
X178351608Y-125108391D01*
X178325005Y-125128121D01*
X178296596Y-125145148D01*
X178266656Y-125159309D01*
X178235471Y-125170467D01*
X178203343Y-125178515D01*
X178170581Y-125183375D01*
X178137500Y-125185000D01*
X177462500Y-125185000D01*
X177429419Y-125183375D01*
X177396657Y-125178515D01*
X177364529Y-125170467D01*
X177333344Y-125159309D01*
X177303404Y-125145148D01*
X177274995Y-125128121D01*
X177248392Y-125108391D01*
X177223851Y-125086149D01*
X177201609Y-125061608D01*
X177181879Y-125035005D01*
X177164852Y-125006596D01*
X177150691Y-124976656D01*
X177139533Y-124945471D01*
X177131485Y-124913343D01*
X177126625Y-124880581D01*
X177125000Y-124847500D01*
X177125000Y-124072500D01*
X177126625Y-124039419D01*
X177131485Y-124006657D01*
X177139533Y-123974529D01*
X177150691Y-123943344D01*
X177164852Y-123913404D01*
X177181879Y-123884995D01*
X177201609Y-123858392D01*
X177223851Y-123833851D01*
X177248392Y-123811609D01*
X177274995Y-123791879D01*
X177303404Y-123774852D01*
X177333344Y-123760691D01*
X177364529Y-123749533D01*
X177396657Y-123741485D01*
X177429419Y-123736625D01*
X177462500Y-123735000D01*
X178137500Y-123735000D01*
X178170581Y-123736625D01*
X178170581Y-123736625D01*
G37*
D11*
X177800000Y-124460000D03*
G04 #@! TD*
D10*
G04 #@! TO.C,R2*
G36*
X176265581Y-123736625D02*
X176298343Y-123741485D01*
X176330471Y-123749533D01*
X176361656Y-123760691D01*
X176391596Y-123774852D01*
X176420005Y-123791879D01*
X176446608Y-123811609D01*
X176471149Y-123833851D01*
X176493391Y-123858392D01*
X176513121Y-123884995D01*
X176530148Y-123913404D01*
X176544309Y-123943344D01*
X176555467Y-123974529D01*
X176563515Y-124006657D01*
X176568375Y-124039419D01*
X176570000Y-124072500D01*
X176570000Y-124847500D01*
X176568375Y-124880581D01*
X176563515Y-124913343D01*
X176555467Y-124945471D01*
X176544309Y-124976656D01*
X176530148Y-125006596D01*
X176513121Y-125035005D01*
X176493391Y-125061608D01*
X176471149Y-125086149D01*
X176446608Y-125108391D01*
X176420005Y-125128121D01*
X176391596Y-125145148D01*
X176361656Y-125159309D01*
X176330471Y-125170467D01*
X176298343Y-125178515D01*
X176265581Y-125183375D01*
X176232500Y-125185000D01*
X175557500Y-125185000D01*
X175524419Y-125183375D01*
X175491657Y-125178515D01*
X175459529Y-125170467D01*
X175428344Y-125159309D01*
X175398404Y-125145148D01*
X175369995Y-125128121D01*
X175343392Y-125108391D01*
X175318851Y-125086149D01*
X175296609Y-125061608D01*
X175276879Y-125035005D01*
X175259852Y-125006596D01*
X175245691Y-124976656D01*
X175234533Y-124945471D01*
X175226485Y-124913343D01*
X175221625Y-124880581D01*
X175220000Y-124847500D01*
X175220000Y-124072500D01*
X175221625Y-124039419D01*
X175226485Y-124006657D01*
X175234533Y-123974529D01*
X175245691Y-123943344D01*
X175259852Y-123913404D01*
X175276879Y-123884995D01*
X175296609Y-123858392D01*
X175318851Y-123833851D01*
X175343392Y-123811609D01*
X175369995Y-123791879D01*
X175398404Y-123774852D01*
X175428344Y-123760691D01*
X175459529Y-123749533D01*
X175491657Y-123741485D01*
X175524419Y-123736625D01*
X175557500Y-123735000D01*
X176232500Y-123735000D01*
X176265581Y-123736625D01*
X176265581Y-123736625D01*
G37*
D11*
X175895000Y-124460000D03*
D10*
G36*
X176265581Y-125486625D02*
X176298343Y-125491485D01*
X176330471Y-125499533D01*
X176361656Y-125510691D01*
X176391596Y-125524852D01*
X176420005Y-125541879D01*
X176446608Y-125561609D01*
X176471149Y-125583851D01*
X176493391Y-125608392D01*
X176513121Y-125634995D01*
X176530148Y-125663404D01*
X176544309Y-125693344D01*
X176555467Y-125724529D01*
X176563515Y-125756657D01*
X176568375Y-125789419D01*
X176570000Y-125822500D01*
X176570000Y-126597500D01*
X176568375Y-126630581D01*
X176563515Y-126663343D01*
X176555467Y-126695471D01*
X176544309Y-126726656D01*
X176530148Y-126756596D01*
X176513121Y-126785005D01*
X176493391Y-126811608D01*
X176471149Y-126836149D01*
X176446608Y-126858391D01*
X176420005Y-126878121D01*
X176391596Y-126895148D01*
X176361656Y-126909309D01*
X176330471Y-126920467D01*
X176298343Y-126928515D01*
X176265581Y-126933375D01*
X176232500Y-126935000D01*
X175557500Y-126935000D01*
X175524419Y-126933375D01*
X175491657Y-126928515D01*
X175459529Y-126920467D01*
X175428344Y-126909309D01*
X175398404Y-126895148D01*
X175369995Y-126878121D01*
X175343392Y-126858391D01*
X175318851Y-126836149D01*
X175296609Y-126811608D01*
X175276879Y-126785005D01*
X175259852Y-126756596D01*
X175245691Y-126726656D01*
X175234533Y-126695471D01*
X175226485Y-126663343D01*
X175221625Y-126630581D01*
X175220000Y-126597500D01*
X175220000Y-125822500D01*
X175221625Y-125789419D01*
X175226485Y-125756657D01*
X175234533Y-125724529D01*
X175245691Y-125693344D01*
X175259852Y-125663404D01*
X175276879Y-125634995D01*
X175296609Y-125608392D01*
X175318851Y-125583851D01*
X175343392Y-125561609D01*
X175369995Y-125541879D01*
X175398404Y-125524852D01*
X175428344Y-125510691D01*
X175459529Y-125499533D01*
X175491657Y-125491485D01*
X175524419Y-125486625D01*
X175557500Y-125485000D01*
X176232500Y-125485000D01*
X176265581Y-125486625D01*
X176265581Y-125486625D01*
G37*
D11*
X175895000Y-126210000D03*
G04 #@! TD*
D20*
G04 #@! TO.C,IC1*
X164652000Y-113333000D03*
X165752000Y-113333000D03*
X166552000Y-113333000D03*
X168152000Y-113333000D03*
X168552000Y-114233000D03*
X168952000Y-113333000D03*
X169352000Y-114233000D03*
X169752000Y-113333000D03*
X170152000Y-114233000D03*
X170552000Y-113333000D03*
X170952000Y-114233000D03*
X171352000Y-113333000D03*
X171752000Y-114233000D03*
X172152000Y-113333000D03*
D21*
X175552000Y-113183000D03*
X175552000Y-113983000D03*
X175552000Y-114783000D03*
X175552000Y-115583000D03*
X174652000Y-115983000D03*
X175552000Y-116383000D03*
X174652000Y-116783000D03*
X175552000Y-117183000D03*
X174652000Y-117583000D03*
X175552000Y-117983000D03*
X174652000Y-118383000D03*
X175552000Y-118783000D03*
X174652000Y-119183000D03*
X175552000Y-119583000D03*
X174652000Y-119983000D03*
X175552000Y-120383000D03*
X175552000Y-121183000D03*
X175552000Y-121983000D03*
X175552000Y-122783000D03*
D20*
X174552000Y-122633000D03*
X173752000Y-122633000D03*
X173352000Y-121733000D03*
X172952000Y-122633000D03*
X172552000Y-121733000D03*
X172152000Y-122633000D03*
X171752000Y-121733000D03*
X171352000Y-122633000D03*
X170952000Y-121733000D03*
X170152000Y-121733000D03*
X169752000Y-122633000D03*
X169352000Y-121733000D03*
X168952000Y-122633000D03*
X168552000Y-121733000D03*
X168152000Y-122633000D03*
X167752000Y-121733000D03*
X166952000Y-121733000D03*
X166552000Y-122633000D03*
X166152000Y-121733000D03*
X165752000Y-122633000D03*
X165352000Y-121733000D03*
X164652000Y-122633000D03*
D21*
X168952000Y-115983000D03*
X168952000Y-116783000D03*
X168952000Y-117583000D03*
X168952000Y-118383000D03*
X168952000Y-119183000D03*
X168952000Y-119983000D03*
G04 #@! TD*
M02*
