G04 #@! TF.GenerationSoftware,KiCad,Pcbnew,(5.0.0-rc2-200-g1f6f76beb)*
G04 #@! TF.CreationDate,2020-02-25T20:58:18-05:00*
G04 #@! TF.ProjectId,watch-logic,77617463682D6C6F6769632E6B696361,rev?*
G04 #@! TF.SameCoordinates,Original*
G04 #@! TF.FileFunction,Paste,Bot*
G04 #@! TF.FilePolarity,Positive*
%FSLAX46Y46*%
G04 Gerber Fmt 4.6, Leading zero omitted, Abs format (unit mm)*
G04 Created by KiCad (PCBNEW (5.0.0-rc2-200-g1f6f76beb)) date Tue Feb 25 20:58:18 2020*
%MOMM*%
%LPD*%
G01*
G04 APERTURE LIST*
%ADD10C,0.010000*%
%ADD11C,0.100000*%
%ADD12C,0.950000*%
%ADD13C,1.200000*%
%ADD14C,0.600000*%
%ADD15R,2.200000X1.800000*%
%ADD16R,1.300000X0.300000*%
%ADD17R,0.655000X0.450000*%
%ADD18R,0.400000X0.600000*%
%ADD19R,0.600000X0.400000*%
G04 APERTURE END LIST*
D10*
G04 #@! TO.C,P1*
G36*
X171855000Y-133450078D02*
X171855000Y-133250000D01*
X171445860Y-133250000D01*
X171445860Y-133450078D01*
X171855000Y-133450078D01*
G37*
X171855000Y-133450078D02*
X171855000Y-133250000D01*
X171445860Y-133250000D01*
X171445860Y-133450078D01*
X171855000Y-133450078D01*
G36*
X171855000Y-133049541D02*
X171855000Y-132850000D01*
X171446670Y-132850000D01*
X171446670Y-133049541D01*
X171855000Y-133049541D01*
G37*
X171855000Y-133049541D02*
X171855000Y-132850000D01*
X171446670Y-132850000D01*
X171446670Y-133049541D01*
X171855000Y-133049541D01*
G36*
X171855000Y-133850103D02*
X171855000Y-133650000D01*
X171445230Y-133650000D01*
X171445230Y-133850103D01*
X171855000Y-133850103D01*
G37*
X171855000Y-133850103D02*
X171855000Y-133650000D01*
X171445230Y-133650000D01*
X171445230Y-133850103D01*
X171855000Y-133850103D01*
G36*
X171855000Y-134250100D02*
X171855000Y-134050000D01*
X171445120Y-134050000D01*
X171445120Y-134250100D01*
X171855000Y-134250100D01*
G37*
X171855000Y-134250100D02*
X171855000Y-134050000D01*
X171445120Y-134050000D01*
X171445120Y-134250100D01*
X171855000Y-134250100D01*
G36*
X171855000Y-132648706D02*
X171855000Y-132450000D01*
X171447010Y-132450000D01*
X171447010Y-132648706D01*
X171855000Y-132648706D01*
G37*
X171855000Y-132648706D02*
X171855000Y-132450000D01*
X171447010Y-132450000D01*
X171447010Y-132648706D01*
X171855000Y-132648706D01*
G36*
X169265000Y-133450100D02*
X169265000Y-133250000D01*
X168853520Y-133250000D01*
X168853520Y-133450100D01*
X169265000Y-133450100D01*
G37*
X169265000Y-133450100D02*
X169265000Y-133250000D01*
X168853520Y-133250000D01*
X168853520Y-133450100D01*
X169265000Y-133450100D01*
G36*
X169265000Y-133049850D02*
X169265000Y-132850000D01*
X168854250Y-132850000D01*
X168854250Y-133049850D01*
X169265000Y-133049850D01*
G37*
X169265000Y-133049850D02*
X169265000Y-132850000D01*
X168854250Y-132850000D01*
X168854250Y-133049850D01*
X169265000Y-133049850D01*
G36*
X169265000Y-133850606D02*
X169265000Y-133650000D01*
X168853180Y-133650000D01*
X168853180Y-133850606D01*
X169265000Y-133850606D01*
G37*
X169265000Y-133850606D02*
X169265000Y-133650000D01*
X168853180Y-133650000D01*
X168853180Y-133850606D01*
X169265000Y-133850606D01*
G36*
X169265000Y-134250094D02*
X169265000Y-134050000D01*
X168854840Y-134050000D01*
X168854840Y-134250094D01*
X169265000Y-134250094D01*
G37*
X169265000Y-134250094D02*
X169265000Y-134050000D01*
X168854840Y-134050000D01*
X168854840Y-134250094D01*
X169265000Y-134250094D01*
G36*
X169265000Y-132649106D02*
X169265000Y-132450000D01*
X168853090Y-132450000D01*
X168853090Y-132649106D01*
X169265000Y-132649106D01*
G37*
X169265000Y-132649106D02*
X169265000Y-132450000D01*
X168853090Y-132450000D01*
X168853090Y-132649106D01*
X169265000Y-132649106D01*
G04 #@! TD*
D11*
G04 #@! TO.C,C2*
G36*
X179203779Y-118630144D02*
X179226834Y-118633563D01*
X179249443Y-118639227D01*
X179271387Y-118647079D01*
X179292457Y-118657044D01*
X179312448Y-118669026D01*
X179331168Y-118682910D01*
X179348438Y-118698562D01*
X179364090Y-118715832D01*
X179377974Y-118734552D01*
X179389956Y-118754543D01*
X179399921Y-118775613D01*
X179407773Y-118797557D01*
X179413437Y-118820166D01*
X179416856Y-118843221D01*
X179418000Y-118866500D01*
X179418000Y-119441500D01*
X179416856Y-119464779D01*
X179413437Y-119487834D01*
X179407773Y-119510443D01*
X179399921Y-119532387D01*
X179389956Y-119553457D01*
X179377974Y-119573448D01*
X179364090Y-119592168D01*
X179348438Y-119609438D01*
X179331168Y-119625090D01*
X179312448Y-119638974D01*
X179292457Y-119650956D01*
X179271387Y-119660921D01*
X179249443Y-119668773D01*
X179226834Y-119674437D01*
X179203779Y-119677856D01*
X179180500Y-119679000D01*
X178705500Y-119679000D01*
X178682221Y-119677856D01*
X178659166Y-119674437D01*
X178636557Y-119668773D01*
X178614613Y-119660921D01*
X178593543Y-119650956D01*
X178573552Y-119638974D01*
X178554832Y-119625090D01*
X178537562Y-119609438D01*
X178521910Y-119592168D01*
X178508026Y-119573448D01*
X178496044Y-119553457D01*
X178486079Y-119532387D01*
X178478227Y-119510443D01*
X178472563Y-119487834D01*
X178469144Y-119464779D01*
X178468000Y-119441500D01*
X178468000Y-118866500D01*
X178469144Y-118843221D01*
X178472563Y-118820166D01*
X178478227Y-118797557D01*
X178486079Y-118775613D01*
X178496044Y-118754543D01*
X178508026Y-118734552D01*
X178521910Y-118715832D01*
X178537562Y-118698562D01*
X178554832Y-118682910D01*
X178573552Y-118669026D01*
X178593543Y-118657044D01*
X178614613Y-118647079D01*
X178636557Y-118639227D01*
X178659166Y-118633563D01*
X178682221Y-118630144D01*
X178705500Y-118629000D01*
X179180500Y-118629000D01*
X179203779Y-118630144D01*
X179203779Y-118630144D01*
G37*
D12*
X178943000Y-119154000D03*
D11*
G36*
X179203779Y-120380144D02*
X179226834Y-120383563D01*
X179249443Y-120389227D01*
X179271387Y-120397079D01*
X179292457Y-120407044D01*
X179312448Y-120419026D01*
X179331168Y-120432910D01*
X179348438Y-120448562D01*
X179364090Y-120465832D01*
X179377974Y-120484552D01*
X179389956Y-120504543D01*
X179399921Y-120525613D01*
X179407773Y-120547557D01*
X179413437Y-120570166D01*
X179416856Y-120593221D01*
X179418000Y-120616500D01*
X179418000Y-121191500D01*
X179416856Y-121214779D01*
X179413437Y-121237834D01*
X179407773Y-121260443D01*
X179399921Y-121282387D01*
X179389956Y-121303457D01*
X179377974Y-121323448D01*
X179364090Y-121342168D01*
X179348438Y-121359438D01*
X179331168Y-121375090D01*
X179312448Y-121388974D01*
X179292457Y-121400956D01*
X179271387Y-121410921D01*
X179249443Y-121418773D01*
X179226834Y-121424437D01*
X179203779Y-121427856D01*
X179180500Y-121429000D01*
X178705500Y-121429000D01*
X178682221Y-121427856D01*
X178659166Y-121424437D01*
X178636557Y-121418773D01*
X178614613Y-121410921D01*
X178593543Y-121400956D01*
X178573552Y-121388974D01*
X178554832Y-121375090D01*
X178537562Y-121359438D01*
X178521910Y-121342168D01*
X178508026Y-121323448D01*
X178496044Y-121303457D01*
X178486079Y-121282387D01*
X178478227Y-121260443D01*
X178472563Y-121237834D01*
X178469144Y-121214779D01*
X178468000Y-121191500D01*
X178468000Y-120616500D01*
X178469144Y-120593221D01*
X178472563Y-120570166D01*
X178478227Y-120547557D01*
X178486079Y-120525613D01*
X178496044Y-120504543D01*
X178508026Y-120484552D01*
X178521910Y-120465832D01*
X178537562Y-120448562D01*
X178554832Y-120432910D01*
X178573552Y-120419026D01*
X178593543Y-120407044D01*
X178614613Y-120397079D01*
X178636557Y-120389227D01*
X178659166Y-120383563D01*
X178682221Y-120380144D01*
X178705500Y-120379000D01*
X179180500Y-120379000D01*
X179203779Y-120380144D01*
X179203779Y-120380144D01*
G37*
D12*
X178943000Y-120904000D03*
G04 #@! TD*
D11*
G04 #@! TO.C,J1*
G36*
X187334505Y-129836204D02*
X187358773Y-129839804D01*
X187382572Y-129845765D01*
X187405671Y-129854030D01*
X187427850Y-129864520D01*
X187448893Y-129877132D01*
X187468599Y-129891747D01*
X187486777Y-129908223D01*
X187503253Y-129926401D01*
X187517868Y-129946107D01*
X187530480Y-129967150D01*
X187540970Y-129989329D01*
X187549235Y-130012428D01*
X187555196Y-130036227D01*
X187558796Y-130060495D01*
X187560000Y-130084999D01*
X187560000Y-130785001D01*
X187558796Y-130809505D01*
X187555196Y-130833773D01*
X187549235Y-130857572D01*
X187540970Y-130880671D01*
X187530480Y-130902850D01*
X187517868Y-130923893D01*
X187503253Y-130943599D01*
X187486777Y-130961777D01*
X187468599Y-130978253D01*
X187448893Y-130992868D01*
X187427850Y-131005480D01*
X187405671Y-131015970D01*
X187382572Y-131024235D01*
X187358773Y-131030196D01*
X187334505Y-131033796D01*
X187310001Y-131035000D01*
X186009999Y-131035000D01*
X185985495Y-131033796D01*
X185961227Y-131030196D01*
X185937428Y-131024235D01*
X185914329Y-131015970D01*
X185892150Y-131005480D01*
X185871107Y-130992868D01*
X185851401Y-130978253D01*
X185833223Y-130961777D01*
X185816747Y-130943599D01*
X185802132Y-130923893D01*
X185789520Y-130902850D01*
X185779030Y-130880671D01*
X185770765Y-130857572D01*
X185764804Y-130833773D01*
X185761204Y-130809505D01*
X185760000Y-130785001D01*
X185760000Y-130084999D01*
X185761204Y-130060495D01*
X185764804Y-130036227D01*
X185770765Y-130012428D01*
X185779030Y-129989329D01*
X185789520Y-129967150D01*
X185802132Y-129946107D01*
X185816747Y-129926401D01*
X185833223Y-129908223D01*
X185851401Y-129891747D01*
X185871107Y-129877132D01*
X185892150Y-129864520D01*
X185914329Y-129854030D01*
X185937428Y-129845765D01*
X185961227Y-129839804D01*
X185985495Y-129836204D01*
X186009999Y-129835000D01*
X187310001Y-129835000D01*
X187334505Y-129836204D01*
X187334505Y-129836204D01*
G37*
D13*
X186660000Y-130435000D03*
D11*
G36*
X187334505Y-124236204D02*
X187358773Y-124239804D01*
X187382572Y-124245765D01*
X187405671Y-124254030D01*
X187427850Y-124264520D01*
X187448893Y-124277132D01*
X187468599Y-124291747D01*
X187486777Y-124308223D01*
X187503253Y-124326401D01*
X187517868Y-124346107D01*
X187530480Y-124367150D01*
X187540970Y-124389329D01*
X187549235Y-124412428D01*
X187555196Y-124436227D01*
X187558796Y-124460495D01*
X187560000Y-124484999D01*
X187560000Y-125185001D01*
X187558796Y-125209505D01*
X187555196Y-125233773D01*
X187549235Y-125257572D01*
X187540970Y-125280671D01*
X187530480Y-125302850D01*
X187517868Y-125323893D01*
X187503253Y-125343599D01*
X187486777Y-125361777D01*
X187468599Y-125378253D01*
X187448893Y-125392868D01*
X187427850Y-125405480D01*
X187405671Y-125415970D01*
X187382572Y-125424235D01*
X187358773Y-125430196D01*
X187334505Y-125433796D01*
X187310001Y-125435000D01*
X186009999Y-125435000D01*
X185985495Y-125433796D01*
X185961227Y-125430196D01*
X185937428Y-125424235D01*
X185914329Y-125415970D01*
X185892150Y-125405480D01*
X185871107Y-125392868D01*
X185851401Y-125378253D01*
X185833223Y-125361777D01*
X185816747Y-125343599D01*
X185802132Y-125323893D01*
X185789520Y-125302850D01*
X185779030Y-125280671D01*
X185770765Y-125257572D01*
X185764804Y-125233773D01*
X185761204Y-125209505D01*
X185760000Y-125185001D01*
X185760000Y-124484999D01*
X185761204Y-124460495D01*
X185764804Y-124436227D01*
X185770765Y-124412428D01*
X185779030Y-124389329D01*
X185789520Y-124367150D01*
X185802132Y-124346107D01*
X185816747Y-124326401D01*
X185833223Y-124308223D01*
X185851401Y-124291747D01*
X185871107Y-124277132D01*
X185892150Y-124264520D01*
X185914329Y-124254030D01*
X185937428Y-124245765D01*
X185961227Y-124239804D01*
X185985495Y-124236204D01*
X186009999Y-124235000D01*
X187310001Y-124235000D01*
X187334505Y-124236204D01*
X187334505Y-124236204D01*
G37*
D13*
X186660000Y-124835000D03*
D11*
G36*
X183424703Y-128835722D02*
X183439264Y-128837882D01*
X183453543Y-128841459D01*
X183467403Y-128846418D01*
X183480710Y-128852712D01*
X183493336Y-128860280D01*
X183505159Y-128869048D01*
X183516066Y-128878934D01*
X183525952Y-128889841D01*
X183534720Y-128901664D01*
X183542288Y-128914290D01*
X183548582Y-128927597D01*
X183553541Y-128941457D01*
X183557118Y-128955736D01*
X183559278Y-128970297D01*
X183560000Y-128985000D01*
X183560000Y-129285000D01*
X183559278Y-129299703D01*
X183557118Y-129314264D01*
X183553541Y-129328543D01*
X183548582Y-129342403D01*
X183542288Y-129355710D01*
X183534720Y-129368336D01*
X183525952Y-129380159D01*
X183516066Y-129391066D01*
X183505159Y-129400952D01*
X183493336Y-129409720D01*
X183480710Y-129417288D01*
X183467403Y-129423582D01*
X183453543Y-129428541D01*
X183439264Y-129432118D01*
X183424703Y-129434278D01*
X183410000Y-129435000D01*
X182160000Y-129435000D01*
X182145297Y-129434278D01*
X182130736Y-129432118D01*
X182116457Y-129428541D01*
X182102597Y-129423582D01*
X182089290Y-129417288D01*
X182076664Y-129409720D01*
X182064841Y-129400952D01*
X182053934Y-129391066D01*
X182044048Y-129380159D01*
X182035280Y-129368336D01*
X182027712Y-129355710D01*
X182021418Y-129342403D01*
X182016459Y-129328543D01*
X182012882Y-129314264D01*
X182010722Y-129299703D01*
X182010000Y-129285000D01*
X182010000Y-128985000D01*
X182010722Y-128970297D01*
X182012882Y-128955736D01*
X182016459Y-128941457D01*
X182021418Y-128927597D01*
X182027712Y-128914290D01*
X182035280Y-128901664D01*
X182044048Y-128889841D01*
X182053934Y-128878934D01*
X182064841Y-128869048D01*
X182076664Y-128860280D01*
X182089290Y-128852712D01*
X182102597Y-128846418D01*
X182116457Y-128841459D01*
X182130736Y-128837882D01*
X182145297Y-128835722D01*
X182160000Y-128835000D01*
X183410000Y-128835000D01*
X183424703Y-128835722D01*
X183424703Y-128835722D01*
G37*
D14*
X182785000Y-129135000D03*
D11*
G36*
X183424703Y-127835722D02*
X183439264Y-127837882D01*
X183453543Y-127841459D01*
X183467403Y-127846418D01*
X183480710Y-127852712D01*
X183493336Y-127860280D01*
X183505159Y-127869048D01*
X183516066Y-127878934D01*
X183525952Y-127889841D01*
X183534720Y-127901664D01*
X183542288Y-127914290D01*
X183548582Y-127927597D01*
X183553541Y-127941457D01*
X183557118Y-127955736D01*
X183559278Y-127970297D01*
X183560000Y-127985000D01*
X183560000Y-128285000D01*
X183559278Y-128299703D01*
X183557118Y-128314264D01*
X183553541Y-128328543D01*
X183548582Y-128342403D01*
X183542288Y-128355710D01*
X183534720Y-128368336D01*
X183525952Y-128380159D01*
X183516066Y-128391066D01*
X183505159Y-128400952D01*
X183493336Y-128409720D01*
X183480710Y-128417288D01*
X183467403Y-128423582D01*
X183453543Y-128428541D01*
X183439264Y-128432118D01*
X183424703Y-128434278D01*
X183410000Y-128435000D01*
X182160000Y-128435000D01*
X182145297Y-128434278D01*
X182130736Y-128432118D01*
X182116457Y-128428541D01*
X182102597Y-128423582D01*
X182089290Y-128417288D01*
X182076664Y-128409720D01*
X182064841Y-128400952D01*
X182053934Y-128391066D01*
X182044048Y-128380159D01*
X182035280Y-128368336D01*
X182027712Y-128355710D01*
X182021418Y-128342403D01*
X182016459Y-128328543D01*
X182012882Y-128314264D01*
X182010722Y-128299703D01*
X182010000Y-128285000D01*
X182010000Y-127985000D01*
X182010722Y-127970297D01*
X182012882Y-127955736D01*
X182016459Y-127941457D01*
X182021418Y-127927597D01*
X182027712Y-127914290D01*
X182035280Y-127901664D01*
X182044048Y-127889841D01*
X182053934Y-127878934D01*
X182064841Y-127869048D01*
X182076664Y-127860280D01*
X182089290Y-127852712D01*
X182102597Y-127846418D01*
X182116457Y-127841459D01*
X182130736Y-127837882D01*
X182145297Y-127835722D01*
X182160000Y-127835000D01*
X183410000Y-127835000D01*
X183424703Y-127835722D01*
X183424703Y-127835722D01*
G37*
D14*
X182785000Y-128135000D03*
D11*
G36*
X183424703Y-126835722D02*
X183439264Y-126837882D01*
X183453543Y-126841459D01*
X183467403Y-126846418D01*
X183480710Y-126852712D01*
X183493336Y-126860280D01*
X183505159Y-126869048D01*
X183516066Y-126878934D01*
X183525952Y-126889841D01*
X183534720Y-126901664D01*
X183542288Y-126914290D01*
X183548582Y-126927597D01*
X183553541Y-126941457D01*
X183557118Y-126955736D01*
X183559278Y-126970297D01*
X183560000Y-126985000D01*
X183560000Y-127285000D01*
X183559278Y-127299703D01*
X183557118Y-127314264D01*
X183553541Y-127328543D01*
X183548582Y-127342403D01*
X183542288Y-127355710D01*
X183534720Y-127368336D01*
X183525952Y-127380159D01*
X183516066Y-127391066D01*
X183505159Y-127400952D01*
X183493336Y-127409720D01*
X183480710Y-127417288D01*
X183467403Y-127423582D01*
X183453543Y-127428541D01*
X183439264Y-127432118D01*
X183424703Y-127434278D01*
X183410000Y-127435000D01*
X182160000Y-127435000D01*
X182145297Y-127434278D01*
X182130736Y-127432118D01*
X182116457Y-127428541D01*
X182102597Y-127423582D01*
X182089290Y-127417288D01*
X182076664Y-127409720D01*
X182064841Y-127400952D01*
X182053934Y-127391066D01*
X182044048Y-127380159D01*
X182035280Y-127368336D01*
X182027712Y-127355710D01*
X182021418Y-127342403D01*
X182016459Y-127328543D01*
X182012882Y-127314264D01*
X182010722Y-127299703D01*
X182010000Y-127285000D01*
X182010000Y-126985000D01*
X182010722Y-126970297D01*
X182012882Y-126955736D01*
X182016459Y-126941457D01*
X182021418Y-126927597D01*
X182027712Y-126914290D01*
X182035280Y-126901664D01*
X182044048Y-126889841D01*
X182053934Y-126878934D01*
X182064841Y-126869048D01*
X182076664Y-126860280D01*
X182089290Y-126852712D01*
X182102597Y-126846418D01*
X182116457Y-126841459D01*
X182130736Y-126837882D01*
X182145297Y-126835722D01*
X182160000Y-126835000D01*
X183410000Y-126835000D01*
X183424703Y-126835722D01*
X183424703Y-126835722D01*
G37*
D14*
X182785000Y-127135000D03*
D11*
G36*
X183424703Y-125835722D02*
X183439264Y-125837882D01*
X183453543Y-125841459D01*
X183467403Y-125846418D01*
X183480710Y-125852712D01*
X183493336Y-125860280D01*
X183505159Y-125869048D01*
X183516066Y-125878934D01*
X183525952Y-125889841D01*
X183534720Y-125901664D01*
X183542288Y-125914290D01*
X183548582Y-125927597D01*
X183553541Y-125941457D01*
X183557118Y-125955736D01*
X183559278Y-125970297D01*
X183560000Y-125985000D01*
X183560000Y-126285000D01*
X183559278Y-126299703D01*
X183557118Y-126314264D01*
X183553541Y-126328543D01*
X183548582Y-126342403D01*
X183542288Y-126355710D01*
X183534720Y-126368336D01*
X183525952Y-126380159D01*
X183516066Y-126391066D01*
X183505159Y-126400952D01*
X183493336Y-126409720D01*
X183480710Y-126417288D01*
X183467403Y-126423582D01*
X183453543Y-126428541D01*
X183439264Y-126432118D01*
X183424703Y-126434278D01*
X183410000Y-126435000D01*
X182160000Y-126435000D01*
X182145297Y-126434278D01*
X182130736Y-126432118D01*
X182116457Y-126428541D01*
X182102597Y-126423582D01*
X182089290Y-126417288D01*
X182076664Y-126409720D01*
X182064841Y-126400952D01*
X182053934Y-126391066D01*
X182044048Y-126380159D01*
X182035280Y-126368336D01*
X182027712Y-126355710D01*
X182021418Y-126342403D01*
X182016459Y-126328543D01*
X182012882Y-126314264D01*
X182010722Y-126299703D01*
X182010000Y-126285000D01*
X182010000Y-125985000D01*
X182010722Y-125970297D01*
X182012882Y-125955736D01*
X182016459Y-125941457D01*
X182021418Y-125927597D01*
X182027712Y-125914290D01*
X182035280Y-125901664D01*
X182044048Y-125889841D01*
X182053934Y-125878934D01*
X182064841Y-125869048D01*
X182076664Y-125860280D01*
X182089290Y-125852712D01*
X182102597Y-125846418D01*
X182116457Y-125841459D01*
X182130736Y-125837882D01*
X182145297Y-125835722D01*
X182160000Y-125835000D01*
X183410000Y-125835000D01*
X183424703Y-125835722D01*
X183424703Y-125835722D01*
G37*
D14*
X182785000Y-126135000D03*
G04 #@! TD*
D11*
G04 #@! TO.C,J2*
G36*
X182639703Y-131210722D02*
X182654264Y-131212882D01*
X182668543Y-131216459D01*
X182682403Y-131221418D01*
X182695710Y-131227712D01*
X182708336Y-131235280D01*
X182720159Y-131244048D01*
X182731066Y-131253934D01*
X182740952Y-131264841D01*
X182749720Y-131276664D01*
X182757288Y-131289290D01*
X182763582Y-131302597D01*
X182768541Y-131316457D01*
X182772118Y-131330736D01*
X182774278Y-131345297D01*
X182775000Y-131360000D01*
X182775000Y-132610000D01*
X182774278Y-132624703D01*
X182772118Y-132639264D01*
X182768541Y-132653543D01*
X182763582Y-132667403D01*
X182757288Y-132680710D01*
X182749720Y-132693336D01*
X182740952Y-132705159D01*
X182731066Y-132716066D01*
X182720159Y-132725952D01*
X182708336Y-132734720D01*
X182695710Y-132742288D01*
X182682403Y-132748582D01*
X182668543Y-132753541D01*
X182654264Y-132757118D01*
X182639703Y-132759278D01*
X182625000Y-132760000D01*
X182325000Y-132760000D01*
X182310297Y-132759278D01*
X182295736Y-132757118D01*
X182281457Y-132753541D01*
X182267597Y-132748582D01*
X182254290Y-132742288D01*
X182241664Y-132734720D01*
X182229841Y-132725952D01*
X182218934Y-132716066D01*
X182209048Y-132705159D01*
X182200280Y-132693336D01*
X182192712Y-132680710D01*
X182186418Y-132667403D01*
X182181459Y-132653543D01*
X182177882Y-132639264D01*
X182175722Y-132624703D01*
X182175000Y-132610000D01*
X182175000Y-131360000D01*
X182175722Y-131345297D01*
X182177882Y-131330736D01*
X182181459Y-131316457D01*
X182186418Y-131302597D01*
X182192712Y-131289290D01*
X182200280Y-131276664D01*
X182209048Y-131264841D01*
X182218934Y-131253934D01*
X182229841Y-131244048D01*
X182241664Y-131235280D01*
X182254290Y-131227712D01*
X182267597Y-131221418D01*
X182281457Y-131216459D01*
X182295736Y-131212882D01*
X182310297Y-131210722D01*
X182325000Y-131210000D01*
X182625000Y-131210000D01*
X182639703Y-131210722D01*
X182639703Y-131210722D01*
G37*
D14*
X182475000Y-131985000D03*
D11*
G36*
X181639703Y-131210722D02*
X181654264Y-131212882D01*
X181668543Y-131216459D01*
X181682403Y-131221418D01*
X181695710Y-131227712D01*
X181708336Y-131235280D01*
X181720159Y-131244048D01*
X181731066Y-131253934D01*
X181740952Y-131264841D01*
X181749720Y-131276664D01*
X181757288Y-131289290D01*
X181763582Y-131302597D01*
X181768541Y-131316457D01*
X181772118Y-131330736D01*
X181774278Y-131345297D01*
X181775000Y-131360000D01*
X181775000Y-132610000D01*
X181774278Y-132624703D01*
X181772118Y-132639264D01*
X181768541Y-132653543D01*
X181763582Y-132667403D01*
X181757288Y-132680710D01*
X181749720Y-132693336D01*
X181740952Y-132705159D01*
X181731066Y-132716066D01*
X181720159Y-132725952D01*
X181708336Y-132734720D01*
X181695710Y-132742288D01*
X181682403Y-132748582D01*
X181668543Y-132753541D01*
X181654264Y-132757118D01*
X181639703Y-132759278D01*
X181625000Y-132760000D01*
X181325000Y-132760000D01*
X181310297Y-132759278D01*
X181295736Y-132757118D01*
X181281457Y-132753541D01*
X181267597Y-132748582D01*
X181254290Y-132742288D01*
X181241664Y-132734720D01*
X181229841Y-132725952D01*
X181218934Y-132716066D01*
X181209048Y-132705159D01*
X181200280Y-132693336D01*
X181192712Y-132680710D01*
X181186418Y-132667403D01*
X181181459Y-132653543D01*
X181177882Y-132639264D01*
X181175722Y-132624703D01*
X181175000Y-132610000D01*
X181175000Y-131360000D01*
X181175722Y-131345297D01*
X181177882Y-131330736D01*
X181181459Y-131316457D01*
X181186418Y-131302597D01*
X181192712Y-131289290D01*
X181200280Y-131276664D01*
X181209048Y-131264841D01*
X181218934Y-131253934D01*
X181229841Y-131244048D01*
X181241664Y-131235280D01*
X181254290Y-131227712D01*
X181267597Y-131221418D01*
X181281457Y-131216459D01*
X181295736Y-131212882D01*
X181310297Y-131210722D01*
X181325000Y-131210000D01*
X181625000Y-131210000D01*
X181639703Y-131210722D01*
X181639703Y-131210722D01*
G37*
D14*
X181475000Y-131985000D03*
D11*
G36*
X180639703Y-131210722D02*
X180654264Y-131212882D01*
X180668543Y-131216459D01*
X180682403Y-131221418D01*
X180695710Y-131227712D01*
X180708336Y-131235280D01*
X180720159Y-131244048D01*
X180731066Y-131253934D01*
X180740952Y-131264841D01*
X180749720Y-131276664D01*
X180757288Y-131289290D01*
X180763582Y-131302597D01*
X180768541Y-131316457D01*
X180772118Y-131330736D01*
X180774278Y-131345297D01*
X180775000Y-131360000D01*
X180775000Y-132610000D01*
X180774278Y-132624703D01*
X180772118Y-132639264D01*
X180768541Y-132653543D01*
X180763582Y-132667403D01*
X180757288Y-132680710D01*
X180749720Y-132693336D01*
X180740952Y-132705159D01*
X180731066Y-132716066D01*
X180720159Y-132725952D01*
X180708336Y-132734720D01*
X180695710Y-132742288D01*
X180682403Y-132748582D01*
X180668543Y-132753541D01*
X180654264Y-132757118D01*
X180639703Y-132759278D01*
X180625000Y-132760000D01*
X180325000Y-132760000D01*
X180310297Y-132759278D01*
X180295736Y-132757118D01*
X180281457Y-132753541D01*
X180267597Y-132748582D01*
X180254290Y-132742288D01*
X180241664Y-132734720D01*
X180229841Y-132725952D01*
X180218934Y-132716066D01*
X180209048Y-132705159D01*
X180200280Y-132693336D01*
X180192712Y-132680710D01*
X180186418Y-132667403D01*
X180181459Y-132653543D01*
X180177882Y-132639264D01*
X180175722Y-132624703D01*
X180175000Y-132610000D01*
X180175000Y-131360000D01*
X180175722Y-131345297D01*
X180177882Y-131330736D01*
X180181459Y-131316457D01*
X180186418Y-131302597D01*
X180192712Y-131289290D01*
X180200280Y-131276664D01*
X180209048Y-131264841D01*
X180218934Y-131253934D01*
X180229841Y-131244048D01*
X180241664Y-131235280D01*
X180254290Y-131227712D01*
X180267597Y-131221418D01*
X180281457Y-131216459D01*
X180295736Y-131212882D01*
X180310297Y-131210722D01*
X180325000Y-131210000D01*
X180625000Y-131210000D01*
X180639703Y-131210722D01*
X180639703Y-131210722D01*
G37*
D14*
X180475000Y-131985000D03*
D11*
G36*
X179639703Y-131210722D02*
X179654264Y-131212882D01*
X179668543Y-131216459D01*
X179682403Y-131221418D01*
X179695710Y-131227712D01*
X179708336Y-131235280D01*
X179720159Y-131244048D01*
X179731066Y-131253934D01*
X179740952Y-131264841D01*
X179749720Y-131276664D01*
X179757288Y-131289290D01*
X179763582Y-131302597D01*
X179768541Y-131316457D01*
X179772118Y-131330736D01*
X179774278Y-131345297D01*
X179775000Y-131360000D01*
X179775000Y-132610000D01*
X179774278Y-132624703D01*
X179772118Y-132639264D01*
X179768541Y-132653543D01*
X179763582Y-132667403D01*
X179757288Y-132680710D01*
X179749720Y-132693336D01*
X179740952Y-132705159D01*
X179731066Y-132716066D01*
X179720159Y-132725952D01*
X179708336Y-132734720D01*
X179695710Y-132742288D01*
X179682403Y-132748582D01*
X179668543Y-132753541D01*
X179654264Y-132757118D01*
X179639703Y-132759278D01*
X179625000Y-132760000D01*
X179325000Y-132760000D01*
X179310297Y-132759278D01*
X179295736Y-132757118D01*
X179281457Y-132753541D01*
X179267597Y-132748582D01*
X179254290Y-132742288D01*
X179241664Y-132734720D01*
X179229841Y-132725952D01*
X179218934Y-132716066D01*
X179209048Y-132705159D01*
X179200280Y-132693336D01*
X179192712Y-132680710D01*
X179186418Y-132667403D01*
X179181459Y-132653543D01*
X179177882Y-132639264D01*
X179175722Y-132624703D01*
X179175000Y-132610000D01*
X179175000Y-131360000D01*
X179175722Y-131345297D01*
X179177882Y-131330736D01*
X179181459Y-131316457D01*
X179186418Y-131302597D01*
X179192712Y-131289290D01*
X179200280Y-131276664D01*
X179209048Y-131264841D01*
X179218934Y-131253934D01*
X179229841Y-131244048D01*
X179241664Y-131235280D01*
X179254290Y-131227712D01*
X179267597Y-131221418D01*
X179281457Y-131216459D01*
X179295736Y-131212882D01*
X179310297Y-131210722D01*
X179325000Y-131210000D01*
X179625000Y-131210000D01*
X179639703Y-131210722D01*
X179639703Y-131210722D01*
G37*
D14*
X179475000Y-131985000D03*
D11*
G36*
X184149505Y-134961204D02*
X184173773Y-134964804D01*
X184197572Y-134970765D01*
X184220671Y-134979030D01*
X184242850Y-134989520D01*
X184263893Y-135002132D01*
X184283599Y-135016747D01*
X184301777Y-135033223D01*
X184318253Y-135051401D01*
X184332868Y-135071107D01*
X184345480Y-135092150D01*
X184355970Y-135114329D01*
X184364235Y-135137428D01*
X184370196Y-135161227D01*
X184373796Y-135185495D01*
X184375000Y-135209999D01*
X184375000Y-136510001D01*
X184373796Y-136534505D01*
X184370196Y-136558773D01*
X184364235Y-136582572D01*
X184355970Y-136605671D01*
X184345480Y-136627850D01*
X184332868Y-136648893D01*
X184318253Y-136668599D01*
X184301777Y-136686777D01*
X184283599Y-136703253D01*
X184263893Y-136717868D01*
X184242850Y-136730480D01*
X184220671Y-136740970D01*
X184197572Y-136749235D01*
X184173773Y-136755196D01*
X184149505Y-136758796D01*
X184125001Y-136760000D01*
X183424999Y-136760000D01*
X183400495Y-136758796D01*
X183376227Y-136755196D01*
X183352428Y-136749235D01*
X183329329Y-136740970D01*
X183307150Y-136730480D01*
X183286107Y-136717868D01*
X183266401Y-136703253D01*
X183248223Y-136686777D01*
X183231747Y-136668599D01*
X183217132Y-136648893D01*
X183204520Y-136627850D01*
X183194030Y-136605671D01*
X183185765Y-136582572D01*
X183179804Y-136558773D01*
X183176204Y-136534505D01*
X183175000Y-136510001D01*
X183175000Y-135209999D01*
X183176204Y-135185495D01*
X183179804Y-135161227D01*
X183185765Y-135137428D01*
X183194030Y-135114329D01*
X183204520Y-135092150D01*
X183217132Y-135071107D01*
X183231747Y-135051401D01*
X183248223Y-135033223D01*
X183266401Y-135016747D01*
X183286107Y-135002132D01*
X183307150Y-134989520D01*
X183329329Y-134979030D01*
X183352428Y-134970765D01*
X183376227Y-134964804D01*
X183400495Y-134961204D01*
X183424999Y-134960000D01*
X184125001Y-134960000D01*
X184149505Y-134961204D01*
X184149505Y-134961204D01*
G37*
D13*
X183775000Y-135860000D03*
D11*
G36*
X178549505Y-134961204D02*
X178573773Y-134964804D01*
X178597572Y-134970765D01*
X178620671Y-134979030D01*
X178642850Y-134989520D01*
X178663893Y-135002132D01*
X178683599Y-135016747D01*
X178701777Y-135033223D01*
X178718253Y-135051401D01*
X178732868Y-135071107D01*
X178745480Y-135092150D01*
X178755970Y-135114329D01*
X178764235Y-135137428D01*
X178770196Y-135161227D01*
X178773796Y-135185495D01*
X178775000Y-135209999D01*
X178775000Y-136510001D01*
X178773796Y-136534505D01*
X178770196Y-136558773D01*
X178764235Y-136582572D01*
X178755970Y-136605671D01*
X178745480Y-136627850D01*
X178732868Y-136648893D01*
X178718253Y-136668599D01*
X178701777Y-136686777D01*
X178683599Y-136703253D01*
X178663893Y-136717868D01*
X178642850Y-136730480D01*
X178620671Y-136740970D01*
X178597572Y-136749235D01*
X178573773Y-136755196D01*
X178549505Y-136758796D01*
X178525001Y-136760000D01*
X177824999Y-136760000D01*
X177800495Y-136758796D01*
X177776227Y-136755196D01*
X177752428Y-136749235D01*
X177729329Y-136740970D01*
X177707150Y-136730480D01*
X177686107Y-136717868D01*
X177666401Y-136703253D01*
X177648223Y-136686777D01*
X177631747Y-136668599D01*
X177617132Y-136648893D01*
X177604520Y-136627850D01*
X177594030Y-136605671D01*
X177585765Y-136582572D01*
X177579804Y-136558773D01*
X177576204Y-136534505D01*
X177575000Y-136510001D01*
X177575000Y-135209999D01*
X177576204Y-135185495D01*
X177579804Y-135161227D01*
X177585765Y-135137428D01*
X177594030Y-135114329D01*
X177604520Y-135092150D01*
X177617132Y-135071107D01*
X177631747Y-135051401D01*
X177648223Y-135033223D01*
X177666401Y-135016747D01*
X177686107Y-135002132D01*
X177707150Y-134989520D01*
X177729329Y-134979030D01*
X177752428Y-134970765D01*
X177776227Y-134964804D01*
X177800495Y-134961204D01*
X177824999Y-134960000D01*
X178525001Y-134960000D01*
X178549505Y-134961204D01*
X178549505Y-134961204D01*
G37*
D13*
X178175000Y-135860000D03*
G04 #@! TD*
D15*
G04 #@! TO.C,J4*
X184280000Y-122895000D03*
X184280000Y-114595000D03*
D16*
X181030000Y-116495000D03*
X181030000Y-116995000D03*
X181030000Y-117495000D03*
X181030000Y-117995000D03*
X181030000Y-118495000D03*
X181030000Y-118995000D03*
X181030000Y-119495000D03*
X181030000Y-119995000D03*
X181030000Y-120495000D03*
X181030000Y-120995000D03*
G04 #@! TD*
D17*
G04 #@! TO.C,P1*
X171057500Y-134950000D03*
X169652500Y-134950000D03*
X169652500Y-131750000D03*
X171057500Y-131750000D03*
G04 #@! TD*
D11*
G04 #@! TO.C,R1*
G36*
X178060779Y-125686144D02*
X178083834Y-125689563D01*
X178106443Y-125695227D01*
X178128387Y-125703079D01*
X178149457Y-125713044D01*
X178169448Y-125725026D01*
X178188168Y-125738910D01*
X178205438Y-125754562D01*
X178221090Y-125771832D01*
X178234974Y-125790552D01*
X178246956Y-125810543D01*
X178256921Y-125831613D01*
X178264773Y-125853557D01*
X178270437Y-125876166D01*
X178273856Y-125899221D01*
X178275000Y-125922500D01*
X178275000Y-126497500D01*
X178273856Y-126520779D01*
X178270437Y-126543834D01*
X178264773Y-126566443D01*
X178256921Y-126588387D01*
X178246956Y-126609457D01*
X178234974Y-126629448D01*
X178221090Y-126648168D01*
X178205438Y-126665438D01*
X178188168Y-126681090D01*
X178169448Y-126694974D01*
X178149457Y-126706956D01*
X178128387Y-126716921D01*
X178106443Y-126724773D01*
X178083834Y-126730437D01*
X178060779Y-126733856D01*
X178037500Y-126735000D01*
X177562500Y-126735000D01*
X177539221Y-126733856D01*
X177516166Y-126730437D01*
X177493557Y-126724773D01*
X177471613Y-126716921D01*
X177450543Y-126706956D01*
X177430552Y-126694974D01*
X177411832Y-126681090D01*
X177394562Y-126665438D01*
X177378910Y-126648168D01*
X177365026Y-126629448D01*
X177353044Y-126609457D01*
X177343079Y-126588387D01*
X177335227Y-126566443D01*
X177329563Y-126543834D01*
X177326144Y-126520779D01*
X177325000Y-126497500D01*
X177325000Y-125922500D01*
X177326144Y-125899221D01*
X177329563Y-125876166D01*
X177335227Y-125853557D01*
X177343079Y-125831613D01*
X177353044Y-125810543D01*
X177365026Y-125790552D01*
X177378910Y-125771832D01*
X177394562Y-125754562D01*
X177411832Y-125738910D01*
X177430552Y-125725026D01*
X177450543Y-125713044D01*
X177471613Y-125703079D01*
X177493557Y-125695227D01*
X177516166Y-125689563D01*
X177539221Y-125686144D01*
X177562500Y-125685000D01*
X178037500Y-125685000D01*
X178060779Y-125686144D01*
X178060779Y-125686144D01*
G37*
D12*
X177800000Y-126210000D03*
D11*
G36*
X178060779Y-123936144D02*
X178083834Y-123939563D01*
X178106443Y-123945227D01*
X178128387Y-123953079D01*
X178149457Y-123963044D01*
X178169448Y-123975026D01*
X178188168Y-123988910D01*
X178205438Y-124004562D01*
X178221090Y-124021832D01*
X178234974Y-124040552D01*
X178246956Y-124060543D01*
X178256921Y-124081613D01*
X178264773Y-124103557D01*
X178270437Y-124126166D01*
X178273856Y-124149221D01*
X178275000Y-124172500D01*
X178275000Y-124747500D01*
X178273856Y-124770779D01*
X178270437Y-124793834D01*
X178264773Y-124816443D01*
X178256921Y-124838387D01*
X178246956Y-124859457D01*
X178234974Y-124879448D01*
X178221090Y-124898168D01*
X178205438Y-124915438D01*
X178188168Y-124931090D01*
X178169448Y-124944974D01*
X178149457Y-124956956D01*
X178128387Y-124966921D01*
X178106443Y-124974773D01*
X178083834Y-124980437D01*
X178060779Y-124983856D01*
X178037500Y-124985000D01*
X177562500Y-124985000D01*
X177539221Y-124983856D01*
X177516166Y-124980437D01*
X177493557Y-124974773D01*
X177471613Y-124966921D01*
X177450543Y-124956956D01*
X177430552Y-124944974D01*
X177411832Y-124931090D01*
X177394562Y-124915438D01*
X177378910Y-124898168D01*
X177365026Y-124879448D01*
X177353044Y-124859457D01*
X177343079Y-124838387D01*
X177335227Y-124816443D01*
X177329563Y-124793834D01*
X177326144Y-124770779D01*
X177325000Y-124747500D01*
X177325000Y-124172500D01*
X177326144Y-124149221D01*
X177329563Y-124126166D01*
X177335227Y-124103557D01*
X177343079Y-124081613D01*
X177353044Y-124060543D01*
X177365026Y-124040552D01*
X177378910Y-124021832D01*
X177394562Y-124004562D01*
X177411832Y-123988910D01*
X177430552Y-123975026D01*
X177450543Y-123963044D01*
X177471613Y-123953079D01*
X177493557Y-123945227D01*
X177516166Y-123939563D01*
X177539221Y-123936144D01*
X177562500Y-123935000D01*
X178037500Y-123935000D01*
X178060779Y-123936144D01*
X178060779Y-123936144D01*
G37*
D12*
X177800000Y-124460000D03*
G04 #@! TD*
D11*
G04 #@! TO.C,R2*
G36*
X176155779Y-123936144D02*
X176178834Y-123939563D01*
X176201443Y-123945227D01*
X176223387Y-123953079D01*
X176244457Y-123963044D01*
X176264448Y-123975026D01*
X176283168Y-123988910D01*
X176300438Y-124004562D01*
X176316090Y-124021832D01*
X176329974Y-124040552D01*
X176341956Y-124060543D01*
X176351921Y-124081613D01*
X176359773Y-124103557D01*
X176365437Y-124126166D01*
X176368856Y-124149221D01*
X176370000Y-124172500D01*
X176370000Y-124747500D01*
X176368856Y-124770779D01*
X176365437Y-124793834D01*
X176359773Y-124816443D01*
X176351921Y-124838387D01*
X176341956Y-124859457D01*
X176329974Y-124879448D01*
X176316090Y-124898168D01*
X176300438Y-124915438D01*
X176283168Y-124931090D01*
X176264448Y-124944974D01*
X176244457Y-124956956D01*
X176223387Y-124966921D01*
X176201443Y-124974773D01*
X176178834Y-124980437D01*
X176155779Y-124983856D01*
X176132500Y-124985000D01*
X175657500Y-124985000D01*
X175634221Y-124983856D01*
X175611166Y-124980437D01*
X175588557Y-124974773D01*
X175566613Y-124966921D01*
X175545543Y-124956956D01*
X175525552Y-124944974D01*
X175506832Y-124931090D01*
X175489562Y-124915438D01*
X175473910Y-124898168D01*
X175460026Y-124879448D01*
X175448044Y-124859457D01*
X175438079Y-124838387D01*
X175430227Y-124816443D01*
X175424563Y-124793834D01*
X175421144Y-124770779D01*
X175420000Y-124747500D01*
X175420000Y-124172500D01*
X175421144Y-124149221D01*
X175424563Y-124126166D01*
X175430227Y-124103557D01*
X175438079Y-124081613D01*
X175448044Y-124060543D01*
X175460026Y-124040552D01*
X175473910Y-124021832D01*
X175489562Y-124004562D01*
X175506832Y-123988910D01*
X175525552Y-123975026D01*
X175545543Y-123963044D01*
X175566613Y-123953079D01*
X175588557Y-123945227D01*
X175611166Y-123939563D01*
X175634221Y-123936144D01*
X175657500Y-123935000D01*
X176132500Y-123935000D01*
X176155779Y-123936144D01*
X176155779Y-123936144D01*
G37*
D12*
X175895000Y-124460000D03*
D11*
G36*
X176155779Y-125686144D02*
X176178834Y-125689563D01*
X176201443Y-125695227D01*
X176223387Y-125703079D01*
X176244457Y-125713044D01*
X176264448Y-125725026D01*
X176283168Y-125738910D01*
X176300438Y-125754562D01*
X176316090Y-125771832D01*
X176329974Y-125790552D01*
X176341956Y-125810543D01*
X176351921Y-125831613D01*
X176359773Y-125853557D01*
X176365437Y-125876166D01*
X176368856Y-125899221D01*
X176370000Y-125922500D01*
X176370000Y-126497500D01*
X176368856Y-126520779D01*
X176365437Y-126543834D01*
X176359773Y-126566443D01*
X176351921Y-126588387D01*
X176341956Y-126609457D01*
X176329974Y-126629448D01*
X176316090Y-126648168D01*
X176300438Y-126665438D01*
X176283168Y-126681090D01*
X176264448Y-126694974D01*
X176244457Y-126706956D01*
X176223387Y-126716921D01*
X176201443Y-126724773D01*
X176178834Y-126730437D01*
X176155779Y-126733856D01*
X176132500Y-126735000D01*
X175657500Y-126735000D01*
X175634221Y-126733856D01*
X175611166Y-126730437D01*
X175588557Y-126724773D01*
X175566613Y-126716921D01*
X175545543Y-126706956D01*
X175525552Y-126694974D01*
X175506832Y-126681090D01*
X175489562Y-126665438D01*
X175473910Y-126648168D01*
X175460026Y-126629448D01*
X175448044Y-126609457D01*
X175438079Y-126588387D01*
X175430227Y-126566443D01*
X175424563Y-126543834D01*
X175421144Y-126520779D01*
X175420000Y-126497500D01*
X175420000Y-125922500D01*
X175421144Y-125899221D01*
X175424563Y-125876166D01*
X175430227Y-125853557D01*
X175438079Y-125831613D01*
X175448044Y-125810543D01*
X175460026Y-125790552D01*
X175473910Y-125771832D01*
X175489562Y-125754562D01*
X175506832Y-125738910D01*
X175525552Y-125725026D01*
X175545543Y-125713044D01*
X175566613Y-125703079D01*
X175588557Y-125695227D01*
X175611166Y-125689563D01*
X175634221Y-125686144D01*
X175657500Y-125685000D01*
X176132500Y-125685000D01*
X176155779Y-125686144D01*
X176155779Y-125686144D01*
G37*
D12*
X175895000Y-126210000D03*
G04 #@! TD*
D18*
G04 #@! TO.C,IC1*
X164652000Y-113333000D03*
X165752000Y-113333000D03*
X166552000Y-113333000D03*
X168152000Y-113333000D03*
X168552000Y-114233000D03*
X168952000Y-113333000D03*
X169352000Y-114233000D03*
X169752000Y-113333000D03*
X170152000Y-114233000D03*
X170552000Y-113333000D03*
X170952000Y-114233000D03*
X171352000Y-113333000D03*
X171752000Y-114233000D03*
X172152000Y-113333000D03*
D19*
X175552000Y-113183000D03*
X175552000Y-113983000D03*
X175552000Y-114783000D03*
X175552000Y-115583000D03*
X174652000Y-115983000D03*
X175552000Y-116383000D03*
X174652000Y-116783000D03*
X175552000Y-117183000D03*
X174652000Y-117583000D03*
X175552000Y-117983000D03*
X174652000Y-118383000D03*
X175552000Y-118783000D03*
X174652000Y-119183000D03*
X175552000Y-119583000D03*
X174652000Y-119983000D03*
X175552000Y-120383000D03*
X175552000Y-121183000D03*
X175552000Y-121983000D03*
X175552000Y-122783000D03*
D18*
X174552000Y-122633000D03*
X173752000Y-122633000D03*
X173352000Y-121733000D03*
X172952000Y-122633000D03*
X172552000Y-121733000D03*
X172152000Y-122633000D03*
X171752000Y-121733000D03*
X171352000Y-122633000D03*
X170952000Y-121733000D03*
X170152000Y-121733000D03*
X169752000Y-122633000D03*
X169352000Y-121733000D03*
X168952000Y-122633000D03*
X168552000Y-121733000D03*
X168152000Y-122633000D03*
X167752000Y-121733000D03*
X166952000Y-121733000D03*
X166552000Y-122633000D03*
X166152000Y-121733000D03*
X165752000Y-122633000D03*
X165352000Y-121733000D03*
X164652000Y-122633000D03*
D19*
X168952000Y-115983000D03*
X168952000Y-116783000D03*
X168952000Y-117583000D03*
X168952000Y-118383000D03*
X168952000Y-119183000D03*
X168952000Y-119983000D03*
G04 #@! TD*
M02*
