G04 #@! TF.GenerationSoftware,KiCad,Pcbnew,(5.0.0-rc2-200-g1f6f76beb)*
G04 #@! TF.CreationDate,2020-02-24T22:29:36-05:00*
G04 #@! TF.ProjectId,watch-logic,77617463682D6C6F6769632E6B696361,rev?*
G04 #@! TF.SameCoordinates,Original*
G04 #@! TF.FileFunction,Copper,L1,Top,Signal*
G04 #@! TF.FilePolarity,Positive*
%FSLAX46Y46*%
G04 Gerber Fmt 4.6, Leading zero omitted, Abs format (unit mm)*
G04 Created by KiCad (PCBNEW (5.0.0-rc2-200-g1f6f76beb)) date Mon Feb 24 22:29:36 2020*
%MOMM*%
%LPD*%
G01*
G04 APERTURE LIST*
G04 #@! TA.AperFunction,SMDPad,CuDef*
%ADD10R,1.100000X1.050000*%
G04 #@! TD*
G04 #@! TA.AperFunction,Conductor*
%ADD11C,0.100000*%
G04 #@! TD*
G04 #@! TA.AperFunction,SMDPad,CuDef*
%ADD12C,1.425000*%
G04 #@! TD*
G04 #@! TA.AperFunction,SMDPad,CuDef*
%ADD13R,0.800000X0.900000*%
G04 #@! TD*
G04 #@! TA.AperFunction,SMDPad,CuDef*
%ADD14R,0.420000X0.400000*%
G04 #@! TD*
G04 #@! TA.AperFunction,ComponentPad*
%ADD15R,0.850000X0.850000*%
G04 #@! TD*
G04 #@! TA.AperFunction,ComponentPad*
%ADD16O,0.850000X0.850000*%
G04 #@! TD*
G04 #@! TA.AperFunction,SMDPad,CuDef*
%ADD17C,0.500000*%
G04 #@! TD*
G04 #@! TA.AperFunction,SMDPad,CuDef*
%ADD18C,0.950000*%
G04 #@! TD*
G04 #@! TA.AperFunction,SMDPad,CuDef*
%ADD19R,1.500000X0.550000*%
G04 #@! TD*
G04 #@! TA.AperFunction,BGAPad,CuDef*
%ADD20C,1.000000*%
G04 #@! TD*
G04 #@! TA.AperFunction,SMDPad,CuDef*
%ADD21R,0.300000X0.250000*%
G04 #@! TD*
G04 #@! TA.AperFunction,SMDPad,CuDef*
%ADD22R,0.200000X1.600000*%
G04 #@! TD*
G04 #@! TA.AperFunction,SMDPad,CuDef*
%ADD23R,0.300000X0.700000*%
G04 #@! TD*
G04 #@! TA.AperFunction,SMDPad,CuDef*
%ADD24R,0.300000X1.000000*%
G04 #@! TD*
G04 #@! TA.AperFunction,ViaPad*
%ADD25C,0.800000*%
G04 #@! TD*
G04 #@! TA.AperFunction,ViaPad*
%ADD26C,0.500000*%
G04 #@! TD*
G04 #@! TA.AperFunction,Conductor*
%ADD27C,0.150000*%
G04 #@! TD*
G04 #@! TA.AperFunction,Conductor*
%ADD28C,0.200000*%
G04 #@! TD*
G04 #@! TA.AperFunction,Conductor*
%ADD29C,0.254000*%
G04 #@! TD*
G04 APERTURE END LIST*
D10*
G04 #@! TO.P,Y1,1*
G04 #@! TO.N,Net-(IC1-Pad17)*
X177927000Y-113284000D03*
G04 #@! TO.P,Y1,2*
G04 #@! TO.N,Net-(IC1-Pad18)*
X177927000Y-115134000D03*
G04 #@! TD*
D11*
G04 #@! TO.N,Net-(C1-Pad1)*
G04 #@! TO.C,C1*
G36*
X183494004Y-112341204D02*
X183518273Y-112344804D01*
X183542071Y-112350765D01*
X183565171Y-112359030D01*
X183587349Y-112369520D01*
X183608393Y-112382133D01*
X183628098Y-112396747D01*
X183646277Y-112413223D01*
X183662753Y-112431402D01*
X183677367Y-112451107D01*
X183689980Y-112472151D01*
X183700470Y-112494329D01*
X183708735Y-112517429D01*
X183714696Y-112541227D01*
X183718296Y-112565496D01*
X183719500Y-112590000D01*
X183719500Y-114740000D01*
X183718296Y-114764504D01*
X183714696Y-114788773D01*
X183708735Y-114812571D01*
X183700470Y-114835671D01*
X183689980Y-114857849D01*
X183677367Y-114878893D01*
X183662753Y-114898598D01*
X183646277Y-114916777D01*
X183628098Y-114933253D01*
X183608393Y-114947867D01*
X183587349Y-114960480D01*
X183565171Y-114970970D01*
X183542071Y-114979235D01*
X183518273Y-114985196D01*
X183494004Y-114988796D01*
X183469500Y-114990000D01*
X182544500Y-114990000D01*
X182519996Y-114988796D01*
X182495727Y-114985196D01*
X182471929Y-114979235D01*
X182448829Y-114970970D01*
X182426651Y-114960480D01*
X182405607Y-114947867D01*
X182385902Y-114933253D01*
X182367723Y-114916777D01*
X182351247Y-114898598D01*
X182336633Y-114878893D01*
X182324020Y-114857849D01*
X182313530Y-114835671D01*
X182305265Y-114812571D01*
X182299304Y-114788773D01*
X182295704Y-114764504D01*
X182294500Y-114740000D01*
X182294500Y-112590000D01*
X182295704Y-112565496D01*
X182299304Y-112541227D01*
X182305265Y-112517429D01*
X182313530Y-112494329D01*
X182324020Y-112472151D01*
X182336633Y-112451107D01*
X182351247Y-112431402D01*
X182367723Y-112413223D01*
X182385902Y-112396747D01*
X182405607Y-112382133D01*
X182426651Y-112369520D01*
X182448829Y-112359030D01*
X182471929Y-112350765D01*
X182495727Y-112344804D01*
X182519996Y-112341204D01*
X182544500Y-112340000D01*
X183469500Y-112340000D01*
X183494004Y-112341204D01*
X183494004Y-112341204D01*
G37*
D12*
G04 #@! TD*
G04 #@! TO.P,C1,1*
G04 #@! TO.N,Net-(C1-Pad1)*
X183007000Y-113665000D03*
D11*
G04 #@! TO.N,GND*
G04 #@! TO.C,C1*
G36*
X180519004Y-112341204D02*
X180543273Y-112344804D01*
X180567071Y-112350765D01*
X180590171Y-112359030D01*
X180612349Y-112369520D01*
X180633393Y-112382133D01*
X180653098Y-112396747D01*
X180671277Y-112413223D01*
X180687753Y-112431402D01*
X180702367Y-112451107D01*
X180714980Y-112472151D01*
X180725470Y-112494329D01*
X180733735Y-112517429D01*
X180739696Y-112541227D01*
X180743296Y-112565496D01*
X180744500Y-112590000D01*
X180744500Y-114740000D01*
X180743296Y-114764504D01*
X180739696Y-114788773D01*
X180733735Y-114812571D01*
X180725470Y-114835671D01*
X180714980Y-114857849D01*
X180702367Y-114878893D01*
X180687753Y-114898598D01*
X180671277Y-114916777D01*
X180653098Y-114933253D01*
X180633393Y-114947867D01*
X180612349Y-114960480D01*
X180590171Y-114970970D01*
X180567071Y-114979235D01*
X180543273Y-114985196D01*
X180519004Y-114988796D01*
X180494500Y-114990000D01*
X179569500Y-114990000D01*
X179544996Y-114988796D01*
X179520727Y-114985196D01*
X179496929Y-114979235D01*
X179473829Y-114970970D01*
X179451651Y-114960480D01*
X179430607Y-114947867D01*
X179410902Y-114933253D01*
X179392723Y-114916777D01*
X179376247Y-114898598D01*
X179361633Y-114878893D01*
X179349020Y-114857849D01*
X179338530Y-114835671D01*
X179330265Y-114812571D01*
X179324304Y-114788773D01*
X179320704Y-114764504D01*
X179319500Y-114740000D01*
X179319500Y-112590000D01*
X179320704Y-112565496D01*
X179324304Y-112541227D01*
X179330265Y-112517429D01*
X179338530Y-112494329D01*
X179349020Y-112472151D01*
X179361633Y-112451107D01*
X179376247Y-112431402D01*
X179392723Y-112413223D01*
X179410902Y-112396747D01*
X179430607Y-112382133D01*
X179451651Y-112369520D01*
X179473829Y-112359030D01*
X179496929Y-112350765D01*
X179520727Y-112344804D01*
X179544996Y-112341204D01*
X179569500Y-112340000D01*
X180494500Y-112340000D01*
X180519004Y-112341204D01*
X180519004Y-112341204D01*
G37*
D12*
G04 #@! TD*
G04 #@! TO.P,C1,2*
G04 #@! TO.N,GND*
X180032000Y-113665000D03*
D13*
G04 #@! TO.P,D1,2*
G04 #@! TO.N,+3V3*
X187005000Y-112665000D03*
G04 #@! TO.P,D1,*
G04 #@! TO.N,*
X185105000Y-112665000D03*
G04 #@! TO.P,D1,1*
G04 #@! TO.N,Net-(C1-Pad1)*
X186055000Y-114665000D03*
G04 #@! TD*
D14*
G04 #@! TO.P,IC2,8*
G04 #@! TO.N,SCL*
X185790000Y-119275000D03*
G04 #@! TO.P,IC2,7*
G04 #@! TO.N,N/C*
X185790000Y-118375000D03*
G04 #@! TO.P,IC2,6*
G04 #@! TO.N,RTC_IRQ*
X185790000Y-117475000D03*
G04 #@! TO.P,IC2,5*
G04 #@! TO.N,Net-(C1-Pad1)*
X185790000Y-116575000D03*
G04 #@! TO.P,IC2,1*
G04 #@! TO.N,SDA*
X186690000Y-119275000D03*
G04 #@! TO.P,IC2,2*
G04 #@! TO.N,SQW*
X186690000Y-118375000D03*
G04 #@! TO.P,IC2,3*
G04 #@! TO.N,GND*
X186690000Y-117475000D03*
G04 #@! TO.P,IC2,4*
G04 #@! TO.N,N/C*
X186690000Y-116575000D03*
G04 #@! TD*
D15*
G04 #@! TO.P,J3,1*
G04 #@! TO.N,+3V3*
X165735000Y-135890000D03*
D16*
G04 #@! TO.P,J3,2*
G04 #@! TO.N,Net-(J3-Pad2)*
X164735000Y-135890000D03*
G04 #@! TD*
D17*
G04 #@! TO.P,JP1,2*
G04 #@! TO.N,+3V3*
X186690000Y-127000000D03*
D11*
G04 #@! TD*
G04 #@! TO.N,+3V3*
G04 #@! TO.C,JP1*
G36*
X185940602Y-127000000D02*
X185940602Y-126975466D01*
X185945412Y-126926635D01*
X185954984Y-126878510D01*
X185969228Y-126831555D01*
X185988005Y-126786222D01*
X186011136Y-126742949D01*
X186038396Y-126702150D01*
X186069524Y-126664221D01*
X186104221Y-126629524D01*
X186142150Y-126598396D01*
X186182949Y-126571136D01*
X186226222Y-126548005D01*
X186271555Y-126529228D01*
X186318510Y-126514984D01*
X186366635Y-126505412D01*
X186415466Y-126500602D01*
X186440000Y-126500602D01*
X186440000Y-126500000D01*
X186940000Y-126500000D01*
X186940000Y-126500602D01*
X186964534Y-126500602D01*
X187013365Y-126505412D01*
X187061490Y-126514984D01*
X187108445Y-126529228D01*
X187153778Y-126548005D01*
X187197051Y-126571136D01*
X187237850Y-126598396D01*
X187275779Y-126629524D01*
X187310476Y-126664221D01*
X187341604Y-126702150D01*
X187368864Y-126742949D01*
X187391995Y-126786222D01*
X187410772Y-126831555D01*
X187425016Y-126878510D01*
X187434588Y-126926635D01*
X187439398Y-126975466D01*
X187439398Y-127000000D01*
X187440000Y-127000000D01*
X187440000Y-127500000D01*
X185940000Y-127500000D01*
X185940000Y-127000000D01*
X185940602Y-127000000D01*
X185940602Y-127000000D01*
G37*
D17*
G04 #@! TO.P,JP1,1*
G04 #@! TO.N,BTN2*
X186690000Y-128300000D03*
D11*
G04 #@! TD*
G04 #@! TO.N,BTN2*
G04 #@! TO.C,JP1*
G36*
X187440000Y-127800000D02*
X187440000Y-128300000D01*
X187439398Y-128300000D01*
X187439398Y-128324534D01*
X187434588Y-128373365D01*
X187425016Y-128421490D01*
X187410772Y-128468445D01*
X187391995Y-128513778D01*
X187368864Y-128557051D01*
X187341604Y-128597850D01*
X187310476Y-128635779D01*
X187275779Y-128670476D01*
X187237850Y-128701604D01*
X187197051Y-128728864D01*
X187153778Y-128751995D01*
X187108445Y-128770772D01*
X187061490Y-128785016D01*
X187013365Y-128794588D01*
X186964534Y-128799398D01*
X186940000Y-128799398D01*
X186940000Y-128800000D01*
X186440000Y-128800000D01*
X186440000Y-128799398D01*
X186415466Y-128799398D01*
X186366635Y-128794588D01*
X186318510Y-128785016D01*
X186271555Y-128770772D01*
X186226222Y-128751995D01*
X186182949Y-128728864D01*
X186142150Y-128701604D01*
X186104221Y-128670476D01*
X186069524Y-128635779D01*
X186038396Y-128597850D01*
X186011136Y-128557051D01*
X185988005Y-128513778D01*
X185969228Y-128468445D01*
X185954984Y-128421490D01*
X185945412Y-128373365D01*
X185940602Y-128324534D01*
X185940602Y-128300000D01*
X185940000Y-128300000D01*
X185940000Y-127800000D01*
X187440000Y-127800000D01*
X187440000Y-127800000D01*
G37*
D17*
G04 #@! TO.P,JP2,1*
G04 #@! TO.N,BTN6*
X180310000Y-135255000D03*
D11*
G04 #@! TD*
G04 #@! TO.N,BTN6*
G04 #@! TO.C,JP2*
G36*
X180810000Y-136005000D02*
X180310000Y-136005000D01*
X180310000Y-136004398D01*
X180285466Y-136004398D01*
X180236635Y-135999588D01*
X180188510Y-135990016D01*
X180141555Y-135975772D01*
X180096222Y-135956995D01*
X180052949Y-135933864D01*
X180012150Y-135906604D01*
X179974221Y-135875476D01*
X179939524Y-135840779D01*
X179908396Y-135802850D01*
X179881136Y-135762051D01*
X179858005Y-135718778D01*
X179839228Y-135673445D01*
X179824984Y-135626490D01*
X179815412Y-135578365D01*
X179810602Y-135529534D01*
X179810602Y-135505000D01*
X179810000Y-135505000D01*
X179810000Y-135005000D01*
X179810602Y-135005000D01*
X179810602Y-134980466D01*
X179815412Y-134931635D01*
X179824984Y-134883510D01*
X179839228Y-134836555D01*
X179858005Y-134791222D01*
X179881136Y-134747949D01*
X179908396Y-134707150D01*
X179939524Y-134669221D01*
X179974221Y-134634524D01*
X180012150Y-134603396D01*
X180052949Y-134576136D01*
X180096222Y-134553005D01*
X180141555Y-134534228D01*
X180188510Y-134519984D01*
X180236635Y-134510412D01*
X180285466Y-134505602D01*
X180310000Y-134505602D01*
X180310000Y-134505000D01*
X180810000Y-134505000D01*
X180810000Y-136005000D01*
X180810000Y-136005000D01*
G37*
D17*
G04 #@! TO.P,JP2,2*
G04 #@! TO.N,+3V3*
X181610000Y-135255000D03*
D11*
G04 #@! TD*
G04 #@! TO.N,+3V3*
G04 #@! TO.C,JP2*
G36*
X181610000Y-134505602D02*
X181634534Y-134505602D01*
X181683365Y-134510412D01*
X181731490Y-134519984D01*
X181778445Y-134534228D01*
X181823778Y-134553005D01*
X181867051Y-134576136D01*
X181907850Y-134603396D01*
X181945779Y-134634524D01*
X181980476Y-134669221D01*
X182011604Y-134707150D01*
X182038864Y-134747949D01*
X182061995Y-134791222D01*
X182080772Y-134836555D01*
X182095016Y-134883510D01*
X182104588Y-134931635D01*
X182109398Y-134980466D01*
X182109398Y-135005000D01*
X182110000Y-135005000D01*
X182110000Y-135505000D01*
X182109398Y-135505000D01*
X182109398Y-135529534D01*
X182104588Y-135578365D01*
X182095016Y-135626490D01*
X182080772Y-135673445D01*
X182061995Y-135718778D01*
X182038864Y-135762051D01*
X182011604Y-135802850D01*
X181980476Y-135840779D01*
X181945779Y-135875476D01*
X181907850Y-135906604D01*
X181867051Y-135933864D01*
X181823778Y-135956995D01*
X181778445Y-135975772D01*
X181731490Y-135990016D01*
X181683365Y-135999588D01*
X181634534Y-136004398D01*
X181610000Y-136004398D01*
X181610000Y-136005000D01*
X181110000Y-136005000D01*
X181110000Y-134505000D01*
X181610000Y-134505000D01*
X181610000Y-134505602D01*
X181610000Y-134505602D01*
G37*
D13*
G04 #@! TO.P,Q1,1*
G04 #@! TO.N,BUZZER*
X166050000Y-130445000D03*
G04 #@! TO.P,Q1,2*
G04 #@! TO.N,GND*
X164150000Y-130445000D03*
G04 #@! TO.P,Q1,3*
G04 #@! TO.N,Net-(Q1-Pad3)*
X165100000Y-132445000D03*
G04 #@! TD*
G04 #@! TO.P,Q2,3*
G04 #@! TO.N,Net-(Q2-Pad3)*
X169545000Y-132445000D03*
G04 #@! TO.P,Q2,2*
G04 #@! TO.N,GND*
X168595000Y-130445000D03*
G04 #@! TO.P,Q2,1*
G04 #@! TO.N,FRONTLIGHT*
X170495000Y-130445000D03*
G04 #@! TD*
D11*
G04 #@! TO.N,RST*
G04 #@! TO.C,R3*
G36*
X172889779Y-115096144D02*
X172912834Y-115099563D01*
X172935443Y-115105227D01*
X172957387Y-115113079D01*
X172978457Y-115123044D01*
X172998448Y-115135026D01*
X173017168Y-115148910D01*
X173034438Y-115164562D01*
X173050090Y-115181832D01*
X173063974Y-115200552D01*
X173075956Y-115220543D01*
X173085921Y-115241613D01*
X173093773Y-115263557D01*
X173099437Y-115286166D01*
X173102856Y-115309221D01*
X173104000Y-115332500D01*
X173104000Y-115807500D01*
X173102856Y-115830779D01*
X173099437Y-115853834D01*
X173093773Y-115876443D01*
X173085921Y-115898387D01*
X173075956Y-115919457D01*
X173063974Y-115939448D01*
X173050090Y-115958168D01*
X173034438Y-115975438D01*
X173017168Y-115991090D01*
X172998448Y-116004974D01*
X172978457Y-116016956D01*
X172957387Y-116026921D01*
X172935443Y-116034773D01*
X172912834Y-116040437D01*
X172889779Y-116043856D01*
X172866500Y-116045000D01*
X172291500Y-116045000D01*
X172268221Y-116043856D01*
X172245166Y-116040437D01*
X172222557Y-116034773D01*
X172200613Y-116026921D01*
X172179543Y-116016956D01*
X172159552Y-116004974D01*
X172140832Y-115991090D01*
X172123562Y-115975438D01*
X172107910Y-115958168D01*
X172094026Y-115939448D01*
X172082044Y-115919457D01*
X172072079Y-115898387D01*
X172064227Y-115876443D01*
X172058563Y-115853834D01*
X172055144Y-115830779D01*
X172054000Y-115807500D01*
X172054000Y-115332500D01*
X172055144Y-115309221D01*
X172058563Y-115286166D01*
X172064227Y-115263557D01*
X172072079Y-115241613D01*
X172082044Y-115220543D01*
X172094026Y-115200552D01*
X172107910Y-115181832D01*
X172123562Y-115164562D01*
X172140832Y-115148910D01*
X172159552Y-115135026D01*
X172179543Y-115123044D01*
X172200613Y-115113079D01*
X172222557Y-115105227D01*
X172245166Y-115099563D01*
X172268221Y-115096144D01*
X172291500Y-115095000D01*
X172866500Y-115095000D01*
X172889779Y-115096144D01*
X172889779Y-115096144D01*
G37*
D18*
G04 #@! TD*
G04 #@! TO.P,R3,2*
G04 #@! TO.N,RST*
X172579000Y-115570000D03*
D11*
G04 #@! TO.N,+3V3*
G04 #@! TO.C,R3*
G36*
X171139779Y-115096144D02*
X171162834Y-115099563D01*
X171185443Y-115105227D01*
X171207387Y-115113079D01*
X171228457Y-115123044D01*
X171248448Y-115135026D01*
X171267168Y-115148910D01*
X171284438Y-115164562D01*
X171300090Y-115181832D01*
X171313974Y-115200552D01*
X171325956Y-115220543D01*
X171335921Y-115241613D01*
X171343773Y-115263557D01*
X171349437Y-115286166D01*
X171352856Y-115309221D01*
X171354000Y-115332500D01*
X171354000Y-115807500D01*
X171352856Y-115830779D01*
X171349437Y-115853834D01*
X171343773Y-115876443D01*
X171335921Y-115898387D01*
X171325956Y-115919457D01*
X171313974Y-115939448D01*
X171300090Y-115958168D01*
X171284438Y-115975438D01*
X171267168Y-115991090D01*
X171248448Y-116004974D01*
X171228457Y-116016956D01*
X171207387Y-116026921D01*
X171185443Y-116034773D01*
X171162834Y-116040437D01*
X171139779Y-116043856D01*
X171116500Y-116045000D01*
X170541500Y-116045000D01*
X170518221Y-116043856D01*
X170495166Y-116040437D01*
X170472557Y-116034773D01*
X170450613Y-116026921D01*
X170429543Y-116016956D01*
X170409552Y-116004974D01*
X170390832Y-115991090D01*
X170373562Y-115975438D01*
X170357910Y-115958168D01*
X170344026Y-115939448D01*
X170332044Y-115919457D01*
X170322079Y-115898387D01*
X170314227Y-115876443D01*
X170308563Y-115853834D01*
X170305144Y-115830779D01*
X170304000Y-115807500D01*
X170304000Y-115332500D01*
X170305144Y-115309221D01*
X170308563Y-115286166D01*
X170314227Y-115263557D01*
X170322079Y-115241613D01*
X170332044Y-115220543D01*
X170344026Y-115200552D01*
X170357910Y-115181832D01*
X170373562Y-115164562D01*
X170390832Y-115148910D01*
X170409552Y-115135026D01*
X170429543Y-115123044D01*
X170450613Y-115113079D01*
X170472557Y-115105227D01*
X170495166Y-115099563D01*
X170518221Y-115096144D01*
X170541500Y-115095000D01*
X171116500Y-115095000D01*
X171139779Y-115096144D01*
X171139779Y-115096144D01*
G37*
D18*
G04 #@! TD*
G04 #@! TO.P,R3,1*
G04 #@! TO.N,+3V3*
X170829000Y-115570000D03*
D11*
G04 #@! TO.N,+3V3*
G04 #@! TO.C,R4*
G36*
X166779779Y-115096144D02*
X166802834Y-115099563D01*
X166825443Y-115105227D01*
X166847387Y-115113079D01*
X166868457Y-115123044D01*
X166888448Y-115135026D01*
X166907168Y-115148910D01*
X166924438Y-115164562D01*
X166940090Y-115181832D01*
X166953974Y-115200552D01*
X166965956Y-115220543D01*
X166975921Y-115241613D01*
X166983773Y-115263557D01*
X166989437Y-115286166D01*
X166992856Y-115309221D01*
X166994000Y-115332500D01*
X166994000Y-115807500D01*
X166992856Y-115830779D01*
X166989437Y-115853834D01*
X166983773Y-115876443D01*
X166975921Y-115898387D01*
X166965956Y-115919457D01*
X166953974Y-115939448D01*
X166940090Y-115958168D01*
X166924438Y-115975438D01*
X166907168Y-115991090D01*
X166888448Y-116004974D01*
X166868457Y-116016956D01*
X166847387Y-116026921D01*
X166825443Y-116034773D01*
X166802834Y-116040437D01*
X166779779Y-116043856D01*
X166756500Y-116045000D01*
X166181500Y-116045000D01*
X166158221Y-116043856D01*
X166135166Y-116040437D01*
X166112557Y-116034773D01*
X166090613Y-116026921D01*
X166069543Y-116016956D01*
X166049552Y-116004974D01*
X166030832Y-115991090D01*
X166013562Y-115975438D01*
X165997910Y-115958168D01*
X165984026Y-115939448D01*
X165972044Y-115919457D01*
X165962079Y-115898387D01*
X165954227Y-115876443D01*
X165948563Y-115853834D01*
X165945144Y-115830779D01*
X165944000Y-115807500D01*
X165944000Y-115332500D01*
X165945144Y-115309221D01*
X165948563Y-115286166D01*
X165954227Y-115263557D01*
X165962079Y-115241613D01*
X165972044Y-115220543D01*
X165984026Y-115200552D01*
X165997910Y-115181832D01*
X166013562Y-115164562D01*
X166030832Y-115148910D01*
X166049552Y-115135026D01*
X166069543Y-115123044D01*
X166090613Y-115113079D01*
X166112557Y-115105227D01*
X166135166Y-115099563D01*
X166158221Y-115096144D01*
X166181500Y-115095000D01*
X166756500Y-115095000D01*
X166779779Y-115096144D01*
X166779779Y-115096144D01*
G37*
D18*
G04 #@! TD*
G04 #@! TO.P,R4,1*
G04 #@! TO.N,+3V3*
X166469000Y-115570000D03*
D11*
G04 #@! TO.N,BOOTLOAD*
G04 #@! TO.C,R4*
G36*
X165029779Y-115096144D02*
X165052834Y-115099563D01*
X165075443Y-115105227D01*
X165097387Y-115113079D01*
X165118457Y-115123044D01*
X165138448Y-115135026D01*
X165157168Y-115148910D01*
X165174438Y-115164562D01*
X165190090Y-115181832D01*
X165203974Y-115200552D01*
X165215956Y-115220543D01*
X165225921Y-115241613D01*
X165233773Y-115263557D01*
X165239437Y-115286166D01*
X165242856Y-115309221D01*
X165244000Y-115332500D01*
X165244000Y-115807500D01*
X165242856Y-115830779D01*
X165239437Y-115853834D01*
X165233773Y-115876443D01*
X165225921Y-115898387D01*
X165215956Y-115919457D01*
X165203974Y-115939448D01*
X165190090Y-115958168D01*
X165174438Y-115975438D01*
X165157168Y-115991090D01*
X165138448Y-116004974D01*
X165118457Y-116016956D01*
X165097387Y-116026921D01*
X165075443Y-116034773D01*
X165052834Y-116040437D01*
X165029779Y-116043856D01*
X165006500Y-116045000D01*
X164431500Y-116045000D01*
X164408221Y-116043856D01*
X164385166Y-116040437D01*
X164362557Y-116034773D01*
X164340613Y-116026921D01*
X164319543Y-116016956D01*
X164299552Y-116004974D01*
X164280832Y-115991090D01*
X164263562Y-115975438D01*
X164247910Y-115958168D01*
X164234026Y-115939448D01*
X164222044Y-115919457D01*
X164212079Y-115898387D01*
X164204227Y-115876443D01*
X164198563Y-115853834D01*
X164195144Y-115830779D01*
X164194000Y-115807500D01*
X164194000Y-115332500D01*
X164195144Y-115309221D01*
X164198563Y-115286166D01*
X164204227Y-115263557D01*
X164212079Y-115241613D01*
X164222044Y-115220543D01*
X164234026Y-115200552D01*
X164247910Y-115181832D01*
X164263562Y-115164562D01*
X164280832Y-115148910D01*
X164299552Y-115135026D01*
X164319543Y-115123044D01*
X164340613Y-115113079D01*
X164362557Y-115105227D01*
X164385166Y-115099563D01*
X164408221Y-115096144D01*
X164431500Y-115095000D01*
X165006500Y-115095000D01*
X165029779Y-115096144D01*
X165029779Y-115096144D01*
G37*
D18*
G04 #@! TD*
G04 #@! TO.P,R4,2*
G04 #@! TO.N,BOOTLOAD*
X164719000Y-115570000D03*
D11*
G04 #@! TO.N,+3V3*
G04 #@! TO.C,R5*
G36*
X184410779Y-123781144D02*
X184433834Y-123784563D01*
X184456443Y-123790227D01*
X184478387Y-123798079D01*
X184499457Y-123808044D01*
X184519448Y-123820026D01*
X184538168Y-123833910D01*
X184555438Y-123849562D01*
X184571090Y-123866832D01*
X184584974Y-123885552D01*
X184596956Y-123905543D01*
X184606921Y-123926613D01*
X184614773Y-123948557D01*
X184620437Y-123971166D01*
X184623856Y-123994221D01*
X184625000Y-124017500D01*
X184625000Y-124592500D01*
X184623856Y-124615779D01*
X184620437Y-124638834D01*
X184614773Y-124661443D01*
X184606921Y-124683387D01*
X184596956Y-124704457D01*
X184584974Y-124724448D01*
X184571090Y-124743168D01*
X184555438Y-124760438D01*
X184538168Y-124776090D01*
X184519448Y-124789974D01*
X184499457Y-124801956D01*
X184478387Y-124811921D01*
X184456443Y-124819773D01*
X184433834Y-124825437D01*
X184410779Y-124828856D01*
X184387500Y-124830000D01*
X183912500Y-124830000D01*
X183889221Y-124828856D01*
X183866166Y-124825437D01*
X183843557Y-124819773D01*
X183821613Y-124811921D01*
X183800543Y-124801956D01*
X183780552Y-124789974D01*
X183761832Y-124776090D01*
X183744562Y-124760438D01*
X183728910Y-124743168D01*
X183715026Y-124724448D01*
X183703044Y-124704457D01*
X183693079Y-124683387D01*
X183685227Y-124661443D01*
X183679563Y-124638834D01*
X183676144Y-124615779D01*
X183675000Y-124592500D01*
X183675000Y-124017500D01*
X183676144Y-123994221D01*
X183679563Y-123971166D01*
X183685227Y-123948557D01*
X183693079Y-123926613D01*
X183703044Y-123905543D01*
X183715026Y-123885552D01*
X183728910Y-123866832D01*
X183744562Y-123849562D01*
X183761832Y-123833910D01*
X183780552Y-123820026D01*
X183800543Y-123808044D01*
X183821613Y-123798079D01*
X183843557Y-123790227D01*
X183866166Y-123784563D01*
X183889221Y-123781144D01*
X183912500Y-123780000D01*
X184387500Y-123780000D01*
X184410779Y-123781144D01*
X184410779Y-123781144D01*
G37*
D18*
G04 #@! TD*
G04 #@! TO.P,R5,1*
G04 #@! TO.N,+3V3*
X184150000Y-124305000D03*
D11*
G04 #@! TO.N,SDA*
G04 #@! TO.C,R5*
G36*
X184410779Y-122031144D02*
X184433834Y-122034563D01*
X184456443Y-122040227D01*
X184478387Y-122048079D01*
X184499457Y-122058044D01*
X184519448Y-122070026D01*
X184538168Y-122083910D01*
X184555438Y-122099562D01*
X184571090Y-122116832D01*
X184584974Y-122135552D01*
X184596956Y-122155543D01*
X184606921Y-122176613D01*
X184614773Y-122198557D01*
X184620437Y-122221166D01*
X184623856Y-122244221D01*
X184625000Y-122267500D01*
X184625000Y-122842500D01*
X184623856Y-122865779D01*
X184620437Y-122888834D01*
X184614773Y-122911443D01*
X184606921Y-122933387D01*
X184596956Y-122954457D01*
X184584974Y-122974448D01*
X184571090Y-122993168D01*
X184555438Y-123010438D01*
X184538168Y-123026090D01*
X184519448Y-123039974D01*
X184499457Y-123051956D01*
X184478387Y-123061921D01*
X184456443Y-123069773D01*
X184433834Y-123075437D01*
X184410779Y-123078856D01*
X184387500Y-123080000D01*
X183912500Y-123080000D01*
X183889221Y-123078856D01*
X183866166Y-123075437D01*
X183843557Y-123069773D01*
X183821613Y-123061921D01*
X183800543Y-123051956D01*
X183780552Y-123039974D01*
X183761832Y-123026090D01*
X183744562Y-123010438D01*
X183728910Y-122993168D01*
X183715026Y-122974448D01*
X183703044Y-122954457D01*
X183693079Y-122933387D01*
X183685227Y-122911443D01*
X183679563Y-122888834D01*
X183676144Y-122865779D01*
X183675000Y-122842500D01*
X183675000Y-122267500D01*
X183676144Y-122244221D01*
X183679563Y-122221166D01*
X183685227Y-122198557D01*
X183693079Y-122176613D01*
X183703044Y-122155543D01*
X183715026Y-122135552D01*
X183728910Y-122116832D01*
X183744562Y-122099562D01*
X183761832Y-122083910D01*
X183780552Y-122070026D01*
X183800543Y-122058044D01*
X183821613Y-122048079D01*
X183843557Y-122040227D01*
X183866166Y-122034563D01*
X183889221Y-122031144D01*
X183912500Y-122030000D01*
X184387500Y-122030000D01*
X184410779Y-122031144D01*
X184410779Y-122031144D01*
G37*
D18*
G04 #@! TD*
G04 #@! TO.P,R5,2*
G04 #@! TO.N,SDA*
X184150000Y-122555000D03*
D11*
G04 #@! TO.N,SCL*
G04 #@! TO.C,R6*
G36*
X182505779Y-122031144D02*
X182528834Y-122034563D01*
X182551443Y-122040227D01*
X182573387Y-122048079D01*
X182594457Y-122058044D01*
X182614448Y-122070026D01*
X182633168Y-122083910D01*
X182650438Y-122099562D01*
X182666090Y-122116832D01*
X182679974Y-122135552D01*
X182691956Y-122155543D01*
X182701921Y-122176613D01*
X182709773Y-122198557D01*
X182715437Y-122221166D01*
X182718856Y-122244221D01*
X182720000Y-122267500D01*
X182720000Y-122842500D01*
X182718856Y-122865779D01*
X182715437Y-122888834D01*
X182709773Y-122911443D01*
X182701921Y-122933387D01*
X182691956Y-122954457D01*
X182679974Y-122974448D01*
X182666090Y-122993168D01*
X182650438Y-123010438D01*
X182633168Y-123026090D01*
X182614448Y-123039974D01*
X182594457Y-123051956D01*
X182573387Y-123061921D01*
X182551443Y-123069773D01*
X182528834Y-123075437D01*
X182505779Y-123078856D01*
X182482500Y-123080000D01*
X182007500Y-123080000D01*
X181984221Y-123078856D01*
X181961166Y-123075437D01*
X181938557Y-123069773D01*
X181916613Y-123061921D01*
X181895543Y-123051956D01*
X181875552Y-123039974D01*
X181856832Y-123026090D01*
X181839562Y-123010438D01*
X181823910Y-122993168D01*
X181810026Y-122974448D01*
X181798044Y-122954457D01*
X181788079Y-122933387D01*
X181780227Y-122911443D01*
X181774563Y-122888834D01*
X181771144Y-122865779D01*
X181770000Y-122842500D01*
X181770000Y-122267500D01*
X181771144Y-122244221D01*
X181774563Y-122221166D01*
X181780227Y-122198557D01*
X181788079Y-122176613D01*
X181798044Y-122155543D01*
X181810026Y-122135552D01*
X181823910Y-122116832D01*
X181839562Y-122099562D01*
X181856832Y-122083910D01*
X181875552Y-122070026D01*
X181895543Y-122058044D01*
X181916613Y-122048079D01*
X181938557Y-122040227D01*
X181961166Y-122034563D01*
X181984221Y-122031144D01*
X182007500Y-122030000D01*
X182482500Y-122030000D01*
X182505779Y-122031144D01*
X182505779Y-122031144D01*
G37*
D18*
G04 #@! TD*
G04 #@! TO.P,R6,2*
G04 #@! TO.N,SCL*
X182245000Y-122555000D03*
D11*
G04 #@! TO.N,+3V3*
G04 #@! TO.C,R6*
G36*
X182505779Y-123781144D02*
X182528834Y-123784563D01*
X182551443Y-123790227D01*
X182573387Y-123798079D01*
X182594457Y-123808044D01*
X182614448Y-123820026D01*
X182633168Y-123833910D01*
X182650438Y-123849562D01*
X182666090Y-123866832D01*
X182679974Y-123885552D01*
X182691956Y-123905543D01*
X182701921Y-123926613D01*
X182709773Y-123948557D01*
X182715437Y-123971166D01*
X182718856Y-123994221D01*
X182720000Y-124017500D01*
X182720000Y-124592500D01*
X182718856Y-124615779D01*
X182715437Y-124638834D01*
X182709773Y-124661443D01*
X182701921Y-124683387D01*
X182691956Y-124704457D01*
X182679974Y-124724448D01*
X182666090Y-124743168D01*
X182650438Y-124760438D01*
X182633168Y-124776090D01*
X182614448Y-124789974D01*
X182594457Y-124801956D01*
X182573387Y-124811921D01*
X182551443Y-124819773D01*
X182528834Y-124825437D01*
X182505779Y-124828856D01*
X182482500Y-124830000D01*
X182007500Y-124830000D01*
X181984221Y-124828856D01*
X181961166Y-124825437D01*
X181938557Y-124819773D01*
X181916613Y-124811921D01*
X181895543Y-124801956D01*
X181875552Y-124789974D01*
X181856832Y-124776090D01*
X181839562Y-124760438D01*
X181823910Y-124743168D01*
X181810026Y-124724448D01*
X181798044Y-124704457D01*
X181788079Y-124683387D01*
X181780227Y-124661443D01*
X181774563Y-124638834D01*
X181771144Y-124615779D01*
X181770000Y-124592500D01*
X181770000Y-124017500D01*
X181771144Y-123994221D01*
X181774563Y-123971166D01*
X181780227Y-123948557D01*
X181788079Y-123926613D01*
X181798044Y-123905543D01*
X181810026Y-123885552D01*
X181823910Y-123866832D01*
X181839562Y-123849562D01*
X181856832Y-123833910D01*
X181875552Y-123820026D01*
X181895543Y-123808044D01*
X181916613Y-123798079D01*
X181938557Y-123790227D01*
X181961166Y-123784563D01*
X181984221Y-123781144D01*
X182007500Y-123780000D01*
X182482500Y-123780000D01*
X182505779Y-123781144D01*
X182505779Y-123781144D01*
G37*
D18*
G04 #@! TD*
G04 #@! TO.P,R6,1*
G04 #@! TO.N,+3V3*
X182245000Y-124305000D03*
D11*
G04 #@! TO.N,BUZZER*
G04 #@! TO.C,R7*
G36*
X166285779Y-128431144D02*
X166308834Y-128434563D01*
X166331443Y-128440227D01*
X166353387Y-128448079D01*
X166374457Y-128458044D01*
X166394448Y-128470026D01*
X166413168Y-128483910D01*
X166430438Y-128499562D01*
X166446090Y-128516832D01*
X166459974Y-128535552D01*
X166471956Y-128555543D01*
X166481921Y-128576613D01*
X166489773Y-128598557D01*
X166495437Y-128621166D01*
X166498856Y-128644221D01*
X166500000Y-128667500D01*
X166500000Y-129142500D01*
X166498856Y-129165779D01*
X166495437Y-129188834D01*
X166489773Y-129211443D01*
X166481921Y-129233387D01*
X166471956Y-129254457D01*
X166459974Y-129274448D01*
X166446090Y-129293168D01*
X166430438Y-129310438D01*
X166413168Y-129326090D01*
X166394448Y-129339974D01*
X166374457Y-129351956D01*
X166353387Y-129361921D01*
X166331443Y-129369773D01*
X166308834Y-129375437D01*
X166285779Y-129378856D01*
X166262500Y-129380000D01*
X165687500Y-129380000D01*
X165664221Y-129378856D01*
X165641166Y-129375437D01*
X165618557Y-129369773D01*
X165596613Y-129361921D01*
X165575543Y-129351956D01*
X165555552Y-129339974D01*
X165536832Y-129326090D01*
X165519562Y-129310438D01*
X165503910Y-129293168D01*
X165490026Y-129274448D01*
X165478044Y-129254457D01*
X165468079Y-129233387D01*
X165460227Y-129211443D01*
X165454563Y-129188834D01*
X165451144Y-129165779D01*
X165450000Y-129142500D01*
X165450000Y-128667500D01*
X165451144Y-128644221D01*
X165454563Y-128621166D01*
X165460227Y-128598557D01*
X165468079Y-128576613D01*
X165478044Y-128555543D01*
X165490026Y-128535552D01*
X165503910Y-128516832D01*
X165519562Y-128499562D01*
X165536832Y-128483910D01*
X165555552Y-128470026D01*
X165575543Y-128458044D01*
X165596613Y-128448079D01*
X165618557Y-128440227D01*
X165641166Y-128434563D01*
X165664221Y-128431144D01*
X165687500Y-128430000D01*
X166262500Y-128430000D01*
X166285779Y-128431144D01*
X166285779Y-128431144D01*
G37*
D18*
G04 #@! TD*
G04 #@! TO.P,R7,2*
G04 #@! TO.N,BUZZER*
X165975000Y-128905000D03*
D11*
G04 #@! TO.N,GND*
G04 #@! TO.C,R7*
G36*
X164535779Y-128431144D02*
X164558834Y-128434563D01*
X164581443Y-128440227D01*
X164603387Y-128448079D01*
X164624457Y-128458044D01*
X164644448Y-128470026D01*
X164663168Y-128483910D01*
X164680438Y-128499562D01*
X164696090Y-128516832D01*
X164709974Y-128535552D01*
X164721956Y-128555543D01*
X164731921Y-128576613D01*
X164739773Y-128598557D01*
X164745437Y-128621166D01*
X164748856Y-128644221D01*
X164750000Y-128667500D01*
X164750000Y-129142500D01*
X164748856Y-129165779D01*
X164745437Y-129188834D01*
X164739773Y-129211443D01*
X164731921Y-129233387D01*
X164721956Y-129254457D01*
X164709974Y-129274448D01*
X164696090Y-129293168D01*
X164680438Y-129310438D01*
X164663168Y-129326090D01*
X164644448Y-129339974D01*
X164624457Y-129351956D01*
X164603387Y-129361921D01*
X164581443Y-129369773D01*
X164558834Y-129375437D01*
X164535779Y-129378856D01*
X164512500Y-129380000D01*
X163937500Y-129380000D01*
X163914221Y-129378856D01*
X163891166Y-129375437D01*
X163868557Y-129369773D01*
X163846613Y-129361921D01*
X163825543Y-129351956D01*
X163805552Y-129339974D01*
X163786832Y-129326090D01*
X163769562Y-129310438D01*
X163753910Y-129293168D01*
X163740026Y-129274448D01*
X163728044Y-129254457D01*
X163718079Y-129233387D01*
X163710227Y-129211443D01*
X163704563Y-129188834D01*
X163701144Y-129165779D01*
X163700000Y-129142500D01*
X163700000Y-128667500D01*
X163701144Y-128644221D01*
X163704563Y-128621166D01*
X163710227Y-128598557D01*
X163718079Y-128576613D01*
X163728044Y-128555543D01*
X163740026Y-128535552D01*
X163753910Y-128516832D01*
X163769562Y-128499562D01*
X163786832Y-128483910D01*
X163805552Y-128470026D01*
X163825543Y-128458044D01*
X163846613Y-128448079D01*
X163868557Y-128440227D01*
X163891166Y-128434563D01*
X163914221Y-128431144D01*
X163937500Y-128430000D01*
X164512500Y-128430000D01*
X164535779Y-128431144D01*
X164535779Y-128431144D01*
G37*
D18*
G04 #@! TD*
G04 #@! TO.P,R7,1*
G04 #@! TO.N,GND*
X164225000Y-128905000D03*
D11*
G04 #@! TO.N,Net-(J3-Pad2)*
G04 #@! TO.C,R8*
G36*
X164535779Y-133511144D02*
X164558834Y-133514563D01*
X164581443Y-133520227D01*
X164603387Y-133528079D01*
X164624457Y-133538044D01*
X164644448Y-133550026D01*
X164663168Y-133563910D01*
X164680438Y-133579562D01*
X164696090Y-133596832D01*
X164709974Y-133615552D01*
X164721956Y-133635543D01*
X164731921Y-133656613D01*
X164739773Y-133678557D01*
X164745437Y-133701166D01*
X164748856Y-133724221D01*
X164750000Y-133747500D01*
X164750000Y-134222500D01*
X164748856Y-134245779D01*
X164745437Y-134268834D01*
X164739773Y-134291443D01*
X164731921Y-134313387D01*
X164721956Y-134334457D01*
X164709974Y-134354448D01*
X164696090Y-134373168D01*
X164680438Y-134390438D01*
X164663168Y-134406090D01*
X164644448Y-134419974D01*
X164624457Y-134431956D01*
X164603387Y-134441921D01*
X164581443Y-134449773D01*
X164558834Y-134455437D01*
X164535779Y-134458856D01*
X164512500Y-134460000D01*
X163937500Y-134460000D01*
X163914221Y-134458856D01*
X163891166Y-134455437D01*
X163868557Y-134449773D01*
X163846613Y-134441921D01*
X163825543Y-134431956D01*
X163805552Y-134419974D01*
X163786832Y-134406090D01*
X163769562Y-134390438D01*
X163753910Y-134373168D01*
X163740026Y-134354448D01*
X163728044Y-134334457D01*
X163718079Y-134313387D01*
X163710227Y-134291443D01*
X163704563Y-134268834D01*
X163701144Y-134245779D01*
X163700000Y-134222500D01*
X163700000Y-133747500D01*
X163701144Y-133724221D01*
X163704563Y-133701166D01*
X163710227Y-133678557D01*
X163718079Y-133656613D01*
X163728044Y-133635543D01*
X163740026Y-133615552D01*
X163753910Y-133596832D01*
X163769562Y-133579562D01*
X163786832Y-133563910D01*
X163805552Y-133550026D01*
X163825543Y-133538044D01*
X163846613Y-133528079D01*
X163868557Y-133520227D01*
X163891166Y-133514563D01*
X163914221Y-133511144D01*
X163937500Y-133510000D01*
X164512500Y-133510000D01*
X164535779Y-133511144D01*
X164535779Y-133511144D01*
G37*
D18*
G04 #@! TD*
G04 #@! TO.P,R8,1*
G04 #@! TO.N,Net-(J3-Pad2)*
X164225000Y-133985000D03*
D11*
G04 #@! TO.N,Net-(Q1-Pad3)*
G04 #@! TO.C,R8*
G36*
X166285779Y-133511144D02*
X166308834Y-133514563D01*
X166331443Y-133520227D01*
X166353387Y-133528079D01*
X166374457Y-133538044D01*
X166394448Y-133550026D01*
X166413168Y-133563910D01*
X166430438Y-133579562D01*
X166446090Y-133596832D01*
X166459974Y-133615552D01*
X166471956Y-133635543D01*
X166481921Y-133656613D01*
X166489773Y-133678557D01*
X166495437Y-133701166D01*
X166498856Y-133724221D01*
X166500000Y-133747500D01*
X166500000Y-134222500D01*
X166498856Y-134245779D01*
X166495437Y-134268834D01*
X166489773Y-134291443D01*
X166481921Y-134313387D01*
X166471956Y-134334457D01*
X166459974Y-134354448D01*
X166446090Y-134373168D01*
X166430438Y-134390438D01*
X166413168Y-134406090D01*
X166394448Y-134419974D01*
X166374457Y-134431956D01*
X166353387Y-134441921D01*
X166331443Y-134449773D01*
X166308834Y-134455437D01*
X166285779Y-134458856D01*
X166262500Y-134460000D01*
X165687500Y-134460000D01*
X165664221Y-134458856D01*
X165641166Y-134455437D01*
X165618557Y-134449773D01*
X165596613Y-134441921D01*
X165575543Y-134431956D01*
X165555552Y-134419974D01*
X165536832Y-134406090D01*
X165519562Y-134390438D01*
X165503910Y-134373168D01*
X165490026Y-134354448D01*
X165478044Y-134334457D01*
X165468079Y-134313387D01*
X165460227Y-134291443D01*
X165454563Y-134268834D01*
X165451144Y-134245779D01*
X165450000Y-134222500D01*
X165450000Y-133747500D01*
X165451144Y-133724221D01*
X165454563Y-133701166D01*
X165460227Y-133678557D01*
X165468079Y-133656613D01*
X165478044Y-133635543D01*
X165490026Y-133615552D01*
X165503910Y-133596832D01*
X165519562Y-133579562D01*
X165536832Y-133563910D01*
X165555552Y-133550026D01*
X165575543Y-133538044D01*
X165596613Y-133528079D01*
X165618557Y-133520227D01*
X165641166Y-133514563D01*
X165664221Y-133511144D01*
X165687500Y-133510000D01*
X166262500Y-133510000D01*
X166285779Y-133511144D01*
X166285779Y-133511144D01*
G37*
D18*
G04 #@! TD*
G04 #@! TO.P,R8,2*
G04 #@! TO.N,Net-(Q1-Pad3)*
X165975000Y-133985000D03*
D11*
G04 #@! TO.N,FRONTLIGHT*
G04 #@! TO.C,R9*
G36*
X170730779Y-128431144D02*
X170753834Y-128434563D01*
X170776443Y-128440227D01*
X170798387Y-128448079D01*
X170819457Y-128458044D01*
X170839448Y-128470026D01*
X170858168Y-128483910D01*
X170875438Y-128499562D01*
X170891090Y-128516832D01*
X170904974Y-128535552D01*
X170916956Y-128555543D01*
X170926921Y-128576613D01*
X170934773Y-128598557D01*
X170940437Y-128621166D01*
X170943856Y-128644221D01*
X170945000Y-128667500D01*
X170945000Y-129142500D01*
X170943856Y-129165779D01*
X170940437Y-129188834D01*
X170934773Y-129211443D01*
X170926921Y-129233387D01*
X170916956Y-129254457D01*
X170904974Y-129274448D01*
X170891090Y-129293168D01*
X170875438Y-129310438D01*
X170858168Y-129326090D01*
X170839448Y-129339974D01*
X170819457Y-129351956D01*
X170798387Y-129361921D01*
X170776443Y-129369773D01*
X170753834Y-129375437D01*
X170730779Y-129378856D01*
X170707500Y-129380000D01*
X170132500Y-129380000D01*
X170109221Y-129378856D01*
X170086166Y-129375437D01*
X170063557Y-129369773D01*
X170041613Y-129361921D01*
X170020543Y-129351956D01*
X170000552Y-129339974D01*
X169981832Y-129326090D01*
X169964562Y-129310438D01*
X169948910Y-129293168D01*
X169935026Y-129274448D01*
X169923044Y-129254457D01*
X169913079Y-129233387D01*
X169905227Y-129211443D01*
X169899563Y-129188834D01*
X169896144Y-129165779D01*
X169895000Y-129142500D01*
X169895000Y-128667500D01*
X169896144Y-128644221D01*
X169899563Y-128621166D01*
X169905227Y-128598557D01*
X169913079Y-128576613D01*
X169923044Y-128555543D01*
X169935026Y-128535552D01*
X169948910Y-128516832D01*
X169964562Y-128499562D01*
X169981832Y-128483910D01*
X170000552Y-128470026D01*
X170020543Y-128458044D01*
X170041613Y-128448079D01*
X170063557Y-128440227D01*
X170086166Y-128434563D01*
X170109221Y-128431144D01*
X170132500Y-128430000D01*
X170707500Y-128430000D01*
X170730779Y-128431144D01*
X170730779Y-128431144D01*
G37*
D18*
G04 #@! TD*
G04 #@! TO.P,R9,2*
G04 #@! TO.N,FRONTLIGHT*
X170420000Y-128905000D03*
D11*
G04 #@! TO.N,GND*
G04 #@! TO.C,R9*
G36*
X168980779Y-128431144D02*
X169003834Y-128434563D01*
X169026443Y-128440227D01*
X169048387Y-128448079D01*
X169069457Y-128458044D01*
X169089448Y-128470026D01*
X169108168Y-128483910D01*
X169125438Y-128499562D01*
X169141090Y-128516832D01*
X169154974Y-128535552D01*
X169166956Y-128555543D01*
X169176921Y-128576613D01*
X169184773Y-128598557D01*
X169190437Y-128621166D01*
X169193856Y-128644221D01*
X169195000Y-128667500D01*
X169195000Y-129142500D01*
X169193856Y-129165779D01*
X169190437Y-129188834D01*
X169184773Y-129211443D01*
X169176921Y-129233387D01*
X169166956Y-129254457D01*
X169154974Y-129274448D01*
X169141090Y-129293168D01*
X169125438Y-129310438D01*
X169108168Y-129326090D01*
X169089448Y-129339974D01*
X169069457Y-129351956D01*
X169048387Y-129361921D01*
X169026443Y-129369773D01*
X169003834Y-129375437D01*
X168980779Y-129378856D01*
X168957500Y-129380000D01*
X168382500Y-129380000D01*
X168359221Y-129378856D01*
X168336166Y-129375437D01*
X168313557Y-129369773D01*
X168291613Y-129361921D01*
X168270543Y-129351956D01*
X168250552Y-129339974D01*
X168231832Y-129326090D01*
X168214562Y-129310438D01*
X168198910Y-129293168D01*
X168185026Y-129274448D01*
X168173044Y-129254457D01*
X168163079Y-129233387D01*
X168155227Y-129211443D01*
X168149563Y-129188834D01*
X168146144Y-129165779D01*
X168145000Y-129142500D01*
X168145000Y-128667500D01*
X168146144Y-128644221D01*
X168149563Y-128621166D01*
X168155227Y-128598557D01*
X168163079Y-128576613D01*
X168173044Y-128555543D01*
X168185026Y-128535552D01*
X168198910Y-128516832D01*
X168214562Y-128499562D01*
X168231832Y-128483910D01*
X168250552Y-128470026D01*
X168270543Y-128458044D01*
X168291613Y-128448079D01*
X168313557Y-128440227D01*
X168336166Y-128434563D01*
X168359221Y-128431144D01*
X168382500Y-128430000D01*
X168957500Y-128430000D01*
X168980779Y-128431144D01*
X168980779Y-128431144D01*
G37*
D18*
G04 #@! TD*
G04 #@! TO.P,R9,1*
G04 #@! TO.N,GND*
X168670000Y-128905000D03*
D11*
G04 #@! TO.N,Net-(J5-Pad3)*
G04 #@! TO.C,R10*
G36*
X170730779Y-133511144D02*
X170753834Y-133514563D01*
X170776443Y-133520227D01*
X170798387Y-133528079D01*
X170819457Y-133538044D01*
X170839448Y-133550026D01*
X170858168Y-133563910D01*
X170875438Y-133579562D01*
X170891090Y-133596832D01*
X170904974Y-133615552D01*
X170916956Y-133635543D01*
X170926921Y-133656613D01*
X170934773Y-133678557D01*
X170940437Y-133701166D01*
X170943856Y-133724221D01*
X170945000Y-133747500D01*
X170945000Y-134222500D01*
X170943856Y-134245779D01*
X170940437Y-134268834D01*
X170934773Y-134291443D01*
X170926921Y-134313387D01*
X170916956Y-134334457D01*
X170904974Y-134354448D01*
X170891090Y-134373168D01*
X170875438Y-134390438D01*
X170858168Y-134406090D01*
X170839448Y-134419974D01*
X170819457Y-134431956D01*
X170798387Y-134441921D01*
X170776443Y-134449773D01*
X170753834Y-134455437D01*
X170730779Y-134458856D01*
X170707500Y-134460000D01*
X170132500Y-134460000D01*
X170109221Y-134458856D01*
X170086166Y-134455437D01*
X170063557Y-134449773D01*
X170041613Y-134441921D01*
X170020543Y-134431956D01*
X170000552Y-134419974D01*
X169981832Y-134406090D01*
X169964562Y-134390438D01*
X169948910Y-134373168D01*
X169935026Y-134354448D01*
X169923044Y-134334457D01*
X169913079Y-134313387D01*
X169905227Y-134291443D01*
X169899563Y-134268834D01*
X169896144Y-134245779D01*
X169895000Y-134222500D01*
X169895000Y-133747500D01*
X169896144Y-133724221D01*
X169899563Y-133701166D01*
X169905227Y-133678557D01*
X169913079Y-133656613D01*
X169923044Y-133635543D01*
X169935026Y-133615552D01*
X169948910Y-133596832D01*
X169964562Y-133579562D01*
X169981832Y-133563910D01*
X170000552Y-133550026D01*
X170020543Y-133538044D01*
X170041613Y-133528079D01*
X170063557Y-133520227D01*
X170086166Y-133514563D01*
X170109221Y-133511144D01*
X170132500Y-133510000D01*
X170707500Y-133510000D01*
X170730779Y-133511144D01*
X170730779Y-133511144D01*
G37*
D18*
G04 #@! TD*
G04 #@! TO.P,R10,1*
G04 #@! TO.N,Net-(J5-Pad3)*
X170420000Y-133985000D03*
D11*
G04 #@! TO.N,Net-(Q2-Pad3)*
G04 #@! TO.C,R10*
G36*
X168980779Y-133511144D02*
X169003834Y-133514563D01*
X169026443Y-133520227D01*
X169048387Y-133528079D01*
X169069457Y-133538044D01*
X169089448Y-133550026D01*
X169108168Y-133563910D01*
X169125438Y-133579562D01*
X169141090Y-133596832D01*
X169154974Y-133615552D01*
X169166956Y-133635543D01*
X169176921Y-133656613D01*
X169184773Y-133678557D01*
X169190437Y-133701166D01*
X169193856Y-133724221D01*
X169195000Y-133747500D01*
X169195000Y-134222500D01*
X169193856Y-134245779D01*
X169190437Y-134268834D01*
X169184773Y-134291443D01*
X169176921Y-134313387D01*
X169166956Y-134334457D01*
X169154974Y-134354448D01*
X169141090Y-134373168D01*
X169125438Y-134390438D01*
X169108168Y-134406090D01*
X169089448Y-134419974D01*
X169069457Y-134431956D01*
X169048387Y-134441921D01*
X169026443Y-134449773D01*
X169003834Y-134455437D01*
X168980779Y-134458856D01*
X168957500Y-134460000D01*
X168382500Y-134460000D01*
X168359221Y-134458856D01*
X168336166Y-134455437D01*
X168313557Y-134449773D01*
X168291613Y-134441921D01*
X168270543Y-134431956D01*
X168250552Y-134419974D01*
X168231832Y-134406090D01*
X168214562Y-134390438D01*
X168198910Y-134373168D01*
X168185026Y-134354448D01*
X168173044Y-134334457D01*
X168163079Y-134313387D01*
X168155227Y-134291443D01*
X168149563Y-134268834D01*
X168146144Y-134245779D01*
X168145000Y-134222500D01*
X168145000Y-133747500D01*
X168146144Y-133724221D01*
X168149563Y-133701166D01*
X168155227Y-133678557D01*
X168163079Y-133656613D01*
X168173044Y-133635543D01*
X168185026Y-133615552D01*
X168198910Y-133596832D01*
X168214562Y-133579562D01*
X168231832Y-133563910D01*
X168250552Y-133550026D01*
X168270543Y-133538044D01*
X168291613Y-133528079D01*
X168313557Y-133520227D01*
X168336166Y-133514563D01*
X168359221Y-133511144D01*
X168382500Y-133510000D01*
X168957500Y-133510000D01*
X168980779Y-133511144D01*
X168980779Y-133511144D01*
G37*
D18*
G04 #@! TD*
G04 #@! TO.P,R10,2*
G04 #@! TO.N,Net-(Q2-Pad3)*
X168670000Y-133985000D03*
D19*
G04 #@! TO.P,SW_BOOT1,1*
G04 #@! TO.N,BOOTLOAD*
X165354000Y-117120000D03*
G04 #@! TO.P,SW_BOOT1,2*
G04 #@! TO.N,GND*
X165354000Y-120370000D03*
G04 #@! TD*
G04 #@! TO.P,SW_RESET1,2*
G04 #@! TO.N,GND*
X171704000Y-117120000D03*
G04 #@! TO.P,SW_RESET1,1*
G04 #@! TO.N,RST*
X171704000Y-120370000D03*
G04 #@! TD*
D20*
G04 #@! TO.P,TP1,1*
G04 #@! TO.N,+3V3*
X172720000Y-135890000D03*
G04 #@! TD*
G04 #@! TO.P,TP2,1*
G04 #@! TO.N,GND*
X175895000Y-135890000D03*
G04 #@! TD*
G04 #@! TO.P,TP3,1*
G04 #@! TO.N,SWDCLK*
X164973000Y-124460000D03*
G04 #@! TD*
G04 #@! TO.P,TP4,1*
G04 #@! TO.N,SWDIO*
X166878000Y-124460000D03*
G04 #@! TD*
G04 #@! TO.P,TP5,1*
G04 #@! TO.N,FLASH_DI*
X174625000Y-128905000D03*
G04 #@! TD*
G04 #@! TO.P,TP6,1*
G04 #@! TO.N,FLASH_CLK*
X176530000Y-128270000D03*
G04 #@! TD*
G04 #@! TO.P,TP7,1*
G04 #@! TO.N,FLASH_CS*
X169545000Y-127000000D03*
G04 #@! TD*
G04 #@! TO.P,TP8,1*
G04 #@! TO.N,FLASH_DO*
X172720000Y-128905000D03*
G04 #@! TD*
G04 #@! TO.P,TP9,1*
G04 #@! TO.N,SCL*
X180340000Y-122555000D03*
G04 #@! TD*
G04 #@! TO.P,TP10,1*
G04 #@! TO.N,SDA*
X184785000Y-121285000D03*
G04 #@! TD*
G04 #@! TO.P,TP11,1*
G04 #@! TO.N,SQW*
X186690000Y-123190000D03*
G04 #@! TD*
G04 #@! TO.P,TP12,1*
G04 #@! TO.N,RTC_IRQ*
X186690000Y-121285000D03*
G04 #@! TD*
D21*
G04 #@! TO.P,U1,1*
G04 #@! TO.N,FLASH_CS*
X171520000Y-125615000D03*
G04 #@! TO.P,U1,2*
G04 #@! TO.N,FLASH_DO*
X171520000Y-126115000D03*
G04 #@! TO.P,U1,3*
G04 #@! TO.N,+3V3*
X171520000Y-126615000D03*
G04 #@! TO.P,U1,4*
G04 #@! TO.N,GND*
X171520000Y-127115000D03*
G04 #@! TO.P,U1,5*
G04 #@! TO.N,FLASH_DI*
X173920000Y-127115000D03*
G04 #@! TO.P,U1,6*
G04 #@! TO.N,FLASH_CLK*
X173920000Y-126615000D03*
G04 #@! TO.P,U1,7*
G04 #@! TO.N,+3V3*
X173920000Y-126115000D03*
G04 #@! TO.P,U1,8*
X173920000Y-125615000D03*
D22*
G04 #@! TO.P,U1,FLAG*
G04 #@! TO.N,N/C*
X172720000Y-126365000D03*
G04 #@! TD*
D23*
G04 #@! TO.P,J5,1*
G04 #@! TO.N,+3V3*
X186424000Y-134878200D03*
G04 #@! TO.P,J5,2*
X185924000Y-134878200D03*
G04 #@! TO.P,J5,3*
G04 #@! TO.N,Net-(J5-Pad3)*
X185424000Y-134878200D03*
G04 #@! TO.P,J5,4*
X184924000Y-134878200D03*
D24*
G04 #@! TO.P,J5,S1*
G04 #@! TO.N,N/C*
X187214000Y-132228200D03*
G04 #@! TO.P,J5,S2*
X184134000Y-132228200D03*
G04 #@! TD*
D25*
G04 #@! TO.N,GND*
X175895000Y-135890000D03*
X176812620Y-113891158D03*
X174244000Y-113284000D03*
X164652000Y-122633000D03*
X165354000Y-120370000D03*
X187305440Y-117450528D03*
X184531000Y-118237000D03*
X183134000Y-119507000D03*
X182029443Y-120569725D03*
X171704000Y-117120000D03*
X173863000Y-120904000D03*
X178136358Y-121596368D03*
X175976540Y-123084980D03*
X168046400Y-128066800D03*
X164541200Y-128270000D03*
X168670000Y-128905000D03*
X171101293Y-127229887D03*
X181102000Y-124358400D03*
X181254400Y-123088400D03*
G04 #@! TO.N,+3V3*
X187310000Y-115697000D03*
X176403000Y-119380000D03*
X184785000Y-116078000D03*
X182384765Y-121450786D03*
X170152011Y-119106976D03*
X173782691Y-118952597D03*
X171975705Y-127809609D03*
X172415200Y-125018800D03*
X182245000Y-123643230D03*
X172720000Y-135890000D03*
D26*
G04 #@! TO.N,SCL*
X180340000Y-122555000D03*
X173101027Y-133134039D03*
X180392698Y-129355932D03*
X179734552Y-121854034D03*
X178084489Y-120146345D03*
G04 #@! TO.N,RTC_IRQ*
X186690000Y-121285000D03*
X182499000Y-117094000D03*
X185240139Y-118863393D03*
X173730928Y-117212651D03*
G04 #@! TO.N,SDA*
X173355000Y-134112000D03*
X184785000Y-121285000D03*
X181119760Y-129414876D03*
X184234012Y-119702184D03*
X174096225Y-117750306D03*
G04 #@! TO.N,SQW*
X179808293Y-118192382D03*
X176924500Y-117801497D03*
X187452000Y-118237000D03*
X183380988Y-118206410D03*
X182430976Y-118124545D03*
G04 #@! TO.N,BTN1*
X182785000Y-129135000D03*
X172974000Y-113538000D03*
X169806990Y-116448362D03*
X173602036Y-118173261D03*
G04 #@! TO.N,BTN3*
X182814352Y-128092586D03*
X174385739Y-114767843D03*
X176561674Y-121872408D03*
X179069966Y-124149361D03*
G04 #@! TO.N,BTN2*
X186690000Y-128300000D03*
X182785000Y-127135000D03*
X173907404Y-114327717D03*
X173795372Y-116262631D03*
X173237122Y-117635346D03*
X176807974Y-121270867D03*
X179116458Y-123496449D03*
G04 #@! TO.N,BTN6*
X180310000Y-135255000D03*
X179926010Y-127240016D03*
X178150155Y-122407211D03*
G04 #@! TO.N,BTN5*
X172974000Y-123571000D03*
X172890562Y-120494440D03*
G04 #@! TO.N,BTN4*
X178687112Y-126145878D03*
X174398439Y-121765561D03*
G04 #@! TO.N,LCD_CLK*
X168275000Y-112460000D03*
X179836174Y-115560282D03*
G04 #@! TO.N,LCD_MOSI*
X179559094Y-116468990D03*
X174720318Y-115325133D03*
D25*
G04 #@! TO.N,+5V*
X178943000Y-119154000D03*
X171577000Y-131699000D03*
X180376021Y-128556097D03*
X179299959Y-122699360D03*
D26*
G04 #@! TO.N,USB_DP*
X176657000Y-133985000D03*
X176236806Y-131520372D03*
D25*
G04 #@! TO.N,VBUS*
X177038000Y-129286000D03*
X177060041Y-123563327D03*
D26*
G04 #@! TO.N,BUZZER*
X167767000Y-120106991D03*
G04 #@! TO.N,FRONTLIGHT*
X169926000Y-124206000D03*
G04 #@! TO.N,RST*
X171591452Y-120769010D03*
G04 #@! TO.N,BOOTLOAD*
X165854010Y-114474144D03*
G04 #@! TO.N,SWDCLK*
X164973000Y-124460000D03*
G04 #@! TO.N,SWDIO*
X166878000Y-124460000D03*
G04 #@! TO.N,FLASH_DI*
X174625000Y-128905000D03*
X170876986Y-124209623D03*
X168628561Y-121130561D03*
G04 #@! TO.N,FLASH_CLK*
X173220012Y-125797120D03*
G04 #@! TO.N,FLASH_CS*
X170151142Y-125686752D03*
G04 #@! TO.N,FLASH_DO*
X170579221Y-126623702D03*
G04 #@! TO.N,Net-(IC1-Pad17)*
X177898663Y-113360022D03*
G04 #@! TO.N,Net-(IC1-Pad18)*
X177927000Y-115134000D03*
G04 #@! TO.N,Net-(J5-Pad3)*
X170420000Y-133985000D03*
X175056800Y-136448800D03*
G04 #@! TD*
D27*
G04 #@! TO.N,Net-(C1-Pad1)*
X186055000Y-116310000D02*
X185790000Y-116575000D01*
X186055000Y-114665000D02*
X186055000Y-116310000D01*
X185105000Y-113665000D02*
X186055000Y-114615000D01*
X186055000Y-114615000D02*
X186055000Y-114665000D01*
X183007000Y-113665000D02*
X185105000Y-113665000D01*
D28*
G04 #@! TO.N,GND*
X164150000Y-128980000D02*
X164225000Y-128905000D01*
X164150000Y-130445000D02*
X164150000Y-128980000D01*
X168595000Y-128980000D02*
X168670000Y-128905000D01*
X168595000Y-130445000D02*
X168595000Y-128980000D01*
X178593343Y-114291157D02*
X179219500Y-113665000D01*
X179219500Y-113665000D02*
X180032000Y-113665000D01*
X177212619Y-114291157D02*
X178593343Y-114291157D01*
X176812620Y-113891158D02*
X177212619Y-114291157D01*
X173667403Y-113827716D02*
X173827284Y-113827716D01*
X173354010Y-116009434D02*
X173354010Y-114141109D01*
X173354010Y-114141109D02*
X173667403Y-113827716D01*
X172243444Y-117120000D02*
X173354010Y-116009434D01*
X171704000Y-117120000D02*
X172243444Y-117120000D01*
X174244000Y-113411000D02*
X174244000Y-113284000D01*
X173827284Y-113827716D02*
X174244000Y-113411000D01*
X165354000Y-120370000D02*
X165354000Y-121931000D01*
X165354000Y-121931000D02*
X164652000Y-122633000D01*
X186690000Y-117475000D02*
X187280968Y-117475000D01*
X187280968Y-117475000D02*
X187305440Y-117450528D01*
X184531000Y-117873998D02*
X184531000Y-118237000D01*
X185379998Y-117025000D02*
X184531000Y-117873998D01*
X186230000Y-117025000D02*
X185379998Y-117025000D01*
X186680000Y-117475000D02*
X186230000Y-117025000D01*
X186690000Y-117475000D02*
X186680000Y-117475000D01*
X183092168Y-119507000D02*
X182029443Y-120569725D01*
X183134000Y-119507000D02*
X183092168Y-119507000D01*
X173863000Y-120904000D02*
X174428685Y-120904000D01*
X174428685Y-120904000D02*
X175989016Y-122464331D01*
X177457357Y-122349179D02*
X176712341Y-122349179D01*
X178136358Y-121596368D02*
X177457357Y-122275369D01*
X175989016Y-123084985D02*
X175976545Y-123084985D01*
X176712341Y-122349179D02*
X175976540Y-123084980D01*
X175976545Y-123084985D02*
X175976540Y-123084980D01*
X177457357Y-122275369D02*
X177457357Y-122349179D01*
X175989016Y-122519300D02*
X175989016Y-123084985D01*
X168670000Y-128905000D02*
X168670000Y-128690400D01*
X168670000Y-128690400D02*
X168046400Y-128066800D01*
X164541200Y-128588800D02*
X164225000Y-128905000D01*
X164541200Y-128270000D02*
X164541200Y-128588800D01*
X181102000Y-124358400D02*
X181102000Y-123240800D01*
X181102000Y-123240800D02*
X181254400Y-123088400D01*
X171216180Y-127115000D02*
X171101293Y-127229887D01*
X171520000Y-127115000D02*
X171216180Y-127115000D01*
G04 #@! TO.N,+3V3*
X173920000Y-126115000D02*
X173920000Y-125615000D01*
X187005000Y-112665000D02*
X187005000Y-115392000D01*
X187005000Y-115392000D02*
X187310000Y-115697000D01*
X183633365Y-120202186D02*
X182784764Y-121050787D01*
X183880998Y-118609166D02*
X184734014Y-119462182D01*
X184474014Y-120202186D02*
X183633365Y-120202186D01*
X182784764Y-121050787D02*
X182384765Y-121450786D01*
X184734014Y-119942186D02*
X184474014Y-120202186D01*
X183880998Y-116982002D02*
X183880998Y-118609166D01*
X184734014Y-119462182D02*
X184734014Y-119942186D01*
X184785000Y-116078000D02*
X183880998Y-116982002D01*
X170329928Y-118929059D02*
X170152011Y-119106976D01*
X167259000Y-127762000D02*
X167894000Y-127127000D01*
X166360000Y-135890000D02*
X167259000Y-134991000D01*
X169586326Y-119106976D02*
X170152011Y-119106976D01*
X167259000Y-134991000D02*
X167259000Y-127762000D01*
X165735000Y-135890000D02*
X166360000Y-135890000D01*
X167894000Y-120799302D02*
X169586326Y-119106976D01*
X167894000Y-127127000D02*
X167894000Y-120799302D01*
X170329928Y-116069072D02*
X170329928Y-118929059D01*
X170829000Y-115570000D02*
X170329928Y-116069072D01*
X174348376Y-118952597D02*
X173782691Y-118952597D01*
X176403000Y-119380000D02*
X175975597Y-118952597D01*
X175975597Y-118952597D02*
X174348376Y-118952597D01*
X173920000Y-125790000D02*
X172488400Y-124358400D01*
X173920000Y-126115000D02*
X173920000Y-125790000D01*
X171520000Y-126615000D02*
X171870000Y-126615000D01*
X171870000Y-126615000D02*
X171975705Y-126720705D01*
X171975705Y-126720705D02*
X171975705Y-127809609D01*
X184150000Y-124305000D02*
X182906770Y-124305000D01*
X182644999Y-124043229D02*
X182245000Y-123643230D01*
X182906770Y-124305000D02*
X182644999Y-124043229D01*
X186424000Y-134878200D02*
X185924000Y-134878200D01*
D27*
G04 #@! TO.N,SCL*
X179487617Y-130261013D02*
X180142699Y-129605931D01*
X175974053Y-130261013D02*
X179487617Y-130261013D01*
X173101027Y-133134039D02*
X175974053Y-130261013D01*
X180142699Y-129605931D02*
X180392698Y-129355932D01*
X182744072Y-122055928D02*
X182245000Y-122555000D01*
X184265470Y-120534531D02*
X182744072Y-122055928D01*
X185790000Y-119275000D02*
X185790000Y-119625000D01*
X184880469Y-120534531D02*
X184265470Y-120534531D01*
X185790000Y-119625000D02*
X184880469Y-120534531D01*
X179734552Y-121854034D02*
X179734552Y-121291791D01*
X179734552Y-121291791D02*
X178589106Y-120146345D01*
X178438042Y-120146345D02*
X178084489Y-120146345D01*
X178589106Y-120146345D02*
X178438042Y-120146345D01*
X180839072Y-122055928D02*
X180340000Y-122555000D01*
X182245000Y-122555000D02*
X181745928Y-122055928D01*
X181745928Y-122055928D02*
X180839072Y-122055928D01*
G04 #@! TO.N,RTC_IRQ*
X186225001Y-118755001D02*
X186180001Y-118800001D01*
X186225001Y-117900001D02*
X186225001Y-118755001D01*
X186180001Y-118800001D02*
X185303531Y-118800001D01*
X185800000Y-117475000D02*
X186225001Y-117900001D01*
X185790000Y-117475000D02*
X185800000Y-117475000D01*
X185303531Y-118800001D02*
X185240139Y-118863393D01*
X178976053Y-116810951D02*
X174486181Y-116810951D01*
X174084481Y-117212651D02*
X173730928Y-117212651D01*
X179259102Y-117094000D02*
X178976053Y-116810951D01*
X182499000Y-117094000D02*
X179259102Y-117094000D01*
X174486181Y-116810951D02*
X174084481Y-117212651D01*
G04 #@! TO.N,SDA*
X186690000Y-119380000D02*
X186690000Y-119275000D01*
X184785000Y-121285000D02*
X186690000Y-119380000D01*
X184150000Y-121920000D02*
X184785000Y-121285000D01*
X184150000Y-122555000D02*
X184150000Y-121920000D01*
X175611805Y-131855195D02*
X175611805Y-131230393D01*
X179942300Y-130592336D02*
X180869761Y-129664875D01*
X175611805Y-131230393D02*
X176249862Y-130592336D01*
X180869761Y-129664875D02*
X181119760Y-129414876D01*
X173355000Y-134112000D02*
X175611805Y-131855195D01*
X176249862Y-130592336D02*
X179942300Y-130592336D01*
X174346224Y-117500307D02*
X174096225Y-117750306D01*
X180997438Y-117394011D02*
X177548732Y-117394011D01*
X174527689Y-117318842D02*
X174346224Y-117500307D01*
X177473563Y-117318842D02*
X174527689Y-117318842D01*
X177548732Y-117394011D02*
X177473563Y-117318842D01*
X182485426Y-118881999D02*
X180997438Y-117394011D01*
X184234012Y-119702184D02*
X183413827Y-118881999D01*
X183413827Y-118881999D02*
X182485426Y-118881999D01*
G04 #@! TO.N,SQW*
X187515001Y-119190001D02*
X186700000Y-118375000D01*
X187515001Y-122364999D02*
X187515001Y-119190001D01*
X186700000Y-118375000D02*
X186690000Y-118375000D01*
X186690000Y-123190000D02*
X187515001Y-122364999D01*
X179808293Y-118192382D02*
X177315385Y-118192382D01*
X177315385Y-118192382D02*
X176924500Y-117801497D01*
X186690000Y-118375000D02*
X187314000Y-118375000D01*
X187314000Y-118375000D02*
X187452000Y-118237000D01*
X183380988Y-118206410D02*
X182512841Y-118206410D01*
X182512841Y-118206410D02*
X182430976Y-118124545D01*
G04 #@! TO.N,BTN1*
X171681910Y-113538000D02*
X169806990Y-115412920D01*
X169806990Y-116094809D02*
X169806990Y-116448362D01*
X169806990Y-115412920D02*
X169806990Y-116094809D01*
X172974000Y-113538000D02*
X171681910Y-113538000D01*
X177211469Y-120971358D02*
X177035976Y-120795865D01*
X179831999Y-125614398D02*
X178594964Y-124377363D01*
X173367099Y-119419417D02*
X173028887Y-119419417D01*
X177035976Y-120795865D02*
X176893863Y-120795865D01*
X178766953Y-121843464D02*
X178766953Y-121279197D01*
X176893863Y-120795865D02*
X175776974Y-119678976D01*
X178627460Y-121982957D02*
X178766953Y-121843464D01*
X178459114Y-120971358D02*
X177211469Y-120971358D01*
X173626656Y-119678975D02*
X173367099Y-119419417D01*
X178766953Y-121279197D02*
X178459114Y-120971358D01*
X178594964Y-124377363D02*
X178594964Y-123921359D01*
X179831999Y-126181999D02*
X179831999Y-125614398D01*
X182785000Y-129135000D02*
X179831999Y-126181999D01*
X175776974Y-119678976D02*
X173626656Y-119678975D01*
X178594964Y-123921359D02*
X178627460Y-123888863D01*
X173028887Y-119419417D02*
X173028887Y-118746410D01*
X178627460Y-123888863D02*
X178627460Y-121982957D01*
X173028887Y-118746410D02*
X173602036Y-118173261D01*
G04 #@! TO.N,BTN3*
X172428865Y-117740599D02*
X172428865Y-119743120D01*
X174135740Y-115912541D02*
X174270382Y-116047183D01*
X174270382Y-116047183D02*
X174270382Y-116503185D01*
X173118563Y-120019439D02*
X173378122Y-120278998D01*
X174135740Y-115017842D02*
X174135740Y-115912541D01*
X174385739Y-114767843D02*
X174135740Y-115017842D01*
X174035926Y-116737641D02*
X173431823Y-116737641D01*
X173378122Y-120278998D02*
X174968264Y-120278998D01*
X174270382Y-116503185D02*
X174035926Y-116737641D01*
X176311675Y-121622409D02*
X176561674Y-121872408D01*
X174968264Y-120278998D02*
X176311675Y-121622409D01*
X172428865Y-119743120D02*
X172705184Y-120019439D01*
X172705184Y-120019439D02*
X173118563Y-120019439D01*
X173431823Y-116737641D02*
X172428865Y-117740599D01*
X182814352Y-128092586D02*
X179069966Y-124348200D01*
X179069966Y-124348200D02*
X179069966Y-124149361D01*
G04 #@! TO.N,BTN2*
X173907404Y-114681270D02*
X173795372Y-114793302D01*
X173795372Y-114793302D02*
X173795372Y-116262631D01*
X173907404Y-114327717D02*
X173907404Y-114681270D01*
X172728876Y-118143592D02*
X172728876Y-119618852D01*
X172829452Y-119719428D02*
X173242831Y-119719428D01*
X176557975Y-121020868D02*
X176807974Y-121270867D01*
X173502389Y-119978986D02*
X175516093Y-119978986D01*
X175516093Y-119978986D02*
X176557975Y-121020868D01*
X173242831Y-119719428D02*
X173502389Y-119978986D01*
X173237122Y-117635346D02*
X172728876Y-118143592D01*
X172728876Y-119618852D02*
X172829452Y-119719428D01*
X182145850Y-126764290D02*
X180215133Y-124833573D01*
X180215133Y-124833573D02*
X180215133Y-124595124D01*
X180215133Y-124595124D02*
X179366457Y-123746448D01*
X179366457Y-123746448D02*
X179116458Y-123496449D01*
X182414290Y-126764290D02*
X182145850Y-126764290D01*
X182785000Y-127135000D02*
X182414290Y-126764290D01*
G04 #@! TO.N,BTN6*
X179531989Y-126845995D02*
X179531989Y-125738667D01*
X179531989Y-125738667D02*
X178150155Y-124356833D01*
X178150155Y-124356833D02*
X178150155Y-122760764D01*
X178150155Y-122760764D02*
X178150155Y-122407211D01*
X179926010Y-127240016D02*
X179531989Y-126845995D01*
G04 #@! TO.N,BTN5*
X172974000Y-123571000D02*
X172974000Y-120577878D01*
X172974000Y-120577878D02*
X172890562Y-120494440D01*
G04 #@! TO.N,BTN4*
X174398439Y-122437202D02*
X174398439Y-122119114D01*
X174398439Y-122119114D02*
X174398439Y-121765561D01*
X178687112Y-126145878D02*
X178107115Y-126145878D01*
X178107115Y-126145878D02*
X174398439Y-122437202D01*
G04 #@! TO.N,Net-(J3-Pad2)*
X164225000Y-135380000D02*
X164735000Y-135890000D01*
X164225000Y-133985000D02*
X164225000Y-135380000D01*
G04 #@! TO.N,LCD_CLK*
X174869002Y-113556004D02*
X177196999Y-115884001D01*
X179512455Y-115884001D02*
X179586175Y-115810281D01*
X177196999Y-115884001D02*
X179512455Y-115884001D01*
X179586175Y-115810281D02*
X179836174Y-115560282D01*
X174869002Y-112983998D02*
X174869002Y-113556004D01*
X168275000Y-112460000D02*
X174345004Y-112460000D01*
X174345004Y-112460000D02*
X174869002Y-112983998D01*
G04 #@! TO.N,LCD_MOSI*
X179559094Y-116468990D02*
X175864175Y-116468990D01*
X174970317Y-115575132D02*
X174720318Y-115325133D01*
X175864175Y-116468990D02*
X174970317Y-115575132D01*
D28*
G04 #@! TO.N,+5V*
X178628602Y-129936002D02*
X179943012Y-128621592D01*
X173339998Y-129936002D02*
X178628602Y-129936002D01*
X180008507Y-128556097D02*
X180376021Y-128556097D01*
X179943012Y-128621592D02*
X180008507Y-128556097D01*
X171577000Y-131699000D02*
X173339998Y-129936002D01*
X177844487Y-120646347D02*
X178629474Y-120646347D01*
X178943000Y-119154000D02*
X178368000Y-119154000D01*
X177584487Y-120386347D02*
X177844487Y-120646347D01*
X178368000Y-119154000D02*
X177584487Y-119937513D01*
X177584487Y-119937513D02*
X177584487Y-120386347D01*
X179091964Y-121108837D02*
X179091964Y-121925680D01*
X179299959Y-122133675D02*
X179299959Y-122699360D01*
X179091964Y-121925680D02*
X179299959Y-122133675D01*
X178629474Y-120646347D02*
X179091964Y-121108837D01*
D27*
G04 #@! TO.N,USB_DP*
X176657000Y-131940566D02*
X176636805Y-131920371D01*
X176636805Y-131920371D02*
X176236806Y-131520372D01*
X176657000Y-133985000D02*
X176657000Y-131940566D01*
D28*
G04 #@! TO.N,VBUS*
X177460040Y-124126352D02*
X177460040Y-123963326D01*
X177460040Y-123963326D02*
X177060041Y-123563327D01*
X179206978Y-127117022D02*
X179206978Y-125873290D01*
X177038000Y-129286000D02*
X179206978Y-127117022D01*
X179206978Y-125873290D02*
X177460040Y-124126352D01*
D27*
G04 #@! TO.N,BUZZER*
X166050000Y-128980000D02*
X165975000Y-128905000D01*
X166050000Y-130445000D02*
X166050000Y-128980000D01*
X165975000Y-128905000D02*
X165975000Y-121898991D01*
X167517001Y-120356990D02*
X167767000Y-120106991D01*
X165975000Y-121898991D02*
X167517001Y-120356990D01*
G04 #@! TO.N,Net-(Q1-Pad3)*
X165100000Y-133110000D02*
X165975000Y-133985000D01*
X165100000Y-132445000D02*
X165100000Y-133110000D01*
G04 #@! TO.N,Net-(Q2-Pad3)*
X168670000Y-133320000D02*
X169545000Y-132445000D01*
X168670000Y-133985000D02*
X168670000Y-133320000D01*
G04 #@! TO.N,FRONTLIGHT*
X170495000Y-128980000D02*
X170420000Y-128905000D01*
X170495000Y-130445000D02*
X170495000Y-128980000D01*
X168769999Y-124796316D02*
X168769999Y-127372001D01*
X168769999Y-127372001D02*
X169803926Y-128405928D01*
X169360315Y-124206000D02*
X168769999Y-124796316D01*
X169920928Y-128405928D02*
X170420000Y-128905000D01*
X169803926Y-128405928D02*
X169920928Y-128405928D01*
X169926000Y-124206000D02*
X169360315Y-124206000D01*
G04 #@! TO.N,RST*
X171591452Y-119621413D02*
X171591452Y-120415457D01*
X172579000Y-115570000D02*
X171654001Y-116494999D01*
X171654001Y-116494999D02*
X170898999Y-116494999D01*
X170898999Y-116494999D02*
X170728999Y-116664999D01*
X170728999Y-116664999D02*
X170728999Y-118758960D01*
X170728999Y-118758960D02*
X171591452Y-119621413D01*
X171591452Y-120415457D02*
X171591452Y-120769010D01*
G04 #@! TO.N,BOOTLOAD*
X164758154Y-115570000D02*
X164719000Y-115570000D01*
X165854010Y-114474144D02*
X164758154Y-115570000D01*
X165354000Y-116205000D02*
X164719000Y-115570000D01*
X165354000Y-117120000D02*
X165354000Y-116205000D01*
G04 #@! TO.N,FLASH_DI*
X174625000Y-127820000D02*
X173920000Y-127115000D01*
X174625000Y-128905000D02*
X174625000Y-127820000D01*
X170876986Y-124209623D02*
X170876986Y-123378986D01*
X170876986Y-123378986D02*
X168878560Y-121380560D01*
X168878560Y-121380560D02*
X168628561Y-121130561D01*
G04 #@! TO.N,FLASH_CLK*
X174320000Y-126615000D02*
X173920000Y-126615000D01*
X174875000Y-126615000D02*
X176530000Y-128270000D01*
X173920000Y-126615000D02*
X174875000Y-126615000D01*
X173620000Y-126615000D02*
X173220012Y-126215012D01*
X173920000Y-126615000D02*
X173620000Y-126615000D01*
X173220012Y-126150673D02*
X173220012Y-125797120D01*
X173220012Y-126215012D02*
X173220012Y-126150673D01*
G04 #@! TO.N,FLASH_CS*
X170222894Y-125615000D02*
X170151142Y-125686752D01*
X171520000Y-125615000D02*
X170222894Y-125615000D01*
X169545000Y-126292894D02*
X170151142Y-125686752D01*
X169545000Y-127000000D02*
X169545000Y-126292894D01*
G04 #@! TO.N,FLASH_DO*
X171920000Y-126115000D02*
X172394999Y-126589999D01*
X171087923Y-126115000D02*
X170829220Y-126373703D01*
X172394999Y-127345001D02*
X172720000Y-127670002D01*
X172720000Y-127670002D02*
X172720000Y-128197894D01*
X172720000Y-128197894D02*
X172720000Y-128905000D01*
X172394999Y-126589999D02*
X172394999Y-127345001D01*
X170829220Y-126373703D02*
X170579221Y-126623702D01*
X171520000Y-126115000D02*
X171920000Y-126115000D01*
X171520000Y-126115000D02*
X171087923Y-126115000D01*
G04 #@! TO.N,Net-(J5-Pad3)*
X184624000Y-134878200D02*
X184924000Y-134878200D01*
X182803401Y-136698799D02*
X184624000Y-134878200D01*
X175306799Y-136698799D02*
X182803401Y-136698799D01*
X175056800Y-136448800D02*
X175306799Y-136698799D01*
X185424000Y-134878200D02*
X184924000Y-134878200D01*
G04 #@! TD*
D29*
G04 #@! TO.N,+3V3*
G36*
X186037367Y-122237500D02*
X185727793Y-122547074D01*
X185555000Y-122964234D01*
X185555000Y-123415766D01*
X185727793Y-123832926D01*
X186047074Y-124152207D01*
X186464234Y-124325000D01*
X186915766Y-124325000D01*
X187225000Y-124196911D01*
X187225001Y-127152560D01*
X185940000Y-127152560D01*
X185692235Y-127201843D01*
X185482191Y-127342191D01*
X185341843Y-127552235D01*
X185292560Y-127800000D01*
X185292560Y-128300000D01*
X185294968Y-128312106D01*
X185294968Y-128349009D01*
X185307408Y-128475318D01*
X185326530Y-128571451D01*
X185363372Y-128692904D01*
X185400881Y-128783460D01*
X185460713Y-128895397D01*
X185515169Y-128976896D01*
X185595686Y-129075006D01*
X185664994Y-129144314D01*
X185763104Y-129224831D01*
X185844603Y-129279287D01*
X185956540Y-129339119D01*
X186047096Y-129376628D01*
X186168549Y-129413470D01*
X186264682Y-129432592D01*
X186390991Y-129445032D01*
X186427894Y-129445032D01*
X186440000Y-129447440D01*
X186940000Y-129447440D01*
X186952106Y-129445032D01*
X186989009Y-129445032D01*
X187115318Y-129432592D01*
X187211451Y-129413470D01*
X187225001Y-129409360D01*
X187225001Y-131080760D01*
X187064000Y-131080760D01*
X186816235Y-131130043D01*
X186606191Y-131270391D01*
X186465843Y-131480435D01*
X186416560Y-131728200D01*
X186416560Y-132728200D01*
X186465843Y-132975965D01*
X186606191Y-133186009D01*
X186816235Y-133326357D01*
X187064000Y-133375640D01*
X187225001Y-133375640D01*
X187225001Y-136425000D01*
X184081291Y-136425000D01*
X184654434Y-135851857D01*
X184774000Y-135875640D01*
X185074000Y-135875640D01*
X185174000Y-135855749D01*
X185274000Y-135875640D01*
X185574000Y-135875640D01*
X185644074Y-135861702D01*
X185647691Y-135863200D01*
X185690250Y-135863200D01*
X185703586Y-135849864D01*
X185821765Y-135826357D01*
X185913102Y-135765327D01*
X185914302Y-135766527D01*
X186147691Y-135863200D01*
X186200309Y-135863200D01*
X186433698Y-135766527D01*
X186499000Y-135701225D01*
X186499000Y-135704450D01*
X186657750Y-135863200D01*
X186700309Y-135863200D01*
X186933698Y-135766527D01*
X187112327Y-135587899D01*
X187209000Y-135354510D01*
X187209000Y-135163950D01*
X187050250Y-135005200D01*
X186277000Y-135005200D01*
X186277000Y-134751200D01*
X187050250Y-134751200D01*
X187209000Y-134592450D01*
X187209000Y-134401890D01*
X187112327Y-134168501D01*
X186933698Y-133989873D01*
X186700309Y-133893200D01*
X186657750Y-133893200D01*
X186499000Y-134051950D01*
X186499000Y-134055175D01*
X186433698Y-133989873D01*
X186200309Y-133893200D01*
X186147691Y-133893200D01*
X185914302Y-133989873D01*
X185913102Y-133991073D01*
X185821765Y-133930043D01*
X185703586Y-133906536D01*
X185690250Y-133893200D01*
X185647691Y-133893200D01*
X185644074Y-133894698D01*
X185574000Y-133880760D01*
X185274000Y-133880760D01*
X185174000Y-133900651D01*
X185074000Y-133880760D01*
X184774000Y-133880760D01*
X184526235Y-133930043D01*
X184316191Y-134070391D01*
X184175843Y-134280435D01*
X184165909Y-134330378D01*
X184112119Y-134366319D01*
X184072510Y-134425598D01*
X182509311Y-135988799D01*
X181457440Y-135988799D01*
X181457440Y-134505000D01*
X181408157Y-134257235D01*
X181267809Y-134047191D01*
X181057765Y-133906843D01*
X180810000Y-133857560D01*
X180310000Y-133857560D01*
X180297894Y-133859968D01*
X180260991Y-133859968D01*
X180134682Y-133872408D01*
X180038549Y-133891530D01*
X179917096Y-133928372D01*
X179826540Y-133965881D01*
X179714603Y-134025713D01*
X179633104Y-134080169D01*
X179534994Y-134160686D01*
X179465686Y-134229994D01*
X179385169Y-134328104D01*
X179330713Y-134409603D01*
X179270881Y-134521540D01*
X179233372Y-134612096D01*
X179196530Y-134733549D01*
X179177408Y-134829682D01*
X179164968Y-134955991D01*
X179164968Y-134992894D01*
X179162560Y-135005000D01*
X179162560Y-135505000D01*
X179164968Y-135517106D01*
X179164968Y-135554009D01*
X179177408Y-135680318D01*
X179196530Y-135776451D01*
X179233372Y-135897904D01*
X179270881Y-135988460D01*
X179271062Y-135988799D01*
X177030000Y-135988799D01*
X177030000Y-135664234D01*
X176857207Y-135247074D01*
X176537926Y-134927793D01*
X176120766Y-134755000D01*
X175669234Y-134755000D01*
X175252074Y-134927793D01*
X174932793Y-135247074D01*
X174785206Y-135603381D01*
X174555488Y-135698533D01*
X174306533Y-135947488D01*
X174171800Y-136272763D01*
X174171800Y-136425000D01*
X173738012Y-136425000D01*
X173868112Y-136035028D01*
X173836217Y-135584625D01*
X173725217Y-135316648D01*
X173510104Y-135279501D01*
X172899605Y-135890000D01*
X172913748Y-135904143D01*
X172734143Y-136083748D01*
X172720000Y-136069605D01*
X172705858Y-136083748D01*
X172526253Y-135904143D01*
X172540395Y-135890000D01*
X171929896Y-135279501D01*
X171714783Y-135316648D01*
X171571888Y-135744972D01*
X171603783Y-136195375D01*
X171698897Y-136425000D01*
X166795000Y-136425000D01*
X166795000Y-136175750D01*
X166636250Y-136017000D01*
X165862000Y-136017000D01*
X165862000Y-136037000D01*
X165786526Y-136037000D01*
X165815766Y-135890000D01*
X165786526Y-135743000D01*
X165862000Y-135743000D01*
X165862000Y-135763000D01*
X166636250Y-135763000D01*
X166795000Y-135604250D01*
X166795000Y-135338691D01*
X166698327Y-135105302D01*
X166620305Y-135027280D01*
X166888247Y-134848247D01*
X167080078Y-134561152D01*
X167147440Y-134222500D01*
X167147440Y-133747500D01*
X167080078Y-133408848D01*
X166888247Y-133121753D01*
X166601152Y-132929922D01*
X166262500Y-132862560D01*
X166147440Y-132862560D01*
X166147440Y-131995000D01*
X166098157Y-131747235D01*
X165961316Y-131542440D01*
X166450000Y-131542440D01*
X166697765Y-131493157D01*
X166907809Y-131352809D01*
X167048157Y-131142765D01*
X167097440Y-130895000D01*
X167097440Y-129995000D01*
X167048157Y-129747235D01*
X166975222Y-129638080D01*
X167080078Y-129481152D01*
X167147440Y-129142500D01*
X167147440Y-128667500D01*
X167122031Y-128539763D01*
X167168969Y-128653080D01*
X167460120Y-128944231D01*
X167497560Y-128959739D01*
X167497560Y-129142500D01*
X167564922Y-129481152D01*
X167669778Y-129638080D01*
X167596843Y-129747235D01*
X167547560Y-129995000D01*
X167547560Y-130895000D01*
X167596843Y-131142765D01*
X167737191Y-131352809D01*
X167947235Y-131493157D01*
X168195000Y-131542440D01*
X168683684Y-131542440D01*
X168546843Y-131747235D01*
X168497560Y-131995000D01*
X168497560Y-132488349D01*
X168217401Y-132768508D01*
X168158120Y-132808119D01*
X168081774Y-132922378D01*
X168043848Y-132929922D01*
X167756753Y-133121753D01*
X167564922Y-133408848D01*
X167497560Y-133747500D01*
X167497560Y-134222500D01*
X167564922Y-134561152D01*
X167756753Y-134848247D01*
X168043848Y-135040078D01*
X168382500Y-135107440D01*
X168957500Y-135107440D01*
X169296152Y-135040078D01*
X169545000Y-134873803D01*
X169793848Y-135040078D01*
X170132500Y-135107440D01*
X170707500Y-135107440D01*
X171046152Y-135040078D01*
X171333247Y-134848247D01*
X171525078Y-134561152D01*
X171592440Y-134222500D01*
X171592440Y-133747500D01*
X171525078Y-133408848D01*
X171333247Y-133121753D01*
X171046152Y-132929922D01*
X170707500Y-132862560D01*
X170592440Y-132862560D01*
X170592440Y-132026647D01*
X170699569Y-132285280D01*
X170990720Y-132576431D01*
X171371126Y-132734000D01*
X171782874Y-132734000D01*
X172163280Y-132576431D01*
X172454431Y-132285280D01*
X172612000Y-131904874D01*
X172612000Y-131703446D01*
X173644445Y-130671002D01*
X174559973Y-130671002D01*
X172981937Y-132249039D01*
X172924990Y-132249039D01*
X172599715Y-132383772D01*
X172350760Y-132632727D01*
X172216027Y-132958002D01*
X172216027Y-133310076D01*
X172350760Y-133635351D01*
X172523123Y-133807714D01*
X172470000Y-133935963D01*
X172470000Y-134288037D01*
X172604733Y-134613312D01*
X172742020Y-134750599D01*
X172414625Y-134773783D01*
X172146648Y-134884783D01*
X172109501Y-135099896D01*
X172720000Y-135710395D01*
X173330499Y-135099896D01*
X173312730Y-134997000D01*
X173531037Y-134997000D01*
X173856312Y-134862267D01*
X174105267Y-134613312D01*
X174240000Y-134288037D01*
X174240000Y-134231090D01*
X175947001Y-132524090D01*
X175947000Y-133443421D01*
X175906733Y-133483688D01*
X175772000Y-133808963D01*
X175772000Y-134161037D01*
X175906733Y-134486312D01*
X176155688Y-134735267D01*
X176480963Y-134870000D01*
X176833037Y-134870000D01*
X177158312Y-134735267D01*
X177407267Y-134486312D01*
X177542000Y-134161037D01*
X177542000Y-133808963D01*
X177407267Y-133483688D01*
X177367000Y-133443421D01*
X177367000Y-132010490D01*
X177380909Y-131940565D01*
X177363928Y-131855196D01*
X177338668Y-131728200D01*
X183336560Y-131728200D01*
X183336560Y-132728200D01*
X183385843Y-132975965D01*
X183526191Y-133186009D01*
X183736235Y-133326357D01*
X183984000Y-133375640D01*
X184284000Y-133375640D01*
X184531765Y-133326357D01*
X184741809Y-133186009D01*
X184882157Y-132975965D01*
X184931440Y-132728200D01*
X184931440Y-131728200D01*
X184882157Y-131480435D01*
X184741809Y-131270391D01*
X184531765Y-131130043D01*
X184284000Y-131080760D01*
X183984000Y-131080760D01*
X183736235Y-131130043D01*
X183526191Y-131270391D01*
X183385843Y-131480435D01*
X183336560Y-131728200D01*
X177338668Y-131728200D01*
X177325805Y-131663538D01*
X177168881Y-131428685D01*
X177121806Y-131397230D01*
X177121806Y-131344335D01*
X177104409Y-131302336D01*
X179872376Y-131302336D01*
X179942300Y-131316245D01*
X180012224Y-131302336D01*
X180012226Y-131302336D01*
X180219328Y-131261141D01*
X180454181Y-131104217D01*
X180493794Y-131044932D01*
X181238852Y-130299876D01*
X181295797Y-130299876D01*
X181621072Y-130165143D01*
X181870027Y-129916188D01*
X182004760Y-129590913D01*
X182004760Y-129563951D01*
X182034733Y-129636312D01*
X182283688Y-129885267D01*
X182608963Y-130020000D01*
X182961037Y-130020000D01*
X183286312Y-129885267D01*
X183535267Y-129636312D01*
X183670000Y-129311037D01*
X183670000Y-128958963D01*
X183535267Y-128633688D01*
X183530048Y-128628469D01*
X183564619Y-128593898D01*
X183699352Y-128268623D01*
X183699352Y-127916549D01*
X183564619Y-127591274D01*
X183557055Y-127583710D01*
X183670000Y-127311037D01*
X183670000Y-126958963D01*
X183535267Y-126633688D01*
X183286312Y-126384733D01*
X182961037Y-126250000D01*
X182922566Y-126250000D01*
X182691318Y-126095485D01*
X182484216Y-126054290D01*
X182484214Y-126054290D01*
X182428947Y-126043297D01*
X181850651Y-125465000D01*
X181959250Y-125465000D01*
X182118000Y-125306250D01*
X182118000Y-124610144D01*
X182137000Y-124564274D01*
X182137000Y-124432000D01*
X182372000Y-124432000D01*
X182372000Y-125306250D01*
X182530750Y-125465000D01*
X182846310Y-125465000D01*
X183079699Y-125368327D01*
X183197500Y-125250525D01*
X183315301Y-125368327D01*
X183548690Y-125465000D01*
X183864250Y-125465000D01*
X184023000Y-125306250D01*
X184023000Y-124432000D01*
X184277000Y-124432000D01*
X184277000Y-125306250D01*
X184435750Y-125465000D01*
X184751310Y-125465000D01*
X184984699Y-125368327D01*
X185163327Y-125189698D01*
X185260000Y-124956309D01*
X185260000Y-124590750D01*
X185101250Y-124432000D01*
X184277000Y-124432000D01*
X184023000Y-124432000D01*
X183198750Y-124432000D01*
X183197500Y-124433250D01*
X183196250Y-124432000D01*
X182372000Y-124432000D01*
X182137000Y-124432000D01*
X182137000Y-124158000D01*
X182372000Y-124158000D01*
X182372000Y-124178000D01*
X183196250Y-124178000D01*
X183197500Y-124176750D01*
X183198750Y-124178000D01*
X184023000Y-124178000D01*
X184023000Y-124158000D01*
X184277000Y-124158000D01*
X184277000Y-124178000D01*
X185101250Y-124178000D01*
X185260000Y-124019250D01*
X185260000Y-123653691D01*
X185163327Y-123420302D01*
X185092565Y-123349540D01*
X185205078Y-123181152D01*
X185272440Y-122842500D01*
X185272440Y-122311611D01*
X185427926Y-122247207D01*
X185737500Y-121937633D01*
X186037367Y-122237500D01*
X186037367Y-122237500D01*
G37*
X186037367Y-122237500D02*
X185727793Y-122547074D01*
X185555000Y-122964234D01*
X185555000Y-123415766D01*
X185727793Y-123832926D01*
X186047074Y-124152207D01*
X186464234Y-124325000D01*
X186915766Y-124325000D01*
X187225000Y-124196911D01*
X187225001Y-127152560D01*
X185940000Y-127152560D01*
X185692235Y-127201843D01*
X185482191Y-127342191D01*
X185341843Y-127552235D01*
X185292560Y-127800000D01*
X185292560Y-128300000D01*
X185294968Y-128312106D01*
X185294968Y-128349009D01*
X185307408Y-128475318D01*
X185326530Y-128571451D01*
X185363372Y-128692904D01*
X185400881Y-128783460D01*
X185460713Y-128895397D01*
X185515169Y-128976896D01*
X185595686Y-129075006D01*
X185664994Y-129144314D01*
X185763104Y-129224831D01*
X185844603Y-129279287D01*
X185956540Y-129339119D01*
X186047096Y-129376628D01*
X186168549Y-129413470D01*
X186264682Y-129432592D01*
X186390991Y-129445032D01*
X186427894Y-129445032D01*
X186440000Y-129447440D01*
X186940000Y-129447440D01*
X186952106Y-129445032D01*
X186989009Y-129445032D01*
X187115318Y-129432592D01*
X187211451Y-129413470D01*
X187225001Y-129409360D01*
X187225001Y-131080760D01*
X187064000Y-131080760D01*
X186816235Y-131130043D01*
X186606191Y-131270391D01*
X186465843Y-131480435D01*
X186416560Y-131728200D01*
X186416560Y-132728200D01*
X186465843Y-132975965D01*
X186606191Y-133186009D01*
X186816235Y-133326357D01*
X187064000Y-133375640D01*
X187225001Y-133375640D01*
X187225001Y-136425000D01*
X184081291Y-136425000D01*
X184654434Y-135851857D01*
X184774000Y-135875640D01*
X185074000Y-135875640D01*
X185174000Y-135855749D01*
X185274000Y-135875640D01*
X185574000Y-135875640D01*
X185644074Y-135861702D01*
X185647691Y-135863200D01*
X185690250Y-135863200D01*
X185703586Y-135849864D01*
X185821765Y-135826357D01*
X185913102Y-135765327D01*
X185914302Y-135766527D01*
X186147691Y-135863200D01*
X186200309Y-135863200D01*
X186433698Y-135766527D01*
X186499000Y-135701225D01*
X186499000Y-135704450D01*
X186657750Y-135863200D01*
X186700309Y-135863200D01*
X186933698Y-135766527D01*
X187112327Y-135587899D01*
X187209000Y-135354510D01*
X187209000Y-135163950D01*
X187050250Y-135005200D01*
X186277000Y-135005200D01*
X186277000Y-134751200D01*
X187050250Y-134751200D01*
X187209000Y-134592450D01*
X187209000Y-134401890D01*
X187112327Y-134168501D01*
X186933698Y-133989873D01*
X186700309Y-133893200D01*
X186657750Y-133893200D01*
X186499000Y-134051950D01*
X186499000Y-134055175D01*
X186433698Y-133989873D01*
X186200309Y-133893200D01*
X186147691Y-133893200D01*
X185914302Y-133989873D01*
X185913102Y-133991073D01*
X185821765Y-133930043D01*
X185703586Y-133906536D01*
X185690250Y-133893200D01*
X185647691Y-133893200D01*
X185644074Y-133894698D01*
X185574000Y-133880760D01*
X185274000Y-133880760D01*
X185174000Y-133900651D01*
X185074000Y-133880760D01*
X184774000Y-133880760D01*
X184526235Y-133930043D01*
X184316191Y-134070391D01*
X184175843Y-134280435D01*
X184165909Y-134330378D01*
X184112119Y-134366319D01*
X184072510Y-134425598D01*
X182509311Y-135988799D01*
X181457440Y-135988799D01*
X181457440Y-134505000D01*
X181408157Y-134257235D01*
X181267809Y-134047191D01*
X181057765Y-133906843D01*
X180810000Y-133857560D01*
X180310000Y-133857560D01*
X180297894Y-133859968D01*
X180260991Y-133859968D01*
X180134682Y-133872408D01*
X180038549Y-133891530D01*
X179917096Y-133928372D01*
X179826540Y-133965881D01*
X179714603Y-134025713D01*
X179633104Y-134080169D01*
X179534994Y-134160686D01*
X179465686Y-134229994D01*
X179385169Y-134328104D01*
X179330713Y-134409603D01*
X179270881Y-134521540D01*
X179233372Y-134612096D01*
X179196530Y-134733549D01*
X179177408Y-134829682D01*
X179164968Y-134955991D01*
X179164968Y-134992894D01*
X179162560Y-135005000D01*
X179162560Y-135505000D01*
X179164968Y-135517106D01*
X179164968Y-135554009D01*
X179177408Y-135680318D01*
X179196530Y-135776451D01*
X179233372Y-135897904D01*
X179270881Y-135988460D01*
X179271062Y-135988799D01*
X177030000Y-135988799D01*
X177030000Y-135664234D01*
X176857207Y-135247074D01*
X176537926Y-134927793D01*
X176120766Y-134755000D01*
X175669234Y-134755000D01*
X175252074Y-134927793D01*
X174932793Y-135247074D01*
X174785206Y-135603381D01*
X174555488Y-135698533D01*
X174306533Y-135947488D01*
X174171800Y-136272763D01*
X174171800Y-136425000D01*
X173738012Y-136425000D01*
X173868112Y-136035028D01*
X173836217Y-135584625D01*
X173725217Y-135316648D01*
X173510104Y-135279501D01*
X172899605Y-135890000D01*
X172913748Y-135904143D01*
X172734143Y-136083748D01*
X172720000Y-136069605D01*
X172705858Y-136083748D01*
X172526253Y-135904143D01*
X172540395Y-135890000D01*
X171929896Y-135279501D01*
X171714783Y-135316648D01*
X171571888Y-135744972D01*
X171603783Y-136195375D01*
X171698897Y-136425000D01*
X166795000Y-136425000D01*
X166795000Y-136175750D01*
X166636250Y-136017000D01*
X165862000Y-136017000D01*
X165862000Y-136037000D01*
X165786526Y-136037000D01*
X165815766Y-135890000D01*
X165786526Y-135743000D01*
X165862000Y-135743000D01*
X165862000Y-135763000D01*
X166636250Y-135763000D01*
X166795000Y-135604250D01*
X166795000Y-135338691D01*
X166698327Y-135105302D01*
X166620305Y-135027280D01*
X166888247Y-134848247D01*
X167080078Y-134561152D01*
X167147440Y-134222500D01*
X167147440Y-133747500D01*
X167080078Y-133408848D01*
X166888247Y-133121753D01*
X166601152Y-132929922D01*
X166262500Y-132862560D01*
X166147440Y-132862560D01*
X166147440Y-131995000D01*
X166098157Y-131747235D01*
X165961316Y-131542440D01*
X166450000Y-131542440D01*
X166697765Y-131493157D01*
X166907809Y-131352809D01*
X167048157Y-131142765D01*
X167097440Y-130895000D01*
X167097440Y-129995000D01*
X167048157Y-129747235D01*
X166975222Y-129638080D01*
X167080078Y-129481152D01*
X167147440Y-129142500D01*
X167147440Y-128667500D01*
X167122031Y-128539763D01*
X167168969Y-128653080D01*
X167460120Y-128944231D01*
X167497560Y-128959739D01*
X167497560Y-129142500D01*
X167564922Y-129481152D01*
X167669778Y-129638080D01*
X167596843Y-129747235D01*
X167547560Y-129995000D01*
X167547560Y-130895000D01*
X167596843Y-131142765D01*
X167737191Y-131352809D01*
X167947235Y-131493157D01*
X168195000Y-131542440D01*
X168683684Y-131542440D01*
X168546843Y-131747235D01*
X168497560Y-131995000D01*
X168497560Y-132488349D01*
X168217401Y-132768508D01*
X168158120Y-132808119D01*
X168081774Y-132922378D01*
X168043848Y-132929922D01*
X167756753Y-133121753D01*
X167564922Y-133408848D01*
X167497560Y-133747500D01*
X167497560Y-134222500D01*
X167564922Y-134561152D01*
X167756753Y-134848247D01*
X168043848Y-135040078D01*
X168382500Y-135107440D01*
X168957500Y-135107440D01*
X169296152Y-135040078D01*
X169545000Y-134873803D01*
X169793848Y-135040078D01*
X170132500Y-135107440D01*
X170707500Y-135107440D01*
X171046152Y-135040078D01*
X171333247Y-134848247D01*
X171525078Y-134561152D01*
X171592440Y-134222500D01*
X171592440Y-133747500D01*
X171525078Y-133408848D01*
X171333247Y-133121753D01*
X171046152Y-132929922D01*
X170707500Y-132862560D01*
X170592440Y-132862560D01*
X170592440Y-132026647D01*
X170699569Y-132285280D01*
X170990720Y-132576431D01*
X171371126Y-132734000D01*
X171782874Y-132734000D01*
X172163280Y-132576431D01*
X172454431Y-132285280D01*
X172612000Y-131904874D01*
X172612000Y-131703446D01*
X173644445Y-130671002D01*
X174559973Y-130671002D01*
X172981937Y-132249039D01*
X172924990Y-132249039D01*
X172599715Y-132383772D01*
X172350760Y-132632727D01*
X172216027Y-132958002D01*
X172216027Y-133310076D01*
X172350760Y-133635351D01*
X172523123Y-133807714D01*
X172470000Y-133935963D01*
X172470000Y-134288037D01*
X172604733Y-134613312D01*
X172742020Y-134750599D01*
X172414625Y-134773783D01*
X172146648Y-134884783D01*
X172109501Y-135099896D01*
X172720000Y-135710395D01*
X173330499Y-135099896D01*
X173312730Y-134997000D01*
X173531037Y-134997000D01*
X173856312Y-134862267D01*
X174105267Y-134613312D01*
X174240000Y-134288037D01*
X174240000Y-134231090D01*
X175947001Y-132524090D01*
X175947000Y-133443421D01*
X175906733Y-133483688D01*
X175772000Y-133808963D01*
X175772000Y-134161037D01*
X175906733Y-134486312D01*
X176155688Y-134735267D01*
X176480963Y-134870000D01*
X176833037Y-134870000D01*
X177158312Y-134735267D01*
X177407267Y-134486312D01*
X177542000Y-134161037D01*
X177542000Y-133808963D01*
X177407267Y-133483688D01*
X177367000Y-133443421D01*
X177367000Y-132010490D01*
X177380909Y-131940565D01*
X177363928Y-131855196D01*
X177338668Y-131728200D01*
X183336560Y-131728200D01*
X183336560Y-132728200D01*
X183385843Y-132975965D01*
X183526191Y-133186009D01*
X183736235Y-133326357D01*
X183984000Y-133375640D01*
X184284000Y-133375640D01*
X184531765Y-133326357D01*
X184741809Y-133186009D01*
X184882157Y-132975965D01*
X184931440Y-132728200D01*
X184931440Y-131728200D01*
X184882157Y-131480435D01*
X184741809Y-131270391D01*
X184531765Y-131130043D01*
X184284000Y-131080760D01*
X183984000Y-131080760D01*
X183736235Y-131130043D01*
X183526191Y-131270391D01*
X183385843Y-131480435D01*
X183336560Y-131728200D01*
X177338668Y-131728200D01*
X177325805Y-131663538D01*
X177168881Y-131428685D01*
X177121806Y-131397230D01*
X177121806Y-131344335D01*
X177104409Y-131302336D01*
X179872376Y-131302336D01*
X179942300Y-131316245D01*
X180012224Y-131302336D01*
X180012226Y-131302336D01*
X180219328Y-131261141D01*
X180454181Y-131104217D01*
X180493794Y-131044932D01*
X181238852Y-130299876D01*
X181295797Y-130299876D01*
X181621072Y-130165143D01*
X181870027Y-129916188D01*
X182004760Y-129590913D01*
X182004760Y-129563951D01*
X182034733Y-129636312D01*
X182283688Y-129885267D01*
X182608963Y-130020000D01*
X182961037Y-130020000D01*
X183286312Y-129885267D01*
X183535267Y-129636312D01*
X183670000Y-129311037D01*
X183670000Y-128958963D01*
X183535267Y-128633688D01*
X183530048Y-128628469D01*
X183564619Y-128593898D01*
X183699352Y-128268623D01*
X183699352Y-127916549D01*
X183564619Y-127591274D01*
X183557055Y-127583710D01*
X183670000Y-127311037D01*
X183670000Y-126958963D01*
X183535267Y-126633688D01*
X183286312Y-126384733D01*
X182961037Y-126250000D01*
X182922566Y-126250000D01*
X182691318Y-126095485D01*
X182484216Y-126054290D01*
X182484214Y-126054290D01*
X182428947Y-126043297D01*
X181850651Y-125465000D01*
X181959250Y-125465000D01*
X182118000Y-125306250D01*
X182118000Y-124610144D01*
X182137000Y-124564274D01*
X182137000Y-124432000D01*
X182372000Y-124432000D01*
X182372000Y-125306250D01*
X182530750Y-125465000D01*
X182846310Y-125465000D01*
X183079699Y-125368327D01*
X183197500Y-125250525D01*
X183315301Y-125368327D01*
X183548690Y-125465000D01*
X183864250Y-125465000D01*
X184023000Y-125306250D01*
X184023000Y-124432000D01*
X184277000Y-124432000D01*
X184277000Y-125306250D01*
X184435750Y-125465000D01*
X184751310Y-125465000D01*
X184984699Y-125368327D01*
X185163327Y-125189698D01*
X185260000Y-124956309D01*
X185260000Y-124590750D01*
X185101250Y-124432000D01*
X184277000Y-124432000D01*
X184023000Y-124432000D01*
X183198750Y-124432000D01*
X183197500Y-124433250D01*
X183196250Y-124432000D01*
X182372000Y-124432000D01*
X182137000Y-124432000D01*
X182137000Y-124158000D01*
X182372000Y-124158000D01*
X182372000Y-124178000D01*
X183196250Y-124178000D01*
X183197500Y-124176750D01*
X183198750Y-124178000D01*
X184023000Y-124178000D01*
X184023000Y-124158000D01*
X184277000Y-124158000D01*
X184277000Y-124178000D01*
X185101250Y-124178000D01*
X185260000Y-124019250D01*
X185260000Y-123653691D01*
X185163327Y-123420302D01*
X185092565Y-123349540D01*
X185205078Y-123181152D01*
X185272440Y-122842500D01*
X185272440Y-122311611D01*
X185427926Y-122247207D01*
X185737500Y-121937633D01*
X186037367Y-122237500D01*
G36*
X171942400Y-127896493D02*
X172010000Y-127964092D01*
X172010000Y-128009867D01*
X171757793Y-128262074D01*
X171591603Y-128663293D01*
X171525078Y-128328848D01*
X171444368Y-128208057D01*
X171687573Y-128107318D01*
X171916023Y-127878868D01*
X171942400Y-127896493D01*
X171942400Y-127896493D01*
G37*
X171942400Y-127896493D02*
X172010000Y-127964092D01*
X172010000Y-128009867D01*
X171757793Y-128262074D01*
X171591603Y-128663293D01*
X171525078Y-128328848D01*
X171444368Y-128208057D01*
X171687573Y-128107318D01*
X171916023Y-127878868D01*
X171942400Y-127896493D01*
G36*
X167743561Y-121306598D02*
X167878294Y-121631873D01*
X168127249Y-121880828D01*
X168452524Y-122015561D01*
X168509471Y-122015561D01*
X169814909Y-123321000D01*
X169749963Y-123321000D01*
X169424688Y-123455733D01*
X169392023Y-123488398D01*
X169360315Y-123482091D01*
X169083286Y-123537195D01*
X168907714Y-123654509D01*
X168848434Y-123694119D01*
X168808824Y-123753399D01*
X168317400Y-124244825D01*
X168258118Y-124284436D01*
X168101194Y-124519289D01*
X168062718Y-124712724D01*
X168046090Y-124796316D01*
X168059999Y-124866241D01*
X168060000Y-127031800D01*
X167840526Y-127031800D01*
X167460120Y-127189369D01*
X167168969Y-127480520D01*
X167011400Y-127860926D01*
X167011400Y-128226064D01*
X166888247Y-128041753D01*
X166685000Y-127905948D01*
X166685000Y-125595000D01*
X167103766Y-125595000D01*
X167520926Y-125422207D01*
X167840207Y-125102926D01*
X168013000Y-124685766D01*
X168013000Y-124234234D01*
X167840207Y-123817074D01*
X167520926Y-123497793D01*
X167103766Y-123325000D01*
X166685000Y-123325000D01*
X166685000Y-122193081D01*
X167743561Y-121134522D01*
X167743561Y-121306598D01*
X167743561Y-121306598D01*
G37*
X167743561Y-121306598D02*
X167878294Y-121631873D01*
X168127249Y-121880828D01*
X168452524Y-122015561D01*
X168509471Y-122015561D01*
X169814909Y-123321000D01*
X169749963Y-123321000D01*
X169424688Y-123455733D01*
X169392023Y-123488398D01*
X169360315Y-123482091D01*
X169083286Y-123537195D01*
X168907714Y-123654509D01*
X168848434Y-123694119D01*
X168808824Y-123753399D01*
X168317400Y-124244825D01*
X168258118Y-124284436D01*
X168101194Y-124519289D01*
X168062718Y-124712724D01*
X168046090Y-124796316D01*
X168059999Y-124866241D01*
X168060000Y-127031800D01*
X167840526Y-127031800D01*
X167460120Y-127189369D01*
X167168969Y-127480520D01*
X167011400Y-127860926D01*
X167011400Y-128226064D01*
X166888247Y-128041753D01*
X166685000Y-127905948D01*
X166685000Y-125595000D01*
X167103766Y-125595000D01*
X167520926Y-125422207D01*
X167840207Y-125102926D01*
X168013000Y-124685766D01*
X168013000Y-124234234D01*
X167840207Y-123817074D01*
X167520926Y-123497793D01*
X167103766Y-123325000D01*
X166685000Y-123325000D01*
X166685000Y-122193081D01*
X167743561Y-121134522D01*
X167743561Y-121306598D01*
G36*
X167390000Y-112636037D02*
X167524733Y-112961312D01*
X167773688Y-113210267D01*
X168098963Y-113345000D01*
X168451037Y-113345000D01*
X168776312Y-113210267D01*
X168816579Y-113170000D01*
X171045819Y-113170000D01*
X169354392Y-114861428D01*
X169295109Y-114901040D01*
X169138185Y-115135893D01*
X169103546Y-115310037D01*
X169083081Y-115412920D01*
X169096990Y-115482844D01*
X169096990Y-115906783D01*
X169056723Y-115947050D01*
X168921990Y-116272325D01*
X168921990Y-116624399D01*
X169056723Y-116949674D01*
X169305678Y-117198629D01*
X169630953Y-117333362D01*
X169983027Y-117333362D01*
X170018999Y-117318462D01*
X170019000Y-118689031D01*
X170005090Y-118758960D01*
X170059563Y-119032809D01*
X170060195Y-119035988D01*
X170217119Y-119270841D01*
X170276400Y-119310452D01*
X170560302Y-119594353D01*
X170496191Y-119637191D01*
X170355843Y-119847235D01*
X170306560Y-120095000D01*
X170306560Y-120645000D01*
X170355843Y-120892765D01*
X170496191Y-121102809D01*
X170706235Y-121243157D01*
X170841040Y-121269971D01*
X170841185Y-121270322D01*
X171090140Y-121519277D01*
X171415415Y-121654010D01*
X171767489Y-121654010D01*
X172092764Y-121519277D01*
X172264001Y-121348040D01*
X172264000Y-123029421D01*
X172223733Y-123069688D01*
X172089000Y-123394963D01*
X172089000Y-123747037D01*
X172223733Y-124072312D01*
X172472688Y-124321267D01*
X172797963Y-124456000D01*
X173150037Y-124456000D01*
X173475312Y-124321267D01*
X173724267Y-124072312D01*
X173859000Y-123747037D01*
X173859000Y-123394963D01*
X173724267Y-123069688D01*
X173684000Y-123029421D01*
X173684000Y-122484810D01*
X173688439Y-122507126D01*
X173688439Y-122507127D01*
X173729634Y-122714229D01*
X173886558Y-122949082D01*
X173945841Y-122988694D01*
X177555625Y-126598480D01*
X177595234Y-126657759D01*
X177654513Y-126697368D01*
X177654514Y-126697369D01*
X177830086Y-126814683D01*
X178107115Y-126869787D01*
X178150760Y-126861105D01*
X178185800Y-126896145D01*
X178329066Y-126955487D01*
X177540614Y-127743939D01*
X177492207Y-127627074D01*
X177172926Y-127307793D01*
X176755766Y-127135000D01*
X176399091Y-127135000D01*
X175426494Y-126162404D01*
X175386881Y-126103119D01*
X175152028Y-125946195D01*
X174944926Y-125905000D01*
X174944924Y-125905000D01*
X174875000Y-125891091D01*
X174805076Y-125905000D01*
X174693750Y-125905000D01*
X174705000Y-125893750D01*
X174705000Y-125836250D01*
X174685597Y-125816847D01*
X174608327Y-125630301D01*
X174530526Y-125552500D01*
X174546250Y-125552500D01*
X174705000Y-125393750D01*
X174705000Y-125363690D01*
X174608327Y-125130301D01*
X174429698Y-124951673D01*
X174196309Y-124855000D01*
X174153750Y-124855000D01*
X173995000Y-125013750D01*
X173995000Y-125355000D01*
X173994797Y-125355000D01*
X173970279Y-125295808D01*
X173845000Y-125170529D01*
X173845000Y-125013750D01*
X173686250Y-124855000D01*
X173643691Y-124855000D01*
X173450920Y-124934848D01*
X173396049Y-124912120D01*
X173043975Y-124912120D01*
X172962440Y-124945893D01*
X172820000Y-124917560D01*
X172620000Y-124917560D01*
X172372235Y-124966843D01*
X172173067Y-125099924D01*
X172127809Y-125032191D01*
X171917765Y-124891843D01*
X171670000Y-124842560D01*
X171495628Y-124842560D01*
X171627253Y-124710935D01*
X171761986Y-124385660D01*
X171761986Y-124033586D01*
X171627253Y-123708311D01*
X171586986Y-123668044D01*
X171586986Y-123448906D01*
X171600894Y-123378985D01*
X171586986Y-123309064D01*
X171586986Y-123309060D01*
X171545791Y-123101958D01*
X171388867Y-122867105D01*
X171329585Y-122827494D01*
X169513561Y-121011471D01*
X169513561Y-120954524D01*
X169378828Y-120629249D01*
X169129873Y-120380294D01*
X168804598Y-120245561D01*
X168652000Y-120245561D01*
X168652000Y-119930954D01*
X168517267Y-119605679D01*
X168268312Y-119356724D01*
X167943037Y-119221991D01*
X167590963Y-119221991D01*
X167265688Y-119356724D01*
X167016733Y-119605679D01*
X166882000Y-119930954D01*
X166882000Y-119987899D01*
X166751440Y-120118459D01*
X166751440Y-120095000D01*
X166702157Y-119847235D01*
X166561809Y-119637191D01*
X166351765Y-119496843D01*
X166104000Y-119447560D01*
X165831618Y-119447560D01*
X165559874Y-119335000D01*
X165148126Y-119335000D01*
X164876382Y-119447560D01*
X164604000Y-119447560D01*
X164356235Y-119496843D01*
X164146191Y-119637191D01*
X164084000Y-119730266D01*
X164084000Y-117759734D01*
X164146191Y-117852809D01*
X164356235Y-117993157D01*
X164604000Y-118042440D01*
X166104000Y-118042440D01*
X166351765Y-117993157D01*
X166561809Y-117852809D01*
X166702157Y-117642765D01*
X166751440Y-117395000D01*
X166751440Y-116845000D01*
X166709649Y-116634899D01*
X166754750Y-116680000D01*
X167120309Y-116680000D01*
X167353698Y-116583327D01*
X167532327Y-116404699D01*
X167629000Y-116171310D01*
X167629000Y-115855750D01*
X167470250Y-115697000D01*
X166596000Y-115697000D01*
X166596000Y-115717000D01*
X166342000Y-115717000D01*
X166342000Y-115697000D01*
X166322000Y-115697000D01*
X166322000Y-115443000D01*
X166342000Y-115443000D01*
X166342000Y-115423000D01*
X166596000Y-115423000D01*
X166596000Y-115443000D01*
X167470250Y-115443000D01*
X167629000Y-115284250D01*
X167629000Y-114968690D01*
X167532327Y-114735301D01*
X167353698Y-114556673D01*
X167120309Y-114460000D01*
X166754750Y-114460000D01*
X166739010Y-114475740D01*
X166739010Y-114298107D01*
X166604277Y-113972832D01*
X166355322Y-113723877D01*
X166030047Y-113589144D01*
X165677973Y-113589144D01*
X165352698Y-113723877D01*
X165103743Y-113972832D01*
X164969010Y-114298107D01*
X164969010Y-114355053D01*
X164876503Y-114447560D01*
X164431500Y-114447560D01*
X164092848Y-114514922D01*
X164084000Y-114520834D01*
X164084000Y-112495000D01*
X167390000Y-112495000D01*
X167390000Y-112636037D01*
X167390000Y-112636037D01*
G37*
X167390000Y-112636037D02*
X167524733Y-112961312D01*
X167773688Y-113210267D01*
X168098963Y-113345000D01*
X168451037Y-113345000D01*
X168776312Y-113210267D01*
X168816579Y-113170000D01*
X171045819Y-113170000D01*
X169354392Y-114861428D01*
X169295109Y-114901040D01*
X169138185Y-115135893D01*
X169103546Y-115310037D01*
X169083081Y-115412920D01*
X169096990Y-115482844D01*
X169096990Y-115906783D01*
X169056723Y-115947050D01*
X168921990Y-116272325D01*
X168921990Y-116624399D01*
X169056723Y-116949674D01*
X169305678Y-117198629D01*
X169630953Y-117333362D01*
X169983027Y-117333362D01*
X170018999Y-117318462D01*
X170019000Y-118689031D01*
X170005090Y-118758960D01*
X170059563Y-119032809D01*
X170060195Y-119035988D01*
X170217119Y-119270841D01*
X170276400Y-119310452D01*
X170560302Y-119594353D01*
X170496191Y-119637191D01*
X170355843Y-119847235D01*
X170306560Y-120095000D01*
X170306560Y-120645000D01*
X170355843Y-120892765D01*
X170496191Y-121102809D01*
X170706235Y-121243157D01*
X170841040Y-121269971D01*
X170841185Y-121270322D01*
X171090140Y-121519277D01*
X171415415Y-121654010D01*
X171767489Y-121654010D01*
X172092764Y-121519277D01*
X172264001Y-121348040D01*
X172264000Y-123029421D01*
X172223733Y-123069688D01*
X172089000Y-123394963D01*
X172089000Y-123747037D01*
X172223733Y-124072312D01*
X172472688Y-124321267D01*
X172797963Y-124456000D01*
X173150037Y-124456000D01*
X173475312Y-124321267D01*
X173724267Y-124072312D01*
X173859000Y-123747037D01*
X173859000Y-123394963D01*
X173724267Y-123069688D01*
X173684000Y-123029421D01*
X173684000Y-122484810D01*
X173688439Y-122507126D01*
X173688439Y-122507127D01*
X173729634Y-122714229D01*
X173886558Y-122949082D01*
X173945841Y-122988694D01*
X177555625Y-126598480D01*
X177595234Y-126657759D01*
X177654513Y-126697368D01*
X177654514Y-126697369D01*
X177830086Y-126814683D01*
X178107115Y-126869787D01*
X178150760Y-126861105D01*
X178185800Y-126896145D01*
X178329066Y-126955487D01*
X177540614Y-127743939D01*
X177492207Y-127627074D01*
X177172926Y-127307793D01*
X176755766Y-127135000D01*
X176399091Y-127135000D01*
X175426494Y-126162404D01*
X175386881Y-126103119D01*
X175152028Y-125946195D01*
X174944926Y-125905000D01*
X174944924Y-125905000D01*
X174875000Y-125891091D01*
X174805076Y-125905000D01*
X174693750Y-125905000D01*
X174705000Y-125893750D01*
X174705000Y-125836250D01*
X174685597Y-125816847D01*
X174608327Y-125630301D01*
X174530526Y-125552500D01*
X174546250Y-125552500D01*
X174705000Y-125393750D01*
X174705000Y-125363690D01*
X174608327Y-125130301D01*
X174429698Y-124951673D01*
X174196309Y-124855000D01*
X174153750Y-124855000D01*
X173995000Y-125013750D01*
X173995000Y-125355000D01*
X173994797Y-125355000D01*
X173970279Y-125295808D01*
X173845000Y-125170529D01*
X173845000Y-125013750D01*
X173686250Y-124855000D01*
X173643691Y-124855000D01*
X173450920Y-124934848D01*
X173396049Y-124912120D01*
X173043975Y-124912120D01*
X172962440Y-124945893D01*
X172820000Y-124917560D01*
X172620000Y-124917560D01*
X172372235Y-124966843D01*
X172173067Y-125099924D01*
X172127809Y-125032191D01*
X171917765Y-124891843D01*
X171670000Y-124842560D01*
X171495628Y-124842560D01*
X171627253Y-124710935D01*
X171761986Y-124385660D01*
X171761986Y-124033586D01*
X171627253Y-123708311D01*
X171586986Y-123668044D01*
X171586986Y-123448906D01*
X171600894Y-123378985D01*
X171586986Y-123309064D01*
X171586986Y-123309060D01*
X171545791Y-123101958D01*
X171388867Y-122867105D01*
X171329585Y-122827494D01*
X169513561Y-121011471D01*
X169513561Y-120954524D01*
X169378828Y-120629249D01*
X169129873Y-120380294D01*
X168804598Y-120245561D01*
X168652000Y-120245561D01*
X168652000Y-119930954D01*
X168517267Y-119605679D01*
X168268312Y-119356724D01*
X167943037Y-119221991D01*
X167590963Y-119221991D01*
X167265688Y-119356724D01*
X167016733Y-119605679D01*
X166882000Y-119930954D01*
X166882000Y-119987899D01*
X166751440Y-120118459D01*
X166751440Y-120095000D01*
X166702157Y-119847235D01*
X166561809Y-119637191D01*
X166351765Y-119496843D01*
X166104000Y-119447560D01*
X165831618Y-119447560D01*
X165559874Y-119335000D01*
X165148126Y-119335000D01*
X164876382Y-119447560D01*
X164604000Y-119447560D01*
X164356235Y-119496843D01*
X164146191Y-119637191D01*
X164084000Y-119730266D01*
X164084000Y-117759734D01*
X164146191Y-117852809D01*
X164356235Y-117993157D01*
X164604000Y-118042440D01*
X166104000Y-118042440D01*
X166351765Y-117993157D01*
X166561809Y-117852809D01*
X166702157Y-117642765D01*
X166751440Y-117395000D01*
X166751440Y-116845000D01*
X166709649Y-116634899D01*
X166754750Y-116680000D01*
X167120309Y-116680000D01*
X167353698Y-116583327D01*
X167532327Y-116404699D01*
X167629000Y-116171310D01*
X167629000Y-115855750D01*
X167470250Y-115697000D01*
X166596000Y-115697000D01*
X166596000Y-115717000D01*
X166342000Y-115717000D01*
X166342000Y-115697000D01*
X166322000Y-115697000D01*
X166322000Y-115443000D01*
X166342000Y-115443000D01*
X166342000Y-115423000D01*
X166596000Y-115423000D01*
X166596000Y-115443000D01*
X167470250Y-115443000D01*
X167629000Y-115284250D01*
X167629000Y-114968690D01*
X167532327Y-114735301D01*
X167353698Y-114556673D01*
X167120309Y-114460000D01*
X166754750Y-114460000D01*
X166739010Y-114475740D01*
X166739010Y-114298107D01*
X166604277Y-113972832D01*
X166355322Y-113723877D01*
X166030047Y-113589144D01*
X165677973Y-113589144D01*
X165352698Y-113723877D01*
X165103743Y-113972832D01*
X164969010Y-114298107D01*
X164969010Y-114355053D01*
X164876503Y-114447560D01*
X164431500Y-114447560D01*
X164092848Y-114514922D01*
X164084000Y-114520834D01*
X164084000Y-112495000D01*
X167390000Y-112495000D01*
X167390000Y-112636037D01*
G36*
X176174233Y-118302809D02*
X176423188Y-118551764D01*
X176748463Y-118686497D01*
X176791633Y-118686497D01*
X176803504Y-118704263D01*
X176924148Y-118784875D01*
X177038356Y-118861187D01*
X177315385Y-118916291D01*
X177385311Y-118902382D01*
X177580171Y-118902382D01*
X177115952Y-119366602D01*
X177054582Y-119407608D01*
X176892133Y-119650731D01*
X176869019Y-119766930D01*
X176328466Y-119226378D01*
X176288855Y-119167096D01*
X176054002Y-119010172D01*
X176050262Y-119009428D01*
X175776974Y-118955067D01*
X175707045Y-118968977D01*
X173993628Y-118968975D01*
X174103348Y-118923528D01*
X174352303Y-118674573D01*
X174388513Y-118587153D01*
X174597537Y-118500573D01*
X174846492Y-118251618D01*
X174938769Y-118028842D01*
X176060752Y-118028842D01*
X176174233Y-118302809D01*
X176174233Y-118302809D01*
G37*
X176174233Y-118302809D02*
X176423188Y-118551764D01*
X176748463Y-118686497D01*
X176791633Y-118686497D01*
X176803504Y-118704263D01*
X176924148Y-118784875D01*
X177038356Y-118861187D01*
X177315385Y-118916291D01*
X177385311Y-118902382D01*
X177580171Y-118902382D01*
X177115952Y-119366602D01*
X177054582Y-119407608D01*
X176892133Y-119650731D01*
X176869019Y-119766930D01*
X176328466Y-119226378D01*
X176288855Y-119167096D01*
X176054002Y-119010172D01*
X176050262Y-119009428D01*
X175776974Y-118955067D01*
X175707045Y-118968977D01*
X173993628Y-118968975D01*
X174103348Y-118923528D01*
X174352303Y-118674573D01*
X174388513Y-118587153D01*
X174597537Y-118500573D01*
X174846492Y-118251618D01*
X174938769Y-118028842D01*
X176060752Y-118028842D01*
X176174233Y-118302809D01*
G36*
X181647060Y-112590000D02*
X181647060Y-114740000D01*
X181715374Y-115083435D01*
X181909914Y-115374586D01*
X182201065Y-115569126D01*
X182544500Y-115637440D01*
X183469500Y-115637440D01*
X183812935Y-115569126D01*
X184104086Y-115374586D01*
X184298626Y-115083435D01*
X184366940Y-114740000D01*
X184366940Y-114375000D01*
X184810910Y-114375000D01*
X185007560Y-114571651D01*
X185007560Y-115115000D01*
X185056843Y-115362765D01*
X185197191Y-115572809D01*
X185345001Y-115671573D01*
X185345001Y-115774304D01*
X185332235Y-115776843D01*
X185122191Y-115917191D01*
X184981843Y-116127235D01*
X184932560Y-116375000D01*
X184932560Y-116439992D01*
X184850093Y-116495095D01*
X184809088Y-116556463D01*
X184062465Y-117303087D01*
X184032104Y-117323373D01*
X183944720Y-117359569D01*
X183858149Y-117446140D01*
X183557025Y-117321410D01*
X183362721Y-117321410D01*
X183384000Y-117270037D01*
X183384000Y-116917963D01*
X183249267Y-116592688D01*
X183000312Y-116343733D01*
X182675037Y-116209000D01*
X182322963Y-116209000D01*
X181997688Y-116343733D01*
X181957421Y-116384000D01*
X180444094Y-116384000D01*
X180444094Y-116292953D01*
X180418023Y-116230012D01*
X180586441Y-116061594D01*
X180721174Y-115736319D01*
X180721174Y-115592351D01*
X180837935Y-115569126D01*
X181129086Y-115374586D01*
X181323626Y-115083435D01*
X181391940Y-114740000D01*
X181391940Y-112590000D01*
X181373043Y-112495000D01*
X181665957Y-112495000D01*
X181647060Y-112590000D01*
X181647060Y-112590000D01*
G37*
X181647060Y-112590000D02*
X181647060Y-114740000D01*
X181715374Y-115083435D01*
X181909914Y-115374586D01*
X182201065Y-115569126D01*
X182544500Y-115637440D01*
X183469500Y-115637440D01*
X183812935Y-115569126D01*
X184104086Y-115374586D01*
X184298626Y-115083435D01*
X184366940Y-114740000D01*
X184366940Y-114375000D01*
X184810910Y-114375000D01*
X185007560Y-114571651D01*
X185007560Y-115115000D01*
X185056843Y-115362765D01*
X185197191Y-115572809D01*
X185345001Y-115671573D01*
X185345001Y-115774304D01*
X185332235Y-115776843D01*
X185122191Y-115917191D01*
X184981843Y-116127235D01*
X184932560Y-116375000D01*
X184932560Y-116439992D01*
X184850093Y-116495095D01*
X184809088Y-116556463D01*
X184062465Y-117303087D01*
X184032104Y-117323373D01*
X183944720Y-117359569D01*
X183858149Y-117446140D01*
X183557025Y-117321410D01*
X183362721Y-117321410D01*
X183384000Y-117270037D01*
X183384000Y-116917963D01*
X183249267Y-116592688D01*
X183000312Y-116343733D01*
X182675037Y-116209000D01*
X182322963Y-116209000D01*
X181997688Y-116343733D01*
X181957421Y-116384000D01*
X180444094Y-116384000D01*
X180444094Y-116292953D01*
X180418023Y-116230012D01*
X180586441Y-116061594D01*
X180721174Y-115736319D01*
X180721174Y-115592351D01*
X180837935Y-115569126D01*
X181129086Y-115374586D01*
X181323626Y-115083435D01*
X181391940Y-114740000D01*
X181391940Y-112590000D01*
X181373043Y-112495000D01*
X181665957Y-112495000D01*
X181647060Y-112590000D01*
G36*
X187132000Y-112538000D02*
X187152000Y-112538000D01*
X187152000Y-112792000D01*
X187132000Y-112792000D01*
X187132000Y-113591250D01*
X187225000Y-113684250D01*
X187225000Y-115828450D01*
X187147765Y-115776843D01*
X186900000Y-115727560D01*
X186765000Y-115727560D01*
X186765000Y-115671573D01*
X186912809Y-115572809D01*
X187053157Y-115362765D01*
X187102440Y-115115000D01*
X187102440Y-114215000D01*
X187053157Y-113967235D01*
X186912809Y-113757191D01*
X186792469Y-113676781D01*
X186878000Y-113591250D01*
X186878000Y-112792000D01*
X186858000Y-112792000D01*
X186858000Y-112538000D01*
X186878000Y-112538000D01*
X186878000Y-112518000D01*
X187132000Y-112518000D01*
X187132000Y-112538000D01*
X187132000Y-112538000D01*
G37*
X187132000Y-112538000D02*
X187152000Y-112538000D01*
X187152000Y-112792000D01*
X187132000Y-112792000D01*
X187132000Y-113591250D01*
X187225000Y-113684250D01*
X187225000Y-115828450D01*
X187147765Y-115776843D01*
X186900000Y-115727560D01*
X186765000Y-115727560D01*
X186765000Y-115671573D01*
X186912809Y-115572809D01*
X187053157Y-115362765D01*
X187102440Y-115115000D01*
X187102440Y-114215000D01*
X187053157Y-113967235D01*
X186912809Y-113757191D01*
X186792469Y-113676781D01*
X186878000Y-113591250D01*
X186878000Y-112792000D01*
X186858000Y-112792000D01*
X186858000Y-112538000D01*
X186878000Y-112538000D01*
X186878000Y-112518000D01*
X187132000Y-112518000D01*
X187132000Y-112538000D01*
G36*
X170956000Y-115443000D02*
X170976000Y-115443000D01*
X170976000Y-115697000D01*
X170956000Y-115697000D01*
X170956000Y-115717000D01*
X170702000Y-115717000D01*
X170702000Y-115697000D01*
X170682000Y-115697000D01*
X170682000Y-115542000D01*
X170801000Y-115423000D01*
X170956000Y-115423000D01*
X170956000Y-115443000D01*
X170956000Y-115443000D01*
G37*
X170956000Y-115443000D02*
X170976000Y-115443000D01*
X170976000Y-115697000D01*
X170956000Y-115697000D01*
X170956000Y-115717000D01*
X170702000Y-115717000D01*
X170702000Y-115697000D01*
X170682000Y-115697000D01*
X170682000Y-115542000D01*
X170801000Y-115423000D01*
X170956000Y-115423000D01*
X170956000Y-115443000D01*
G04 #@! TD*
M02*
