M48
;DRILL file {KiCad (5.0.0-rc2-200-g1f6f76beb)} date Tue Feb 25 20:58:21 2020
;FORMAT={-:-/ absolute / inch / decimal}
FMAT,2
INCH,TZ
T1C0.0118
T2C0.0157
T3C0.0197
%
G90
G05
M72
T1
X6.495Y-4.9
X6.5297Y-4.5069
X6.57Y-4.9
X6.605Y-4.7286
X6.6142Y-5.2264
X6.625Y-4.4276
X6.6389Y-4.7689
X6.6853Y-4.5846
X6.69Y-4.89
X6.6989Y-4.9483
X6.7094Y-5.275
X6.7126Y-5.2362
X6.7157Y-4.9852
X6.7274Y-4.8901
X6.7556Y-4.7547
X6.8067Y-4.7439
X6.81Y-4.47
X6.81Y-4.865
X6.8197Y-4.9526
X6.8204Y-4.6313
X6.8347Y-4.6525
X6.8398Y-4.6147
X6.8423Y-4.5773
X6.8467Y-4.5011
X6.8542Y-4.6358
X6.8656Y-4.5184
X6.8661Y-4.7939
X6.875Y-5.075
X6.8788Y-4.5404
X6.892Y-5.372
X6.9385Y-5.178
X6.9512Y-4.7981
X6.955Y-5.275
X6.9609Y-4.7744
X6.9655Y-4.6379
X7.0039Y-4.463
X7.005Y-4.5328
X7.0112Y-4.7302
X7.0138Y-4.8192
X7.0349Y-4.9664
X7.05Y-4.8878
X7.0518Y-4.8621
X7.0693Y-4.5854
X7.0762Y-4.7974
X7.0791Y-4.6532
X7.0802Y-4.5496
X7.0837Y-5.0094
X7.0988Y-5.325
X7.1Y-4.825
X7.1021Y-5.0928
X7.1307Y-5.0951
X7.1823Y-4.6506
X7.185Y-4.61
X7.1963Y-5.0053
X7.1963Y-5.0841
X7.1974Y-5.043
X7.2197Y-4.6538
X7.2533Y-4.7127
X7.275Y-4.775
X7.2929Y-4.6797
X7.35Y-4.775
X7.35Y-5.0512
X7.38Y-4.655
T2
X6.478Y-5.05
X6.4824Y-4.8281
X6.51Y-4.739
X6.616Y-5.042
X6.6406Y-5.075
X6.6989Y-4.6893
X6.7363Y-5.0091
X6.76Y-4.611
X6.7707Y-5.0319
X6.788Y-4.922
X6.8Y-5.3474
X6.8244Y-5.1156
X6.8418Y-4.6832
X6.845Y-4.76
X6.86Y-4.46
X6.925Y-5.35
X6.9282Y-4.8459
X6.945Y-4.7
X6.9611Y-4.4839
X6.97Y-5.09
X6.9709Y-4.8647
X7.0132Y-4.7873
X7.045Y-4.6911
X7.0591Y-4.8307
X7.1014Y-5.0613
X7.13Y-4.896
X7.136Y-4.846
X7.1665Y-4.7468
X7.175Y-4.8678
X7.1805Y-4.7815
X7.21Y-4.705
X7.265Y-4.655
X7.275Y-4.57
X7.3742Y-4.624
X7.3744Y-4.555
T3
X6.4856Y-5.35
X6.525Y-5.35
T0
M30
