G04 #@! TF.GenerationSoftware,KiCad,Pcbnew,(5.0.0-rc2-200-g1f6f76beb)*
G04 #@! TF.CreationDate,2020-02-24T22:29:36-05:00*
G04 #@! TF.ProjectId,watch-logic,77617463682D6C6F6769632E6B696361,rev?*
G04 #@! TF.SameCoordinates,Original*
G04 #@! TF.FileFunction,Legend,Top*
G04 #@! TF.FilePolarity,Positive*
%FSLAX46Y46*%
G04 Gerber Fmt 4.6, Leading zero omitted, Abs format (unit mm)*
G04 Created by KiCad (PCBNEW (5.0.0-rc2-200-g1f6f76beb)) date Mon Feb 24 22:29:36 2020*
%MOMM*%
%LPD*%
G01*
G04 APERTURE LIST*
%ADD10C,0.125000*%
%ADD11C,0.120000*%
%ADD12C,0.150000*%
%ADD13C,0.200000*%
%ADD14C,0.127000*%
G04 APERTURE END LIST*
D10*
X181785390Y-114333257D02*
X181785390Y-114618971D01*
X181785390Y-114476114D02*
X181285390Y-114476114D01*
X181356819Y-114523733D01*
X181404438Y-114571352D01*
X181428247Y-114618971D01*
X181785390Y-113857066D02*
X181785390Y-114142780D01*
X181785390Y-113999923D02*
X181285390Y-113999923D01*
X181356819Y-114047542D01*
X181404438Y-114095161D01*
X181428247Y-114142780D01*
X181785390Y-113642780D02*
X181452057Y-113642780D01*
X181499676Y-113642780D02*
X181475866Y-113618971D01*
X181452057Y-113571352D01*
X181452057Y-113499923D01*
X181475866Y-113452304D01*
X181523485Y-113428495D01*
X181785390Y-113428495D01*
X181523485Y-113428495D02*
X181475866Y-113404685D01*
X181452057Y-113357066D01*
X181452057Y-113285638D01*
X181475866Y-113238019D01*
X181523485Y-113214209D01*
X181785390Y-113214209D01*
X181523485Y-112809447D02*
X181523485Y-112976114D01*
X181785390Y-112976114D02*
X181285390Y-112976114D01*
X181285390Y-112738019D01*
X169491790Y-119242590D02*
X169253695Y-119409257D01*
X169491790Y-119528304D02*
X168991790Y-119528304D01*
X168991790Y-119337828D01*
X169015600Y-119290209D01*
X169039409Y-119266400D01*
X169087028Y-119242590D01*
X169158457Y-119242590D01*
X169206076Y-119266400D01*
X169229885Y-119290209D01*
X169253695Y-119337828D01*
X169253695Y-119528304D01*
X169229885Y-119028304D02*
X169229885Y-118861638D01*
X169491790Y-118790209D02*
X169491790Y-119028304D01*
X168991790Y-119028304D01*
X168991790Y-118790209D01*
X169467980Y-118599733D02*
X169491790Y-118528304D01*
X169491790Y-118409257D01*
X169467980Y-118361638D01*
X169444171Y-118337828D01*
X169396552Y-118314019D01*
X169348933Y-118314019D01*
X169301314Y-118337828D01*
X169277504Y-118361638D01*
X169253695Y-118409257D01*
X169229885Y-118504495D01*
X169206076Y-118552114D01*
X169182266Y-118575923D01*
X169134647Y-118599733D01*
X169087028Y-118599733D01*
X169039409Y-118575923D01*
X169015600Y-118552114D01*
X168991790Y-118504495D01*
X168991790Y-118385447D01*
X169015600Y-118314019D01*
X169229885Y-118099733D02*
X169229885Y-117933066D01*
X169491790Y-117861638D02*
X169491790Y-118099733D01*
X168991790Y-118099733D01*
X168991790Y-117861638D01*
X168991790Y-117718780D02*
X168991790Y-117433066D01*
X169491790Y-117575923D02*
X168991790Y-117575923D01*
X167045485Y-120123542D02*
X167069295Y-120052114D01*
X167093104Y-120028304D01*
X167140723Y-120004495D01*
X167212152Y-120004495D01*
X167259771Y-120028304D01*
X167283580Y-120052114D01*
X167307390Y-120099733D01*
X167307390Y-120290209D01*
X166807390Y-120290209D01*
X166807390Y-120123542D01*
X166831200Y-120075923D01*
X166855009Y-120052114D01*
X166902628Y-120028304D01*
X166950247Y-120028304D01*
X166997866Y-120052114D01*
X167021676Y-120075923D01*
X167045485Y-120123542D01*
X167045485Y-120290209D01*
X166807390Y-119694971D02*
X166807390Y-119599733D01*
X166831200Y-119552114D01*
X166878819Y-119504495D01*
X166974057Y-119480685D01*
X167140723Y-119480685D01*
X167235961Y-119504495D01*
X167283580Y-119552114D01*
X167307390Y-119599733D01*
X167307390Y-119694971D01*
X167283580Y-119742590D01*
X167235961Y-119790209D01*
X167140723Y-119814019D01*
X166974057Y-119814019D01*
X166878819Y-119790209D01*
X166831200Y-119742590D01*
X166807390Y-119694971D01*
X166807390Y-119171161D02*
X166807390Y-119075923D01*
X166831200Y-119028304D01*
X166878819Y-118980685D01*
X166974057Y-118956876D01*
X167140723Y-118956876D01*
X167235961Y-118980685D01*
X167283580Y-119028304D01*
X167307390Y-119075923D01*
X167307390Y-119171161D01*
X167283580Y-119218780D01*
X167235961Y-119266400D01*
X167140723Y-119290209D01*
X166974057Y-119290209D01*
X166878819Y-119266400D01*
X166831200Y-119218780D01*
X166807390Y-119171161D01*
X166807390Y-118814019D02*
X166807390Y-118528304D01*
X167307390Y-118671161D02*
X166807390Y-118671161D01*
X167307390Y-118123542D02*
X167307390Y-118361638D01*
X166807390Y-118361638D01*
X166807390Y-117861638D02*
X166807390Y-117766400D01*
X166831200Y-117718780D01*
X166878819Y-117671161D01*
X166974057Y-117647352D01*
X167140723Y-117647352D01*
X167235961Y-117671161D01*
X167283580Y-117718780D01*
X167307390Y-117766400D01*
X167307390Y-117861638D01*
X167283580Y-117909257D01*
X167235961Y-117956876D01*
X167140723Y-117980685D01*
X166974057Y-117980685D01*
X166878819Y-117956876D01*
X166831200Y-117909257D01*
X166807390Y-117861638D01*
X167164533Y-117456876D02*
X167164533Y-117218780D01*
X167307390Y-117504495D02*
X166807390Y-117337828D01*
X167307390Y-117171161D01*
X167307390Y-117004495D02*
X166807390Y-117004495D01*
X166807390Y-116885447D01*
X166831200Y-116814019D01*
X166878819Y-116766400D01*
X166926438Y-116742590D01*
X167021676Y-116718780D01*
X167093104Y-116718780D01*
X167188342Y-116742590D01*
X167235961Y-116766400D01*
X167283580Y-116814019D01*
X167307390Y-116885447D01*
X167307390Y-117004495D01*
X167080380Y-127703923D02*
X167104190Y-127632495D01*
X167104190Y-127513447D01*
X167080380Y-127465828D01*
X167056571Y-127442019D01*
X167008952Y-127418209D01*
X166961333Y-127418209D01*
X166913714Y-127442019D01*
X166889904Y-127465828D01*
X166866095Y-127513447D01*
X166842285Y-127608685D01*
X166818476Y-127656304D01*
X166794666Y-127680114D01*
X166747047Y-127703923D01*
X166699428Y-127703923D01*
X166651809Y-127680114D01*
X166628000Y-127656304D01*
X166604190Y-127608685D01*
X166604190Y-127489638D01*
X166628000Y-127418209D01*
X166604190Y-127251542D02*
X167104190Y-127132495D01*
X166747047Y-127037257D01*
X167104190Y-126942019D01*
X166604190Y-126822971D01*
X167104190Y-126632495D02*
X166604190Y-126632495D01*
X166604190Y-126513447D01*
X166628000Y-126442019D01*
X166675619Y-126394400D01*
X166723238Y-126370590D01*
X166818476Y-126346780D01*
X166889904Y-126346780D01*
X166985142Y-126370590D01*
X167032761Y-126394400D01*
X167080380Y-126442019D01*
X167104190Y-126513447D01*
X167104190Y-126632495D01*
X167104190Y-126132495D02*
X166604190Y-126132495D01*
X166604190Y-125799161D02*
X166604190Y-125703923D01*
X166628000Y-125656304D01*
X166675619Y-125608685D01*
X166770857Y-125584876D01*
X166937523Y-125584876D01*
X167032761Y-125608685D01*
X167080380Y-125656304D01*
X167104190Y-125703923D01*
X167104190Y-125799161D01*
X167080380Y-125846780D01*
X167032761Y-125894400D01*
X166937523Y-125918209D01*
X166770857Y-125918209D01*
X166675619Y-125894400D01*
X166628000Y-125846780D01*
X166604190Y-125799161D01*
X164032380Y-127568152D02*
X164056190Y-127496723D01*
X164056190Y-127377676D01*
X164032380Y-127330057D01*
X164008571Y-127306247D01*
X163960952Y-127282438D01*
X163913333Y-127282438D01*
X163865714Y-127306247D01*
X163841904Y-127330057D01*
X163818095Y-127377676D01*
X163794285Y-127472914D01*
X163770476Y-127520533D01*
X163746666Y-127544342D01*
X163699047Y-127568152D01*
X163651428Y-127568152D01*
X163603809Y-127544342D01*
X163580000Y-127520533D01*
X163556190Y-127472914D01*
X163556190Y-127353866D01*
X163580000Y-127282438D01*
X163556190Y-127115771D02*
X164056190Y-126996723D01*
X163699047Y-126901485D01*
X164056190Y-126806247D01*
X163556190Y-126687200D01*
X164056190Y-126496723D02*
X163556190Y-126496723D01*
X163556190Y-126377676D01*
X163580000Y-126306247D01*
X163627619Y-126258628D01*
X163675238Y-126234819D01*
X163770476Y-126211009D01*
X163841904Y-126211009D01*
X163937142Y-126234819D01*
X163984761Y-126258628D01*
X164032380Y-126306247D01*
X164056190Y-126377676D01*
X164056190Y-126496723D01*
X164008571Y-125711009D02*
X164032380Y-125734819D01*
X164056190Y-125806247D01*
X164056190Y-125853866D01*
X164032380Y-125925295D01*
X163984761Y-125972914D01*
X163937142Y-125996723D01*
X163841904Y-126020533D01*
X163770476Y-126020533D01*
X163675238Y-125996723D01*
X163627619Y-125972914D01*
X163580000Y-125925295D01*
X163556190Y-125853866D01*
X163556190Y-125806247D01*
X163580000Y-125734819D01*
X163603809Y-125711009D01*
X164056190Y-125258628D02*
X164056190Y-125496723D01*
X163556190Y-125496723D01*
X164056190Y-125091961D02*
X163556190Y-125091961D01*
X164056190Y-124806247D02*
X163770476Y-125020533D01*
X163556190Y-124806247D02*
X163841904Y-125091961D01*
X164567657Y-136738514D02*
X164948609Y-136738514D01*
X165567657Y-136738514D02*
X165948609Y-136738514D01*
X165758133Y-136928990D02*
X165758133Y-136548038D01*
X166567657Y-136928990D02*
X166567657Y-136428990D01*
X166567657Y-136619466D02*
X166615276Y-136595657D01*
X166710514Y-136595657D01*
X166758133Y-136619466D01*
X166781942Y-136643276D01*
X166805752Y-136690895D01*
X166805752Y-136833752D01*
X166781942Y-136881371D01*
X166758133Y-136905180D01*
X166710514Y-136928990D01*
X166615276Y-136928990D01*
X166567657Y-136905180D01*
X167234323Y-136595657D02*
X167234323Y-136928990D01*
X167020038Y-136595657D02*
X167020038Y-136857561D01*
X167043847Y-136905180D01*
X167091466Y-136928990D01*
X167162895Y-136928990D01*
X167210514Y-136905180D01*
X167234323Y-136881371D01*
X167424800Y-136595657D02*
X167686704Y-136595657D01*
X167424800Y-136928990D01*
X167686704Y-136928990D01*
X167829561Y-136595657D02*
X168091466Y-136595657D01*
X167829561Y-136928990D01*
X168091466Y-136928990D01*
X168472419Y-136905180D02*
X168424800Y-136928990D01*
X168329561Y-136928990D01*
X168281942Y-136905180D01*
X168258133Y-136857561D01*
X168258133Y-136667085D01*
X168281942Y-136619466D01*
X168329561Y-136595657D01*
X168424800Y-136595657D01*
X168472419Y-136619466D01*
X168496228Y-136667085D01*
X168496228Y-136714704D01*
X168258133Y-136762323D01*
X168710514Y-136928990D02*
X168710514Y-136595657D01*
X168710514Y-136690895D02*
X168734323Y-136643276D01*
X168758133Y-136619466D01*
X168805752Y-136595657D01*
X168853371Y-136595657D01*
X175234647Y-134268400D02*
X175187028Y-134244590D01*
X175115600Y-134244590D01*
X175044171Y-134268400D01*
X174996552Y-134316019D01*
X174972742Y-134363638D01*
X174948933Y-134458876D01*
X174948933Y-134530304D01*
X174972742Y-134625542D01*
X174996552Y-134673161D01*
X175044171Y-134720780D01*
X175115600Y-134744590D01*
X175163219Y-134744590D01*
X175234647Y-134720780D01*
X175258457Y-134696971D01*
X175258457Y-134530304D01*
X175163219Y-134530304D01*
X175472742Y-134744590D02*
X175472742Y-134244590D01*
X175758457Y-134744590D01*
X175758457Y-134244590D01*
X175996552Y-134744590D02*
X175996552Y-134244590D01*
X176115600Y-134244590D01*
X176187028Y-134268400D01*
X176234647Y-134316019D01*
X176258457Y-134363638D01*
X176282266Y-134458876D01*
X176282266Y-134530304D01*
X176258457Y-134625542D01*
X176234647Y-134673161D01*
X176187028Y-134720780D01*
X176115600Y-134744590D01*
X175996552Y-134744590D01*
X171405657Y-134604914D02*
X171786609Y-134604914D01*
X171596133Y-134795390D02*
X171596133Y-134414438D01*
X171977085Y-134295390D02*
X172286609Y-134295390D01*
X172119942Y-134485866D01*
X172191371Y-134485866D01*
X172238990Y-134509676D01*
X172262800Y-134533485D01*
X172286609Y-134581104D01*
X172286609Y-134700152D01*
X172262800Y-134747771D01*
X172238990Y-134771580D01*
X172191371Y-134795390D01*
X172048514Y-134795390D01*
X172000895Y-134771580D01*
X171977085Y-134747771D01*
X172453276Y-134462057D02*
X172572323Y-134795390D01*
X172691371Y-134462057D01*
X172834228Y-134295390D02*
X173143752Y-134295390D01*
X172977085Y-134485866D01*
X173048514Y-134485866D01*
X173096133Y-134509676D01*
X173119942Y-134533485D01*
X173143752Y-134581104D01*
X173143752Y-134700152D01*
X173119942Y-134747771D01*
X173096133Y-134771580D01*
X173048514Y-134795390D01*
X172905657Y-134795390D01*
X172858038Y-134771580D01*
X172834228Y-134747771D01*
D11*
G04 #@! TO.C,Y1*
X178727000Y-115409000D02*
X178727000Y-112559000D01*
X178727000Y-112559000D02*
X177127000Y-112559000D01*
X177127000Y-112559000D02*
X177127000Y-115409000D01*
G04 #@! TO.C,C1*
X182121564Y-115025000D02*
X180917436Y-115025000D01*
X182121564Y-112305000D02*
X180917436Y-112305000D01*
G04 #@! TO.C,D1*
X184475000Y-114425000D02*
X185405000Y-114425000D01*
X187635000Y-114425000D02*
X186705000Y-114425000D01*
X187635000Y-114425000D02*
X187635000Y-112265000D01*
X184475000Y-114425000D02*
X184475000Y-112965000D01*
G04 #@! TO.C,J3*
X164175000Y-135195000D02*
X164175000Y-135495507D01*
X164175000Y-136284493D02*
X164175000Y-136585000D01*
X165050000Y-135195000D02*
X164175000Y-135195000D01*
X165050000Y-136585000D02*
X164175000Y-136585000D01*
X165050000Y-135195000D02*
X165050000Y-135281724D01*
X165050000Y-136498276D02*
X165050000Y-136585000D01*
X165735000Y-135195000D02*
X166420000Y-135195000D01*
X166420000Y-135195000D02*
X166420000Y-135890000D01*
G04 #@! TO.C,JP1*
X185690000Y-128350000D02*
X185690000Y-126950000D01*
X186390000Y-126250000D02*
X186990000Y-126250000D01*
X187690000Y-126950000D02*
X187690000Y-128350000D01*
X186990000Y-129050000D02*
X186390000Y-129050000D01*
X186390000Y-129050000D02*
G75*
G02X185690000Y-128350000I0J700000D01*
G01*
X187690000Y-128350000D02*
G75*
G02X186990000Y-129050000I-700000J0D01*
G01*
X186990000Y-126250000D02*
G75*
G02X187690000Y-126950000I0J-700000D01*
G01*
X185690000Y-126950000D02*
G75*
G02X186390000Y-126250000I700000J0D01*
G01*
G04 #@! TO.C,JP2*
X181660000Y-134255000D02*
G75*
G02X182360000Y-134955000I0J-700000D01*
G01*
X182360000Y-135555000D02*
G75*
G02X181660000Y-136255000I-700000J0D01*
G01*
X180260000Y-136255000D02*
G75*
G02X179560000Y-135555000I0J700000D01*
G01*
X179560000Y-134955000D02*
G75*
G02X180260000Y-134255000I700000J0D01*
G01*
X179560000Y-135555000D02*
X179560000Y-134955000D01*
X181660000Y-136255000D02*
X180260000Y-136255000D01*
X182360000Y-134955000D02*
X182360000Y-135555000D01*
X180260000Y-134255000D02*
X181660000Y-134255000D01*
G04 #@! TO.C,Q1*
X163520000Y-132205000D02*
X164450000Y-132205000D01*
X166680000Y-132205000D02*
X165750000Y-132205000D01*
X166680000Y-132205000D02*
X166680000Y-130045000D01*
X163520000Y-132205000D02*
X163520000Y-130745000D01*
G04 #@! TO.C,Q2*
X167965000Y-132205000D02*
X167965000Y-130745000D01*
X171125000Y-132205000D02*
X171125000Y-130045000D01*
X171125000Y-132205000D02*
X170195000Y-132205000D01*
X167965000Y-132205000D02*
X168895000Y-132205000D01*
G04 #@! TO.C,R3*
X171532733Y-116080000D02*
X171875267Y-116080000D01*
X171532733Y-115060000D02*
X171875267Y-115060000D01*
G04 #@! TO.C,R4*
X165765267Y-116080000D02*
X165422733Y-116080000D01*
X165765267Y-115060000D02*
X165422733Y-115060000D01*
G04 #@! TO.C,R5*
X183640000Y-123601267D02*
X183640000Y-123258733D01*
X184660000Y-123601267D02*
X184660000Y-123258733D01*
G04 #@! TO.C,R6*
X182755000Y-123601267D02*
X182755000Y-123258733D01*
X181735000Y-123601267D02*
X181735000Y-123258733D01*
G04 #@! TO.C,R7*
X164928733Y-129415000D02*
X165271267Y-129415000D01*
X164928733Y-128395000D02*
X165271267Y-128395000D01*
G04 #@! TO.C,R8*
X164928733Y-133475000D02*
X165271267Y-133475000D01*
X164928733Y-134495000D02*
X165271267Y-134495000D01*
G04 #@! TO.C,R9*
X169373733Y-129415000D02*
X169716267Y-129415000D01*
X169373733Y-128395000D02*
X169716267Y-128395000D01*
G04 #@! TO.C,R10*
X169716267Y-134495000D02*
X169373733Y-134495000D01*
X169716267Y-133475000D02*
X169373733Y-133475000D01*
G04 #@! TO.C,SW_BOOT1*
X166474000Y-117125000D02*
X166474000Y-120365000D01*
X166474000Y-120365000D02*
X166374000Y-120365000D01*
X166474000Y-117125000D02*
X166374000Y-117125000D01*
X164234000Y-117125000D02*
X164234000Y-120365000D01*
X164334000Y-120365000D02*
X164234000Y-120365000D01*
X164334000Y-117125000D02*
X164234000Y-117125000D01*
G04 #@! TO.C,SW_RESET1*
X172724000Y-120365000D02*
X172824000Y-120365000D01*
X172724000Y-117125000D02*
X172824000Y-117125000D01*
X172824000Y-120365000D02*
X172824000Y-117125000D01*
X170584000Y-120365000D02*
X170684000Y-120365000D01*
X170584000Y-117125000D02*
X170684000Y-117125000D01*
X170584000Y-120365000D02*
X170584000Y-117125000D01*
G04 #@! TO.C,TP1*
X173420000Y-135890000D02*
G75*
G03X173420000Y-135890000I-700000J0D01*
G01*
G04 #@! TO.C,TP2*
X176595000Y-135890000D02*
G75*
G03X176595000Y-135890000I-700000J0D01*
G01*
G04 #@! TO.C,TP3*
X165673000Y-124460000D02*
G75*
G03X165673000Y-124460000I-700000J0D01*
G01*
G04 #@! TO.C,TP4*
X167578000Y-124460000D02*
G75*
G03X167578000Y-124460000I-700000J0D01*
G01*
G04 #@! TO.C,TP5*
X175325000Y-128905000D02*
G75*
G03X175325000Y-128905000I-700000J0D01*
G01*
G04 #@! TO.C,TP6*
X177230000Y-128270000D02*
G75*
G03X177230000Y-128270000I-700000J0D01*
G01*
G04 #@! TO.C,TP7*
X170245000Y-127000000D02*
G75*
G03X170245000Y-127000000I-700000J0D01*
G01*
G04 #@! TO.C,TP8*
X173420000Y-128905000D02*
G75*
G03X173420000Y-128905000I-700000J0D01*
G01*
G04 #@! TO.C,TP9*
X181040000Y-122555000D02*
G75*
G03X181040000Y-122555000I-700000J0D01*
G01*
G04 #@! TO.C,TP10*
X185485000Y-121285000D02*
G75*
G03X185485000Y-121285000I-700000J0D01*
G01*
G04 #@! TO.C,TP11*
X187390000Y-123190000D02*
G75*
G03X187390000Y-123190000I-700000J0D01*
G01*
G04 #@! TO.C,TP12*
X187390000Y-121285000D02*
G75*
G03X187390000Y-121285000I-700000J0D01*
G01*
D12*
G04 #@! TO.C,U1*
X172470000Y-125115000D02*
X170970000Y-125115000D01*
X170970000Y-125115000D02*
X170970000Y-126365000D01*
D13*
X170970000Y-124865000D02*
X172470000Y-124865000D01*
D12*
X172970000Y-127615000D02*
X174470000Y-127615000D01*
X174470000Y-127615000D02*
X174470000Y-126365000D01*
D14*
G04 #@! TO.C,J5*
X187524000Y-132078200D02*
X187524000Y-135678200D01*
X187524000Y-135678200D02*
X183824000Y-135678200D01*
X183824000Y-135678200D02*
X183824000Y-132078200D01*
X186874000Y-132078200D02*
X184474000Y-132078200D01*
D13*
X186524000Y-136055200D02*
G75*
G03X186524000Y-136055200I-100000J0D01*
G01*
G04 #@! TO.C,Y1*
D10*
X176518095Y-115350895D02*
X176756190Y-115350895D01*
X176256190Y-115517561D02*
X176518095Y-115350895D01*
X176256190Y-115184228D01*
X176756190Y-114755657D02*
X176756190Y-115041371D01*
X176756190Y-114898514D02*
X176256190Y-114898514D01*
X176327619Y-114946133D01*
X176375238Y-114993752D01*
X176399047Y-115041371D01*
G04 #@! TO.C,D1*
X185711352Y-113891190D02*
X185711352Y-113391190D01*
X185830400Y-113391190D01*
X185901828Y-113415000D01*
X185949447Y-113462619D01*
X185973257Y-113510238D01*
X185997066Y-113605476D01*
X185997066Y-113676904D01*
X185973257Y-113772142D01*
X185949447Y-113819761D01*
X185901828Y-113867380D01*
X185830400Y-113891190D01*
X185711352Y-113891190D01*
X186473257Y-113891190D02*
X186187542Y-113891190D01*
X186330400Y-113891190D02*
X186330400Y-113391190D01*
X186282780Y-113462619D01*
X186235161Y-113510238D01*
X186187542Y-113534047D01*
G04 #@! TO.C,IC2*
X183966704Y-117421790D02*
X183966704Y-116921790D01*
X184490514Y-117374171D02*
X184466704Y-117397980D01*
X184395276Y-117421790D01*
X184347657Y-117421790D01*
X184276228Y-117397980D01*
X184228609Y-117350361D01*
X184204800Y-117302742D01*
X184180990Y-117207504D01*
X184180990Y-117136076D01*
X184204800Y-117040838D01*
X184228609Y-116993219D01*
X184276228Y-116945600D01*
X184347657Y-116921790D01*
X184395276Y-116921790D01*
X184466704Y-116945600D01*
X184490514Y-116969409D01*
X184680990Y-116969409D02*
X184704800Y-116945600D01*
X184752419Y-116921790D01*
X184871466Y-116921790D01*
X184919085Y-116945600D01*
X184942895Y-116969409D01*
X184966704Y-117017028D01*
X184966704Y-117064647D01*
X184942895Y-117136076D01*
X184657180Y-117421790D01*
X184966704Y-117421790D01*
G04 #@! TO.C,JP1*
X184616190Y-128066666D02*
X184973333Y-128066666D01*
X185044761Y-128090476D01*
X185092380Y-128138095D01*
X185116190Y-128209523D01*
X185116190Y-128257142D01*
X185116190Y-127828571D02*
X184616190Y-127828571D01*
X184616190Y-127638095D01*
X184640000Y-127590476D01*
X184663809Y-127566666D01*
X184711428Y-127542857D01*
X184782857Y-127542857D01*
X184830476Y-127566666D01*
X184854285Y-127590476D01*
X184878095Y-127638095D01*
X184878095Y-127828571D01*
X185116190Y-127066666D02*
X185116190Y-127352380D01*
X185116190Y-127209523D02*
X184616190Y-127209523D01*
X184687619Y-127257142D01*
X184735238Y-127304761D01*
X184759047Y-127352380D01*
G04 #@! TO.C,JP2*
X180543333Y-133181190D02*
X180543333Y-133538333D01*
X180519523Y-133609761D01*
X180471904Y-133657380D01*
X180400476Y-133681190D01*
X180352857Y-133681190D01*
X180781428Y-133681190D02*
X180781428Y-133181190D01*
X180971904Y-133181190D01*
X181019523Y-133205000D01*
X181043333Y-133228809D01*
X181067142Y-133276428D01*
X181067142Y-133347857D01*
X181043333Y-133395476D01*
X181019523Y-133419285D01*
X180971904Y-133443095D01*
X180781428Y-133443095D01*
X181257619Y-133228809D02*
X181281428Y-133205000D01*
X181329047Y-133181190D01*
X181448095Y-133181190D01*
X181495714Y-133205000D01*
X181519523Y-133228809D01*
X181543333Y-133276428D01*
X181543333Y-133324047D01*
X181519523Y-133395476D01*
X181233809Y-133681190D01*
X181543333Y-133681190D01*
G04 #@! TO.C,Q1*
X165103180Y-131693409D02*
X165055561Y-131669600D01*
X165007942Y-131621980D01*
X164936514Y-131550552D01*
X164888895Y-131526742D01*
X164841276Y-131526742D01*
X164865085Y-131645790D02*
X164817466Y-131621980D01*
X164769847Y-131574361D01*
X164746038Y-131479123D01*
X164746038Y-131312457D01*
X164769847Y-131217219D01*
X164817466Y-131169600D01*
X164865085Y-131145790D01*
X164960323Y-131145790D01*
X165007942Y-131169600D01*
X165055561Y-131217219D01*
X165079371Y-131312457D01*
X165079371Y-131479123D01*
X165055561Y-131574361D01*
X165007942Y-131621980D01*
X164960323Y-131645790D01*
X164865085Y-131645790D01*
X165555561Y-131645790D02*
X165269847Y-131645790D01*
X165412704Y-131645790D02*
X165412704Y-131145790D01*
X165365085Y-131217219D01*
X165317466Y-131264838D01*
X165269847Y-131288647D01*
G04 #@! TO.C,Q2*
X169573580Y-131718809D02*
X169525961Y-131695000D01*
X169478342Y-131647380D01*
X169406914Y-131575952D01*
X169359295Y-131552142D01*
X169311676Y-131552142D01*
X169335485Y-131671190D02*
X169287866Y-131647380D01*
X169240247Y-131599761D01*
X169216438Y-131504523D01*
X169216438Y-131337857D01*
X169240247Y-131242619D01*
X169287866Y-131195000D01*
X169335485Y-131171190D01*
X169430723Y-131171190D01*
X169478342Y-131195000D01*
X169525961Y-131242619D01*
X169549771Y-131337857D01*
X169549771Y-131504523D01*
X169525961Y-131599761D01*
X169478342Y-131647380D01*
X169430723Y-131671190D01*
X169335485Y-131671190D01*
X169740247Y-131218809D02*
X169764057Y-131195000D01*
X169811676Y-131171190D01*
X169930723Y-131171190D01*
X169978342Y-131195000D01*
X170002152Y-131218809D01*
X170025961Y-131266428D01*
X170025961Y-131314047D01*
X170002152Y-131385476D01*
X169716438Y-131671190D01*
X170025961Y-131671190D01*
G04 #@! TO.C,R3*
X171620666Y-114366190D02*
X171454000Y-114128095D01*
X171334952Y-114366190D02*
X171334952Y-113866190D01*
X171525428Y-113866190D01*
X171573047Y-113890000D01*
X171596857Y-113913809D01*
X171620666Y-113961428D01*
X171620666Y-114032857D01*
X171596857Y-114080476D01*
X171573047Y-114104285D01*
X171525428Y-114128095D01*
X171334952Y-114128095D01*
X171787333Y-113866190D02*
X172096857Y-113866190D01*
X171930190Y-114056666D01*
X172001619Y-114056666D01*
X172049238Y-114080476D01*
X172073047Y-114104285D01*
X172096857Y-114151904D01*
X172096857Y-114270952D01*
X172073047Y-114318571D01*
X172049238Y-114342380D01*
X172001619Y-114366190D01*
X171858761Y-114366190D01*
X171811142Y-114342380D01*
X171787333Y-114318571D01*
G04 #@! TO.C,R4*
X164762666Y-114576990D02*
X164596000Y-114338895D01*
X164476952Y-114576990D02*
X164476952Y-114076990D01*
X164667428Y-114076990D01*
X164715047Y-114100800D01*
X164738857Y-114124609D01*
X164762666Y-114172228D01*
X164762666Y-114243657D01*
X164738857Y-114291276D01*
X164715047Y-114315085D01*
X164667428Y-114338895D01*
X164476952Y-114338895D01*
X165191238Y-114243657D02*
X165191238Y-114576990D01*
X165072190Y-114053180D02*
X164953142Y-114410323D01*
X165262666Y-114410323D01*
G04 #@! TO.C,R5*
X184274590Y-125813333D02*
X184036495Y-125980000D01*
X184274590Y-126099047D02*
X183774590Y-126099047D01*
X183774590Y-125908571D01*
X183798400Y-125860952D01*
X183822209Y-125837142D01*
X183869828Y-125813333D01*
X183941257Y-125813333D01*
X183988876Y-125837142D01*
X184012685Y-125860952D01*
X184036495Y-125908571D01*
X184036495Y-126099047D01*
X183774590Y-125360952D02*
X183774590Y-125599047D01*
X184012685Y-125622857D01*
X183988876Y-125599047D01*
X183965066Y-125551428D01*
X183965066Y-125432380D01*
X183988876Y-125384761D01*
X184012685Y-125360952D01*
X184060304Y-125337142D01*
X184179352Y-125337142D01*
X184226971Y-125360952D01*
X184250780Y-125384761D01*
X184274590Y-125432380D01*
X184274590Y-125551428D01*
X184250780Y-125599047D01*
X184226971Y-125622857D01*
G04 #@! TO.C,R6*
X182598190Y-125914933D02*
X182360095Y-126081600D01*
X182598190Y-126200647D02*
X182098190Y-126200647D01*
X182098190Y-126010171D01*
X182122000Y-125962552D01*
X182145809Y-125938742D01*
X182193428Y-125914933D01*
X182264857Y-125914933D01*
X182312476Y-125938742D01*
X182336285Y-125962552D01*
X182360095Y-126010171D01*
X182360095Y-126200647D01*
X182098190Y-125486361D02*
X182098190Y-125581600D01*
X182122000Y-125629219D01*
X182145809Y-125653028D01*
X182217238Y-125700647D01*
X182312476Y-125724457D01*
X182502952Y-125724457D01*
X182550571Y-125700647D01*
X182574380Y-125676838D01*
X182598190Y-125629219D01*
X182598190Y-125533980D01*
X182574380Y-125486361D01*
X182550571Y-125462552D01*
X182502952Y-125438742D01*
X182383904Y-125438742D01*
X182336285Y-125462552D01*
X182312476Y-125486361D01*
X182288666Y-125533980D01*
X182288666Y-125629219D01*
X182312476Y-125676838D01*
X182336285Y-125700647D01*
X182383904Y-125724457D01*
G04 #@! TO.C,R7*
X163294190Y-128962933D02*
X163056095Y-129129600D01*
X163294190Y-129248647D02*
X162794190Y-129248647D01*
X162794190Y-129058171D01*
X162818000Y-129010552D01*
X162841809Y-128986742D01*
X162889428Y-128962933D01*
X162960857Y-128962933D01*
X163008476Y-128986742D01*
X163032285Y-129010552D01*
X163056095Y-129058171D01*
X163056095Y-129248647D01*
X162794190Y-128796266D02*
X162794190Y-128462933D01*
X163294190Y-128677219D01*
G04 #@! TO.C,R8*
X167358190Y-133941333D02*
X167120095Y-134108000D01*
X167358190Y-134227047D02*
X166858190Y-134227047D01*
X166858190Y-134036571D01*
X166882000Y-133988952D01*
X166905809Y-133965142D01*
X166953428Y-133941333D01*
X167024857Y-133941333D01*
X167072476Y-133965142D01*
X167096285Y-133988952D01*
X167120095Y-134036571D01*
X167120095Y-134227047D01*
X167072476Y-133655619D02*
X167048666Y-133703238D01*
X167024857Y-133727047D01*
X166977238Y-133750857D01*
X166953428Y-133750857D01*
X166905809Y-133727047D01*
X166882000Y-133703238D01*
X166858190Y-133655619D01*
X166858190Y-133560380D01*
X166882000Y-133512761D01*
X166905809Y-133488952D01*
X166953428Y-133465142D01*
X166977238Y-133465142D01*
X167024857Y-133488952D01*
X167048666Y-133512761D01*
X167072476Y-133560380D01*
X167072476Y-133655619D01*
X167096285Y-133703238D01*
X167120095Y-133727047D01*
X167167714Y-133750857D01*
X167262952Y-133750857D01*
X167310571Y-133727047D01*
X167334380Y-133703238D01*
X167358190Y-133655619D01*
X167358190Y-133560380D01*
X167334380Y-133512761D01*
X167310571Y-133488952D01*
X167262952Y-133465142D01*
X167167714Y-133465142D01*
X167120095Y-133488952D01*
X167096285Y-133512761D01*
X167072476Y-133560380D01*
G04 #@! TO.C,R9*
X167713790Y-129064533D02*
X167475695Y-129231200D01*
X167713790Y-129350247D02*
X167213790Y-129350247D01*
X167213790Y-129159771D01*
X167237600Y-129112152D01*
X167261409Y-129088342D01*
X167309028Y-129064533D01*
X167380457Y-129064533D01*
X167428076Y-129088342D01*
X167451885Y-129112152D01*
X167475695Y-129159771D01*
X167475695Y-129350247D01*
X167713790Y-128826438D02*
X167713790Y-128731200D01*
X167689980Y-128683580D01*
X167666171Y-128659771D01*
X167594742Y-128612152D01*
X167499504Y-128588342D01*
X167309028Y-128588342D01*
X167261409Y-128612152D01*
X167237600Y-128635961D01*
X167213790Y-128683580D01*
X167213790Y-128778819D01*
X167237600Y-128826438D01*
X167261409Y-128850247D01*
X167309028Y-128874057D01*
X167428076Y-128874057D01*
X167475695Y-128850247D01*
X167499504Y-128826438D01*
X167523314Y-128778819D01*
X167523314Y-128683580D01*
X167499504Y-128635961D01*
X167475695Y-128612152D01*
X167428076Y-128588342D01*
G04 #@! TO.C,R10*
X169223571Y-135641190D02*
X169056904Y-135403095D01*
X168937857Y-135641190D02*
X168937857Y-135141190D01*
X169128333Y-135141190D01*
X169175952Y-135165000D01*
X169199761Y-135188809D01*
X169223571Y-135236428D01*
X169223571Y-135307857D01*
X169199761Y-135355476D01*
X169175952Y-135379285D01*
X169128333Y-135403095D01*
X168937857Y-135403095D01*
X169699761Y-135641190D02*
X169414047Y-135641190D01*
X169556904Y-135641190D02*
X169556904Y-135141190D01*
X169509285Y-135212619D01*
X169461666Y-135260238D01*
X169414047Y-135284047D01*
X170009285Y-135141190D02*
X170056904Y-135141190D01*
X170104523Y-135165000D01*
X170128333Y-135188809D01*
X170152142Y-135236428D01*
X170175952Y-135331666D01*
X170175952Y-135450714D01*
X170152142Y-135545952D01*
X170128333Y-135593571D01*
X170104523Y-135617380D01*
X170056904Y-135641190D01*
X170009285Y-135641190D01*
X169961666Y-135617380D01*
X169937857Y-135593571D01*
X169914047Y-135545952D01*
X169890238Y-135450714D01*
X169890238Y-135331666D01*
X169914047Y-135236428D01*
X169937857Y-135188809D01*
X169961666Y-135165000D01*
X170009285Y-135141190D01*
G04 #@! TO.C,TP5*
X174019447Y-130129790D02*
X174305161Y-130129790D01*
X174162304Y-130629790D02*
X174162304Y-130129790D01*
X174471828Y-130629790D02*
X174471828Y-130129790D01*
X174662304Y-130129790D01*
X174709923Y-130153600D01*
X174733733Y-130177409D01*
X174757542Y-130225028D01*
X174757542Y-130296457D01*
X174733733Y-130344076D01*
X174709923Y-130367885D01*
X174662304Y-130391695D01*
X174471828Y-130391695D01*
X175209923Y-130129790D02*
X174971828Y-130129790D01*
X174948019Y-130367885D01*
X174971828Y-130344076D01*
X175019447Y-130320266D01*
X175138495Y-130320266D01*
X175186114Y-130344076D01*
X175209923Y-130367885D01*
X175233733Y-130415504D01*
X175233733Y-130534552D01*
X175209923Y-130582171D01*
X175186114Y-130605980D01*
X175138495Y-130629790D01*
X175019447Y-130629790D01*
X174971828Y-130605980D01*
X174948019Y-130582171D01*
G04 #@! TO.C,TP6*
X177626247Y-128504190D02*
X177911961Y-128504190D01*
X177769104Y-129004190D02*
X177769104Y-128504190D01*
X178078628Y-129004190D02*
X178078628Y-128504190D01*
X178269104Y-128504190D01*
X178316723Y-128528000D01*
X178340533Y-128551809D01*
X178364342Y-128599428D01*
X178364342Y-128670857D01*
X178340533Y-128718476D01*
X178316723Y-128742285D01*
X178269104Y-128766095D01*
X178078628Y-128766095D01*
X178792914Y-128504190D02*
X178697676Y-128504190D01*
X178650057Y-128528000D01*
X178626247Y-128551809D01*
X178578628Y-128623238D01*
X178554819Y-128718476D01*
X178554819Y-128908952D01*
X178578628Y-128956571D01*
X178602438Y-128980380D01*
X178650057Y-129004190D01*
X178745295Y-129004190D01*
X178792914Y-128980380D01*
X178816723Y-128956571D01*
X178840533Y-128908952D01*
X178840533Y-128789904D01*
X178816723Y-128742285D01*
X178792914Y-128718476D01*
X178745295Y-128694666D01*
X178650057Y-128694666D01*
X178602438Y-128718476D01*
X178578628Y-128742285D01*
X178554819Y-128789904D01*
G04 #@! TO.C,TP7*
X168482247Y-125354590D02*
X168767961Y-125354590D01*
X168625104Y-125854590D02*
X168625104Y-125354590D01*
X168934628Y-125854590D02*
X168934628Y-125354590D01*
X169125104Y-125354590D01*
X169172723Y-125378400D01*
X169196533Y-125402209D01*
X169220342Y-125449828D01*
X169220342Y-125521257D01*
X169196533Y-125568876D01*
X169172723Y-125592685D01*
X169125104Y-125616495D01*
X168934628Y-125616495D01*
X169387009Y-125354590D02*
X169720342Y-125354590D01*
X169506057Y-125854590D01*
G04 #@! TO.C,TP8*
X172089047Y-130129790D02*
X172374761Y-130129790D01*
X172231904Y-130629790D02*
X172231904Y-130129790D01*
X172541428Y-130629790D02*
X172541428Y-130129790D01*
X172731904Y-130129790D01*
X172779523Y-130153600D01*
X172803333Y-130177409D01*
X172827142Y-130225028D01*
X172827142Y-130296457D01*
X172803333Y-130344076D01*
X172779523Y-130367885D01*
X172731904Y-130391695D01*
X172541428Y-130391695D01*
X173112857Y-130344076D02*
X173065238Y-130320266D01*
X173041428Y-130296457D01*
X173017619Y-130248838D01*
X173017619Y-130225028D01*
X173041428Y-130177409D01*
X173065238Y-130153600D01*
X173112857Y-130129790D01*
X173208095Y-130129790D01*
X173255714Y-130153600D01*
X173279523Y-130177409D01*
X173303333Y-130225028D01*
X173303333Y-130248838D01*
X173279523Y-130296457D01*
X173255714Y-130320266D01*
X173208095Y-130344076D01*
X173112857Y-130344076D01*
X173065238Y-130367885D01*
X173041428Y-130391695D01*
X173017619Y-130439314D01*
X173017619Y-130534552D01*
X173041428Y-130582171D01*
X173065238Y-130605980D01*
X173112857Y-130629790D01*
X173208095Y-130629790D01*
X173255714Y-130605980D01*
X173279523Y-130582171D01*
X173303333Y-130534552D01*
X173303333Y-130439314D01*
X173279523Y-130391695D01*
X173255714Y-130367885D01*
X173208095Y-130344076D01*
G04 #@! TO.C,TP9*
X179709047Y-120833190D02*
X179994761Y-120833190D01*
X179851904Y-121333190D02*
X179851904Y-120833190D01*
X180161428Y-121333190D02*
X180161428Y-120833190D01*
X180351904Y-120833190D01*
X180399523Y-120857000D01*
X180423333Y-120880809D01*
X180447142Y-120928428D01*
X180447142Y-120999857D01*
X180423333Y-121047476D01*
X180399523Y-121071285D01*
X180351904Y-121095095D01*
X180161428Y-121095095D01*
X180685238Y-121333190D02*
X180780476Y-121333190D01*
X180828095Y-121309380D01*
X180851904Y-121285571D01*
X180899523Y-121214142D01*
X180923333Y-121118904D01*
X180923333Y-120928428D01*
X180899523Y-120880809D01*
X180875714Y-120857000D01*
X180828095Y-120833190D01*
X180732857Y-120833190D01*
X180685238Y-120857000D01*
X180661428Y-120880809D01*
X180637619Y-120928428D01*
X180637619Y-121047476D01*
X180661428Y-121095095D01*
X180685238Y-121118904D01*
X180732857Y-121142714D01*
X180828095Y-121142714D01*
X180875714Y-121118904D01*
X180899523Y-121095095D01*
X180923333Y-121047476D01*
G04 #@! TO.C,TP10*
X182620552Y-120071390D02*
X182906266Y-120071390D01*
X182763409Y-120571390D02*
X182763409Y-120071390D01*
X183072933Y-120571390D02*
X183072933Y-120071390D01*
X183263409Y-120071390D01*
X183311028Y-120095200D01*
X183334838Y-120119009D01*
X183358647Y-120166628D01*
X183358647Y-120238057D01*
X183334838Y-120285676D01*
X183311028Y-120309485D01*
X183263409Y-120333295D01*
X183072933Y-120333295D01*
X183834838Y-120571390D02*
X183549123Y-120571390D01*
X183691980Y-120571390D02*
X183691980Y-120071390D01*
X183644361Y-120142819D01*
X183596742Y-120190438D01*
X183549123Y-120214247D01*
X184144361Y-120071390D02*
X184191980Y-120071390D01*
X184239600Y-120095200D01*
X184263409Y-120119009D01*
X184287219Y-120166628D01*
X184311028Y-120261866D01*
X184311028Y-120380914D01*
X184287219Y-120476152D01*
X184263409Y-120523771D01*
X184239600Y-120547580D01*
X184191980Y-120571390D01*
X184144361Y-120571390D01*
X184096742Y-120547580D01*
X184072933Y-120523771D01*
X184049123Y-120476152D01*
X184025314Y-120380914D01*
X184025314Y-120261866D01*
X184049123Y-120166628D01*
X184072933Y-120119009D01*
X184096742Y-120095200D01*
X184144361Y-120071390D01*
G04 #@! TO.C,TP11*
X185719352Y-124440190D02*
X186005066Y-124440190D01*
X185862209Y-124940190D02*
X185862209Y-124440190D01*
X186171733Y-124940190D02*
X186171733Y-124440190D01*
X186362209Y-124440190D01*
X186409828Y-124464000D01*
X186433638Y-124487809D01*
X186457447Y-124535428D01*
X186457447Y-124606857D01*
X186433638Y-124654476D01*
X186409828Y-124678285D01*
X186362209Y-124702095D01*
X186171733Y-124702095D01*
X186933638Y-124940190D02*
X186647923Y-124940190D01*
X186790780Y-124940190D02*
X186790780Y-124440190D01*
X186743161Y-124511619D01*
X186695542Y-124559238D01*
X186647923Y-124583047D01*
X187409828Y-124940190D02*
X187124114Y-124940190D01*
X187266971Y-124940190D02*
X187266971Y-124440190D01*
X187219352Y-124511619D01*
X187171733Y-124559238D01*
X187124114Y-124583047D01*
G04 #@! TO.C,TP12*
X186176552Y-119918990D02*
X186462266Y-119918990D01*
X186319409Y-120418990D02*
X186319409Y-119918990D01*
X186628933Y-120418990D02*
X186628933Y-119918990D01*
X186819409Y-119918990D01*
X186867028Y-119942800D01*
X186890838Y-119966609D01*
X186914647Y-120014228D01*
X186914647Y-120085657D01*
X186890838Y-120133276D01*
X186867028Y-120157085D01*
X186819409Y-120180895D01*
X186628933Y-120180895D01*
X187390838Y-120418990D02*
X187105123Y-120418990D01*
X187247980Y-120418990D02*
X187247980Y-119918990D01*
X187200361Y-119990419D01*
X187152742Y-120038038D01*
X187105123Y-120061847D01*
X187581314Y-119966609D02*
X187605123Y-119942800D01*
X187652742Y-119918990D01*
X187771790Y-119918990D01*
X187819409Y-119942800D01*
X187843219Y-119966609D01*
X187867028Y-120014228D01*
X187867028Y-120061847D01*
X187843219Y-120133276D01*
X187557504Y-120418990D01*
X187867028Y-120418990D01*
G04 #@! TO.C,U1*
X173710647Y-124490990D02*
X173710647Y-124895752D01*
X173734457Y-124943371D01*
X173758266Y-124967180D01*
X173805885Y-124990990D01*
X173901123Y-124990990D01*
X173948742Y-124967180D01*
X173972552Y-124943371D01*
X173996361Y-124895752D01*
X173996361Y-124490990D01*
X174496361Y-124990990D02*
X174210647Y-124990990D01*
X174353504Y-124990990D02*
X174353504Y-124490990D01*
X174305885Y-124562419D01*
X174258266Y-124610038D01*
X174210647Y-124633847D01*
G04 #@! TO.C,J5*
X185558133Y-133025390D02*
X185558133Y-133382533D01*
X185534323Y-133453961D01*
X185486704Y-133501580D01*
X185415276Y-133525390D01*
X185367657Y-133525390D01*
X186034323Y-133025390D02*
X185796228Y-133025390D01*
X185772419Y-133263485D01*
X185796228Y-133239676D01*
X185843847Y-133215866D01*
X185962895Y-133215866D01*
X186010514Y-133239676D01*
X186034323Y-133263485D01*
X186058133Y-133311104D01*
X186058133Y-133430152D01*
X186034323Y-133477771D01*
X186010514Y-133501580D01*
X185962895Y-133525390D01*
X185843847Y-133525390D01*
X185796228Y-133501580D01*
X185772419Y-133477771D01*
G04 #@! TD*
M02*
