G04 #@! TF.GenerationSoftware,KiCad,Pcbnew,(5.0.0-rc2-200-g1f6f76beb)*
G04 #@! TF.CreationDate,2020-02-24T22:29:36-05:00*
G04 #@! TF.ProjectId,watch-logic,77617463682D6C6F6769632E6B696361,rev?*
G04 #@! TF.SameCoordinates,Original*
G04 #@! TF.FileFunction,Soldermask,Top*
G04 #@! TF.FilePolarity,Negative*
%FSLAX46Y46*%
G04 Gerber Fmt 4.6, Leading zero omitted, Abs format (unit mm)*
G04 Created by KiCad (PCBNEW (5.0.0-rc2-200-g1f6f76beb)) date Mon Feb 24 22:29:36 2020*
%MOMM*%
%LPD*%
G01*
G04 APERTURE LIST*
%ADD10R,1.500000X1.450000*%
%ADD11C,0.100000*%
%ADD12C,1.825000*%
%ADD13R,1.200000X1.300000*%
%ADD14R,0.820000X0.800000*%
%ADD15R,1.250000X1.250000*%
%ADD16O,1.250000X1.250000*%
%ADD17C,0.500000*%
%ADD18C,1.350000*%
%ADD19R,1.900000X0.950000*%
%ADD20C,1.400000*%
%ADD21R,0.700000X0.650000*%
%ADD22R,0.600000X2.000000*%
%ADD23R,0.700000X1.100000*%
%ADD24R,0.700000X1.400000*%
G04 APERTURE END LIST*
D10*
G04 #@! TO.C,Y1*
X177927000Y-113284000D03*
X177927000Y-115134000D03*
G04 #@! TD*
D11*
G04 #@! TO.C,C1*
G36*
X183630707Y-112141542D02*
X183661787Y-112146152D01*
X183692266Y-112153787D01*
X183721850Y-112164372D01*
X183750254Y-112177806D01*
X183777204Y-112193959D01*
X183802442Y-112212677D01*
X183825723Y-112233777D01*
X183846823Y-112257058D01*
X183865541Y-112282296D01*
X183881694Y-112309246D01*
X183895128Y-112337650D01*
X183905713Y-112367234D01*
X183913348Y-112397713D01*
X183917958Y-112428793D01*
X183919500Y-112460176D01*
X183919500Y-114869824D01*
X183917958Y-114901207D01*
X183913348Y-114932287D01*
X183905713Y-114962766D01*
X183895128Y-114992350D01*
X183881694Y-115020754D01*
X183865541Y-115047704D01*
X183846823Y-115072942D01*
X183825723Y-115096223D01*
X183802442Y-115117323D01*
X183777204Y-115136041D01*
X183750254Y-115152194D01*
X183721850Y-115165628D01*
X183692266Y-115176213D01*
X183661787Y-115183848D01*
X183630707Y-115188458D01*
X183599324Y-115190000D01*
X182414676Y-115190000D01*
X182383293Y-115188458D01*
X182352213Y-115183848D01*
X182321734Y-115176213D01*
X182292150Y-115165628D01*
X182263746Y-115152194D01*
X182236796Y-115136041D01*
X182211558Y-115117323D01*
X182188277Y-115096223D01*
X182167177Y-115072942D01*
X182148459Y-115047704D01*
X182132306Y-115020754D01*
X182118872Y-114992350D01*
X182108287Y-114962766D01*
X182100652Y-114932287D01*
X182096042Y-114901207D01*
X182094500Y-114869824D01*
X182094500Y-112460176D01*
X182096042Y-112428793D01*
X182100652Y-112397713D01*
X182108287Y-112367234D01*
X182118872Y-112337650D01*
X182132306Y-112309246D01*
X182148459Y-112282296D01*
X182167177Y-112257058D01*
X182188277Y-112233777D01*
X182211558Y-112212677D01*
X182236796Y-112193959D01*
X182263746Y-112177806D01*
X182292150Y-112164372D01*
X182321734Y-112153787D01*
X182352213Y-112146152D01*
X182383293Y-112141542D01*
X182414676Y-112140000D01*
X183599324Y-112140000D01*
X183630707Y-112141542D01*
X183630707Y-112141542D01*
G37*
D12*
X183007000Y-113665000D03*
D11*
G36*
X180655707Y-112141542D02*
X180686787Y-112146152D01*
X180717266Y-112153787D01*
X180746850Y-112164372D01*
X180775254Y-112177806D01*
X180802204Y-112193959D01*
X180827442Y-112212677D01*
X180850723Y-112233777D01*
X180871823Y-112257058D01*
X180890541Y-112282296D01*
X180906694Y-112309246D01*
X180920128Y-112337650D01*
X180930713Y-112367234D01*
X180938348Y-112397713D01*
X180942958Y-112428793D01*
X180944500Y-112460176D01*
X180944500Y-114869824D01*
X180942958Y-114901207D01*
X180938348Y-114932287D01*
X180930713Y-114962766D01*
X180920128Y-114992350D01*
X180906694Y-115020754D01*
X180890541Y-115047704D01*
X180871823Y-115072942D01*
X180850723Y-115096223D01*
X180827442Y-115117323D01*
X180802204Y-115136041D01*
X180775254Y-115152194D01*
X180746850Y-115165628D01*
X180717266Y-115176213D01*
X180686787Y-115183848D01*
X180655707Y-115188458D01*
X180624324Y-115190000D01*
X179439676Y-115190000D01*
X179408293Y-115188458D01*
X179377213Y-115183848D01*
X179346734Y-115176213D01*
X179317150Y-115165628D01*
X179288746Y-115152194D01*
X179261796Y-115136041D01*
X179236558Y-115117323D01*
X179213277Y-115096223D01*
X179192177Y-115072942D01*
X179173459Y-115047704D01*
X179157306Y-115020754D01*
X179143872Y-114992350D01*
X179133287Y-114962766D01*
X179125652Y-114932287D01*
X179121042Y-114901207D01*
X179119500Y-114869824D01*
X179119500Y-112460176D01*
X179121042Y-112428793D01*
X179125652Y-112397713D01*
X179133287Y-112367234D01*
X179143872Y-112337650D01*
X179157306Y-112309246D01*
X179173459Y-112282296D01*
X179192177Y-112257058D01*
X179213277Y-112233777D01*
X179236558Y-112212677D01*
X179261796Y-112193959D01*
X179288746Y-112177806D01*
X179317150Y-112164372D01*
X179346734Y-112153787D01*
X179377213Y-112146152D01*
X179408293Y-112141542D01*
X179439676Y-112140000D01*
X180624324Y-112140000D01*
X180655707Y-112141542D01*
X180655707Y-112141542D01*
G37*
D12*
X180032000Y-113665000D03*
G04 #@! TD*
D13*
G04 #@! TO.C,D1*
X187005000Y-112665000D03*
X185105000Y-112665000D03*
X186055000Y-114665000D03*
G04 #@! TD*
D14*
G04 #@! TO.C,IC2*
X185790000Y-119275000D03*
X185790000Y-118375000D03*
X185790000Y-117475000D03*
X185790000Y-116575000D03*
X186690000Y-119275000D03*
X186690000Y-118375000D03*
X186690000Y-117475000D03*
X186690000Y-116575000D03*
G04 #@! TD*
D15*
G04 #@! TO.C,J3*
X165735000Y-135890000D03*
D16*
X164735000Y-135890000D03*
G04 #@! TD*
D17*
G04 #@! TO.C,JP1*
X186690000Y-127000000D03*
D11*
G36*
X185740602Y-126993888D02*
X185740602Y-126975466D01*
X185741565Y-126955860D01*
X185746375Y-126907029D01*
X185749254Y-126887620D01*
X185758826Y-126839495D01*
X185763596Y-126820452D01*
X185777840Y-126773497D01*
X185784451Y-126755020D01*
X185803228Y-126709687D01*
X185811623Y-126691939D01*
X185834754Y-126648666D01*
X185844840Y-126631838D01*
X185872100Y-126591039D01*
X185883795Y-126575270D01*
X185914923Y-126537341D01*
X185928103Y-126522800D01*
X185962800Y-126488103D01*
X185977341Y-126474923D01*
X186015270Y-126443795D01*
X186031039Y-126432100D01*
X186071838Y-126404840D01*
X186088666Y-126394754D01*
X186131939Y-126371623D01*
X186149687Y-126363228D01*
X186195020Y-126344451D01*
X186213497Y-126337840D01*
X186260452Y-126323596D01*
X186279495Y-126318826D01*
X186327620Y-126309254D01*
X186347029Y-126306375D01*
X186395860Y-126301565D01*
X186415466Y-126300602D01*
X186433888Y-126300602D01*
X186440000Y-126300000D01*
X186940000Y-126300000D01*
X186946112Y-126300602D01*
X186964534Y-126300602D01*
X186984140Y-126301565D01*
X187032971Y-126306375D01*
X187052380Y-126309254D01*
X187100505Y-126318826D01*
X187119548Y-126323596D01*
X187166503Y-126337840D01*
X187184980Y-126344451D01*
X187230313Y-126363228D01*
X187248061Y-126371623D01*
X187291334Y-126394754D01*
X187308162Y-126404840D01*
X187348961Y-126432100D01*
X187364730Y-126443795D01*
X187402659Y-126474923D01*
X187417200Y-126488103D01*
X187451897Y-126522800D01*
X187465077Y-126537341D01*
X187496205Y-126575270D01*
X187507900Y-126591039D01*
X187535160Y-126631838D01*
X187545246Y-126648666D01*
X187568377Y-126691939D01*
X187576772Y-126709687D01*
X187595549Y-126755020D01*
X187602160Y-126773497D01*
X187616404Y-126820452D01*
X187621174Y-126839495D01*
X187630746Y-126887620D01*
X187633625Y-126907029D01*
X187638435Y-126955860D01*
X187639398Y-126975466D01*
X187639398Y-126993888D01*
X187640000Y-127000000D01*
X187640000Y-127500000D01*
X187636157Y-127539018D01*
X187624776Y-127576537D01*
X187606294Y-127611114D01*
X187581421Y-127641421D01*
X187551114Y-127666294D01*
X187516537Y-127684776D01*
X187479018Y-127696157D01*
X187440000Y-127700000D01*
X185940000Y-127700000D01*
X185900982Y-127696157D01*
X185863463Y-127684776D01*
X185828886Y-127666294D01*
X185798579Y-127641421D01*
X185773706Y-127611114D01*
X185755224Y-127576537D01*
X185743843Y-127539018D01*
X185740000Y-127500000D01*
X185740000Y-127000000D01*
X185740602Y-126993888D01*
X185740602Y-126993888D01*
G37*
D17*
X186690000Y-128300000D03*
D11*
G36*
X185743843Y-127760982D02*
X185755224Y-127723463D01*
X185773706Y-127688886D01*
X185798579Y-127658579D01*
X185828886Y-127633706D01*
X185863463Y-127615224D01*
X185900982Y-127603843D01*
X185940000Y-127600000D01*
X187440000Y-127600000D01*
X187479018Y-127603843D01*
X187516537Y-127615224D01*
X187551114Y-127633706D01*
X187581421Y-127658579D01*
X187606294Y-127688886D01*
X187624776Y-127723463D01*
X187636157Y-127760982D01*
X187640000Y-127800000D01*
X187640000Y-128300000D01*
X187639398Y-128306112D01*
X187639398Y-128324534D01*
X187638435Y-128344140D01*
X187633625Y-128392971D01*
X187630746Y-128412380D01*
X187621174Y-128460505D01*
X187616404Y-128479548D01*
X187602160Y-128526503D01*
X187595549Y-128544980D01*
X187576772Y-128590313D01*
X187568377Y-128608061D01*
X187545246Y-128651334D01*
X187535160Y-128668162D01*
X187507900Y-128708961D01*
X187496205Y-128724730D01*
X187465077Y-128762659D01*
X187451897Y-128777200D01*
X187417200Y-128811897D01*
X187402659Y-128825077D01*
X187364730Y-128856205D01*
X187348961Y-128867900D01*
X187308162Y-128895160D01*
X187291334Y-128905246D01*
X187248061Y-128928377D01*
X187230313Y-128936772D01*
X187184980Y-128955549D01*
X187166503Y-128962160D01*
X187119548Y-128976404D01*
X187100505Y-128981174D01*
X187052380Y-128990746D01*
X187032971Y-128993625D01*
X186984140Y-128998435D01*
X186964534Y-128999398D01*
X186946112Y-128999398D01*
X186940000Y-129000000D01*
X186440000Y-129000000D01*
X186433888Y-128999398D01*
X186415466Y-128999398D01*
X186395860Y-128998435D01*
X186347029Y-128993625D01*
X186327620Y-128990746D01*
X186279495Y-128981174D01*
X186260452Y-128976404D01*
X186213497Y-128962160D01*
X186195020Y-128955549D01*
X186149687Y-128936772D01*
X186131939Y-128928377D01*
X186088666Y-128905246D01*
X186071838Y-128895160D01*
X186031039Y-128867900D01*
X186015270Y-128856205D01*
X185977341Y-128825077D01*
X185962800Y-128811897D01*
X185928103Y-128777200D01*
X185914923Y-128762659D01*
X185883795Y-128724730D01*
X185872100Y-128708961D01*
X185844840Y-128668162D01*
X185834754Y-128651334D01*
X185811623Y-128608061D01*
X185803228Y-128590313D01*
X185784451Y-128544980D01*
X185777840Y-128526503D01*
X185763596Y-128479548D01*
X185758826Y-128460505D01*
X185749254Y-128412380D01*
X185746375Y-128392971D01*
X185741565Y-128344140D01*
X185740602Y-128324534D01*
X185740602Y-128306112D01*
X185740000Y-128300000D01*
X185740000Y-127800000D01*
X185743843Y-127760982D01*
X185743843Y-127760982D01*
G37*
G04 #@! TD*
D17*
G04 #@! TO.C,JP2*
X180310000Y-135255000D03*
D11*
G36*
X180849018Y-134308843D02*
X180886537Y-134320224D01*
X180921114Y-134338706D01*
X180951421Y-134363579D01*
X180976294Y-134393886D01*
X180994776Y-134428463D01*
X181006157Y-134465982D01*
X181010000Y-134505000D01*
X181010000Y-136005000D01*
X181006157Y-136044018D01*
X180994776Y-136081537D01*
X180976294Y-136116114D01*
X180951421Y-136146421D01*
X180921114Y-136171294D01*
X180886537Y-136189776D01*
X180849018Y-136201157D01*
X180810000Y-136205000D01*
X180310000Y-136205000D01*
X180303888Y-136204398D01*
X180285466Y-136204398D01*
X180265860Y-136203435D01*
X180217029Y-136198625D01*
X180197620Y-136195746D01*
X180149495Y-136186174D01*
X180130452Y-136181404D01*
X180083497Y-136167160D01*
X180065020Y-136160549D01*
X180019687Y-136141772D01*
X180001939Y-136133377D01*
X179958666Y-136110246D01*
X179941838Y-136100160D01*
X179901039Y-136072900D01*
X179885270Y-136061205D01*
X179847341Y-136030077D01*
X179832800Y-136016897D01*
X179798103Y-135982200D01*
X179784923Y-135967659D01*
X179753795Y-135929730D01*
X179742100Y-135913961D01*
X179714840Y-135873162D01*
X179704754Y-135856334D01*
X179681623Y-135813061D01*
X179673228Y-135795313D01*
X179654451Y-135749980D01*
X179647840Y-135731503D01*
X179633596Y-135684548D01*
X179628826Y-135665505D01*
X179619254Y-135617380D01*
X179616375Y-135597971D01*
X179611565Y-135549140D01*
X179610602Y-135529534D01*
X179610602Y-135511112D01*
X179610000Y-135505000D01*
X179610000Y-135005000D01*
X179610602Y-134998888D01*
X179610602Y-134980466D01*
X179611565Y-134960860D01*
X179616375Y-134912029D01*
X179619254Y-134892620D01*
X179628826Y-134844495D01*
X179633596Y-134825452D01*
X179647840Y-134778497D01*
X179654451Y-134760020D01*
X179673228Y-134714687D01*
X179681623Y-134696939D01*
X179704754Y-134653666D01*
X179714840Y-134636838D01*
X179742100Y-134596039D01*
X179753795Y-134580270D01*
X179784923Y-134542341D01*
X179798103Y-134527800D01*
X179832800Y-134493103D01*
X179847341Y-134479923D01*
X179885270Y-134448795D01*
X179901039Y-134437100D01*
X179941838Y-134409840D01*
X179958666Y-134399754D01*
X180001939Y-134376623D01*
X180019687Y-134368228D01*
X180065020Y-134349451D01*
X180083497Y-134342840D01*
X180130452Y-134328596D01*
X180149495Y-134323826D01*
X180197620Y-134314254D01*
X180217029Y-134311375D01*
X180265860Y-134306565D01*
X180285466Y-134305602D01*
X180303888Y-134305602D01*
X180310000Y-134305000D01*
X180810000Y-134305000D01*
X180849018Y-134308843D01*
X180849018Y-134308843D01*
G37*
D17*
X181610000Y-135255000D03*
D11*
G36*
X181616112Y-134305602D02*
X181634534Y-134305602D01*
X181654140Y-134306565D01*
X181702971Y-134311375D01*
X181722380Y-134314254D01*
X181770505Y-134323826D01*
X181789548Y-134328596D01*
X181836503Y-134342840D01*
X181854980Y-134349451D01*
X181900313Y-134368228D01*
X181918061Y-134376623D01*
X181961334Y-134399754D01*
X181978162Y-134409840D01*
X182018961Y-134437100D01*
X182034730Y-134448795D01*
X182072659Y-134479923D01*
X182087200Y-134493103D01*
X182121897Y-134527800D01*
X182135077Y-134542341D01*
X182166205Y-134580270D01*
X182177900Y-134596039D01*
X182205160Y-134636838D01*
X182215246Y-134653666D01*
X182238377Y-134696939D01*
X182246772Y-134714687D01*
X182265549Y-134760020D01*
X182272160Y-134778497D01*
X182286404Y-134825452D01*
X182291174Y-134844495D01*
X182300746Y-134892620D01*
X182303625Y-134912029D01*
X182308435Y-134960860D01*
X182309398Y-134980466D01*
X182309398Y-134998888D01*
X182310000Y-135005000D01*
X182310000Y-135505000D01*
X182309398Y-135511112D01*
X182309398Y-135529534D01*
X182308435Y-135549140D01*
X182303625Y-135597971D01*
X182300746Y-135617380D01*
X182291174Y-135665505D01*
X182286404Y-135684548D01*
X182272160Y-135731503D01*
X182265549Y-135749980D01*
X182246772Y-135795313D01*
X182238377Y-135813061D01*
X182215246Y-135856334D01*
X182205160Y-135873162D01*
X182177900Y-135913961D01*
X182166205Y-135929730D01*
X182135077Y-135967659D01*
X182121897Y-135982200D01*
X182087200Y-136016897D01*
X182072659Y-136030077D01*
X182034730Y-136061205D01*
X182018961Y-136072900D01*
X181978162Y-136100160D01*
X181961334Y-136110246D01*
X181918061Y-136133377D01*
X181900313Y-136141772D01*
X181854980Y-136160549D01*
X181836503Y-136167160D01*
X181789548Y-136181404D01*
X181770505Y-136186174D01*
X181722380Y-136195746D01*
X181702971Y-136198625D01*
X181654140Y-136203435D01*
X181634534Y-136204398D01*
X181616112Y-136204398D01*
X181610000Y-136205000D01*
X181110000Y-136205000D01*
X181070982Y-136201157D01*
X181033463Y-136189776D01*
X180998886Y-136171294D01*
X180968579Y-136146421D01*
X180943706Y-136116114D01*
X180925224Y-136081537D01*
X180913843Y-136044018D01*
X180910000Y-136005000D01*
X180910000Y-134505000D01*
X180913843Y-134465982D01*
X180925224Y-134428463D01*
X180943706Y-134393886D01*
X180968579Y-134363579D01*
X180998886Y-134338706D01*
X181033463Y-134320224D01*
X181070982Y-134308843D01*
X181110000Y-134305000D01*
X181610000Y-134305000D01*
X181616112Y-134305602D01*
X181616112Y-134305602D01*
G37*
G04 #@! TD*
D13*
G04 #@! TO.C,Q1*
X166050000Y-130445000D03*
X164150000Y-130445000D03*
X165100000Y-132445000D03*
G04 #@! TD*
G04 #@! TO.C,Q2*
X169545000Y-132445000D03*
X168595000Y-130445000D03*
X170495000Y-130445000D03*
G04 #@! TD*
D11*
G04 #@! TO.C,R3*
G36*
X172999581Y-114896625D02*
X173032343Y-114901485D01*
X173064471Y-114909533D01*
X173095656Y-114920691D01*
X173125596Y-114934852D01*
X173154005Y-114951879D01*
X173180608Y-114971609D01*
X173205149Y-114993851D01*
X173227391Y-115018392D01*
X173247121Y-115044995D01*
X173264148Y-115073404D01*
X173278309Y-115103344D01*
X173289467Y-115134529D01*
X173297515Y-115166657D01*
X173302375Y-115199419D01*
X173304000Y-115232500D01*
X173304000Y-115907500D01*
X173302375Y-115940581D01*
X173297515Y-115973343D01*
X173289467Y-116005471D01*
X173278309Y-116036656D01*
X173264148Y-116066596D01*
X173247121Y-116095005D01*
X173227391Y-116121608D01*
X173205149Y-116146149D01*
X173180608Y-116168391D01*
X173154005Y-116188121D01*
X173125596Y-116205148D01*
X173095656Y-116219309D01*
X173064471Y-116230467D01*
X173032343Y-116238515D01*
X172999581Y-116243375D01*
X172966500Y-116245000D01*
X172191500Y-116245000D01*
X172158419Y-116243375D01*
X172125657Y-116238515D01*
X172093529Y-116230467D01*
X172062344Y-116219309D01*
X172032404Y-116205148D01*
X172003995Y-116188121D01*
X171977392Y-116168391D01*
X171952851Y-116146149D01*
X171930609Y-116121608D01*
X171910879Y-116095005D01*
X171893852Y-116066596D01*
X171879691Y-116036656D01*
X171868533Y-116005471D01*
X171860485Y-115973343D01*
X171855625Y-115940581D01*
X171854000Y-115907500D01*
X171854000Y-115232500D01*
X171855625Y-115199419D01*
X171860485Y-115166657D01*
X171868533Y-115134529D01*
X171879691Y-115103344D01*
X171893852Y-115073404D01*
X171910879Y-115044995D01*
X171930609Y-115018392D01*
X171952851Y-114993851D01*
X171977392Y-114971609D01*
X172003995Y-114951879D01*
X172032404Y-114934852D01*
X172062344Y-114920691D01*
X172093529Y-114909533D01*
X172125657Y-114901485D01*
X172158419Y-114896625D01*
X172191500Y-114895000D01*
X172966500Y-114895000D01*
X172999581Y-114896625D01*
X172999581Y-114896625D01*
G37*
D18*
X172579000Y-115570000D03*
D11*
G36*
X171249581Y-114896625D02*
X171282343Y-114901485D01*
X171314471Y-114909533D01*
X171345656Y-114920691D01*
X171375596Y-114934852D01*
X171404005Y-114951879D01*
X171430608Y-114971609D01*
X171455149Y-114993851D01*
X171477391Y-115018392D01*
X171497121Y-115044995D01*
X171514148Y-115073404D01*
X171528309Y-115103344D01*
X171539467Y-115134529D01*
X171547515Y-115166657D01*
X171552375Y-115199419D01*
X171554000Y-115232500D01*
X171554000Y-115907500D01*
X171552375Y-115940581D01*
X171547515Y-115973343D01*
X171539467Y-116005471D01*
X171528309Y-116036656D01*
X171514148Y-116066596D01*
X171497121Y-116095005D01*
X171477391Y-116121608D01*
X171455149Y-116146149D01*
X171430608Y-116168391D01*
X171404005Y-116188121D01*
X171375596Y-116205148D01*
X171345656Y-116219309D01*
X171314471Y-116230467D01*
X171282343Y-116238515D01*
X171249581Y-116243375D01*
X171216500Y-116245000D01*
X170441500Y-116245000D01*
X170408419Y-116243375D01*
X170375657Y-116238515D01*
X170343529Y-116230467D01*
X170312344Y-116219309D01*
X170282404Y-116205148D01*
X170253995Y-116188121D01*
X170227392Y-116168391D01*
X170202851Y-116146149D01*
X170180609Y-116121608D01*
X170160879Y-116095005D01*
X170143852Y-116066596D01*
X170129691Y-116036656D01*
X170118533Y-116005471D01*
X170110485Y-115973343D01*
X170105625Y-115940581D01*
X170104000Y-115907500D01*
X170104000Y-115232500D01*
X170105625Y-115199419D01*
X170110485Y-115166657D01*
X170118533Y-115134529D01*
X170129691Y-115103344D01*
X170143852Y-115073404D01*
X170160879Y-115044995D01*
X170180609Y-115018392D01*
X170202851Y-114993851D01*
X170227392Y-114971609D01*
X170253995Y-114951879D01*
X170282404Y-114934852D01*
X170312344Y-114920691D01*
X170343529Y-114909533D01*
X170375657Y-114901485D01*
X170408419Y-114896625D01*
X170441500Y-114895000D01*
X171216500Y-114895000D01*
X171249581Y-114896625D01*
X171249581Y-114896625D01*
G37*
D18*
X170829000Y-115570000D03*
G04 #@! TD*
D11*
G04 #@! TO.C,R4*
G36*
X166889581Y-114896625D02*
X166922343Y-114901485D01*
X166954471Y-114909533D01*
X166985656Y-114920691D01*
X167015596Y-114934852D01*
X167044005Y-114951879D01*
X167070608Y-114971609D01*
X167095149Y-114993851D01*
X167117391Y-115018392D01*
X167137121Y-115044995D01*
X167154148Y-115073404D01*
X167168309Y-115103344D01*
X167179467Y-115134529D01*
X167187515Y-115166657D01*
X167192375Y-115199419D01*
X167194000Y-115232500D01*
X167194000Y-115907500D01*
X167192375Y-115940581D01*
X167187515Y-115973343D01*
X167179467Y-116005471D01*
X167168309Y-116036656D01*
X167154148Y-116066596D01*
X167137121Y-116095005D01*
X167117391Y-116121608D01*
X167095149Y-116146149D01*
X167070608Y-116168391D01*
X167044005Y-116188121D01*
X167015596Y-116205148D01*
X166985656Y-116219309D01*
X166954471Y-116230467D01*
X166922343Y-116238515D01*
X166889581Y-116243375D01*
X166856500Y-116245000D01*
X166081500Y-116245000D01*
X166048419Y-116243375D01*
X166015657Y-116238515D01*
X165983529Y-116230467D01*
X165952344Y-116219309D01*
X165922404Y-116205148D01*
X165893995Y-116188121D01*
X165867392Y-116168391D01*
X165842851Y-116146149D01*
X165820609Y-116121608D01*
X165800879Y-116095005D01*
X165783852Y-116066596D01*
X165769691Y-116036656D01*
X165758533Y-116005471D01*
X165750485Y-115973343D01*
X165745625Y-115940581D01*
X165744000Y-115907500D01*
X165744000Y-115232500D01*
X165745625Y-115199419D01*
X165750485Y-115166657D01*
X165758533Y-115134529D01*
X165769691Y-115103344D01*
X165783852Y-115073404D01*
X165800879Y-115044995D01*
X165820609Y-115018392D01*
X165842851Y-114993851D01*
X165867392Y-114971609D01*
X165893995Y-114951879D01*
X165922404Y-114934852D01*
X165952344Y-114920691D01*
X165983529Y-114909533D01*
X166015657Y-114901485D01*
X166048419Y-114896625D01*
X166081500Y-114895000D01*
X166856500Y-114895000D01*
X166889581Y-114896625D01*
X166889581Y-114896625D01*
G37*
D18*
X166469000Y-115570000D03*
D11*
G36*
X165139581Y-114896625D02*
X165172343Y-114901485D01*
X165204471Y-114909533D01*
X165235656Y-114920691D01*
X165265596Y-114934852D01*
X165294005Y-114951879D01*
X165320608Y-114971609D01*
X165345149Y-114993851D01*
X165367391Y-115018392D01*
X165387121Y-115044995D01*
X165404148Y-115073404D01*
X165418309Y-115103344D01*
X165429467Y-115134529D01*
X165437515Y-115166657D01*
X165442375Y-115199419D01*
X165444000Y-115232500D01*
X165444000Y-115907500D01*
X165442375Y-115940581D01*
X165437515Y-115973343D01*
X165429467Y-116005471D01*
X165418309Y-116036656D01*
X165404148Y-116066596D01*
X165387121Y-116095005D01*
X165367391Y-116121608D01*
X165345149Y-116146149D01*
X165320608Y-116168391D01*
X165294005Y-116188121D01*
X165265596Y-116205148D01*
X165235656Y-116219309D01*
X165204471Y-116230467D01*
X165172343Y-116238515D01*
X165139581Y-116243375D01*
X165106500Y-116245000D01*
X164331500Y-116245000D01*
X164298419Y-116243375D01*
X164265657Y-116238515D01*
X164233529Y-116230467D01*
X164202344Y-116219309D01*
X164172404Y-116205148D01*
X164143995Y-116188121D01*
X164117392Y-116168391D01*
X164092851Y-116146149D01*
X164070609Y-116121608D01*
X164050879Y-116095005D01*
X164033852Y-116066596D01*
X164019691Y-116036656D01*
X164008533Y-116005471D01*
X164000485Y-115973343D01*
X163995625Y-115940581D01*
X163994000Y-115907500D01*
X163994000Y-115232500D01*
X163995625Y-115199419D01*
X164000485Y-115166657D01*
X164008533Y-115134529D01*
X164019691Y-115103344D01*
X164033852Y-115073404D01*
X164050879Y-115044995D01*
X164070609Y-115018392D01*
X164092851Y-114993851D01*
X164117392Y-114971609D01*
X164143995Y-114951879D01*
X164172404Y-114934852D01*
X164202344Y-114920691D01*
X164233529Y-114909533D01*
X164265657Y-114901485D01*
X164298419Y-114896625D01*
X164331500Y-114895000D01*
X165106500Y-114895000D01*
X165139581Y-114896625D01*
X165139581Y-114896625D01*
G37*
D18*
X164719000Y-115570000D03*
G04 #@! TD*
D11*
G04 #@! TO.C,R5*
G36*
X184520581Y-123581625D02*
X184553343Y-123586485D01*
X184585471Y-123594533D01*
X184616656Y-123605691D01*
X184646596Y-123619852D01*
X184675005Y-123636879D01*
X184701608Y-123656609D01*
X184726149Y-123678851D01*
X184748391Y-123703392D01*
X184768121Y-123729995D01*
X184785148Y-123758404D01*
X184799309Y-123788344D01*
X184810467Y-123819529D01*
X184818515Y-123851657D01*
X184823375Y-123884419D01*
X184825000Y-123917500D01*
X184825000Y-124692500D01*
X184823375Y-124725581D01*
X184818515Y-124758343D01*
X184810467Y-124790471D01*
X184799309Y-124821656D01*
X184785148Y-124851596D01*
X184768121Y-124880005D01*
X184748391Y-124906608D01*
X184726149Y-124931149D01*
X184701608Y-124953391D01*
X184675005Y-124973121D01*
X184646596Y-124990148D01*
X184616656Y-125004309D01*
X184585471Y-125015467D01*
X184553343Y-125023515D01*
X184520581Y-125028375D01*
X184487500Y-125030000D01*
X183812500Y-125030000D01*
X183779419Y-125028375D01*
X183746657Y-125023515D01*
X183714529Y-125015467D01*
X183683344Y-125004309D01*
X183653404Y-124990148D01*
X183624995Y-124973121D01*
X183598392Y-124953391D01*
X183573851Y-124931149D01*
X183551609Y-124906608D01*
X183531879Y-124880005D01*
X183514852Y-124851596D01*
X183500691Y-124821656D01*
X183489533Y-124790471D01*
X183481485Y-124758343D01*
X183476625Y-124725581D01*
X183475000Y-124692500D01*
X183475000Y-123917500D01*
X183476625Y-123884419D01*
X183481485Y-123851657D01*
X183489533Y-123819529D01*
X183500691Y-123788344D01*
X183514852Y-123758404D01*
X183531879Y-123729995D01*
X183551609Y-123703392D01*
X183573851Y-123678851D01*
X183598392Y-123656609D01*
X183624995Y-123636879D01*
X183653404Y-123619852D01*
X183683344Y-123605691D01*
X183714529Y-123594533D01*
X183746657Y-123586485D01*
X183779419Y-123581625D01*
X183812500Y-123580000D01*
X184487500Y-123580000D01*
X184520581Y-123581625D01*
X184520581Y-123581625D01*
G37*
D18*
X184150000Y-124305000D03*
D11*
G36*
X184520581Y-121831625D02*
X184553343Y-121836485D01*
X184585471Y-121844533D01*
X184616656Y-121855691D01*
X184646596Y-121869852D01*
X184675005Y-121886879D01*
X184701608Y-121906609D01*
X184726149Y-121928851D01*
X184748391Y-121953392D01*
X184768121Y-121979995D01*
X184785148Y-122008404D01*
X184799309Y-122038344D01*
X184810467Y-122069529D01*
X184818515Y-122101657D01*
X184823375Y-122134419D01*
X184825000Y-122167500D01*
X184825000Y-122942500D01*
X184823375Y-122975581D01*
X184818515Y-123008343D01*
X184810467Y-123040471D01*
X184799309Y-123071656D01*
X184785148Y-123101596D01*
X184768121Y-123130005D01*
X184748391Y-123156608D01*
X184726149Y-123181149D01*
X184701608Y-123203391D01*
X184675005Y-123223121D01*
X184646596Y-123240148D01*
X184616656Y-123254309D01*
X184585471Y-123265467D01*
X184553343Y-123273515D01*
X184520581Y-123278375D01*
X184487500Y-123280000D01*
X183812500Y-123280000D01*
X183779419Y-123278375D01*
X183746657Y-123273515D01*
X183714529Y-123265467D01*
X183683344Y-123254309D01*
X183653404Y-123240148D01*
X183624995Y-123223121D01*
X183598392Y-123203391D01*
X183573851Y-123181149D01*
X183551609Y-123156608D01*
X183531879Y-123130005D01*
X183514852Y-123101596D01*
X183500691Y-123071656D01*
X183489533Y-123040471D01*
X183481485Y-123008343D01*
X183476625Y-122975581D01*
X183475000Y-122942500D01*
X183475000Y-122167500D01*
X183476625Y-122134419D01*
X183481485Y-122101657D01*
X183489533Y-122069529D01*
X183500691Y-122038344D01*
X183514852Y-122008404D01*
X183531879Y-121979995D01*
X183551609Y-121953392D01*
X183573851Y-121928851D01*
X183598392Y-121906609D01*
X183624995Y-121886879D01*
X183653404Y-121869852D01*
X183683344Y-121855691D01*
X183714529Y-121844533D01*
X183746657Y-121836485D01*
X183779419Y-121831625D01*
X183812500Y-121830000D01*
X184487500Y-121830000D01*
X184520581Y-121831625D01*
X184520581Y-121831625D01*
G37*
D18*
X184150000Y-122555000D03*
G04 #@! TD*
D11*
G04 #@! TO.C,R6*
G36*
X182615581Y-121831625D02*
X182648343Y-121836485D01*
X182680471Y-121844533D01*
X182711656Y-121855691D01*
X182741596Y-121869852D01*
X182770005Y-121886879D01*
X182796608Y-121906609D01*
X182821149Y-121928851D01*
X182843391Y-121953392D01*
X182863121Y-121979995D01*
X182880148Y-122008404D01*
X182894309Y-122038344D01*
X182905467Y-122069529D01*
X182913515Y-122101657D01*
X182918375Y-122134419D01*
X182920000Y-122167500D01*
X182920000Y-122942500D01*
X182918375Y-122975581D01*
X182913515Y-123008343D01*
X182905467Y-123040471D01*
X182894309Y-123071656D01*
X182880148Y-123101596D01*
X182863121Y-123130005D01*
X182843391Y-123156608D01*
X182821149Y-123181149D01*
X182796608Y-123203391D01*
X182770005Y-123223121D01*
X182741596Y-123240148D01*
X182711656Y-123254309D01*
X182680471Y-123265467D01*
X182648343Y-123273515D01*
X182615581Y-123278375D01*
X182582500Y-123280000D01*
X181907500Y-123280000D01*
X181874419Y-123278375D01*
X181841657Y-123273515D01*
X181809529Y-123265467D01*
X181778344Y-123254309D01*
X181748404Y-123240148D01*
X181719995Y-123223121D01*
X181693392Y-123203391D01*
X181668851Y-123181149D01*
X181646609Y-123156608D01*
X181626879Y-123130005D01*
X181609852Y-123101596D01*
X181595691Y-123071656D01*
X181584533Y-123040471D01*
X181576485Y-123008343D01*
X181571625Y-122975581D01*
X181570000Y-122942500D01*
X181570000Y-122167500D01*
X181571625Y-122134419D01*
X181576485Y-122101657D01*
X181584533Y-122069529D01*
X181595691Y-122038344D01*
X181609852Y-122008404D01*
X181626879Y-121979995D01*
X181646609Y-121953392D01*
X181668851Y-121928851D01*
X181693392Y-121906609D01*
X181719995Y-121886879D01*
X181748404Y-121869852D01*
X181778344Y-121855691D01*
X181809529Y-121844533D01*
X181841657Y-121836485D01*
X181874419Y-121831625D01*
X181907500Y-121830000D01*
X182582500Y-121830000D01*
X182615581Y-121831625D01*
X182615581Y-121831625D01*
G37*
D18*
X182245000Y-122555000D03*
D11*
G36*
X182615581Y-123581625D02*
X182648343Y-123586485D01*
X182680471Y-123594533D01*
X182711656Y-123605691D01*
X182741596Y-123619852D01*
X182770005Y-123636879D01*
X182796608Y-123656609D01*
X182821149Y-123678851D01*
X182843391Y-123703392D01*
X182863121Y-123729995D01*
X182880148Y-123758404D01*
X182894309Y-123788344D01*
X182905467Y-123819529D01*
X182913515Y-123851657D01*
X182918375Y-123884419D01*
X182920000Y-123917500D01*
X182920000Y-124692500D01*
X182918375Y-124725581D01*
X182913515Y-124758343D01*
X182905467Y-124790471D01*
X182894309Y-124821656D01*
X182880148Y-124851596D01*
X182863121Y-124880005D01*
X182843391Y-124906608D01*
X182821149Y-124931149D01*
X182796608Y-124953391D01*
X182770005Y-124973121D01*
X182741596Y-124990148D01*
X182711656Y-125004309D01*
X182680471Y-125015467D01*
X182648343Y-125023515D01*
X182615581Y-125028375D01*
X182582500Y-125030000D01*
X181907500Y-125030000D01*
X181874419Y-125028375D01*
X181841657Y-125023515D01*
X181809529Y-125015467D01*
X181778344Y-125004309D01*
X181748404Y-124990148D01*
X181719995Y-124973121D01*
X181693392Y-124953391D01*
X181668851Y-124931149D01*
X181646609Y-124906608D01*
X181626879Y-124880005D01*
X181609852Y-124851596D01*
X181595691Y-124821656D01*
X181584533Y-124790471D01*
X181576485Y-124758343D01*
X181571625Y-124725581D01*
X181570000Y-124692500D01*
X181570000Y-123917500D01*
X181571625Y-123884419D01*
X181576485Y-123851657D01*
X181584533Y-123819529D01*
X181595691Y-123788344D01*
X181609852Y-123758404D01*
X181626879Y-123729995D01*
X181646609Y-123703392D01*
X181668851Y-123678851D01*
X181693392Y-123656609D01*
X181719995Y-123636879D01*
X181748404Y-123619852D01*
X181778344Y-123605691D01*
X181809529Y-123594533D01*
X181841657Y-123586485D01*
X181874419Y-123581625D01*
X181907500Y-123580000D01*
X182582500Y-123580000D01*
X182615581Y-123581625D01*
X182615581Y-123581625D01*
G37*
D18*
X182245000Y-124305000D03*
G04 #@! TD*
D11*
G04 #@! TO.C,R7*
G36*
X166395581Y-128231625D02*
X166428343Y-128236485D01*
X166460471Y-128244533D01*
X166491656Y-128255691D01*
X166521596Y-128269852D01*
X166550005Y-128286879D01*
X166576608Y-128306609D01*
X166601149Y-128328851D01*
X166623391Y-128353392D01*
X166643121Y-128379995D01*
X166660148Y-128408404D01*
X166674309Y-128438344D01*
X166685467Y-128469529D01*
X166693515Y-128501657D01*
X166698375Y-128534419D01*
X166700000Y-128567500D01*
X166700000Y-129242500D01*
X166698375Y-129275581D01*
X166693515Y-129308343D01*
X166685467Y-129340471D01*
X166674309Y-129371656D01*
X166660148Y-129401596D01*
X166643121Y-129430005D01*
X166623391Y-129456608D01*
X166601149Y-129481149D01*
X166576608Y-129503391D01*
X166550005Y-129523121D01*
X166521596Y-129540148D01*
X166491656Y-129554309D01*
X166460471Y-129565467D01*
X166428343Y-129573515D01*
X166395581Y-129578375D01*
X166362500Y-129580000D01*
X165587500Y-129580000D01*
X165554419Y-129578375D01*
X165521657Y-129573515D01*
X165489529Y-129565467D01*
X165458344Y-129554309D01*
X165428404Y-129540148D01*
X165399995Y-129523121D01*
X165373392Y-129503391D01*
X165348851Y-129481149D01*
X165326609Y-129456608D01*
X165306879Y-129430005D01*
X165289852Y-129401596D01*
X165275691Y-129371656D01*
X165264533Y-129340471D01*
X165256485Y-129308343D01*
X165251625Y-129275581D01*
X165250000Y-129242500D01*
X165250000Y-128567500D01*
X165251625Y-128534419D01*
X165256485Y-128501657D01*
X165264533Y-128469529D01*
X165275691Y-128438344D01*
X165289852Y-128408404D01*
X165306879Y-128379995D01*
X165326609Y-128353392D01*
X165348851Y-128328851D01*
X165373392Y-128306609D01*
X165399995Y-128286879D01*
X165428404Y-128269852D01*
X165458344Y-128255691D01*
X165489529Y-128244533D01*
X165521657Y-128236485D01*
X165554419Y-128231625D01*
X165587500Y-128230000D01*
X166362500Y-128230000D01*
X166395581Y-128231625D01*
X166395581Y-128231625D01*
G37*
D18*
X165975000Y-128905000D03*
D11*
G36*
X164645581Y-128231625D02*
X164678343Y-128236485D01*
X164710471Y-128244533D01*
X164741656Y-128255691D01*
X164771596Y-128269852D01*
X164800005Y-128286879D01*
X164826608Y-128306609D01*
X164851149Y-128328851D01*
X164873391Y-128353392D01*
X164893121Y-128379995D01*
X164910148Y-128408404D01*
X164924309Y-128438344D01*
X164935467Y-128469529D01*
X164943515Y-128501657D01*
X164948375Y-128534419D01*
X164950000Y-128567500D01*
X164950000Y-129242500D01*
X164948375Y-129275581D01*
X164943515Y-129308343D01*
X164935467Y-129340471D01*
X164924309Y-129371656D01*
X164910148Y-129401596D01*
X164893121Y-129430005D01*
X164873391Y-129456608D01*
X164851149Y-129481149D01*
X164826608Y-129503391D01*
X164800005Y-129523121D01*
X164771596Y-129540148D01*
X164741656Y-129554309D01*
X164710471Y-129565467D01*
X164678343Y-129573515D01*
X164645581Y-129578375D01*
X164612500Y-129580000D01*
X163837500Y-129580000D01*
X163804419Y-129578375D01*
X163771657Y-129573515D01*
X163739529Y-129565467D01*
X163708344Y-129554309D01*
X163678404Y-129540148D01*
X163649995Y-129523121D01*
X163623392Y-129503391D01*
X163598851Y-129481149D01*
X163576609Y-129456608D01*
X163556879Y-129430005D01*
X163539852Y-129401596D01*
X163525691Y-129371656D01*
X163514533Y-129340471D01*
X163506485Y-129308343D01*
X163501625Y-129275581D01*
X163500000Y-129242500D01*
X163500000Y-128567500D01*
X163501625Y-128534419D01*
X163506485Y-128501657D01*
X163514533Y-128469529D01*
X163525691Y-128438344D01*
X163539852Y-128408404D01*
X163556879Y-128379995D01*
X163576609Y-128353392D01*
X163598851Y-128328851D01*
X163623392Y-128306609D01*
X163649995Y-128286879D01*
X163678404Y-128269852D01*
X163708344Y-128255691D01*
X163739529Y-128244533D01*
X163771657Y-128236485D01*
X163804419Y-128231625D01*
X163837500Y-128230000D01*
X164612500Y-128230000D01*
X164645581Y-128231625D01*
X164645581Y-128231625D01*
G37*
D18*
X164225000Y-128905000D03*
G04 #@! TD*
D11*
G04 #@! TO.C,R8*
G36*
X164645581Y-133311625D02*
X164678343Y-133316485D01*
X164710471Y-133324533D01*
X164741656Y-133335691D01*
X164771596Y-133349852D01*
X164800005Y-133366879D01*
X164826608Y-133386609D01*
X164851149Y-133408851D01*
X164873391Y-133433392D01*
X164893121Y-133459995D01*
X164910148Y-133488404D01*
X164924309Y-133518344D01*
X164935467Y-133549529D01*
X164943515Y-133581657D01*
X164948375Y-133614419D01*
X164950000Y-133647500D01*
X164950000Y-134322500D01*
X164948375Y-134355581D01*
X164943515Y-134388343D01*
X164935467Y-134420471D01*
X164924309Y-134451656D01*
X164910148Y-134481596D01*
X164893121Y-134510005D01*
X164873391Y-134536608D01*
X164851149Y-134561149D01*
X164826608Y-134583391D01*
X164800005Y-134603121D01*
X164771596Y-134620148D01*
X164741656Y-134634309D01*
X164710471Y-134645467D01*
X164678343Y-134653515D01*
X164645581Y-134658375D01*
X164612500Y-134660000D01*
X163837500Y-134660000D01*
X163804419Y-134658375D01*
X163771657Y-134653515D01*
X163739529Y-134645467D01*
X163708344Y-134634309D01*
X163678404Y-134620148D01*
X163649995Y-134603121D01*
X163623392Y-134583391D01*
X163598851Y-134561149D01*
X163576609Y-134536608D01*
X163556879Y-134510005D01*
X163539852Y-134481596D01*
X163525691Y-134451656D01*
X163514533Y-134420471D01*
X163506485Y-134388343D01*
X163501625Y-134355581D01*
X163500000Y-134322500D01*
X163500000Y-133647500D01*
X163501625Y-133614419D01*
X163506485Y-133581657D01*
X163514533Y-133549529D01*
X163525691Y-133518344D01*
X163539852Y-133488404D01*
X163556879Y-133459995D01*
X163576609Y-133433392D01*
X163598851Y-133408851D01*
X163623392Y-133386609D01*
X163649995Y-133366879D01*
X163678404Y-133349852D01*
X163708344Y-133335691D01*
X163739529Y-133324533D01*
X163771657Y-133316485D01*
X163804419Y-133311625D01*
X163837500Y-133310000D01*
X164612500Y-133310000D01*
X164645581Y-133311625D01*
X164645581Y-133311625D01*
G37*
D18*
X164225000Y-133985000D03*
D11*
G36*
X166395581Y-133311625D02*
X166428343Y-133316485D01*
X166460471Y-133324533D01*
X166491656Y-133335691D01*
X166521596Y-133349852D01*
X166550005Y-133366879D01*
X166576608Y-133386609D01*
X166601149Y-133408851D01*
X166623391Y-133433392D01*
X166643121Y-133459995D01*
X166660148Y-133488404D01*
X166674309Y-133518344D01*
X166685467Y-133549529D01*
X166693515Y-133581657D01*
X166698375Y-133614419D01*
X166700000Y-133647500D01*
X166700000Y-134322500D01*
X166698375Y-134355581D01*
X166693515Y-134388343D01*
X166685467Y-134420471D01*
X166674309Y-134451656D01*
X166660148Y-134481596D01*
X166643121Y-134510005D01*
X166623391Y-134536608D01*
X166601149Y-134561149D01*
X166576608Y-134583391D01*
X166550005Y-134603121D01*
X166521596Y-134620148D01*
X166491656Y-134634309D01*
X166460471Y-134645467D01*
X166428343Y-134653515D01*
X166395581Y-134658375D01*
X166362500Y-134660000D01*
X165587500Y-134660000D01*
X165554419Y-134658375D01*
X165521657Y-134653515D01*
X165489529Y-134645467D01*
X165458344Y-134634309D01*
X165428404Y-134620148D01*
X165399995Y-134603121D01*
X165373392Y-134583391D01*
X165348851Y-134561149D01*
X165326609Y-134536608D01*
X165306879Y-134510005D01*
X165289852Y-134481596D01*
X165275691Y-134451656D01*
X165264533Y-134420471D01*
X165256485Y-134388343D01*
X165251625Y-134355581D01*
X165250000Y-134322500D01*
X165250000Y-133647500D01*
X165251625Y-133614419D01*
X165256485Y-133581657D01*
X165264533Y-133549529D01*
X165275691Y-133518344D01*
X165289852Y-133488404D01*
X165306879Y-133459995D01*
X165326609Y-133433392D01*
X165348851Y-133408851D01*
X165373392Y-133386609D01*
X165399995Y-133366879D01*
X165428404Y-133349852D01*
X165458344Y-133335691D01*
X165489529Y-133324533D01*
X165521657Y-133316485D01*
X165554419Y-133311625D01*
X165587500Y-133310000D01*
X166362500Y-133310000D01*
X166395581Y-133311625D01*
X166395581Y-133311625D01*
G37*
D18*
X165975000Y-133985000D03*
G04 #@! TD*
D11*
G04 #@! TO.C,R9*
G36*
X170840581Y-128231625D02*
X170873343Y-128236485D01*
X170905471Y-128244533D01*
X170936656Y-128255691D01*
X170966596Y-128269852D01*
X170995005Y-128286879D01*
X171021608Y-128306609D01*
X171046149Y-128328851D01*
X171068391Y-128353392D01*
X171088121Y-128379995D01*
X171105148Y-128408404D01*
X171119309Y-128438344D01*
X171130467Y-128469529D01*
X171138515Y-128501657D01*
X171143375Y-128534419D01*
X171145000Y-128567500D01*
X171145000Y-129242500D01*
X171143375Y-129275581D01*
X171138515Y-129308343D01*
X171130467Y-129340471D01*
X171119309Y-129371656D01*
X171105148Y-129401596D01*
X171088121Y-129430005D01*
X171068391Y-129456608D01*
X171046149Y-129481149D01*
X171021608Y-129503391D01*
X170995005Y-129523121D01*
X170966596Y-129540148D01*
X170936656Y-129554309D01*
X170905471Y-129565467D01*
X170873343Y-129573515D01*
X170840581Y-129578375D01*
X170807500Y-129580000D01*
X170032500Y-129580000D01*
X169999419Y-129578375D01*
X169966657Y-129573515D01*
X169934529Y-129565467D01*
X169903344Y-129554309D01*
X169873404Y-129540148D01*
X169844995Y-129523121D01*
X169818392Y-129503391D01*
X169793851Y-129481149D01*
X169771609Y-129456608D01*
X169751879Y-129430005D01*
X169734852Y-129401596D01*
X169720691Y-129371656D01*
X169709533Y-129340471D01*
X169701485Y-129308343D01*
X169696625Y-129275581D01*
X169695000Y-129242500D01*
X169695000Y-128567500D01*
X169696625Y-128534419D01*
X169701485Y-128501657D01*
X169709533Y-128469529D01*
X169720691Y-128438344D01*
X169734852Y-128408404D01*
X169751879Y-128379995D01*
X169771609Y-128353392D01*
X169793851Y-128328851D01*
X169818392Y-128306609D01*
X169844995Y-128286879D01*
X169873404Y-128269852D01*
X169903344Y-128255691D01*
X169934529Y-128244533D01*
X169966657Y-128236485D01*
X169999419Y-128231625D01*
X170032500Y-128230000D01*
X170807500Y-128230000D01*
X170840581Y-128231625D01*
X170840581Y-128231625D01*
G37*
D18*
X170420000Y-128905000D03*
D11*
G36*
X169090581Y-128231625D02*
X169123343Y-128236485D01*
X169155471Y-128244533D01*
X169186656Y-128255691D01*
X169216596Y-128269852D01*
X169245005Y-128286879D01*
X169271608Y-128306609D01*
X169296149Y-128328851D01*
X169318391Y-128353392D01*
X169338121Y-128379995D01*
X169355148Y-128408404D01*
X169369309Y-128438344D01*
X169380467Y-128469529D01*
X169388515Y-128501657D01*
X169393375Y-128534419D01*
X169395000Y-128567500D01*
X169395000Y-129242500D01*
X169393375Y-129275581D01*
X169388515Y-129308343D01*
X169380467Y-129340471D01*
X169369309Y-129371656D01*
X169355148Y-129401596D01*
X169338121Y-129430005D01*
X169318391Y-129456608D01*
X169296149Y-129481149D01*
X169271608Y-129503391D01*
X169245005Y-129523121D01*
X169216596Y-129540148D01*
X169186656Y-129554309D01*
X169155471Y-129565467D01*
X169123343Y-129573515D01*
X169090581Y-129578375D01*
X169057500Y-129580000D01*
X168282500Y-129580000D01*
X168249419Y-129578375D01*
X168216657Y-129573515D01*
X168184529Y-129565467D01*
X168153344Y-129554309D01*
X168123404Y-129540148D01*
X168094995Y-129523121D01*
X168068392Y-129503391D01*
X168043851Y-129481149D01*
X168021609Y-129456608D01*
X168001879Y-129430005D01*
X167984852Y-129401596D01*
X167970691Y-129371656D01*
X167959533Y-129340471D01*
X167951485Y-129308343D01*
X167946625Y-129275581D01*
X167945000Y-129242500D01*
X167945000Y-128567500D01*
X167946625Y-128534419D01*
X167951485Y-128501657D01*
X167959533Y-128469529D01*
X167970691Y-128438344D01*
X167984852Y-128408404D01*
X168001879Y-128379995D01*
X168021609Y-128353392D01*
X168043851Y-128328851D01*
X168068392Y-128306609D01*
X168094995Y-128286879D01*
X168123404Y-128269852D01*
X168153344Y-128255691D01*
X168184529Y-128244533D01*
X168216657Y-128236485D01*
X168249419Y-128231625D01*
X168282500Y-128230000D01*
X169057500Y-128230000D01*
X169090581Y-128231625D01*
X169090581Y-128231625D01*
G37*
D18*
X168670000Y-128905000D03*
G04 #@! TD*
D11*
G04 #@! TO.C,R10*
G36*
X170840581Y-133311625D02*
X170873343Y-133316485D01*
X170905471Y-133324533D01*
X170936656Y-133335691D01*
X170966596Y-133349852D01*
X170995005Y-133366879D01*
X171021608Y-133386609D01*
X171046149Y-133408851D01*
X171068391Y-133433392D01*
X171088121Y-133459995D01*
X171105148Y-133488404D01*
X171119309Y-133518344D01*
X171130467Y-133549529D01*
X171138515Y-133581657D01*
X171143375Y-133614419D01*
X171145000Y-133647500D01*
X171145000Y-134322500D01*
X171143375Y-134355581D01*
X171138515Y-134388343D01*
X171130467Y-134420471D01*
X171119309Y-134451656D01*
X171105148Y-134481596D01*
X171088121Y-134510005D01*
X171068391Y-134536608D01*
X171046149Y-134561149D01*
X171021608Y-134583391D01*
X170995005Y-134603121D01*
X170966596Y-134620148D01*
X170936656Y-134634309D01*
X170905471Y-134645467D01*
X170873343Y-134653515D01*
X170840581Y-134658375D01*
X170807500Y-134660000D01*
X170032500Y-134660000D01*
X169999419Y-134658375D01*
X169966657Y-134653515D01*
X169934529Y-134645467D01*
X169903344Y-134634309D01*
X169873404Y-134620148D01*
X169844995Y-134603121D01*
X169818392Y-134583391D01*
X169793851Y-134561149D01*
X169771609Y-134536608D01*
X169751879Y-134510005D01*
X169734852Y-134481596D01*
X169720691Y-134451656D01*
X169709533Y-134420471D01*
X169701485Y-134388343D01*
X169696625Y-134355581D01*
X169695000Y-134322500D01*
X169695000Y-133647500D01*
X169696625Y-133614419D01*
X169701485Y-133581657D01*
X169709533Y-133549529D01*
X169720691Y-133518344D01*
X169734852Y-133488404D01*
X169751879Y-133459995D01*
X169771609Y-133433392D01*
X169793851Y-133408851D01*
X169818392Y-133386609D01*
X169844995Y-133366879D01*
X169873404Y-133349852D01*
X169903344Y-133335691D01*
X169934529Y-133324533D01*
X169966657Y-133316485D01*
X169999419Y-133311625D01*
X170032500Y-133310000D01*
X170807500Y-133310000D01*
X170840581Y-133311625D01*
X170840581Y-133311625D01*
G37*
D18*
X170420000Y-133985000D03*
D11*
G36*
X169090581Y-133311625D02*
X169123343Y-133316485D01*
X169155471Y-133324533D01*
X169186656Y-133335691D01*
X169216596Y-133349852D01*
X169245005Y-133366879D01*
X169271608Y-133386609D01*
X169296149Y-133408851D01*
X169318391Y-133433392D01*
X169338121Y-133459995D01*
X169355148Y-133488404D01*
X169369309Y-133518344D01*
X169380467Y-133549529D01*
X169388515Y-133581657D01*
X169393375Y-133614419D01*
X169395000Y-133647500D01*
X169395000Y-134322500D01*
X169393375Y-134355581D01*
X169388515Y-134388343D01*
X169380467Y-134420471D01*
X169369309Y-134451656D01*
X169355148Y-134481596D01*
X169338121Y-134510005D01*
X169318391Y-134536608D01*
X169296149Y-134561149D01*
X169271608Y-134583391D01*
X169245005Y-134603121D01*
X169216596Y-134620148D01*
X169186656Y-134634309D01*
X169155471Y-134645467D01*
X169123343Y-134653515D01*
X169090581Y-134658375D01*
X169057500Y-134660000D01*
X168282500Y-134660000D01*
X168249419Y-134658375D01*
X168216657Y-134653515D01*
X168184529Y-134645467D01*
X168153344Y-134634309D01*
X168123404Y-134620148D01*
X168094995Y-134603121D01*
X168068392Y-134583391D01*
X168043851Y-134561149D01*
X168021609Y-134536608D01*
X168001879Y-134510005D01*
X167984852Y-134481596D01*
X167970691Y-134451656D01*
X167959533Y-134420471D01*
X167951485Y-134388343D01*
X167946625Y-134355581D01*
X167945000Y-134322500D01*
X167945000Y-133647500D01*
X167946625Y-133614419D01*
X167951485Y-133581657D01*
X167959533Y-133549529D01*
X167970691Y-133518344D01*
X167984852Y-133488404D01*
X168001879Y-133459995D01*
X168021609Y-133433392D01*
X168043851Y-133408851D01*
X168068392Y-133386609D01*
X168094995Y-133366879D01*
X168123404Y-133349852D01*
X168153344Y-133335691D01*
X168184529Y-133324533D01*
X168216657Y-133316485D01*
X168249419Y-133311625D01*
X168282500Y-133310000D01*
X169057500Y-133310000D01*
X169090581Y-133311625D01*
X169090581Y-133311625D01*
G37*
D18*
X168670000Y-133985000D03*
G04 #@! TD*
D19*
G04 #@! TO.C,SW_BOOT1*
X165354000Y-117120000D03*
X165354000Y-120370000D03*
G04 #@! TD*
G04 #@! TO.C,SW_RESET1*
X171704000Y-117120000D03*
X171704000Y-120370000D03*
G04 #@! TD*
D20*
G04 #@! TO.C,TP1*
X172720000Y-135890000D03*
G04 #@! TD*
G04 #@! TO.C,TP2*
X175895000Y-135890000D03*
G04 #@! TD*
G04 #@! TO.C,TP3*
X164973000Y-124460000D03*
G04 #@! TD*
G04 #@! TO.C,TP4*
X166878000Y-124460000D03*
G04 #@! TD*
G04 #@! TO.C,TP5*
X174625000Y-128905000D03*
G04 #@! TD*
G04 #@! TO.C,TP6*
X176530000Y-128270000D03*
G04 #@! TD*
G04 #@! TO.C,TP7*
X169545000Y-127000000D03*
G04 #@! TD*
G04 #@! TO.C,TP8*
X172720000Y-128905000D03*
G04 #@! TD*
G04 #@! TO.C,TP9*
X180340000Y-122555000D03*
G04 #@! TD*
G04 #@! TO.C,TP10*
X184785000Y-121285000D03*
G04 #@! TD*
G04 #@! TO.C,TP11*
X186690000Y-123190000D03*
G04 #@! TD*
G04 #@! TO.C,TP12*
X186690000Y-121285000D03*
G04 #@! TD*
D21*
G04 #@! TO.C,U1*
X171520000Y-125615000D03*
X171520000Y-126115000D03*
X171520000Y-126615000D03*
X171520000Y-127115000D03*
X173920000Y-127115000D03*
X173920000Y-126615000D03*
X173920000Y-126115000D03*
X173920000Y-125615000D03*
D22*
X172720000Y-126365000D03*
G04 #@! TD*
D23*
G04 #@! TO.C,J5*
X186424000Y-134878200D03*
X185924000Y-134878200D03*
X185424000Y-134878200D03*
X184924000Y-134878200D03*
D24*
X187214000Y-132228200D03*
X184134000Y-132228200D03*
G04 #@! TD*
M02*
