G04 #@! TF.GenerationSoftware,KiCad,Pcbnew,(5.0.0-rc2-200-g1f6f76beb)*
G04 #@! TF.CreationDate,2020-02-25T20:58:18-05:00*
G04 #@! TF.ProjectId,watch-logic,77617463682D6C6F6769632E6B696361,rev?*
G04 #@! TF.SameCoordinates,Original*
G04 #@! TF.FileFunction,Copper,L2,Bot,Signal*
G04 #@! TF.FilePolarity,Positive*
%FSLAX46Y46*%
G04 Gerber Fmt 4.6, Leading zero omitted, Abs format (unit mm)*
G04 Created by KiCad (PCBNEW (5.0.0-rc2-200-g1f6f76beb)) date Tue Feb 25 20:58:18 2020*
%MOMM*%
%LPD*%
G01*
G04 APERTURE LIST*
G04 #@! TA.AperFunction,Conductor*
%ADD10C,0.100000*%
G04 #@! TD*
G04 #@! TA.AperFunction,SMDPad,CuDef*
%ADD11C,0.950000*%
G04 #@! TD*
G04 #@! TA.AperFunction,SMDPad,CuDef*
%ADD12C,1.200000*%
G04 #@! TD*
G04 #@! TA.AperFunction,SMDPad,CuDef*
%ADD13C,0.600000*%
G04 #@! TD*
G04 #@! TA.AperFunction,ComponentPad*
%ADD14R,0.850000X0.850000*%
G04 #@! TD*
G04 #@! TA.AperFunction,ComponentPad*
%ADD15O,0.850000X0.850000*%
G04 #@! TD*
G04 #@! TA.AperFunction,SMDPad,CuDef*
%ADD16R,2.200000X1.800000*%
G04 #@! TD*
G04 #@! TA.AperFunction,SMDPad,CuDef*
%ADD17R,1.300000X0.300000*%
G04 #@! TD*
G04 #@! TA.AperFunction,SMDPad,CuDef*
%ADD18R,0.750000X0.230000*%
G04 #@! TD*
G04 #@! TA.AperFunction,SMDPad,CuDef*
%ADD19R,0.655000X0.450000*%
G04 #@! TD*
G04 #@! TA.AperFunction,SMDPad,CuDef*
%ADD20R,0.400000X0.600000*%
G04 #@! TD*
G04 #@! TA.AperFunction,SMDPad,CuDef*
%ADD21R,0.600000X0.400000*%
G04 #@! TD*
G04 #@! TA.AperFunction,ViaPad*
%ADD22C,0.800000*%
G04 #@! TD*
G04 #@! TA.AperFunction,ViaPad*
%ADD23C,0.500000*%
G04 #@! TD*
G04 #@! TA.AperFunction,Conductor*
%ADD24C,0.200000*%
G04 #@! TD*
G04 #@! TA.AperFunction,Conductor*
%ADD25C,0.150000*%
G04 #@! TD*
G04 #@! TA.AperFunction,Conductor*
%ADD26C,0.254000*%
G04 #@! TD*
G04 APERTURE END LIST*
D10*
G04 #@! TO.N,+5V*
G04 #@! TO.C,C2*
G36*
X179203779Y-118630144D02*
X179226834Y-118633563D01*
X179249443Y-118639227D01*
X179271387Y-118647079D01*
X179292457Y-118657044D01*
X179312448Y-118669026D01*
X179331168Y-118682910D01*
X179348438Y-118698562D01*
X179364090Y-118715832D01*
X179377974Y-118734552D01*
X179389956Y-118754543D01*
X179399921Y-118775613D01*
X179407773Y-118797557D01*
X179413437Y-118820166D01*
X179416856Y-118843221D01*
X179418000Y-118866500D01*
X179418000Y-119441500D01*
X179416856Y-119464779D01*
X179413437Y-119487834D01*
X179407773Y-119510443D01*
X179399921Y-119532387D01*
X179389956Y-119553457D01*
X179377974Y-119573448D01*
X179364090Y-119592168D01*
X179348438Y-119609438D01*
X179331168Y-119625090D01*
X179312448Y-119638974D01*
X179292457Y-119650956D01*
X179271387Y-119660921D01*
X179249443Y-119668773D01*
X179226834Y-119674437D01*
X179203779Y-119677856D01*
X179180500Y-119679000D01*
X178705500Y-119679000D01*
X178682221Y-119677856D01*
X178659166Y-119674437D01*
X178636557Y-119668773D01*
X178614613Y-119660921D01*
X178593543Y-119650956D01*
X178573552Y-119638974D01*
X178554832Y-119625090D01*
X178537562Y-119609438D01*
X178521910Y-119592168D01*
X178508026Y-119573448D01*
X178496044Y-119553457D01*
X178486079Y-119532387D01*
X178478227Y-119510443D01*
X178472563Y-119487834D01*
X178469144Y-119464779D01*
X178468000Y-119441500D01*
X178468000Y-118866500D01*
X178469144Y-118843221D01*
X178472563Y-118820166D01*
X178478227Y-118797557D01*
X178486079Y-118775613D01*
X178496044Y-118754543D01*
X178508026Y-118734552D01*
X178521910Y-118715832D01*
X178537562Y-118698562D01*
X178554832Y-118682910D01*
X178573552Y-118669026D01*
X178593543Y-118657044D01*
X178614613Y-118647079D01*
X178636557Y-118639227D01*
X178659166Y-118633563D01*
X178682221Y-118630144D01*
X178705500Y-118629000D01*
X179180500Y-118629000D01*
X179203779Y-118630144D01*
X179203779Y-118630144D01*
G37*
D11*
G04 #@! TD*
G04 #@! TO.P,C2,1*
G04 #@! TO.N,+5V*
X178943000Y-119154000D03*
D10*
G04 #@! TO.N,GND*
G04 #@! TO.C,C2*
G36*
X179203779Y-120380144D02*
X179226834Y-120383563D01*
X179249443Y-120389227D01*
X179271387Y-120397079D01*
X179292457Y-120407044D01*
X179312448Y-120419026D01*
X179331168Y-120432910D01*
X179348438Y-120448562D01*
X179364090Y-120465832D01*
X179377974Y-120484552D01*
X179389956Y-120504543D01*
X179399921Y-120525613D01*
X179407773Y-120547557D01*
X179413437Y-120570166D01*
X179416856Y-120593221D01*
X179418000Y-120616500D01*
X179418000Y-121191500D01*
X179416856Y-121214779D01*
X179413437Y-121237834D01*
X179407773Y-121260443D01*
X179399921Y-121282387D01*
X179389956Y-121303457D01*
X179377974Y-121323448D01*
X179364090Y-121342168D01*
X179348438Y-121359438D01*
X179331168Y-121375090D01*
X179312448Y-121388974D01*
X179292457Y-121400956D01*
X179271387Y-121410921D01*
X179249443Y-121418773D01*
X179226834Y-121424437D01*
X179203779Y-121427856D01*
X179180500Y-121429000D01*
X178705500Y-121429000D01*
X178682221Y-121427856D01*
X178659166Y-121424437D01*
X178636557Y-121418773D01*
X178614613Y-121410921D01*
X178593543Y-121400956D01*
X178573552Y-121388974D01*
X178554832Y-121375090D01*
X178537562Y-121359438D01*
X178521910Y-121342168D01*
X178508026Y-121323448D01*
X178496044Y-121303457D01*
X178486079Y-121282387D01*
X178478227Y-121260443D01*
X178472563Y-121237834D01*
X178469144Y-121214779D01*
X178468000Y-121191500D01*
X178468000Y-120616500D01*
X178469144Y-120593221D01*
X178472563Y-120570166D01*
X178478227Y-120547557D01*
X178486079Y-120525613D01*
X178496044Y-120504543D01*
X178508026Y-120484552D01*
X178521910Y-120465832D01*
X178537562Y-120448562D01*
X178554832Y-120432910D01*
X178573552Y-120419026D01*
X178593543Y-120407044D01*
X178614613Y-120397079D01*
X178636557Y-120389227D01*
X178659166Y-120383563D01*
X178682221Y-120380144D01*
X178705500Y-120379000D01*
X179180500Y-120379000D01*
X179203779Y-120380144D01*
X179203779Y-120380144D01*
G37*
D11*
G04 #@! TD*
G04 #@! TO.P,C2,2*
G04 #@! TO.N,GND*
X178943000Y-120904000D03*
D10*
G04 #@! TO.N,N/C*
G04 #@! TO.C,J1*
G36*
X187334505Y-129836204D02*
X187358773Y-129839804D01*
X187382572Y-129845765D01*
X187405671Y-129854030D01*
X187427850Y-129864520D01*
X187448893Y-129877132D01*
X187468599Y-129891747D01*
X187486777Y-129908223D01*
X187503253Y-129926401D01*
X187517868Y-129946107D01*
X187530480Y-129967150D01*
X187540970Y-129989329D01*
X187549235Y-130012428D01*
X187555196Y-130036227D01*
X187558796Y-130060495D01*
X187560000Y-130084999D01*
X187560000Y-130785001D01*
X187558796Y-130809505D01*
X187555196Y-130833773D01*
X187549235Y-130857572D01*
X187540970Y-130880671D01*
X187530480Y-130902850D01*
X187517868Y-130923893D01*
X187503253Y-130943599D01*
X187486777Y-130961777D01*
X187468599Y-130978253D01*
X187448893Y-130992868D01*
X187427850Y-131005480D01*
X187405671Y-131015970D01*
X187382572Y-131024235D01*
X187358773Y-131030196D01*
X187334505Y-131033796D01*
X187310001Y-131035000D01*
X186009999Y-131035000D01*
X185985495Y-131033796D01*
X185961227Y-131030196D01*
X185937428Y-131024235D01*
X185914329Y-131015970D01*
X185892150Y-131005480D01*
X185871107Y-130992868D01*
X185851401Y-130978253D01*
X185833223Y-130961777D01*
X185816747Y-130943599D01*
X185802132Y-130923893D01*
X185789520Y-130902850D01*
X185779030Y-130880671D01*
X185770765Y-130857572D01*
X185764804Y-130833773D01*
X185761204Y-130809505D01*
X185760000Y-130785001D01*
X185760000Y-130084999D01*
X185761204Y-130060495D01*
X185764804Y-130036227D01*
X185770765Y-130012428D01*
X185779030Y-129989329D01*
X185789520Y-129967150D01*
X185802132Y-129946107D01*
X185816747Y-129926401D01*
X185833223Y-129908223D01*
X185851401Y-129891747D01*
X185871107Y-129877132D01*
X185892150Y-129864520D01*
X185914329Y-129854030D01*
X185937428Y-129845765D01*
X185961227Y-129839804D01*
X185985495Y-129836204D01*
X186009999Y-129835000D01*
X187310001Y-129835000D01*
X187334505Y-129836204D01*
X187334505Y-129836204D01*
G37*
D12*
G04 #@! TD*
G04 #@! TO.P,J1,MP*
G04 #@! TO.N,N/C*
X186660000Y-130435000D03*
D10*
G04 #@! TO.N,N/C*
G04 #@! TO.C,J1*
G36*
X187334505Y-124236204D02*
X187358773Y-124239804D01*
X187382572Y-124245765D01*
X187405671Y-124254030D01*
X187427850Y-124264520D01*
X187448893Y-124277132D01*
X187468599Y-124291747D01*
X187486777Y-124308223D01*
X187503253Y-124326401D01*
X187517868Y-124346107D01*
X187530480Y-124367150D01*
X187540970Y-124389329D01*
X187549235Y-124412428D01*
X187555196Y-124436227D01*
X187558796Y-124460495D01*
X187560000Y-124484999D01*
X187560000Y-125185001D01*
X187558796Y-125209505D01*
X187555196Y-125233773D01*
X187549235Y-125257572D01*
X187540970Y-125280671D01*
X187530480Y-125302850D01*
X187517868Y-125323893D01*
X187503253Y-125343599D01*
X187486777Y-125361777D01*
X187468599Y-125378253D01*
X187448893Y-125392868D01*
X187427850Y-125405480D01*
X187405671Y-125415970D01*
X187382572Y-125424235D01*
X187358773Y-125430196D01*
X187334505Y-125433796D01*
X187310001Y-125435000D01*
X186009999Y-125435000D01*
X185985495Y-125433796D01*
X185961227Y-125430196D01*
X185937428Y-125424235D01*
X185914329Y-125415970D01*
X185892150Y-125405480D01*
X185871107Y-125392868D01*
X185851401Y-125378253D01*
X185833223Y-125361777D01*
X185816747Y-125343599D01*
X185802132Y-125323893D01*
X185789520Y-125302850D01*
X185779030Y-125280671D01*
X185770765Y-125257572D01*
X185764804Y-125233773D01*
X185761204Y-125209505D01*
X185760000Y-125185001D01*
X185760000Y-124484999D01*
X185761204Y-124460495D01*
X185764804Y-124436227D01*
X185770765Y-124412428D01*
X185779030Y-124389329D01*
X185789520Y-124367150D01*
X185802132Y-124346107D01*
X185816747Y-124326401D01*
X185833223Y-124308223D01*
X185851401Y-124291747D01*
X185871107Y-124277132D01*
X185892150Y-124264520D01*
X185914329Y-124254030D01*
X185937428Y-124245765D01*
X185961227Y-124239804D01*
X185985495Y-124236204D01*
X186009999Y-124235000D01*
X187310001Y-124235000D01*
X187334505Y-124236204D01*
X187334505Y-124236204D01*
G37*
D12*
G04 #@! TD*
G04 #@! TO.P,J1,MP*
G04 #@! TO.N,N/C*
X186660000Y-124835000D03*
D10*
G04 #@! TO.N,BTN1*
G04 #@! TO.C,J1*
G36*
X183424703Y-128835722D02*
X183439264Y-128837882D01*
X183453543Y-128841459D01*
X183467403Y-128846418D01*
X183480710Y-128852712D01*
X183493336Y-128860280D01*
X183505159Y-128869048D01*
X183516066Y-128878934D01*
X183525952Y-128889841D01*
X183534720Y-128901664D01*
X183542288Y-128914290D01*
X183548582Y-128927597D01*
X183553541Y-128941457D01*
X183557118Y-128955736D01*
X183559278Y-128970297D01*
X183560000Y-128985000D01*
X183560000Y-129285000D01*
X183559278Y-129299703D01*
X183557118Y-129314264D01*
X183553541Y-129328543D01*
X183548582Y-129342403D01*
X183542288Y-129355710D01*
X183534720Y-129368336D01*
X183525952Y-129380159D01*
X183516066Y-129391066D01*
X183505159Y-129400952D01*
X183493336Y-129409720D01*
X183480710Y-129417288D01*
X183467403Y-129423582D01*
X183453543Y-129428541D01*
X183439264Y-129432118D01*
X183424703Y-129434278D01*
X183410000Y-129435000D01*
X182160000Y-129435000D01*
X182145297Y-129434278D01*
X182130736Y-129432118D01*
X182116457Y-129428541D01*
X182102597Y-129423582D01*
X182089290Y-129417288D01*
X182076664Y-129409720D01*
X182064841Y-129400952D01*
X182053934Y-129391066D01*
X182044048Y-129380159D01*
X182035280Y-129368336D01*
X182027712Y-129355710D01*
X182021418Y-129342403D01*
X182016459Y-129328543D01*
X182012882Y-129314264D01*
X182010722Y-129299703D01*
X182010000Y-129285000D01*
X182010000Y-128985000D01*
X182010722Y-128970297D01*
X182012882Y-128955736D01*
X182016459Y-128941457D01*
X182021418Y-128927597D01*
X182027712Y-128914290D01*
X182035280Y-128901664D01*
X182044048Y-128889841D01*
X182053934Y-128878934D01*
X182064841Y-128869048D01*
X182076664Y-128860280D01*
X182089290Y-128852712D01*
X182102597Y-128846418D01*
X182116457Y-128841459D01*
X182130736Y-128837882D01*
X182145297Y-128835722D01*
X182160000Y-128835000D01*
X183410000Y-128835000D01*
X183424703Y-128835722D01*
X183424703Y-128835722D01*
G37*
D13*
G04 #@! TD*
G04 #@! TO.P,J1,4*
G04 #@! TO.N,BTN1*
X182785000Y-129135000D03*
D10*
G04 #@! TO.N,BTN3*
G04 #@! TO.C,J1*
G36*
X183424703Y-127835722D02*
X183439264Y-127837882D01*
X183453543Y-127841459D01*
X183467403Y-127846418D01*
X183480710Y-127852712D01*
X183493336Y-127860280D01*
X183505159Y-127869048D01*
X183516066Y-127878934D01*
X183525952Y-127889841D01*
X183534720Y-127901664D01*
X183542288Y-127914290D01*
X183548582Y-127927597D01*
X183553541Y-127941457D01*
X183557118Y-127955736D01*
X183559278Y-127970297D01*
X183560000Y-127985000D01*
X183560000Y-128285000D01*
X183559278Y-128299703D01*
X183557118Y-128314264D01*
X183553541Y-128328543D01*
X183548582Y-128342403D01*
X183542288Y-128355710D01*
X183534720Y-128368336D01*
X183525952Y-128380159D01*
X183516066Y-128391066D01*
X183505159Y-128400952D01*
X183493336Y-128409720D01*
X183480710Y-128417288D01*
X183467403Y-128423582D01*
X183453543Y-128428541D01*
X183439264Y-128432118D01*
X183424703Y-128434278D01*
X183410000Y-128435000D01*
X182160000Y-128435000D01*
X182145297Y-128434278D01*
X182130736Y-128432118D01*
X182116457Y-128428541D01*
X182102597Y-128423582D01*
X182089290Y-128417288D01*
X182076664Y-128409720D01*
X182064841Y-128400952D01*
X182053934Y-128391066D01*
X182044048Y-128380159D01*
X182035280Y-128368336D01*
X182027712Y-128355710D01*
X182021418Y-128342403D01*
X182016459Y-128328543D01*
X182012882Y-128314264D01*
X182010722Y-128299703D01*
X182010000Y-128285000D01*
X182010000Y-127985000D01*
X182010722Y-127970297D01*
X182012882Y-127955736D01*
X182016459Y-127941457D01*
X182021418Y-127927597D01*
X182027712Y-127914290D01*
X182035280Y-127901664D01*
X182044048Y-127889841D01*
X182053934Y-127878934D01*
X182064841Y-127869048D01*
X182076664Y-127860280D01*
X182089290Y-127852712D01*
X182102597Y-127846418D01*
X182116457Y-127841459D01*
X182130736Y-127837882D01*
X182145297Y-127835722D01*
X182160000Y-127835000D01*
X183410000Y-127835000D01*
X183424703Y-127835722D01*
X183424703Y-127835722D01*
G37*
D13*
G04 #@! TD*
G04 #@! TO.P,J1,3*
G04 #@! TO.N,BTN3*
X182785000Y-128135000D03*
D10*
G04 #@! TO.N,BTN2*
G04 #@! TO.C,J1*
G36*
X183424703Y-126835722D02*
X183439264Y-126837882D01*
X183453543Y-126841459D01*
X183467403Y-126846418D01*
X183480710Y-126852712D01*
X183493336Y-126860280D01*
X183505159Y-126869048D01*
X183516066Y-126878934D01*
X183525952Y-126889841D01*
X183534720Y-126901664D01*
X183542288Y-126914290D01*
X183548582Y-126927597D01*
X183553541Y-126941457D01*
X183557118Y-126955736D01*
X183559278Y-126970297D01*
X183560000Y-126985000D01*
X183560000Y-127285000D01*
X183559278Y-127299703D01*
X183557118Y-127314264D01*
X183553541Y-127328543D01*
X183548582Y-127342403D01*
X183542288Y-127355710D01*
X183534720Y-127368336D01*
X183525952Y-127380159D01*
X183516066Y-127391066D01*
X183505159Y-127400952D01*
X183493336Y-127409720D01*
X183480710Y-127417288D01*
X183467403Y-127423582D01*
X183453543Y-127428541D01*
X183439264Y-127432118D01*
X183424703Y-127434278D01*
X183410000Y-127435000D01*
X182160000Y-127435000D01*
X182145297Y-127434278D01*
X182130736Y-127432118D01*
X182116457Y-127428541D01*
X182102597Y-127423582D01*
X182089290Y-127417288D01*
X182076664Y-127409720D01*
X182064841Y-127400952D01*
X182053934Y-127391066D01*
X182044048Y-127380159D01*
X182035280Y-127368336D01*
X182027712Y-127355710D01*
X182021418Y-127342403D01*
X182016459Y-127328543D01*
X182012882Y-127314264D01*
X182010722Y-127299703D01*
X182010000Y-127285000D01*
X182010000Y-126985000D01*
X182010722Y-126970297D01*
X182012882Y-126955736D01*
X182016459Y-126941457D01*
X182021418Y-126927597D01*
X182027712Y-126914290D01*
X182035280Y-126901664D01*
X182044048Y-126889841D01*
X182053934Y-126878934D01*
X182064841Y-126869048D01*
X182076664Y-126860280D01*
X182089290Y-126852712D01*
X182102597Y-126846418D01*
X182116457Y-126841459D01*
X182130736Y-126837882D01*
X182145297Y-126835722D01*
X182160000Y-126835000D01*
X183410000Y-126835000D01*
X183424703Y-126835722D01*
X183424703Y-126835722D01*
G37*
D13*
G04 #@! TD*
G04 #@! TO.P,J1,2*
G04 #@! TO.N,BTN2*
X182785000Y-127135000D03*
D10*
G04 #@! TO.N,GND*
G04 #@! TO.C,J1*
G36*
X183424703Y-125835722D02*
X183439264Y-125837882D01*
X183453543Y-125841459D01*
X183467403Y-125846418D01*
X183480710Y-125852712D01*
X183493336Y-125860280D01*
X183505159Y-125869048D01*
X183516066Y-125878934D01*
X183525952Y-125889841D01*
X183534720Y-125901664D01*
X183542288Y-125914290D01*
X183548582Y-125927597D01*
X183553541Y-125941457D01*
X183557118Y-125955736D01*
X183559278Y-125970297D01*
X183560000Y-125985000D01*
X183560000Y-126285000D01*
X183559278Y-126299703D01*
X183557118Y-126314264D01*
X183553541Y-126328543D01*
X183548582Y-126342403D01*
X183542288Y-126355710D01*
X183534720Y-126368336D01*
X183525952Y-126380159D01*
X183516066Y-126391066D01*
X183505159Y-126400952D01*
X183493336Y-126409720D01*
X183480710Y-126417288D01*
X183467403Y-126423582D01*
X183453543Y-126428541D01*
X183439264Y-126432118D01*
X183424703Y-126434278D01*
X183410000Y-126435000D01*
X182160000Y-126435000D01*
X182145297Y-126434278D01*
X182130736Y-126432118D01*
X182116457Y-126428541D01*
X182102597Y-126423582D01*
X182089290Y-126417288D01*
X182076664Y-126409720D01*
X182064841Y-126400952D01*
X182053934Y-126391066D01*
X182044048Y-126380159D01*
X182035280Y-126368336D01*
X182027712Y-126355710D01*
X182021418Y-126342403D01*
X182016459Y-126328543D01*
X182012882Y-126314264D01*
X182010722Y-126299703D01*
X182010000Y-126285000D01*
X182010000Y-125985000D01*
X182010722Y-125970297D01*
X182012882Y-125955736D01*
X182016459Y-125941457D01*
X182021418Y-125927597D01*
X182027712Y-125914290D01*
X182035280Y-125901664D01*
X182044048Y-125889841D01*
X182053934Y-125878934D01*
X182064841Y-125869048D01*
X182076664Y-125860280D01*
X182089290Y-125852712D01*
X182102597Y-125846418D01*
X182116457Y-125841459D01*
X182130736Y-125837882D01*
X182145297Y-125835722D01*
X182160000Y-125835000D01*
X183410000Y-125835000D01*
X183424703Y-125835722D01*
X183424703Y-125835722D01*
G37*
D13*
G04 #@! TD*
G04 #@! TO.P,J1,1*
G04 #@! TO.N,GND*
X182785000Y-126135000D03*
D10*
G04 #@! TO.N,GND*
G04 #@! TO.C,J2*
G36*
X182639703Y-131210722D02*
X182654264Y-131212882D01*
X182668543Y-131216459D01*
X182682403Y-131221418D01*
X182695710Y-131227712D01*
X182708336Y-131235280D01*
X182720159Y-131244048D01*
X182731066Y-131253934D01*
X182740952Y-131264841D01*
X182749720Y-131276664D01*
X182757288Y-131289290D01*
X182763582Y-131302597D01*
X182768541Y-131316457D01*
X182772118Y-131330736D01*
X182774278Y-131345297D01*
X182775000Y-131360000D01*
X182775000Y-132610000D01*
X182774278Y-132624703D01*
X182772118Y-132639264D01*
X182768541Y-132653543D01*
X182763582Y-132667403D01*
X182757288Y-132680710D01*
X182749720Y-132693336D01*
X182740952Y-132705159D01*
X182731066Y-132716066D01*
X182720159Y-132725952D01*
X182708336Y-132734720D01*
X182695710Y-132742288D01*
X182682403Y-132748582D01*
X182668543Y-132753541D01*
X182654264Y-132757118D01*
X182639703Y-132759278D01*
X182625000Y-132760000D01*
X182325000Y-132760000D01*
X182310297Y-132759278D01*
X182295736Y-132757118D01*
X182281457Y-132753541D01*
X182267597Y-132748582D01*
X182254290Y-132742288D01*
X182241664Y-132734720D01*
X182229841Y-132725952D01*
X182218934Y-132716066D01*
X182209048Y-132705159D01*
X182200280Y-132693336D01*
X182192712Y-132680710D01*
X182186418Y-132667403D01*
X182181459Y-132653543D01*
X182177882Y-132639264D01*
X182175722Y-132624703D01*
X182175000Y-132610000D01*
X182175000Y-131360000D01*
X182175722Y-131345297D01*
X182177882Y-131330736D01*
X182181459Y-131316457D01*
X182186418Y-131302597D01*
X182192712Y-131289290D01*
X182200280Y-131276664D01*
X182209048Y-131264841D01*
X182218934Y-131253934D01*
X182229841Y-131244048D01*
X182241664Y-131235280D01*
X182254290Y-131227712D01*
X182267597Y-131221418D01*
X182281457Y-131216459D01*
X182295736Y-131212882D01*
X182310297Y-131210722D01*
X182325000Y-131210000D01*
X182625000Y-131210000D01*
X182639703Y-131210722D01*
X182639703Y-131210722D01*
G37*
D13*
G04 #@! TD*
G04 #@! TO.P,J2,1*
G04 #@! TO.N,GND*
X182475000Y-131985000D03*
D10*
G04 #@! TO.N,BTN6*
G04 #@! TO.C,J2*
G36*
X181639703Y-131210722D02*
X181654264Y-131212882D01*
X181668543Y-131216459D01*
X181682403Y-131221418D01*
X181695710Y-131227712D01*
X181708336Y-131235280D01*
X181720159Y-131244048D01*
X181731066Y-131253934D01*
X181740952Y-131264841D01*
X181749720Y-131276664D01*
X181757288Y-131289290D01*
X181763582Y-131302597D01*
X181768541Y-131316457D01*
X181772118Y-131330736D01*
X181774278Y-131345297D01*
X181775000Y-131360000D01*
X181775000Y-132610000D01*
X181774278Y-132624703D01*
X181772118Y-132639264D01*
X181768541Y-132653543D01*
X181763582Y-132667403D01*
X181757288Y-132680710D01*
X181749720Y-132693336D01*
X181740952Y-132705159D01*
X181731066Y-132716066D01*
X181720159Y-132725952D01*
X181708336Y-132734720D01*
X181695710Y-132742288D01*
X181682403Y-132748582D01*
X181668543Y-132753541D01*
X181654264Y-132757118D01*
X181639703Y-132759278D01*
X181625000Y-132760000D01*
X181325000Y-132760000D01*
X181310297Y-132759278D01*
X181295736Y-132757118D01*
X181281457Y-132753541D01*
X181267597Y-132748582D01*
X181254290Y-132742288D01*
X181241664Y-132734720D01*
X181229841Y-132725952D01*
X181218934Y-132716066D01*
X181209048Y-132705159D01*
X181200280Y-132693336D01*
X181192712Y-132680710D01*
X181186418Y-132667403D01*
X181181459Y-132653543D01*
X181177882Y-132639264D01*
X181175722Y-132624703D01*
X181175000Y-132610000D01*
X181175000Y-131360000D01*
X181175722Y-131345297D01*
X181177882Y-131330736D01*
X181181459Y-131316457D01*
X181186418Y-131302597D01*
X181192712Y-131289290D01*
X181200280Y-131276664D01*
X181209048Y-131264841D01*
X181218934Y-131253934D01*
X181229841Y-131244048D01*
X181241664Y-131235280D01*
X181254290Y-131227712D01*
X181267597Y-131221418D01*
X181281457Y-131216459D01*
X181295736Y-131212882D01*
X181310297Y-131210722D01*
X181325000Y-131210000D01*
X181625000Y-131210000D01*
X181639703Y-131210722D01*
X181639703Y-131210722D01*
G37*
D13*
G04 #@! TD*
G04 #@! TO.P,J2,2*
G04 #@! TO.N,BTN6*
X181475000Y-131985000D03*
D10*
G04 #@! TO.N,BTN5*
G04 #@! TO.C,J2*
G36*
X180639703Y-131210722D02*
X180654264Y-131212882D01*
X180668543Y-131216459D01*
X180682403Y-131221418D01*
X180695710Y-131227712D01*
X180708336Y-131235280D01*
X180720159Y-131244048D01*
X180731066Y-131253934D01*
X180740952Y-131264841D01*
X180749720Y-131276664D01*
X180757288Y-131289290D01*
X180763582Y-131302597D01*
X180768541Y-131316457D01*
X180772118Y-131330736D01*
X180774278Y-131345297D01*
X180775000Y-131360000D01*
X180775000Y-132610000D01*
X180774278Y-132624703D01*
X180772118Y-132639264D01*
X180768541Y-132653543D01*
X180763582Y-132667403D01*
X180757288Y-132680710D01*
X180749720Y-132693336D01*
X180740952Y-132705159D01*
X180731066Y-132716066D01*
X180720159Y-132725952D01*
X180708336Y-132734720D01*
X180695710Y-132742288D01*
X180682403Y-132748582D01*
X180668543Y-132753541D01*
X180654264Y-132757118D01*
X180639703Y-132759278D01*
X180625000Y-132760000D01*
X180325000Y-132760000D01*
X180310297Y-132759278D01*
X180295736Y-132757118D01*
X180281457Y-132753541D01*
X180267597Y-132748582D01*
X180254290Y-132742288D01*
X180241664Y-132734720D01*
X180229841Y-132725952D01*
X180218934Y-132716066D01*
X180209048Y-132705159D01*
X180200280Y-132693336D01*
X180192712Y-132680710D01*
X180186418Y-132667403D01*
X180181459Y-132653543D01*
X180177882Y-132639264D01*
X180175722Y-132624703D01*
X180175000Y-132610000D01*
X180175000Y-131360000D01*
X180175722Y-131345297D01*
X180177882Y-131330736D01*
X180181459Y-131316457D01*
X180186418Y-131302597D01*
X180192712Y-131289290D01*
X180200280Y-131276664D01*
X180209048Y-131264841D01*
X180218934Y-131253934D01*
X180229841Y-131244048D01*
X180241664Y-131235280D01*
X180254290Y-131227712D01*
X180267597Y-131221418D01*
X180281457Y-131216459D01*
X180295736Y-131212882D01*
X180310297Y-131210722D01*
X180325000Y-131210000D01*
X180625000Y-131210000D01*
X180639703Y-131210722D01*
X180639703Y-131210722D01*
G37*
D13*
G04 #@! TD*
G04 #@! TO.P,J2,3*
G04 #@! TO.N,BTN5*
X180475000Y-131985000D03*
D10*
G04 #@! TO.N,BTN4*
G04 #@! TO.C,J2*
G36*
X179639703Y-131210722D02*
X179654264Y-131212882D01*
X179668543Y-131216459D01*
X179682403Y-131221418D01*
X179695710Y-131227712D01*
X179708336Y-131235280D01*
X179720159Y-131244048D01*
X179731066Y-131253934D01*
X179740952Y-131264841D01*
X179749720Y-131276664D01*
X179757288Y-131289290D01*
X179763582Y-131302597D01*
X179768541Y-131316457D01*
X179772118Y-131330736D01*
X179774278Y-131345297D01*
X179775000Y-131360000D01*
X179775000Y-132610000D01*
X179774278Y-132624703D01*
X179772118Y-132639264D01*
X179768541Y-132653543D01*
X179763582Y-132667403D01*
X179757288Y-132680710D01*
X179749720Y-132693336D01*
X179740952Y-132705159D01*
X179731066Y-132716066D01*
X179720159Y-132725952D01*
X179708336Y-132734720D01*
X179695710Y-132742288D01*
X179682403Y-132748582D01*
X179668543Y-132753541D01*
X179654264Y-132757118D01*
X179639703Y-132759278D01*
X179625000Y-132760000D01*
X179325000Y-132760000D01*
X179310297Y-132759278D01*
X179295736Y-132757118D01*
X179281457Y-132753541D01*
X179267597Y-132748582D01*
X179254290Y-132742288D01*
X179241664Y-132734720D01*
X179229841Y-132725952D01*
X179218934Y-132716066D01*
X179209048Y-132705159D01*
X179200280Y-132693336D01*
X179192712Y-132680710D01*
X179186418Y-132667403D01*
X179181459Y-132653543D01*
X179177882Y-132639264D01*
X179175722Y-132624703D01*
X179175000Y-132610000D01*
X179175000Y-131360000D01*
X179175722Y-131345297D01*
X179177882Y-131330736D01*
X179181459Y-131316457D01*
X179186418Y-131302597D01*
X179192712Y-131289290D01*
X179200280Y-131276664D01*
X179209048Y-131264841D01*
X179218934Y-131253934D01*
X179229841Y-131244048D01*
X179241664Y-131235280D01*
X179254290Y-131227712D01*
X179267597Y-131221418D01*
X179281457Y-131216459D01*
X179295736Y-131212882D01*
X179310297Y-131210722D01*
X179325000Y-131210000D01*
X179625000Y-131210000D01*
X179639703Y-131210722D01*
X179639703Y-131210722D01*
G37*
D13*
G04 #@! TD*
G04 #@! TO.P,J2,4*
G04 #@! TO.N,BTN4*
X179475000Y-131985000D03*
D10*
G04 #@! TO.N,N/C*
G04 #@! TO.C,J2*
G36*
X184149505Y-134961204D02*
X184173773Y-134964804D01*
X184197572Y-134970765D01*
X184220671Y-134979030D01*
X184242850Y-134989520D01*
X184263893Y-135002132D01*
X184283599Y-135016747D01*
X184301777Y-135033223D01*
X184318253Y-135051401D01*
X184332868Y-135071107D01*
X184345480Y-135092150D01*
X184355970Y-135114329D01*
X184364235Y-135137428D01*
X184370196Y-135161227D01*
X184373796Y-135185495D01*
X184375000Y-135209999D01*
X184375000Y-136510001D01*
X184373796Y-136534505D01*
X184370196Y-136558773D01*
X184364235Y-136582572D01*
X184355970Y-136605671D01*
X184345480Y-136627850D01*
X184332868Y-136648893D01*
X184318253Y-136668599D01*
X184301777Y-136686777D01*
X184283599Y-136703253D01*
X184263893Y-136717868D01*
X184242850Y-136730480D01*
X184220671Y-136740970D01*
X184197572Y-136749235D01*
X184173773Y-136755196D01*
X184149505Y-136758796D01*
X184125001Y-136760000D01*
X183424999Y-136760000D01*
X183400495Y-136758796D01*
X183376227Y-136755196D01*
X183352428Y-136749235D01*
X183329329Y-136740970D01*
X183307150Y-136730480D01*
X183286107Y-136717868D01*
X183266401Y-136703253D01*
X183248223Y-136686777D01*
X183231747Y-136668599D01*
X183217132Y-136648893D01*
X183204520Y-136627850D01*
X183194030Y-136605671D01*
X183185765Y-136582572D01*
X183179804Y-136558773D01*
X183176204Y-136534505D01*
X183175000Y-136510001D01*
X183175000Y-135209999D01*
X183176204Y-135185495D01*
X183179804Y-135161227D01*
X183185765Y-135137428D01*
X183194030Y-135114329D01*
X183204520Y-135092150D01*
X183217132Y-135071107D01*
X183231747Y-135051401D01*
X183248223Y-135033223D01*
X183266401Y-135016747D01*
X183286107Y-135002132D01*
X183307150Y-134989520D01*
X183329329Y-134979030D01*
X183352428Y-134970765D01*
X183376227Y-134964804D01*
X183400495Y-134961204D01*
X183424999Y-134960000D01*
X184125001Y-134960000D01*
X184149505Y-134961204D01*
X184149505Y-134961204D01*
G37*
D12*
G04 #@! TD*
G04 #@! TO.P,J2,MP*
G04 #@! TO.N,N/C*
X183775000Y-135860000D03*
D10*
G04 #@! TO.N,N/C*
G04 #@! TO.C,J2*
G36*
X178549505Y-134961204D02*
X178573773Y-134964804D01*
X178597572Y-134970765D01*
X178620671Y-134979030D01*
X178642850Y-134989520D01*
X178663893Y-135002132D01*
X178683599Y-135016747D01*
X178701777Y-135033223D01*
X178718253Y-135051401D01*
X178732868Y-135071107D01*
X178745480Y-135092150D01*
X178755970Y-135114329D01*
X178764235Y-135137428D01*
X178770196Y-135161227D01*
X178773796Y-135185495D01*
X178775000Y-135209999D01*
X178775000Y-136510001D01*
X178773796Y-136534505D01*
X178770196Y-136558773D01*
X178764235Y-136582572D01*
X178755970Y-136605671D01*
X178745480Y-136627850D01*
X178732868Y-136648893D01*
X178718253Y-136668599D01*
X178701777Y-136686777D01*
X178683599Y-136703253D01*
X178663893Y-136717868D01*
X178642850Y-136730480D01*
X178620671Y-136740970D01*
X178597572Y-136749235D01*
X178573773Y-136755196D01*
X178549505Y-136758796D01*
X178525001Y-136760000D01*
X177824999Y-136760000D01*
X177800495Y-136758796D01*
X177776227Y-136755196D01*
X177752428Y-136749235D01*
X177729329Y-136740970D01*
X177707150Y-136730480D01*
X177686107Y-136717868D01*
X177666401Y-136703253D01*
X177648223Y-136686777D01*
X177631747Y-136668599D01*
X177617132Y-136648893D01*
X177604520Y-136627850D01*
X177594030Y-136605671D01*
X177585765Y-136582572D01*
X177579804Y-136558773D01*
X177576204Y-136534505D01*
X177575000Y-136510001D01*
X177575000Y-135209999D01*
X177576204Y-135185495D01*
X177579804Y-135161227D01*
X177585765Y-135137428D01*
X177594030Y-135114329D01*
X177604520Y-135092150D01*
X177617132Y-135071107D01*
X177631747Y-135051401D01*
X177648223Y-135033223D01*
X177666401Y-135016747D01*
X177686107Y-135002132D01*
X177707150Y-134989520D01*
X177729329Y-134979030D01*
X177752428Y-134970765D01*
X177776227Y-134964804D01*
X177800495Y-134961204D01*
X177824999Y-134960000D01*
X178525001Y-134960000D01*
X178549505Y-134961204D01*
X178549505Y-134961204D01*
G37*
D12*
G04 #@! TD*
G04 #@! TO.P,J2,MP*
G04 #@! TO.N,N/C*
X178175000Y-135860000D03*
D14*
G04 #@! TO.P,J3,1*
G04 #@! TO.N,+3V3*
X165735000Y-135890000D03*
D15*
G04 #@! TO.P,J3,2*
G04 #@! TO.N,Net-(J3-Pad2)*
X164735000Y-135890000D03*
G04 #@! TD*
D16*
G04 #@! TO.P,J4,MP*
G04 #@! TO.N,N/C*
X184280000Y-122895000D03*
X184280000Y-114595000D03*
D17*
G04 #@! TO.P,J4,1*
G04 #@! TO.N,LCD_CLK*
X181030000Y-116495000D03*
G04 #@! TO.P,J4,2*
G04 #@! TO.N,LCD_MOSI*
X181030000Y-116995000D03*
G04 #@! TO.P,J4,3*
G04 #@! TO.N,LCD_CS*
X181030000Y-117495000D03*
G04 #@! TO.P,J4,4*
G04 #@! TO.N,SQW*
X181030000Y-117995000D03*
G04 #@! TO.P,J4,5*
G04 #@! TO.N,+5V*
X181030000Y-118495000D03*
G04 #@! TO.P,J4,6*
X181030000Y-118995000D03*
G04 #@! TO.P,J4,7*
X181030000Y-119495000D03*
G04 #@! TO.P,J4,8*
G04 #@! TO.N,EXTMODE*
X181030000Y-119995000D03*
G04 #@! TO.P,J4,9*
G04 #@! TO.N,GND*
X181030000Y-120495000D03*
G04 #@! TO.P,J4,10*
X181030000Y-120995000D03*
G04 #@! TD*
D18*
G04 #@! TO.P,P1,6*
G04 #@! TO.N,SCL*
X169130000Y-133350000D03*
G04 #@! TO.P,P1,4*
G04 #@! TO.N,SDA*
X169130000Y-133750000D03*
G04 #@! TO.P,P1,8*
G04 #@! TO.N,N/C*
X169130000Y-132950000D03*
G04 #@! TO.P,P1,2*
G04 #@! TO.N,+3V3*
X169130000Y-134150000D03*
G04 #@! TO.P,P1,10*
G04 #@! TO.N,+5V*
X169130000Y-132550000D03*
G04 #@! TO.P,P1,5*
G04 #@! TO.N,USB_DN*
X171580000Y-133350000D03*
G04 #@! TO.P,P1,3*
G04 #@! TO.N,USB_DP*
X171580000Y-133750000D03*
G04 #@! TO.P,P1,7*
G04 #@! TO.N,N/C*
X171580000Y-132950000D03*
G04 #@! TO.P,P1,1*
G04 #@! TO.N,GND*
X171580000Y-134150000D03*
G04 #@! TO.P,P1,9*
G04 #@! TO.N,VBUS*
X171580000Y-132550000D03*
D19*
G04 #@! TO.P,P1,P1*
G04 #@! TO.N,N/C*
X171057500Y-134950000D03*
G04 #@! TO.P,P1,P3*
X169652500Y-134950000D03*
G04 #@! TO.P,P1,P4*
X169652500Y-131750000D03*
G04 #@! TO.P,P1,P2*
X171057500Y-131750000D03*
G04 #@! TD*
D10*
G04 #@! TO.N,USB_DN*
G04 #@! TO.C,R1*
G36*
X178060779Y-125686144D02*
X178083834Y-125689563D01*
X178106443Y-125695227D01*
X178128387Y-125703079D01*
X178149457Y-125713044D01*
X178169448Y-125725026D01*
X178188168Y-125738910D01*
X178205438Y-125754562D01*
X178221090Y-125771832D01*
X178234974Y-125790552D01*
X178246956Y-125810543D01*
X178256921Y-125831613D01*
X178264773Y-125853557D01*
X178270437Y-125876166D01*
X178273856Y-125899221D01*
X178275000Y-125922500D01*
X178275000Y-126497500D01*
X178273856Y-126520779D01*
X178270437Y-126543834D01*
X178264773Y-126566443D01*
X178256921Y-126588387D01*
X178246956Y-126609457D01*
X178234974Y-126629448D01*
X178221090Y-126648168D01*
X178205438Y-126665438D01*
X178188168Y-126681090D01*
X178169448Y-126694974D01*
X178149457Y-126706956D01*
X178128387Y-126716921D01*
X178106443Y-126724773D01*
X178083834Y-126730437D01*
X178060779Y-126733856D01*
X178037500Y-126735000D01*
X177562500Y-126735000D01*
X177539221Y-126733856D01*
X177516166Y-126730437D01*
X177493557Y-126724773D01*
X177471613Y-126716921D01*
X177450543Y-126706956D01*
X177430552Y-126694974D01*
X177411832Y-126681090D01*
X177394562Y-126665438D01*
X177378910Y-126648168D01*
X177365026Y-126629448D01*
X177353044Y-126609457D01*
X177343079Y-126588387D01*
X177335227Y-126566443D01*
X177329563Y-126543834D01*
X177326144Y-126520779D01*
X177325000Y-126497500D01*
X177325000Y-125922500D01*
X177326144Y-125899221D01*
X177329563Y-125876166D01*
X177335227Y-125853557D01*
X177343079Y-125831613D01*
X177353044Y-125810543D01*
X177365026Y-125790552D01*
X177378910Y-125771832D01*
X177394562Y-125754562D01*
X177411832Y-125738910D01*
X177430552Y-125725026D01*
X177450543Y-125713044D01*
X177471613Y-125703079D01*
X177493557Y-125695227D01*
X177516166Y-125689563D01*
X177539221Y-125686144D01*
X177562500Y-125685000D01*
X178037500Y-125685000D01*
X178060779Y-125686144D01*
X178060779Y-125686144D01*
G37*
D11*
G04 #@! TD*
G04 #@! TO.P,R1,1*
G04 #@! TO.N,USB_DN*
X177800000Y-126210000D03*
D10*
G04 #@! TO.N,Net-(IC1-Pad34)*
G04 #@! TO.C,R1*
G36*
X178060779Y-123936144D02*
X178083834Y-123939563D01*
X178106443Y-123945227D01*
X178128387Y-123953079D01*
X178149457Y-123963044D01*
X178169448Y-123975026D01*
X178188168Y-123988910D01*
X178205438Y-124004562D01*
X178221090Y-124021832D01*
X178234974Y-124040552D01*
X178246956Y-124060543D01*
X178256921Y-124081613D01*
X178264773Y-124103557D01*
X178270437Y-124126166D01*
X178273856Y-124149221D01*
X178275000Y-124172500D01*
X178275000Y-124747500D01*
X178273856Y-124770779D01*
X178270437Y-124793834D01*
X178264773Y-124816443D01*
X178256921Y-124838387D01*
X178246956Y-124859457D01*
X178234974Y-124879448D01*
X178221090Y-124898168D01*
X178205438Y-124915438D01*
X178188168Y-124931090D01*
X178169448Y-124944974D01*
X178149457Y-124956956D01*
X178128387Y-124966921D01*
X178106443Y-124974773D01*
X178083834Y-124980437D01*
X178060779Y-124983856D01*
X178037500Y-124985000D01*
X177562500Y-124985000D01*
X177539221Y-124983856D01*
X177516166Y-124980437D01*
X177493557Y-124974773D01*
X177471613Y-124966921D01*
X177450543Y-124956956D01*
X177430552Y-124944974D01*
X177411832Y-124931090D01*
X177394562Y-124915438D01*
X177378910Y-124898168D01*
X177365026Y-124879448D01*
X177353044Y-124859457D01*
X177343079Y-124838387D01*
X177335227Y-124816443D01*
X177329563Y-124793834D01*
X177326144Y-124770779D01*
X177325000Y-124747500D01*
X177325000Y-124172500D01*
X177326144Y-124149221D01*
X177329563Y-124126166D01*
X177335227Y-124103557D01*
X177343079Y-124081613D01*
X177353044Y-124060543D01*
X177365026Y-124040552D01*
X177378910Y-124021832D01*
X177394562Y-124004562D01*
X177411832Y-123988910D01*
X177430552Y-123975026D01*
X177450543Y-123963044D01*
X177471613Y-123953079D01*
X177493557Y-123945227D01*
X177516166Y-123939563D01*
X177539221Y-123936144D01*
X177562500Y-123935000D01*
X178037500Y-123935000D01*
X178060779Y-123936144D01*
X178060779Y-123936144D01*
G37*
D11*
G04 #@! TD*
G04 #@! TO.P,R1,2*
G04 #@! TO.N,Net-(IC1-Pad34)*
X177800000Y-124460000D03*
D10*
G04 #@! TO.N,Net-(IC1-Pad35)*
G04 #@! TO.C,R2*
G36*
X176155779Y-123936144D02*
X176178834Y-123939563D01*
X176201443Y-123945227D01*
X176223387Y-123953079D01*
X176244457Y-123963044D01*
X176264448Y-123975026D01*
X176283168Y-123988910D01*
X176300438Y-124004562D01*
X176316090Y-124021832D01*
X176329974Y-124040552D01*
X176341956Y-124060543D01*
X176351921Y-124081613D01*
X176359773Y-124103557D01*
X176365437Y-124126166D01*
X176368856Y-124149221D01*
X176370000Y-124172500D01*
X176370000Y-124747500D01*
X176368856Y-124770779D01*
X176365437Y-124793834D01*
X176359773Y-124816443D01*
X176351921Y-124838387D01*
X176341956Y-124859457D01*
X176329974Y-124879448D01*
X176316090Y-124898168D01*
X176300438Y-124915438D01*
X176283168Y-124931090D01*
X176264448Y-124944974D01*
X176244457Y-124956956D01*
X176223387Y-124966921D01*
X176201443Y-124974773D01*
X176178834Y-124980437D01*
X176155779Y-124983856D01*
X176132500Y-124985000D01*
X175657500Y-124985000D01*
X175634221Y-124983856D01*
X175611166Y-124980437D01*
X175588557Y-124974773D01*
X175566613Y-124966921D01*
X175545543Y-124956956D01*
X175525552Y-124944974D01*
X175506832Y-124931090D01*
X175489562Y-124915438D01*
X175473910Y-124898168D01*
X175460026Y-124879448D01*
X175448044Y-124859457D01*
X175438079Y-124838387D01*
X175430227Y-124816443D01*
X175424563Y-124793834D01*
X175421144Y-124770779D01*
X175420000Y-124747500D01*
X175420000Y-124172500D01*
X175421144Y-124149221D01*
X175424563Y-124126166D01*
X175430227Y-124103557D01*
X175438079Y-124081613D01*
X175448044Y-124060543D01*
X175460026Y-124040552D01*
X175473910Y-124021832D01*
X175489562Y-124004562D01*
X175506832Y-123988910D01*
X175525552Y-123975026D01*
X175545543Y-123963044D01*
X175566613Y-123953079D01*
X175588557Y-123945227D01*
X175611166Y-123939563D01*
X175634221Y-123936144D01*
X175657500Y-123935000D01*
X176132500Y-123935000D01*
X176155779Y-123936144D01*
X176155779Y-123936144D01*
G37*
D11*
G04 #@! TD*
G04 #@! TO.P,R2,2*
G04 #@! TO.N,Net-(IC1-Pad35)*
X175895000Y-124460000D03*
D10*
G04 #@! TO.N,USB_DP*
G04 #@! TO.C,R2*
G36*
X176155779Y-125686144D02*
X176178834Y-125689563D01*
X176201443Y-125695227D01*
X176223387Y-125703079D01*
X176244457Y-125713044D01*
X176264448Y-125725026D01*
X176283168Y-125738910D01*
X176300438Y-125754562D01*
X176316090Y-125771832D01*
X176329974Y-125790552D01*
X176341956Y-125810543D01*
X176351921Y-125831613D01*
X176359773Y-125853557D01*
X176365437Y-125876166D01*
X176368856Y-125899221D01*
X176370000Y-125922500D01*
X176370000Y-126497500D01*
X176368856Y-126520779D01*
X176365437Y-126543834D01*
X176359773Y-126566443D01*
X176351921Y-126588387D01*
X176341956Y-126609457D01*
X176329974Y-126629448D01*
X176316090Y-126648168D01*
X176300438Y-126665438D01*
X176283168Y-126681090D01*
X176264448Y-126694974D01*
X176244457Y-126706956D01*
X176223387Y-126716921D01*
X176201443Y-126724773D01*
X176178834Y-126730437D01*
X176155779Y-126733856D01*
X176132500Y-126735000D01*
X175657500Y-126735000D01*
X175634221Y-126733856D01*
X175611166Y-126730437D01*
X175588557Y-126724773D01*
X175566613Y-126716921D01*
X175545543Y-126706956D01*
X175525552Y-126694974D01*
X175506832Y-126681090D01*
X175489562Y-126665438D01*
X175473910Y-126648168D01*
X175460026Y-126629448D01*
X175448044Y-126609457D01*
X175438079Y-126588387D01*
X175430227Y-126566443D01*
X175424563Y-126543834D01*
X175421144Y-126520779D01*
X175420000Y-126497500D01*
X175420000Y-125922500D01*
X175421144Y-125899221D01*
X175424563Y-125876166D01*
X175430227Y-125853557D01*
X175438079Y-125831613D01*
X175448044Y-125810543D01*
X175460026Y-125790552D01*
X175473910Y-125771832D01*
X175489562Y-125754562D01*
X175506832Y-125738910D01*
X175525552Y-125725026D01*
X175545543Y-125713044D01*
X175566613Y-125703079D01*
X175588557Y-125695227D01*
X175611166Y-125689563D01*
X175634221Y-125686144D01*
X175657500Y-125685000D01*
X176132500Y-125685000D01*
X176155779Y-125686144D01*
X176155779Y-125686144D01*
G37*
D11*
G04 #@! TD*
G04 #@! TO.P,R2,1*
G04 #@! TO.N,USB_DP*
X175895000Y-126210000D03*
D20*
G04 #@! TO.P,IC1,1*
G04 #@! TO.N,GND*
X164652000Y-113333000D03*
G04 #@! TO.P,IC1,2*
X165752000Y-113333000D03*
G04 #@! TO.P,IC1,3*
G04 #@! TO.N,BOOTLOAD*
X166552000Y-113333000D03*
G04 #@! TO.P,IC1,4*
G04 #@! TO.N,LCD_CLK*
X168152000Y-113333000D03*
G04 #@! TO.P,IC1,5*
G04 #@! TO.N,LCD_MOSI*
X168552000Y-114233000D03*
G04 #@! TO.P,IC1,6*
G04 #@! TO.N,LCD_CS*
X168952000Y-113333000D03*
G04 #@! TO.P,IC1,7*
G04 #@! TO.N,N/C*
X169352000Y-114233000D03*
G04 #@! TO.P,IC1,8*
G04 #@! TO.N,EXTMODE*
X169752000Y-113333000D03*
G04 #@! TO.P,IC1,9*
G04 #@! TO.N,BTN3*
X170152000Y-114233000D03*
G04 #@! TO.P,IC1,10*
G04 #@! TO.N,N/C*
X170552000Y-113333000D03*
G04 #@! TO.P,IC1,11*
G04 #@! TO.N,BTN2*
X170952000Y-114233000D03*
G04 #@! TO.P,IC1,12*
G04 #@! TO.N,BTN1*
X171352000Y-113333000D03*
G04 #@! TO.P,IC1,13*
G04 #@! TO.N,N/C*
X171752000Y-114233000D03*
G04 #@! TO.P,IC1,14*
X172152000Y-113333000D03*
D21*
G04 #@! TO.P,IC1,15*
G04 #@! TO.N,GND*
X175552000Y-113183000D03*
G04 #@! TO.P,IC1,16*
G04 #@! TO.N,N/C*
X175552000Y-113983000D03*
G04 #@! TO.P,IC1,17*
G04 #@! TO.N,Net-(IC1-Pad17)*
X175552000Y-114783000D03*
G04 #@! TO.P,IC1,18*
G04 #@! TO.N,Net-(IC1-Pad18)*
X175552000Y-115583000D03*
G04 #@! TO.P,IC1,19*
G04 #@! TO.N,N/C*
X174652000Y-115983000D03*
G04 #@! TO.P,IC1,20*
X175552000Y-116383000D03*
G04 #@! TO.P,IC1,21*
G04 #@! TO.N,RTC_IRQ*
X174652000Y-116783000D03*
G04 #@! TO.P,IC1,22*
G04 #@! TO.N,SCL*
X175552000Y-117183000D03*
G04 #@! TO.P,IC1,23*
G04 #@! TO.N,SDA*
X174652000Y-117583000D03*
G04 #@! TO.P,IC1,24*
G04 #@! TO.N,SQW*
X175552000Y-117983000D03*
G04 #@! TO.P,IC1,25*
G04 #@! TO.N,N/C*
X174652000Y-118383000D03*
G04 #@! TO.P,IC1,26*
G04 #@! TO.N,BTN6*
X175552000Y-118783000D03*
G04 #@! TO.P,IC1,27*
G04 #@! TO.N,BTN5*
X174652000Y-119183000D03*
G04 #@! TO.P,IC1,28*
G04 #@! TO.N,+3V3*
X175552000Y-119583000D03*
G04 #@! TO.P,IC1,29*
G04 #@! TO.N,BTN4*
X174652000Y-119983000D03*
G04 #@! TO.P,IC1,30*
G04 #@! TO.N,N/C*
X175552000Y-120383000D03*
G04 #@! TO.P,IC1,31*
X175552000Y-121183000D03*
G04 #@! TO.P,IC1,32*
G04 #@! TO.N,VBUS*
X175552000Y-121983000D03*
G04 #@! TO.P,IC1,33*
G04 #@! TO.N,GND*
X175552000Y-122783000D03*
D20*
G04 #@! TO.P,IC1,34*
G04 #@! TO.N,Net-(IC1-Pad34)*
X174552000Y-122633000D03*
G04 #@! TO.P,IC1,35*
G04 #@! TO.N,Net-(IC1-Pad35)*
X173752000Y-122633000D03*
G04 #@! TO.P,IC1,36*
G04 #@! TO.N,N/C*
X173352000Y-121733000D03*
G04 #@! TO.P,IC1,37*
X172952000Y-122633000D03*
G04 #@! TO.P,IC1,38*
X172552000Y-121733000D03*
G04 #@! TO.P,IC1,39*
X172152000Y-122633000D03*
G04 #@! TO.P,IC1,40*
G04 #@! TO.N,RST*
X171752000Y-121733000D03*
G04 #@! TO.P,IC1,41*
G04 #@! TO.N,N/C*
X171352000Y-122633000D03*
G04 #@! TO.P,IC1,42*
G04 #@! TO.N,FRONTLIGHT*
X170952000Y-121733000D03*
G04 #@! TO.P,IC1,43*
G04 #@! TO.N,N/C*
X170152000Y-121733000D03*
G04 #@! TO.P,IC1,44*
X169752000Y-122633000D03*
G04 #@! TO.P,IC1,45*
X169352000Y-121733000D03*
G04 #@! TO.P,IC1,46*
X168952000Y-122633000D03*
G04 #@! TO.P,IC1,47*
G04 #@! TO.N,FLASH_DI*
X168552000Y-121733000D03*
G04 #@! TO.P,IC1,48*
G04 #@! TO.N,FLASH_CLK*
X168152000Y-122633000D03*
G04 #@! TO.P,IC1,49*
G04 #@! TO.N,FLASH_CS*
X167752000Y-121733000D03*
G04 #@! TO.P,IC1,50*
G04 #@! TO.N,FLASH_DO*
X166952000Y-121733000D03*
G04 #@! TO.P,IC1,51*
G04 #@! TO.N,SWDIO*
X166552000Y-122633000D03*
G04 #@! TO.P,IC1,52*
G04 #@! TO.N,N/C*
X166152000Y-121733000D03*
G04 #@! TO.P,IC1,53*
G04 #@! TO.N,SWDCLK*
X165752000Y-122633000D03*
G04 #@! TO.P,IC1,54*
G04 #@! TO.N,N/C*
X165352000Y-121733000D03*
G04 #@! TO.P,IC1,55*
G04 #@! TO.N,GND*
X164652000Y-122633000D03*
D21*
G04 #@! TO.P,IC1,56*
G04 #@! TO.N,BUZZER*
X168952000Y-115983000D03*
G04 #@! TO.P,IC1,57*
G04 #@! TO.N,N/C*
X168952000Y-116783000D03*
G04 #@! TO.P,IC1,58*
X168952000Y-117583000D03*
G04 #@! TO.P,IC1,59*
X168952000Y-118383000D03*
G04 #@! TO.P,IC1,60*
X168952000Y-119183000D03*
G04 #@! TO.P,IC1,61*
X168952000Y-119983000D03*
G04 #@! TD*
D22*
G04 #@! TO.N,GND*
X175895000Y-135890000D03*
X176812620Y-113891158D03*
X174244000Y-113284000D03*
X164652000Y-122633000D03*
X165354000Y-120370000D03*
X187305440Y-117450528D03*
X184531000Y-118237000D03*
X183134000Y-119507000D03*
X182029443Y-120569725D03*
X171704000Y-117120000D03*
X173863000Y-120904000D03*
X178136358Y-121596368D03*
X175976540Y-123084980D03*
X168046400Y-128066800D03*
X164541200Y-128270000D03*
X168670000Y-128905000D03*
X171101293Y-127229887D03*
X181102000Y-124358400D03*
X181254400Y-123088400D03*
G04 #@! TO.N,+3V3*
X187310000Y-115697000D03*
X176403000Y-119380000D03*
X184785000Y-116078000D03*
X182384765Y-121450786D03*
X170152011Y-119106976D03*
X173782691Y-118952597D03*
X171975705Y-127809609D03*
X172415200Y-125018800D03*
X182245000Y-123643230D03*
X172720000Y-135823790D03*
D23*
G04 #@! TO.N,SCL*
X180340000Y-122555000D03*
X179734552Y-121854034D03*
X178084489Y-120146345D03*
X180392698Y-129355932D03*
X168000000Y-132750000D03*
G04 #@! TO.N,RTC_IRQ*
X186690000Y-121285000D03*
X182499000Y-117094000D03*
X185240139Y-118863393D03*
X173730928Y-117212651D03*
G04 #@! TO.N,SDA*
X184785000Y-121285000D03*
X184234012Y-119702184D03*
X174096225Y-117750306D03*
X181119760Y-129414876D03*
X170500000Y-133000000D03*
G04 #@! TO.N,SQW*
X179808293Y-118192382D03*
X176924500Y-117801497D03*
X187452000Y-118237000D03*
X183380988Y-118206410D03*
X182430976Y-118124545D03*
G04 #@! TO.N,BTN1*
X182785000Y-129135000D03*
X172974000Y-113538000D03*
X169806990Y-116448362D03*
X173602036Y-118173261D03*
G04 #@! TO.N,BTN3*
X182814352Y-128092586D03*
X174385739Y-114767843D03*
X176561674Y-121872408D03*
X179069966Y-124149361D03*
G04 #@! TO.N,BTN2*
X186690000Y-128300000D03*
X182785000Y-127135000D03*
X173907404Y-114327717D03*
X173795372Y-116262631D03*
X173237122Y-117635346D03*
X176807974Y-121270867D03*
X179116458Y-123496449D03*
G04 #@! TO.N,BTN6*
X180310000Y-135255000D03*
X179926010Y-127240016D03*
X178150155Y-122407211D03*
G04 #@! TO.N,BTN5*
X172974000Y-123571000D03*
X172890562Y-120494440D03*
G04 #@! TO.N,BTN4*
X178687112Y-126145878D03*
X174398439Y-121765561D03*
G04 #@! TO.N,LCD_CLK*
X168275000Y-112460000D03*
X179836174Y-115560282D03*
G04 #@! TO.N,LCD_MOSI*
X179559094Y-116468990D03*
X174720318Y-115325133D03*
D22*
G04 #@! TO.N,+5V*
X178943000Y-119154000D03*
X180376021Y-128556097D03*
X179299959Y-122699360D03*
X173339998Y-129936002D03*
D23*
G04 #@! TO.N,USB_DP*
X176236806Y-131520372D03*
X176657000Y-133985000D03*
D22*
G04 #@! TO.N,VBUS*
X177038000Y-129286000D03*
X177060041Y-123563327D03*
D23*
G04 #@! TO.N,BUZZER*
X167767000Y-120106991D03*
G04 #@! TO.N,FRONTLIGHT*
X169926000Y-124206000D03*
G04 #@! TO.N,RST*
X171591452Y-120769010D03*
G04 #@! TO.N,BOOTLOAD*
X165854010Y-114474144D03*
G04 #@! TO.N,SWDCLK*
X164973000Y-124460000D03*
G04 #@! TO.N,SWDIO*
X166878000Y-124460000D03*
G04 #@! TO.N,FLASH_DI*
X174625000Y-128905000D03*
X170876986Y-124209623D03*
X168628561Y-121130561D03*
G04 #@! TO.N,FLASH_CLK*
X173220012Y-125797120D03*
G04 #@! TO.N,FLASH_CS*
X170151142Y-125686752D03*
G04 #@! TO.N,FLASH_DO*
X170579221Y-126623702D03*
G04 #@! TO.N,Net-(IC1-Pad17)*
X177898663Y-113360022D03*
G04 #@! TO.N,Net-(IC1-Pad18)*
X177927000Y-115134000D03*
G04 #@! TO.N,Net-(J5-Pad3)*
X170420000Y-133985000D03*
X175056800Y-136448800D03*
G04 #@! TD*
D24*
G04 #@! TO.N,GND*
X181030000Y-120495000D02*
X181030000Y-120995000D01*
X179034000Y-120995000D02*
X178943000Y-120904000D01*
X181030000Y-120995000D02*
X179034000Y-120995000D01*
X176104462Y-113183000D02*
X176812620Y-113891158D01*
X175552000Y-113183000D02*
X176104462Y-113183000D01*
X175451000Y-113284000D02*
X175552000Y-113183000D01*
X174244000Y-113284000D02*
X175451000Y-113284000D01*
X165052000Y-113333000D02*
X164652000Y-113333000D01*
X165354000Y-113635000D02*
X165052000Y-113333000D01*
X165354000Y-120370000D02*
X165354000Y-113635000D01*
X184404000Y-118237000D02*
X183134000Y-119507000D01*
X184531000Y-118237000D02*
X184404000Y-118237000D01*
X181104725Y-120569725D02*
X181030000Y-120495000D01*
X182029443Y-120569725D02*
X181104725Y-120569725D01*
X170754000Y-117120000D02*
X169502001Y-118371999D01*
X171704000Y-117120000D02*
X170754000Y-117120000D01*
X169502001Y-118371999D02*
X169502001Y-120607001D01*
X166541001Y-120607001D02*
X166304000Y-120370000D01*
X166304000Y-120370000D02*
X165354000Y-120370000D01*
X173863000Y-120904000D02*
X173482000Y-120904000D01*
X173482000Y-120904000D02*
X173355000Y-121031000D01*
X172390561Y-120734441D02*
X172390561Y-120320561D01*
X172687120Y-121031000D02*
X172390561Y-120734441D01*
X173355000Y-121031000D02*
X172687120Y-121031000D01*
X172390561Y-120320561D02*
X172339000Y-120269000D01*
X172339000Y-120269000D02*
X170561000Y-120269000D01*
X170222999Y-120607001D02*
X169418000Y-120607001D01*
X170561000Y-120269000D02*
X170222999Y-120607001D01*
X169502001Y-120607001D02*
X169418000Y-120607001D01*
X169418000Y-120607001D02*
X166541001Y-120607001D01*
X178250632Y-121596368D02*
X178136358Y-121596368D01*
X178943000Y-120904000D02*
X178250632Y-121596368D01*
X175674560Y-122783000D02*
X175976540Y-123084980D01*
X175552000Y-122783000D02*
X175674560Y-122783000D01*
X168046400Y-128066800D02*
X164744400Y-128066800D01*
X164744400Y-128066800D02*
X164541200Y-128270000D01*
X169426180Y-128905000D02*
X171101293Y-127229887D01*
X168670000Y-128905000D02*
X169426180Y-128905000D01*
X175895000Y-135890000D02*
X177876200Y-133908800D01*
X183155710Y-126505710D02*
X186398910Y-126505710D01*
X182785000Y-126135000D02*
X183155710Y-126505710D01*
X186398910Y-126505710D02*
X187401200Y-127508000D01*
X187401200Y-127508000D02*
X187401200Y-128981200D01*
X187401200Y-128981200D02*
X187198000Y-129184400D01*
X187198000Y-129184400D02*
X184810400Y-129184400D01*
X184810400Y-129649600D02*
X182475000Y-131985000D01*
X184810400Y-129184400D02*
X184810400Y-129649600D01*
X182785000Y-125735000D02*
X181408400Y-124358400D01*
X182785000Y-126135000D02*
X182785000Y-125735000D01*
X181408400Y-124358400D02*
X181102000Y-124358400D01*
X181254400Y-121219400D02*
X181030000Y-120995000D01*
X181254400Y-123088400D02*
X181254400Y-121219400D01*
X171580000Y-134150000D02*
X174580000Y-134150000D01*
X175895000Y-135465000D02*
X175895000Y-135890000D01*
X174580000Y-134150000D02*
X175895000Y-135465000D01*
G04 #@! TO.N,+3V3*
X175552000Y-119583000D02*
X176200000Y-119583000D01*
X176200000Y-119583000D02*
X176403000Y-119380000D01*
X186363315Y-116078000D02*
X184785000Y-116078000D01*
X187310000Y-115697000D02*
X186744315Y-115697000D01*
X186744315Y-115697000D02*
X186363315Y-116078000D01*
X170152011Y-119106976D02*
X173628312Y-119106976D01*
X173628312Y-119106976D02*
X173782691Y-118952597D01*
X171975705Y-127809609D02*
X171975705Y-125458295D01*
X171975705Y-125458295D02*
X172415200Y-125018800D01*
X182384765Y-121450786D02*
X182384765Y-123503465D01*
X182384765Y-123503465D02*
X182245000Y-123643230D01*
X167705000Y-135890000D02*
X165735000Y-135890000D01*
X169130000Y-134465000D02*
X167705000Y-135890000D01*
X169130000Y-134150000D02*
X169130000Y-134465000D01*
X172544998Y-135890000D02*
X172653790Y-135890000D01*
X172653790Y-135890000D02*
X172720000Y-135823790D01*
D25*
G04 #@! TO.N,SCL*
X177520955Y-117165055D02*
X175552000Y-117183000D01*
X175552000Y-117183000D02*
X176002000Y-117183000D01*
X176002000Y-117183000D02*
X176019945Y-117165055D01*
X176019945Y-117165055D02*
X177520955Y-117165055D01*
X180340000Y-122555000D02*
X179734552Y-121949552D01*
X179734552Y-121949552D02*
X179734552Y-121854034D01*
X177834490Y-119896346D02*
X178084489Y-120146345D01*
X177834490Y-117478590D02*
X177834490Y-119896346D01*
X177520955Y-117165055D02*
X177834490Y-117478590D01*
X179936111Y-123893006D02*
X179894987Y-123934130D01*
X180340000Y-122555000D02*
X180340000Y-123300259D01*
X180340000Y-123300259D02*
X179936111Y-123704148D01*
X179936111Y-123704148D02*
X179936111Y-123893006D01*
X179894987Y-123934130D02*
X179894987Y-124937708D01*
X179894987Y-124937708D02*
X181001023Y-126043744D01*
X181001023Y-126043744D02*
X181001023Y-128861847D01*
X181001023Y-128861847D02*
X180506938Y-129355932D01*
X180506938Y-129355932D02*
X180392698Y-129355932D01*
X168600000Y-133350000D02*
X169130000Y-133350000D01*
X168000000Y-132750000D02*
X168600000Y-133350000D01*
G04 #@! TO.N,RTC_IRQ*
X186690000Y-120313254D02*
X185240139Y-118863393D01*
X186690000Y-121285000D02*
X186690000Y-120313254D01*
X182499000Y-117094000D02*
X182905986Y-117500986D01*
X184364241Y-118863393D02*
X185240139Y-118863393D01*
X183434002Y-120132002D02*
X183759002Y-119807002D01*
X182905986Y-117500986D02*
X182905986Y-118683010D01*
X182905986Y-118683010D02*
X182381998Y-119206998D01*
X183759002Y-119468632D02*
X184364241Y-118863393D01*
X183759002Y-119807002D02*
X183759002Y-119468632D01*
X182706998Y-120132002D02*
X183434002Y-120132002D01*
X182381998Y-119807002D02*
X182706998Y-120132002D01*
X182381998Y-119206998D02*
X182381998Y-119807002D01*
X174160579Y-116783000D02*
X173730928Y-117212651D01*
X174652000Y-116783000D02*
X174160579Y-116783000D01*
G04 #@! TO.N,SDA*
X184785000Y-121285000D02*
X184234012Y-120734012D01*
X184234012Y-120734012D02*
X184234012Y-119702184D01*
X174652000Y-117583000D02*
X174202000Y-117583000D01*
X174202000Y-117583000D02*
X174096225Y-117688775D01*
X174096225Y-117688775D02*
X174096225Y-117750306D01*
X184785000Y-121285000D02*
X183455450Y-121285000D01*
X182870002Y-121870448D02*
X182870002Y-124569164D01*
X183455450Y-121285000D02*
X182870002Y-121870448D01*
X182870002Y-124569164D02*
X182846977Y-124592189D01*
X182846977Y-124592189D02*
X182260793Y-124592189D01*
X182260793Y-124592189D02*
X181402002Y-123733398D01*
X181402002Y-123733398D02*
X180519998Y-123733398D01*
X180519998Y-123733398D02*
X180215132Y-124038264D01*
X180215132Y-124038264D02*
X180215132Y-124833574D01*
X180215132Y-124833574D02*
X181369759Y-125988201D01*
X181369759Y-125988201D02*
X181369759Y-129164877D01*
X181369759Y-129164877D02*
X181119760Y-129414876D01*
X169130000Y-133750000D02*
X169750000Y-133750000D01*
X169750000Y-133750000D02*
X170500000Y-133000000D01*
G04 #@! TO.N,SQW*
X181030000Y-117995000D02*
X180005675Y-117995000D01*
X180005675Y-117995000D02*
X179808293Y-118192382D01*
X176742997Y-117983000D02*
X176924500Y-117801497D01*
X175552000Y-117983000D02*
X176742997Y-117983000D01*
X184158887Y-117428511D02*
X183380988Y-118206410D01*
X185343584Y-117428511D02*
X184158887Y-117428511D01*
X182301431Y-117995000D02*
X182430976Y-118124545D01*
X186152073Y-118237000D02*
X185343584Y-117428511D01*
X187452000Y-118237000D02*
X186152073Y-118237000D01*
X181030000Y-117995000D02*
X182301431Y-117995000D01*
G04 #@! TO.N,BTN1*
X171352000Y-113233000D02*
X171352000Y-113333000D01*
X171777001Y-112807999D02*
X171352000Y-113233000D01*
X172974000Y-113184447D02*
X172597552Y-112807999D01*
X172597552Y-112807999D02*
X171777001Y-112807999D01*
X172974000Y-113538000D02*
X172974000Y-113184447D01*
X169806990Y-116448362D02*
X171957364Y-116448362D01*
X173092202Y-118173261D02*
X173602036Y-118173261D01*
X172329001Y-117410060D02*
X173092202Y-118173261D01*
X171957364Y-116448362D02*
X172329001Y-116819999D01*
X172329001Y-116819999D02*
X172329001Y-117410060D01*
G04 #@! TO.N,BTN3*
X174091582Y-115062000D02*
X174385739Y-114767843D01*
X170152000Y-114333000D02*
X170881000Y-115062000D01*
X170881000Y-115062000D02*
X174091582Y-115062000D01*
X170152000Y-114233000D02*
X170152000Y-114333000D01*
X178716413Y-124149361D02*
X179069966Y-124149361D01*
X176561674Y-121872408D02*
X176561674Y-121994622D01*
X176561674Y-121994622D02*
X178716413Y-124149361D01*
G04 #@! TO.N,BTN2*
X182785000Y-127135000D02*
X185525000Y-127135000D01*
X185525000Y-127135000D02*
X186690000Y-128300000D01*
X173477120Y-114758001D02*
X173907404Y-114327717D01*
X171377001Y-114758001D02*
X173477120Y-114758001D01*
X170952000Y-114233000D02*
X170952000Y-114333000D01*
X170952000Y-114333000D02*
X171377001Y-114758001D01*
X173795372Y-116262631D02*
X173237122Y-116820881D01*
X173237122Y-116820881D02*
X173237122Y-117635346D01*
X177057973Y-121520866D02*
X177057973Y-122001779D01*
X178552643Y-123496449D02*
X179116458Y-123496449D01*
X177057973Y-122001779D02*
X178552643Y-123496449D01*
X176807974Y-121270867D02*
X177057973Y-121520866D01*
G04 #@! TO.N,BTN6*
X181475000Y-131985000D02*
X181475000Y-134090000D01*
X181475000Y-134090000D02*
X180310000Y-135255000D01*
X179751011Y-129386011D02*
X179751011Y-127768568D01*
X181475000Y-131110000D02*
X179751011Y-129386011D01*
X179751011Y-127768568D02*
X179926010Y-127593569D01*
X179926010Y-127593569D02*
X179926010Y-127240016D01*
X181475000Y-131985000D02*
X181475000Y-131110000D01*
X177511357Y-119309353D02*
X177511357Y-121819811D01*
X176635004Y-118433000D02*
X177511357Y-119309353D01*
X177579637Y-121888091D02*
X177579637Y-121964649D01*
X176002000Y-118433000D02*
X176635004Y-118433000D01*
X175552000Y-118783000D02*
X175652000Y-118783000D01*
X175652000Y-118783000D02*
X176002000Y-118433000D01*
X177579637Y-121964649D02*
X178022199Y-122407211D01*
X177511357Y-121819811D02*
X177579637Y-121888091D01*
X178022199Y-122407211D02*
X178150155Y-122407211D01*
G04 #@! TO.N,BTN5*
X180104290Y-131614290D02*
X180104290Y-130447290D01*
X180475000Y-131985000D02*
X180104290Y-131614290D01*
X180104290Y-130447290D02*
X179197000Y-129540000D01*
X179197000Y-129540000D02*
X179197000Y-125984000D01*
X178423010Y-125210010D02*
X175144990Y-125210010D01*
X179197000Y-125984000D02*
X178423010Y-125210010D01*
X173505980Y-123571000D02*
X172974000Y-123571000D01*
X175144990Y-125210010D02*
X173505980Y-123571000D01*
X174652000Y-119183000D02*
X174552000Y-119183000D01*
X173240560Y-120494440D02*
X172890562Y-120494440D01*
X174552000Y-119183000D02*
X173240560Y-120494440D01*
G04 #@! TO.N,BTN4*
X178687112Y-131197112D02*
X178687112Y-126145878D01*
X179475000Y-131985000D02*
X178687112Y-131197112D01*
X174652000Y-121512000D02*
X174398439Y-121765561D01*
X174652000Y-119983000D02*
X174652000Y-121512000D01*
G04 #@! TO.N,LCD_CLK*
X168152000Y-113333000D02*
X168152000Y-112583000D01*
X168152000Y-112583000D02*
X168275000Y-112460000D01*
X179836174Y-115801174D02*
X179836174Y-115560282D01*
X180530000Y-116495000D02*
X179836174Y-115801174D01*
X181030000Y-116495000D02*
X180530000Y-116495000D01*
G04 #@! TO.N,LCD_MOSI*
X181030000Y-116995000D02*
X180085104Y-116995000D01*
X180085104Y-116995000D02*
X179559094Y-116468990D01*
X169792603Y-115573603D02*
X174115458Y-115573603D01*
X174115458Y-115573603D02*
X174363928Y-115325133D01*
X174363928Y-115325133D02*
X174720318Y-115325133D01*
X168552000Y-114233000D02*
X168552000Y-114333000D01*
X168552000Y-114333000D02*
X169792603Y-115573603D01*
G04 #@! TO.N,LCD_CS*
X178702708Y-116783710D02*
X178702708Y-116067707D01*
X169977012Y-112207988D02*
X168952000Y-113233000D01*
X172968536Y-112175978D02*
X172217464Y-112175978D01*
X177293597Y-112207988D02*
X173000546Y-112207988D01*
X179413998Y-117495000D02*
X178702708Y-116783710D01*
X168952000Y-113233000D02*
X168952000Y-113333000D01*
X178537425Y-112185010D02*
X177316575Y-112185010D01*
X181030000Y-117495000D02*
X179413998Y-117495000D01*
X178702708Y-116067707D02*
X179102013Y-115668402D01*
X179102013Y-112749598D02*
X178537425Y-112185010D01*
X172217464Y-112175978D02*
X172185454Y-112207988D01*
X177316575Y-112185010D02*
X177293597Y-112207988D01*
X172185454Y-112207988D02*
X169977012Y-112207988D01*
X173000546Y-112207988D02*
X172968536Y-112175978D01*
X179102013Y-115668402D02*
X179102013Y-112749598D01*
D24*
G04 #@! TO.N,+5V*
X181030000Y-119495000D02*
X181030000Y-118495000D01*
X180871000Y-119154000D02*
X181030000Y-118995000D01*
X178943000Y-119154000D02*
X180871000Y-119154000D01*
X180426012Y-127940421D02*
X180426012Y-125928367D01*
X179611100Y-123758383D02*
X179611100Y-123569525D01*
X179699958Y-123099359D02*
X179299959Y-122699360D01*
X179569976Y-125072331D02*
X179569976Y-123799507D01*
X180376021Y-128556097D02*
X180376021Y-127990412D01*
X179569976Y-123799507D02*
X179611100Y-123758383D01*
X179611100Y-123569525D02*
X179699958Y-123480667D01*
X179699958Y-123480667D02*
X179699958Y-123099359D01*
X180376021Y-127990412D02*
X180426012Y-127940421D01*
X180426012Y-125928367D02*
X179569976Y-125072331D01*
X171868996Y-129936002D02*
X173339998Y-129936002D01*
X170479999Y-131324999D02*
X171868996Y-129936002D01*
X170479999Y-132175001D02*
X170479999Y-131324999D01*
X170105000Y-132550000D02*
X170479999Y-132175001D01*
X169130000Y-132550000D02*
X170105000Y-132550000D01*
D25*
G04 #@! TO.N,EXTMODE*
X181010000Y-120015000D02*
X181030000Y-119995000D01*
X172876267Y-112507988D02*
X173026278Y-112657999D01*
X173026278Y-112657999D02*
X177479997Y-112657999D01*
X178604910Y-119995000D02*
X181030000Y-119995000D01*
X169752000Y-113333000D02*
X169752000Y-113233000D01*
X177502975Y-112635021D02*
X178351025Y-112635021D01*
X177479997Y-112657999D02*
X177502975Y-112635021D01*
X178351025Y-112635021D02*
X178652002Y-112935998D01*
X178242990Y-115891014D02*
X178242990Y-119633080D01*
X178242990Y-119633080D02*
X178604910Y-119995000D01*
X170477012Y-112507988D02*
X172876267Y-112507988D01*
X178652002Y-112935998D02*
X178652002Y-115482002D01*
X169752000Y-113233000D02*
X170477012Y-112507988D01*
X178652002Y-115482002D02*
X178242990Y-115891014D01*
G04 #@! TO.N,USB_DN*
X177800000Y-132715000D02*
X177800000Y-126210000D01*
X177165000Y-133350000D02*
X177800000Y-132715000D01*
X177800000Y-132715000D02*
X177800000Y-131572000D01*
X171580000Y-133350000D02*
X177165000Y-133350000D01*
G04 #@! TO.N,USB_DP*
X175895000Y-126210000D02*
X175895000Y-131178566D01*
X175895000Y-131178566D02*
X176236806Y-131520372D01*
X176422000Y-133750000D02*
X176657000Y-133985000D01*
X176422000Y-133750000D02*
X171580000Y-133750000D01*
D24*
G04 #@! TO.N,VBUS*
X174580000Y-132550000D02*
X175155000Y-132550000D01*
X175652000Y-121983000D02*
X176052000Y-122383000D01*
X176189857Y-122383000D02*
X176387468Y-122580611D01*
X175552000Y-121983000D02*
X175652000Y-121983000D01*
X177060041Y-122997642D02*
X177060041Y-123563327D01*
X176643010Y-122580611D02*
X177060041Y-122997642D01*
X176052000Y-122383000D02*
X176189857Y-122383000D01*
X176387468Y-122580611D02*
X176643010Y-122580611D01*
X177038000Y-131130432D02*
X177038000Y-129286000D01*
X177038000Y-131512000D02*
X176000000Y-132550000D01*
X177038000Y-129286000D02*
X177038000Y-131512000D01*
X171580000Y-132550000D02*
X176000000Y-132550000D01*
D25*
G04 #@! TO.N,BUZZER*
X168852000Y-115983000D02*
X167767000Y-117068000D01*
X167767000Y-117068000D02*
X167767000Y-120106991D01*
X168952000Y-115983000D02*
X168852000Y-115983000D01*
G04 #@! TO.N,FRONTLIGHT*
X170952000Y-121833000D02*
X170502000Y-122283000D01*
X170502000Y-123630000D02*
X169926000Y-124206000D01*
X170952000Y-121733000D02*
X170952000Y-121833000D01*
X170502000Y-122283000D02*
X170502000Y-123630000D01*
G04 #@! TO.N,Net-(IC1-Pad34)*
X177030758Y-124460000D02*
X177800000Y-124460000D01*
X176595010Y-123980920D02*
X176595010Y-124024252D01*
X175528990Y-123709990D02*
X176324080Y-123709990D01*
X176324080Y-123709990D02*
X176595010Y-123980920D01*
X174552000Y-122633000D02*
X174552000Y-122733000D01*
X176595010Y-124024252D02*
X177030758Y-124460000D01*
X174552000Y-122733000D02*
X175528990Y-123709990D01*
G04 #@! TO.N,Net-(IC1-Pad35)*
X173752000Y-123183000D02*
X173752000Y-122633000D01*
X175029000Y-124460000D02*
X173752000Y-123183000D01*
X175895000Y-124460000D02*
X175029000Y-124460000D01*
G04 #@! TO.N,RST*
X171752000Y-121733000D02*
X171752000Y-120929558D01*
X171752000Y-120929558D02*
X171591452Y-120769010D01*
G04 #@! TO.N,BOOTLOAD*
X166552000Y-113433000D02*
X165854010Y-114130990D01*
X166552000Y-113333000D02*
X166552000Y-113433000D01*
X165854010Y-114130990D02*
X165854010Y-114474144D01*
G04 #@! TO.N,SWDCLK*
X165752000Y-122633000D02*
X165752000Y-123681000D01*
X165752000Y-123681000D02*
X164973000Y-124460000D01*
G04 #@! TO.N,SWDIO*
X166552000Y-122633000D02*
X166552000Y-124134000D01*
X166552000Y-124134000D02*
X166878000Y-124460000D01*
G04 #@! TO.N,FLASH_DI*
X168552000Y-121207122D02*
X168628561Y-121130561D01*
X168552000Y-121733000D02*
X168552000Y-121207122D01*
X172839470Y-124093787D02*
X171346375Y-124093787D01*
X174625000Y-125879317D02*
X172839470Y-124093787D01*
X171346375Y-124093787D02*
X171230539Y-124209623D01*
X174625000Y-128905000D02*
X174625000Y-125879317D01*
X171230539Y-124209623D02*
X170876986Y-124209623D01*
G04 #@! TO.N,FLASH_CLK*
X171627994Y-124881002D02*
X172115198Y-124393798D01*
X169474998Y-124881002D02*
X171627994Y-124881002D01*
X173220012Y-124898608D02*
X173220012Y-125797120D01*
X172715202Y-124393798D02*
X173220012Y-124898608D01*
X172115198Y-124393798D02*
X172715202Y-124393798D01*
X168152000Y-122633000D02*
X168152000Y-123558004D01*
X168152000Y-123558004D02*
X169474998Y-124881002D01*
G04 #@! TO.N,FLASH_CS*
X169751143Y-125286753D02*
X170151142Y-125686752D01*
X167752000Y-121733000D02*
X167676999Y-121808001D01*
X167676999Y-123648701D02*
X169315051Y-125286753D01*
X167676999Y-121808001D02*
X167676999Y-123648701D01*
X169315051Y-125286753D02*
X169751143Y-125286753D01*
G04 #@! TO.N,FLASH_DO*
X166952000Y-121833000D02*
X167302000Y-122183000D01*
X170000017Y-126623702D02*
X170579221Y-126623702D01*
X167302000Y-123925685D02*
X170000017Y-126623702D01*
X167302000Y-122183000D02*
X167302000Y-123925685D01*
X166952000Y-121733000D02*
X166952000Y-121833000D01*
G04 #@! TO.N,Net-(IC1-Pad17)*
X176829238Y-114783000D02*
X177898663Y-113713575D01*
X175552000Y-114783000D02*
X176829238Y-114783000D01*
X177898663Y-113713575D02*
X177898663Y-113360022D01*
G04 #@! TO.N,Net-(IC1-Pad18)*
X177478000Y-115583000D02*
X177927000Y-115134000D01*
X175552000Y-115583000D02*
X177478000Y-115583000D01*
G04 #@! TO.N,Net-(J5-Pad3)*
X171598798Y-136448800D02*
X175056800Y-136448800D01*
X170420000Y-133985000D02*
X170420000Y-135270002D01*
X170420000Y-135270002D02*
X171598798Y-136448800D01*
G04 #@! TD*
D26*
G04 #@! TO.N,GND*
G36*
X185805000Y-128419091D02*
X185805000Y-128476037D01*
X185939733Y-128801312D01*
X186188688Y-129050267D01*
X186513963Y-129185000D01*
X186866037Y-129185000D01*
X187191312Y-129050267D01*
X187225001Y-129016578D01*
X187225001Y-129187560D01*
X186009999Y-129187560D01*
X185666564Y-129255873D01*
X185375414Y-129450414D01*
X185180873Y-129741564D01*
X185112560Y-130084999D01*
X185112560Y-130785001D01*
X185180873Y-131128436D01*
X185375414Y-131419586D01*
X185666564Y-131614127D01*
X186009999Y-131682440D01*
X187225001Y-131682440D01*
X187225001Y-136425000D01*
X185022440Y-136425000D01*
X185022440Y-135209999D01*
X184954127Y-134866564D01*
X184759586Y-134575414D01*
X184468436Y-134380873D01*
X184125001Y-134312560D01*
X183424999Y-134312560D01*
X183081564Y-134380873D01*
X182790414Y-134575414D01*
X182595873Y-134866564D01*
X182527560Y-135209999D01*
X182527560Y-136425000D01*
X179422440Y-136425000D01*
X179422440Y-135209999D01*
X179354127Y-134866564D01*
X179159586Y-134575414D01*
X178868436Y-134380873D01*
X178525001Y-134312560D01*
X177824999Y-134312560D01*
X177481564Y-134380873D01*
X177439222Y-134409165D01*
X177542000Y-134161037D01*
X177542000Y-133952006D01*
X177676881Y-133861881D01*
X177716494Y-133802597D01*
X178252603Y-133266489D01*
X178311880Y-133226881D01*
X178351488Y-133167604D01*
X178351491Y-133167601D01*
X178468805Y-132992028D01*
X178523909Y-132715000D01*
X178510000Y-132645074D01*
X178510000Y-132024091D01*
X178527560Y-132041651D01*
X178527560Y-132610000D01*
X178588262Y-132915167D01*
X178761125Y-133173875D01*
X179019833Y-133346738D01*
X179325000Y-133407440D01*
X179625000Y-133407440D01*
X179930167Y-133346738D01*
X179975000Y-133316782D01*
X180019833Y-133346738D01*
X180325000Y-133407440D01*
X180625000Y-133407440D01*
X180765001Y-133379592D01*
X180765001Y-133795908D01*
X180190909Y-134370000D01*
X180133963Y-134370000D01*
X179808688Y-134504733D01*
X179559733Y-134753688D01*
X179425000Y-135078963D01*
X179425000Y-135431037D01*
X179559733Y-135756312D01*
X179808688Y-136005267D01*
X180133963Y-136140000D01*
X180486037Y-136140000D01*
X180811312Y-136005267D01*
X181060267Y-135756312D01*
X181195000Y-135431037D01*
X181195000Y-135374091D01*
X181927601Y-134641490D01*
X181986881Y-134601881D01*
X182030574Y-134536490D01*
X182143805Y-134367029D01*
X182198909Y-134090000D01*
X182185000Y-134020074D01*
X182185000Y-133395000D01*
X182189250Y-133395000D01*
X182348000Y-133236250D01*
X182348000Y-132935727D01*
X182361738Y-132915167D01*
X182422440Y-132610000D01*
X182422440Y-132112000D01*
X182602000Y-132112000D01*
X182602000Y-133236250D01*
X182760750Y-133395000D01*
X182901309Y-133395000D01*
X183134698Y-133298327D01*
X183313327Y-133119699D01*
X183410000Y-132886310D01*
X183410000Y-132270750D01*
X183251250Y-132112000D01*
X182602000Y-132112000D01*
X182422440Y-132112000D01*
X182422440Y-131360000D01*
X182361738Y-131054833D01*
X182348000Y-131034273D01*
X182348000Y-130733750D01*
X182602000Y-130733750D01*
X182602000Y-131858000D01*
X183251250Y-131858000D01*
X183410000Y-131699250D01*
X183410000Y-131083690D01*
X183313327Y-130850301D01*
X183134698Y-130671673D01*
X182901309Y-130575000D01*
X182760750Y-130575000D01*
X182602000Y-130733750D01*
X182348000Y-130733750D01*
X182189250Y-130575000D01*
X182048691Y-130575000D01*
X181988181Y-130600064D01*
X181986881Y-130598119D01*
X181927602Y-130558510D01*
X181559669Y-130190577D01*
X181621072Y-130165143D01*
X181800669Y-129985546D01*
X181854833Y-130021738D01*
X182160000Y-130082440D01*
X183410000Y-130082440D01*
X183715167Y-130021738D01*
X183973875Y-129848875D01*
X184146738Y-129590167D01*
X184207440Y-129285000D01*
X184207440Y-128985000D01*
X184146738Y-128679833D01*
X184116782Y-128635000D01*
X184146738Y-128590167D01*
X184207440Y-128285000D01*
X184207440Y-127985000D01*
X184179592Y-127845000D01*
X185230910Y-127845000D01*
X185805000Y-128419091D01*
X185805000Y-128419091D01*
G37*
X185805000Y-128419091D02*
X185805000Y-128476037D01*
X185939733Y-128801312D01*
X186188688Y-129050267D01*
X186513963Y-129185000D01*
X186866037Y-129185000D01*
X187191312Y-129050267D01*
X187225001Y-129016578D01*
X187225001Y-129187560D01*
X186009999Y-129187560D01*
X185666564Y-129255873D01*
X185375414Y-129450414D01*
X185180873Y-129741564D01*
X185112560Y-130084999D01*
X185112560Y-130785001D01*
X185180873Y-131128436D01*
X185375414Y-131419586D01*
X185666564Y-131614127D01*
X186009999Y-131682440D01*
X187225001Y-131682440D01*
X187225001Y-136425000D01*
X185022440Y-136425000D01*
X185022440Y-135209999D01*
X184954127Y-134866564D01*
X184759586Y-134575414D01*
X184468436Y-134380873D01*
X184125001Y-134312560D01*
X183424999Y-134312560D01*
X183081564Y-134380873D01*
X182790414Y-134575414D01*
X182595873Y-134866564D01*
X182527560Y-135209999D01*
X182527560Y-136425000D01*
X179422440Y-136425000D01*
X179422440Y-135209999D01*
X179354127Y-134866564D01*
X179159586Y-134575414D01*
X178868436Y-134380873D01*
X178525001Y-134312560D01*
X177824999Y-134312560D01*
X177481564Y-134380873D01*
X177439222Y-134409165D01*
X177542000Y-134161037D01*
X177542000Y-133952006D01*
X177676881Y-133861881D01*
X177716494Y-133802597D01*
X178252603Y-133266489D01*
X178311880Y-133226881D01*
X178351488Y-133167604D01*
X178351491Y-133167601D01*
X178468805Y-132992028D01*
X178523909Y-132715000D01*
X178510000Y-132645074D01*
X178510000Y-132024091D01*
X178527560Y-132041651D01*
X178527560Y-132610000D01*
X178588262Y-132915167D01*
X178761125Y-133173875D01*
X179019833Y-133346738D01*
X179325000Y-133407440D01*
X179625000Y-133407440D01*
X179930167Y-133346738D01*
X179975000Y-133316782D01*
X180019833Y-133346738D01*
X180325000Y-133407440D01*
X180625000Y-133407440D01*
X180765001Y-133379592D01*
X180765001Y-133795908D01*
X180190909Y-134370000D01*
X180133963Y-134370000D01*
X179808688Y-134504733D01*
X179559733Y-134753688D01*
X179425000Y-135078963D01*
X179425000Y-135431037D01*
X179559733Y-135756312D01*
X179808688Y-136005267D01*
X180133963Y-136140000D01*
X180486037Y-136140000D01*
X180811312Y-136005267D01*
X181060267Y-135756312D01*
X181195000Y-135431037D01*
X181195000Y-135374091D01*
X181927601Y-134641490D01*
X181986881Y-134601881D01*
X182030574Y-134536490D01*
X182143805Y-134367029D01*
X182198909Y-134090000D01*
X182185000Y-134020074D01*
X182185000Y-133395000D01*
X182189250Y-133395000D01*
X182348000Y-133236250D01*
X182348000Y-132935727D01*
X182361738Y-132915167D01*
X182422440Y-132610000D01*
X182422440Y-132112000D01*
X182602000Y-132112000D01*
X182602000Y-133236250D01*
X182760750Y-133395000D01*
X182901309Y-133395000D01*
X183134698Y-133298327D01*
X183313327Y-133119699D01*
X183410000Y-132886310D01*
X183410000Y-132270750D01*
X183251250Y-132112000D01*
X182602000Y-132112000D01*
X182422440Y-132112000D01*
X182422440Y-131360000D01*
X182361738Y-131054833D01*
X182348000Y-131034273D01*
X182348000Y-130733750D01*
X182602000Y-130733750D01*
X182602000Y-131858000D01*
X183251250Y-131858000D01*
X183410000Y-131699250D01*
X183410000Y-131083690D01*
X183313327Y-130850301D01*
X183134698Y-130671673D01*
X182901309Y-130575000D01*
X182760750Y-130575000D01*
X182602000Y-130733750D01*
X182348000Y-130733750D01*
X182189250Y-130575000D01*
X182048691Y-130575000D01*
X181988181Y-130600064D01*
X181986881Y-130598119D01*
X181927602Y-130558510D01*
X181559669Y-130190577D01*
X181621072Y-130165143D01*
X181800669Y-129985546D01*
X181854833Y-130021738D01*
X182160000Y-130082440D01*
X183410000Y-130082440D01*
X183715167Y-130021738D01*
X183973875Y-129848875D01*
X184146738Y-129590167D01*
X184207440Y-129285000D01*
X184207440Y-128985000D01*
X184146738Y-128679833D01*
X184116782Y-128635000D01*
X184146738Y-128590167D01*
X184207440Y-128285000D01*
X184207440Y-127985000D01*
X184179592Y-127845000D01*
X185230910Y-127845000D01*
X185805000Y-128419091D01*
G36*
X175906733Y-134486312D02*
X176155688Y-134735267D01*
X176480963Y-134870000D01*
X176833037Y-134870000D01*
X177055013Y-134778055D01*
X176995873Y-134866564D01*
X176927560Y-135209999D01*
X176927560Y-136425000D01*
X175941800Y-136425000D01*
X175941800Y-136272763D01*
X175807067Y-135947488D01*
X175558112Y-135698533D01*
X175232837Y-135563800D01*
X174880763Y-135563800D01*
X174555488Y-135698533D01*
X174515221Y-135738800D01*
X173755000Y-135738800D01*
X173755000Y-135617916D01*
X173597431Y-135237510D01*
X173306280Y-134946359D01*
X172925874Y-134788790D01*
X172514126Y-134788790D01*
X172133720Y-134946359D01*
X172032440Y-135047639D01*
X172032440Y-134900000D01*
X172081310Y-134900000D01*
X172314699Y-134803327D01*
X172493327Y-134624698D01*
X172561547Y-134460000D01*
X175895834Y-134460000D01*
X175906733Y-134486312D01*
X175906733Y-134486312D01*
G37*
X175906733Y-134486312D02*
X176155688Y-134735267D01*
X176480963Y-134870000D01*
X176833037Y-134870000D01*
X177055013Y-134778055D01*
X176995873Y-134866564D01*
X176927560Y-135209999D01*
X176927560Y-136425000D01*
X175941800Y-136425000D01*
X175941800Y-136272763D01*
X175807067Y-135947488D01*
X175558112Y-135698533D01*
X175232837Y-135563800D01*
X174880763Y-135563800D01*
X174555488Y-135698533D01*
X174515221Y-135738800D01*
X173755000Y-135738800D01*
X173755000Y-135617916D01*
X173597431Y-135237510D01*
X173306280Y-134946359D01*
X172925874Y-134788790D01*
X172514126Y-134788790D01*
X172133720Y-134946359D01*
X172032440Y-135047639D01*
X172032440Y-134900000D01*
X172081310Y-134900000D01*
X172314699Y-134803327D01*
X172493327Y-134624698D01*
X172561547Y-134460000D01*
X175895834Y-134460000D01*
X175906733Y-134486312D01*
G36*
X164694191Y-122490809D02*
X164799000Y-122560841D01*
X164799000Y-122760000D01*
X164752000Y-122760000D01*
X164752000Y-123409250D01*
X164885830Y-123543080D01*
X164853910Y-123575000D01*
X164796963Y-123575000D01*
X164471688Y-123709733D01*
X164222733Y-123958688D01*
X164088000Y-124283963D01*
X164088000Y-124636037D01*
X164222733Y-124961312D01*
X164471688Y-125210267D01*
X164796963Y-125345000D01*
X165149037Y-125345000D01*
X165474312Y-125210267D01*
X165723267Y-124961312D01*
X165858000Y-124636037D01*
X165858000Y-124579090D01*
X165940420Y-124496670D01*
X165993000Y-124575361D01*
X165993000Y-124636037D01*
X166127733Y-124961312D01*
X166376688Y-125210267D01*
X166701963Y-125345000D01*
X167054037Y-125345000D01*
X167379312Y-125210267D01*
X167480902Y-125108677D01*
X169448525Y-127076301D01*
X169488136Y-127135583D01*
X169722989Y-127292507D01*
X169930091Y-127333702D01*
X169930095Y-127333702D01*
X170000016Y-127347610D01*
X170043000Y-127339060D01*
X170077909Y-127373969D01*
X170403184Y-127508702D01*
X170755258Y-127508702D01*
X171026628Y-127396297D01*
X170940705Y-127603735D01*
X170940705Y-128015483D01*
X171098274Y-128395889D01*
X171389425Y-128687040D01*
X171769831Y-128844609D01*
X172181579Y-128844609D01*
X172561985Y-128687040D01*
X172853136Y-128395889D01*
X173010705Y-128015483D01*
X173010705Y-127603735D01*
X172853136Y-127223329D01*
X172710705Y-127080898D01*
X172710705Y-126539392D01*
X172718700Y-126547387D01*
X173043975Y-126682120D01*
X173396049Y-126682120D01*
X173721324Y-126547387D01*
X173915001Y-126353710D01*
X173915000Y-128363421D01*
X173874733Y-128403688D01*
X173740000Y-128728963D01*
X173740000Y-128981412D01*
X173545872Y-128901002D01*
X173134124Y-128901002D01*
X172753718Y-129058571D01*
X172611287Y-129201002D01*
X171941379Y-129201002D01*
X171868995Y-129186604D01*
X171796611Y-129201002D01*
X171796608Y-129201002D01*
X171582213Y-129243648D01*
X171339091Y-129406097D01*
X171298086Y-129467465D01*
X170011462Y-130754090D01*
X169950095Y-130795094D01*
X169909091Y-130856461D01*
X169909090Y-130856462D01*
X169894993Y-130877560D01*
X169325000Y-130877560D01*
X169077235Y-130926843D01*
X168867191Y-131067191D01*
X168726843Y-131277235D01*
X168677560Y-131525000D01*
X168677560Y-131802964D01*
X168507235Y-131836843D01*
X168354478Y-131938913D01*
X168176037Y-131865000D01*
X167823963Y-131865000D01*
X167498688Y-131999733D01*
X167249733Y-132248688D01*
X167115000Y-132573963D01*
X167115000Y-132926037D01*
X167249733Y-133251312D01*
X167498688Y-133500267D01*
X167823963Y-133635000D01*
X167880909Y-133635000D01*
X168048508Y-133802598D01*
X168088119Y-133861881D01*
X168109824Y-133876384D01*
X168124467Y-133950000D01*
X168107560Y-134035000D01*
X168107560Y-134265000D01*
X168137920Y-134417633D01*
X167400554Y-135155000D01*
X166716573Y-135155000D01*
X166617809Y-135007191D01*
X166407765Y-134866843D01*
X166160000Y-134817560D01*
X165310000Y-134817560D01*
X165062235Y-134866843D01*
X165053606Y-134872608D01*
X164839398Y-134830000D01*
X164630602Y-134830000D01*
X164321409Y-134891502D01*
X163970783Y-135125783D01*
X163736502Y-135476409D01*
X163654234Y-135890000D01*
X163736502Y-136303591D01*
X163817625Y-136425000D01*
X163295000Y-136425000D01*
X163295000Y-124460000D01*
X163957000Y-124460000D01*
X164005601Y-124450333D01*
X164046803Y-124422803D01*
X164074333Y-124381601D01*
X164084000Y-124333000D01*
X164084000Y-123463025D01*
X164092302Y-123471327D01*
X164325691Y-123568000D01*
X164393250Y-123568000D01*
X164552000Y-123409250D01*
X164552000Y-122760000D01*
X164505000Y-122760000D01*
X164505000Y-122506000D01*
X164552000Y-122506000D01*
X164552000Y-122486000D01*
X164690978Y-122486000D01*
X164694191Y-122490809D01*
X164694191Y-122490809D01*
G37*
X164694191Y-122490809D02*
X164799000Y-122560841D01*
X164799000Y-122760000D01*
X164752000Y-122760000D01*
X164752000Y-123409250D01*
X164885830Y-123543080D01*
X164853910Y-123575000D01*
X164796963Y-123575000D01*
X164471688Y-123709733D01*
X164222733Y-123958688D01*
X164088000Y-124283963D01*
X164088000Y-124636037D01*
X164222733Y-124961312D01*
X164471688Y-125210267D01*
X164796963Y-125345000D01*
X165149037Y-125345000D01*
X165474312Y-125210267D01*
X165723267Y-124961312D01*
X165858000Y-124636037D01*
X165858000Y-124579090D01*
X165940420Y-124496670D01*
X165993000Y-124575361D01*
X165993000Y-124636037D01*
X166127733Y-124961312D01*
X166376688Y-125210267D01*
X166701963Y-125345000D01*
X167054037Y-125345000D01*
X167379312Y-125210267D01*
X167480902Y-125108677D01*
X169448525Y-127076301D01*
X169488136Y-127135583D01*
X169722989Y-127292507D01*
X169930091Y-127333702D01*
X169930095Y-127333702D01*
X170000016Y-127347610D01*
X170043000Y-127339060D01*
X170077909Y-127373969D01*
X170403184Y-127508702D01*
X170755258Y-127508702D01*
X171026628Y-127396297D01*
X170940705Y-127603735D01*
X170940705Y-128015483D01*
X171098274Y-128395889D01*
X171389425Y-128687040D01*
X171769831Y-128844609D01*
X172181579Y-128844609D01*
X172561985Y-128687040D01*
X172853136Y-128395889D01*
X173010705Y-128015483D01*
X173010705Y-127603735D01*
X172853136Y-127223329D01*
X172710705Y-127080898D01*
X172710705Y-126539392D01*
X172718700Y-126547387D01*
X173043975Y-126682120D01*
X173396049Y-126682120D01*
X173721324Y-126547387D01*
X173915001Y-126353710D01*
X173915000Y-128363421D01*
X173874733Y-128403688D01*
X173740000Y-128728963D01*
X173740000Y-128981412D01*
X173545872Y-128901002D01*
X173134124Y-128901002D01*
X172753718Y-129058571D01*
X172611287Y-129201002D01*
X171941379Y-129201002D01*
X171868995Y-129186604D01*
X171796611Y-129201002D01*
X171796608Y-129201002D01*
X171582213Y-129243648D01*
X171339091Y-129406097D01*
X171298086Y-129467465D01*
X170011462Y-130754090D01*
X169950095Y-130795094D01*
X169909091Y-130856461D01*
X169909090Y-130856462D01*
X169894993Y-130877560D01*
X169325000Y-130877560D01*
X169077235Y-130926843D01*
X168867191Y-131067191D01*
X168726843Y-131277235D01*
X168677560Y-131525000D01*
X168677560Y-131802964D01*
X168507235Y-131836843D01*
X168354478Y-131938913D01*
X168176037Y-131865000D01*
X167823963Y-131865000D01*
X167498688Y-131999733D01*
X167249733Y-132248688D01*
X167115000Y-132573963D01*
X167115000Y-132926037D01*
X167249733Y-133251312D01*
X167498688Y-133500267D01*
X167823963Y-133635000D01*
X167880909Y-133635000D01*
X168048508Y-133802598D01*
X168088119Y-133861881D01*
X168109824Y-133876384D01*
X168124467Y-133950000D01*
X168107560Y-134035000D01*
X168107560Y-134265000D01*
X168137920Y-134417633D01*
X167400554Y-135155000D01*
X166716573Y-135155000D01*
X166617809Y-135007191D01*
X166407765Y-134866843D01*
X166160000Y-134817560D01*
X165310000Y-134817560D01*
X165062235Y-134866843D01*
X165053606Y-134872608D01*
X164839398Y-134830000D01*
X164630602Y-134830000D01*
X164321409Y-134891502D01*
X163970783Y-135125783D01*
X163736502Y-135476409D01*
X163654234Y-135890000D01*
X163736502Y-136303591D01*
X163817625Y-136425000D01*
X163295000Y-136425000D01*
X163295000Y-124460000D01*
X163957000Y-124460000D01*
X164005601Y-124450333D01*
X164046803Y-124422803D01*
X164074333Y-124381601D01*
X164084000Y-124333000D01*
X164084000Y-123463025D01*
X164092302Y-123471327D01*
X164325691Y-123568000D01*
X164393250Y-123568000D01*
X164552000Y-123409250D01*
X164552000Y-122760000D01*
X164505000Y-122760000D01*
X164505000Y-122506000D01*
X164552000Y-122506000D01*
X164552000Y-122486000D01*
X164690978Y-122486000D01*
X164694191Y-122490809D01*
G36*
X185112560Y-124484999D02*
X185112560Y-125185001D01*
X185180873Y-125528436D01*
X185375414Y-125819586D01*
X185666564Y-126014127D01*
X186009999Y-126082440D01*
X187225001Y-126082440D01*
X187225001Y-127583422D01*
X187191312Y-127549733D01*
X186866037Y-127415000D01*
X186809091Y-127415000D01*
X186076494Y-126682404D01*
X186036881Y-126623119D01*
X185802028Y-126466195D01*
X185594926Y-126425000D01*
X185594924Y-126425000D01*
X185525000Y-126411091D01*
X185455076Y-126425000D01*
X184195000Y-126425000D01*
X184195000Y-126420750D01*
X184036250Y-126262000D01*
X183735727Y-126262000D01*
X183715167Y-126248262D01*
X183410000Y-126187560D01*
X182638000Y-126187560D01*
X182638000Y-126008000D01*
X182658000Y-126008000D01*
X182658000Y-125988000D01*
X182912000Y-125988000D01*
X182912000Y-126008000D01*
X184036250Y-126008000D01*
X184195000Y-125849250D01*
X184195000Y-125708691D01*
X184098327Y-125475302D01*
X183919699Y-125296673D01*
X183686310Y-125200000D01*
X183215289Y-125200000D01*
X183358858Y-125104070D01*
X183368081Y-125090268D01*
X183381883Y-125081045D01*
X183538807Y-124846192D01*
X183580002Y-124639090D01*
X183580002Y-124639085D01*
X183593910Y-124569165D01*
X183580002Y-124499244D01*
X183580002Y-124442440D01*
X185121025Y-124442440D01*
X185112560Y-124484999D01*
X185112560Y-124484999D01*
G37*
X185112560Y-124484999D02*
X185112560Y-125185001D01*
X185180873Y-125528436D01*
X185375414Y-125819586D01*
X185666564Y-126014127D01*
X186009999Y-126082440D01*
X187225001Y-126082440D01*
X187225001Y-127583422D01*
X187191312Y-127549733D01*
X186866037Y-127415000D01*
X186809091Y-127415000D01*
X186076494Y-126682404D01*
X186036881Y-126623119D01*
X185802028Y-126466195D01*
X185594926Y-126425000D01*
X185594924Y-126425000D01*
X185525000Y-126411091D01*
X185455076Y-126425000D01*
X184195000Y-126425000D01*
X184195000Y-126420750D01*
X184036250Y-126262000D01*
X183735727Y-126262000D01*
X183715167Y-126248262D01*
X183410000Y-126187560D01*
X182638000Y-126187560D01*
X182638000Y-126008000D01*
X182658000Y-126008000D01*
X182658000Y-125988000D01*
X182912000Y-125988000D01*
X182912000Y-126008000D01*
X184036250Y-126008000D01*
X184195000Y-125849250D01*
X184195000Y-125708691D01*
X184098327Y-125475302D01*
X183919699Y-125296673D01*
X183686310Y-125200000D01*
X183215289Y-125200000D01*
X183358858Y-125104070D01*
X183368081Y-125090268D01*
X183381883Y-125081045D01*
X183538807Y-124846192D01*
X183580002Y-124639090D01*
X183580002Y-124639085D01*
X183593910Y-124569165D01*
X183580002Y-124499244D01*
X183580002Y-124442440D01*
X185121025Y-124442440D01*
X185112560Y-124484999D01*
G36*
X181709303Y-125044790D02*
X181748912Y-125104070D01*
X181808191Y-125143679D01*
X181808192Y-125143680D01*
X181892480Y-125200000D01*
X181883690Y-125200000D01*
X181672943Y-125287294D01*
X180925132Y-124539484D01*
X180925132Y-124443398D01*
X181107911Y-124443398D01*
X181709303Y-125044790D01*
X181709303Y-125044790D01*
G37*
X181709303Y-125044790D02*
X181748912Y-125104070D01*
X181808191Y-125143679D01*
X181808192Y-125143680D01*
X181892480Y-125200000D01*
X181883690Y-125200000D01*
X181672943Y-125287294D01*
X180925132Y-124539484D01*
X180925132Y-124443398D01*
X181107911Y-124443398D01*
X181709303Y-125044790D01*
G36*
X181157000Y-121621250D02*
X181315750Y-121780000D01*
X181400854Y-121780000D01*
X181507334Y-122037066D01*
X181649765Y-122179497D01*
X181649766Y-122774753D01*
X181412868Y-123011651D01*
X181402002Y-123009489D01*
X181332078Y-123023398D01*
X181103900Y-123023398D01*
X181225000Y-122731037D01*
X181225000Y-122378963D01*
X181090267Y-122053688D01*
X180841312Y-121804733D01*
X180755190Y-121769060D01*
X180903000Y-121621250D01*
X180903000Y-120848000D01*
X181157000Y-120848000D01*
X181157000Y-121621250D01*
X181157000Y-121621250D01*
G37*
X181157000Y-121621250D02*
X181315750Y-121780000D01*
X181400854Y-121780000D01*
X181507334Y-122037066D01*
X181649765Y-122179497D01*
X181649766Y-122774753D01*
X181412868Y-123011651D01*
X181402002Y-123009489D01*
X181332078Y-123023398D01*
X181103900Y-123023398D01*
X181225000Y-122731037D01*
X181225000Y-122378963D01*
X181090267Y-122053688D01*
X180841312Y-121804733D01*
X180755190Y-121769060D01*
X180903000Y-121621250D01*
X180903000Y-120848000D01*
X181157000Y-120848000D01*
X181157000Y-121621250D01*
G36*
X164752000Y-113206000D02*
X165652000Y-113206000D01*
X165652000Y-113186000D01*
X165704560Y-113186000D01*
X165704560Y-113276349D01*
X165520909Y-113460000D01*
X164752000Y-113460000D01*
X164752000Y-114109250D01*
X164910750Y-114268000D01*
X164978309Y-114268000D01*
X164982138Y-114266414D01*
X164969010Y-114298107D01*
X164969010Y-114650181D01*
X165103743Y-114975456D01*
X165352698Y-115224411D01*
X165677973Y-115359144D01*
X166030047Y-115359144D01*
X166355322Y-115224411D01*
X166604277Y-114975456D01*
X166739010Y-114650181D01*
X166739010Y-114298107D01*
X166731692Y-114280440D01*
X166752000Y-114280440D01*
X166999765Y-114231157D01*
X167209809Y-114090809D01*
X167350157Y-113880765D01*
X167352000Y-113871500D01*
X167353843Y-113880765D01*
X167494191Y-114090809D01*
X167704235Y-114231157D01*
X167704560Y-114231222D01*
X167704560Y-114533000D01*
X167753843Y-114780765D01*
X167894191Y-114990809D01*
X168104235Y-115131157D01*
X168352000Y-115180440D01*
X168395349Y-115180440D01*
X168401548Y-115186638D01*
X168194191Y-115325191D01*
X168053843Y-115535235D01*
X168004560Y-115783000D01*
X168004560Y-115826349D01*
X167314401Y-116516508D01*
X167255119Y-116556120D01*
X167098195Y-116790973D01*
X167059999Y-116983000D01*
X167043091Y-117068000D01*
X167057000Y-117137925D01*
X167057001Y-119565411D01*
X167016733Y-119605679D01*
X166882000Y-119930954D01*
X166882000Y-120283028D01*
X167016733Y-120608303D01*
X167204416Y-120795986D01*
X167152000Y-120785560D01*
X166752000Y-120785560D01*
X166552000Y-120825342D01*
X166352000Y-120785560D01*
X165952000Y-120785560D01*
X165752000Y-120825342D01*
X165552000Y-120785560D01*
X165152000Y-120785560D01*
X164904235Y-120834843D01*
X164694191Y-120975191D01*
X164553843Y-121185235D01*
X164504560Y-121433000D01*
X164504560Y-121809310D01*
X164393250Y-121698000D01*
X164325691Y-121698000D01*
X164092302Y-121794673D01*
X164084000Y-121802975D01*
X164084000Y-114163025D01*
X164092302Y-114171327D01*
X164325691Y-114268000D01*
X164393250Y-114268000D01*
X164552000Y-114109250D01*
X164552000Y-113460000D01*
X164505000Y-113460000D01*
X164505000Y-113206000D01*
X164552000Y-113206000D01*
X164552000Y-113186000D01*
X164752000Y-113186000D01*
X164752000Y-113206000D01*
X164752000Y-113206000D01*
G37*
X164752000Y-113206000D02*
X165652000Y-113206000D01*
X165652000Y-113186000D01*
X165704560Y-113186000D01*
X165704560Y-113276349D01*
X165520909Y-113460000D01*
X164752000Y-113460000D01*
X164752000Y-114109250D01*
X164910750Y-114268000D01*
X164978309Y-114268000D01*
X164982138Y-114266414D01*
X164969010Y-114298107D01*
X164969010Y-114650181D01*
X165103743Y-114975456D01*
X165352698Y-115224411D01*
X165677973Y-115359144D01*
X166030047Y-115359144D01*
X166355322Y-115224411D01*
X166604277Y-114975456D01*
X166739010Y-114650181D01*
X166739010Y-114298107D01*
X166731692Y-114280440D01*
X166752000Y-114280440D01*
X166999765Y-114231157D01*
X167209809Y-114090809D01*
X167350157Y-113880765D01*
X167352000Y-113871500D01*
X167353843Y-113880765D01*
X167494191Y-114090809D01*
X167704235Y-114231157D01*
X167704560Y-114231222D01*
X167704560Y-114533000D01*
X167753843Y-114780765D01*
X167894191Y-114990809D01*
X168104235Y-115131157D01*
X168352000Y-115180440D01*
X168395349Y-115180440D01*
X168401548Y-115186638D01*
X168194191Y-115325191D01*
X168053843Y-115535235D01*
X168004560Y-115783000D01*
X168004560Y-115826349D01*
X167314401Y-116516508D01*
X167255119Y-116556120D01*
X167098195Y-116790973D01*
X167059999Y-116983000D01*
X167043091Y-117068000D01*
X167057000Y-117137925D01*
X167057001Y-119565411D01*
X167016733Y-119605679D01*
X166882000Y-119930954D01*
X166882000Y-120283028D01*
X167016733Y-120608303D01*
X167204416Y-120795986D01*
X167152000Y-120785560D01*
X166752000Y-120785560D01*
X166552000Y-120825342D01*
X166352000Y-120785560D01*
X165952000Y-120785560D01*
X165752000Y-120825342D01*
X165552000Y-120785560D01*
X165152000Y-120785560D01*
X164904235Y-120834843D01*
X164694191Y-120975191D01*
X164553843Y-121185235D01*
X164504560Y-121433000D01*
X164504560Y-121809310D01*
X164393250Y-121698000D01*
X164325691Y-121698000D01*
X164092302Y-121794673D01*
X164084000Y-121802975D01*
X164084000Y-114163025D01*
X164092302Y-114171327D01*
X164325691Y-114268000D01*
X164393250Y-114268000D01*
X164552000Y-114109250D01*
X164552000Y-113460000D01*
X164505000Y-113460000D01*
X164505000Y-113206000D01*
X164552000Y-113206000D01*
X164552000Y-113186000D01*
X164752000Y-113186000D01*
X164752000Y-113206000D01*
G36*
X179070000Y-120777000D02*
X179090000Y-120777000D01*
X179090000Y-121031000D01*
X179070000Y-121031000D01*
X179070000Y-121051000D01*
X178816000Y-121051000D01*
X178816000Y-121031000D01*
X178796000Y-121031000D01*
X178796000Y-120777000D01*
X178816000Y-120777000D01*
X178816000Y-120757000D01*
X179070000Y-120757000D01*
X179070000Y-120777000D01*
X179070000Y-120777000D01*
G37*
X179070000Y-120777000D02*
X179090000Y-120777000D01*
X179090000Y-121031000D01*
X179070000Y-121031000D01*
X179070000Y-121051000D01*
X178816000Y-121051000D01*
X178816000Y-121031000D01*
X178796000Y-121031000D01*
X178796000Y-120777000D01*
X178816000Y-120777000D01*
X178816000Y-120757000D01*
X179070000Y-120757000D01*
X179070000Y-120777000D01*
G36*
X173942001Y-120929883D02*
X173862397Y-120876693D01*
X173942001Y-120797090D01*
X173942001Y-120929883D01*
X173942001Y-120929883D01*
G37*
X173942001Y-120929883D02*
X173862397Y-120876693D01*
X173942001Y-120797090D01*
X173942001Y-120929883D01*
G36*
X172140295Y-119993128D02*
X172118871Y-120044850D01*
X172092764Y-120018743D01*
X171767489Y-119884010D01*
X171415415Y-119884010D01*
X171090140Y-120018743D01*
X170841185Y-120267698D01*
X170706452Y-120592973D01*
X170706452Y-120794620D01*
X170552000Y-120825342D01*
X170352000Y-120785560D01*
X169952000Y-120785560D01*
X169752000Y-120825342D01*
X169552000Y-120785560D01*
X169477629Y-120785560D01*
X169499765Y-120781157D01*
X169709809Y-120640809D01*
X169850157Y-120430765D01*
X169899440Y-120183000D01*
X169899440Y-120122634D01*
X169946137Y-120141976D01*
X170357885Y-120141976D01*
X170738291Y-119984407D01*
X170880722Y-119841976D01*
X172291447Y-119841976D01*
X172140295Y-119993128D01*
X172140295Y-119993128D01*
G37*
X172140295Y-119993128D02*
X172118871Y-120044850D01*
X172092764Y-120018743D01*
X171767489Y-119884010D01*
X171415415Y-119884010D01*
X171090140Y-120018743D01*
X170841185Y-120267698D01*
X170706452Y-120592973D01*
X170706452Y-120794620D01*
X170552000Y-120825342D01*
X170352000Y-120785560D01*
X169952000Y-120785560D01*
X169752000Y-120825342D01*
X169552000Y-120785560D01*
X169477629Y-120785560D01*
X169499765Y-120781157D01*
X169709809Y-120640809D01*
X169850157Y-120430765D01*
X169899440Y-120183000D01*
X169899440Y-120122634D01*
X169946137Y-120141976D01*
X170357885Y-120141976D01*
X170738291Y-119984407D01*
X170880722Y-119841976D01*
X172291447Y-119841976D01*
X172140295Y-119993128D01*
G36*
X171619001Y-117340136D02*
X171605092Y-117410060D01*
X171619001Y-117479984D01*
X171619001Y-117479986D01*
X171660196Y-117687088D01*
X171817121Y-117921941D01*
X171876403Y-117961552D01*
X172286826Y-118371976D01*
X170880722Y-118371976D01*
X170738291Y-118229545D01*
X170357885Y-118071976D01*
X169946137Y-118071976D01*
X169882592Y-118098297D01*
X169859658Y-117983000D01*
X169899440Y-117783000D01*
X169899440Y-117383000D01*
X169889566Y-117333362D01*
X169983027Y-117333362D01*
X170308302Y-117198629D01*
X170348569Y-117158362D01*
X171619001Y-117158362D01*
X171619001Y-117340136D01*
X171619001Y-117340136D01*
G37*
X171619001Y-117340136D02*
X171605092Y-117410060D01*
X171619001Y-117479984D01*
X171619001Y-117479986D01*
X171660196Y-117687088D01*
X171817121Y-117921941D01*
X171876403Y-117961552D01*
X172286826Y-118371976D01*
X170880722Y-118371976D01*
X170738291Y-118229545D01*
X170357885Y-118071976D01*
X169946137Y-118071976D01*
X169882592Y-118098297D01*
X169859658Y-117983000D01*
X169899440Y-117783000D01*
X169899440Y-117383000D01*
X169889566Y-117333362D01*
X169983027Y-117333362D01*
X170308302Y-117198629D01*
X170348569Y-117158362D01*
X171619001Y-117158362D01*
X171619001Y-117340136D01*
G36*
X184698560Y-118153393D02*
X184438096Y-118153393D01*
X184452978Y-118138511D01*
X184713442Y-118138511D01*
X184698560Y-118153393D01*
X184698560Y-118153393D01*
G37*
X184698560Y-118153393D02*
X184438096Y-118153393D01*
X184452978Y-118138511D01*
X184713442Y-118138511D01*
X184698560Y-118153393D01*
G36*
X187104126Y-116732000D02*
X187225000Y-116732000D01*
X187225000Y-117373109D01*
X186950688Y-117486733D01*
X186910421Y-117527000D01*
X186446164Y-117527000D01*
X185895078Y-116975915D01*
X185855465Y-116916630D01*
X185700372Y-116813000D01*
X186290931Y-116813000D01*
X186363315Y-116827398D01*
X186435699Y-116813000D01*
X186435703Y-116813000D01*
X186650098Y-116770354D01*
X186859281Y-116630582D01*
X187104126Y-116732000D01*
X187104126Y-116732000D01*
G37*
X187104126Y-116732000D02*
X187225000Y-116732000D01*
X187225000Y-117373109D01*
X186950688Y-117486733D01*
X186910421Y-117527000D01*
X186446164Y-117527000D01*
X185895078Y-116975915D01*
X185855465Y-116916630D01*
X185700372Y-116813000D01*
X186290931Y-116813000D01*
X186363315Y-116827398D01*
X186435699Y-116813000D01*
X186435703Y-116813000D01*
X186650098Y-116770354D01*
X186859281Y-116630582D01*
X187104126Y-116732000D01*
G36*
X177013663Y-113536059D02*
X177030775Y-113577372D01*
X176535148Y-114073000D01*
X176499440Y-114073000D01*
X176499440Y-113783000D01*
X176458626Y-113577811D01*
X176487000Y-113509309D01*
X176487000Y-113441750D01*
X176413249Y-113367999D01*
X177013663Y-113367999D01*
X177013663Y-113536059D01*
X177013663Y-113536059D01*
G37*
X177013663Y-113536059D02*
X177030775Y-113577372D01*
X176535148Y-114073000D01*
X176499440Y-114073000D01*
X176499440Y-113783000D01*
X176458626Y-113577811D01*
X176487000Y-113509309D01*
X176487000Y-113441750D01*
X176413249Y-113367999D01*
X177013663Y-113367999D01*
X177013663Y-113536059D01*
G36*
X174617000Y-113441750D02*
X174617000Y-113509309D01*
X174645374Y-113577811D01*
X174606170Y-113774904D01*
X174408716Y-113577450D01*
X174083441Y-113442717D01*
X173859000Y-113442717D01*
X173859000Y-113367999D01*
X174690751Y-113367999D01*
X174617000Y-113441750D01*
X174617000Y-113441750D01*
G37*
X174617000Y-113441750D02*
X174617000Y-113509309D01*
X174645374Y-113577811D01*
X174606170Y-113774904D01*
X174408716Y-113577450D01*
X174083441Y-113442717D01*
X173859000Y-113442717D01*
X173859000Y-113367999D01*
X174690751Y-113367999D01*
X174617000Y-113441750D01*
G04 #@! TD*
M02*
