M48
; DRILL file {KiCad (5.99.0-2309-gaf729d578)} date Sun Aug 23 06:16:58 2020
; FORMAT={-:-/ absolute / inch / decimal}
; #@! TF.CreationDate,2020-08-23T06:16:58-04:00
; #@! TF.GenerationSoftware,Kicad,Pcbnew,(5.99.0-2309-gaf729d578)
; #@! TF.FileFunction,Plated,1,2,PTH
FMAT,2
INCH
T1C0.0118
T2C0.0236
T3C0.0315
%
G90
G05
T1
X0.5315Y-0.9154
X0.5512Y-1.378
X0.5512Y-1.7815
X0.561Y-1.2008
X0.5807Y-0.5807
X0.586Y-0.7421
X0.5906Y-1.1417
X0.6004Y-0.9744
X0.6102Y-0.9154
X0.6299Y-1.5551
X0.6398Y-1.063
X0.6404Y-1.2303
X0.6496Y-0.8169
X0.6594Y-1.1122
X0.6693Y-0.9252
X0.6693Y-1.4567
X0.6988Y-0.8465
X0.7185Y-1.1122
X0.7225Y-1.2005
X0.7283Y-1.3091
X0.7335Y-1.2506
X0.7455Y-1.1591
X0.748Y-1.0138
X0.7677Y-0.7776
X0.7677Y-1.0335
X0.7677Y-1.1012
X0.7677Y-1.1417
X0.7818Y-1.2843
X0.7874Y-1.4272
X0.7972Y-0.8563
X0.8071Y-0.7874
X0.8071Y-1.2598
X0.8118Y-1.5925
X0.8158Y-0.6687
X0.8169Y-1.5551
X0.8238Y-1.435
X0.8284Y-0.6938
X0.8354Y-1.336
X0.8366Y-0.8071
X0.8366Y-0.8957
X0.8366Y-1.7126
X0.8465Y-0.748
X0.8465Y-1.1811
X0.8465Y-1.3591
X0.8467Y-1.2616
X0.8661Y-0.9941
X0.8661Y-1.0236
X0.8661Y-1.1417
X0.8661Y-1.7421
X0.8692Y-0.8532
X0.8858Y-0.8858
X0.8858Y-1.1122
X0.8858Y-1.5256
X0.8861Y-1.2616
X0.9055Y-0.5709
X0.9154Y-1.3484
X0.9243Y-1.2557
X0.9252Y-1.7815
X0.935Y-0.9744
X0.935Y-1.0138
X0.939Y-1.6535
X0.9449Y-0.7376
X0.9449Y-1.5157
X0.9449Y-1.8307
X0.9472Y-1.1896
X0.9665Y-1.2264
X0.9825Y-1.2746
X1.0039Y-0.7579
X1.0039Y-0.9252
X1.0039Y-1.2205
X1.0039Y-1.5207
X1.0039Y-1.5945
X1.0138Y-1.1122
X1.0138Y-1.3484
X1.0329Y-1.2697
X1.0335Y-1.3091
X1.0335Y-1.3976
X1.036Y-1.7647
X1.0433Y-0.9252
X1.0619Y-1.1606
X1.063Y-0.7087
X1.063Y-1.2992
X1.063Y-1.5207
X1.0728Y-1.7126
X1.0758Y-1.417
X1.0823Y-1.2538
X1.0925Y-1.8602
X1.0999Y-1.1485
X1.1122Y-0.7185
X1.1209Y-1.2402
X1.122Y-0.8563
X1.122Y-1.5896
X1.122Y-1.7126
X1.1241Y-1.4567
X1.1319Y-0.9055
X1.1319Y-1.1417
X1.1319Y-1.3287
X1.1417Y-1.4075
X1.1417Y-1.7815
X1.1417Y-1.8307
X1.1504Y-0.8554
X1.1516Y-1.6634
X1.1574Y-1.2705
X1.1825Y-1.2654
X1.1909Y-0.8071
X1.1909Y-1.3976
X1.2008Y-1.122
X1.2084Y-0.9127
X1.2099Y-0.8359
X1.2106Y-0.6988
X1.2205Y-1.1516
X1.2402Y-1.5256
X1.2402Y-1.7126
X1.2486Y-0.8071
X1.2795Y-1.3091
X1.2795Y-1.6929
X1.2992Y-1.5256
T3
X1.2402Y-1.8701
X1.3189Y-1.8701
X0.689Y-0.6004
X0.689Y-0.6791
T2
G00X0.6764Y-1.7075
M15
G01X0.6764Y-1.6642
M16
G05
G00X0.6764Y-1.8657
M15
G01X0.6764Y-1.8343
M16
G05
G00X1.0165Y-1.7075
M15
G01X1.0165Y-1.6642
M16
G05
G00X1.0165Y-1.8657
M15
G01X1.0165Y-1.8343
M16
G05
T0
M30
