%TF.GenerationSoftware,KiCad,Pcbnew,(5.99.0-2309-gaf729d578)*%
%TF.CreationDate,2020-08-23T06:16:53-04:00*%
%TF.ProjectId,mk2,6d6b322e-6b69-4636-9164-5f7063625858,rev?*%
%TF.SameCoordinates,Original*%
%TF.FileFunction,Legend,Top*%
%TF.FilePolarity,Positive*%
%FSLAX46Y46*%
G04 Gerber Fmt 4.6, Leading zero omitted, Abs format (unit mm)*
G04 Created by KiCad (PCBNEW (5.99.0-2309-gaf729d578)) date 2020-08-23 06:16:53*
%MOMM*%
%LPD*%
G01*
G04 APERTURE LIST*
%ADD10C,0.125000*%
%ADD11C,0.015000*%
%ADD12C,0.120000*%
%ADD13C,0.127000*%
%ADD14C,0.150000*%
%ADD15C,0.200000*%
%ADD16C,0.050000*%
%ADD17C,0.250000*%
%ADD18C,0.100000*%
G04 APERTURE END LIST*
D10*
X31535714Y-46535714D02*
X31535714Y-46154761D01*
X31726190Y-46345238D02*
X31345238Y-46345238D01*
X31464285Y-45750000D02*
X31488095Y-45678571D01*
X31511904Y-45654761D01*
X31559523Y-45630952D01*
X31630952Y-45630952D01*
X31678571Y-45654761D01*
X31702380Y-45678571D01*
X31726190Y-45726190D01*
X31726190Y-45916666D01*
X31226190Y-45916666D01*
X31226190Y-45750000D01*
X31250000Y-45702380D01*
X31273809Y-45678571D01*
X31321428Y-45654761D01*
X31369047Y-45654761D01*
X31416666Y-45678571D01*
X31440476Y-45702380D01*
X31464285Y-45750000D01*
X31464285Y-45916666D01*
X31583333Y-45440476D02*
X31583333Y-45202380D01*
X31726190Y-45488095D02*
X31226190Y-45321428D01*
X31726190Y-45154761D01*
X31226190Y-45059523D02*
X31226190Y-44773809D01*
X31726190Y-44916666D02*
X31226190Y-44916666D01*
X31226190Y-44678571D02*
X31226190Y-44392857D01*
X31726190Y-44535714D02*
X31226190Y-44535714D01*
X33250000Y-45880952D02*
X33226190Y-45928571D01*
X33226190Y-46000000D01*
X33250000Y-46071428D01*
X33297619Y-46119047D01*
X33345238Y-46142857D01*
X33440476Y-46166666D01*
X33511904Y-46166666D01*
X33607142Y-46142857D01*
X33654761Y-46119047D01*
X33702380Y-46071428D01*
X33726190Y-46000000D01*
X33726190Y-45952380D01*
X33702380Y-45880952D01*
X33678571Y-45857142D01*
X33511904Y-45857142D01*
X33511904Y-45952380D01*
X33726190Y-45642857D02*
X33226190Y-45642857D01*
X33726190Y-45357142D01*
X33226190Y-45357142D01*
X33726190Y-45119047D02*
X33226190Y-45119047D01*
X33226190Y-45000000D01*
X33250000Y-44928571D01*
X33297619Y-44880952D01*
X33345238Y-44857142D01*
X33440476Y-44833333D01*
X33511904Y-44833333D01*
X33607142Y-44857142D01*
X33654761Y-44880952D01*
X33702380Y-44928571D01*
X33726190Y-45000000D01*
X33726190Y-45119047D01*
D11*
%TO.C,J4*%
X32975971Y-41552159D02*
X32975971Y-41895716D01*
X32953067Y-41964427D01*
X32907259Y-42010235D01*
X32838548Y-42033139D01*
X32792740Y-42033139D01*
X33411143Y-41712485D02*
X33411143Y-42033139D01*
X33296624Y-41529255D02*
X33182105Y-41872812D01*
X33479855Y-41872812D01*
D12*
%TO.C,J3*%
X16440000Y-14190000D02*
X17500000Y-14190000D01*
X16440000Y-15250000D02*
X16440000Y-14190000D01*
X16440000Y-16250000D02*
X18560000Y-16250000D01*
X18560000Y-16250000D02*
X18560000Y-18310000D01*
X16440000Y-16250000D02*
X16440000Y-18310000D01*
X16440000Y-18310000D02*
X18560000Y-18310000D01*
%TO.C,BT1*%
X30440000Y-48560000D02*
X30440000Y-47500000D01*
X31500000Y-48560000D02*
X30440000Y-48560000D01*
X32500000Y-48560000D02*
X32500000Y-46440000D01*
X32500000Y-46440000D02*
X34560000Y-46440000D01*
X32500000Y-48560000D02*
X34560000Y-48560000D01*
X34560000Y-48560000D02*
X34560000Y-46440000D01*
D13*
%TO.C,U4*%
X20230000Y-20270000D02*
X20230000Y-19800000D01*
X22770000Y-20270000D02*
X22770000Y-19800000D01*
X20230000Y-20270000D02*
X20700000Y-20270000D01*
X22770000Y-20270000D02*
X22300000Y-20270000D01*
X20230000Y-17730000D02*
X20230000Y-18200000D01*
X20230000Y-17730000D02*
X20700000Y-17730000D01*
X22770000Y-17730000D02*
X22770000Y-18200000D01*
X22770000Y-17730000D02*
X22300000Y-17730000D01*
D14*
X20675000Y-20500000D02*
G75*
G03*
X20675000Y-20500000I-75000J0D01*
G01*
D15*
%TO.C,J4*%
X33350000Y-41002000D02*
G75*
G03*
X33350000Y-41002000I-100000J0D01*
G01*
D13*
X33700000Y-37025000D02*
X31300000Y-37025000D01*
X30650000Y-40625000D02*
X30650000Y-37025000D01*
X34350000Y-40625000D02*
X30650000Y-40625000D01*
X34350000Y-37025000D02*
X34350000Y-40625000D01*
D12*
%TO.C,R16*%
X14546267Y-21240000D02*
X14203733Y-21240000D01*
X14546267Y-22260000D02*
X14203733Y-22260000D01*
%TO.C,R15*%
X14546267Y-22740000D02*
X14203733Y-22740000D01*
X14546267Y-23760000D02*
X14203733Y-23760000D01*
%TO.C,R14*%
X23953733Y-37510000D02*
X24296267Y-37510000D01*
X23953733Y-36490000D02*
X24296267Y-36490000D01*
%TO.C,R13*%
X27504733Y-37510000D02*
X27847267Y-37510000D01*
X27504733Y-36490000D02*
X27847267Y-36490000D01*
%TO.C,R12*%
X27510000Y-39671267D02*
X27510000Y-39328733D01*
X26490000Y-39671267D02*
X26490000Y-39328733D01*
%TO.C,R11*%
X23010000Y-39671267D02*
X23010000Y-39328733D01*
X21990000Y-39671267D02*
X21990000Y-39328733D01*
%TO.C,R9*%
X27990000Y-39328733D02*
X27990000Y-39671267D01*
X29010000Y-39328733D02*
X29010000Y-39671267D01*
%TO.C,R6*%
X21797733Y-33510000D02*
X22140267Y-33510000D01*
X21797733Y-32490000D02*
X22140267Y-32490000D01*
%TO.C,R4*%
X24990000Y-39328733D02*
X24990000Y-39671267D01*
X26010000Y-39328733D02*
X26010000Y-39671267D01*
%TO.C,R3*%
X23490000Y-39328733D02*
X23490000Y-39671267D01*
X24510000Y-39328733D02*
X24510000Y-39671267D01*
%TO.C,C20*%
X28546267Y-41740000D02*
X28203733Y-41740000D01*
X28546267Y-42760000D02*
X28203733Y-42760000D01*
%TO.C,C10*%
X28260000Y-48296267D02*
X28260000Y-47953733D01*
X27240000Y-48296267D02*
X27240000Y-47953733D01*
%TO.C,C9*%
X23510000Y-15546267D02*
X23510000Y-15203733D01*
X22490000Y-15546267D02*
X22490000Y-15203733D01*
%TO.C,C7*%
X17453733Y-33760000D02*
X17796267Y-33760000D01*
X17453733Y-32740000D02*
X17796267Y-32740000D01*
%TO.C,C4*%
X16490000Y-35828733D02*
X16490000Y-36171267D01*
X17510000Y-35828733D02*
X17510000Y-36171267D01*
%TO.C,C3*%
X18046267Y-26490000D02*
X17703733Y-26490000D01*
X18046267Y-27510000D02*
X17703733Y-27510000D01*
%TO.C,C2*%
X16490000Y-24203733D02*
X16490000Y-24546267D01*
X17510000Y-24203733D02*
X17510000Y-24546267D01*
%TO.C,C1*%
X16240000Y-20953733D02*
X16240000Y-21296267D01*
X17260000Y-20953733D02*
X17260000Y-21296267D01*
D16*
%TO.C,P1*%
X21395000Y-37425000D02*
G75*
G03*
X21395000Y-37425000I-70000J0D01*
G01*
D17*
%TO.C,U6*%
X26807000Y-44500000D02*
G75*
G03*
X26807000Y-44500000I-125000J0D01*
G01*
D14*
X28925000Y-45925000D02*
X27075000Y-45925000D01*
X28925000Y-44075000D02*
X28925000Y-45925000D01*
X27075000Y-44075000D02*
X28925000Y-44075000D01*
X27075000Y-45925000D02*
X27075000Y-44075000D01*
D12*
%TO.C,J1*%
X32160000Y-18800000D02*
X32160000Y-20000000D01*
X25350000Y-13000000D02*
X25350000Y-14740000D01*
X33650000Y-13000000D02*
X25350000Y-13000000D01*
X33650000Y-14740000D02*
X33650000Y-13000000D01*
X25350000Y-18800000D02*
X25350000Y-17460000D01*
X26840000Y-18800000D02*
X25350000Y-18800000D01*
X33650000Y-18800000D02*
X33650000Y-17460000D01*
X32160000Y-18800000D02*
X33650000Y-18800000D01*
%TO.C,Q4*%
X14930000Y-24340000D02*
X13520000Y-24340000D01*
X13520000Y-26660000D02*
X15550000Y-26660000D01*
X13520000Y-26660000D02*
X13520000Y-26000000D01*
X13520000Y-25000000D02*
X13520000Y-24340000D01*
%TO.C,J2*%
X17030000Y-44080000D02*
X17030000Y-45880000D01*
X17030000Y-49590000D02*
X17030000Y-48130000D01*
X25970000Y-49590000D02*
X25970000Y-48130000D01*
X25970000Y-44080000D02*
X25970000Y-45880000D01*
X25970000Y-49590000D02*
X17030000Y-49590000D01*
D14*
%TO.C,SW4*%
X13775000Y-42175000D02*
X15375000Y-42175000D01*
X13775000Y-49325000D02*
X15375000Y-49325000D01*
X15375000Y-48675000D02*
X15375000Y-49325000D01*
X15375000Y-44475000D02*
X15375000Y-47025000D01*
X15375000Y-42175000D02*
X15375000Y-42825000D01*
D17*
X16220000Y-43650000D02*
G75*
G03*
X16220000Y-43650000I-125000J0D01*
G01*
D14*
%TO.C,SW2*%
X13775000Y-13175000D02*
X15375000Y-13175000D01*
X13775000Y-20325000D02*
X15375000Y-20325000D01*
X15375000Y-19675000D02*
X15375000Y-20325000D01*
X15375000Y-15475000D02*
X15375000Y-18025000D01*
X15375000Y-13175000D02*
X15375000Y-13825000D01*
D17*
X16220000Y-14650000D02*
G75*
G03*
X16220000Y-14650000I-125000J0D01*
G01*
D14*
%TO.C,SW1*%
X13775000Y-27675000D02*
X15375000Y-27675000D01*
X13775000Y-34825000D02*
X15375000Y-34825000D01*
X15375000Y-34175000D02*
X15375000Y-34825000D01*
X15375000Y-29975000D02*
X15375000Y-32525000D01*
X15375000Y-27675000D02*
X15375000Y-28325000D01*
D17*
X16220000Y-29150000D02*
G75*
G03*
X16220000Y-29150000I-125000J0D01*
G01*
D12*
%TO.C,Q3*%
X26590000Y-33229000D02*
X26590000Y-34639000D01*
X28910000Y-34639000D02*
X28910000Y-32609000D01*
X28910000Y-34639000D02*
X28250000Y-34639000D01*
X27250000Y-34639000D02*
X26590000Y-34639000D01*
%TO.C,Y1*%
X19550000Y-25150000D02*
X19550000Y-22300000D01*
X17950000Y-25150000D02*
X19550000Y-25150000D01*
X17950000Y-22300000D02*
X17950000Y-25150000D01*
%TO.C,U3*%
X30890000Y-41600000D02*
X30890000Y-44050000D01*
X34110000Y-43400000D02*
X34110000Y-41600000D01*
%TO.C,U2*%
X13700000Y-41060000D02*
X16150000Y-41060000D01*
X15500000Y-37840000D02*
X13700000Y-37840000D01*
%TO.C,SW_RESET1*%
X23936000Y-32380000D02*
X23836000Y-32380000D01*
X23936000Y-35620000D02*
X23836000Y-35620000D01*
X23836000Y-32380000D02*
X23836000Y-35620000D01*
X26076000Y-32380000D02*
X25976000Y-32380000D01*
X26076000Y-35620000D02*
X25976000Y-35620000D01*
X26076000Y-32380000D02*
X26076000Y-35620000D01*
%TO.C,L1*%
X14296267Y-36240000D02*
X13953733Y-36240000D01*
X14296267Y-37260000D02*
X13953733Y-37260000D01*
D18*
%TO.C,IC1*%
X35250000Y-21250000D02*
X35250000Y-31750000D01*
X35250000Y-31750000D02*
X19750000Y-31750000D01*
X19750000Y-31750000D02*
X19750000Y-21250000D01*
X19750000Y-21250000D02*
X35250000Y-21250000D01*
X31300000Y-20900000D02*
X31300000Y-20900000D01*
X31200000Y-20900000D02*
X31200000Y-20900000D01*
X31200000Y-20900000D02*
G75*
G02*
X31300000Y-20900000I50000J0D01*
G01*
X31300000Y-20900000D02*
G75*
G02*
X31200000Y-20900000I-50000J0D01*
G01*
D12*
%TO.C,D1*%
X18380000Y-41010000D02*
X20810000Y-41010000D01*
X18360000Y-41000000D02*
X18360000Y-40000000D01*
X18360000Y-37950000D02*
X20210000Y-37950000D01*
X18360000Y-39000000D02*
X18360000Y-37950000D01*
%TD*%
M02*
