%TF.GenerationSoftware,KiCad,Pcbnew,(5.99.0-2309-gaf729d578)*%
%TF.CreationDate,2020-08-23T06:16:54-04:00*%
%TF.ProjectId,mk2,6d6b322e-6b69-4636-9164-5f7063625858,rev?*%
%TF.SameCoordinates,Original*%
%TF.FileFunction,Legend,Bot*%
%TF.FilePolarity,Positive*%
%FSLAX46Y46*%
G04 Gerber Fmt 4.6, Leading zero omitted, Abs format (unit mm)*
G04 Created by KiCad (PCBNEW (5.99.0-2309-gaf729d578)) date 2020-08-23 06:16:54*
%MOMM*%
%LPD*%
G01*
G04 APERTURE LIST*
%ADD10C,0.125000*%
%ADD11C,0.187500*%
%ADD12C,0.150000*%
%ADD13C,0.200000*%
%ADD14C,0.120000*%
G04 APERTURE END LIST*
D10*
X33250000Y-45119047D02*
X33226190Y-45071428D01*
X33226190Y-45000000D01*
X33250000Y-44928571D01*
X33297619Y-44880952D01*
X33345238Y-44857142D01*
X33440476Y-44833333D01*
X33511904Y-44833333D01*
X33607142Y-44857142D01*
X33654761Y-44880952D01*
X33702380Y-44928571D01*
X33726190Y-45000000D01*
X33726190Y-45047619D01*
X33702380Y-45119047D01*
X33678571Y-45142857D01*
X33511904Y-45142857D01*
X33511904Y-45047619D01*
X33726190Y-45357142D02*
X33226190Y-45357142D01*
X33726190Y-45642857D01*
X33226190Y-45642857D01*
X33726190Y-45880952D02*
X33226190Y-45880952D01*
X33226190Y-46000000D01*
X33250000Y-46071428D01*
X33297619Y-46119047D01*
X33345238Y-46142857D01*
X33440476Y-46166666D01*
X33511904Y-46166666D01*
X33607142Y-46142857D01*
X33654761Y-46119047D01*
X33702380Y-46071428D01*
X33726190Y-46000000D01*
X33726190Y-45880952D01*
X31535714Y-44464285D02*
X31535714Y-44845238D01*
X31726190Y-44654761D02*
X31345238Y-44654761D01*
X31464285Y-45250000D02*
X31488095Y-45321428D01*
X31511904Y-45345238D01*
X31559523Y-45369047D01*
X31630952Y-45369047D01*
X31678571Y-45345238D01*
X31702380Y-45321428D01*
X31726190Y-45273809D01*
X31726190Y-45083333D01*
X31226190Y-45083333D01*
X31226190Y-45250000D01*
X31250000Y-45297619D01*
X31273809Y-45321428D01*
X31321428Y-45345238D01*
X31369047Y-45345238D01*
X31416666Y-45321428D01*
X31440476Y-45297619D01*
X31464285Y-45250000D01*
X31464285Y-45083333D01*
X31583333Y-45559523D02*
X31583333Y-45797619D01*
X31726190Y-45511904D02*
X31226190Y-45678571D01*
X31726190Y-45845238D01*
X31226190Y-45940476D02*
X31226190Y-46226190D01*
X31726190Y-46083333D02*
X31226190Y-46083333D01*
X31226190Y-46321428D02*
X31226190Y-46607142D01*
X31726190Y-46464285D02*
X31226190Y-46464285D01*
X16226190Y-14892857D02*
X15726190Y-14892857D01*
X15916666Y-14892857D02*
X15892857Y-14940476D01*
X15892857Y-15035714D01*
X15916666Y-15083333D01*
X15940476Y-15107142D01*
X15988095Y-15130952D01*
X16130952Y-15130952D01*
X16178571Y-15107142D01*
X16202380Y-15083333D01*
X16226190Y-15035714D01*
X16226190Y-14940476D01*
X16202380Y-14892857D01*
X15892857Y-15559523D02*
X16226190Y-15559523D01*
X15892857Y-15345238D02*
X16154761Y-15345238D01*
X16202380Y-15369047D01*
X16226190Y-15416666D01*
X16226190Y-15488095D01*
X16202380Y-15535714D01*
X16178571Y-15559523D01*
X15892857Y-15750000D02*
X15892857Y-16011904D01*
X16226190Y-15750000D01*
X16226190Y-16011904D01*
X15892857Y-16154761D02*
X15892857Y-16416666D01*
X16226190Y-16154761D01*
X16226190Y-16416666D01*
X16202380Y-16797619D02*
X16226190Y-16750000D01*
X16226190Y-16654761D01*
X16202380Y-16607142D01*
X16154761Y-16583333D01*
X15964285Y-16583333D01*
X15916666Y-16607142D01*
X15892857Y-16654761D01*
X15892857Y-16750000D01*
X15916666Y-16797619D01*
X15964285Y-16821428D01*
X16011904Y-16821428D01*
X16059523Y-16583333D01*
X16226190Y-17035714D02*
X15892857Y-17035714D01*
X15988095Y-17035714D02*
X15940476Y-17059523D01*
X15916666Y-17083333D01*
X15892857Y-17130952D01*
X15892857Y-17178571D01*
D11*
X32735535Y-34367410D02*
X33485535Y-34273660D01*
X32771250Y-34362946D02*
X32735535Y-34438839D01*
X32735535Y-34581696D01*
X32771250Y-34648660D01*
X32806964Y-34679910D01*
X32878392Y-34706696D01*
X33092678Y-34679910D01*
X33164107Y-34635267D01*
X33199821Y-34595089D01*
X33235535Y-34519196D01*
X33235535Y-34376339D01*
X33199821Y-34309375D01*
X33235535Y-34983482D02*
X32735535Y-35045982D01*
X32878392Y-35028125D02*
X32806964Y-35072767D01*
X32771250Y-35112946D01*
X32735535Y-35188839D01*
X32735535Y-35260267D01*
X33235535Y-35554910D02*
X33199821Y-35487946D01*
X33164107Y-35456696D01*
X33092678Y-35429910D01*
X32878392Y-35456696D01*
X32806964Y-35501339D01*
X32771250Y-35541517D01*
X32735535Y-35617410D01*
X32735535Y-35724553D01*
X32771250Y-35791517D01*
X32806964Y-35822767D01*
X32878392Y-35849553D01*
X33092678Y-35822767D01*
X33164107Y-35778125D01*
X33199821Y-35737946D01*
X33235535Y-35662053D01*
X33235535Y-35554910D01*
X32735535Y-36510267D02*
X33235535Y-36447767D01*
X32735535Y-36188839D02*
X33128392Y-36139732D01*
X33199821Y-36166517D01*
X33235535Y-36233482D01*
X33235535Y-36340625D01*
X33199821Y-36416517D01*
X33164107Y-36456696D01*
X33235535Y-37126339D02*
X32485535Y-37220089D01*
X33199821Y-37130803D02*
X33235535Y-37054910D01*
X33235535Y-36912053D01*
X33199821Y-36845089D01*
X33164107Y-36813839D01*
X33092678Y-36787053D01*
X32878392Y-36813839D01*
X32806964Y-36858482D01*
X32771250Y-36898660D01*
X32735535Y-36974553D01*
X32735535Y-37117410D01*
X32771250Y-37184375D01*
X33235535Y-37590625D02*
X33199821Y-37523660D01*
X33128392Y-37496875D01*
X32485535Y-37577232D01*
X32735535Y-37867410D02*
X33235535Y-37983482D01*
X32735535Y-38224553D02*
X33235535Y-37983482D01*
X33414107Y-37889732D01*
X33449821Y-37849553D01*
X33485535Y-37773660D01*
X33235535Y-39340625D02*
X32485535Y-39434375D01*
X33199821Y-39345089D02*
X33235535Y-39269196D01*
X33235535Y-39126339D01*
X33199821Y-39059375D01*
X33164107Y-39028125D01*
X33092678Y-39001339D01*
X32878392Y-39028125D01*
X32806964Y-39072767D01*
X32771250Y-39112946D01*
X32735535Y-39188839D01*
X32735535Y-39331696D01*
X32771250Y-39398660D01*
X33199821Y-39987946D02*
X33235535Y-39912053D01*
X33235535Y-39769196D01*
X33199821Y-39702232D01*
X33128392Y-39675446D01*
X32842678Y-39711160D01*
X32771250Y-39755803D01*
X32735535Y-39831696D01*
X32735535Y-39974553D01*
X32771250Y-40041517D01*
X32842678Y-40068303D01*
X32914107Y-40059375D01*
X32985535Y-39693303D01*
X33199821Y-40309375D02*
X33235535Y-40376339D01*
X33235535Y-40519196D01*
X33199821Y-40595089D01*
X33128392Y-40639732D01*
X33092678Y-40644196D01*
X33021250Y-40617410D01*
X32985535Y-40550446D01*
X32985535Y-40443303D01*
X32949821Y-40376339D01*
X32878392Y-40349553D01*
X32842678Y-40354017D01*
X32771250Y-40398660D01*
X32735535Y-40474553D01*
X32735535Y-40581696D01*
X32771250Y-40648660D01*
X33235535Y-40947767D02*
X32735535Y-41010267D01*
X32485535Y-41041517D02*
X32521250Y-41001339D01*
X32556964Y-41032589D01*
X32521250Y-41072767D01*
X32485535Y-41041517D01*
X32556964Y-41032589D01*
X32735535Y-41688839D02*
X33342678Y-41612946D01*
X33414107Y-41568303D01*
X33449821Y-41528125D01*
X33485535Y-41452232D01*
X33485535Y-41345089D01*
X33449821Y-41278125D01*
X33199821Y-41630803D02*
X33235535Y-41554910D01*
X33235535Y-41412053D01*
X33199821Y-41345089D01*
X33164107Y-41313839D01*
X33092678Y-41287053D01*
X32878392Y-41313839D01*
X32806964Y-41358482D01*
X32771250Y-41398660D01*
X32735535Y-41474553D01*
X32735535Y-41617410D01*
X32771250Y-41684375D01*
X32735535Y-42045982D02*
X33235535Y-41983482D01*
X32806964Y-42037053D02*
X32771250Y-42077232D01*
X32735535Y-42153125D01*
X32735535Y-42260267D01*
X32771250Y-42327232D01*
X32842678Y-42354017D01*
X33235535Y-42304910D01*
X33199821Y-42952232D02*
X33235535Y-42876339D01*
X33235535Y-42733482D01*
X33199821Y-42666517D01*
X33128392Y-42639732D01*
X32842678Y-42675446D01*
X32771250Y-42720089D01*
X32735535Y-42795982D01*
X32735535Y-42938839D01*
X32771250Y-43005803D01*
X32842678Y-43032589D01*
X32914107Y-43023660D01*
X32985535Y-42657589D01*
X33235535Y-43626339D02*
X32485535Y-43720089D01*
X33199821Y-43630803D02*
X33235535Y-43554910D01*
X33235535Y-43412053D01*
X33199821Y-43345089D01*
X33164107Y-43313839D01*
X33092678Y-43287053D01*
X32878392Y-43313839D01*
X32806964Y-43358482D01*
X32771250Y-43398660D01*
X32735535Y-43474553D01*
X32735535Y-43617410D01*
X32771250Y-43684375D01*
X34443035Y-34304910D02*
X33943035Y-34367410D01*
X33693035Y-34398660D02*
X33728750Y-34358482D01*
X33764464Y-34389732D01*
X33728750Y-34429910D01*
X33693035Y-34398660D01*
X33764464Y-34389732D01*
X33943035Y-34724553D02*
X34443035Y-34662053D01*
X34014464Y-34715625D02*
X33978750Y-34755803D01*
X33943035Y-34831696D01*
X33943035Y-34938839D01*
X33978750Y-35005803D01*
X34050178Y-35032589D01*
X34443035Y-34983482D01*
X34443035Y-35912053D02*
X33693035Y-36005803D01*
X33693035Y-36291517D01*
X33728750Y-36358482D01*
X33764464Y-36389732D01*
X33835892Y-36416517D01*
X33943035Y-36403125D01*
X34014464Y-36358482D01*
X34050178Y-36318303D01*
X34085892Y-36242410D01*
X34085892Y-35956696D01*
X34443035Y-36662053D02*
X33943035Y-36724553D01*
X33693035Y-36755803D02*
X33728750Y-36715625D01*
X33764464Y-36746875D01*
X33728750Y-36787053D01*
X33693035Y-36755803D01*
X33764464Y-36746875D01*
X33943035Y-36974553D02*
X33943035Y-37260267D01*
X33693035Y-37112946D02*
X34335892Y-37032589D01*
X34407321Y-37059375D01*
X34443035Y-37126339D01*
X34443035Y-37197767D01*
X33943035Y-37403125D02*
X33943035Y-37688839D01*
X33693035Y-37541517D02*
X34335892Y-37461160D01*
X34407321Y-37487946D01*
X34443035Y-37554910D01*
X34443035Y-37626339D01*
X34407321Y-37845089D02*
X34443035Y-37912053D01*
X34443035Y-38054910D01*
X34407321Y-38130803D01*
X34335892Y-38175446D01*
X34300178Y-38179910D01*
X34228750Y-38153125D01*
X34193035Y-38086160D01*
X34193035Y-37979017D01*
X34157321Y-37912053D01*
X34085892Y-37885267D01*
X34050178Y-37889732D01*
X33978750Y-37934375D01*
X33943035Y-38010267D01*
X33943035Y-38117410D01*
X33978750Y-38184375D01*
X34443035Y-38483482D02*
X33693035Y-38577232D01*
X33978750Y-38541517D02*
X33943035Y-38617410D01*
X33943035Y-38760267D01*
X33978750Y-38827232D01*
X34014464Y-38858482D01*
X34085892Y-38885267D01*
X34300178Y-38858482D01*
X34371607Y-38813839D01*
X34407321Y-38773660D01*
X34443035Y-38697767D01*
X34443035Y-38554910D01*
X34407321Y-38487946D01*
X33943035Y-39545982D02*
X34443035Y-39483482D01*
X33943035Y-39224553D02*
X34335892Y-39175446D01*
X34407321Y-39202232D01*
X34443035Y-39269196D01*
X34443035Y-39376339D01*
X34407321Y-39452232D01*
X34371607Y-39492410D01*
X34443035Y-39840625D02*
X33943035Y-39903125D01*
X34085892Y-39885267D02*
X34014464Y-39929910D01*
X33978750Y-39970089D01*
X33943035Y-40045982D01*
X33943035Y-40117410D01*
X33943035Y-40688839D02*
X34550178Y-40612946D01*
X34621607Y-40568303D01*
X34657321Y-40528125D01*
X34693035Y-40452232D01*
X34693035Y-40345089D01*
X34657321Y-40278125D01*
X34407321Y-40630803D02*
X34443035Y-40554910D01*
X34443035Y-40412053D01*
X34407321Y-40345089D01*
X34371607Y-40313839D01*
X34300178Y-40287053D01*
X34085892Y-40313839D01*
X34014464Y-40358482D01*
X33978750Y-40398660D01*
X33943035Y-40474553D01*
X33943035Y-40617410D01*
X33978750Y-40684375D01*
X34443035Y-40983482D02*
X33693035Y-41077232D01*
X34443035Y-41304910D02*
X34050178Y-41354017D01*
X33978750Y-41327232D01*
X33943035Y-41260267D01*
X33943035Y-41153125D01*
X33978750Y-41077232D01*
X34014464Y-41037053D01*
X34407321Y-41702232D02*
X34443035Y-41697767D01*
X34514464Y-41653125D01*
X34550178Y-41612946D01*
X34443035Y-42590625D02*
X33693035Y-42684375D01*
X33693035Y-42970089D01*
X33728750Y-43037053D01*
X33764464Y-43068303D01*
X33835892Y-43095089D01*
X33943035Y-43081696D01*
X34014464Y-43037053D01*
X34050178Y-42996875D01*
X34085892Y-42920982D01*
X34085892Y-42635267D01*
X34228750Y-43331696D02*
X34228750Y-43688839D01*
X34443035Y-43233482D02*
X33693035Y-43577232D01*
X34443035Y-43733482D01*
D12*
X28598761Y-28233952D02*
X28646380Y-28376809D01*
X28646380Y-28614904D01*
X28598761Y-28710142D01*
X28551142Y-28757761D01*
X28455904Y-28805380D01*
X28360666Y-28805380D01*
X28265428Y-28757761D01*
X28217809Y-28710142D01*
X28170190Y-28614904D01*
X28122571Y-28424428D01*
X28074952Y-28329190D01*
X28027333Y-28281571D01*
X27932095Y-28233952D01*
X27836857Y-28233952D01*
X27741619Y-28281571D01*
X27694000Y-28329190D01*
X27646380Y-28424428D01*
X27646380Y-28662523D01*
X27694000Y-28805380D01*
X27646380Y-29138714D02*
X28646380Y-29376809D01*
X27932095Y-29567285D01*
X28646380Y-29757761D01*
X27646380Y-29995857D01*
X28646380Y-30376809D02*
X27646380Y-30376809D01*
X27646380Y-30614904D01*
X27694000Y-30757761D01*
X27789238Y-30853000D01*
X27884476Y-30900619D01*
X28074952Y-30948238D01*
X28217809Y-30948238D01*
X28408285Y-30900619D01*
X28503523Y-30853000D01*
X28598761Y-30757761D01*
X28646380Y-30614904D01*
X28646380Y-30376809D01*
X28646380Y-31376809D02*
X27646380Y-31376809D01*
X27646380Y-32043476D02*
X27646380Y-32233952D01*
X27694000Y-32329190D01*
X27789238Y-32424428D01*
X27979714Y-32472047D01*
X28313047Y-32472047D01*
X28503523Y-32424428D01*
X28598761Y-32329190D01*
X28646380Y-32233952D01*
X28646380Y-32043476D01*
X28598761Y-31948238D01*
X28503523Y-31853000D01*
X28313047Y-31805380D01*
X27979714Y-31805380D01*
X27789238Y-31853000D01*
X27694000Y-31948238D01*
X27646380Y-32043476D01*
X31011761Y-28353095D02*
X31059380Y-28495952D01*
X31059380Y-28734047D01*
X31011761Y-28829285D01*
X30964142Y-28876904D01*
X30868904Y-28924523D01*
X30773666Y-28924523D01*
X30678428Y-28876904D01*
X30630809Y-28829285D01*
X30583190Y-28734047D01*
X30535571Y-28543571D01*
X30487952Y-28448333D01*
X30440333Y-28400714D01*
X30345095Y-28353095D01*
X30249857Y-28353095D01*
X30154619Y-28400714D01*
X30107000Y-28448333D01*
X30059380Y-28543571D01*
X30059380Y-28781666D01*
X30107000Y-28924523D01*
X30059380Y-29257857D02*
X31059380Y-29495952D01*
X30345095Y-29686428D01*
X31059380Y-29876904D01*
X30059380Y-30115000D01*
X31059380Y-30495952D02*
X30059380Y-30495952D01*
X30059380Y-30734047D01*
X30107000Y-30876904D01*
X30202238Y-30972142D01*
X30297476Y-31019761D01*
X30487952Y-31067380D01*
X30630809Y-31067380D01*
X30821285Y-31019761D01*
X30916523Y-30972142D01*
X31011761Y-30876904D01*
X31059380Y-30734047D01*
X31059380Y-30495952D01*
X30964142Y-32067380D02*
X31011761Y-32019761D01*
X31059380Y-31876904D01*
X31059380Y-31781666D01*
X31011761Y-31638809D01*
X30916523Y-31543571D01*
X30821285Y-31495952D01*
X30630809Y-31448333D01*
X30487952Y-31448333D01*
X30297476Y-31495952D01*
X30202238Y-31543571D01*
X30107000Y-31638809D01*
X30059380Y-31781666D01*
X30059380Y-31876904D01*
X30107000Y-32019761D01*
X30154619Y-32067380D01*
X31059380Y-32972142D02*
X31059380Y-32495952D01*
X30059380Y-32495952D01*
X31059380Y-33305476D02*
X30059380Y-33305476D01*
X31059380Y-33876904D02*
X30487952Y-33448333D01*
X30059380Y-33876904D02*
X30630809Y-33305476D01*
X23511904Y-13250000D02*
X23607142Y-13202380D01*
X23750000Y-13202380D01*
X23892857Y-13250000D01*
X23988095Y-13345238D01*
X24035714Y-13440476D01*
X24083333Y-13630952D01*
X24083333Y-13773809D01*
X24035714Y-13964285D01*
X23988095Y-14059523D01*
X23892857Y-14154761D01*
X23750000Y-14202380D01*
X23654761Y-14202380D01*
X23511904Y-14154761D01*
X23464285Y-14107142D01*
X23464285Y-13773809D01*
X23654761Y-13773809D01*
X23035714Y-14202380D02*
X23035714Y-13202380D01*
X22464285Y-14202380D01*
X22464285Y-13202380D01*
X21988095Y-14202380D02*
X21988095Y-13202380D01*
X21750000Y-13202380D01*
X21607142Y-13250000D01*
X21511904Y-13345238D01*
X21464285Y-13440476D01*
X21416666Y-13630952D01*
X21416666Y-13773809D01*
X21464285Y-13964285D01*
X21511904Y-14059523D01*
X21607142Y-14154761D01*
X21750000Y-14202380D01*
X21988095Y-14202380D01*
X25702380Y-16071428D02*
X24940476Y-16071428D01*
X25321428Y-16452380D02*
X25321428Y-15690476D01*
X24511904Y-15547619D02*
X24464285Y-15500000D01*
X24369047Y-15452380D01*
X24130952Y-15452380D01*
X24035714Y-15500000D01*
X23988095Y-15547619D01*
X23940476Y-15642857D01*
X23940476Y-15738095D01*
X23988095Y-15880952D01*
X24559523Y-16452380D01*
X23940476Y-16452380D01*
X23511904Y-16357142D02*
X23464285Y-16404761D01*
X23511904Y-16452380D01*
X23559523Y-16404761D01*
X23511904Y-16357142D01*
X23511904Y-16452380D01*
X22892857Y-15880952D02*
X22988095Y-15833333D01*
X23035714Y-15785714D01*
X23083333Y-15690476D01*
X23083333Y-15642857D01*
X23035714Y-15547619D01*
X22988095Y-15500000D01*
X22892857Y-15452380D01*
X22702380Y-15452380D01*
X22607142Y-15500000D01*
X22559523Y-15547619D01*
X22511904Y-15642857D01*
X22511904Y-15690476D01*
X22559523Y-15785714D01*
X22607142Y-15833333D01*
X22702380Y-15880952D01*
X22892857Y-15880952D01*
X22988095Y-15928571D01*
X23035714Y-15976190D01*
X23083333Y-16071428D01*
X23083333Y-16261904D01*
X23035714Y-16357142D01*
X22988095Y-16404761D01*
X22892857Y-16452380D01*
X22702380Y-16452380D01*
X22607142Y-16404761D01*
X22559523Y-16357142D01*
X22511904Y-16261904D01*
X22511904Y-16071428D01*
X22559523Y-15976190D01*
X22607142Y-15928571D01*
X22702380Y-15880952D01*
X22178571Y-15785714D02*
X21940476Y-16452380D01*
X21702380Y-15785714D01*
D11*
X31131785Y-13300446D02*
X31631785Y-13300446D01*
X31203214Y-13300446D02*
X31167500Y-13336160D01*
X31131785Y-13407589D01*
X31131785Y-13514732D01*
X31167500Y-13586160D01*
X31238928Y-13621875D01*
X31631785Y-13621875D01*
X31631785Y-13979017D02*
X31131785Y-13979017D01*
X31274642Y-13979017D02*
X31203214Y-14014732D01*
X31167500Y-14050446D01*
X31131785Y-14121875D01*
X31131785Y-14193303D01*
X31131785Y-14336160D02*
X31131785Y-14621875D01*
X31631785Y-14443303D02*
X30988928Y-14443303D01*
X30917500Y-14479017D01*
X30881785Y-14550446D01*
X30881785Y-14621875D01*
X30881785Y-15229017D02*
X30881785Y-14871875D01*
X31238928Y-14836160D01*
X31203214Y-14871875D01*
X31167500Y-14943303D01*
X31167500Y-15121875D01*
X31203214Y-15193303D01*
X31238928Y-15229017D01*
X31310357Y-15264732D01*
X31488928Y-15264732D01*
X31560357Y-15229017D01*
X31596071Y-15193303D01*
X31631785Y-15121875D01*
X31631785Y-14943303D01*
X31596071Y-14871875D01*
X31560357Y-14836160D01*
X30953214Y-15550446D02*
X30917500Y-15586160D01*
X30881785Y-15657589D01*
X30881785Y-15836160D01*
X30917500Y-15907589D01*
X30953214Y-15943303D01*
X31024642Y-15979017D01*
X31096071Y-15979017D01*
X31203214Y-15943303D01*
X31631785Y-15514732D01*
X31631785Y-15979017D01*
X31346071Y-16300446D02*
X31346071Y-16871875D01*
X31131785Y-17157589D02*
X31631785Y-17300446D01*
X31274642Y-17443303D01*
X31631785Y-17586160D01*
X31131785Y-17729017D01*
X31631785Y-18336160D02*
X31238928Y-18336160D01*
X31167500Y-18300446D01*
X31131785Y-18229017D01*
X31131785Y-18086160D01*
X31167500Y-18014732D01*
X31596071Y-18336160D02*
X31631785Y-18264732D01*
X31631785Y-18086160D01*
X31596071Y-18014732D01*
X31524642Y-17979017D01*
X31453214Y-17979017D01*
X31381785Y-18014732D01*
X31346071Y-18086160D01*
X31346071Y-18264732D01*
X31310357Y-18336160D01*
X31131785Y-18586160D02*
X31131785Y-18871875D01*
X30881785Y-18693303D02*
X31524642Y-18693303D01*
X31596071Y-18729017D01*
X31631785Y-18800446D01*
X31631785Y-18871875D01*
X31596071Y-19443303D02*
X31631785Y-19371875D01*
X31631785Y-19229017D01*
X31596071Y-19157589D01*
X31560357Y-19121875D01*
X31488928Y-19086160D01*
X31274642Y-19086160D01*
X31203214Y-19121875D01*
X31167500Y-19157589D01*
X31131785Y-19229017D01*
X31131785Y-19371875D01*
X31167500Y-19443303D01*
X31631785Y-19764732D02*
X30881785Y-19764732D01*
X31631785Y-20086160D02*
X31238928Y-20086160D01*
X31167500Y-20050446D01*
X31131785Y-19979017D01*
X31131785Y-19871875D01*
X31167500Y-19800446D01*
X31203214Y-19764732D01*
X32839285Y-13300446D02*
X32339285Y-13300446D01*
X32482142Y-13300446D02*
X32410714Y-13336160D01*
X32375000Y-13371875D01*
X32339285Y-13443303D01*
X32339285Y-13514732D01*
X32803571Y-14050446D02*
X32839285Y-13979017D01*
X32839285Y-13836160D01*
X32803571Y-13764732D01*
X32732142Y-13729017D01*
X32446428Y-13729017D01*
X32375000Y-13764732D01*
X32339285Y-13836160D01*
X32339285Y-13979017D01*
X32375000Y-14050446D01*
X32446428Y-14086160D01*
X32517857Y-14086160D01*
X32589285Y-13729017D01*
X32339285Y-14336160D02*
X32839285Y-14514732D01*
X32339285Y-14693303D01*
X32767857Y-14979017D02*
X32803571Y-15014732D01*
X32839285Y-14979017D01*
X32803571Y-14943303D01*
X32767857Y-14979017D01*
X32839285Y-14979017D01*
X32089285Y-15264732D02*
X32089285Y-15729017D01*
X32375000Y-15479017D01*
X32375000Y-15586160D01*
X32410714Y-15657589D01*
X32446428Y-15693303D01*
X32517857Y-15729017D01*
X32696428Y-15729017D01*
X32767857Y-15693303D01*
X32803571Y-15657589D01*
X32839285Y-15586160D01*
X32839285Y-15371875D01*
X32803571Y-15300446D01*
X32767857Y-15264732D01*
X32767857Y-16050446D02*
X32803571Y-16086160D01*
X32839285Y-16050446D01*
X32803571Y-16014732D01*
X32767857Y-16050446D01*
X32839285Y-16050446D01*
X32839285Y-16800446D02*
X32839285Y-16371875D01*
X32839285Y-16586160D02*
X32089285Y-16586160D01*
X32196428Y-16514732D01*
X32267857Y-16443303D01*
X32303571Y-16371875D01*
X33832500Y-13264732D02*
X33832500Y-13621875D01*
X34046785Y-13193303D02*
X33296785Y-13443303D01*
X34046785Y-13693303D01*
X33546785Y-14264732D02*
X34046785Y-14264732D01*
X33546785Y-13943303D02*
X33939642Y-13943303D01*
X34011071Y-13979017D01*
X34046785Y-14050446D01*
X34046785Y-14157589D01*
X34011071Y-14229017D01*
X33975357Y-14264732D01*
X33546785Y-14943303D02*
X34153928Y-14943303D01*
X34225357Y-14907589D01*
X34261071Y-14871875D01*
X34296785Y-14800446D01*
X34296785Y-14693303D01*
X34261071Y-14621875D01*
X34011071Y-14943303D02*
X34046785Y-14871875D01*
X34046785Y-14729017D01*
X34011071Y-14657589D01*
X33975357Y-14621875D01*
X33903928Y-14586160D01*
X33689642Y-14586160D01*
X33618214Y-14621875D01*
X33582500Y-14657589D01*
X33546785Y-14729017D01*
X33546785Y-14871875D01*
X33582500Y-14943303D01*
X33546785Y-15621875D02*
X34046785Y-15621875D01*
X33546785Y-15300446D02*
X33939642Y-15300446D01*
X34011071Y-15336160D01*
X34046785Y-15407589D01*
X34046785Y-15514732D01*
X34011071Y-15586160D01*
X33975357Y-15621875D01*
X34011071Y-15943303D02*
X34046785Y-16014732D01*
X34046785Y-16157589D01*
X34011071Y-16229017D01*
X33939642Y-16264732D01*
X33903928Y-16264732D01*
X33832500Y-16229017D01*
X33796785Y-16157589D01*
X33796785Y-16050446D01*
X33761071Y-15979017D01*
X33689642Y-15943303D01*
X33653928Y-15943303D01*
X33582500Y-15979017D01*
X33546785Y-16050446D01*
X33546785Y-16157589D01*
X33582500Y-16229017D01*
X33546785Y-16479017D02*
X33546785Y-16764732D01*
X33296785Y-16586160D02*
X33939642Y-16586160D01*
X34011071Y-16621874D01*
X34046785Y-16693303D01*
X34046785Y-16764732D01*
X33368214Y-17550446D02*
X33332500Y-17586160D01*
X33296785Y-17657589D01*
X33296785Y-17836160D01*
X33332500Y-17907589D01*
X33368214Y-17943303D01*
X33439642Y-17979017D01*
X33511071Y-17979017D01*
X33618214Y-17943303D01*
X34046785Y-17514732D01*
X34046785Y-17979017D01*
X33296785Y-18443303D02*
X33296785Y-18514732D01*
X33332500Y-18586160D01*
X33368214Y-18621874D01*
X33439642Y-18657589D01*
X33582500Y-18693303D01*
X33761071Y-18693303D01*
X33903928Y-18657589D01*
X33975357Y-18621874D01*
X34011071Y-18586160D01*
X34046785Y-18514732D01*
X34046785Y-18443303D01*
X34011071Y-18371874D01*
X33975357Y-18336160D01*
X33903928Y-18300446D01*
X33761071Y-18264732D01*
X33582500Y-18264732D01*
X33439642Y-18300446D01*
X33368214Y-18336160D01*
X33332500Y-18371874D01*
X33296785Y-18443303D01*
X33368214Y-18979017D02*
X33332500Y-19014732D01*
X33296785Y-19086160D01*
X33296785Y-19264732D01*
X33332500Y-19336160D01*
X33368214Y-19371874D01*
X33439642Y-19407589D01*
X33511071Y-19407589D01*
X33618214Y-19371874D01*
X34046785Y-18943303D01*
X34046785Y-19407589D01*
X33296785Y-19871874D02*
X33296785Y-19943303D01*
X33332500Y-20014732D01*
X33368214Y-20050446D01*
X33439642Y-20086160D01*
X33582500Y-20121874D01*
X33761071Y-20121874D01*
X33903928Y-20086160D01*
X33975357Y-20050446D01*
X34011071Y-20014732D01*
X34046785Y-19943303D01*
X34046785Y-19871874D01*
X34011071Y-19800446D01*
X33975357Y-19764732D01*
X33903928Y-19729017D01*
X33761071Y-19693303D01*
X33582500Y-19693303D01*
X33439642Y-19729017D01*
X33368214Y-19764732D01*
X33332500Y-19800446D01*
X33296785Y-19871874D01*
D13*
X19815071Y-25537491D02*
X20886500Y-25403562D01*
X21100785Y-25305348D01*
X21243642Y-25144633D01*
X21315071Y-24921419D01*
X21315071Y-24778562D01*
X21243642Y-26644633D02*
X21315071Y-26492848D01*
X21315071Y-26207133D01*
X21243642Y-26073205D01*
X21100785Y-26019633D01*
X20529357Y-26091062D01*
X20386500Y-26180348D01*
X20315071Y-26332133D01*
X20315071Y-26617848D01*
X20386500Y-26751776D01*
X20529357Y-26805348D01*
X20672214Y-26787491D01*
X20815071Y-26055348D01*
X20315071Y-27260705D02*
X20315071Y-27832133D01*
X21315071Y-27349991D02*
X20029357Y-27510705D01*
X19886500Y-27599991D01*
X19815071Y-27751776D01*
X19815071Y-27894633D01*
X20315071Y-28117848D02*
X20315071Y-28689276D01*
X21315071Y-28207133D02*
X20029357Y-28367848D01*
X19886500Y-28457133D01*
X19815071Y-28608919D01*
X19815071Y-28751776D01*
X21172214Y-31082133D02*
X21243642Y-31001776D01*
X21315071Y-30778562D01*
X21315071Y-30635705D01*
X21243642Y-30430348D01*
X21100785Y-30305348D01*
X20957928Y-30251776D01*
X20672214Y-30216062D01*
X20457928Y-30242848D01*
X20172214Y-30349991D01*
X20029357Y-30439276D01*
X19886500Y-30599991D01*
X19815071Y-30823205D01*
X19815071Y-30966062D01*
X19886500Y-31171419D01*
X19957928Y-31233919D01*
X21315071Y-31921419D02*
X21243642Y-31787491D01*
X21172214Y-31724991D01*
X21029357Y-31671419D01*
X20600785Y-31724991D01*
X20457928Y-31814276D01*
X20386500Y-31894633D01*
X20315071Y-32046419D01*
X20315071Y-32260705D01*
X20386500Y-32394633D01*
X20457928Y-32457133D01*
X20600785Y-32510705D01*
X21029357Y-32457133D01*
X21172214Y-32367848D01*
X21243642Y-32287491D01*
X21315071Y-32135705D01*
X21315071Y-31921419D01*
X21315071Y-33278562D02*
X21243642Y-33144633D01*
X21172214Y-33082133D01*
X21029357Y-33028562D01*
X20600785Y-33082133D01*
X20457928Y-33171419D01*
X20386500Y-33251776D01*
X20315071Y-33403562D01*
X20315071Y-33617848D01*
X20386500Y-33751776D01*
X20457928Y-33814276D01*
X20600785Y-33867848D01*
X21029357Y-33814276D01*
X21172214Y-33724991D01*
X21243642Y-33644633D01*
X21315071Y-33492848D01*
X21315071Y-33278562D01*
X20315071Y-34546419D02*
X21815071Y-34358919D01*
X20386500Y-34537491D02*
X20315071Y-34689276D01*
X20315071Y-34974991D01*
X20386500Y-35108919D01*
X20457928Y-35171419D01*
X20600785Y-35224991D01*
X21029357Y-35171419D01*
X21172214Y-35082133D01*
X21243642Y-35001776D01*
X21315071Y-34849991D01*
X21315071Y-34564276D01*
X21243642Y-34430348D01*
X21243642Y-36358919D02*
X21315071Y-36207133D01*
X21315071Y-35921419D01*
X21243642Y-35787491D01*
X21100785Y-35733919D01*
X20529357Y-35805348D01*
X20386500Y-35894633D01*
X20315071Y-36046419D01*
X20315071Y-36332133D01*
X20386500Y-36466062D01*
X20529357Y-36519633D01*
X20672214Y-36501776D01*
X20815071Y-35769633D01*
X21315071Y-37064276D02*
X20315071Y-37189276D01*
X20600785Y-37153562D02*
X20457928Y-37242848D01*
X20386500Y-37323205D01*
X20315071Y-37474991D01*
X20315071Y-37617848D01*
X22730071Y-18689276D02*
X24015785Y-18528562D01*
X24158642Y-18439276D01*
X24230071Y-18287491D01*
X24230071Y-18216062D01*
X22230071Y-18751776D02*
X22301500Y-18671419D01*
X22372928Y-18733919D01*
X22301500Y-18814276D01*
X22230071Y-18751776D01*
X22372928Y-18733919D01*
X23658642Y-19858919D02*
X23730071Y-19707133D01*
X23730071Y-19421419D01*
X23658642Y-19287491D01*
X23515785Y-19233919D01*
X22944357Y-19305348D01*
X22801500Y-19394633D01*
X22730071Y-19546419D01*
X22730071Y-19832133D01*
X22801500Y-19966062D01*
X22944357Y-20019633D01*
X23087214Y-20001776D01*
X23230071Y-19269633D01*
X22730071Y-20474991D02*
X22730071Y-21046419D01*
X23730071Y-20564276D02*
X22444357Y-20724991D01*
X22301500Y-20814276D01*
X22230071Y-20966062D01*
X22230071Y-21108919D01*
X22730071Y-21332133D02*
X22730071Y-21903562D01*
X23730071Y-21421419D02*
X22444357Y-21582133D01*
X22301500Y-21671419D01*
X22230071Y-21823205D01*
X22230071Y-21966062D01*
X23015785Y-23296419D02*
X22944357Y-23233919D01*
X22872928Y-23099991D01*
X22872928Y-22957133D01*
X22944357Y-22805348D01*
X23015785Y-22724991D01*
X23158642Y-22635705D01*
X23301500Y-22617848D01*
X23444357Y-22671419D01*
X23515785Y-22733919D01*
X23587214Y-22867848D01*
X23587214Y-23010705D01*
X23515785Y-23162491D01*
X23444357Y-23242848D01*
X22872928Y-23314276D02*
X23444357Y-23242848D01*
X23515785Y-23305348D01*
X23515785Y-23376776D01*
X23444357Y-23528562D01*
X23301500Y-23617848D01*
X22944357Y-23662491D01*
X22730071Y-23546419D01*
X22587214Y-23349991D01*
X22515785Y-23073205D01*
X22587214Y-22778562D01*
X22730071Y-22546419D01*
X22944357Y-22376776D01*
X23230071Y-22269633D01*
X23515785Y-22305348D01*
X23730071Y-22421419D01*
X23872928Y-22617848D01*
X23944357Y-22894633D01*
X23872928Y-23189276D01*
X23730071Y-23421419D01*
X22730071Y-24117848D02*
X22730071Y-24689276D01*
X22230071Y-24394633D02*
X23515785Y-24233919D01*
X23658642Y-24287491D01*
X23730071Y-24421419D01*
X23730071Y-24564276D01*
X23730071Y-25064276D02*
X22230071Y-25251776D01*
X23730071Y-25707133D02*
X22944357Y-25805348D01*
X22801500Y-25751776D01*
X22730071Y-25617848D01*
X22730071Y-25403562D01*
X22801500Y-25251776D01*
X22872928Y-25171419D01*
X23658642Y-27001776D02*
X23730071Y-26849991D01*
X23730071Y-26564276D01*
X23658642Y-26430348D01*
X23515785Y-26376776D01*
X22944357Y-26448205D01*
X22801500Y-26537491D01*
X22730071Y-26689276D01*
X22730071Y-26974991D01*
X22801500Y-27108919D01*
X22944357Y-27162491D01*
X23087214Y-27144633D01*
X23230071Y-26412491D01*
X22730071Y-27832133D02*
X24015785Y-27671419D01*
X24158642Y-27582133D01*
X24230071Y-27430348D01*
X24230071Y-27358919D01*
X22230071Y-27894633D02*
X22301500Y-27814276D01*
X22372928Y-27876776D01*
X22301500Y-27957133D01*
X22230071Y-27894633D01*
X22372928Y-27876776D01*
X23658642Y-29001776D02*
X23730071Y-28849991D01*
X23730071Y-28564276D01*
X23658642Y-28430348D01*
X23515785Y-28376776D01*
X22944357Y-28448205D01*
X22801500Y-28537491D01*
X22730071Y-28689276D01*
X22730071Y-28974991D01*
X22801500Y-29108919D01*
X22944357Y-29162491D01*
X23087214Y-29144633D01*
X23230071Y-28412491D01*
X22730071Y-29617848D02*
X22730071Y-30189276D01*
X23730071Y-29707133D02*
X22444357Y-29867848D01*
X22301500Y-29957133D01*
X22230071Y-30108919D01*
X22230071Y-30251776D01*
X22730071Y-30474991D02*
X22730071Y-31046419D01*
X23730071Y-30564276D02*
X22444357Y-30724991D01*
X22301500Y-30814276D01*
X22230071Y-30966062D01*
X22230071Y-31108919D01*
X23658642Y-32073205D02*
X23730071Y-31921419D01*
X23730071Y-31635705D01*
X23658642Y-31501776D01*
X23587214Y-31439276D01*
X23444357Y-31385705D01*
X23015785Y-31439276D01*
X22872928Y-31528562D01*
X22801500Y-31608919D01*
X22730071Y-31760705D01*
X22730071Y-32046419D01*
X22801500Y-32180348D01*
X23730071Y-32921419D02*
X23658642Y-32787491D01*
X23587214Y-32724991D01*
X23444357Y-32671419D01*
X23015785Y-32724991D01*
X22872928Y-32814276D01*
X22801500Y-32894633D01*
X22730071Y-33046419D01*
X22730071Y-33260705D01*
X22801500Y-33394633D01*
X22872928Y-33457133D01*
X23015785Y-33510705D01*
X23444357Y-33457133D01*
X23587214Y-33367848D01*
X23658642Y-33287491D01*
X23730071Y-33135705D01*
X23730071Y-32921419D01*
X23730071Y-34278562D02*
X23658642Y-34144633D01*
X23587214Y-34082133D01*
X23444357Y-34028562D01*
X23015785Y-34082133D01*
X22872928Y-34171419D01*
X22801500Y-34251776D01*
X22730071Y-34403562D01*
X22730071Y-34617848D01*
X22801500Y-34751776D01*
X22872928Y-34814276D01*
X23015785Y-34867848D01*
X23444357Y-34814276D01*
X23587214Y-34724991D01*
X23658642Y-34644633D01*
X23730071Y-34492848D01*
X23730071Y-34278562D01*
X22730071Y-35546419D02*
X24230071Y-35358919D01*
X22801500Y-35537491D02*
X22730071Y-35689276D01*
X22730071Y-35974991D01*
X22801500Y-36108919D01*
X22872928Y-36171419D01*
X23015785Y-36224991D01*
X23444357Y-36171419D01*
X23587214Y-36082133D01*
X23658642Y-36001776D01*
X23730071Y-35849991D01*
X23730071Y-35564276D01*
X23658642Y-35430348D01*
X23658642Y-37358919D02*
X23730071Y-37207133D01*
X23730071Y-36921419D01*
X23658642Y-36787491D01*
X23515785Y-36733919D01*
X22944357Y-36805348D01*
X22801500Y-36894633D01*
X22730071Y-37046419D01*
X22730071Y-37332133D01*
X22801500Y-37466062D01*
X22944357Y-37519633D01*
X23087214Y-37501776D01*
X23230071Y-36769633D01*
X23730071Y-38064276D02*
X22730071Y-38189276D01*
X23015785Y-38153562D02*
X22872928Y-38242848D01*
X22801500Y-38323205D01*
X22730071Y-38474991D01*
X22730071Y-38617848D01*
X23587214Y-39010705D02*
X23658642Y-39073205D01*
X23730071Y-38992848D01*
X23658642Y-38930348D01*
X23587214Y-39010705D01*
X23730071Y-38992848D01*
X23658642Y-40358919D02*
X23730071Y-40207133D01*
X23730071Y-39921419D01*
X23658642Y-39787491D01*
X23587214Y-39724991D01*
X23444357Y-39671419D01*
X23015785Y-39724991D01*
X22872928Y-39814276D01*
X22801500Y-39894633D01*
X22730071Y-40046419D01*
X22730071Y-40332133D01*
X22801500Y-40466062D01*
X23730071Y-41207133D02*
X23658642Y-41073205D01*
X23587214Y-41010705D01*
X23444357Y-40957133D01*
X23015785Y-41010705D01*
X22872928Y-41099991D01*
X22801500Y-41180348D01*
X22730071Y-41332133D01*
X22730071Y-41546419D01*
X22801500Y-41680348D01*
X22872928Y-41742848D01*
X23015785Y-41796419D01*
X23444357Y-41742848D01*
X23587214Y-41653562D01*
X23658642Y-41573205D01*
X23730071Y-41421419D01*
X23730071Y-41207133D01*
X23730071Y-42349991D02*
X22730071Y-42474991D01*
X22872928Y-42457133D02*
X22801500Y-42537491D01*
X22730071Y-42689276D01*
X22730071Y-42903562D01*
X22801500Y-43037491D01*
X22944357Y-43091062D01*
X23730071Y-42992848D01*
X22944357Y-43091062D02*
X22801500Y-43180348D01*
X22730071Y-43332133D01*
X22730071Y-43546419D01*
X22801500Y-43680348D01*
X22944357Y-43733919D01*
X23730071Y-43635705D01*
D14*
%TO.C,TP4*%
X28950000Y-27015000D02*
G75*
G03*
X28950000Y-27015000I-700000J0D01*
G01*
%TO.C,TP3*%
X20950000Y-16000000D02*
G75*
G03*
X20950000Y-16000000I-700000J0D01*
G01*
%TO.C,TP1*%
X20950000Y-13750000D02*
G75*
G03*
X20950000Y-13750000I-700000J0D01*
G01*
%TO.C,TP2*%
X31200000Y-27015000D02*
G75*
G03*
X31200000Y-27015000I-700000J0D01*
G01*
%TD*%
M02*
