%TF.GenerationSoftware,KiCad,Pcbnew,(5.99.0-2309-gaf729d578)*%
%TF.CreationDate,2020-09-26T21:13:39-04:00*%
%TF.ProjectId,mk2,6d6b322e-6b69-4636-9164-5f7063625858,rev?*%
%TF.SameCoordinates,Original*%
%TF.FileFunction,Copper,L2,Bot*%
%TF.FilePolarity,Positive*%
%FSLAX46Y46*%
G04 Gerber Fmt 4.6, Leading zero omitted, Abs format (unit mm)*
G04 Created by KiCad (PCBNEW (5.99.0-2309-gaf729d578)) date 2020-09-26 21:13:39*
%MOMM*%
%LPD*%
G01*
G04 APERTURE LIST*
%TA.AperFunction,ComponentPad*%
%ADD10O,1.350000X1.350000*%
%TD*%
%TA.AperFunction,ComponentPad*%
%ADD11R,1.350000X1.350000*%
%TD*%
%TA.AperFunction,SMDPad,CuDef*%
%ADD12R,1.600000X0.500000*%
%TD*%
%TA.AperFunction,ComponentPad*%
%ADD13C,0.500000*%
%TD*%
%TA.AperFunction,SMDPad,CuDef*%
%ADD14C,1.000000*%
%TD*%
%TA.AperFunction,ComponentPad*%
%ADD15O,0.900000X1.700000*%
%TD*%
%TA.AperFunction,ComponentPad*%
%ADD16O,0.900000X2.000000*%
%TD*%
%TA.AperFunction,ViaPad*%
%ADD17C,0.500000*%
%TD*%
%TA.AperFunction,Conductor*%
%ADD18C,0.130000*%
%TD*%
%TA.AperFunction,Conductor*%
%ADD19C,0.254000*%
%TD*%
G04 APERTURE END LIST*
D10*
%TO.P,J6,2,Pin_2*%
%TO.N,USB_DP*%
X22500000Y-48000000D03*
D11*
%TO.P,J6,1,Pin_1*%
%TO.N,USB_DN*%
X20500000Y-48000000D03*
%TD*%
D12*
%TO.P,U1,7,EP*%
%TO.N,GND*%
X19750000Y-15500000D03*
D13*
X20300000Y-15500000D03*
X19200000Y-15500000D03*
%TD*%
D14*
%TO.P,TP6,1,1*%
%TO.N,+5V*%
X28250000Y-14750000D03*
%TD*%
%TO.P,TP5,1,1*%
%TO.N,VIN*%
X31750000Y-34000000D03*
%TD*%
D10*
%TO.P,J5,2,Pin_2*%
%TO.N,GND*%
X29500000Y-47750000D03*
D11*
%TO.P,J5,1,Pin_1*%
%TO.N,VUSB*%
X27500000Y-47750000D03*
%TD*%
D10*
%TO.P,J3,2,Pin_2*%
%TO.N,Net-(J3-Pad2)*%
X17250000Y-16250000D03*
D11*
%TO.P,J3,1,Pin_1*%
%TO.N,Net-(J3-Pad1)*%
X17250000Y-14250000D03*
%TD*%
D10*
%TO.P,BT1,2,-*%
%TO.N,GND*%
X34000000Y-47750000D03*
D11*
%TO.P,BT1,1,+*%
%TO.N,+BATT*%
X32000000Y-47750000D03*
%TD*%
D14*
%TO.P,TP4,1,1*%
%TO.N,SWDIO*%
X28750000Y-27500000D03*
%TD*%
%TO.P,TP3,1,1*%
%TO.N,VCC*%
X22750000Y-17000000D03*
%TD*%
%TO.P,TP1,1,1*%
%TO.N,GND*%
X29500000Y-24750000D03*
%TD*%
%TO.P,TP2,1,1*%
%TO.N,SWDCLK*%
X30500000Y-27015000D03*
%TD*%
D15*
%TO.P,J2,S1,SHIELD*%
%TO.N,GND*%
X25820000Y-46990000D03*
X17180000Y-46990000D03*
D16*
X25820000Y-42820000D03*
X17180000Y-42820000D03*
%TD*%
D17*
%TO.N,+BATT*%
X28250008Y-43772832D03*
%TO.N,VUSB*%
X28550338Y-43140525D03*
%TO.N,BATTPOW*%
X29135317Y-43423923D03*
%TO.N,GND*%
X18750000Y-16500000D03*
X20750000Y-17500000D03*
%TO.N,VIN*%
X19385832Y-17135832D03*
%TO.N,GND*%
X32750000Y-44750000D03*
%TO.N,VCC*%
X22750472Y-18265010D03*
%TO.N,GND*%
X19000000Y-20750000D03*
%TO.N,SCL*%
X19367217Y-19654448D03*
%TO.N,GND*%
X17000000Y-18250000D03*
X16500000Y-20525000D03*
%TO.N,LCD_DISP*%
X29250000Y-20500000D03*
X28250000Y-22000000D03*
%TO.N,GND*%
X26443108Y-18515010D03*
%TO.N,LCD_DISP*%
X29500000Y-18000000D03*
X24000000Y-15750000D03*
%TO.N,VIN*%
X24750000Y-20750000D03*
X31500000Y-36000000D03*
%TO.N,+5V*%
X28250000Y-16500000D03*
%TO.N,GND*%
X21000000Y-13250000D03*
%TO.N,VCC*%
X20000000Y-18250000D03*
%TO.N,ACCELINT2*%
X24000000Y-19015010D03*
%TO.N,VUSB*%
X31950874Y-42660031D03*
%TO.N,GND*%
X32559208Y-43035554D03*
%TO.N,VUSB*%
X33450000Y-41400000D03*
%TO.N,+BATT*%
X28250000Y-46500000D03*
%TO.N,GND*%
X30000000Y-44000000D03*
X22500000Y-38750000D03*
X16000000Y-39500000D03*
X17000000Y-37000000D03*
X18500000Y-33250000D03*
X15000000Y-29000000D03*
X15250000Y-24750000D03*
X13500000Y-23250000D03*
%TO.N,BUZZER*%
X15500000Y-23250000D03*
%TO.N,RTCIRQ*%
X24550000Y-31150000D03*
%TO.N,Net-(IC1-Pad34)*%
X24000000Y-38500000D03*
%TO.N,Net-(IC1-Pad35)*%
X25500000Y-38625000D03*
%TO.N,RST*%
X24059352Y-30216976D03*
%TO.N,BUTTON1*%
X14885000Y-18850000D03*
%TO.N,CHGNG*%
X31500000Y-43500000D03*
%TO.N,RST*%
X24956000Y-32375000D03*
%TO.N,BATTPOW*%
X29250000Y-42250000D03*
%TO.N,VUSB*%
X23850002Y-42000000D03*
X20620000Y-40450000D03*
%TO.N,USB_DP*%
X25500000Y-40500000D03*
%TO.N,LCD_CS*%
X29219030Y-21727350D03*
%TO.N,GND*%
X17000000Y-23500000D03*
X28551000Y-37000000D03*
X27000000Y-38625000D03*
X28500000Y-40375000D03*
X14750000Y-14750000D03*
X20250000Y-21750000D03*
X27000000Y-33000000D03*
X30692130Y-23182201D03*
%TO.N,SPI_MOSI*%
X23750000Y-25750000D03*
%TO.N,SPI_CLK*%
X31715010Y-20500000D03*
%TO.N,SPI_MOSI*%
X30731801Y-21231801D03*
X22000000Y-26000000D03*
X23750000Y-24750000D03*
%TO.N,SPI_CLK*%
X22000000Y-25250000D03*
%TO.N,Net-(J4-Pad1)*%
X33000000Y-38750000D03*
X31500000Y-38750000D03*
%TO.N,GND*%
X26250000Y-35500000D03*
%TO.N,VIN*%
X27326320Y-35990837D03*
%TO.N,GND*%
X24000000Y-46500000D03*
%TO.N,SDA*%
X26314765Y-44822982D03*
%TO.N,GND*%
X32500000Y-33250000D03*
%TO.N,FLASHLIGHT*%
X26234990Y-32250000D03*
%TO.N,GND*%
X25750000Y-28250000D03*
%TO.N,SCL*%
X27491427Y-31845936D03*
%TO.N,FLASHLIGHT*%
X27938183Y-29171117D03*
%TO.N,GND*%
X28750000Y-29000000D03*
%TO.N,BACKLIGHT*%
X26971655Y-29480020D03*
%TO.N,GND*%
X20750000Y-39500000D03*
X20500000Y-32000000D03*
%TO.N,VUSB*%
X19856663Y-32621673D03*
%TO.N,RTCIRQ*%
X16265010Y-31250000D03*
%TO.N,GND*%
X16250000Y-27000000D03*
X18250000Y-28250000D03*
%TO.N,SDA*%
X18935749Y-29441123D03*
%TO.N,SQW*%
X18350381Y-30492798D03*
%TO.N,VIN*%
X30500000Y-28500000D03*
%TO.N,SWDIO*%
X29397837Y-32270263D03*
%TO.N,VIN*%
X30250000Y-35500000D03*
%TO.N,SWDCLK*%
X30034990Y-32141613D03*
%TO.N,VIN*%
X29000000Y-35750000D03*
%TO.N,GND*%
X21250000Y-22750000D03*
%TO.N,VUSB*%
X23500000Y-45250000D03*
%TO.N,VCC*%
X21500000Y-19000000D03*
%TO.N,SDA*%
X25750000Y-34250000D03*
X26250000Y-33250000D03*
%TO.N,SCL*%
X27250000Y-43500000D03*
X22500000Y-28250000D03*
%TO.N,SDA*%
X22078812Y-21671188D03*
%TO.N,SCL*%
X22500000Y-22500000D03*
X19500000Y-29000000D03*
%TO.N,BUTTON3*%
X19500000Y-27969988D03*
%TO.N,SDA*%
X22000000Y-29000000D03*
X21250000Y-20500000D03*
%TO.N,ACCELINT1*%
X25500000Y-19250000D03*
X26500000Y-23500000D03*
%TO.N,ACCELINT2*%
X25500000Y-23500000D03*
%TO.N,BUZZER*%
X17750000Y-21500000D03*
%TO.N,SQW*%
X28750000Y-23000000D03*
X30250000Y-20500000D03*
%TO.N,LCD_CS*%
X30750000Y-17750000D03*
%TO.N,Net-(IC1-Pad34)*%
X21507206Y-32045021D03*
%TO.N,Net-(IC1-Pad35)*%
X22507206Y-32045021D03*
%TO.N,BUTTON3*%
X14000000Y-35000000D03*
X14000000Y-45250000D03*
X14250000Y-30500000D03*
%TO.N,BUTTON5*%
X19500000Y-26250000D03*
X16750000Y-28250000D03*
%TO.N,FLASHLIGHT*%
X21500000Y-34519998D03*
%TO.N,BUTTON2*%
X21218353Y-33934174D03*
%TO.N,FLASHLIGHT*%
X20924998Y-36450124D03*
%TO.N,BACKLIGHT*%
X28469989Y-31500000D03*
%TO.N,BUTTON2*%
X23250000Y-34250000D03*
X20000000Y-36250000D03*
X28750000Y-33750000D03*
%TO.N,SCL*%
X23476021Y-31893878D03*
X18631992Y-31765010D03*
%TO.N,SQW*%
X21500000Y-30000000D03*
%TO.N,SDA*%
X25500000Y-31000000D03*
%TO.N,BUTTON1*%
X19000000Y-25750000D03*
%TO.N,CHGNG*%
X31000000Y-29250000D03*
%TO.N,USB_DP*%
X22000000Y-44250000D03*
X21250000Y-43500000D03*
%TD*%
D18*
%TO.N,VUSB*%
X26500001Y-45499999D02*
X27734998Y-44265002D01*
X28097271Y-43140525D02*
X28550338Y-43140525D01*
%TO.N,+BATT*%
X28250000Y-43772840D02*
X28250008Y-43772832D01*
%TO.N,VUSB*%
X27734998Y-43502798D02*
X28097271Y-43140525D01*
%TO.N,+BATT*%
X28250000Y-46500000D02*
X28250000Y-43772840D01*
%TO.N,VUSB*%
X27734998Y-44265002D02*
X27734998Y-43502798D01*
%TO.N,BATTPOW*%
X29250000Y-42250000D02*
X29250000Y-43309240D01*
X29250000Y-43309240D02*
X29135317Y-43423923D01*
%TO.N,VIN*%
X19739385Y-17135832D02*
X19385832Y-17135832D01*
X23117201Y-16234999D02*
X20640218Y-16234999D01*
X24750000Y-20750000D02*
X24750000Y-17867798D01*
X24750000Y-17867798D02*
X23117201Y-16234999D01*
X20640218Y-16234999D02*
X19739385Y-17135832D01*
%TO.N,GND*%
X20750000Y-17500000D02*
X19783866Y-17500000D01*
X19783866Y-17500000D02*
X19633033Y-17650833D01*
X19633033Y-17650833D02*
X19138631Y-17650833D01*
X19138631Y-17650833D02*
X18987798Y-17500000D01*
X18987798Y-17500000D02*
X18250000Y-17500000D01*
%TO.N,SWDIO*%
X28750000Y-27500000D02*
X29545013Y-28295013D01*
X29545013Y-28295013D02*
X29545013Y-28545013D01*
X29545013Y-28545013D02*
X29545013Y-32123087D01*
%TO.N,VCC*%
X22750000Y-17000000D02*
X22750000Y-18264538D01*
X21500000Y-19000000D02*
X22015482Y-19000000D01*
X22750000Y-18264538D02*
X22750472Y-18265010D01*
X22015482Y-19000000D02*
X22750472Y-18265010D01*
%TO.N,SCL*%
X22500000Y-22500000D02*
X22216706Y-22500000D01*
X22216706Y-22500000D02*
X19371154Y-19654448D01*
X19371154Y-19654448D02*
X19367217Y-19654448D01*
%TO.N,LCD_DISP*%
X28250000Y-21500000D02*
X29250000Y-20500000D01*
X28250000Y-22000000D02*
X28250000Y-21500000D01*
%TO.N,LCD_CS*%
X29715002Y-21231378D02*
X29219030Y-21727350D01*
X29715002Y-18784998D02*
X29715002Y-21231378D01*
X30750000Y-17750000D02*
X29715002Y-18784998D01*
%TO.N,LCD_DISP*%
X29500000Y-18000000D02*
X26250000Y-18000000D01*
X26250000Y-18000000D02*
X24000000Y-15750000D01*
%TO.N,VIN*%
X31750000Y-34000000D02*
X31750000Y-35750000D01*
X31750000Y-35750000D02*
X31500000Y-36000000D01*
%TO.N,+5V*%
X28250000Y-16500000D02*
X28250000Y-14750000D01*
%TO.N,GND*%
X21000000Y-13250000D02*
X20750000Y-13250000D01*
X20750000Y-13250000D02*
X20250000Y-13750000D01*
%TO.N,VCC*%
X20000000Y-18250000D02*
X20750000Y-18250000D01*
X20750000Y-18250000D02*
X21500000Y-19000000D01*
%TO.N,ACCELINT2*%
X25500000Y-23500000D02*
X24000000Y-22000000D01*
X24000000Y-22000000D02*
X24000000Y-19015010D01*
%TO.N,VUSB*%
X31950874Y-42660031D02*
X33210905Y-41400000D01*
X33210905Y-41400000D02*
X33450000Y-41400000D01*
X26500001Y-45499999D02*
X27500000Y-46499998D01*
X27500000Y-46499998D02*
X27500000Y-47750000D01*
%TO.N,SDA*%
X22750000Y-29500000D02*
X22500000Y-29500000D01*
X22750000Y-29500000D02*
X24000000Y-29500000D01*
%TO.N,SPI_CLK*%
X27895995Y-25250000D02*
X31215001Y-21930994D01*
%TO.N,SPI_MOSI*%
X22250000Y-25750000D02*
X22000000Y-26000000D01*
X23750000Y-25750000D02*
X22250000Y-25750000D01*
%TO.N,SQW*%
X28750000Y-22854005D02*
X28750000Y-23000000D01*
X30250000Y-21354005D02*
X28750000Y-22854005D01*
X30250000Y-20500000D02*
X30250000Y-21354005D01*
%TO.N,SPI_CLK*%
X31215001Y-21930994D02*
X31215001Y-21000009D01*
%TO.N,SPI_MOSI*%
X28000000Y-24750000D02*
X23750000Y-24750000D01*
%TO.N,SPI_CLK*%
X22000000Y-25250000D02*
X27895995Y-25250000D01*
%TO.N,SPI_MOSI*%
X30731801Y-21231801D02*
X30731801Y-22018199D01*
X30731801Y-22018199D02*
X28000000Y-24750000D01*
%TO.N,SPI_CLK*%
X31215001Y-21000009D02*
X31715010Y-20500000D01*
%TO.N,CHGNG*%
X30984998Y-29265002D02*
X31000000Y-29250000D01*
X31500000Y-43500000D02*
X30984998Y-42984998D01*
X30984998Y-42984998D02*
X30984998Y-29265002D01*
%TO.N,Net-(J4-Pad1)*%
X33000000Y-38750000D02*
X31500000Y-38750000D01*
%TO.N,SDA*%
X26564764Y-38951968D02*
X26564764Y-44572983D01*
%TO.N,VIN*%
X29000000Y-35750000D02*
X27567157Y-35750000D01*
%TO.N,SDA*%
X26564764Y-44572983D02*
X26314765Y-44822982D01*
%TO.N,VIN*%
X27567157Y-35750000D02*
X27326320Y-35990837D01*
%TO.N,GND*%
X26250000Y-35500000D02*
X26816967Y-36066967D01*
%TO.N,SDA*%
X25750000Y-34250000D02*
X25500001Y-34499999D01*
%TO.N,GND*%
X26816967Y-36066967D02*
X26816967Y-37566967D01*
%TO.N,SDA*%
X25500001Y-34499999D02*
X25500001Y-37887205D01*
X25500001Y-37887205D02*
X26564764Y-38951968D01*
%TO.N,GND*%
X26816967Y-37566967D02*
X27000000Y-37750000D01*
X27000000Y-38625000D02*
X27000000Y-38551000D01*
X27000000Y-38551000D02*
X28551000Y-37000000D01*
X28500000Y-40375000D02*
X28500000Y-40125000D01*
X28500000Y-40125000D02*
X27000000Y-38625000D01*
%TO.N,VUSB*%
X23749999Y-45499999D02*
X23500000Y-45250000D01*
X26500001Y-45499999D02*
X23749999Y-45499999D01*
%TO.N,GND*%
X27000000Y-33000000D02*
X26750000Y-32750000D01*
%TO.N,BACKLIGHT*%
X28469989Y-31500000D02*
X29265001Y-30704988D01*
%TO.N,GND*%
X28750000Y-29353553D02*
X28750000Y-29000000D01*
%TO.N,SCL*%
X27844980Y-31845936D02*
X27491427Y-31845936D01*
X29500000Y-33500956D02*
X27844980Y-31845936D01*
%TO.N,BACKLIGHT*%
X29265001Y-30704988D02*
X29265001Y-28752799D01*
%TO.N,FLASHLIGHT*%
X26234990Y-32250000D02*
X26234990Y-30874310D01*
%TO.N,SCL*%
X27250000Y-43500000D02*
X29500000Y-41250000D01*
%TO.N,SWDIO*%
X29545013Y-32123087D02*
X29397837Y-32270263D01*
%TO.N,BACKLIGHT*%
X29265001Y-28752799D02*
X28997201Y-28484999D01*
X27966676Y-28484999D02*
X26971655Y-29480020D01*
%TO.N,GND*%
X26750000Y-32750000D02*
X26750000Y-31000000D01*
%TO.N,SCL*%
X29500000Y-41250000D02*
X29500000Y-33500956D01*
%TO.N,GND*%
X27103553Y-31000000D02*
X28750000Y-29353553D01*
%TO.N,BACKLIGHT*%
X28997201Y-28484999D02*
X27966676Y-28484999D01*
%TO.N,GND*%
X26750000Y-31000000D02*
X27103553Y-31000000D01*
%TO.N,FLASHLIGHT*%
X26234990Y-30874310D02*
X27938183Y-29171117D01*
%TO.N,GND*%
X22500000Y-38750000D02*
X21500000Y-38750000D01*
X21500000Y-38750000D02*
X20750000Y-39500000D01*
%TO.N,VUSB*%
X20620000Y-40450000D02*
X19500001Y-39330001D01*
%TO.N,RTCIRQ*%
X24550000Y-31150000D02*
X24400001Y-31000001D01*
%TO.N,VUSB*%
X19500001Y-39330001D02*
X19500001Y-32978335D01*
X19500001Y-32978335D02*
X19856663Y-32621673D01*
%TO.N,RTCIRQ*%
X24400001Y-31000001D02*
X16515009Y-31000001D01*
%TO.N,GND*%
X20500000Y-32000000D02*
X19750000Y-32000000D01*
%TO.N,RTCIRQ*%
X16515009Y-31000001D02*
X16265010Y-31250000D01*
%TO.N,SCL*%
X23476021Y-31893878D02*
X23002132Y-31419989D01*
X18977013Y-31419989D02*
X18631992Y-31765010D01*
X23002132Y-31419989D02*
X18977013Y-31419989D01*
%TO.N,GND*%
X19750000Y-32000000D02*
X18500000Y-33250000D01*
%TO.N,SDA*%
X22750000Y-29500000D02*
X18994626Y-29500000D01*
%TO.N,SQW*%
X21500000Y-30000000D02*
X18843179Y-30000000D01*
%TO.N,BUTTON5*%
X18033294Y-26250000D02*
X19500000Y-26250000D01*
%TO.N,SQW*%
X18843179Y-30000000D02*
X18350381Y-30492798D01*
%TO.N,BUTTON5*%
X16750000Y-28250000D02*
X17169989Y-27830011D01*
%TO.N,SDA*%
X18994626Y-29500000D02*
X18935749Y-29441123D01*
%TO.N,BUTTON5*%
X17169989Y-27830011D02*
X17169989Y-27113305D01*
X17169989Y-27113305D02*
X18033294Y-26250000D01*
%TO.N,SWDCLK*%
X30500000Y-27015000D02*
X30034990Y-27480010D01*
%TO.N,VIN*%
X30250000Y-35500000D02*
X30500000Y-35250000D01*
%TO.N,SWDCLK*%
X30034990Y-27480010D02*
X30034990Y-32141613D01*
%TO.N,VIN*%
X30500000Y-35250000D02*
X30500000Y-28500000D01*
%TO.N,SDA*%
X26250000Y-33250000D02*
X25500000Y-32500000D01*
X25500000Y-32500000D02*
X25500000Y-31000000D01*
%TO.N,BUTTON3*%
X16969988Y-30500000D02*
X19500000Y-27969988D01*
%TO.N,SCL*%
X19500000Y-29000000D02*
X20250000Y-28250000D01*
%TO.N,BUTTON3*%
X14250000Y-30500000D02*
X16969988Y-30500000D01*
%TO.N,SDA*%
X22078812Y-21328812D02*
X22078812Y-21671188D01*
X21250000Y-20500000D02*
X22078812Y-21328812D01*
%TO.N,SCL*%
X20250000Y-28250000D02*
X22500000Y-28250000D01*
%TO.N,SDA*%
X22500000Y-29500000D02*
X22000000Y-29000000D01*
%TO.N,ACCELINT1*%
X25500000Y-22500000D02*
X26500000Y-23500000D01*
X25500000Y-19250000D02*
X25500000Y-22500000D01*
%TO.N,BUTTON1*%
X15788204Y-18850000D02*
X14885000Y-18850000D01*
X19000000Y-22061796D02*
X15788204Y-18850000D01*
X19000000Y-25750000D02*
X19000000Y-22061796D01*
%TO.N,BUZZER*%
X15500000Y-23250000D02*
X16000000Y-23250000D01*
X16000000Y-23250000D02*
X17750000Y-21500000D01*
%TO.N,Net-(IC1-Pad34)*%
X22015002Y-36515002D02*
X22015002Y-32552817D01*
%TO.N,RST*%
X25015002Y-30926798D02*
X24305180Y-30216976D01*
X25015002Y-32315998D02*
X25015002Y-30926798D01*
%TO.N,Net-(IC1-Pad34)*%
X24000000Y-38500000D02*
X22015002Y-36515002D01*
%TO.N,RST*%
X24956000Y-32375000D02*
X25015002Y-32315998D01*
X24305180Y-30216976D02*
X24059352Y-30216976D01*
%TO.N,Net-(IC1-Pad34)*%
X22015002Y-32552817D02*
X21507206Y-32045021D01*
%TO.N,Net-(IC1-Pad35)*%
X22507206Y-35632206D02*
X22507206Y-32045021D01*
X25500000Y-38625000D02*
X22507206Y-35632206D01*
%TO.N,BUTTON3*%
X14000000Y-35000000D02*
X14000000Y-45250000D01*
%TO.N,BUTTON2*%
X20000000Y-36250000D02*
X20000000Y-35152527D01*
%TO.N,FLASHLIGHT*%
X20924998Y-36450124D02*
X20924998Y-35095000D01*
X20924998Y-35095000D02*
X21500000Y-34519998D01*
%TO.N,BUTTON2*%
X20000000Y-35152527D02*
X21218353Y-33934174D01*
X28750000Y-33750000D02*
X23750000Y-33750000D01*
X23750000Y-33750000D02*
X23250000Y-34250000D01*
%TO.N,SDA*%
X24000000Y-29500000D02*
X25500000Y-31000000D01*
%TO.N,USB_DP*%
X22353553Y-44250000D02*
X22000000Y-44250000D01*
X25500000Y-41103553D02*
X22353553Y-44250000D01*
X25500000Y-40500000D02*
X25500000Y-41103553D01*
%TO.N,VUSB*%
X23850002Y-42000000D02*
X22170000Y-42000000D01*
X22170000Y-42000000D02*
X20620000Y-40450000D01*
%TO.N,USB_DP*%
X21250000Y-43500000D02*
X22000000Y-44250000D01*
%TD*%
%TO.N,GND*%
D19*
X16090410Y-13153990D02*
X16076239Y-13170879D01*
X15975641Y-13345120D01*
X15968100Y-13365837D01*
X15934122Y-13558538D01*
X15933163Y-13569499D01*
X15933163Y-14933258D01*
X15935319Y-14949634D01*
X16010137Y-15228859D01*
X16022880Y-15253339D01*
X16153990Y-15409590D01*
X16170879Y-15423761D01*
X16210723Y-15446765D01*
X16089756Y-15633038D01*
X16084377Y-15643263D01*
X15996752Y-15854807D01*
X15993325Y-15865841D01*
X15945719Y-16089812D01*
X15944361Y-16101285D01*
X15938368Y-16330180D01*
X15939124Y-16341708D01*
X15974943Y-16567863D01*
X15977787Y-16579061D01*
X16054219Y-16794901D01*
X16059056Y-16805393D01*
X16173543Y-17003691D01*
X16180211Y-17013126D01*
X16328918Y-17187238D01*
X16337193Y-17195300D01*
X16515140Y-17339398D01*
X16524746Y-17345817D01*
X16725971Y-17455073D01*
X16736587Y-17459634D01*
X16954354Y-17530391D01*
X16965622Y-17532941D01*
X17192638Y-17562828D01*
X17204183Y-17563282D01*
X17432842Y-17551298D01*
X17444276Y-17549640D01*
X17666923Y-17496187D01*
X17677863Y-17492473D01*
X17887041Y-17399342D01*
X17897122Y-17393697D01*
X18085825Y-17264004D01*
X18094708Y-17256616D01*
X18256616Y-17094708D01*
X18264004Y-17085825D01*
X18393697Y-16897122D01*
X18399342Y-16887041D01*
X18492473Y-16677863D01*
X18496187Y-16666923D01*
X18549833Y-16443472D01*
X18551557Y-16430379D01*
X18556158Y-16254695D01*
X18720120Y-16349359D01*
X18740837Y-16356900D01*
X18900807Y-16385107D01*
X18721830Y-16537428D01*
X18709946Y-16550885D01*
X18580567Y-16747845D01*
X18572937Y-16764096D01*
X18504039Y-16989450D01*
X18501277Y-17007190D01*
X18498399Y-17242825D01*
X18500727Y-17260626D01*
X18564097Y-17487597D01*
X18571328Y-17504030D01*
X18695856Y-17704091D01*
X18707408Y-17717834D01*
X18883081Y-17874903D01*
X18898025Y-17884851D01*
X19110720Y-17986302D01*
X19127857Y-17991656D01*
X19151278Y-17995449D01*
X19118207Y-18103618D01*
X19115445Y-18121358D01*
X19112567Y-18356993D01*
X19114895Y-18374794D01*
X19178265Y-18601765D01*
X19185496Y-18618198D01*
X19281168Y-18771900D01*
X19130229Y-18792576D01*
X19112967Y-18797509D01*
X18897856Y-18893733D01*
X18882673Y-18903313D01*
X18703215Y-19056044D01*
X18691331Y-19069501D01*
X18561952Y-19266461D01*
X18554322Y-19282712D01*
X18485424Y-19508066D01*
X18482662Y-19525806D01*
X18479784Y-19761441D01*
X18482112Y-19779242D01*
X18545482Y-20006213D01*
X18552713Y-20022646D01*
X18677241Y-20222707D01*
X18688793Y-20236450D01*
X18864466Y-20393519D01*
X18879410Y-20403467D01*
X19092106Y-20504918D01*
X19109242Y-20510272D01*
X19260040Y-20534696D01*
X21756182Y-23030840D01*
X21756196Y-23030853D01*
X21792434Y-23067091D01*
X21808480Y-23078749D01*
X21830468Y-23089952D01*
X21997249Y-23239071D01*
X22012193Y-23249019D01*
X22224888Y-23350470D01*
X22242025Y-23355824D01*
X22474646Y-23393500D01*
X22492596Y-23393829D01*
X22726440Y-23364702D01*
X22743761Y-23359980D01*
X22960032Y-23266392D01*
X22975331Y-23256998D01*
X23156642Y-23106471D01*
X23168690Y-23093161D01*
X23300464Y-22897796D01*
X23308292Y-22881640D01*
X23380056Y-22656775D01*
X23383050Y-22638289D01*
X23386165Y-22383328D01*
X23383624Y-22364774D01*
X23373576Y-22330411D01*
X23400449Y-22367400D01*
X23421252Y-22408228D01*
X23432910Y-22424273D01*
X23472322Y-22463684D01*
X24612604Y-23603967D01*
X24612567Y-23606992D01*
X24614895Y-23624794D01*
X24678265Y-23851765D01*
X24685496Y-23868198D01*
X24798036Y-24049000D01*
X24294306Y-24049000D01*
X24243685Y-24004841D01*
X24228620Y-23995076D01*
X24014700Y-23896232D01*
X23997500Y-23891088D01*
X23764436Y-23856256D01*
X23746483Y-23856147D01*
X23513012Y-23888128D01*
X23495750Y-23893061D01*
X23280639Y-23989285D01*
X23265456Y-23998865D01*
X23085998Y-24151596D01*
X23074114Y-24165053D01*
X22944735Y-24362013D01*
X22937105Y-24378264D01*
X22884905Y-24549000D01*
X22544306Y-24549000D01*
X22493685Y-24504841D01*
X22478620Y-24495076D01*
X22264700Y-24396232D01*
X22247500Y-24391088D01*
X22014436Y-24356256D01*
X21996483Y-24356147D01*
X21763012Y-24388128D01*
X21745750Y-24393061D01*
X21530639Y-24489285D01*
X21515456Y-24498865D01*
X21335998Y-24651596D01*
X21324114Y-24665053D01*
X21194735Y-24862013D01*
X21187105Y-24878264D01*
X21118207Y-25103618D01*
X21115445Y-25121358D01*
X21112567Y-25356993D01*
X21114895Y-25374794D01*
X21178265Y-25601765D01*
X21185496Y-25618197D01*
X21189107Y-25623999D01*
X21187105Y-25628264D01*
X21118207Y-25853618D01*
X21115445Y-25871358D01*
X21112567Y-26106993D01*
X21114895Y-26124794D01*
X21178265Y-26351765D01*
X21185496Y-26368198D01*
X21310024Y-26568259D01*
X21321576Y-26582002D01*
X21497249Y-26739071D01*
X21512193Y-26749019D01*
X21724888Y-26850470D01*
X21742025Y-26855824D01*
X21974646Y-26893500D01*
X21992596Y-26893829D01*
X22226440Y-26864702D01*
X22243761Y-26859980D01*
X22460032Y-26766392D01*
X22475331Y-26756998D01*
X22656642Y-26606471D01*
X22668690Y-26593161D01*
X22764579Y-26451000D01*
X23204669Y-26451000D01*
X23247249Y-26489071D01*
X23262193Y-26499019D01*
X23474888Y-26600470D01*
X23492025Y-26605824D01*
X23724646Y-26643500D01*
X23742596Y-26643829D01*
X23976440Y-26614702D01*
X23993761Y-26609980D01*
X24210032Y-26516392D01*
X24225331Y-26506998D01*
X24406642Y-26356471D01*
X24418690Y-26343161D01*
X24550464Y-26147796D01*
X24558292Y-26131640D01*
X24615942Y-25951000D01*
X27946451Y-25951000D01*
X27946463Y-25950999D01*
X27996982Y-25950999D01*
X28016571Y-25947896D01*
X28060140Y-25933740D01*
X28105399Y-25926571D01*
X28124261Y-25920443D01*
X28165091Y-25899639D01*
X28208660Y-25885483D01*
X28226332Y-25876479D01*
X28263399Y-25849548D01*
X28304222Y-25828748D01*
X28320267Y-25817091D01*
X28456073Y-25681284D01*
X28563281Y-25574076D01*
X28856945Y-25574076D01*
X28867415Y-25691388D01*
X28939009Y-25741145D01*
X28949768Y-25747158D01*
X29142207Y-25831232D01*
X29153929Y-25835040D01*
X29359033Y-25880136D01*
X29371271Y-25881595D01*
X29581229Y-25885993D01*
X29593518Y-25885048D01*
X29800332Y-25848581D01*
X29812202Y-25845266D01*
X30007993Y-25769324D01*
X30018994Y-25763767D01*
X30129232Y-25693809D01*
X30142511Y-25573531D01*
X29552191Y-24983210D01*
X29447809Y-24983210D01*
X28856945Y-25574076D01*
X28563281Y-25574076D01*
X29439548Y-24697809D01*
X29733210Y-24697809D01*
X29733210Y-24802191D01*
X30324287Y-25393267D01*
X30441100Y-25383252D01*
X30487203Y-25317897D01*
X30493291Y-25307181D01*
X30578708Y-25115334D01*
X30582599Y-25103638D01*
X30629222Y-24898423D01*
X30630786Y-24885309D01*
X30634123Y-24646318D01*
X30632926Y-24633165D01*
X30592050Y-24426727D01*
X30588488Y-24414928D01*
X30508461Y-24220770D01*
X30502675Y-24209888D01*
X30442443Y-24119233D01*
X30323645Y-24107375D01*
X29733210Y-24697809D01*
X29439548Y-24697809D01*
X31116000Y-23021358D01*
X31116000Y-26062594D01*
X31047099Y-26016119D01*
X31036257Y-26010257D01*
X30842662Y-25928878D01*
X30830888Y-25925234D01*
X30625173Y-25883006D01*
X30612916Y-25881718D01*
X30402917Y-25880252D01*
X30390643Y-25881369D01*
X30184360Y-25920720D01*
X30172536Y-25924199D01*
X29977824Y-26002868D01*
X29966902Y-26008578D01*
X29791178Y-26123569D01*
X29781572Y-26131292D01*
X29631531Y-26278223D01*
X29623608Y-26287665D01*
X29504963Y-26460942D01*
X29499026Y-26471742D01*
X29443973Y-26600188D01*
X29297099Y-26501119D01*
X29286257Y-26495257D01*
X29092662Y-26413878D01*
X29080888Y-26410234D01*
X28875173Y-26368006D01*
X28862916Y-26366718D01*
X28652917Y-26365252D01*
X28640643Y-26366369D01*
X28434360Y-26405720D01*
X28422536Y-26409199D01*
X28227824Y-26487868D01*
X28216902Y-26493578D01*
X28041178Y-26608569D01*
X28031572Y-26616292D01*
X27881531Y-26763223D01*
X27873608Y-26772665D01*
X27754963Y-26945942D01*
X27749026Y-26956742D01*
X27666296Y-27149763D01*
X27662570Y-27161511D01*
X27618907Y-27366927D01*
X27617533Y-27379175D01*
X27614601Y-27589158D01*
X27615633Y-27601439D01*
X27653542Y-27807994D01*
X27656940Y-27819842D01*
X27667016Y-27845290D01*
X27654010Y-27849516D01*
X27636340Y-27858519D01*
X27599270Y-27885452D01*
X27558448Y-27906252D01*
X27542403Y-27917909D01*
X27506166Y-27954146D01*
X27506152Y-27954159D01*
X26859226Y-28601086D01*
X26734667Y-28618148D01*
X26717405Y-28623081D01*
X26502294Y-28719305D01*
X26487111Y-28728885D01*
X26307653Y-28881616D01*
X26295769Y-28895073D01*
X26166390Y-29092033D01*
X26158760Y-29108284D01*
X26089862Y-29333638D01*
X26087100Y-29351378D01*
X26084222Y-29587013D01*
X26086550Y-29604814D01*
X26149920Y-29831785D01*
X26157151Y-29848217D01*
X26200338Y-29917600D01*
X25906285Y-30211653D01*
X25764700Y-30146232D01*
X25747500Y-30141088D01*
X25612235Y-30120872D01*
X24463684Y-28972322D01*
X24424272Y-28932909D01*
X24408227Y-28921252D01*
X24367404Y-28900452D01*
X24330337Y-28873521D01*
X24312665Y-28864517D01*
X24269096Y-28850361D01*
X24228266Y-28829557D01*
X24209404Y-28823429D01*
X24164145Y-28816260D01*
X24120576Y-28802104D01*
X24100987Y-28799001D01*
X24050468Y-28799001D01*
X24050456Y-28799000D01*
X23198477Y-28799000D01*
X23300464Y-28647796D01*
X23308292Y-28631640D01*
X23380056Y-28406775D01*
X23383050Y-28388289D01*
X23386165Y-28133328D01*
X23383624Y-28114774D01*
X23317376Y-27888223D01*
X23309945Y-27871879D01*
X23182983Y-27673354D01*
X23171264Y-27659753D01*
X22993685Y-27504841D01*
X22978620Y-27495076D01*
X22764700Y-27396232D01*
X22747500Y-27391088D01*
X22514436Y-27356256D01*
X22496483Y-27356147D01*
X22263012Y-27388128D01*
X22245750Y-27393061D01*
X22030639Y-27489285D01*
X22015456Y-27498865D01*
X21956548Y-27549000D01*
X20282530Y-27549000D01*
X20182983Y-27393342D01*
X20171264Y-27379741D01*
X19993685Y-27224829D01*
X19978620Y-27215064D01*
X19764700Y-27116220D01*
X19747500Y-27111076D01*
X19742488Y-27110327D01*
X19743761Y-27109980D01*
X19960032Y-27016392D01*
X19975331Y-27006998D01*
X20156642Y-26856471D01*
X20168690Y-26843161D01*
X20300464Y-26647796D01*
X20308292Y-26631640D01*
X20380056Y-26406775D01*
X20383050Y-26388289D01*
X20386165Y-26133328D01*
X20383624Y-26114774D01*
X20317376Y-25888223D01*
X20309945Y-25871879D01*
X20182983Y-25673354D01*
X20171264Y-25659753D01*
X19993685Y-25504841D01*
X19978620Y-25495076D01*
X19828313Y-25425625D01*
X19817376Y-25388222D01*
X19809945Y-25371879D01*
X19701000Y-25201526D01*
X19701000Y-22011340D01*
X19700999Y-22011328D01*
X19700999Y-21960808D01*
X19697897Y-21941220D01*
X19683740Y-21897651D01*
X19676571Y-21852392D01*
X19670443Y-21833530D01*
X19649642Y-21792706D01*
X19635482Y-21749128D01*
X19626478Y-21731457D01*
X19599547Y-21694390D01*
X19578748Y-21653569D01*
X19567091Y-21637524D01*
X19530853Y-21601286D01*
X19530840Y-21601272D01*
X16251888Y-18322322D01*
X16212476Y-18282909D01*
X16196431Y-18271252D01*
X16155608Y-18250452D01*
X16118541Y-18223521D01*
X16100869Y-18214517D01*
X16057300Y-18200361D01*
X16016470Y-18179557D01*
X15997608Y-18173429D01*
X15952349Y-18166260D01*
X15908780Y-18152104D01*
X15889191Y-18149001D01*
X15838672Y-18149001D01*
X15838660Y-18149000D01*
X15429306Y-18149000D01*
X15378685Y-18104841D01*
X15363620Y-18095076D01*
X15149700Y-17996232D01*
X15132500Y-17991088D01*
X14899436Y-17956256D01*
X14881483Y-17956147D01*
X14648012Y-17988128D01*
X14630750Y-17993061D01*
X14415639Y-18089285D01*
X14400456Y-18098865D01*
X14220998Y-18251596D01*
X14209114Y-18265053D01*
X14079735Y-18462013D01*
X14072105Y-18478264D01*
X14003207Y-18703618D01*
X14000445Y-18721358D01*
X13997567Y-18956993D01*
X13999895Y-18974794D01*
X14063265Y-19201765D01*
X14070496Y-19218198D01*
X14195024Y-19418259D01*
X14206576Y-19432002D01*
X14382249Y-19589071D01*
X14397193Y-19599019D01*
X14609888Y-19700470D01*
X14627025Y-19705824D01*
X14859646Y-19743500D01*
X14877596Y-19743829D01*
X15111440Y-19714702D01*
X15128761Y-19709980D01*
X15345032Y-19616392D01*
X15360331Y-19606998D01*
X15427782Y-19551000D01*
X15497842Y-19551000D01*
X16989978Y-21043137D01*
X16944735Y-21112013D01*
X16937105Y-21128264D01*
X16868207Y-21353618D01*
X16865445Y-21371358D01*
X16865175Y-21393463D01*
X15831528Y-22427110D01*
X15764700Y-22396232D01*
X15747500Y-22391088D01*
X15514436Y-22356256D01*
X15496483Y-22356147D01*
X15263012Y-22388128D01*
X15245750Y-22393061D01*
X15030639Y-22489285D01*
X15015456Y-22498865D01*
X14835998Y-22651596D01*
X14824114Y-22665053D01*
X14694735Y-22862013D01*
X14687105Y-22878264D01*
X14618207Y-23103618D01*
X14615445Y-23121358D01*
X14612567Y-23356993D01*
X14614895Y-23374794D01*
X14678265Y-23601765D01*
X14685496Y-23618198D01*
X14810024Y-23818259D01*
X14821576Y-23832002D01*
X14997249Y-23989071D01*
X15012193Y-23999019D01*
X15224888Y-24100470D01*
X15242025Y-24105824D01*
X15474646Y-24143500D01*
X15492596Y-24143829D01*
X15726440Y-24114702D01*
X15743761Y-24109980D01*
X15960032Y-24016392D01*
X15975331Y-24006998D01*
X16042782Y-23951000D01*
X16050456Y-23951000D01*
X16050468Y-23950999D01*
X16100987Y-23950999D01*
X16120576Y-23947896D01*
X16164145Y-23933740D01*
X16209404Y-23926571D01*
X16228266Y-23920443D01*
X16269096Y-23899639D01*
X16312665Y-23885483D01*
X16330337Y-23876479D01*
X16367404Y-23849548D01*
X16408227Y-23828748D01*
X16424272Y-23817091D01*
X17862463Y-22378899D01*
X17976440Y-22364702D01*
X17993761Y-22359980D01*
X18210031Y-22266392D01*
X18212015Y-22265174D01*
X18299001Y-22352160D01*
X18299000Y-25203284D01*
X18194735Y-25362013D01*
X18187105Y-25378264D01*
X18134905Y-25549000D01*
X17982838Y-25549000D01*
X17982826Y-25549001D01*
X17932307Y-25549001D01*
X17912718Y-25552104D01*
X17869149Y-25566260D01*
X17823890Y-25573429D01*
X17805028Y-25579557D01*
X17764200Y-25600360D01*
X17720628Y-25614517D01*
X17702956Y-25623522D01*
X17665892Y-25650451D01*
X17625067Y-25671252D01*
X17609022Y-25682909D01*
X16639149Y-26652782D01*
X16639136Y-26652796D01*
X16602900Y-26689032D01*
X16591243Y-26705077D01*
X16570443Y-26745899D01*
X16543510Y-26782969D01*
X16534506Y-26800640D01*
X16520348Y-26844212D01*
X16499546Y-26885039D01*
X16493418Y-26903901D01*
X16486249Y-26949160D01*
X16472093Y-26992729D01*
X16468990Y-27012318D01*
X16468990Y-27062837D01*
X16468989Y-27062849D01*
X16468989Y-27405033D01*
X16280639Y-27489285D01*
X16265456Y-27498865D01*
X16085998Y-27651596D01*
X16074114Y-27665053D01*
X15944735Y-27862013D01*
X15937105Y-27878264D01*
X15868207Y-28103618D01*
X15865445Y-28121358D01*
X15862567Y-28356993D01*
X15864895Y-28374794D01*
X15928265Y-28601765D01*
X15935496Y-28618198D01*
X16060024Y-28818259D01*
X16071576Y-28832002D01*
X16247249Y-28989071D01*
X16262193Y-28999019D01*
X16474888Y-29100470D01*
X16492025Y-29105824D01*
X16724646Y-29143500D01*
X16742596Y-29143829D01*
X16976440Y-29114702D01*
X16993761Y-29109980D01*
X17210032Y-29016392D01*
X17225331Y-29006998D01*
X17406642Y-28856471D01*
X17418690Y-28843161D01*
X17550464Y-28647796D01*
X17558292Y-28631640D01*
X17630056Y-28406775D01*
X17633050Y-28388289D01*
X17633421Y-28357942D01*
X17700829Y-28290535D01*
X17700842Y-28290521D01*
X17737079Y-28254284D01*
X17748736Y-28238239D01*
X17769536Y-28197417D01*
X17796469Y-28160347D01*
X17805472Y-28142677D01*
X17819629Y-28099106D01*
X17840432Y-28058278D01*
X17846560Y-28039416D01*
X17853729Y-27994156D01*
X17867886Y-27950587D01*
X17870988Y-27930999D01*
X17870988Y-27880479D01*
X17870989Y-27880467D01*
X17870989Y-27403667D01*
X18323656Y-26951000D01*
X18954669Y-26951000D01*
X18997249Y-26989071D01*
X19012193Y-26999019D01*
X19224888Y-27100470D01*
X19242025Y-27105824D01*
X19260539Y-27108823D01*
X19245750Y-27113049D01*
X19030639Y-27209273D01*
X19015456Y-27218853D01*
X18835998Y-27371584D01*
X18824114Y-27385041D01*
X18694735Y-27582001D01*
X18687105Y-27598252D01*
X18618207Y-27823606D01*
X18615445Y-27841346D01*
X18615175Y-27863450D01*
X16679626Y-29799000D01*
X14794306Y-29799000D01*
X14743685Y-29754841D01*
X14728620Y-29745076D01*
X14514700Y-29646232D01*
X14497500Y-29641088D01*
X14264436Y-29606256D01*
X14246483Y-29606147D01*
X14013012Y-29638128D01*
X13995750Y-29643061D01*
X13780639Y-29739285D01*
X13765456Y-29748865D01*
X13585998Y-29901596D01*
X13574114Y-29915053D01*
X13444735Y-30112013D01*
X13437105Y-30128264D01*
X13368207Y-30353618D01*
X13365445Y-30371358D01*
X13362567Y-30606993D01*
X13364895Y-30624794D01*
X13428265Y-30851765D01*
X13435496Y-30868198D01*
X13560024Y-31068259D01*
X13571576Y-31082002D01*
X13747249Y-31239071D01*
X13762193Y-31249019D01*
X13974888Y-31350470D01*
X13992025Y-31355824D01*
X14224646Y-31393500D01*
X14242596Y-31393829D01*
X14476440Y-31364702D01*
X14493761Y-31359980D01*
X14710032Y-31266392D01*
X14725331Y-31256998D01*
X14792782Y-31201000D01*
X15379482Y-31201000D01*
X15377577Y-31356993D01*
X15379905Y-31374794D01*
X15443275Y-31601765D01*
X15450506Y-31618198D01*
X15575034Y-31818259D01*
X15586586Y-31832002D01*
X15762259Y-31989071D01*
X15777203Y-31999019D01*
X15989898Y-32100470D01*
X16007035Y-32105824D01*
X16239656Y-32143500D01*
X16257606Y-32143829D01*
X16491450Y-32114702D01*
X16508771Y-32109980D01*
X16725042Y-32016392D01*
X16740341Y-32006998D01*
X16921652Y-31856471D01*
X16933700Y-31843161D01*
X17029587Y-31701001D01*
X17746648Y-31701001D01*
X17744559Y-31872003D01*
X17746887Y-31889804D01*
X17810257Y-32116775D01*
X17817488Y-32133208D01*
X17942016Y-32333269D01*
X17953568Y-32347012D01*
X18129241Y-32504081D01*
X18144185Y-32514029D01*
X18356880Y-32615480D01*
X18374017Y-32620834D01*
X18606638Y-32658510D01*
X18624588Y-32658839D01*
X18858432Y-32629712D01*
X18875753Y-32624990D01*
X18896882Y-32615847D01*
X18873522Y-32647999D01*
X18864518Y-32665670D01*
X18850360Y-32709245D01*
X18829559Y-32750069D01*
X18823431Y-32768931D01*
X18816263Y-32814184D01*
X18802105Y-32857759D01*
X18799002Y-32877348D01*
X18799002Y-32933084D01*
X18799001Y-39380456D01*
X18799002Y-39380468D01*
X18799002Y-39430988D01*
X18802104Y-39450576D01*
X18816261Y-39494145D01*
X18823430Y-39539404D01*
X18829558Y-39558266D01*
X18850359Y-39599091D01*
X18864518Y-39642667D01*
X18873522Y-39660337D01*
X18900450Y-39697401D01*
X18921253Y-39738229D01*
X18932911Y-39754274D01*
X19732604Y-40553966D01*
X19732567Y-40556992D01*
X19734895Y-40574794D01*
X19798265Y-40801765D01*
X19805496Y-40818198D01*
X19930024Y-41018259D01*
X19941576Y-41032002D01*
X20117249Y-41189071D01*
X20132193Y-41199019D01*
X20344889Y-41300470D01*
X20362025Y-41305824D01*
X20508125Y-41329487D01*
X21709476Y-42530840D01*
X21709490Y-42530853D01*
X21745727Y-42567090D01*
X21761772Y-42578747D01*
X21802594Y-42599547D01*
X21839664Y-42626480D01*
X21857334Y-42635483D01*
X21900905Y-42649640D01*
X21941733Y-42670443D01*
X21960595Y-42676571D01*
X22005855Y-42683740D01*
X22049424Y-42697897D01*
X22069012Y-42700999D01*
X22119532Y-42700999D01*
X22119544Y-42701000D01*
X22911191Y-42701000D01*
X22224535Y-43387656D01*
X22134923Y-43374263D01*
X22133624Y-43364775D01*
X22067376Y-43138223D01*
X22059945Y-43121879D01*
X21932983Y-42923354D01*
X21921264Y-42909753D01*
X21743685Y-42754841D01*
X21728620Y-42745076D01*
X21514700Y-42646232D01*
X21497500Y-42641088D01*
X21264436Y-42606256D01*
X21246483Y-42606147D01*
X21013012Y-42638128D01*
X20995750Y-42643061D01*
X20780639Y-42739285D01*
X20765456Y-42748865D01*
X20585998Y-42901596D01*
X20574114Y-42915053D01*
X20444735Y-43112013D01*
X20437105Y-43128264D01*
X20368207Y-43353618D01*
X20365445Y-43371358D01*
X20362567Y-43606993D01*
X20364895Y-43624794D01*
X20428265Y-43851765D01*
X20435496Y-43868198D01*
X20560024Y-44068259D01*
X20571576Y-44082002D01*
X20747249Y-44239071D01*
X20762193Y-44249019D01*
X20974889Y-44350470D01*
X20992025Y-44355824D01*
X21115167Y-44375768D01*
X21178265Y-44601765D01*
X21185496Y-44618198D01*
X21310024Y-44818259D01*
X21321576Y-44832002D01*
X21497249Y-44989071D01*
X21512193Y-44999019D01*
X21724888Y-45100470D01*
X21742025Y-45105824D01*
X21974646Y-45143500D01*
X21992596Y-45143829D01*
X22226440Y-45114702D01*
X22243761Y-45109980D01*
X22460032Y-45016392D01*
X22475331Y-45006998D01*
X22578153Y-44921634D01*
X22581819Y-44920443D01*
X22622649Y-44899639D01*
X22666218Y-44885483D01*
X22683890Y-44876479D01*
X22690041Y-44872010D01*
X22687105Y-44878264D01*
X22618207Y-45103618D01*
X22615445Y-45121358D01*
X22612567Y-45356993D01*
X22614895Y-45374794D01*
X22678265Y-45601765D01*
X22685496Y-45618198D01*
X22810024Y-45818259D01*
X22821576Y-45832002D01*
X22997249Y-45989071D01*
X23012193Y-45999019D01*
X23224888Y-46100470D01*
X23242025Y-46105824D01*
X23449457Y-46139421D01*
X23480905Y-46149638D01*
X23521732Y-46170441D01*
X23540594Y-46176570D01*
X23585853Y-46183739D01*
X23629422Y-46197895D01*
X23649011Y-46200998D01*
X23699531Y-46200998D01*
X23699543Y-46200999D01*
X24806123Y-46200999D01*
X24756370Y-46357842D01*
X24753760Y-46370338D01*
X24736345Y-46536011D01*
X24736000Y-46542601D01*
X24736000Y-46788191D01*
X24809809Y-46862000D01*
X25618192Y-46862001D01*
X25618193Y-46862000D01*
X25948000Y-46862001D01*
X25947999Y-48377013D01*
X26049045Y-48452605D01*
X26183163Y-48413132D01*
X26183163Y-48433258D01*
X26185319Y-48449634D01*
X26260137Y-48728859D01*
X26272880Y-48753339D01*
X26403990Y-48909590D01*
X26420879Y-48923761D01*
X26595120Y-49024359D01*
X26615837Y-49031900D01*
X26808538Y-49065878D01*
X26819499Y-49066837D01*
X28183258Y-49066837D01*
X28199634Y-49064681D01*
X28478859Y-48989863D01*
X28503339Y-48977120D01*
X28659590Y-48846010D01*
X28673761Y-48829121D01*
X28698829Y-48785701D01*
X28765140Y-48839398D01*
X28774746Y-48845817D01*
X28975971Y-48955073D01*
X28986587Y-48959634D01*
X29204354Y-49030391D01*
X29215623Y-49032941D01*
X29286156Y-49042226D01*
X29372000Y-48966943D01*
X29372001Y-47951808D01*
X29372000Y-47951807D01*
X29372000Y-47548192D01*
X29627999Y-47548192D01*
X29628000Y-47548193D01*
X29627999Y-48966836D01*
X29723988Y-49042508D01*
X29916924Y-48996187D01*
X29927863Y-48992473D01*
X30137041Y-48899342D01*
X30147122Y-48893697D01*
X30335825Y-48764004D01*
X30344708Y-48756616D01*
X30506616Y-48594708D01*
X30514004Y-48585825D01*
X30643697Y-48397122D01*
X30649342Y-48387041D01*
X30683163Y-48311077D01*
X30683163Y-48433258D01*
X30685319Y-48449634D01*
X30760137Y-48728859D01*
X30772880Y-48753339D01*
X30903990Y-48909590D01*
X30920879Y-48923761D01*
X31095120Y-49024359D01*
X31115837Y-49031900D01*
X31308538Y-49065878D01*
X31319499Y-49066837D01*
X32683258Y-49066837D01*
X32699634Y-49064681D01*
X32978859Y-48989863D01*
X33003339Y-48977120D01*
X33159590Y-48846010D01*
X33173761Y-48829121D01*
X33198829Y-48785701D01*
X33265140Y-48839398D01*
X33274746Y-48845817D01*
X33475971Y-48955073D01*
X33486587Y-48959634D01*
X33704354Y-49030391D01*
X33715623Y-49032941D01*
X33786156Y-49042226D01*
X33872000Y-48966943D01*
X33872001Y-47951808D01*
X33872000Y-47951807D01*
X33872001Y-46531104D01*
X33773409Y-46455451D01*
X33550598Y-46515154D01*
X33539758Y-46519152D01*
X33333091Y-46617728D01*
X33323162Y-46623635D01*
X33199362Y-46713581D01*
X33096010Y-46590410D01*
X33079121Y-46576239D01*
X32904880Y-46475641D01*
X32884163Y-46468100D01*
X32691462Y-46434122D01*
X32680501Y-46433163D01*
X31316742Y-46433163D01*
X31300366Y-46435319D01*
X31021142Y-46510137D01*
X30996662Y-46522880D01*
X30840410Y-46653990D01*
X30826239Y-46670879D01*
X30725641Y-46845120D01*
X30718100Y-46865837D01*
X30684122Y-47058538D01*
X30683163Y-47069499D01*
X30683163Y-47179340D01*
X30681107Y-47173984D01*
X30675997Y-47163622D01*
X30556358Y-46968390D01*
X30549446Y-46959132D01*
X30396232Y-46788972D01*
X30387748Y-46781129D01*
X30206091Y-46641739D01*
X30196320Y-46635574D01*
X29992303Y-46531622D01*
X29981572Y-46527340D01*
X29729222Y-46452591D01*
X29628000Y-46528177D01*
X29627999Y-47548192D01*
X29372000Y-47548192D01*
X29372001Y-46531104D01*
X29273409Y-46455451D01*
X29134830Y-46492584D01*
X29136165Y-46383328D01*
X29133624Y-46364774D01*
X29067376Y-46138223D01*
X29059945Y-46121879D01*
X28951000Y-45951526D01*
X28951000Y-44318104D01*
X28967070Y-44294279D01*
X29109963Y-44317423D01*
X29127913Y-44317752D01*
X29361757Y-44288625D01*
X29379078Y-44283903D01*
X29595349Y-44190315D01*
X29610648Y-44180921D01*
X29791959Y-44030394D01*
X29804007Y-44017084D01*
X29935781Y-43821719D01*
X29943609Y-43805563D01*
X30015373Y-43580698D01*
X30018367Y-43562212D01*
X30021482Y-43307251D01*
X30018941Y-43288697D01*
X29952693Y-43062146D01*
X29951000Y-43058422D01*
X29951000Y-42795260D01*
X30050465Y-42647796D01*
X30058292Y-42631640D01*
X30130056Y-42406775D01*
X30133050Y-42388289D01*
X30136165Y-42133328D01*
X30133624Y-42114774D01*
X30067376Y-41888223D01*
X30059945Y-41871879D01*
X29985653Y-41755711D01*
X30030841Y-41710523D01*
X30030854Y-41710509D01*
X30067091Y-41674272D01*
X30078748Y-41658227D01*
X30099547Y-41617405D01*
X30126479Y-41580338D01*
X30135483Y-41562666D01*
X30149640Y-41519094D01*
X30170443Y-41478266D01*
X30176571Y-41459404D01*
X30183740Y-41414145D01*
X30197896Y-41370576D01*
X30200999Y-41350987D01*
X30200999Y-41300468D01*
X30201000Y-41300456D01*
X30201000Y-36389670D01*
X30224646Y-36393500D01*
X30242596Y-36393829D01*
X30283998Y-36388672D01*
X30283998Y-43035453D01*
X30283999Y-43035465D01*
X30283999Y-43085985D01*
X30287101Y-43105573D01*
X30301258Y-43149142D01*
X30308427Y-43194401D01*
X30314555Y-43213263D01*
X30335356Y-43254088D01*
X30349515Y-43297664D01*
X30358519Y-43315334D01*
X30385447Y-43352398D01*
X30406250Y-43393226D01*
X30417908Y-43409271D01*
X30612604Y-43603966D01*
X30612567Y-43606992D01*
X30614895Y-43624794D01*
X30678265Y-43851765D01*
X30685496Y-43868198D01*
X30810024Y-44068259D01*
X30821576Y-44082002D01*
X30997249Y-44239071D01*
X31012193Y-44249019D01*
X31224888Y-44350470D01*
X31242025Y-44355824D01*
X31474646Y-44393500D01*
X31492596Y-44393829D01*
X31726440Y-44364702D01*
X31743761Y-44359980D01*
X31960032Y-44266392D01*
X31975331Y-44256998D01*
X32156642Y-44106471D01*
X32168690Y-44093161D01*
X32300464Y-43897796D01*
X32308292Y-43881640D01*
X32380056Y-43656775D01*
X32383050Y-43638289D01*
X32385504Y-43437415D01*
X32410906Y-43426423D01*
X32426205Y-43417029D01*
X32607516Y-43266502D01*
X32619564Y-43253192D01*
X32751338Y-43057827D01*
X32759166Y-43041671D01*
X32830930Y-42816806D01*
X32833924Y-42798320D01*
X32834295Y-42767972D01*
X33324919Y-42277348D01*
X33424646Y-42293500D01*
X33442596Y-42293829D01*
X33676440Y-42264702D01*
X33693761Y-42259980D01*
X33910032Y-42166392D01*
X33925331Y-42156998D01*
X34106642Y-42006471D01*
X34118690Y-41993161D01*
X34250464Y-41797796D01*
X34258292Y-41781640D01*
X34330056Y-41556775D01*
X34333050Y-41538289D01*
X34336165Y-41283328D01*
X34333624Y-41264774D01*
X34267376Y-41038223D01*
X34259945Y-41021879D01*
X34132983Y-40823354D01*
X34121264Y-40809753D01*
X33943685Y-40654841D01*
X33928620Y-40645076D01*
X33714700Y-40546232D01*
X33697500Y-40541088D01*
X33464436Y-40506256D01*
X33446483Y-40506147D01*
X33213012Y-40538128D01*
X33195750Y-40543061D01*
X32980639Y-40639285D01*
X32965456Y-40648865D01*
X32785998Y-40801596D01*
X32774114Y-40815052D01*
X32715962Y-40903579D01*
X31838445Y-41781097D01*
X31713886Y-41798159D01*
X31696625Y-41803092D01*
X31685998Y-41807846D01*
X31685998Y-39619739D01*
X31726440Y-39614702D01*
X31743761Y-39609980D01*
X31960032Y-39516392D01*
X31975331Y-39506998D01*
X32042782Y-39451000D01*
X32454669Y-39451000D01*
X32497249Y-39489071D01*
X32512193Y-39499019D01*
X32724888Y-39600470D01*
X32742025Y-39605824D01*
X32974646Y-39643500D01*
X32992596Y-39643829D01*
X33226440Y-39614702D01*
X33243761Y-39609980D01*
X33460032Y-39516392D01*
X33475331Y-39506998D01*
X33656642Y-39356471D01*
X33668690Y-39343161D01*
X33800464Y-39147796D01*
X33808292Y-39131640D01*
X33880056Y-38906775D01*
X33883050Y-38888289D01*
X33886165Y-38633328D01*
X33883624Y-38614774D01*
X33817376Y-38388223D01*
X33809945Y-38371879D01*
X33682983Y-38173354D01*
X33671264Y-38159753D01*
X33493685Y-38004841D01*
X33478620Y-37995076D01*
X33264700Y-37896232D01*
X33247500Y-37891088D01*
X33014436Y-37856256D01*
X32996483Y-37856147D01*
X32763012Y-37888128D01*
X32745750Y-37893061D01*
X32530639Y-37989285D01*
X32515456Y-37998865D01*
X32456548Y-38049000D01*
X32044306Y-38049000D01*
X31993685Y-38004841D01*
X31978620Y-37995076D01*
X31764700Y-37896232D01*
X31747500Y-37891088D01*
X31685998Y-37881896D01*
X31685998Y-36869739D01*
X31726440Y-36864702D01*
X31743761Y-36859980D01*
X31960032Y-36766392D01*
X31975331Y-36756998D01*
X32156642Y-36606471D01*
X32168690Y-36593161D01*
X32300464Y-36397796D01*
X32308292Y-36381640D01*
X32380056Y-36156775D01*
X32383050Y-36138289D01*
X32383937Y-36065699D01*
X32385483Y-36062666D01*
X32399640Y-36019095D01*
X32420443Y-35978267D01*
X32426571Y-35959405D01*
X32433740Y-35914145D01*
X32447897Y-35870576D01*
X32450999Y-35850988D01*
X32450999Y-35800468D01*
X32451000Y-35800456D01*
X32451000Y-34897574D01*
X32456018Y-34893653D01*
X32608098Y-34748831D01*
X32616151Y-34739501D01*
X32737204Y-34567897D01*
X32743291Y-34557181D01*
X32828708Y-34365334D01*
X32832599Y-34353638D01*
X32879222Y-34148423D01*
X32880786Y-34135309D01*
X32884123Y-33896318D01*
X32882926Y-33883165D01*
X32842050Y-33676727D01*
X32838488Y-33664928D01*
X32758461Y-33470770D01*
X32752675Y-33459888D01*
X32636461Y-33284972D01*
X32628671Y-33275421D01*
X32480696Y-33126408D01*
X32471199Y-33118552D01*
X32297099Y-33001119D01*
X32286257Y-32995257D01*
X32092662Y-32913878D01*
X32080888Y-32910234D01*
X31875173Y-32868006D01*
X31862916Y-32866718D01*
X31685998Y-32865483D01*
X31685998Y-32633661D01*
X31707593Y-32633793D01*
X31710379Y-32634000D01*
X31741463Y-32634000D01*
X31827859Y-32634527D01*
X31831707Y-32634000D01*
X34866000Y-32634000D01*
X34866001Y-46764442D01*
X34706091Y-46641739D01*
X34696320Y-46635574D01*
X34492303Y-46531622D01*
X34481572Y-46527340D01*
X34229222Y-46452591D01*
X34128000Y-46528177D01*
X34127999Y-47548192D01*
X34128000Y-47548193D01*
X34127999Y-48966836D01*
X34223988Y-49042508D01*
X34416924Y-48996187D01*
X34427863Y-48992473D01*
X34637041Y-48899342D01*
X34647122Y-48893697D01*
X34835825Y-48764004D01*
X34844708Y-48756616D01*
X34866001Y-48735323D01*
X34866001Y-49366000D01*
X12634000Y-49366000D01*
X12634000Y-47191808D01*
X16096000Y-47191808D01*
X16096000Y-47440350D01*
X16096301Y-47446502D01*
X16110901Y-47595404D01*
X16113295Y-47607495D01*
X16171159Y-47799149D01*
X16175855Y-47810543D01*
X16269843Y-47987308D01*
X16276663Y-47997574D01*
X16403194Y-48152717D01*
X16411878Y-48161463D01*
X16566134Y-48289074D01*
X16576352Y-48295966D01*
X16752456Y-48391185D01*
X16763819Y-48395961D01*
X16949542Y-48453451D01*
X17052000Y-48377912D01*
X17052000Y-48377013D01*
X17307999Y-48377013D01*
X17409045Y-48452605D01*
X17582095Y-48401674D01*
X17593522Y-48397057D01*
X17770940Y-48304306D01*
X17781254Y-48297557D01*
X17937275Y-48172111D01*
X17946080Y-48163488D01*
X18074766Y-48010128D01*
X18081729Y-47999958D01*
X18178175Y-47824523D01*
X18183031Y-47813195D01*
X18243631Y-47622157D01*
X18246242Y-47609662D01*
X18263655Y-47443988D01*
X18264000Y-47437398D01*
X18264000Y-47319499D01*
X19183163Y-47319499D01*
X19183163Y-48683258D01*
X19185319Y-48699634D01*
X19260137Y-48978859D01*
X19272880Y-49003339D01*
X19403990Y-49159590D01*
X19420879Y-49173761D01*
X19595120Y-49274359D01*
X19615837Y-49281900D01*
X19808538Y-49315878D01*
X19819499Y-49316837D01*
X21183258Y-49316837D01*
X21199634Y-49314681D01*
X21478859Y-49239863D01*
X21503339Y-49227120D01*
X21659590Y-49096010D01*
X21673761Y-49079121D01*
X21698829Y-49035701D01*
X21765140Y-49089398D01*
X21774746Y-49095817D01*
X21975971Y-49205073D01*
X21986587Y-49209634D01*
X22204354Y-49280391D01*
X22215622Y-49282941D01*
X22442638Y-49312828D01*
X22454183Y-49313282D01*
X22682842Y-49301298D01*
X22694276Y-49299640D01*
X22916923Y-49246187D01*
X22927863Y-49242473D01*
X23137041Y-49149342D01*
X23147122Y-49143697D01*
X23335825Y-49014004D01*
X23344708Y-49006616D01*
X23506616Y-48844708D01*
X23514004Y-48835825D01*
X23643697Y-48647122D01*
X23649342Y-48637041D01*
X23742473Y-48427863D01*
X23746187Y-48416923D01*
X23799833Y-48193472D01*
X23801557Y-48180379D01*
X23809214Y-47887987D01*
X23808177Y-47874821D01*
X23766299Y-47648868D01*
X23763163Y-47637749D01*
X23681107Y-47423984D01*
X23675997Y-47413622D01*
X23556358Y-47218390D01*
X23549446Y-47209132D01*
X23533848Y-47191808D01*
X24736000Y-47191808D01*
X24736000Y-47440350D01*
X24736301Y-47446502D01*
X24750901Y-47595404D01*
X24753295Y-47607495D01*
X24811159Y-47799149D01*
X24815855Y-47810543D01*
X24909843Y-47987308D01*
X24916663Y-47997574D01*
X25043194Y-48152717D01*
X25051878Y-48161463D01*
X25206134Y-48289074D01*
X25216352Y-48295966D01*
X25392456Y-48391185D01*
X25403819Y-48395961D01*
X25589542Y-48453451D01*
X25692000Y-48377912D01*
X25692001Y-47191809D01*
X25618192Y-47118000D01*
X24809809Y-47117999D01*
X24736000Y-47191808D01*
X23533848Y-47191808D01*
X23396232Y-47038972D01*
X23387748Y-47031129D01*
X23206091Y-46891739D01*
X23196320Y-46885574D01*
X22992303Y-46781622D01*
X22981572Y-46777340D01*
X22762028Y-46712308D01*
X22750696Y-46710054D01*
X22522976Y-46686120D01*
X22511424Y-46685969D01*
X22283156Y-46703934D01*
X22271770Y-46705890D01*
X22050598Y-46765154D01*
X22039758Y-46769152D01*
X21833091Y-46867728D01*
X21823162Y-46873635D01*
X21699362Y-46963581D01*
X21596010Y-46840410D01*
X21579121Y-46826239D01*
X21404880Y-46725641D01*
X21384163Y-46718100D01*
X21191462Y-46684122D01*
X21180501Y-46683163D01*
X19816742Y-46683163D01*
X19800366Y-46685319D01*
X19521142Y-46760137D01*
X19496662Y-46772880D01*
X19340410Y-46903990D01*
X19326239Y-46920879D01*
X19225641Y-47095120D01*
X19218100Y-47115837D01*
X19184122Y-47308538D01*
X19183163Y-47319499D01*
X18264000Y-47319499D01*
X18264000Y-47191809D01*
X18190191Y-47118000D01*
X17381809Y-47117999D01*
X17308000Y-47191808D01*
X17307999Y-48377013D01*
X17052000Y-48377013D01*
X17052001Y-47191809D01*
X16978192Y-47118000D01*
X16169809Y-47117999D01*
X16096000Y-47191808D01*
X12634000Y-47191808D01*
X12634000Y-46542601D01*
X16096000Y-46542601D01*
X16096000Y-46788191D01*
X16169809Y-46862000D01*
X16978191Y-46862001D01*
X17052000Y-46788192D01*
X17052000Y-46788191D01*
X17307999Y-46788191D01*
X17381808Y-46862000D01*
X18190191Y-46862001D01*
X18264000Y-46788192D01*
X18264000Y-46539650D01*
X18263699Y-46533498D01*
X18249099Y-46384595D01*
X18246705Y-46372504D01*
X18188841Y-46180850D01*
X18184144Y-46169456D01*
X18090157Y-45992692D01*
X18083337Y-45982426D01*
X17956806Y-45827283D01*
X17948122Y-45818537D01*
X17793866Y-45690926D01*
X17783648Y-45684034D01*
X17607544Y-45588815D01*
X17596181Y-45584039D01*
X17410458Y-45526549D01*
X17308000Y-45602088D01*
X17307999Y-46788191D01*
X17052000Y-46788191D01*
X17052001Y-45602987D01*
X16950955Y-45527395D01*
X16777905Y-45578326D01*
X16766478Y-45582943D01*
X16589061Y-45675694D01*
X16578747Y-45682443D01*
X16422726Y-45807889D01*
X16413921Y-45816512D01*
X16285235Y-45969872D01*
X16278272Y-45980042D01*
X16181826Y-46155477D01*
X16176970Y-46166805D01*
X16116370Y-46357842D01*
X16113760Y-46370338D01*
X16096345Y-46536011D01*
X16096000Y-46542601D01*
X12634000Y-46542601D01*
X12634000Y-35106993D01*
X13112567Y-35106993D01*
X13114895Y-35124794D01*
X13178265Y-35351765D01*
X13185496Y-35368198D01*
X13299000Y-35550548D01*
X13299001Y-44703282D01*
X13194735Y-44862013D01*
X13187105Y-44878264D01*
X13118207Y-45103618D01*
X13115445Y-45121358D01*
X13112567Y-45356993D01*
X13114895Y-45374794D01*
X13178265Y-45601765D01*
X13185496Y-45618198D01*
X13310024Y-45818259D01*
X13321576Y-45832002D01*
X13497249Y-45989071D01*
X13512193Y-45999019D01*
X13724888Y-46100470D01*
X13742025Y-46105824D01*
X13974646Y-46143500D01*
X13992596Y-46143829D01*
X14226440Y-46114702D01*
X14243761Y-46109980D01*
X14460032Y-46016392D01*
X14475331Y-46006998D01*
X14656642Y-45856471D01*
X14668690Y-45843161D01*
X14800464Y-45647796D01*
X14808292Y-45631640D01*
X14880056Y-45406775D01*
X14883050Y-45388289D01*
X14886165Y-45133328D01*
X14883624Y-45114774D01*
X14817376Y-44888223D01*
X14809945Y-44871879D01*
X14701000Y-44701526D01*
X14701000Y-43021808D01*
X16096000Y-43021808D01*
X16096000Y-43420350D01*
X16096301Y-43426502D01*
X16110901Y-43575404D01*
X16113295Y-43587495D01*
X16171159Y-43779149D01*
X16175855Y-43790543D01*
X16269843Y-43967308D01*
X16276663Y-43977574D01*
X16403194Y-44132717D01*
X16411878Y-44141463D01*
X16566134Y-44269074D01*
X16576352Y-44275966D01*
X16752456Y-44371185D01*
X16763819Y-44375961D01*
X16949542Y-44433451D01*
X17052000Y-44357912D01*
X17052001Y-43021809D01*
X16978192Y-42948000D01*
X16169809Y-42947999D01*
X16096000Y-43021808D01*
X14701000Y-43021808D01*
X14701000Y-42222602D01*
X16096001Y-42222602D01*
X16096001Y-42618191D01*
X16169810Y-42692000D01*
X16978191Y-42692001D01*
X17052000Y-42618192D01*
X17307999Y-42618192D01*
X17308000Y-42618193D01*
X17307999Y-44357013D01*
X17409045Y-44432605D01*
X17582095Y-44381674D01*
X17593522Y-44377057D01*
X17770940Y-44284306D01*
X17781254Y-44277557D01*
X17937275Y-44152111D01*
X17946080Y-44143488D01*
X18035477Y-44036950D01*
X18089883Y-44081958D01*
X18101672Y-44089673D01*
X18276049Y-44177757D01*
X18289255Y-44182668D01*
X18478814Y-44229930D01*
X18492779Y-44231794D01*
X18688098Y-44235886D01*
X18702130Y-44234609D01*
X18893502Y-44195325D01*
X18906901Y-44190971D01*
X19084814Y-44110267D01*
X19096916Y-44103053D01*
X19252529Y-43984937D01*
X19262732Y-43975220D01*
X19388308Y-43825564D01*
X19396104Y-43813829D01*
X19485404Y-43640071D01*
X19490408Y-43626900D01*
X19539102Y-43437247D01*
X19541082Y-43422407D01*
X19544137Y-43203637D01*
X19542572Y-43188748D01*
X19499192Y-42997810D01*
X19494559Y-42984505D01*
X19410145Y-42808320D01*
X19402679Y-42796372D01*
X19281330Y-42643268D01*
X19271402Y-42633270D01*
X19119149Y-42510856D01*
X19107253Y-42503307D01*
X18931663Y-42417666D01*
X18918391Y-42412940D01*
X18728190Y-42368328D01*
X18714200Y-42366660D01*
X18518843Y-42365296D01*
X18504831Y-42366769D01*
X18314025Y-42408720D01*
X18300688Y-42413260D01*
X18264000Y-42430524D01*
X18264000Y-42219649D01*
X18263699Y-42213497D01*
X18249099Y-42064595D01*
X18246705Y-42052504D01*
X18188841Y-41860850D01*
X18184144Y-41849456D01*
X18090157Y-41672692D01*
X18083337Y-41662426D01*
X17956806Y-41507283D01*
X17948122Y-41498537D01*
X17793866Y-41370926D01*
X17783648Y-41364034D01*
X17607544Y-41268815D01*
X17596181Y-41264039D01*
X17410458Y-41206549D01*
X17308000Y-41282088D01*
X17307999Y-42618192D01*
X17052000Y-42618192D01*
X17052001Y-41282987D01*
X16950955Y-41207395D01*
X16777905Y-41258326D01*
X16766478Y-41262943D01*
X16589061Y-41355694D01*
X16578747Y-41362443D01*
X16422726Y-41487889D01*
X16413921Y-41496512D01*
X16285235Y-41649872D01*
X16278272Y-41660042D01*
X16181826Y-41835477D01*
X16176970Y-41846805D01*
X16116370Y-42037843D01*
X16113759Y-42050338D01*
X16096346Y-42216012D01*
X16096001Y-42222602D01*
X14701000Y-42222602D01*
X14701000Y-35545260D01*
X14800465Y-35397796D01*
X14808292Y-35381640D01*
X14880056Y-35156775D01*
X14883050Y-35138289D01*
X14886165Y-34883328D01*
X14883624Y-34864774D01*
X14817376Y-34638223D01*
X14809945Y-34621879D01*
X14682983Y-34423354D01*
X14671264Y-34409753D01*
X14493685Y-34254841D01*
X14478620Y-34245076D01*
X14264700Y-34146232D01*
X14247500Y-34141088D01*
X14014436Y-34106256D01*
X13996483Y-34106147D01*
X13763012Y-34138128D01*
X13745750Y-34143061D01*
X13530639Y-34239285D01*
X13515456Y-34248865D01*
X13335998Y-34401596D01*
X13324114Y-34415053D01*
X13194735Y-34612013D01*
X13187105Y-34628264D01*
X13118207Y-34853618D01*
X13115445Y-34871358D01*
X13112567Y-35106993D01*
X12634000Y-35106993D01*
X12634000Y-13134000D01*
X16114233Y-13134000D01*
X16090410Y-13153990D01*
%TA.AperFunction,Conductor*%
G36*
X16090410Y-13153990D02*
G01*
X16076239Y-13170879D01*
X15975641Y-13345120D01*
X15968100Y-13365837D01*
X15934122Y-13558538D01*
X15933163Y-13569499D01*
X15933163Y-14933258D01*
X15935319Y-14949634D01*
X16010137Y-15228859D01*
X16022880Y-15253339D01*
X16153990Y-15409590D01*
X16170879Y-15423761D01*
X16210723Y-15446765D01*
X16089756Y-15633038D01*
X16084377Y-15643263D01*
X15996752Y-15854807D01*
X15993325Y-15865841D01*
X15945719Y-16089812D01*
X15944361Y-16101285D01*
X15938368Y-16330180D01*
X15939124Y-16341708D01*
X15974943Y-16567863D01*
X15977787Y-16579061D01*
X16054219Y-16794901D01*
X16059056Y-16805393D01*
X16173543Y-17003691D01*
X16180211Y-17013126D01*
X16328918Y-17187238D01*
X16337193Y-17195300D01*
X16515140Y-17339398D01*
X16524746Y-17345817D01*
X16725971Y-17455073D01*
X16736587Y-17459634D01*
X16954354Y-17530391D01*
X16965622Y-17532941D01*
X17192638Y-17562828D01*
X17204183Y-17563282D01*
X17432842Y-17551298D01*
X17444276Y-17549640D01*
X17666923Y-17496187D01*
X17677863Y-17492473D01*
X17887041Y-17399342D01*
X17897122Y-17393697D01*
X18085825Y-17264004D01*
X18094708Y-17256616D01*
X18256616Y-17094708D01*
X18264004Y-17085825D01*
X18393697Y-16897122D01*
X18399342Y-16887041D01*
X18492473Y-16677863D01*
X18496187Y-16666923D01*
X18549833Y-16443472D01*
X18551557Y-16430379D01*
X18556158Y-16254695D01*
X18720120Y-16349359D01*
X18740837Y-16356900D01*
X18900807Y-16385107D01*
X18721830Y-16537428D01*
X18709946Y-16550885D01*
X18580567Y-16747845D01*
X18572937Y-16764096D01*
X18504039Y-16989450D01*
X18501277Y-17007190D01*
X18498399Y-17242825D01*
X18500727Y-17260626D01*
X18564097Y-17487597D01*
X18571328Y-17504030D01*
X18695856Y-17704091D01*
X18707408Y-17717834D01*
X18883081Y-17874903D01*
X18898025Y-17884851D01*
X19110720Y-17986302D01*
X19127857Y-17991656D01*
X19151278Y-17995449D01*
X19118207Y-18103618D01*
X19115445Y-18121358D01*
X19112567Y-18356993D01*
X19114895Y-18374794D01*
X19178265Y-18601765D01*
X19185496Y-18618198D01*
X19281168Y-18771900D01*
X19130229Y-18792576D01*
X19112967Y-18797509D01*
X18897856Y-18893733D01*
X18882673Y-18903313D01*
X18703215Y-19056044D01*
X18691331Y-19069501D01*
X18561952Y-19266461D01*
X18554322Y-19282712D01*
X18485424Y-19508066D01*
X18482662Y-19525806D01*
X18479784Y-19761441D01*
X18482112Y-19779242D01*
X18545482Y-20006213D01*
X18552713Y-20022646D01*
X18677241Y-20222707D01*
X18688793Y-20236450D01*
X18864466Y-20393519D01*
X18879410Y-20403467D01*
X19092106Y-20504918D01*
X19109242Y-20510272D01*
X19260040Y-20534696D01*
X21756182Y-23030840D01*
X21756196Y-23030853D01*
X21792434Y-23067091D01*
X21808480Y-23078749D01*
X21830468Y-23089952D01*
X21997249Y-23239071D01*
X22012193Y-23249019D01*
X22224888Y-23350470D01*
X22242025Y-23355824D01*
X22474646Y-23393500D01*
X22492596Y-23393829D01*
X22726440Y-23364702D01*
X22743761Y-23359980D01*
X22960032Y-23266392D01*
X22975331Y-23256998D01*
X23156642Y-23106471D01*
X23168690Y-23093161D01*
X23300464Y-22897796D01*
X23308292Y-22881640D01*
X23380056Y-22656775D01*
X23383050Y-22638289D01*
X23386165Y-22383328D01*
X23383624Y-22364774D01*
X23373576Y-22330411D01*
X23400449Y-22367400D01*
X23421252Y-22408228D01*
X23432910Y-22424273D01*
X23472322Y-22463684D01*
X24612604Y-23603967D01*
X24612567Y-23606992D01*
X24614895Y-23624794D01*
X24678265Y-23851765D01*
X24685496Y-23868198D01*
X24798036Y-24049000D01*
X24294306Y-24049000D01*
X24243685Y-24004841D01*
X24228620Y-23995076D01*
X24014700Y-23896232D01*
X23997500Y-23891088D01*
X23764436Y-23856256D01*
X23746483Y-23856147D01*
X23513012Y-23888128D01*
X23495750Y-23893061D01*
X23280639Y-23989285D01*
X23265456Y-23998865D01*
X23085998Y-24151596D01*
X23074114Y-24165053D01*
X22944735Y-24362013D01*
X22937105Y-24378264D01*
X22884905Y-24549000D01*
X22544306Y-24549000D01*
X22493685Y-24504841D01*
X22478620Y-24495076D01*
X22264700Y-24396232D01*
X22247500Y-24391088D01*
X22014436Y-24356256D01*
X21996483Y-24356147D01*
X21763012Y-24388128D01*
X21745750Y-24393061D01*
X21530639Y-24489285D01*
X21515456Y-24498865D01*
X21335998Y-24651596D01*
X21324114Y-24665053D01*
X21194735Y-24862013D01*
X21187105Y-24878264D01*
X21118207Y-25103618D01*
X21115445Y-25121358D01*
X21112567Y-25356993D01*
X21114895Y-25374794D01*
X21178265Y-25601765D01*
X21185496Y-25618197D01*
X21189107Y-25623999D01*
X21187105Y-25628264D01*
X21118207Y-25853618D01*
X21115445Y-25871358D01*
X21112567Y-26106993D01*
X21114895Y-26124794D01*
X21178265Y-26351765D01*
X21185496Y-26368198D01*
X21310024Y-26568259D01*
X21321576Y-26582002D01*
X21497249Y-26739071D01*
X21512193Y-26749019D01*
X21724888Y-26850470D01*
X21742025Y-26855824D01*
X21974646Y-26893500D01*
X21992596Y-26893829D01*
X22226440Y-26864702D01*
X22243761Y-26859980D01*
X22460032Y-26766392D01*
X22475331Y-26756998D01*
X22656642Y-26606471D01*
X22668690Y-26593161D01*
X22764579Y-26451000D01*
X23204669Y-26451000D01*
X23247249Y-26489071D01*
X23262193Y-26499019D01*
X23474888Y-26600470D01*
X23492025Y-26605824D01*
X23724646Y-26643500D01*
X23742596Y-26643829D01*
X23976440Y-26614702D01*
X23993761Y-26609980D01*
X24210032Y-26516392D01*
X24225331Y-26506998D01*
X24406642Y-26356471D01*
X24418690Y-26343161D01*
X24550464Y-26147796D01*
X24558292Y-26131640D01*
X24615942Y-25951000D01*
X27946451Y-25951000D01*
X27946463Y-25950999D01*
X27996982Y-25950999D01*
X28016571Y-25947896D01*
X28060140Y-25933740D01*
X28105399Y-25926571D01*
X28124261Y-25920443D01*
X28165091Y-25899639D01*
X28208660Y-25885483D01*
X28226332Y-25876479D01*
X28263399Y-25849548D01*
X28304222Y-25828748D01*
X28320267Y-25817091D01*
X28456073Y-25681284D01*
X28563281Y-25574076D01*
X28856945Y-25574076D01*
X28867415Y-25691388D01*
X28939009Y-25741145D01*
X28949768Y-25747158D01*
X29142207Y-25831232D01*
X29153929Y-25835040D01*
X29359033Y-25880136D01*
X29371271Y-25881595D01*
X29581229Y-25885993D01*
X29593518Y-25885048D01*
X29800332Y-25848581D01*
X29812202Y-25845266D01*
X30007993Y-25769324D01*
X30018994Y-25763767D01*
X30129232Y-25693809D01*
X30142511Y-25573531D01*
X29552191Y-24983210D01*
X29447809Y-24983210D01*
X28856945Y-25574076D01*
X28563281Y-25574076D01*
X29439548Y-24697809D01*
X29733210Y-24697809D01*
X29733210Y-24802191D01*
X30324287Y-25393267D01*
X30441100Y-25383252D01*
X30487203Y-25317897D01*
X30493291Y-25307181D01*
X30578708Y-25115334D01*
X30582599Y-25103638D01*
X30629222Y-24898423D01*
X30630786Y-24885309D01*
X30634123Y-24646318D01*
X30632926Y-24633165D01*
X30592050Y-24426727D01*
X30588488Y-24414928D01*
X30508461Y-24220770D01*
X30502675Y-24209888D01*
X30442443Y-24119233D01*
X30323645Y-24107375D01*
X29733210Y-24697809D01*
X29439548Y-24697809D01*
X31116000Y-23021358D01*
X31116000Y-26062594D01*
X31047099Y-26016119D01*
X31036257Y-26010257D01*
X30842662Y-25928878D01*
X30830888Y-25925234D01*
X30625173Y-25883006D01*
X30612916Y-25881718D01*
X30402917Y-25880252D01*
X30390643Y-25881369D01*
X30184360Y-25920720D01*
X30172536Y-25924199D01*
X29977824Y-26002868D01*
X29966902Y-26008578D01*
X29791178Y-26123569D01*
X29781572Y-26131292D01*
X29631531Y-26278223D01*
X29623608Y-26287665D01*
X29504963Y-26460942D01*
X29499026Y-26471742D01*
X29443973Y-26600188D01*
X29297099Y-26501119D01*
X29286257Y-26495257D01*
X29092662Y-26413878D01*
X29080888Y-26410234D01*
X28875173Y-26368006D01*
X28862916Y-26366718D01*
X28652917Y-26365252D01*
X28640643Y-26366369D01*
X28434360Y-26405720D01*
X28422536Y-26409199D01*
X28227824Y-26487868D01*
X28216902Y-26493578D01*
X28041178Y-26608569D01*
X28031572Y-26616292D01*
X27881531Y-26763223D01*
X27873608Y-26772665D01*
X27754963Y-26945942D01*
X27749026Y-26956742D01*
X27666296Y-27149763D01*
X27662570Y-27161511D01*
X27618907Y-27366927D01*
X27617533Y-27379175D01*
X27614601Y-27589158D01*
X27615633Y-27601439D01*
X27653542Y-27807994D01*
X27656940Y-27819842D01*
X27667016Y-27845290D01*
X27654010Y-27849516D01*
X27636340Y-27858519D01*
X27599270Y-27885452D01*
X27558448Y-27906252D01*
X27542403Y-27917909D01*
X27506166Y-27954146D01*
X27506152Y-27954159D01*
X26859226Y-28601086D01*
X26734667Y-28618148D01*
X26717405Y-28623081D01*
X26502294Y-28719305D01*
X26487111Y-28728885D01*
X26307653Y-28881616D01*
X26295769Y-28895073D01*
X26166390Y-29092033D01*
X26158760Y-29108284D01*
X26089862Y-29333638D01*
X26087100Y-29351378D01*
X26084222Y-29587013D01*
X26086550Y-29604814D01*
X26149920Y-29831785D01*
X26157151Y-29848217D01*
X26200338Y-29917600D01*
X25906285Y-30211653D01*
X25764700Y-30146232D01*
X25747500Y-30141088D01*
X25612235Y-30120872D01*
X24463684Y-28972322D01*
X24424272Y-28932909D01*
X24408227Y-28921252D01*
X24367404Y-28900452D01*
X24330337Y-28873521D01*
X24312665Y-28864517D01*
X24269096Y-28850361D01*
X24228266Y-28829557D01*
X24209404Y-28823429D01*
X24164145Y-28816260D01*
X24120576Y-28802104D01*
X24100987Y-28799001D01*
X24050468Y-28799001D01*
X24050456Y-28799000D01*
X23198477Y-28799000D01*
X23300464Y-28647796D01*
X23308292Y-28631640D01*
X23380056Y-28406775D01*
X23383050Y-28388289D01*
X23386165Y-28133328D01*
X23383624Y-28114774D01*
X23317376Y-27888223D01*
X23309945Y-27871879D01*
X23182983Y-27673354D01*
X23171264Y-27659753D01*
X22993685Y-27504841D01*
X22978620Y-27495076D01*
X22764700Y-27396232D01*
X22747500Y-27391088D01*
X22514436Y-27356256D01*
X22496483Y-27356147D01*
X22263012Y-27388128D01*
X22245750Y-27393061D01*
X22030639Y-27489285D01*
X22015456Y-27498865D01*
X21956548Y-27549000D01*
X20282530Y-27549000D01*
X20182983Y-27393342D01*
X20171264Y-27379741D01*
X19993685Y-27224829D01*
X19978620Y-27215064D01*
X19764700Y-27116220D01*
X19747500Y-27111076D01*
X19742488Y-27110327D01*
X19743761Y-27109980D01*
X19960032Y-27016392D01*
X19975331Y-27006998D01*
X20156642Y-26856471D01*
X20168690Y-26843161D01*
X20300464Y-26647796D01*
X20308292Y-26631640D01*
X20380056Y-26406775D01*
X20383050Y-26388289D01*
X20386165Y-26133328D01*
X20383624Y-26114774D01*
X20317376Y-25888223D01*
X20309945Y-25871879D01*
X20182983Y-25673354D01*
X20171264Y-25659753D01*
X19993685Y-25504841D01*
X19978620Y-25495076D01*
X19828313Y-25425625D01*
X19817376Y-25388222D01*
X19809945Y-25371879D01*
X19701000Y-25201526D01*
X19701000Y-22011340D01*
X19700999Y-22011328D01*
X19700999Y-21960808D01*
X19697897Y-21941220D01*
X19683740Y-21897651D01*
X19676571Y-21852392D01*
X19670443Y-21833530D01*
X19649642Y-21792706D01*
X19635482Y-21749128D01*
X19626478Y-21731457D01*
X19599547Y-21694390D01*
X19578748Y-21653569D01*
X19567091Y-21637524D01*
X19530853Y-21601286D01*
X19530840Y-21601272D01*
X16251888Y-18322322D01*
X16212476Y-18282909D01*
X16196431Y-18271252D01*
X16155608Y-18250452D01*
X16118541Y-18223521D01*
X16100869Y-18214517D01*
X16057300Y-18200361D01*
X16016470Y-18179557D01*
X15997608Y-18173429D01*
X15952349Y-18166260D01*
X15908780Y-18152104D01*
X15889191Y-18149001D01*
X15838672Y-18149001D01*
X15838660Y-18149000D01*
X15429306Y-18149000D01*
X15378685Y-18104841D01*
X15363620Y-18095076D01*
X15149700Y-17996232D01*
X15132500Y-17991088D01*
X14899436Y-17956256D01*
X14881483Y-17956147D01*
X14648012Y-17988128D01*
X14630750Y-17993061D01*
X14415639Y-18089285D01*
X14400456Y-18098865D01*
X14220998Y-18251596D01*
X14209114Y-18265053D01*
X14079735Y-18462013D01*
X14072105Y-18478264D01*
X14003207Y-18703618D01*
X14000445Y-18721358D01*
X13997567Y-18956993D01*
X13999895Y-18974794D01*
X14063265Y-19201765D01*
X14070496Y-19218198D01*
X14195024Y-19418259D01*
X14206576Y-19432002D01*
X14382249Y-19589071D01*
X14397193Y-19599019D01*
X14609888Y-19700470D01*
X14627025Y-19705824D01*
X14859646Y-19743500D01*
X14877596Y-19743829D01*
X15111440Y-19714702D01*
X15128761Y-19709980D01*
X15345032Y-19616392D01*
X15360331Y-19606998D01*
X15427782Y-19551000D01*
X15497842Y-19551000D01*
X16989978Y-21043137D01*
X16944735Y-21112013D01*
X16937105Y-21128264D01*
X16868207Y-21353618D01*
X16865445Y-21371358D01*
X16865175Y-21393463D01*
X15831528Y-22427110D01*
X15764700Y-22396232D01*
X15747500Y-22391088D01*
X15514436Y-22356256D01*
X15496483Y-22356147D01*
X15263012Y-22388128D01*
X15245750Y-22393061D01*
X15030639Y-22489285D01*
X15015456Y-22498865D01*
X14835998Y-22651596D01*
X14824114Y-22665053D01*
X14694735Y-22862013D01*
X14687105Y-22878264D01*
X14618207Y-23103618D01*
X14615445Y-23121358D01*
X14612567Y-23356993D01*
X14614895Y-23374794D01*
X14678265Y-23601765D01*
X14685496Y-23618198D01*
X14810024Y-23818259D01*
X14821576Y-23832002D01*
X14997249Y-23989071D01*
X15012193Y-23999019D01*
X15224888Y-24100470D01*
X15242025Y-24105824D01*
X15474646Y-24143500D01*
X15492596Y-24143829D01*
X15726440Y-24114702D01*
X15743761Y-24109980D01*
X15960032Y-24016392D01*
X15975331Y-24006998D01*
X16042782Y-23951000D01*
X16050456Y-23951000D01*
X16050468Y-23950999D01*
X16100987Y-23950999D01*
X16120576Y-23947896D01*
X16164145Y-23933740D01*
X16209404Y-23926571D01*
X16228266Y-23920443D01*
X16269096Y-23899639D01*
X16312665Y-23885483D01*
X16330337Y-23876479D01*
X16367404Y-23849548D01*
X16408227Y-23828748D01*
X16424272Y-23817091D01*
X17862463Y-22378899D01*
X17976440Y-22364702D01*
X17993761Y-22359980D01*
X18210031Y-22266392D01*
X18212015Y-22265174D01*
X18299001Y-22352160D01*
X18299000Y-25203284D01*
X18194735Y-25362013D01*
X18187105Y-25378264D01*
X18134905Y-25549000D01*
X17982838Y-25549000D01*
X17982826Y-25549001D01*
X17932307Y-25549001D01*
X17912718Y-25552104D01*
X17869149Y-25566260D01*
X17823890Y-25573429D01*
X17805028Y-25579557D01*
X17764200Y-25600360D01*
X17720628Y-25614517D01*
X17702956Y-25623522D01*
X17665892Y-25650451D01*
X17625067Y-25671252D01*
X17609022Y-25682909D01*
X16639149Y-26652782D01*
X16639136Y-26652796D01*
X16602900Y-26689032D01*
X16591243Y-26705077D01*
X16570443Y-26745899D01*
X16543510Y-26782969D01*
X16534506Y-26800640D01*
X16520348Y-26844212D01*
X16499546Y-26885039D01*
X16493418Y-26903901D01*
X16486249Y-26949160D01*
X16472093Y-26992729D01*
X16468990Y-27012318D01*
X16468990Y-27062837D01*
X16468989Y-27062849D01*
X16468989Y-27405033D01*
X16280639Y-27489285D01*
X16265456Y-27498865D01*
X16085998Y-27651596D01*
X16074114Y-27665053D01*
X15944735Y-27862013D01*
X15937105Y-27878264D01*
X15868207Y-28103618D01*
X15865445Y-28121358D01*
X15862567Y-28356993D01*
X15864895Y-28374794D01*
X15928265Y-28601765D01*
X15935496Y-28618198D01*
X16060024Y-28818259D01*
X16071576Y-28832002D01*
X16247249Y-28989071D01*
X16262193Y-28999019D01*
X16474888Y-29100470D01*
X16492025Y-29105824D01*
X16724646Y-29143500D01*
X16742596Y-29143829D01*
X16976440Y-29114702D01*
X16993761Y-29109980D01*
X17210032Y-29016392D01*
X17225331Y-29006998D01*
X17406642Y-28856471D01*
X17418690Y-28843161D01*
X17550464Y-28647796D01*
X17558292Y-28631640D01*
X17630056Y-28406775D01*
X17633050Y-28388289D01*
X17633421Y-28357942D01*
X17700829Y-28290535D01*
X17700842Y-28290521D01*
X17737079Y-28254284D01*
X17748736Y-28238239D01*
X17769536Y-28197417D01*
X17796469Y-28160347D01*
X17805472Y-28142677D01*
X17819629Y-28099106D01*
X17840432Y-28058278D01*
X17846560Y-28039416D01*
X17853729Y-27994156D01*
X17867886Y-27950587D01*
X17870988Y-27930999D01*
X17870988Y-27880479D01*
X17870989Y-27880467D01*
X17870989Y-27403667D01*
X18323656Y-26951000D01*
X18954669Y-26951000D01*
X18997249Y-26989071D01*
X19012193Y-26999019D01*
X19224888Y-27100470D01*
X19242025Y-27105824D01*
X19260539Y-27108823D01*
X19245750Y-27113049D01*
X19030639Y-27209273D01*
X19015456Y-27218853D01*
X18835998Y-27371584D01*
X18824114Y-27385041D01*
X18694735Y-27582001D01*
X18687105Y-27598252D01*
X18618207Y-27823606D01*
X18615445Y-27841346D01*
X18615175Y-27863450D01*
X16679626Y-29799000D01*
X14794306Y-29799000D01*
X14743685Y-29754841D01*
X14728620Y-29745076D01*
X14514700Y-29646232D01*
X14497500Y-29641088D01*
X14264436Y-29606256D01*
X14246483Y-29606147D01*
X14013012Y-29638128D01*
X13995750Y-29643061D01*
X13780639Y-29739285D01*
X13765456Y-29748865D01*
X13585998Y-29901596D01*
X13574114Y-29915053D01*
X13444735Y-30112013D01*
X13437105Y-30128264D01*
X13368207Y-30353618D01*
X13365445Y-30371358D01*
X13362567Y-30606993D01*
X13364895Y-30624794D01*
X13428265Y-30851765D01*
X13435496Y-30868198D01*
X13560024Y-31068259D01*
X13571576Y-31082002D01*
X13747249Y-31239071D01*
X13762193Y-31249019D01*
X13974888Y-31350470D01*
X13992025Y-31355824D01*
X14224646Y-31393500D01*
X14242596Y-31393829D01*
X14476440Y-31364702D01*
X14493761Y-31359980D01*
X14710032Y-31266392D01*
X14725331Y-31256998D01*
X14792782Y-31201000D01*
X15379482Y-31201000D01*
X15377577Y-31356993D01*
X15379905Y-31374794D01*
X15443275Y-31601765D01*
X15450506Y-31618198D01*
X15575034Y-31818259D01*
X15586586Y-31832002D01*
X15762259Y-31989071D01*
X15777203Y-31999019D01*
X15989898Y-32100470D01*
X16007035Y-32105824D01*
X16239656Y-32143500D01*
X16257606Y-32143829D01*
X16491450Y-32114702D01*
X16508771Y-32109980D01*
X16725042Y-32016392D01*
X16740341Y-32006998D01*
X16921652Y-31856471D01*
X16933700Y-31843161D01*
X17029587Y-31701001D01*
X17746648Y-31701001D01*
X17744559Y-31872003D01*
X17746887Y-31889804D01*
X17810257Y-32116775D01*
X17817488Y-32133208D01*
X17942016Y-32333269D01*
X17953568Y-32347012D01*
X18129241Y-32504081D01*
X18144185Y-32514029D01*
X18356880Y-32615480D01*
X18374017Y-32620834D01*
X18606638Y-32658510D01*
X18624588Y-32658839D01*
X18858432Y-32629712D01*
X18875753Y-32624990D01*
X18896882Y-32615847D01*
X18873522Y-32647999D01*
X18864518Y-32665670D01*
X18850360Y-32709245D01*
X18829559Y-32750069D01*
X18823431Y-32768931D01*
X18816263Y-32814184D01*
X18802105Y-32857759D01*
X18799002Y-32877348D01*
X18799002Y-32933084D01*
X18799001Y-39380456D01*
X18799002Y-39380468D01*
X18799002Y-39430988D01*
X18802104Y-39450576D01*
X18816261Y-39494145D01*
X18823430Y-39539404D01*
X18829558Y-39558266D01*
X18850359Y-39599091D01*
X18864518Y-39642667D01*
X18873522Y-39660337D01*
X18900450Y-39697401D01*
X18921253Y-39738229D01*
X18932911Y-39754274D01*
X19732604Y-40553966D01*
X19732567Y-40556992D01*
X19734895Y-40574794D01*
X19798265Y-40801765D01*
X19805496Y-40818198D01*
X19930024Y-41018259D01*
X19941576Y-41032002D01*
X20117249Y-41189071D01*
X20132193Y-41199019D01*
X20344889Y-41300470D01*
X20362025Y-41305824D01*
X20508125Y-41329487D01*
X21709476Y-42530840D01*
X21709490Y-42530853D01*
X21745727Y-42567090D01*
X21761772Y-42578747D01*
X21802594Y-42599547D01*
X21839664Y-42626480D01*
X21857334Y-42635483D01*
X21900905Y-42649640D01*
X21941733Y-42670443D01*
X21960595Y-42676571D01*
X22005855Y-42683740D01*
X22049424Y-42697897D01*
X22069012Y-42700999D01*
X22119532Y-42700999D01*
X22119544Y-42701000D01*
X22911191Y-42701000D01*
X22224535Y-43387656D01*
X22134923Y-43374263D01*
X22133624Y-43364775D01*
X22067376Y-43138223D01*
X22059945Y-43121879D01*
X21932983Y-42923354D01*
X21921264Y-42909753D01*
X21743685Y-42754841D01*
X21728620Y-42745076D01*
X21514700Y-42646232D01*
X21497500Y-42641088D01*
X21264436Y-42606256D01*
X21246483Y-42606147D01*
X21013012Y-42638128D01*
X20995750Y-42643061D01*
X20780639Y-42739285D01*
X20765456Y-42748865D01*
X20585998Y-42901596D01*
X20574114Y-42915053D01*
X20444735Y-43112013D01*
X20437105Y-43128264D01*
X20368207Y-43353618D01*
X20365445Y-43371358D01*
X20362567Y-43606993D01*
X20364895Y-43624794D01*
X20428265Y-43851765D01*
X20435496Y-43868198D01*
X20560024Y-44068259D01*
X20571576Y-44082002D01*
X20747249Y-44239071D01*
X20762193Y-44249019D01*
X20974889Y-44350470D01*
X20992025Y-44355824D01*
X21115167Y-44375768D01*
X21178265Y-44601765D01*
X21185496Y-44618198D01*
X21310024Y-44818259D01*
X21321576Y-44832002D01*
X21497249Y-44989071D01*
X21512193Y-44999019D01*
X21724888Y-45100470D01*
X21742025Y-45105824D01*
X21974646Y-45143500D01*
X21992596Y-45143829D01*
X22226440Y-45114702D01*
X22243761Y-45109980D01*
X22460032Y-45016392D01*
X22475331Y-45006998D01*
X22578153Y-44921634D01*
X22581819Y-44920443D01*
X22622649Y-44899639D01*
X22666218Y-44885483D01*
X22683890Y-44876479D01*
X22690041Y-44872010D01*
X22687105Y-44878264D01*
X22618207Y-45103618D01*
X22615445Y-45121358D01*
X22612567Y-45356993D01*
X22614895Y-45374794D01*
X22678265Y-45601765D01*
X22685496Y-45618198D01*
X22810024Y-45818259D01*
X22821576Y-45832002D01*
X22997249Y-45989071D01*
X23012193Y-45999019D01*
X23224888Y-46100470D01*
X23242025Y-46105824D01*
X23449457Y-46139421D01*
X23480905Y-46149638D01*
X23521732Y-46170441D01*
X23540594Y-46176570D01*
X23585853Y-46183739D01*
X23629422Y-46197895D01*
X23649011Y-46200998D01*
X23699531Y-46200998D01*
X23699543Y-46200999D01*
X24806123Y-46200999D01*
X24756370Y-46357842D01*
X24753760Y-46370338D01*
X24736345Y-46536011D01*
X24736000Y-46542601D01*
X24736000Y-46788191D01*
X24809809Y-46862000D01*
X25618192Y-46862001D01*
X25618193Y-46862000D01*
X25948000Y-46862001D01*
X25947999Y-48377013D01*
X26049045Y-48452605D01*
X26183163Y-48413132D01*
X26183163Y-48433258D01*
X26185319Y-48449634D01*
X26260137Y-48728859D01*
X26272880Y-48753339D01*
X26403990Y-48909590D01*
X26420879Y-48923761D01*
X26595120Y-49024359D01*
X26615837Y-49031900D01*
X26808538Y-49065878D01*
X26819499Y-49066837D01*
X28183258Y-49066837D01*
X28199634Y-49064681D01*
X28478859Y-48989863D01*
X28503339Y-48977120D01*
X28659590Y-48846010D01*
X28673761Y-48829121D01*
X28698829Y-48785701D01*
X28765140Y-48839398D01*
X28774746Y-48845817D01*
X28975971Y-48955073D01*
X28986587Y-48959634D01*
X29204354Y-49030391D01*
X29215623Y-49032941D01*
X29286156Y-49042226D01*
X29372000Y-48966943D01*
X29372001Y-47951808D01*
X29372000Y-47951807D01*
X29372000Y-47548192D01*
X29627999Y-47548192D01*
X29628000Y-47548193D01*
X29627999Y-48966836D01*
X29723988Y-49042508D01*
X29916924Y-48996187D01*
X29927863Y-48992473D01*
X30137041Y-48899342D01*
X30147122Y-48893697D01*
X30335825Y-48764004D01*
X30344708Y-48756616D01*
X30506616Y-48594708D01*
X30514004Y-48585825D01*
X30643697Y-48397122D01*
X30649342Y-48387041D01*
X30683163Y-48311077D01*
X30683163Y-48433258D01*
X30685319Y-48449634D01*
X30760137Y-48728859D01*
X30772880Y-48753339D01*
X30903990Y-48909590D01*
X30920879Y-48923761D01*
X31095120Y-49024359D01*
X31115837Y-49031900D01*
X31308538Y-49065878D01*
X31319499Y-49066837D01*
X32683258Y-49066837D01*
X32699634Y-49064681D01*
X32978859Y-48989863D01*
X33003339Y-48977120D01*
X33159590Y-48846010D01*
X33173761Y-48829121D01*
X33198829Y-48785701D01*
X33265140Y-48839398D01*
X33274746Y-48845817D01*
X33475971Y-48955073D01*
X33486587Y-48959634D01*
X33704354Y-49030391D01*
X33715623Y-49032941D01*
X33786156Y-49042226D01*
X33872000Y-48966943D01*
X33872001Y-47951808D01*
X33872000Y-47951807D01*
X33872001Y-46531104D01*
X33773409Y-46455451D01*
X33550598Y-46515154D01*
X33539758Y-46519152D01*
X33333091Y-46617728D01*
X33323162Y-46623635D01*
X33199362Y-46713581D01*
X33096010Y-46590410D01*
X33079121Y-46576239D01*
X32904880Y-46475641D01*
X32884163Y-46468100D01*
X32691462Y-46434122D01*
X32680501Y-46433163D01*
X31316742Y-46433163D01*
X31300366Y-46435319D01*
X31021142Y-46510137D01*
X30996662Y-46522880D01*
X30840410Y-46653990D01*
X30826239Y-46670879D01*
X30725641Y-46845120D01*
X30718100Y-46865837D01*
X30684122Y-47058538D01*
X30683163Y-47069499D01*
X30683163Y-47179340D01*
X30681107Y-47173984D01*
X30675997Y-47163622D01*
X30556358Y-46968390D01*
X30549446Y-46959132D01*
X30396232Y-46788972D01*
X30387748Y-46781129D01*
X30206091Y-46641739D01*
X30196320Y-46635574D01*
X29992303Y-46531622D01*
X29981572Y-46527340D01*
X29729222Y-46452591D01*
X29628000Y-46528177D01*
X29627999Y-47548192D01*
X29372000Y-47548192D01*
X29372001Y-46531104D01*
X29273409Y-46455451D01*
X29134830Y-46492584D01*
X29136165Y-46383328D01*
X29133624Y-46364774D01*
X29067376Y-46138223D01*
X29059945Y-46121879D01*
X28951000Y-45951526D01*
X28951000Y-44318104D01*
X28967070Y-44294279D01*
X29109963Y-44317423D01*
X29127913Y-44317752D01*
X29361757Y-44288625D01*
X29379078Y-44283903D01*
X29595349Y-44190315D01*
X29610648Y-44180921D01*
X29791959Y-44030394D01*
X29804007Y-44017084D01*
X29935781Y-43821719D01*
X29943609Y-43805563D01*
X30015373Y-43580698D01*
X30018367Y-43562212D01*
X30021482Y-43307251D01*
X30018941Y-43288697D01*
X29952693Y-43062146D01*
X29951000Y-43058422D01*
X29951000Y-42795260D01*
X30050465Y-42647796D01*
X30058292Y-42631640D01*
X30130056Y-42406775D01*
X30133050Y-42388289D01*
X30136165Y-42133328D01*
X30133624Y-42114774D01*
X30067376Y-41888223D01*
X30059945Y-41871879D01*
X29985653Y-41755711D01*
X30030841Y-41710523D01*
X30030854Y-41710509D01*
X30067091Y-41674272D01*
X30078748Y-41658227D01*
X30099547Y-41617405D01*
X30126479Y-41580338D01*
X30135483Y-41562666D01*
X30149640Y-41519094D01*
X30170443Y-41478266D01*
X30176571Y-41459404D01*
X30183740Y-41414145D01*
X30197896Y-41370576D01*
X30200999Y-41350987D01*
X30200999Y-41300468D01*
X30201000Y-41300456D01*
X30201000Y-36389670D01*
X30224646Y-36393500D01*
X30242596Y-36393829D01*
X30283998Y-36388672D01*
X30283998Y-43035453D01*
X30283999Y-43035465D01*
X30283999Y-43085985D01*
X30287101Y-43105573D01*
X30301258Y-43149142D01*
X30308427Y-43194401D01*
X30314555Y-43213263D01*
X30335356Y-43254088D01*
X30349515Y-43297664D01*
X30358519Y-43315334D01*
X30385447Y-43352398D01*
X30406250Y-43393226D01*
X30417908Y-43409271D01*
X30612604Y-43603966D01*
X30612567Y-43606992D01*
X30614895Y-43624794D01*
X30678265Y-43851765D01*
X30685496Y-43868198D01*
X30810024Y-44068259D01*
X30821576Y-44082002D01*
X30997249Y-44239071D01*
X31012193Y-44249019D01*
X31224888Y-44350470D01*
X31242025Y-44355824D01*
X31474646Y-44393500D01*
X31492596Y-44393829D01*
X31726440Y-44364702D01*
X31743761Y-44359980D01*
X31960032Y-44266392D01*
X31975331Y-44256998D01*
X32156642Y-44106471D01*
X32168690Y-44093161D01*
X32300464Y-43897796D01*
X32308292Y-43881640D01*
X32380056Y-43656775D01*
X32383050Y-43638289D01*
X32385504Y-43437415D01*
X32410906Y-43426423D01*
X32426205Y-43417029D01*
X32607516Y-43266502D01*
X32619564Y-43253192D01*
X32751338Y-43057827D01*
X32759166Y-43041671D01*
X32830930Y-42816806D01*
X32833924Y-42798320D01*
X32834295Y-42767972D01*
X33324919Y-42277348D01*
X33424646Y-42293500D01*
X33442596Y-42293829D01*
X33676440Y-42264702D01*
X33693761Y-42259980D01*
X33910032Y-42166392D01*
X33925331Y-42156998D01*
X34106642Y-42006471D01*
X34118690Y-41993161D01*
X34250464Y-41797796D01*
X34258292Y-41781640D01*
X34330056Y-41556775D01*
X34333050Y-41538289D01*
X34336165Y-41283328D01*
X34333624Y-41264774D01*
X34267376Y-41038223D01*
X34259945Y-41021879D01*
X34132983Y-40823354D01*
X34121264Y-40809753D01*
X33943685Y-40654841D01*
X33928620Y-40645076D01*
X33714700Y-40546232D01*
X33697500Y-40541088D01*
X33464436Y-40506256D01*
X33446483Y-40506147D01*
X33213012Y-40538128D01*
X33195750Y-40543061D01*
X32980639Y-40639285D01*
X32965456Y-40648865D01*
X32785998Y-40801596D01*
X32774114Y-40815052D01*
X32715962Y-40903579D01*
X31838445Y-41781097D01*
X31713886Y-41798159D01*
X31696625Y-41803092D01*
X31685998Y-41807846D01*
X31685998Y-39619739D01*
X31726440Y-39614702D01*
X31743761Y-39609980D01*
X31960032Y-39516392D01*
X31975331Y-39506998D01*
X32042782Y-39451000D01*
X32454669Y-39451000D01*
X32497249Y-39489071D01*
X32512193Y-39499019D01*
X32724888Y-39600470D01*
X32742025Y-39605824D01*
X32974646Y-39643500D01*
X32992596Y-39643829D01*
X33226440Y-39614702D01*
X33243761Y-39609980D01*
X33460032Y-39516392D01*
X33475331Y-39506998D01*
X33656642Y-39356471D01*
X33668690Y-39343161D01*
X33800464Y-39147796D01*
X33808292Y-39131640D01*
X33880056Y-38906775D01*
X33883050Y-38888289D01*
X33886165Y-38633328D01*
X33883624Y-38614774D01*
X33817376Y-38388223D01*
X33809945Y-38371879D01*
X33682983Y-38173354D01*
X33671264Y-38159753D01*
X33493685Y-38004841D01*
X33478620Y-37995076D01*
X33264700Y-37896232D01*
X33247500Y-37891088D01*
X33014436Y-37856256D01*
X32996483Y-37856147D01*
X32763012Y-37888128D01*
X32745750Y-37893061D01*
X32530639Y-37989285D01*
X32515456Y-37998865D01*
X32456548Y-38049000D01*
X32044306Y-38049000D01*
X31993685Y-38004841D01*
X31978620Y-37995076D01*
X31764700Y-37896232D01*
X31747500Y-37891088D01*
X31685998Y-37881896D01*
X31685998Y-36869739D01*
X31726440Y-36864702D01*
X31743761Y-36859980D01*
X31960032Y-36766392D01*
X31975331Y-36756998D01*
X32156642Y-36606471D01*
X32168690Y-36593161D01*
X32300464Y-36397796D01*
X32308292Y-36381640D01*
X32380056Y-36156775D01*
X32383050Y-36138289D01*
X32383937Y-36065699D01*
X32385483Y-36062666D01*
X32399640Y-36019095D01*
X32420443Y-35978267D01*
X32426571Y-35959405D01*
X32433740Y-35914145D01*
X32447897Y-35870576D01*
X32450999Y-35850988D01*
X32450999Y-35800468D01*
X32451000Y-35800456D01*
X32451000Y-34897574D01*
X32456018Y-34893653D01*
X32608098Y-34748831D01*
X32616151Y-34739501D01*
X32737204Y-34567897D01*
X32743291Y-34557181D01*
X32828708Y-34365334D01*
X32832599Y-34353638D01*
X32879222Y-34148423D01*
X32880786Y-34135309D01*
X32884123Y-33896318D01*
X32882926Y-33883165D01*
X32842050Y-33676727D01*
X32838488Y-33664928D01*
X32758461Y-33470770D01*
X32752675Y-33459888D01*
X32636461Y-33284972D01*
X32628671Y-33275421D01*
X32480696Y-33126408D01*
X32471199Y-33118552D01*
X32297099Y-33001119D01*
X32286257Y-32995257D01*
X32092662Y-32913878D01*
X32080888Y-32910234D01*
X31875173Y-32868006D01*
X31862916Y-32866718D01*
X31685998Y-32865483D01*
X31685998Y-32633661D01*
X31707593Y-32633793D01*
X31710379Y-32634000D01*
X31741463Y-32634000D01*
X31827859Y-32634527D01*
X31831707Y-32634000D01*
X34866000Y-32634000D01*
X34866001Y-46764442D01*
X34706091Y-46641739D01*
X34696320Y-46635574D01*
X34492303Y-46531622D01*
X34481572Y-46527340D01*
X34229222Y-46452591D01*
X34128000Y-46528177D01*
X34127999Y-47548192D01*
X34128000Y-47548193D01*
X34127999Y-48966836D01*
X34223988Y-49042508D01*
X34416924Y-48996187D01*
X34427863Y-48992473D01*
X34637041Y-48899342D01*
X34647122Y-48893697D01*
X34835825Y-48764004D01*
X34844708Y-48756616D01*
X34866001Y-48735323D01*
X34866001Y-49366000D01*
X12634000Y-49366000D01*
X12634000Y-47191808D01*
X16096000Y-47191808D01*
X16096000Y-47440350D01*
X16096301Y-47446502D01*
X16110901Y-47595404D01*
X16113295Y-47607495D01*
X16171159Y-47799149D01*
X16175855Y-47810543D01*
X16269843Y-47987308D01*
X16276663Y-47997574D01*
X16403194Y-48152717D01*
X16411878Y-48161463D01*
X16566134Y-48289074D01*
X16576352Y-48295966D01*
X16752456Y-48391185D01*
X16763819Y-48395961D01*
X16949542Y-48453451D01*
X17052000Y-48377912D01*
X17052000Y-48377013D01*
X17307999Y-48377013D01*
X17409045Y-48452605D01*
X17582095Y-48401674D01*
X17593522Y-48397057D01*
X17770940Y-48304306D01*
X17781254Y-48297557D01*
X17937275Y-48172111D01*
X17946080Y-48163488D01*
X18074766Y-48010128D01*
X18081729Y-47999958D01*
X18178175Y-47824523D01*
X18183031Y-47813195D01*
X18243631Y-47622157D01*
X18246242Y-47609662D01*
X18263655Y-47443988D01*
X18264000Y-47437398D01*
X18264000Y-47319499D01*
X19183163Y-47319499D01*
X19183163Y-48683258D01*
X19185319Y-48699634D01*
X19260137Y-48978859D01*
X19272880Y-49003339D01*
X19403990Y-49159590D01*
X19420879Y-49173761D01*
X19595120Y-49274359D01*
X19615837Y-49281900D01*
X19808538Y-49315878D01*
X19819499Y-49316837D01*
X21183258Y-49316837D01*
X21199634Y-49314681D01*
X21478859Y-49239863D01*
X21503339Y-49227120D01*
X21659590Y-49096010D01*
X21673761Y-49079121D01*
X21698829Y-49035701D01*
X21765140Y-49089398D01*
X21774746Y-49095817D01*
X21975971Y-49205073D01*
X21986587Y-49209634D01*
X22204354Y-49280391D01*
X22215622Y-49282941D01*
X22442638Y-49312828D01*
X22454183Y-49313282D01*
X22682842Y-49301298D01*
X22694276Y-49299640D01*
X22916923Y-49246187D01*
X22927863Y-49242473D01*
X23137041Y-49149342D01*
X23147122Y-49143697D01*
X23335825Y-49014004D01*
X23344708Y-49006616D01*
X23506616Y-48844708D01*
X23514004Y-48835825D01*
X23643697Y-48647122D01*
X23649342Y-48637041D01*
X23742473Y-48427863D01*
X23746187Y-48416923D01*
X23799833Y-48193472D01*
X23801557Y-48180379D01*
X23809214Y-47887987D01*
X23808177Y-47874821D01*
X23766299Y-47648868D01*
X23763163Y-47637749D01*
X23681107Y-47423984D01*
X23675997Y-47413622D01*
X23556358Y-47218390D01*
X23549446Y-47209132D01*
X23533848Y-47191808D01*
X24736000Y-47191808D01*
X24736000Y-47440350D01*
X24736301Y-47446502D01*
X24750901Y-47595404D01*
X24753295Y-47607495D01*
X24811159Y-47799149D01*
X24815855Y-47810543D01*
X24909843Y-47987308D01*
X24916663Y-47997574D01*
X25043194Y-48152717D01*
X25051878Y-48161463D01*
X25206134Y-48289074D01*
X25216352Y-48295966D01*
X25392456Y-48391185D01*
X25403819Y-48395961D01*
X25589542Y-48453451D01*
X25692000Y-48377912D01*
X25692001Y-47191809D01*
X25618192Y-47118000D01*
X24809809Y-47117999D01*
X24736000Y-47191808D01*
X23533848Y-47191808D01*
X23396232Y-47038972D01*
X23387748Y-47031129D01*
X23206091Y-46891739D01*
X23196320Y-46885574D01*
X22992303Y-46781622D01*
X22981572Y-46777340D01*
X22762028Y-46712308D01*
X22750696Y-46710054D01*
X22522976Y-46686120D01*
X22511424Y-46685969D01*
X22283156Y-46703934D01*
X22271770Y-46705890D01*
X22050598Y-46765154D01*
X22039758Y-46769152D01*
X21833091Y-46867728D01*
X21823162Y-46873635D01*
X21699362Y-46963581D01*
X21596010Y-46840410D01*
X21579121Y-46826239D01*
X21404880Y-46725641D01*
X21384163Y-46718100D01*
X21191462Y-46684122D01*
X21180501Y-46683163D01*
X19816742Y-46683163D01*
X19800366Y-46685319D01*
X19521142Y-46760137D01*
X19496662Y-46772880D01*
X19340410Y-46903990D01*
X19326239Y-46920879D01*
X19225641Y-47095120D01*
X19218100Y-47115837D01*
X19184122Y-47308538D01*
X19183163Y-47319499D01*
X18264000Y-47319499D01*
X18264000Y-47191809D01*
X18190191Y-47118000D01*
X17381809Y-47117999D01*
X17308000Y-47191808D01*
X17307999Y-48377013D01*
X17052000Y-48377013D01*
X17052001Y-47191809D01*
X16978192Y-47118000D01*
X16169809Y-47117999D01*
X16096000Y-47191808D01*
X12634000Y-47191808D01*
X12634000Y-46542601D01*
X16096000Y-46542601D01*
X16096000Y-46788191D01*
X16169809Y-46862000D01*
X16978191Y-46862001D01*
X17052000Y-46788192D01*
X17052000Y-46788191D01*
X17307999Y-46788191D01*
X17381808Y-46862000D01*
X18190191Y-46862001D01*
X18264000Y-46788192D01*
X18264000Y-46539650D01*
X18263699Y-46533498D01*
X18249099Y-46384595D01*
X18246705Y-46372504D01*
X18188841Y-46180850D01*
X18184144Y-46169456D01*
X18090157Y-45992692D01*
X18083337Y-45982426D01*
X17956806Y-45827283D01*
X17948122Y-45818537D01*
X17793866Y-45690926D01*
X17783648Y-45684034D01*
X17607544Y-45588815D01*
X17596181Y-45584039D01*
X17410458Y-45526549D01*
X17308000Y-45602088D01*
X17307999Y-46788191D01*
X17052000Y-46788191D01*
X17052001Y-45602987D01*
X16950955Y-45527395D01*
X16777905Y-45578326D01*
X16766478Y-45582943D01*
X16589061Y-45675694D01*
X16578747Y-45682443D01*
X16422726Y-45807889D01*
X16413921Y-45816512D01*
X16285235Y-45969872D01*
X16278272Y-45980042D01*
X16181826Y-46155477D01*
X16176970Y-46166805D01*
X16116370Y-46357842D01*
X16113760Y-46370338D01*
X16096345Y-46536011D01*
X16096000Y-46542601D01*
X12634000Y-46542601D01*
X12634000Y-35106993D01*
X13112567Y-35106993D01*
X13114895Y-35124794D01*
X13178265Y-35351765D01*
X13185496Y-35368198D01*
X13299000Y-35550548D01*
X13299001Y-44703282D01*
X13194735Y-44862013D01*
X13187105Y-44878264D01*
X13118207Y-45103618D01*
X13115445Y-45121358D01*
X13112567Y-45356993D01*
X13114895Y-45374794D01*
X13178265Y-45601765D01*
X13185496Y-45618198D01*
X13310024Y-45818259D01*
X13321576Y-45832002D01*
X13497249Y-45989071D01*
X13512193Y-45999019D01*
X13724888Y-46100470D01*
X13742025Y-46105824D01*
X13974646Y-46143500D01*
X13992596Y-46143829D01*
X14226440Y-46114702D01*
X14243761Y-46109980D01*
X14460032Y-46016392D01*
X14475331Y-46006998D01*
X14656642Y-45856471D01*
X14668690Y-45843161D01*
X14800464Y-45647796D01*
X14808292Y-45631640D01*
X14880056Y-45406775D01*
X14883050Y-45388289D01*
X14886165Y-45133328D01*
X14883624Y-45114774D01*
X14817376Y-44888223D01*
X14809945Y-44871879D01*
X14701000Y-44701526D01*
X14701000Y-43021808D01*
X16096000Y-43021808D01*
X16096000Y-43420350D01*
X16096301Y-43426502D01*
X16110901Y-43575404D01*
X16113295Y-43587495D01*
X16171159Y-43779149D01*
X16175855Y-43790543D01*
X16269843Y-43967308D01*
X16276663Y-43977574D01*
X16403194Y-44132717D01*
X16411878Y-44141463D01*
X16566134Y-44269074D01*
X16576352Y-44275966D01*
X16752456Y-44371185D01*
X16763819Y-44375961D01*
X16949542Y-44433451D01*
X17052000Y-44357912D01*
X17052001Y-43021809D01*
X16978192Y-42948000D01*
X16169809Y-42947999D01*
X16096000Y-43021808D01*
X14701000Y-43021808D01*
X14701000Y-42222602D01*
X16096001Y-42222602D01*
X16096001Y-42618191D01*
X16169810Y-42692000D01*
X16978191Y-42692001D01*
X17052000Y-42618192D01*
X17307999Y-42618192D01*
X17308000Y-42618193D01*
X17307999Y-44357013D01*
X17409045Y-44432605D01*
X17582095Y-44381674D01*
X17593522Y-44377057D01*
X17770940Y-44284306D01*
X17781254Y-44277557D01*
X17937275Y-44152111D01*
X17946080Y-44143488D01*
X18035477Y-44036950D01*
X18089883Y-44081958D01*
X18101672Y-44089673D01*
X18276049Y-44177757D01*
X18289255Y-44182668D01*
X18478814Y-44229930D01*
X18492779Y-44231794D01*
X18688098Y-44235886D01*
X18702130Y-44234609D01*
X18893502Y-44195325D01*
X18906901Y-44190971D01*
X19084814Y-44110267D01*
X19096916Y-44103053D01*
X19252529Y-43984937D01*
X19262732Y-43975220D01*
X19388308Y-43825564D01*
X19396104Y-43813829D01*
X19485404Y-43640071D01*
X19490408Y-43626900D01*
X19539102Y-43437247D01*
X19541082Y-43422407D01*
X19544137Y-43203637D01*
X19542572Y-43188748D01*
X19499192Y-42997810D01*
X19494559Y-42984505D01*
X19410145Y-42808320D01*
X19402679Y-42796372D01*
X19281330Y-42643268D01*
X19271402Y-42633270D01*
X19119149Y-42510856D01*
X19107253Y-42503307D01*
X18931663Y-42417666D01*
X18918391Y-42412940D01*
X18728190Y-42368328D01*
X18714200Y-42366660D01*
X18518843Y-42365296D01*
X18504831Y-42366769D01*
X18314025Y-42408720D01*
X18300688Y-42413260D01*
X18264000Y-42430524D01*
X18264000Y-42219649D01*
X18263699Y-42213497D01*
X18249099Y-42064595D01*
X18246705Y-42052504D01*
X18188841Y-41860850D01*
X18184144Y-41849456D01*
X18090157Y-41672692D01*
X18083337Y-41662426D01*
X17956806Y-41507283D01*
X17948122Y-41498537D01*
X17793866Y-41370926D01*
X17783648Y-41364034D01*
X17607544Y-41268815D01*
X17596181Y-41264039D01*
X17410458Y-41206549D01*
X17308000Y-41282088D01*
X17307999Y-42618192D01*
X17052000Y-42618192D01*
X17052001Y-41282987D01*
X16950955Y-41207395D01*
X16777905Y-41258326D01*
X16766478Y-41262943D01*
X16589061Y-41355694D01*
X16578747Y-41362443D01*
X16422726Y-41487889D01*
X16413921Y-41496512D01*
X16285235Y-41649872D01*
X16278272Y-41660042D01*
X16181826Y-41835477D01*
X16176970Y-41846805D01*
X16116370Y-42037843D01*
X16113759Y-42050338D01*
X16096346Y-42216012D01*
X16096001Y-42222602D01*
X14701000Y-42222602D01*
X14701000Y-35545260D01*
X14800465Y-35397796D01*
X14808292Y-35381640D01*
X14880056Y-35156775D01*
X14883050Y-35138289D01*
X14886165Y-34883328D01*
X14883624Y-34864774D01*
X14817376Y-34638223D01*
X14809945Y-34621879D01*
X14682983Y-34423354D01*
X14671264Y-34409753D01*
X14493685Y-34254841D01*
X14478620Y-34245076D01*
X14264700Y-34146232D01*
X14247500Y-34141088D01*
X14014436Y-34106256D01*
X13996483Y-34106147D01*
X13763012Y-34138128D01*
X13745750Y-34143061D01*
X13530639Y-34239285D01*
X13515456Y-34248865D01*
X13335998Y-34401596D01*
X13324114Y-34415053D01*
X13194735Y-34612013D01*
X13187105Y-34628264D01*
X13118207Y-34853618D01*
X13115445Y-34871358D01*
X13112567Y-35106993D01*
X12634000Y-35106993D01*
X12634000Y-13134000D01*
X16114233Y-13134000D01*
X16090410Y-13153990D01*
G37*
%TD.AperFunction*%
X28247249Y-34489071D02*
X28262193Y-34499019D01*
X28474888Y-34600470D01*
X28492025Y-34605824D01*
X28724646Y-34643500D01*
X28742596Y-34643829D01*
X28799001Y-34636804D01*
X28799001Y-34883198D01*
X28763012Y-34888128D01*
X28745750Y-34893061D01*
X28530639Y-34989285D01*
X28515456Y-34998865D01*
X28456548Y-35049000D01*
X27516701Y-35049000D01*
X27516689Y-35049001D01*
X27466169Y-35049001D01*
X27446580Y-35052104D01*
X27403011Y-35066260D01*
X27357752Y-35073429D01*
X27338890Y-35079558D01*
X27298064Y-35100360D01*
X27297997Y-35100382D01*
X27089333Y-35128965D01*
X27072071Y-35133898D01*
X26856959Y-35230122D01*
X26841776Y-35239702D01*
X26662318Y-35392433D01*
X26650434Y-35405890D01*
X26521055Y-35602850D01*
X26513425Y-35619101D01*
X26444527Y-35844455D01*
X26441765Y-35862195D01*
X26438887Y-36097830D01*
X26441215Y-36115631D01*
X26504585Y-36342602D01*
X26511816Y-36359035D01*
X26636344Y-36559096D01*
X26647896Y-36572839D01*
X26823569Y-36729908D01*
X26838513Y-36739856D01*
X27051208Y-36841307D01*
X27068345Y-36846661D01*
X27300966Y-36884337D01*
X27318916Y-36884666D01*
X27552760Y-36855539D01*
X27570081Y-36850817D01*
X27786352Y-36757229D01*
X27801651Y-36747835D01*
X27982962Y-36597308D01*
X27995010Y-36583998D01*
X28084718Y-36451000D01*
X28454669Y-36451000D01*
X28497249Y-36489071D01*
X28512193Y-36499019D01*
X28724888Y-36600470D01*
X28742025Y-36605824D01*
X28799001Y-36615052D01*
X28799000Y-40959637D01*
X27265764Y-42492874D01*
X27265764Y-38901512D01*
X27265763Y-38901500D01*
X27265763Y-38850980D01*
X27262661Y-38831392D01*
X27248504Y-38787823D01*
X27241335Y-38742564D01*
X27235207Y-38723702D01*
X27214406Y-38682878D01*
X27200246Y-38639300D01*
X27191242Y-38621629D01*
X27164311Y-38584562D01*
X27143512Y-38543741D01*
X27131855Y-38527696D01*
X27095617Y-38491458D01*
X27095604Y-38491444D01*
X26201001Y-37596842D01*
X26201001Y-35020300D01*
X26210031Y-35016392D01*
X26225331Y-35006998D01*
X26406642Y-34856471D01*
X26418690Y-34843161D01*
X26550464Y-34647796D01*
X26558292Y-34631640D01*
X26615942Y-34451000D01*
X28204669Y-34451000D01*
X28247249Y-34489071D01*
%TA.AperFunction,Conductor*%
G36*
X28247249Y-34489071D02*
G01*
X28262193Y-34499019D01*
X28474888Y-34600470D01*
X28492025Y-34605824D01*
X28724646Y-34643500D01*
X28742596Y-34643829D01*
X28799001Y-34636804D01*
X28799001Y-34883198D01*
X28763012Y-34888128D01*
X28745750Y-34893061D01*
X28530639Y-34989285D01*
X28515456Y-34998865D01*
X28456548Y-35049000D01*
X27516701Y-35049000D01*
X27516689Y-35049001D01*
X27466169Y-35049001D01*
X27446580Y-35052104D01*
X27403011Y-35066260D01*
X27357752Y-35073429D01*
X27338890Y-35079558D01*
X27298064Y-35100360D01*
X27297997Y-35100382D01*
X27089333Y-35128965D01*
X27072071Y-35133898D01*
X26856959Y-35230122D01*
X26841776Y-35239702D01*
X26662318Y-35392433D01*
X26650434Y-35405890D01*
X26521055Y-35602850D01*
X26513425Y-35619101D01*
X26444527Y-35844455D01*
X26441765Y-35862195D01*
X26438887Y-36097830D01*
X26441215Y-36115631D01*
X26504585Y-36342602D01*
X26511816Y-36359035D01*
X26636344Y-36559096D01*
X26647896Y-36572839D01*
X26823569Y-36729908D01*
X26838513Y-36739856D01*
X27051208Y-36841307D01*
X27068345Y-36846661D01*
X27300966Y-36884337D01*
X27318916Y-36884666D01*
X27552760Y-36855539D01*
X27570081Y-36850817D01*
X27786352Y-36757229D01*
X27801651Y-36747835D01*
X27982962Y-36597308D01*
X27995010Y-36583998D01*
X28084718Y-36451000D01*
X28454669Y-36451000D01*
X28497249Y-36489071D01*
X28512193Y-36499019D01*
X28724888Y-36600470D01*
X28742025Y-36605824D01*
X28799001Y-36615052D01*
X28799000Y-40959637D01*
X27265764Y-42492874D01*
X27265764Y-38901512D01*
X27265763Y-38901500D01*
X27265763Y-38850980D01*
X27262661Y-38831392D01*
X27248504Y-38787823D01*
X27241335Y-38742564D01*
X27235207Y-38723702D01*
X27214406Y-38682878D01*
X27200246Y-38639300D01*
X27191242Y-38621629D01*
X27164311Y-38584562D01*
X27143512Y-38543741D01*
X27131855Y-38527696D01*
X27095617Y-38491458D01*
X27095604Y-38491444D01*
X26201001Y-37596842D01*
X26201001Y-35020300D01*
X26210031Y-35016392D01*
X26225331Y-35006998D01*
X26406642Y-34856471D01*
X26418690Y-34843161D01*
X26550464Y-34647796D01*
X26558292Y-34631640D01*
X26615942Y-34451000D01*
X28204669Y-34451000D01*
X28247249Y-34489071D01*
G37*
%TD.AperFunction*%
X23112604Y-38603967D02*
X23112567Y-38606992D01*
X23114895Y-38624794D01*
X23178265Y-38851765D01*
X23185496Y-38868198D01*
X23310024Y-39068259D01*
X23321576Y-39082002D01*
X23497249Y-39239071D01*
X23512193Y-39249019D01*
X23724888Y-39350470D01*
X23742025Y-39355824D01*
X23974646Y-39393500D01*
X23992596Y-39393829D01*
X24226440Y-39364702D01*
X24243761Y-39359980D01*
X24460032Y-39266392D01*
X24475331Y-39256998D01*
X24656642Y-39106471D01*
X24668690Y-39093161D01*
X24709790Y-39032227D01*
X24810024Y-39193259D01*
X24821576Y-39207002D01*
X24997249Y-39364071D01*
X25012193Y-39374019D01*
X25224888Y-39475470D01*
X25242025Y-39480824D01*
X25474646Y-39518500D01*
X25492596Y-39518829D01*
X25726440Y-39489702D01*
X25743761Y-39484980D01*
X25863764Y-39433051D01*
X25863764Y-39692006D01*
X25764700Y-39646232D01*
X25747500Y-39641088D01*
X25514436Y-39606256D01*
X25496483Y-39606147D01*
X25263012Y-39638128D01*
X25245750Y-39643061D01*
X25030639Y-39739285D01*
X25015456Y-39748865D01*
X24835998Y-39901596D01*
X24824114Y-39915053D01*
X24694735Y-40112013D01*
X24687105Y-40128264D01*
X24618207Y-40353618D01*
X24615445Y-40371358D01*
X24612567Y-40606993D01*
X24614895Y-40624794D01*
X24678265Y-40851765D01*
X24685496Y-40868197D01*
X24707938Y-40904252D01*
X24350984Y-41261206D01*
X24343687Y-41254841D01*
X24328622Y-41245076D01*
X24114702Y-41146232D01*
X24097502Y-41141088D01*
X23864438Y-41106256D01*
X23846485Y-41106147D01*
X23613014Y-41138128D01*
X23595752Y-41143061D01*
X23380641Y-41239285D01*
X23365458Y-41248865D01*
X23306550Y-41299000D01*
X22460363Y-41299000D01*
X21506027Y-40344664D01*
X21506165Y-40333328D01*
X21503624Y-40314775D01*
X21437376Y-40088223D01*
X21429945Y-40071879D01*
X21302983Y-39873354D01*
X21291264Y-39859753D01*
X21113685Y-39704841D01*
X21098620Y-39695076D01*
X20884700Y-39596232D01*
X20867500Y-39591088D01*
X20732234Y-39570872D01*
X20201001Y-39039639D01*
X20201001Y-37117871D01*
X20226441Y-37114702D01*
X20243761Y-37109980D01*
X20304333Y-37083768D01*
X20422247Y-37189195D01*
X20437191Y-37199143D01*
X20649886Y-37300594D01*
X20667023Y-37305948D01*
X20899644Y-37343624D01*
X20917594Y-37343953D01*
X21151438Y-37314826D01*
X21168759Y-37310104D01*
X21385030Y-37216516D01*
X21400329Y-37207122D01*
X21572675Y-37064037D01*
X23112604Y-38603967D01*
%TA.AperFunction,Conductor*%
G36*
X23112604Y-38603967D02*
G01*
X23112567Y-38606992D01*
X23114895Y-38624794D01*
X23178265Y-38851765D01*
X23185496Y-38868198D01*
X23310024Y-39068259D01*
X23321576Y-39082002D01*
X23497249Y-39239071D01*
X23512193Y-39249019D01*
X23724888Y-39350470D01*
X23742025Y-39355824D01*
X23974646Y-39393500D01*
X23992596Y-39393829D01*
X24226440Y-39364702D01*
X24243761Y-39359980D01*
X24460032Y-39266392D01*
X24475331Y-39256998D01*
X24656642Y-39106471D01*
X24668690Y-39093161D01*
X24709790Y-39032227D01*
X24810024Y-39193259D01*
X24821576Y-39207002D01*
X24997249Y-39364071D01*
X25012193Y-39374019D01*
X25224888Y-39475470D01*
X25242025Y-39480824D01*
X25474646Y-39518500D01*
X25492596Y-39518829D01*
X25726440Y-39489702D01*
X25743761Y-39484980D01*
X25863764Y-39433051D01*
X25863764Y-39692006D01*
X25764700Y-39646232D01*
X25747500Y-39641088D01*
X25514436Y-39606256D01*
X25496483Y-39606147D01*
X25263012Y-39638128D01*
X25245750Y-39643061D01*
X25030639Y-39739285D01*
X25015456Y-39748865D01*
X24835998Y-39901596D01*
X24824114Y-39915053D01*
X24694735Y-40112013D01*
X24687105Y-40128264D01*
X24618207Y-40353618D01*
X24615445Y-40371358D01*
X24612567Y-40606993D01*
X24614895Y-40624794D01*
X24678265Y-40851765D01*
X24685496Y-40868197D01*
X24707938Y-40904252D01*
X24350984Y-41261206D01*
X24343687Y-41254841D01*
X24328622Y-41245076D01*
X24114702Y-41146232D01*
X24097502Y-41141088D01*
X23864438Y-41106256D01*
X23846485Y-41106147D01*
X23613014Y-41138128D01*
X23595752Y-41143061D01*
X23380641Y-41239285D01*
X23365458Y-41248865D01*
X23306550Y-41299000D01*
X22460363Y-41299000D01*
X21506027Y-40344664D01*
X21506165Y-40333328D01*
X21503624Y-40314775D01*
X21437376Y-40088223D01*
X21429945Y-40071879D01*
X21302983Y-39873354D01*
X21291264Y-39859753D01*
X21113685Y-39704841D01*
X21098620Y-39695076D01*
X20884700Y-39596232D01*
X20867500Y-39591088D01*
X20732234Y-39570872D01*
X20201001Y-39039639D01*
X20201001Y-37117871D01*
X20226441Y-37114702D01*
X20243761Y-37109980D01*
X20304333Y-37083768D01*
X20422247Y-37189195D01*
X20437191Y-37199143D01*
X20649886Y-37300594D01*
X20667023Y-37305948D01*
X20899644Y-37343624D01*
X20917594Y-37343953D01*
X21151438Y-37314826D01*
X21168759Y-37310104D01*
X21385030Y-37216516D01*
X21400329Y-37207122D01*
X21572675Y-37064037D01*
X23112604Y-38603967D01*
G37*
%TD.AperFunction*%
X27216315Y-32696406D02*
X27233452Y-32701760D01*
X27466073Y-32739436D01*
X27484023Y-32739765D01*
X27717867Y-32710638D01*
X27718223Y-32710541D01*
X28056682Y-33049000D01*
X27114390Y-33049000D01*
X27067376Y-32888223D01*
X27059945Y-32871879D01*
X26974465Y-32738217D01*
X27035454Y-32647796D01*
X27043282Y-32631640D01*
X27048203Y-32616220D01*
X27216315Y-32696406D01*
%TA.AperFunction,Conductor*%
G36*
X27216315Y-32696406D02*
G01*
X27233452Y-32701760D01*
X27466073Y-32739436D01*
X27484023Y-32739765D01*
X27717867Y-32710638D01*
X27718223Y-32710541D01*
X28056682Y-33049000D01*
X27114390Y-33049000D01*
X27067376Y-32888223D01*
X27059945Y-32871879D01*
X26974465Y-32738217D01*
X27035454Y-32647796D01*
X27043282Y-32631640D01*
X27048203Y-32616220D01*
X27216315Y-32696406D01*
G37*
%TD.AperFunction*%
X28564001Y-30414626D02*
X28357561Y-30621066D01*
X28233001Y-30638128D01*
X28215739Y-30643061D01*
X28000628Y-30739285D01*
X27985445Y-30748865D01*
X27805987Y-30901596D01*
X27794103Y-30915052D01*
X27745529Y-30988998D01*
X27738927Y-30987024D01*
X27505863Y-30952192D01*
X27487910Y-30952083D01*
X27254439Y-30984064D01*
X27237177Y-30988997D01*
X27022066Y-31085221D01*
X27006883Y-31094801D01*
X27000021Y-31100641D01*
X28050646Y-30050016D01*
X28164623Y-30035819D01*
X28181944Y-30031097D01*
X28398215Y-29937509D01*
X28413514Y-29928115D01*
X28564002Y-29803178D01*
X28564001Y-30414626D01*
%TA.AperFunction,Conductor*%
G36*
X28564001Y-30414626D02*
G01*
X28357561Y-30621066D01*
X28233001Y-30638128D01*
X28215739Y-30643061D01*
X28000628Y-30739285D01*
X27985445Y-30748865D01*
X27805987Y-30901596D01*
X27794103Y-30915052D01*
X27745529Y-30988998D01*
X27738927Y-30987024D01*
X27505863Y-30952192D01*
X27487910Y-30952083D01*
X27254439Y-30984064D01*
X27237177Y-30988997D01*
X27022066Y-31085221D01*
X27006883Y-31094801D01*
X27000021Y-31100641D01*
X28050646Y-30050016D01*
X28164623Y-30035819D01*
X28181944Y-30031097D01*
X28398215Y-29937509D01*
X28413514Y-29928115D01*
X28564002Y-29803178D01*
X28564001Y-30414626D01*
G37*
%TD.AperFunction*%
X34866001Y-20366000D02*
X32598802Y-20366000D01*
X32598634Y-20364774D01*
X32532386Y-20138223D01*
X32524955Y-20121879D01*
X32397993Y-19923354D01*
X32386274Y-19909753D01*
X32208695Y-19754841D01*
X32193630Y-19745076D01*
X31979710Y-19646232D01*
X31962510Y-19641088D01*
X31729446Y-19606256D01*
X31711493Y-19606147D01*
X31478022Y-19638128D01*
X31460760Y-19643061D01*
X31245649Y-19739285D01*
X31230466Y-19748865D01*
X31051008Y-19901596D01*
X31039124Y-19915053D01*
X30982653Y-20001021D01*
X30932983Y-19923354D01*
X30921264Y-19909753D01*
X30743685Y-19754841D01*
X30728620Y-19745076D01*
X30514700Y-19646232D01*
X30497500Y-19641088D01*
X30416002Y-19628908D01*
X30416002Y-19075360D01*
X30862463Y-18628899D01*
X30976440Y-18614702D01*
X30993761Y-18609980D01*
X31210032Y-18516392D01*
X31225331Y-18506998D01*
X31406642Y-18356471D01*
X31418690Y-18343161D01*
X31550464Y-18147796D01*
X31558292Y-18131640D01*
X31630056Y-17906775D01*
X31633050Y-17888289D01*
X31636165Y-17633328D01*
X31633624Y-17614774D01*
X31567376Y-17388223D01*
X31559945Y-17371879D01*
X31432983Y-17173354D01*
X31421264Y-17159753D01*
X31243685Y-17004841D01*
X31228620Y-16995076D01*
X31014700Y-16896232D01*
X30997500Y-16891088D01*
X30764436Y-16856256D01*
X30746483Y-16856147D01*
X30513012Y-16888128D01*
X30495750Y-16893061D01*
X30280639Y-16989285D01*
X30265456Y-16998865D01*
X30085998Y-17151596D01*
X30074114Y-17165053D01*
X30007320Y-17266736D01*
X29993685Y-17254841D01*
X29978620Y-17245076D01*
X29764700Y-17146232D01*
X29747500Y-17141088D01*
X29514436Y-17106256D01*
X29496483Y-17106147D01*
X29263012Y-17138128D01*
X29245750Y-17143061D01*
X29030639Y-17239285D01*
X29015456Y-17248865D01*
X28956548Y-17299000D01*
X28634679Y-17299000D01*
X28710032Y-17266392D01*
X28725331Y-17256998D01*
X28906642Y-17106471D01*
X28918690Y-17093161D01*
X29050464Y-16897796D01*
X29058292Y-16881640D01*
X29130056Y-16656775D01*
X29133050Y-16638289D01*
X29136165Y-16383328D01*
X29133624Y-16364774D01*
X29067376Y-16138223D01*
X29059945Y-16121879D01*
X28951000Y-15951526D01*
X28951000Y-15647574D01*
X28956018Y-15643653D01*
X29108098Y-15498831D01*
X29116151Y-15489501D01*
X29237204Y-15317897D01*
X29243291Y-15307181D01*
X29328708Y-15115334D01*
X29332599Y-15103638D01*
X29379222Y-14898423D01*
X29380786Y-14885309D01*
X29384123Y-14646318D01*
X29382926Y-14633165D01*
X29342050Y-14426727D01*
X29338488Y-14414928D01*
X29258461Y-14220770D01*
X29252675Y-14209888D01*
X29136461Y-14034972D01*
X29128671Y-14025421D01*
X28980696Y-13876408D01*
X28971199Y-13868552D01*
X28797099Y-13751119D01*
X28786257Y-13745257D01*
X28592662Y-13663878D01*
X28580888Y-13660234D01*
X28375173Y-13618006D01*
X28362916Y-13616718D01*
X28152917Y-13615252D01*
X28140643Y-13616369D01*
X27934360Y-13655720D01*
X27922536Y-13659199D01*
X27727824Y-13737868D01*
X27716902Y-13743578D01*
X27541178Y-13858569D01*
X27531572Y-13866292D01*
X27381531Y-14013223D01*
X27373608Y-14022665D01*
X27254963Y-14195942D01*
X27249026Y-14206742D01*
X27166296Y-14399763D01*
X27162570Y-14411511D01*
X27118907Y-14616927D01*
X27117533Y-14629175D01*
X27114601Y-14839158D01*
X27115633Y-14851439D01*
X27153542Y-15057994D01*
X27156940Y-15069841D01*
X27234248Y-15265098D01*
X27239881Y-15276059D01*
X27353642Y-15452581D01*
X27361297Y-15462240D01*
X27507178Y-15613305D01*
X27516564Y-15621293D01*
X27549001Y-15643837D01*
X27549000Y-15953284D01*
X27444735Y-16112013D01*
X27437105Y-16128264D01*
X27368207Y-16353618D01*
X27365445Y-16371358D01*
X27362567Y-16606993D01*
X27364895Y-16624794D01*
X27428265Y-16851765D01*
X27435496Y-16868198D01*
X27560024Y-17068259D01*
X27571576Y-17082002D01*
X27747249Y-17239071D01*
X27762193Y-17249019D01*
X27866980Y-17299000D01*
X26540363Y-17299000D01*
X24886027Y-15644664D01*
X24886165Y-15633328D01*
X24883624Y-15614775D01*
X24817376Y-15388223D01*
X24809945Y-15371879D01*
X24682983Y-15173354D01*
X24671264Y-15159753D01*
X24493685Y-15004841D01*
X24478620Y-14995076D01*
X24264700Y-14896232D01*
X24247500Y-14891088D01*
X24014436Y-14856256D01*
X23996483Y-14856147D01*
X23763012Y-14888128D01*
X23745750Y-14893061D01*
X23530639Y-14989285D01*
X23515456Y-14998865D01*
X23335998Y-15151596D01*
X23324114Y-15165053D01*
X23194735Y-15362013D01*
X23187105Y-15378264D01*
X23139492Y-15533999D01*
X20589762Y-15533999D01*
X20589750Y-15534000D01*
X20539230Y-15534000D01*
X20519642Y-15537102D01*
X20476073Y-15551259D01*
X20430814Y-15558428D01*
X20411952Y-15564556D01*
X20371128Y-15585357D01*
X20327550Y-15599517D01*
X20309879Y-15608521D01*
X20272812Y-15635452D01*
X20231991Y-15656251D01*
X20215946Y-15667908D01*
X20179708Y-15704146D01*
X20179694Y-15704159D01*
X19866752Y-16017102D01*
X19802191Y-15952542D01*
X19697809Y-15952542D01*
X19587494Y-16062857D01*
X19167819Y-15643181D01*
X19121509Y-15623999D01*
X18401716Y-15623999D01*
X18306358Y-15468390D01*
X18299445Y-15459132D01*
X18288829Y-15447341D01*
X18374764Y-15375233D01*
X18375408Y-15376000D01*
X19121510Y-15376000D01*
X19167820Y-15356818D01*
X19606819Y-14917819D01*
X19626001Y-14871509D01*
X19626001Y-14681972D01*
X19874000Y-14681972D01*
X19874000Y-14871510D01*
X19893182Y-14917820D01*
X20332181Y-15356819D01*
X20378491Y-15376001D01*
X21118028Y-15376001D01*
X21191837Y-15302192D01*
X21191837Y-15241742D01*
X21189681Y-15225366D01*
X21114863Y-14946142D01*
X21102120Y-14921662D01*
X20971010Y-14765410D01*
X20954121Y-14751239D01*
X20779880Y-14650641D01*
X20759163Y-14643100D01*
X20566462Y-14609122D01*
X20555501Y-14608163D01*
X19947809Y-14608163D01*
X19874000Y-14681972D01*
X19626001Y-14681972D01*
X19552192Y-14608163D01*
X18941742Y-14608163D01*
X18925366Y-14610319D01*
X18646142Y-14685137D01*
X18621662Y-14697880D01*
X18566837Y-14743883D01*
X18566837Y-13566742D01*
X18564681Y-13550366D01*
X18489863Y-13271142D01*
X18477120Y-13246662D01*
X18382586Y-13134000D01*
X34866000Y-13134000D01*
X34866001Y-20366000D01*
%TA.AperFunction,Conductor*%
G36*
X34866001Y-20366000D02*
G01*
X32598802Y-20366000D01*
X32598634Y-20364774D01*
X32532386Y-20138223D01*
X32524955Y-20121879D01*
X32397993Y-19923354D01*
X32386274Y-19909753D01*
X32208695Y-19754841D01*
X32193630Y-19745076D01*
X31979710Y-19646232D01*
X31962510Y-19641088D01*
X31729446Y-19606256D01*
X31711493Y-19606147D01*
X31478022Y-19638128D01*
X31460760Y-19643061D01*
X31245649Y-19739285D01*
X31230466Y-19748865D01*
X31051008Y-19901596D01*
X31039124Y-19915053D01*
X30982653Y-20001021D01*
X30932983Y-19923354D01*
X30921264Y-19909753D01*
X30743685Y-19754841D01*
X30728620Y-19745076D01*
X30514700Y-19646232D01*
X30497500Y-19641088D01*
X30416002Y-19628908D01*
X30416002Y-19075360D01*
X30862463Y-18628899D01*
X30976440Y-18614702D01*
X30993761Y-18609980D01*
X31210032Y-18516392D01*
X31225331Y-18506998D01*
X31406642Y-18356471D01*
X31418690Y-18343161D01*
X31550464Y-18147796D01*
X31558292Y-18131640D01*
X31630056Y-17906775D01*
X31633050Y-17888289D01*
X31636165Y-17633328D01*
X31633624Y-17614774D01*
X31567376Y-17388223D01*
X31559945Y-17371879D01*
X31432983Y-17173354D01*
X31421264Y-17159753D01*
X31243685Y-17004841D01*
X31228620Y-16995076D01*
X31014700Y-16896232D01*
X30997500Y-16891088D01*
X30764436Y-16856256D01*
X30746483Y-16856147D01*
X30513012Y-16888128D01*
X30495750Y-16893061D01*
X30280639Y-16989285D01*
X30265456Y-16998865D01*
X30085998Y-17151596D01*
X30074114Y-17165053D01*
X30007320Y-17266736D01*
X29993685Y-17254841D01*
X29978620Y-17245076D01*
X29764700Y-17146232D01*
X29747500Y-17141088D01*
X29514436Y-17106256D01*
X29496483Y-17106147D01*
X29263012Y-17138128D01*
X29245750Y-17143061D01*
X29030639Y-17239285D01*
X29015456Y-17248865D01*
X28956548Y-17299000D01*
X28634679Y-17299000D01*
X28710032Y-17266392D01*
X28725331Y-17256998D01*
X28906642Y-17106471D01*
X28918690Y-17093161D01*
X29050464Y-16897796D01*
X29058292Y-16881640D01*
X29130056Y-16656775D01*
X29133050Y-16638289D01*
X29136165Y-16383328D01*
X29133624Y-16364774D01*
X29067376Y-16138223D01*
X29059945Y-16121879D01*
X28951000Y-15951526D01*
X28951000Y-15647574D01*
X28956018Y-15643653D01*
X29108098Y-15498831D01*
X29116151Y-15489501D01*
X29237204Y-15317897D01*
X29243291Y-15307181D01*
X29328708Y-15115334D01*
X29332599Y-15103638D01*
X29379222Y-14898423D01*
X29380786Y-14885309D01*
X29384123Y-14646318D01*
X29382926Y-14633165D01*
X29342050Y-14426727D01*
X29338488Y-14414928D01*
X29258461Y-14220770D01*
X29252675Y-14209888D01*
X29136461Y-14034972D01*
X29128671Y-14025421D01*
X28980696Y-13876408D01*
X28971199Y-13868552D01*
X28797099Y-13751119D01*
X28786257Y-13745257D01*
X28592662Y-13663878D01*
X28580888Y-13660234D01*
X28375173Y-13618006D01*
X28362916Y-13616718D01*
X28152917Y-13615252D01*
X28140643Y-13616369D01*
X27934360Y-13655720D01*
X27922536Y-13659199D01*
X27727824Y-13737868D01*
X27716902Y-13743578D01*
X27541178Y-13858569D01*
X27531572Y-13866292D01*
X27381531Y-14013223D01*
X27373608Y-14022665D01*
X27254963Y-14195942D01*
X27249026Y-14206742D01*
X27166296Y-14399763D01*
X27162570Y-14411511D01*
X27118907Y-14616927D01*
X27117533Y-14629175D01*
X27114601Y-14839158D01*
X27115633Y-14851439D01*
X27153542Y-15057994D01*
X27156940Y-15069841D01*
X27234248Y-15265098D01*
X27239881Y-15276059D01*
X27353642Y-15452581D01*
X27361297Y-15462240D01*
X27507178Y-15613305D01*
X27516564Y-15621293D01*
X27549001Y-15643837D01*
X27549000Y-15953284D01*
X27444735Y-16112013D01*
X27437105Y-16128264D01*
X27368207Y-16353618D01*
X27365445Y-16371358D01*
X27362567Y-16606993D01*
X27364895Y-16624794D01*
X27428265Y-16851765D01*
X27435496Y-16868198D01*
X27560024Y-17068259D01*
X27571576Y-17082002D01*
X27747249Y-17239071D01*
X27762193Y-17249019D01*
X27866980Y-17299000D01*
X26540363Y-17299000D01*
X24886027Y-15644664D01*
X24886165Y-15633328D01*
X24883624Y-15614775D01*
X24817376Y-15388223D01*
X24809945Y-15371879D01*
X24682983Y-15173354D01*
X24671264Y-15159753D01*
X24493685Y-15004841D01*
X24478620Y-14995076D01*
X24264700Y-14896232D01*
X24247500Y-14891088D01*
X24014436Y-14856256D01*
X23996483Y-14856147D01*
X23763012Y-14888128D01*
X23745750Y-14893061D01*
X23530639Y-14989285D01*
X23515456Y-14998865D01*
X23335998Y-15151596D01*
X23324114Y-15165053D01*
X23194735Y-15362013D01*
X23187105Y-15378264D01*
X23139492Y-15533999D01*
X20589762Y-15533999D01*
X20589750Y-15534000D01*
X20539230Y-15534000D01*
X20519642Y-15537102D01*
X20476073Y-15551259D01*
X20430814Y-15558428D01*
X20411952Y-15564556D01*
X20371128Y-15585357D01*
X20327550Y-15599517D01*
X20309879Y-15608521D01*
X20272812Y-15635452D01*
X20231991Y-15656251D01*
X20215946Y-15667908D01*
X20179708Y-15704146D01*
X20179694Y-15704159D01*
X19866752Y-16017102D01*
X19802191Y-15952542D01*
X19697809Y-15952542D01*
X19587494Y-16062857D01*
X19167819Y-15643181D01*
X19121509Y-15623999D01*
X18401716Y-15623999D01*
X18306358Y-15468390D01*
X18299445Y-15459132D01*
X18288829Y-15447341D01*
X18374764Y-15375233D01*
X18375408Y-15376000D01*
X19121510Y-15376000D01*
X19167820Y-15356818D01*
X19606819Y-14917819D01*
X19626001Y-14871509D01*
X19626001Y-14681972D01*
X19874000Y-14681972D01*
X19874000Y-14871510D01*
X19893182Y-14917820D01*
X20332181Y-15356819D01*
X20378491Y-15376001D01*
X21118028Y-15376001D01*
X21191837Y-15302192D01*
X21191837Y-15241742D01*
X21189681Y-15225366D01*
X21114863Y-14946142D01*
X21102120Y-14921662D01*
X20971010Y-14765410D01*
X20954121Y-14751239D01*
X20779880Y-14650641D01*
X20759163Y-14643100D01*
X20566462Y-14609122D01*
X20555501Y-14608163D01*
X19947809Y-14608163D01*
X19874000Y-14681972D01*
X19626001Y-14681972D01*
X19552192Y-14608163D01*
X18941742Y-14608163D01*
X18925366Y-14610319D01*
X18646142Y-14685137D01*
X18621662Y-14697880D01*
X18566837Y-14743883D01*
X18566837Y-13566742D01*
X18564681Y-13550366D01*
X18489863Y-13271142D01*
X18477120Y-13246662D01*
X18382586Y-13134000D01*
X34866000Y-13134000D01*
X34866001Y-20366000D01*
G37*
%TD.AperFunction*%
X21614601Y-17089158D02*
X21615633Y-17101439D01*
X21653542Y-17307994D01*
X21656940Y-17319841D01*
X21734248Y-17515098D01*
X21739881Y-17526059D01*
X21853642Y-17702581D01*
X21861297Y-17712240D01*
X21975658Y-17830665D01*
X21945207Y-17877023D01*
X21937577Y-17893274D01*
X21868679Y-18118628D01*
X21865917Y-18136368D01*
X21865647Y-18158473D01*
X21842117Y-18182003D01*
X21764700Y-18146232D01*
X21747500Y-18141088D01*
X21612236Y-18120872D01*
X21213684Y-17722321D01*
X21174272Y-17682909D01*
X21158227Y-17671252D01*
X21117404Y-17650452D01*
X21080337Y-17623521D01*
X21062665Y-17614517D01*
X21019096Y-17600361D01*
X20978266Y-17579557D01*
X20959404Y-17573429D01*
X20914145Y-17566260D01*
X20870576Y-17552104D01*
X20850987Y-17549001D01*
X20800468Y-17549001D01*
X20800456Y-17549000D01*
X20544306Y-17549000D01*
X20493685Y-17504841D01*
X20478620Y-17495076D01*
X20405356Y-17461223D01*
X20930581Y-16935999D01*
X21616740Y-16935999D01*
X21614601Y-17089158D01*
%TA.AperFunction,Conductor*%
G36*
X21614601Y-17089158D02*
G01*
X21615633Y-17101439D01*
X21653542Y-17307994D01*
X21656940Y-17319841D01*
X21734248Y-17515098D01*
X21739881Y-17526059D01*
X21853642Y-17702581D01*
X21861297Y-17712240D01*
X21975658Y-17830665D01*
X21945207Y-17877023D01*
X21937577Y-17893274D01*
X21868679Y-18118628D01*
X21865917Y-18136368D01*
X21865647Y-18158473D01*
X21842117Y-18182003D01*
X21764700Y-18146232D01*
X21747500Y-18141088D01*
X21612236Y-18120872D01*
X21213684Y-17722321D01*
X21174272Y-17682909D01*
X21158227Y-17671252D01*
X21117404Y-17650452D01*
X21080337Y-17623521D01*
X21062665Y-17614517D01*
X21019096Y-17600361D01*
X20978266Y-17579557D01*
X20959404Y-17573429D01*
X20914145Y-17566260D01*
X20870576Y-17552104D01*
X20850987Y-17549001D01*
X20800468Y-17549001D01*
X20800456Y-17549000D01*
X20544306Y-17549000D01*
X20493685Y-17504841D01*
X20478620Y-17495076D01*
X20405356Y-17461223D01*
X20930581Y-16935999D01*
X21616740Y-16935999D01*
X21614601Y-17089158D01*
G37*
%TD.AperFunction*%
%TD*%
M02*
