%TF.GenerationSoftware,KiCad,Pcbnew,(5.99.0-2309-gaf729d578)*%
%TF.CreationDate,2020-09-26T21:13:39-04:00*%
%TF.ProjectId,mk2,6d6b322e-6b69-4636-9164-5f7063625858,rev?*%
%TF.SameCoordinates,Original*%
%TF.FileFunction,Copper,L1,Top*%
%TF.FilePolarity,Positive*%
%FSLAX46Y46*%
G04 Gerber Fmt 4.6, Leading zero omitted, Abs format (unit mm)*
G04 Created by KiCad (PCBNEW (5.99.0-2309-gaf729d578)) date 2020-09-26 21:13:39*
%MOMM*%
%LPD*%
G01*
G04 APERTURE LIST*
%TA.AperFunction,ComponentPad*%
%ADD10O,1.350000X1.350000*%
%TD*%
%TA.AperFunction,ComponentPad*%
%ADD11R,1.350000X1.350000*%
%TD*%
%TA.AperFunction,ComponentPad*%
%ADD12C,0.500000*%
%TD*%
%TA.AperFunction,SMDPad,CuDef*%
%ADD13R,1.600000X1.000000*%
%TD*%
%TA.AperFunction,SMDPad,CuDef*%
%ADD14R,0.300000X0.350000*%
%TD*%
%TA.AperFunction,SMDPad,CuDef*%
%ADD15R,0.350000X0.300000*%
%TD*%
%TA.AperFunction,SMDPad,CuDef*%
%ADD16R,0.300000X1.000000*%
%TD*%
%TA.AperFunction,SMDPad,CuDef*%
%ADD17R,0.300000X0.700000*%
%TD*%
%TA.AperFunction,SMDPad,CuDef*%
%ADD18R,0.450000X0.655000*%
%TD*%
%TA.AperFunction,SMDPad,CuDef*%
%ADD19R,0.230000X0.750000*%
%TD*%
%TA.AperFunction,SMDPad,CuDef*%
%ADD20R,0.420000X0.400000*%
%TD*%
%TA.AperFunction,SMDPad,CuDef*%
%ADD21C,0.229500*%
%TD*%
%TA.AperFunction,SMDPad,CuDef*%
%ADD22R,0.300000X1.300000*%
%TD*%
%TA.AperFunction,SMDPad,CuDef*%
%ADD23R,1.800000X2.200000*%
%TD*%
%TA.AperFunction,SMDPad,CuDef*%
%ADD24R,0.700000X0.450000*%
%TD*%
%TA.AperFunction,SMDPad,CuDef*%
%ADD25R,0.600000X1.160000*%
%TD*%
%TA.AperFunction,SMDPad,CuDef*%
%ADD26R,0.300000X1.160000*%
%TD*%
%TA.AperFunction,ComponentPad*%
%ADD27O,0.900000X1.700000*%
%TD*%
%TA.AperFunction,ComponentPad*%
%ADD28O,0.900000X2.000000*%
%TD*%
%TA.AperFunction,SMDPad,CuDef*%
%ADD29R,0.800000X1.450000*%
%TD*%
%TA.AperFunction,SMDPad,CuDef*%
%ADD30R,1.270000X0.900000*%
%TD*%
%TA.AperFunction,SMDPad,CuDef*%
%ADD31R,0.450000X0.700000*%
%TD*%
%TA.AperFunction,SMDPad,CuDef*%
%ADD32R,1.100000X1.050000*%
%TD*%
%TA.AperFunction,SMDPad,CuDef*%
%ADD33R,0.650000X1.060000*%
%TD*%
%TA.AperFunction,SMDPad,CuDef*%
%ADD34R,1.560000X0.650000*%
%TD*%
%TA.AperFunction,SMDPad,CuDef*%
%ADD35R,1.500000X0.550000*%
%TD*%
%TA.AperFunction,SMDPad,CuDef*%
%ADD36R,0.400000X0.600000*%
%TD*%
%TA.AperFunction,SMDPad,CuDef*%
%ADD37R,0.600000X0.400000*%
%TD*%
%TA.AperFunction,SMDPad,CuDef*%
%ADD38R,1.220000X0.650000*%
%TD*%
%TA.AperFunction,ViaPad*%
%ADD39C,0.500000*%
%TD*%
%TA.AperFunction,Conductor*%
%ADD40C,0.130000*%
%TD*%
G04 APERTURE END LIST*
D10*
%TO.P,J6,2,Pin_2*%
%TO.N,USB_DP*%
X22500000Y-48000000D03*
D11*
%TO.P,J6,1,Pin_1*%
%TO.N,USB_DN*%
X20500000Y-48000000D03*
%TD*%
D12*
%TO.P,U1,7,EP*%
%TO.N,GND*%
X20300000Y-15500000D03*
X19200000Y-15500000D03*
D13*
X19750000Y-15500000D03*
%TO.P,U1,6,ENA*%
%TO.N,VIN*%
%TA.AperFunction,SMDPad,CuDef*%
G36*
G01*
X19206250Y-14800000D02*
X18993750Y-14800000D01*
G75*
G02*
X18900000Y-14706250I0J93750D01*
G01*
X18900000Y-14518750D01*
G75*
G02*
X18993750Y-14425000I93750J0D01*
G01*
X19206250Y-14425000D01*
G75*
G02*
X19300000Y-14518750I0J-93750D01*
G01*
X19300000Y-14706250D01*
G75*
G02*
X19206250Y-14800000I-93750J0D01*
G01*
G37*
%TD.AperFunction*%
%TO.P,U1,5,CP-*%
%TO.N,Net-(C6-Pad2)*%
%TA.AperFunction,SMDPad,CuDef*%
G36*
G01*
X19856250Y-14800000D02*
X19643750Y-14800000D01*
G75*
G02*
X19550000Y-14706250I0J93750D01*
G01*
X19550000Y-14518750D01*
G75*
G02*
X19643750Y-14425000I93750J0D01*
G01*
X19856250Y-14425000D01*
G75*
G02*
X19950000Y-14518750I0J-93750D01*
G01*
X19950000Y-14706250D01*
G75*
G02*
X19856250Y-14800000I-93750J0D01*
G01*
G37*
%TD.AperFunction*%
%TO.P,U1,4,CP+*%
%TO.N,Net-(C6-Pad1)*%
%TA.AperFunction,SMDPad,CuDef*%
G36*
G01*
X20506250Y-14800000D02*
X20293750Y-14800000D01*
G75*
G02*
X20200000Y-14706250I0J93750D01*
G01*
X20200000Y-14518750D01*
G75*
G02*
X20293750Y-14425000I93750J0D01*
G01*
X20506250Y-14425000D01*
G75*
G02*
X20600000Y-14518750I0J-93750D01*
G01*
X20600000Y-14706250D01*
G75*
G02*
X20506250Y-14800000I-93750J0D01*
G01*
G37*
%TD.AperFunction*%
%TO.P,U1,3,VOUT*%
%TO.N,+5V*%
%TA.AperFunction,SMDPad,CuDef*%
G36*
G01*
X20506250Y-16575000D02*
X20293750Y-16575000D01*
G75*
G02*
X20200000Y-16481250I0J93750D01*
G01*
X20200000Y-16293750D01*
G75*
G02*
X20293750Y-16200000I93750J0D01*
G01*
X20506250Y-16200000D01*
G75*
G02*
X20600000Y-16293750I0J-93750D01*
G01*
X20600000Y-16481250D01*
G75*
G02*
X20506250Y-16575000I-93750J0D01*
G01*
G37*
%TD.AperFunction*%
%TO.P,U1,2,VIN*%
%TO.N,VIN*%
%TA.AperFunction,SMDPad,CuDef*%
G36*
G01*
X19856250Y-16575000D02*
X19643750Y-16575000D01*
G75*
G02*
X19550000Y-16481250I0J93750D01*
G01*
X19550000Y-16293750D01*
G75*
G02*
X19643750Y-16200000I93750J0D01*
G01*
X19856250Y-16200000D01*
G75*
G02*
X19950000Y-16293750I0J-93750D01*
G01*
X19950000Y-16481250D01*
G75*
G02*
X19856250Y-16575000I-93750J0D01*
G01*
G37*
%TD.AperFunction*%
%TO.P,U1,1,GND*%
%TO.N,GND*%
%TA.AperFunction,SMDPad,CuDef*%
G36*
G01*
X19206250Y-16575000D02*
X18993750Y-16575000D01*
G75*
G02*
X18900000Y-16481250I0J93750D01*
G01*
X18900000Y-16293750D01*
G75*
G02*
X18993750Y-16200000I93750J0D01*
G01*
X19206250Y-16200000D01*
G75*
G02*
X19300000Y-16293750I0J-93750D01*
G01*
X19300000Y-16481250D01*
G75*
G02*
X19206250Y-16575000I-93750J0D01*
G01*
G37*
%TD.AperFunction*%
%TD*%
D10*
%TO.P,J5,2,Pin_2*%
%TO.N,GND*%
X29500000Y-47750000D03*
D11*
%TO.P,J5,1,Pin_1*%
%TO.N,VUSB*%
X27500000Y-47750000D03*
%TD*%
%TO.P,C8,2*%
%TO.N,GND*%
%TA.AperFunction,SMDPad,CuDef*%
G36*
G01*
X17525000Y-18012500D02*
X17525000Y-18487500D01*
G75*
G02*
X17287500Y-18725000I-237500J0D01*
G01*
X16712500Y-18725000D01*
G75*
G02*
X16475000Y-18487500I0J237500D01*
G01*
X16475000Y-18012500D01*
G75*
G02*
X16712500Y-17775000I237500J0D01*
G01*
X17287500Y-17775000D01*
G75*
G02*
X17525000Y-18012500I0J-237500D01*
G01*
G37*
%TD.AperFunction*%
%TO.P,C8,1*%
%TO.N,+5V*%
%TA.AperFunction,SMDPad,CuDef*%
G36*
G01*
X19275000Y-18012500D02*
X19275000Y-18487500D01*
G75*
G02*
X19037500Y-18725000I-237500J0D01*
G01*
X18462500Y-18725000D01*
G75*
G02*
X18225000Y-18487500I0J237500D01*
G01*
X18225000Y-18012500D01*
G75*
G02*
X18462500Y-17775000I237500J0D01*
G01*
X19037500Y-17775000D01*
G75*
G02*
X19275000Y-18012500I0J-237500D01*
G01*
G37*
%TD.AperFunction*%
%TD*%
%TO.P,C6,2*%
%TO.N,Net-(C6-Pad2)*%
%TA.AperFunction,SMDPad,CuDef*%
G36*
G01*
X22237500Y-15025000D02*
X21762500Y-15025000D01*
G75*
G02*
X21525000Y-14787500I0J237500D01*
G01*
X21525000Y-14212500D01*
G75*
G02*
X21762500Y-13975000I237500J0D01*
G01*
X22237500Y-13975000D01*
G75*
G02*
X22475000Y-14212500I0J-237500D01*
G01*
X22475000Y-14787500D01*
G75*
G02*
X22237500Y-15025000I-237500J0D01*
G01*
G37*
%TD.AperFunction*%
%TO.P,C6,1*%
%TO.N,Net-(C6-Pad1)*%
%TA.AperFunction,SMDPad,CuDef*%
G36*
G01*
X22237500Y-16775000D02*
X21762500Y-16775000D01*
G75*
G02*
X21525000Y-16537500I0J237500D01*
G01*
X21525000Y-15962500D01*
G75*
G02*
X21762500Y-15725000I237500J0D01*
G01*
X22237500Y-15725000D01*
G75*
G02*
X22475000Y-15962500I0J-237500D01*
G01*
X22475000Y-16537500D01*
G75*
G02*
X22237500Y-16775000I-237500J0D01*
G01*
G37*
%TD.AperFunction*%
%TD*%
%TO.P,C5,2*%
%TO.N,VIN*%
%TA.AperFunction,SMDPad,CuDef*%
G36*
G01*
X19650000Y-13012500D02*
X19650000Y-13487500D01*
G75*
G02*
X19412500Y-13725000I-237500J0D01*
G01*
X18837500Y-13725000D01*
G75*
G02*
X18600000Y-13487500I0J237500D01*
G01*
X18600000Y-13012500D01*
G75*
G02*
X18837500Y-12775000I237500J0D01*
G01*
X19412500Y-12775000D01*
G75*
G02*
X19650000Y-13012500I0J-237500D01*
G01*
G37*
%TD.AperFunction*%
%TO.P,C5,1*%
%TO.N,GND*%
%TA.AperFunction,SMDPad,CuDef*%
G36*
G01*
X21400000Y-13012500D02*
X21400000Y-13487500D01*
G75*
G02*
X21162500Y-13725000I-237500J0D01*
G01*
X20587500Y-13725000D01*
G75*
G02*
X20350000Y-13487500I0J237500D01*
G01*
X20350000Y-13012500D01*
G75*
G02*
X20587500Y-12775000I237500J0D01*
G01*
X21162500Y-12775000D01*
G75*
G02*
X21400000Y-13012500I0J-237500D01*
G01*
G37*
%TD.AperFunction*%
%TD*%
D10*
%TO.P,J3,2,Pin_2*%
%TO.N,Net-(J3-Pad2)*%
X17250000Y-16250000D03*
D11*
%TO.P,J3,1,Pin_1*%
%TO.N,Net-(J3-Pad1)*%
X17250000Y-14250000D03*
%TD*%
D10*
%TO.P,BT1,2,-*%
%TO.N,GND*%
X34000000Y-47750000D03*
D11*
%TO.P,BT1,1,+*%
%TO.N,+BATT*%
X32000000Y-47750000D03*
%TD*%
D14*
%TO.P,U4,8,GNDIO*%
%TO.N,GND*%
X21750000Y-18225000D03*
%TO.P,U4,9,GND*%
X21250000Y-18225000D03*
%TO.P,U4,3,VDDIO*%
%TO.N,VCC*%
X21750000Y-19775000D03*
%TO.P,U4,2,SDX*%
%TO.N,SDA*%
X21250000Y-19775000D03*
%TO.P,U4,7,VDD*%
%TO.N,VCC*%
X22250000Y-18225000D03*
%TO.P,U4,4*%
%TO.N,N/C*%
X22250000Y-19775000D03*
D15*
%TO.P,U4,6,INT2*%
%TO.N,ACCELINT2*%
X22275000Y-18750000D03*
%TO.P,U4,5,INT1*%
%TO.N,ACCELINT1*%
X22275000Y-19250000D03*
D14*
%TO.P,U4,10,~CSB~*%
%TO.N,VCC*%
X20750000Y-18225000D03*
%TO.P,U4,1,SDO*%
%TO.N,GND*%
X20750000Y-19775000D03*
D15*
%TO.P,U4,11*%
%TO.N,N/C*%
X20725000Y-18750000D03*
%TO.P,U4,12,SCX*%
%TO.N,SCL*%
X20725000Y-19250000D03*
%TD*%
D16*
%TO.P,J4,S2,SHIELD__1*%
%TO.N,N/C*%
X30960000Y-37175000D03*
%TO.P,J4,S1,SHIELD*%
X34040000Y-37175000D03*
D17*
%TO.P,J4,4,4*%
%TO.N,Net-(J4-Pad3)*%
X31750000Y-39825000D03*
%TO.P,J4,3,3*%
X32250000Y-39825000D03*
%TO.P,J4,2,2*%
%TO.N,Net-(J4-Pad1)*%
X32750000Y-39825000D03*
%TO.P,J4,1,1*%
X33250000Y-39825000D03*
%TD*%
%TO.P,R16,2*%
%TO.N,Net-(J3-Pad1)*%
%TA.AperFunction,SMDPad,CuDef*%
G36*
G01*
X14025000Y-21512500D02*
X14025000Y-21987500D01*
G75*
G02*
X13787500Y-22225000I-237500J0D01*
G01*
X13212500Y-22225000D01*
G75*
G02*
X12975000Y-21987500I0J237500D01*
G01*
X12975000Y-21512500D01*
G75*
G02*
X13212500Y-21275000I237500J0D01*
G01*
X13787500Y-21275000D01*
G75*
G02*
X14025000Y-21512500I0J-237500D01*
G01*
G37*
%TD.AperFunction*%
%TO.P,R16,1*%
%TO.N,VCC*%
%TA.AperFunction,SMDPad,CuDef*%
G36*
G01*
X15775000Y-21512500D02*
X15775000Y-21987500D01*
G75*
G02*
X15537500Y-22225000I-237500J0D01*
G01*
X14962500Y-22225000D01*
G75*
G02*
X14725000Y-21987500I0J237500D01*
G01*
X14725000Y-21512500D01*
G75*
G02*
X14962500Y-21275000I237500J0D01*
G01*
X15537500Y-21275000D01*
G75*
G02*
X15775000Y-21512500I0J-237500D01*
G01*
G37*
%TD.AperFunction*%
%TD*%
%TO.P,R15,2*%
%TO.N,GND*%
%TA.AperFunction,SMDPad,CuDef*%
G36*
G01*
X14025000Y-23012500D02*
X14025000Y-23487500D01*
G75*
G02*
X13787500Y-23725000I-237500J0D01*
G01*
X13212500Y-23725000D01*
G75*
G02*
X12975000Y-23487500I0J237500D01*
G01*
X12975000Y-23012500D01*
G75*
G02*
X13212500Y-22775000I237500J0D01*
G01*
X13787500Y-22775000D01*
G75*
G02*
X14025000Y-23012500I0J-237500D01*
G01*
G37*
%TD.AperFunction*%
%TO.P,R15,1*%
%TO.N,BUZZER*%
%TA.AperFunction,SMDPad,CuDef*%
G36*
G01*
X15775000Y-23012500D02*
X15775000Y-23487500D01*
G75*
G02*
X15537500Y-23725000I-237500J0D01*
G01*
X14962500Y-23725000D01*
G75*
G02*
X14725000Y-23487500I0J237500D01*
G01*
X14725000Y-23012500D01*
G75*
G02*
X14962500Y-22775000I237500J0D01*
G01*
X15537500Y-22775000D01*
G75*
G02*
X15775000Y-23012500I0J-237500D01*
G01*
G37*
%TD.AperFunction*%
%TD*%
%TO.P,R14,2*%
%TO.N,Net-(J4-Pad1)*%
%TA.AperFunction,SMDPad,CuDef*%
G36*
G01*
X24475000Y-37237500D02*
X24475000Y-36762500D01*
G75*
G02*
X24712500Y-36525000I237500J0D01*
G01*
X25287500Y-36525000D01*
G75*
G02*
X25525000Y-36762500I0J-237500D01*
G01*
X25525000Y-37237500D01*
G75*
G02*
X25287500Y-37475000I-237500J0D01*
G01*
X24712500Y-37475000D01*
G75*
G02*
X24475000Y-37237500I0J237500D01*
G01*
G37*
%TD.AperFunction*%
%TO.P,R14,1*%
%TO.N,VIN*%
%TA.AperFunction,SMDPad,CuDef*%
G36*
G01*
X22725000Y-37237500D02*
X22725000Y-36762500D01*
G75*
G02*
X22962500Y-36525000I237500J0D01*
G01*
X23537500Y-36525000D01*
G75*
G02*
X23775000Y-36762500I0J-237500D01*
G01*
X23775000Y-37237500D01*
G75*
G02*
X23537500Y-37475000I-237500J0D01*
G01*
X22962500Y-37475000D01*
G75*
G02*
X22725000Y-37237500I0J237500D01*
G01*
G37*
%TD.AperFunction*%
%TD*%
%TO.P,R13,2*%
%TO.N,GND*%
%TA.AperFunction,SMDPad,CuDef*%
G36*
G01*
X28026000Y-37237500D02*
X28026000Y-36762500D01*
G75*
G02*
X28263500Y-36525000I237500J0D01*
G01*
X28838500Y-36525000D01*
G75*
G02*
X29076000Y-36762500I0J-237500D01*
G01*
X29076000Y-37237500D01*
G75*
G02*
X28838500Y-37475000I-237500J0D01*
G01*
X28263500Y-37475000D01*
G75*
G02*
X28026000Y-37237500I0J237500D01*
G01*
G37*
%TD.AperFunction*%
%TO.P,R13,1*%
%TO.N,BACKLIGHT*%
%TA.AperFunction,SMDPad,CuDef*%
G36*
G01*
X26276000Y-37237500D02*
X26276000Y-36762500D01*
G75*
G02*
X26513500Y-36525000I237500J0D01*
G01*
X27088500Y-36525000D01*
G75*
G02*
X27326000Y-36762500I0J-237500D01*
G01*
X27326000Y-37237500D01*
G75*
G02*
X27088500Y-37475000I-237500J0D01*
G01*
X26513500Y-37475000D01*
G75*
G02*
X26276000Y-37237500I0J237500D01*
G01*
G37*
%TD.AperFunction*%
%TD*%
%TO.P,R12,2*%
%TO.N,GND*%
%TA.AperFunction,SMDPad,CuDef*%
G36*
G01*
X27237500Y-39150000D02*
X26762500Y-39150000D01*
G75*
G02*
X26525000Y-38912500I0J237500D01*
G01*
X26525000Y-38337500D01*
G75*
G02*
X26762500Y-38100000I237500J0D01*
G01*
X27237500Y-38100000D01*
G75*
G02*
X27475000Y-38337500I0J-237500D01*
G01*
X27475000Y-38912500D01*
G75*
G02*
X27237500Y-39150000I-237500J0D01*
G01*
G37*
%TD.AperFunction*%
%TO.P,R12,1*%
%TO.N,Net-(J2-PadB5)*%
%TA.AperFunction,SMDPad,CuDef*%
G36*
G01*
X27237500Y-40900000D02*
X26762500Y-40900000D01*
G75*
G02*
X26525000Y-40662500I0J237500D01*
G01*
X26525000Y-40087500D01*
G75*
G02*
X26762500Y-39850000I237500J0D01*
G01*
X27237500Y-39850000D01*
G75*
G02*
X27475000Y-40087500I0J-237500D01*
G01*
X27475000Y-40662500D01*
G75*
G02*
X27237500Y-40900000I-237500J0D01*
G01*
G37*
%TD.AperFunction*%
%TD*%
%TO.P,R11,2*%
%TO.N,GND*%
%TA.AperFunction,SMDPad,CuDef*%
G36*
G01*
X22737500Y-39150000D02*
X22262500Y-39150000D01*
G75*
G02*
X22025000Y-38912500I0J237500D01*
G01*
X22025000Y-38337500D01*
G75*
G02*
X22262500Y-38100000I237500J0D01*
G01*
X22737500Y-38100000D01*
G75*
G02*
X22975000Y-38337500I0J-237500D01*
G01*
X22975000Y-38912500D01*
G75*
G02*
X22737500Y-39150000I-237500J0D01*
G01*
G37*
%TD.AperFunction*%
%TO.P,R11,1*%
%TO.N,Net-(J2-PadA5)*%
%TA.AperFunction,SMDPad,CuDef*%
G36*
G01*
X22737500Y-40900000D02*
X22262500Y-40900000D01*
G75*
G02*
X22025000Y-40662500I0J237500D01*
G01*
X22025000Y-40087500D01*
G75*
G02*
X22262500Y-39850000I237500J0D01*
G01*
X22737500Y-39850000D01*
G75*
G02*
X22975000Y-40087500I0J-237500D01*
G01*
X22975000Y-40662500D01*
G75*
G02*
X22737500Y-40900000I-237500J0D01*
G01*
G37*
%TD.AperFunction*%
%TD*%
%TO.P,R9,2*%
%TO.N,GND*%
%TA.AperFunction,SMDPad,CuDef*%
G36*
G01*
X28262500Y-39850000D02*
X28737500Y-39850000D01*
G75*
G02*
X28975000Y-40087500I0J-237500D01*
G01*
X28975000Y-40662500D01*
G75*
G02*
X28737500Y-40900000I-237500J0D01*
G01*
X28262500Y-40900000D01*
G75*
G02*
X28025000Y-40662500I0J237500D01*
G01*
X28025000Y-40087500D01*
G75*
G02*
X28262500Y-39850000I237500J0D01*
G01*
G37*
%TD.AperFunction*%
%TO.P,R9,1*%
%TO.N,Net-(R9-Pad1)*%
%TA.AperFunction,SMDPad,CuDef*%
G36*
G01*
X28262500Y-38100000D02*
X28737500Y-38100000D01*
G75*
G02*
X28975000Y-38337500I0J-237500D01*
G01*
X28975000Y-38912500D01*
G75*
G02*
X28737500Y-39150000I-237500J0D01*
G01*
X28262500Y-39150000D01*
G75*
G02*
X28025000Y-38912500I0J237500D01*
G01*
X28025000Y-38337500D01*
G75*
G02*
X28262500Y-38100000I237500J0D01*
G01*
G37*
%TD.AperFunction*%
%TD*%
%TO.P,R6,2*%
%TO.N,RST*%
%TA.AperFunction,SMDPad,CuDef*%
G36*
G01*
X22319000Y-33237500D02*
X22319000Y-32762500D01*
G75*
G02*
X22556500Y-32525000I237500J0D01*
G01*
X23131500Y-32525000D01*
G75*
G02*
X23369000Y-32762500I0J-237500D01*
G01*
X23369000Y-33237500D01*
G75*
G02*
X23131500Y-33475000I-237500J0D01*
G01*
X22556500Y-33475000D01*
G75*
G02*
X22319000Y-33237500I0J237500D01*
G01*
G37*
%TD.AperFunction*%
%TO.P,R6,1*%
%TO.N,VCC*%
%TA.AperFunction,SMDPad,CuDef*%
G36*
G01*
X20569000Y-33237500D02*
X20569000Y-32762500D01*
G75*
G02*
X20806500Y-32525000I237500J0D01*
G01*
X21381500Y-32525000D01*
G75*
G02*
X21619000Y-32762500I0J-237500D01*
G01*
X21619000Y-33237500D01*
G75*
G02*
X21381500Y-33475000I-237500J0D01*
G01*
X20806500Y-33475000D01*
G75*
G02*
X20569000Y-33237500I0J237500D01*
G01*
G37*
%TD.AperFunction*%
%TD*%
%TO.P,R4,2*%
%TO.N,USB_DP*%
%TA.AperFunction,SMDPad,CuDef*%
G36*
G01*
X25262500Y-39850000D02*
X25737500Y-39850000D01*
G75*
G02*
X25975000Y-40087500I0J-237500D01*
G01*
X25975000Y-40662500D01*
G75*
G02*
X25737500Y-40900000I-237500J0D01*
G01*
X25262500Y-40900000D01*
G75*
G02*
X25025000Y-40662500I0J237500D01*
G01*
X25025000Y-40087500D01*
G75*
G02*
X25262500Y-39850000I237500J0D01*
G01*
G37*
%TD.AperFunction*%
%TO.P,R4,1*%
%TO.N,Net-(IC1-Pad35)*%
%TA.AperFunction,SMDPad,CuDef*%
G36*
G01*
X25262500Y-38100000D02*
X25737500Y-38100000D01*
G75*
G02*
X25975000Y-38337500I0J-237500D01*
G01*
X25975000Y-38912500D01*
G75*
G02*
X25737500Y-39150000I-237500J0D01*
G01*
X25262500Y-39150000D01*
G75*
G02*
X25025000Y-38912500I0J237500D01*
G01*
X25025000Y-38337500D01*
G75*
G02*
X25262500Y-38100000I237500J0D01*
G01*
G37*
%TD.AperFunction*%
%TD*%
%TO.P,R3,2*%
%TO.N,USB_DN*%
%TA.AperFunction,SMDPad,CuDef*%
G36*
G01*
X23762500Y-39850000D02*
X24237500Y-39850000D01*
G75*
G02*
X24475000Y-40087500I0J-237500D01*
G01*
X24475000Y-40662500D01*
G75*
G02*
X24237500Y-40900000I-237500J0D01*
G01*
X23762500Y-40900000D01*
G75*
G02*
X23525000Y-40662500I0J237500D01*
G01*
X23525000Y-40087500D01*
G75*
G02*
X23762500Y-39850000I237500J0D01*
G01*
G37*
%TD.AperFunction*%
%TO.P,R3,1*%
%TO.N,Net-(IC1-Pad34)*%
%TA.AperFunction,SMDPad,CuDef*%
G36*
G01*
X23762500Y-38100000D02*
X24237500Y-38100000D01*
G75*
G02*
X24475000Y-38337500I0J-237500D01*
G01*
X24475000Y-38912500D01*
G75*
G02*
X24237500Y-39150000I-237500J0D01*
G01*
X23762500Y-39150000D01*
G75*
G02*
X23525000Y-38912500I0J237500D01*
G01*
X23525000Y-38337500D01*
G75*
G02*
X23762500Y-38100000I237500J0D01*
G01*
G37*
%TD.AperFunction*%
%TD*%
%TO.P,C20,2*%
%TO.N,GND*%
%TA.AperFunction,SMDPad,CuDef*%
G36*
G01*
X28025000Y-42012500D02*
X28025000Y-42487500D01*
G75*
G02*
X27787500Y-42725000I-237500J0D01*
G01*
X27212500Y-42725000D01*
G75*
G02*
X26975000Y-42487500I0J237500D01*
G01*
X26975000Y-42012500D01*
G75*
G02*
X27212500Y-41775000I237500J0D01*
G01*
X27787500Y-41775000D01*
G75*
G02*
X28025000Y-42012500I0J-237500D01*
G01*
G37*
%TD.AperFunction*%
%TO.P,C20,1*%
%TO.N,BATTPOW*%
%TA.AperFunction,SMDPad,CuDef*%
G36*
G01*
X29775000Y-42012500D02*
X29775000Y-42487500D01*
G75*
G02*
X29537500Y-42725000I-237500J0D01*
G01*
X28962500Y-42725000D01*
G75*
G02*
X28725000Y-42487500I0J237500D01*
G01*
X28725000Y-42012500D01*
G75*
G02*
X28962500Y-41775000I237500J0D01*
G01*
X29537500Y-41775000D01*
G75*
G02*
X29775000Y-42012500I0J-237500D01*
G01*
G37*
%TD.AperFunction*%
%TD*%
%TO.P,C10,2*%
%TO.N,GND*%
%TA.AperFunction,SMDPad,CuDef*%
G36*
G01*
X30237500Y-44525000D02*
X29762500Y-44525000D01*
G75*
G02*
X29525000Y-44287500I0J237500D01*
G01*
X29525000Y-43712500D01*
G75*
G02*
X29762500Y-43475000I237500J0D01*
G01*
X30237500Y-43475000D01*
G75*
G02*
X30475000Y-43712500I0J-237500D01*
G01*
X30475000Y-44287500D01*
G75*
G02*
X30237500Y-44525000I-237500J0D01*
G01*
G37*
%TD.AperFunction*%
%TO.P,C10,1*%
%TO.N,Net-(C10-Pad1)*%
%TA.AperFunction,SMDPad,CuDef*%
G36*
G01*
X30237500Y-46275000D02*
X29762500Y-46275000D01*
G75*
G02*
X29525000Y-46037500I0J237500D01*
G01*
X29525000Y-45462500D01*
G75*
G02*
X29762500Y-45225000I237500J0D01*
G01*
X30237500Y-45225000D01*
G75*
G02*
X30475000Y-45462500I0J-237500D01*
G01*
X30475000Y-46037500D01*
G75*
G02*
X30237500Y-46275000I-237500J0D01*
G01*
G37*
%TD.AperFunction*%
%TD*%
%TO.P,C9,2*%
%TO.N,GND*%
%TA.AperFunction,SMDPad,CuDef*%
G36*
G01*
X23737500Y-15025000D02*
X23262500Y-15025000D01*
G75*
G02*
X23025000Y-14787500I0J237500D01*
G01*
X23025000Y-14212500D01*
G75*
G02*
X23262500Y-13975000I237500J0D01*
G01*
X23737500Y-13975000D01*
G75*
G02*
X23975000Y-14212500I0J-237500D01*
G01*
X23975000Y-14787500D01*
G75*
G02*
X23737500Y-15025000I-237500J0D01*
G01*
G37*
%TD.AperFunction*%
%TO.P,C9,1*%
%TO.N,LCD_DISP*%
%TA.AperFunction,SMDPad,CuDef*%
G36*
G01*
X23737500Y-16775000D02*
X23262500Y-16775000D01*
G75*
G02*
X23025000Y-16537500I0J237500D01*
G01*
X23025000Y-15962500D01*
G75*
G02*
X23262500Y-15725000I237500J0D01*
G01*
X23737500Y-15725000D01*
G75*
G02*
X23975000Y-15962500I0J-237500D01*
G01*
X23975000Y-16537500D01*
G75*
G02*
X23737500Y-16775000I-237500J0D01*
G01*
G37*
%TD.AperFunction*%
%TD*%
%TO.P,C7,2*%
%TO.N,GND*%
%TA.AperFunction,SMDPad,CuDef*%
G36*
G01*
X17975000Y-33487500D02*
X17975000Y-33012500D01*
G75*
G02*
X18212500Y-32775000I237500J0D01*
G01*
X18787500Y-32775000D01*
G75*
G02*
X19025000Y-33012500I0J-237500D01*
G01*
X19025000Y-33487500D01*
G75*
G02*
X18787500Y-33725000I-237500J0D01*
G01*
X18212500Y-33725000D01*
G75*
G02*
X17975000Y-33487500I0J237500D01*
G01*
G37*
%TD.AperFunction*%
%TO.P,C7,1*%
%TO.N,VCC*%
%TA.AperFunction,SMDPad,CuDef*%
G36*
G01*
X16225000Y-33487500D02*
X16225000Y-33012500D01*
G75*
G02*
X16462500Y-32775000I237500J0D01*
G01*
X17037500Y-32775000D01*
G75*
G02*
X17275000Y-33012500I0J-237500D01*
G01*
X17275000Y-33487500D01*
G75*
G02*
X17037500Y-33725000I-237500J0D01*
G01*
X16462500Y-33725000D01*
G75*
G02*
X16225000Y-33487500I0J237500D01*
G01*
G37*
%TD.AperFunction*%
%TD*%
%TO.P,C4,2*%
%TO.N,GND*%
%TA.AperFunction,SMDPad,CuDef*%
G36*
G01*
X16762500Y-36350000D02*
X17237500Y-36350000D01*
G75*
G02*
X17475000Y-36587500I0J-237500D01*
G01*
X17475000Y-37162500D01*
G75*
G02*
X17237500Y-37400000I-237500J0D01*
G01*
X16762500Y-37400000D01*
G75*
G02*
X16525000Y-37162500I0J237500D01*
G01*
X16525000Y-36587500D01*
G75*
G02*
X16762500Y-36350000I237500J0D01*
G01*
G37*
%TD.AperFunction*%
%TO.P,C4,1*%
%TO.N,VIN*%
%TA.AperFunction,SMDPad,CuDef*%
G36*
G01*
X16762500Y-34600000D02*
X17237500Y-34600000D01*
G75*
G02*
X17475000Y-34837500I0J-237500D01*
G01*
X17475000Y-35412500D01*
G75*
G02*
X17237500Y-35650000I-237500J0D01*
G01*
X16762500Y-35650000D01*
G75*
G02*
X16525000Y-35412500I0J237500D01*
G01*
X16525000Y-34837500D01*
G75*
G02*
X16762500Y-34600000I237500J0D01*
G01*
G37*
%TD.AperFunction*%
%TD*%
%TO.P,C3,2*%
%TO.N,GND*%
%TA.AperFunction,SMDPad,CuDef*%
G36*
G01*
X17525000Y-26762500D02*
X17525000Y-27237500D01*
G75*
G02*
X17287500Y-27475000I-237500J0D01*
G01*
X16712500Y-27475000D01*
G75*
G02*
X16475000Y-27237500I0J237500D01*
G01*
X16475000Y-26762500D01*
G75*
G02*
X16712500Y-26525000I237500J0D01*
G01*
X17287500Y-26525000D01*
G75*
G02*
X17525000Y-26762500I0J-237500D01*
G01*
G37*
%TD.AperFunction*%
%TO.P,C3,1*%
%TO.N,VCC*%
%TA.AperFunction,SMDPad,CuDef*%
G36*
G01*
X19275000Y-26762500D02*
X19275000Y-27237500D01*
G75*
G02*
X19037500Y-27475000I-237500J0D01*
G01*
X18462500Y-27475000D01*
G75*
G02*
X18225000Y-27237500I0J237500D01*
G01*
X18225000Y-26762500D01*
G75*
G02*
X18462500Y-26525000I237500J0D01*
G01*
X19037500Y-26525000D01*
G75*
G02*
X19275000Y-26762500I0J-237500D01*
G01*
G37*
%TD.AperFunction*%
%TD*%
%TO.P,C2,2*%
%TO.N,/XL2*%
%TA.AperFunction,SMDPad,CuDef*%
G36*
G01*
X16762500Y-24725000D02*
X17237500Y-24725000D01*
G75*
G02*
X17475000Y-24962500I0J-237500D01*
G01*
X17475000Y-25537500D01*
G75*
G02*
X17237500Y-25775000I-237500J0D01*
G01*
X16762500Y-25775000D01*
G75*
G02*
X16525000Y-25537500I0J237500D01*
G01*
X16525000Y-24962500D01*
G75*
G02*
X16762500Y-24725000I237500J0D01*
G01*
G37*
%TD.AperFunction*%
%TO.P,C2,1*%
%TO.N,GND*%
%TA.AperFunction,SMDPad,CuDef*%
G36*
G01*
X16762500Y-22975000D02*
X17237500Y-22975000D01*
G75*
G02*
X17475000Y-23212500I0J-237500D01*
G01*
X17475000Y-23787500D01*
G75*
G02*
X17237500Y-24025000I-237500J0D01*
G01*
X16762500Y-24025000D01*
G75*
G02*
X16525000Y-23787500I0J237500D01*
G01*
X16525000Y-23212500D01*
G75*
G02*
X16762500Y-22975000I237500J0D01*
G01*
G37*
%TD.AperFunction*%
%TD*%
%TO.P,C1,2*%
%TO.N,/XL1*%
%TA.AperFunction,SMDPad,CuDef*%
G36*
G01*
X16512500Y-21475000D02*
X16987500Y-21475000D01*
G75*
G02*
X17225000Y-21712500I0J-237500D01*
G01*
X17225000Y-22287500D01*
G75*
G02*
X16987500Y-22525000I-237500J0D01*
G01*
X16512500Y-22525000D01*
G75*
G02*
X16275000Y-22287500I0J237500D01*
G01*
X16275000Y-21712500D01*
G75*
G02*
X16512500Y-21475000I237500J0D01*
G01*
G37*
%TD.AperFunction*%
%TO.P,C1,1*%
%TO.N,GND*%
%TA.AperFunction,SMDPad,CuDef*%
G36*
G01*
X16512500Y-19725000D02*
X16987500Y-19725000D01*
G75*
G02*
X17225000Y-19962500I0J-237500D01*
G01*
X17225000Y-20537500D01*
G75*
G02*
X16987500Y-20775000I-237500J0D01*
G01*
X16512500Y-20775000D01*
G75*
G02*
X16275000Y-20537500I0J237500D01*
G01*
X16275000Y-19962500D01*
G75*
G02*
X16512500Y-19725000I237500J0D01*
G01*
G37*
%TD.AperFunction*%
%TD*%
D18*
%TO.P,P1,P2*%
%TO.N,N/C*%
X18400000Y-36702500D03*
%TO.P,P1,P4*%
X18400000Y-35297500D03*
%TO.P,P1,P3*%
X21600000Y-35297500D03*
%TO.P,P1,P1*%
X21600000Y-36702500D03*
D19*
%TO.P,P1,9,9*%
%TO.N,GND*%
X19200000Y-37225000D03*
%TO.P,P1,1,1*%
%TO.N,VIN*%
X20800000Y-37225000D03*
%TO.P,P1,7,7*%
%TO.N,BUTTON4*%
X19600000Y-37225000D03*
%TO.P,P1,3,3*%
%TO.N,FLASHLIGHT*%
X20400000Y-37225000D03*
%TO.P,P1,5,5*%
%TO.N,BUTTON2*%
X20000000Y-37225000D03*
%TO.P,P1,10,10*%
%TO.N,N/C*%
X19200000Y-34775000D03*
%TO.P,P1,2,2*%
%TO.N,VCC*%
X20800000Y-34775000D03*
%TO.P,P1,8,8*%
%TO.N,N/C*%
X19600000Y-34775000D03*
%TO.P,P1,4,4*%
X20400000Y-34775000D03*
%TO.P,P1,6,6*%
X20000000Y-34775000D03*
%TD*%
D20*
%TO.P,IC2,4*%
%TO.N,N/C*%
X17950000Y-28950000D03*
%TO.P,IC2,3,VSS*%
%TO.N,GND*%
X17950000Y-29850000D03*
%TO.P,IC2,2,SQW*%
%TO.N,SQW*%
X17950000Y-30750000D03*
%TO.P,IC2,1,SDA*%
%TO.N,SDA*%
X17950000Y-31650000D03*
%TO.P,IC2,5,VCC*%
%TO.N,VCC*%
X17050000Y-28950000D03*
%TO.P,IC2,6,~IRQ/OUT~*%
%TO.N,RTCIRQ*%
X17050000Y-29850000D03*
%TO.P,IC2,7*%
%TO.N,N/C*%
X17050000Y-30750000D03*
%TO.P,IC2,8,SCL*%
%TO.N,SCL*%
X17050000Y-31650000D03*
%TD*%
D21*
%TO.P,U6,C3,GND*%
%TO.N,GND*%
X28400000Y-45400000D03*
%TO.P,U6,C2,REG*%
%TO.N,Net-(C10-Pad1)*%
X28000000Y-45400000D03*
%TO.P,U6,C1,SDA*%
%TO.N,SDA*%
X27600000Y-45400000D03*
%TO.P,U6,B3,SYS*%
%TO.N,BATTPOW*%
X28400000Y-45000000D03*
%TO.P,U6,B2,~ALRT~*%
%TO.N,N/C*%
X28000000Y-45000000D03*
%TO.P,U6,B1,SCL*%
%TO.N,SCL*%
X27600000Y-45000000D03*
%TO.P,U6,A3,NC*%
%TO.N,N/C*%
X28400000Y-44600000D03*
%TO.P,U6,A2,BATT*%
%TO.N,+BATT*%
X28000000Y-44600000D03*
%TO.P,U6,A1,TH*%
X27600000Y-44600000D03*
%TD*%
D22*
%TO.P,J1,10,Pin_10*%
%TO.N,GND*%
X27250000Y-19350000D03*
%TO.P,J1,9,Pin_9*%
X27750000Y-19350000D03*
%TO.P,J1,8,Pin_8*%
%TO.N,+5V*%
X28250000Y-19350000D03*
%TO.P,J1,7,Pin_7*%
X28750000Y-19350000D03*
%TO.P,J1,6,Pin_6*%
X29250000Y-19350000D03*
%TO.P,J1,5,Pin_5*%
%TO.N,LCD_DISP*%
X29750000Y-19350000D03*
%TO.P,J1,4,Pin_4*%
%TO.N,SQW*%
X30250000Y-19350000D03*
%TO.P,J1,3,Pin_3*%
%TO.N,LCD_CS*%
X30750000Y-19350000D03*
%TO.P,J1,2,Pin_2*%
%TO.N,SPI_MOSI*%
X31250000Y-19350000D03*
%TO.P,J1,1,Pin_1*%
%TO.N,SPI_CLK*%
X31750000Y-19350000D03*
D23*
%TO.P,J1,MP*%
%TO.N,N/C*%
X33650000Y-16100000D03*
X25350000Y-16100000D03*
%TD*%
D24*
%TO.P,Q4,3,D*%
%TO.N,Net-(J3-Pad2)*%
X13250000Y-25500000D03*
%TO.P,Q4,2,S*%
%TO.N,GND*%
X15250000Y-24850000D03*
%TO.P,Q4,1,G*%
%TO.N,BUZZER*%
X15250000Y-26150000D03*
%TD*%
D25*
%TO.P,J2,A12,GND*%
%TO.N,GND*%
X24700000Y-42240000D03*
%TO.P,J2,A9,VBUS*%
%TO.N,VUSB*%
X23900000Y-42240000D03*
%TO.P,J2,A1,GND*%
%TO.N,GND*%
X18300000Y-42240000D03*
%TO.P,J2,A4,VBUS*%
%TO.N,VUSB*%
X19100000Y-42240000D03*
D26*
%TO.P,J2,B5,CC2*%
%TO.N,Net-(J2-PadB5)*%
X23250000Y-42240000D03*
%TO.P,J2,B6,D+*%
%TO.N,USB_DP*%
X22250000Y-42240000D03*
%TO.P,J2,A8,SBU1*%
%TO.N,N/C*%
X22750000Y-42240000D03*
%TO.P,J2,A5,CC1*%
%TO.N,Net-(J2-PadA5)*%
X20250000Y-42240000D03*
%TO.P,J2,B8,SBU2*%
%TO.N,N/C*%
X19750000Y-42240000D03*
%TO.P,J2,A7,D-*%
%TO.N,USB_DN*%
X21750000Y-42240000D03*
%TO.P,J2,A6,D+*%
%TO.N,USB_DP*%
X21250000Y-42240000D03*
%TO.P,J2,B7,D-*%
%TO.N,USB_DN*%
X20750000Y-42240000D03*
D27*
%TO.P,J2,S1,SHIELD*%
%TO.N,GND*%
X25820000Y-46990000D03*
X17180000Y-46990000D03*
D28*
X25820000Y-42820000D03*
X17180000Y-42820000D03*
%TD*%
D29*
%TO.P,SW4,4*%
%TO.N,N/C*%
X13000000Y-49125000D03*
%TO.P,SW4,3*%
X13000000Y-42375000D03*
D30*
%TO.P,SW4,2,2*%
%TO.N,BUTTON3*%
X14885000Y-47850000D03*
%TO.P,SW4,1,1*%
%TO.N,GND*%
X14885000Y-43650000D03*
%TD*%
D29*
%TO.P,SW2,4*%
%TO.N,N/C*%
X13000000Y-20125000D03*
%TO.P,SW2,3*%
X13000000Y-13375000D03*
D30*
%TO.P,SW2,2,2*%
%TO.N,BUTTON1*%
X14885000Y-18850000D03*
%TO.P,SW2,1,1*%
%TO.N,GND*%
X14885000Y-14650000D03*
%TD*%
D29*
%TO.P,SW1,4*%
%TO.N,N/C*%
X13000000Y-34625000D03*
%TO.P,SW1,3*%
X13000000Y-27875000D03*
D30*
%TO.P,SW1,2,2*%
%TO.N,BUTTON5*%
X14885000Y-33350000D03*
%TO.P,SW1,1,1*%
%TO.N,GND*%
X14885000Y-29150000D03*
%TD*%
D31*
%TO.P,Q3,3,D*%
%TO.N,Net-(J4-Pad3)*%
X27750000Y-34909000D03*
%TO.P,Q3,2,S*%
%TO.N,GND*%
X27100000Y-32909000D03*
%TO.P,Q3,1,G*%
%TO.N,BACKLIGHT*%
X28400000Y-32909000D03*
%TD*%
D32*
%TO.P,Y1,2,2*%
%TO.N,/XL1*%
X18750000Y-22575000D03*
%TO.P,Y1,1,1*%
%TO.N,/XL2*%
X18750000Y-24425000D03*
%TD*%
D33*
%TO.P,U3,5,PROG*%
%TO.N,Net-(R9-Pad1)*%
X31550000Y-41400000D03*
%TO.P,U3,4,VDD*%
%TO.N,VUSB*%
X33450000Y-41400000D03*
%TO.P,U3,3,VBAT*%
%TO.N,BATTPOW*%
X33450000Y-43600000D03*
%TO.P,U3,2,VSS*%
%TO.N,GND*%
X32500000Y-43600000D03*
%TO.P,U3,1,STAT*%
%TO.N,CHGNG*%
X31550000Y-43600000D03*
%TD*%
D34*
%TO.P,U2,5,SW*%
%TO.N,Net-(L1-Pad1)*%
X13250000Y-40400000D03*
%TO.P,U2,4,FB*%
%TO.N,VCC*%
X13250000Y-38500000D03*
%TO.P,U2,3,EN*%
%TO.N,VIN*%
X15950000Y-38500000D03*
%TO.P,U2,2,GND*%
%TO.N,GND*%
X15950000Y-39450000D03*
%TO.P,U2,1,VIN*%
%TO.N,VIN*%
X15950000Y-40400000D03*
%TD*%
D35*
%TO.P,SW_RESET1,2,2*%
%TO.N,GND*%
X24956000Y-35625000D03*
%TO.P,SW_RESET1,1,1*%
%TO.N,RST*%
X24956000Y-32375000D03*
%TD*%
%TO.P,L1,2,2*%
%TO.N,VCC*%
%TA.AperFunction,SMDPad,CuDef*%
G36*
G01*
X13775000Y-36512500D02*
X13775000Y-36987500D01*
G75*
G02*
X13537500Y-37225000I-237500J0D01*
G01*
X12962500Y-37225000D01*
G75*
G02*
X12725000Y-36987500I0J237500D01*
G01*
X12725000Y-36512500D01*
G75*
G02*
X12962500Y-36275000I237500J0D01*
G01*
X13537500Y-36275000D01*
G75*
G02*
X13775000Y-36512500I0J-237500D01*
G01*
G37*
%TD.AperFunction*%
%TO.P,L1,1,1*%
%TO.N,Net-(L1-Pad1)*%
%TA.AperFunction,SMDPad,CuDef*%
G36*
G01*
X15525000Y-36512500D02*
X15525000Y-36987500D01*
G75*
G02*
X15287500Y-37225000I-237500J0D01*
G01*
X14712500Y-37225000D01*
G75*
G02*
X14475000Y-36987500I0J237500D01*
G01*
X14475000Y-36512500D01*
G75*
G02*
X14712500Y-36275000I237500J0D01*
G01*
X15287500Y-36275000D01*
G75*
G02*
X15525000Y-36512500I0J-237500D01*
G01*
G37*
%TD.AperFunction*%
%TD*%
D36*
%TO.P,IC1,1,GND_1*%
%TO.N,GND*%
X31250000Y-21850000D03*
%TO.P,IC1,2,GND_2*%
X30150000Y-21850000D03*
%TO.P,IC1,3,P1.10*%
%TO.N,LCD_CS*%
X29350000Y-21850000D03*
%TO.P,IC1,4,P1.11*%
%TO.N,LCD_DISP*%
X27750000Y-21850000D03*
%TO.P,IC1,5,P1.12*%
%TO.N,N/C*%
X27350000Y-22750000D03*
%TO.P,IC1,6,P1.13*%
X26950000Y-21850000D03*
%TO.P,IC1,7,P1.14*%
%TO.N,ACCELINT1*%
X26550000Y-22750000D03*
%TO.P,IC1,8,P1.15*%
%TO.N,N/C*%
X26150000Y-21850000D03*
%TO.P,IC1,9,P0.03*%
%TO.N,ACCELINT2*%
X25750000Y-22750000D03*
%TO.P,IC1,10,P0.29*%
%TO.N,N/C*%
X25350000Y-21850000D03*
%TO.P,IC1,11,P0.02*%
X24950000Y-22750000D03*
%TO.P,IC1,12,P0.31*%
X24550000Y-21850000D03*
%TO.P,IC1,13,P0.28*%
%TO.N,BUZZER*%
X24150000Y-22750000D03*
%TO.P,IC1,14,P0.30*%
%TO.N,N/C*%
X23750000Y-21850000D03*
D37*
%TO.P,IC1,15,GND_3*%
%TO.N,GND*%
X20350000Y-21700000D03*
%TO.P,IC1,16,P0.27*%
%TO.N,N/C*%
X20350000Y-22500000D03*
%TO.P,IC1,17,P0.00/XL1*%
%TO.N,/XL1*%
X20350000Y-23300000D03*
%TO.P,IC1,18,P0.01/XL2*%
%TO.N,/XL2*%
X20350000Y-24100000D03*
%TO.P,IC1,19,P0.26*%
%TO.N,N/C*%
X21250000Y-24500000D03*
%TO.P,IC1,20,P0.04*%
X20350000Y-24900000D03*
%TO.P,IC1,21,P0.05*%
%TO.N,SPI_CLK*%
X21250000Y-25300000D03*
%TO.P,IC1,22,P0.06*%
%TO.N,BUTTON1*%
X20350000Y-25700000D03*
%TO.P,IC1,23,P0.07*%
%TO.N,SPI_MOSI*%
X21250000Y-26100000D03*
%TO.P,IC1,24,P0.08*%
%TO.N,BUTTON5*%
X20350000Y-26500000D03*
%TO.P,IC1,25,P1.08*%
%TO.N,N/C*%
X21250000Y-26900000D03*
%TO.P,IC1,26,P1.09*%
%TO.N,BUTTON3*%
X20350000Y-27300000D03*
%TO.P,IC1,27,P0.11*%
%TO.N,N/C*%
X21250000Y-27700000D03*
%TO.P,IC1,28,VDD*%
%TO.N,VCC*%
X20350000Y-28100000D03*
%TO.P,IC1,29,P0.12*%
%TO.N,N/C*%
X21250000Y-28500000D03*
%TO.P,IC1,30,VDDH*%
%TO.N,VCC*%
X20350000Y-28900000D03*
%TO.P,IC1,31,DCCH*%
%TO.N,N/C*%
X20350000Y-29700000D03*
%TO.P,IC1,32,VBUS*%
%TO.N,VUSB*%
X20350000Y-30500000D03*
%TO.P,IC1,33,GND_4*%
%TO.N,GND*%
X20350000Y-31300000D03*
D36*
%TO.P,IC1,34,D-*%
%TO.N,Net-(IC1-Pad34)*%
X21350000Y-31150000D03*
%TO.P,IC1,35,D+*%
%TO.N,Net-(IC1-Pad35)*%
X22150000Y-31150000D03*
%TO.P,IC1,36,P0.14*%
%TO.N,N/C*%
X22550000Y-30250000D03*
%TO.P,IC1,37,P0.13*%
X22950000Y-31150000D03*
%TO.P,IC1,38,P0.16*%
X23350000Y-30250000D03*
%TO.P,IC1,39,P0.15*%
X23750000Y-31150000D03*
%TO.P,IC1,40,P0.18/RESET*%
%TO.N,RST*%
X24150000Y-30250000D03*
%TO.P,IC1,41,P0.17*%
%TO.N,RTCIRQ*%
X24550000Y-31150000D03*
%TO.P,IC1,42,P0.19*%
%TO.N,SQW*%
X24950000Y-30250000D03*
%TO.P,IC1,43,P0.21*%
%TO.N,N/C*%
X25750000Y-30250000D03*
%TO.P,IC1,44,P0.20*%
%TO.N,SDA*%
X26150000Y-31150000D03*
%TO.P,IC1,45,P0.23*%
%TO.N,BACKLIGHT*%
X26550000Y-30250000D03*
%TO.P,IC1,46,P0.22*%
%TO.N,SCL*%
X26950000Y-31150000D03*
%TO.P,IC1,47,P1.00*%
%TO.N,N/C*%
X27350000Y-30250000D03*
%TO.P,IC1,48,P0.24*%
%TO.N,BUTTON4*%
X27750000Y-31150000D03*
%TO.P,IC1,49,P0.25*%
%TO.N,FLASHLIGHT*%
X28150000Y-30250000D03*
%TO.P,IC1,50,P1.02*%
%TO.N,BUTTON2*%
X28950000Y-30250000D03*
%TO.P,IC1,51,SWDIO*%
%TO.N,SWDIO*%
X29350000Y-31150000D03*
%TO.P,IC1,52,P0.09/NFC1*%
%TO.N,CHGNG*%
X29750000Y-30250000D03*
%TO.P,IC1,53,SWDCLK*%
%TO.N,SWDCLK*%
X30150000Y-31150000D03*
%TO.P,IC1,54,P0.10/NFC2*%
%TO.N,N/C*%
X30550000Y-30250000D03*
%TO.P,IC1,55,GND_5*%
%TO.N,GND*%
X31250000Y-31150000D03*
D37*
%TO.P,IC1,56,P1.04*%
%TO.N,N/C*%
X26950000Y-24500000D03*
%TO.P,IC1,57,P1.06*%
X26950000Y-25300000D03*
%TO.P,IC1,58,P1.07*%
X26950000Y-26100000D03*
%TO.P,IC1,59,P1.05*%
X26950000Y-26900000D03*
%TO.P,IC1,60,P1.03*%
X26950000Y-27700000D03*
%TO.P,IC1,61,P1.01*%
X26950000Y-28500000D03*
%TD*%
D38*
%TO.P,D1,3,K*%
%TO.N,VIN*%
X18000000Y-39500000D03*
%TO.P,D1,2,A*%
%TO.N,BATTPOW*%
X20620000Y-38550000D03*
%TO.P,D1,1,A*%
%TO.N,VUSB*%
X20620000Y-40450000D03*
%TD*%
D39*
%TO.N,+BATT*%
X28250008Y-43772832D03*
%TO.N,VUSB*%
X28550338Y-43140525D03*
%TO.N,BATTPOW*%
X29135317Y-43423923D03*
%TO.N,GND*%
X18750000Y-16500000D03*
X20750000Y-17500000D03*
%TO.N,VIN*%
X19385832Y-17135832D03*
%TO.N,GND*%
X32750000Y-44750000D03*
%TO.N,VCC*%
X22750472Y-18265010D03*
%TO.N,GND*%
X19000000Y-20750000D03*
%TO.N,SCL*%
X19367217Y-19654448D03*
%TO.N,GND*%
X17000000Y-18250000D03*
X16500000Y-20525000D03*
%TO.N,LCD_DISP*%
X29250000Y-20500000D03*
X28250000Y-22000000D03*
%TO.N,GND*%
X26443108Y-18515010D03*
%TO.N,LCD_DISP*%
X29500000Y-18000000D03*
X24000000Y-15750000D03*
%TO.N,VIN*%
X24750000Y-20750000D03*
X31500000Y-36000000D03*
%TO.N,+5V*%
X28250000Y-16500000D03*
%TO.N,GND*%
X21000000Y-13250000D03*
%TO.N,VCC*%
X20000000Y-18250000D03*
%TO.N,ACCELINT2*%
X24000000Y-19015010D03*
%TO.N,VUSB*%
X31950874Y-42660031D03*
%TO.N,GND*%
X32559208Y-43035554D03*
%TO.N,VUSB*%
X33450000Y-41400000D03*
%TO.N,+BATT*%
X28250000Y-46500000D03*
%TO.N,GND*%
X30000000Y-44000000D03*
X22500000Y-38750000D03*
X16000000Y-39500000D03*
X17000000Y-37000000D03*
X18500000Y-33250000D03*
X15000000Y-29000000D03*
X15250000Y-24750000D03*
X13500000Y-23250000D03*
%TO.N,BUZZER*%
X15500000Y-23250000D03*
%TO.N,RTCIRQ*%
X24550000Y-31150000D03*
%TO.N,Net-(IC1-Pad34)*%
X24000000Y-38500000D03*
%TO.N,Net-(IC1-Pad35)*%
X25500000Y-38625000D03*
%TO.N,RST*%
X24059352Y-30216976D03*
%TO.N,BUTTON1*%
X14885000Y-18850000D03*
%TO.N,CHGNG*%
X31500000Y-43500000D03*
%TO.N,RST*%
X24956000Y-32375000D03*
%TO.N,BATTPOW*%
X29250000Y-42250000D03*
%TO.N,VUSB*%
X23850002Y-42000000D03*
X20620000Y-40450000D03*
%TO.N,USB_DP*%
X25500000Y-40500000D03*
%TO.N,LCD_CS*%
X29219030Y-21727350D03*
%TO.N,GND*%
X17000000Y-23500000D03*
X28551000Y-37000000D03*
X27000000Y-38625000D03*
X28500000Y-40375000D03*
X14750000Y-14750000D03*
X20250000Y-21750000D03*
X27000000Y-33000000D03*
X30692130Y-23182201D03*
%TO.N,SPI_MOSI*%
X23750000Y-25750000D03*
%TO.N,SPI_CLK*%
X31715010Y-20500000D03*
%TO.N,SPI_MOSI*%
X30731801Y-21231801D03*
X22000000Y-26000000D03*
X23750000Y-24750000D03*
%TO.N,SPI_CLK*%
X22000000Y-25250000D03*
%TO.N,Net-(J4-Pad1)*%
X33000000Y-38750000D03*
X31500000Y-38750000D03*
%TO.N,GND*%
X26250000Y-35500000D03*
%TO.N,VIN*%
X27326320Y-35990837D03*
%TO.N,GND*%
X24000000Y-46500000D03*
%TO.N,SDA*%
X26314765Y-44822982D03*
%TO.N,GND*%
X32500000Y-33250000D03*
%TO.N,FLASHLIGHT*%
X26234990Y-32250000D03*
%TO.N,GND*%
X25750000Y-28250000D03*
%TO.N,SCL*%
X27491427Y-31845936D03*
%TO.N,FLASHLIGHT*%
X27938183Y-29171117D03*
%TO.N,GND*%
X28750000Y-29000000D03*
%TO.N,BACKLIGHT*%
X26971655Y-29480020D03*
%TO.N,GND*%
X20750000Y-39500000D03*
X20500000Y-32000000D03*
%TO.N,VUSB*%
X19856663Y-32621673D03*
%TO.N,RTCIRQ*%
X16265010Y-31250000D03*
%TO.N,GND*%
X16250000Y-27000000D03*
X18250000Y-28250000D03*
%TO.N,SDA*%
X18935749Y-29441123D03*
%TO.N,SQW*%
X18350381Y-30492798D03*
%TO.N,VIN*%
X30500000Y-28500000D03*
%TO.N,SWDIO*%
X29397837Y-32270263D03*
%TO.N,VIN*%
X30250000Y-35500000D03*
%TO.N,SWDCLK*%
X30034990Y-32141613D03*
%TO.N,VIN*%
X29000000Y-35750000D03*
%TO.N,GND*%
X21250000Y-22750000D03*
%TO.N,VUSB*%
X23500000Y-45250000D03*
%TO.N,VCC*%
X21500000Y-19000000D03*
%TO.N,SDA*%
X25750000Y-34250000D03*
X26250000Y-33250000D03*
%TO.N,SCL*%
X27250000Y-43500000D03*
X22500000Y-28250000D03*
%TO.N,SDA*%
X22078812Y-21671188D03*
%TO.N,SCL*%
X22500000Y-22500000D03*
X19500000Y-29000000D03*
%TO.N,BUTTON3*%
X19500000Y-27969988D03*
%TO.N,SDA*%
X22000000Y-29000000D03*
X21250000Y-20500000D03*
%TO.N,ACCELINT1*%
X25500000Y-19250000D03*
X26500000Y-23500000D03*
%TO.N,ACCELINT2*%
X25500000Y-23500000D03*
%TO.N,BUZZER*%
X17750000Y-21500000D03*
%TO.N,SQW*%
X28750000Y-23000000D03*
X30250000Y-20500000D03*
%TO.N,LCD_CS*%
X30750000Y-17750000D03*
%TO.N,Net-(IC1-Pad34)*%
X21507206Y-32045021D03*
%TO.N,Net-(IC1-Pad35)*%
X22507206Y-32045021D03*
%TO.N,BUTTON3*%
X14000000Y-35000000D03*
X14000000Y-45250000D03*
X14250000Y-30500000D03*
%TO.N,BUTTON5*%
X19500000Y-26250000D03*
X16750000Y-28250000D03*
%TO.N,FLASHLIGHT*%
X21500000Y-34519998D03*
%TO.N,BUTTON2*%
X21218353Y-33934174D03*
%TO.N,FLASHLIGHT*%
X20924998Y-36450124D03*
%TO.N,BACKLIGHT*%
X28469989Y-31500000D03*
%TO.N,BUTTON2*%
X23250000Y-34250000D03*
X20000000Y-36250000D03*
X28750000Y-33750000D03*
%TO.N,SCL*%
X23476021Y-31893878D03*
X18631992Y-31765010D03*
%TO.N,SQW*%
X21500000Y-30000000D03*
%TO.N,SDA*%
X25500000Y-31000000D03*
%TO.N,BUTTON1*%
X19000000Y-25750000D03*
%TO.N,CHGNG*%
X31000000Y-29250000D03*
%TO.N,USB_DP*%
X22000000Y-44250000D03*
X21250000Y-43500000D03*
%TD*%
D40*
%TO.N,USB_DN*%
X20500000Y-48000000D02*
X20750000Y-47750000D01*
X20750000Y-47750000D02*
X20750000Y-42240000D01*
%TO.N,USB_DP*%
X22500000Y-48000000D02*
X22500000Y-44250000D01*
X22500000Y-44250000D02*
X22250000Y-44000000D01*
%TO.N,VUSB*%
X30949076Y-42958922D02*
X28731941Y-42958922D01*
%TO.N,BATTPOW*%
X28562032Y-45000000D02*
X28400000Y-45000000D01*
%TO.N,+BATT*%
X28000000Y-44022840D02*
X28250008Y-43772832D01*
%TO.N,VUSB*%
X31247967Y-42660031D02*
X30949076Y-42958922D01*
%TO.N,BATTPOW*%
X29135317Y-43423923D02*
X29135317Y-44426715D01*
%TO.N,+BATT*%
X28000000Y-44600000D02*
X28000000Y-44022840D01*
%TO.N,VUSB*%
X28731941Y-42958922D02*
X28550338Y-43140525D01*
X31950874Y-42660031D02*
X31247967Y-42660031D01*
%TO.N,BATTPOW*%
X29135317Y-44426715D02*
X28562032Y-45000000D01*
%TO.N,GND*%
X18862500Y-16387500D02*
X18750000Y-16500000D01*
%TO.N,VIN*%
X18234998Y-16747202D02*
X18623628Y-17135832D01*
X18234998Y-15238000D02*
X18234998Y-16747202D01*
X18623628Y-17135832D02*
X19385832Y-17135832D01*
X18860498Y-14612500D02*
X18234998Y-15238000D01*
%TO.N,GND*%
X19100000Y-16387500D02*
X18862500Y-16387500D01*
%TO.N,VIN*%
X19100000Y-14612500D02*
X18860498Y-14612500D01*
X19750000Y-16771664D02*
X19385832Y-17135832D01*
%TO.N,GND*%
X21250000Y-18225000D02*
X21250000Y-18000000D01*
%TO.N,VIN*%
X19750000Y-16387500D02*
X19750000Y-16771664D01*
%TO.N,GND*%
X21250000Y-18000000D02*
X20750000Y-17500000D01*
X32500000Y-44500000D02*
X32750000Y-44750000D01*
X32500000Y-43600000D02*
X32500000Y-44500000D01*
X21750000Y-17920000D02*
X21920000Y-17750000D01*
%TO.N,VCC*%
X22710462Y-18225000D02*
X22750472Y-18265010D01*
X22250000Y-18225000D02*
X22710462Y-18225000D01*
%TO.N,GND*%
X21750000Y-18225000D02*
X21750000Y-17920000D01*
%TO.N,+5V*%
X20400000Y-16387500D02*
X21432489Y-17419989D01*
X24192988Y-17419990D02*
X24237999Y-17465001D01*
X21432489Y-17419989D02*
X24192988Y-17419990D01*
X24237999Y-17465001D02*
X28215001Y-17465001D01*
%TO.N,GND*%
X24056292Y-17750000D02*
X24821302Y-18515010D01*
X21920000Y-17750000D02*
X24056292Y-17750000D01*
X24821302Y-18515010D02*
X26443108Y-18515010D01*
%TO.N,BUZZER*%
X22543814Y-21447986D02*
X22543814Y-21620816D01*
X23672998Y-22750000D02*
X24150000Y-22750000D01*
%TO.N,GND*%
X19975000Y-19775000D02*
X19000000Y-20750000D01*
%TO.N,BUZZER*%
X22543814Y-21620816D02*
X23672998Y-22750000D01*
%TO.N,SCL*%
X19771665Y-19250000D02*
X19367217Y-19654448D01*
X20725000Y-19250000D02*
X19771665Y-19250000D01*
%TO.N,BUZZER*%
X17750000Y-21500000D02*
X19262204Y-21500000D01*
%TO.N,GND*%
X20750000Y-19775000D02*
X19975000Y-19775000D01*
%TO.N,BUZZER*%
X22302014Y-21206186D02*
X22543814Y-21447986D01*
X19556018Y-21206186D02*
X22302014Y-21206186D01*
X19262204Y-21500000D02*
X19556018Y-21206186D01*
%TO.N,GND*%
X16749999Y-20275001D02*
X16500000Y-20525000D01*
X16750000Y-20250000D02*
X16749999Y-20275001D01*
%TO.N,VCC*%
X20000000Y-18250000D02*
X17209990Y-21040010D01*
X17209990Y-21040010D02*
X15959990Y-21040010D01*
X15959990Y-21040010D02*
X15250000Y-21750000D01*
%TO.N,Net-(J3-Pad2)*%
X13250000Y-25500000D02*
X14290010Y-24459990D01*
X16209990Y-18984792D02*
X16209990Y-17290010D01*
X14290010Y-24459990D02*
X14290010Y-20904772D01*
X14290010Y-20904772D02*
X16209990Y-18984792D01*
X16209990Y-17290010D02*
X17250000Y-16250000D01*
%TO.N,Net-(J3-Pad1)*%
X17250000Y-14250000D02*
X13750000Y-17750000D01*
X13750000Y-17750000D02*
X13750000Y-21500000D01*
X13750000Y-21500000D02*
X13500000Y-21750000D01*
%TO.N,GND*%
X30150000Y-21750000D02*
X29415001Y-21015001D01*
X29415001Y-21015001D02*
X28635001Y-21015001D01*
%TO.N,VIN*%
X30500000Y-23887002D02*
X30500000Y-28500000D01*
%TO.N,LCD_DISP*%
X28100000Y-21850000D02*
X28250000Y-22000000D01*
X29603553Y-20500000D02*
X29750000Y-20353553D01*
%TO.N,GND*%
X30150000Y-21850000D02*
X30150000Y-21750000D01*
%TO.N,VIN*%
X28715002Y-22102004D02*
X30500000Y-23887002D01*
%TO.N,GND*%
X28635001Y-21015001D02*
X27750000Y-20130000D01*
%TO.N,LCD_DISP*%
X29250000Y-20500000D02*
X29603553Y-20500000D01*
%TO.N,VIN*%
X28715002Y-21776798D02*
X28715002Y-22102004D01*
%TO.N,LCD_DISP*%
X29750000Y-20353553D02*
X29750000Y-19350000D01*
%TO.N,VIN*%
X24750000Y-20750000D02*
X27688204Y-20750000D01*
%TO.N,LCD_DISP*%
X27750000Y-21850000D02*
X28100000Y-21850000D01*
%TO.N,VIN*%
X27688204Y-20750000D02*
X28715002Y-21776798D01*
%TO.N,GND*%
X27750000Y-20130000D02*
X27750000Y-19350000D01*
X27250000Y-19321902D02*
X26443108Y-18515010D01*
X27250000Y-19350000D02*
X27250000Y-19321902D01*
%TO.N,LCD_DISP*%
X29500000Y-18320000D02*
X29500000Y-18000000D01*
X29750000Y-18570000D02*
X29500000Y-18320000D01*
X29750000Y-19350000D02*
X29750000Y-18570000D01*
X24000000Y-15750000D02*
X23500000Y-16250000D01*
%TO.N,+5V*%
X20400000Y-16387500D02*
X20400000Y-17112204D01*
X19262204Y-18250000D02*
X18750000Y-18250000D01*
X20400000Y-17112204D02*
X19262204Y-18250000D01*
%TO.N,Net-(J4-Pad3)*%
X32250000Y-35987798D02*
X32250000Y-38750000D01*
X31171202Y-34909000D02*
X32250000Y-35987798D01*
%TO.N,VIN*%
X31500000Y-36000000D02*
X30750000Y-36000000D01*
%TO.N,Net-(J4-Pad3)*%
X27750000Y-34909000D02*
X31171202Y-34909000D01*
%TO.N,VIN*%
X30750000Y-36000000D02*
X30250000Y-35500000D01*
%TO.N,+5V*%
X28215001Y-17465001D02*
X28215001Y-16534999D01*
X28215001Y-16534999D02*
X28250000Y-16500000D01*
%TO.N,GND*%
X20875000Y-13250000D02*
X21000000Y-13250000D01*
X23500000Y-14500000D02*
X22250000Y-13250000D01*
X22250000Y-13250000D02*
X20875000Y-13250000D01*
%TO.N,Net-(C6-Pad1)*%
X20400000Y-14612500D02*
X20872858Y-14612500D01*
X20872858Y-14612500D02*
X22000000Y-15739642D01*
X22000000Y-15739642D02*
X22000000Y-16250000D01*
%TO.N,Net-(C6-Pad2)*%
X22000000Y-14500000D02*
X21659990Y-14159990D01*
X21659990Y-14159990D02*
X20015010Y-14159990D01*
X20015010Y-14159990D02*
X19750000Y-14425000D01*
X19750000Y-14425000D02*
X19750000Y-14612500D01*
%TO.N,GND*%
X19100000Y-16387500D02*
X19100000Y-15600000D01*
X19100000Y-15600000D02*
X19200000Y-15500000D01*
%TO.N,VIN*%
X19125000Y-13250000D02*
X19125000Y-14587500D01*
X19125000Y-14587500D02*
X19100000Y-14612500D01*
%TO.N,VCC*%
X20750000Y-18225000D02*
X20025000Y-18225000D01*
X20025000Y-18225000D02*
X20000000Y-18250000D01*
%TO.N,ACCELINT1*%
X23752798Y-19530012D02*
X25219988Y-19530012D01*
%TO.N,+5V*%
X28750000Y-18000000D02*
X28750000Y-19350000D01*
%TO.N,ACCELINT1*%
X23472786Y-19250000D02*
X23752798Y-19530012D01*
X25219988Y-19530012D02*
X25500000Y-19250000D01*
%TO.N,ACCELINT2*%
X22275000Y-18750000D02*
X22355011Y-18830011D01*
%TO.N,ACCELINT1*%
X22275000Y-19250000D02*
X23472786Y-19250000D01*
%TO.N,+5V*%
X28215001Y-17465001D02*
X28750000Y-18000000D01*
%TO.N,ACCELINT2*%
X22355011Y-18830011D02*
X23815001Y-18830011D01*
X23815001Y-18830011D02*
X24000000Y-19015010D01*
%TO.N,+5V*%
X28750000Y-19350000D02*
X28250000Y-19350000D01*
X29250000Y-19350000D02*
X28750000Y-19350000D01*
%TO.N,BATTPOW*%
X32705001Y-42195001D02*
X29304999Y-42195001D01*
X29304999Y-42195001D02*
X29250000Y-42250000D01*
X33450000Y-42940000D02*
X32705001Y-42195001D01*
%TO.N,GND*%
X32500000Y-43094762D02*
X32559208Y-43035554D01*
X32500000Y-43600000D02*
X32500000Y-43094762D01*
%TO.N,BATTPOW*%
X33450000Y-43600000D02*
X33450000Y-42940000D01*
%TO.N,+BATT*%
X32000000Y-47750000D02*
X31250000Y-47750000D01*
X31250000Y-47750000D02*
X30040010Y-46540010D01*
X28290010Y-46540010D02*
X28250000Y-46500000D01*
X30040010Y-46540010D02*
X28290010Y-46540010D01*
%TO.N,GND*%
X30000000Y-44028738D02*
X30000000Y-44000000D01*
X28400000Y-45400000D02*
X28628738Y-45400000D01*
X28628738Y-45400000D02*
X30000000Y-44028738D01*
%TO.N,Net-(C10-Pad1)*%
X28000000Y-45400000D02*
X28000000Y-45562281D01*
X28000000Y-45562281D02*
X28217470Y-45779751D01*
X28217470Y-45779751D02*
X29970249Y-45779751D01*
X29970249Y-45779751D02*
X30000000Y-45750000D01*
%TO.N,Net-(J4-Pad1)*%
X29688008Y-37740010D02*
X30259990Y-37740010D01*
%TO.N,Net-(J4-Pad3)*%
X32250000Y-38750000D02*
X32250000Y-39825000D01*
%TO.N,SCL*%
X26950000Y-31150000D02*
X26950000Y-31215009D01*
%TO.N,SQW*%
X24950000Y-30150000D02*
X24950000Y-30250000D01*
%TO.N,VCC*%
X21094000Y-33000000D02*
X20957325Y-33136675D01*
%TO.N,VIN*%
X20240001Y-38009999D02*
X20492003Y-38009999D01*
%TO.N,GND*%
X22500000Y-38625000D02*
X22500000Y-38750000D01*
X15950000Y-39450000D02*
X16000000Y-39500000D01*
X17000000Y-36875000D02*
X17000000Y-37000000D01*
%TO.N,VUSB*%
X20350000Y-30500000D02*
X20050001Y-30500000D01*
%TO.N,VCC*%
X16750000Y-33250000D02*
X16750000Y-32775000D01*
%TO.N,GND*%
X14885000Y-29115000D02*
X15000000Y-29000000D01*
X14885000Y-29150000D02*
X14885000Y-29115000D01*
%TO.N,BUTTON2*%
X28950000Y-30250000D02*
X28934999Y-30265001D01*
%TO.N,GND*%
X20350000Y-21700000D02*
X20649999Y-21700000D01*
%TO.N,VUSB*%
X23749999Y-42100003D02*
X23850002Y-42000000D01*
%TO.N,BUTTON3*%
X20350000Y-27300000D02*
X20169988Y-27300000D01*
%TO.N,ACCELINT1*%
X26500000Y-22800000D02*
X26550000Y-22750000D01*
%TO.N,BUZZER*%
X15250000Y-23250000D02*
X15500000Y-23250000D01*
%TO.N,Net-(IC1-Pad34)*%
X24000000Y-38625000D02*
X24000000Y-38500000D01*
%TO.N,RST*%
X24116976Y-30216976D02*
X24059352Y-30216976D01*
X24150000Y-30250000D02*
X24116976Y-30216976D01*
%TO.N,SDA*%
X26000000Y-31000000D02*
X26150000Y-31150000D01*
%TO.N,CHGNG*%
X31550000Y-43600000D02*
X31550000Y-43550000D01*
X31550000Y-43550000D02*
X31500000Y-43500000D01*
%TO.N,VIN*%
X23250000Y-37000000D02*
X22725000Y-37000000D01*
%TO.N,Net-(R9-Pad1)*%
X28500000Y-38625000D02*
X28775000Y-38625000D01*
%TO.N,VUSB*%
X20180000Y-40450000D02*
X20620000Y-40450000D01*
X23900000Y-42049998D02*
X23850002Y-42000000D01*
X23900000Y-42240000D02*
X23900000Y-42049998D01*
%TO.N,USB_DN*%
X23938294Y-40375000D02*
X24000000Y-40375000D01*
%TO.N,USB_DP*%
X25500000Y-40375000D02*
X25500000Y-40500000D01*
%TO.N,LCD_CS*%
X29227350Y-21727350D02*
X29219030Y-21727350D01*
X29350000Y-21850000D02*
X29227350Y-21727350D01*
%TO.N,SPI_MOSI*%
X21350000Y-26000000D02*
X21250000Y-26100000D01*
%TO.N,GND*%
X15250000Y-24850000D02*
X15250000Y-24750000D01*
%TO.N,BACKLIGHT*%
X28400000Y-33206998D02*
X28400000Y-32909000D01*
%TO.N,GND*%
X14850000Y-14650000D02*
X14750000Y-14750000D01*
X14885000Y-14650000D02*
X14850000Y-14650000D01*
X20300000Y-21700000D02*
X20250000Y-21750000D01*
X20350000Y-21700000D02*
X20300000Y-21700000D01*
X19200000Y-37225000D02*
X19129999Y-37295001D01*
X17420001Y-37295001D02*
X17000000Y-36875000D01*
X27091000Y-32909000D02*
X27000000Y-33000000D01*
X27100000Y-32909000D02*
X27091000Y-32909000D01*
%TO.N,SDA*%
X22000000Y-26688202D02*
X22465002Y-26223200D01*
%TO.N,SPI_CLK*%
X31750000Y-20465010D02*
X31715010Y-20500000D01*
%TO.N,GND*%
X31250000Y-21850000D02*
X31250000Y-22624331D01*
%TO.N,SPI_CLK*%
X31750000Y-19350000D02*
X31750000Y-20465010D01*
%TO.N,SPI_MOSI*%
X31250000Y-20713602D02*
X30731801Y-21231801D01*
%TO.N,SDA*%
X21828813Y-24390609D02*
X21828813Y-21921187D01*
%TO.N,SPI_MOSI*%
X31250000Y-19350000D02*
X31250000Y-20713602D01*
X23750000Y-24750000D02*
X23750000Y-25750000D01*
%TO.N,GND*%
X31250000Y-22624331D02*
X30692130Y-23182201D01*
%TO.N,SDA*%
X22000000Y-29000000D02*
X22000000Y-26688202D01*
X21828813Y-21921187D02*
X22078812Y-21671188D01*
X22465002Y-26223200D02*
X22465002Y-25026798D01*
X22465002Y-25026798D02*
X21828813Y-24390609D01*
%TO.N,SPI_MOSI*%
X22000000Y-26000000D02*
X21350000Y-26000000D01*
%TO.N,SCL*%
X22500000Y-28250000D02*
X22749999Y-28000001D01*
%TO.N,SPI_CLK*%
X21250000Y-25300000D02*
X21950000Y-25300000D01*
%TO.N,SCL*%
X22749999Y-22749999D02*
X22500000Y-22500000D01*
%TO.N,SPI_CLK*%
X21950000Y-25300000D02*
X22000000Y-25250000D01*
%TO.N,SCL*%
X22749999Y-28000001D02*
X22749999Y-22749999D01*
%TO.N,Net-(J4-Pad1)*%
X30490010Y-37740010D02*
X30259990Y-37740010D01*
X32750000Y-39000000D02*
X33000000Y-38750000D01*
X32750000Y-39825000D02*
X32750000Y-39000000D01*
X31500000Y-38750000D02*
X30490010Y-37740010D01*
X33250000Y-39825000D02*
X32750000Y-39825000D01*
%TO.N,Net-(J4-Pad3)*%
X31750000Y-39825000D02*
X32250000Y-39825000D01*
X32250000Y-38750000D02*
X32250000Y-38825000D01*
%TO.N,BACKLIGHT*%
X27030010Y-35384016D02*
X27030010Y-34576988D01*
%TO.N,GND*%
X26125000Y-35625000D02*
X26250000Y-35500000D01*
%TO.N,VIN*%
X24009164Y-36240836D02*
X27076321Y-36240836D01*
%TO.N,BACKLIGHT*%
X27171829Y-35525835D02*
X27030010Y-35384016D01*
X27030010Y-34576988D02*
X28400000Y-33206998D01*
X26801000Y-37000000D02*
X27326000Y-37000000D01*
X27549522Y-35525835D02*
X27171829Y-35525835D01*
X27326000Y-37000000D02*
X27791322Y-36534678D01*
X27791322Y-35767635D02*
X27549522Y-35525835D01*
%TO.N,GND*%
X24956000Y-35625000D02*
X26125000Y-35625000D01*
%TO.N,VIN*%
X23250000Y-37000000D02*
X24009164Y-36240836D01*
X27076321Y-36240836D02*
X27326320Y-35990837D01*
%TO.N,BACKLIGHT*%
X27791322Y-36534678D02*
X27791322Y-35767635D01*
%TO.N,GND*%
X19129999Y-37295001D02*
X17420001Y-37295001D01*
X14885000Y-43650000D02*
X16350000Y-43650000D01*
X16350000Y-43650000D02*
X17180000Y-42820000D01*
%TO.N,SDA*%
X27600000Y-45400000D02*
X26891783Y-45400000D01*
%TO.N,GND*%
X25820000Y-42820000D02*
X25820000Y-44680000D01*
%TO.N,SDA*%
X26891783Y-45400000D02*
X26314765Y-44822982D01*
%TO.N,GND*%
X25820000Y-44680000D02*
X24000000Y-46500000D01*
X27500000Y-42250000D02*
X27500000Y-41375000D01*
X27500000Y-41375000D02*
X28500000Y-40375000D01*
X27500000Y-42250000D02*
X26390000Y-42250000D01*
X26390000Y-42250000D02*
X25820000Y-42820000D01*
X31250000Y-32000000D02*
X32500000Y-33250000D01*
X31250000Y-31150000D02*
X31250000Y-32000000D01*
%TO.N,FLASHLIGHT*%
X24088543Y-34750000D02*
X26234990Y-32603553D01*
%TO.N,BUTTON4*%
X26030991Y-35030011D02*
X24026056Y-35030011D01*
%TO.N,GND*%
X27515010Y-28190228D02*
X27515010Y-28809772D01*
%TO.N,BUTTON4*%
X20948077Y-35784999D02*
X19776799Y-35784999D01*
%TO.N,FLASHLIGHT*%
X28150000Y-29382934D02*
X27938183Y-29171117D01*
%TO.N,BUTTON4*%
X27956429Y-31356429D02*
X27956429Y-33104573D01*
%TO.N,FLASHLIGHT*%
X22083555Y-34750000D02*
X24088543Y-34750000D01*
%TO.N,GND*%
X28750000Y-29000000D02*
X27940228Y-28190228D01*
%TO.N,BUTTON4*%
X19534999Y-36654999D02*
X19600000Y-36720000D01*
X19534999Y-36026799D02*
X19534999Y-36654999D01*
X27750000Y-31150000D02*
X27956429Y-31356429D01*
%TO.N,GND*%
X27515010Y-28809772D02*
X27359772Y-28965010D01*
%TO.N,BACKLIGHT*%
X26550000Y-29901675D02*
X26971655Y-29480020D01*
%TO.N,BUTTON4*%
X19600000Y-36720000D02*
X19600000Y-37225000D01*
X24026056Y-35030011D02*
X23069084Y-35986983D01*
X21150061Y-35986983D02*
X20948077Y-35784999D01*
%TO.N,SCL*%
X26950000Y-31304509D02*
X27491427Y-31845936D01*
%TO.N,GND*%
X27359772Y-28965010D02*
X26465010Y-28965010D01*
X27940228Y-28190228D02*
X27515010Y-28190228D01*
%TO.N,FLASHLIGHT*%
X28150000Y-30250000D02*
X28150000Y-29382934D01*
%TO.N,BACKLIGHT*%
X26550000Y-30250000D02*
X26550000Y-29901675D01*
%TO.N,BUTTON4*%
X23069084Y-35986983D02*
X21150061Y-35986983D01*
%TO.N,FLASHLIGHT*%
X26234990Y-32603553D02*
X26234990Y-32250000D01*
%TO.N,BUTTON4*%
X19776799Y-35784999D02*
X19534999Y-36026799D01*
%TO.N,GND*%
X26465010Y-28965010D02*
X25750000Y-28250000D01*
%TO.N,SCL*%
X26950000Y-31150000D02*
X26950000Y-31304509D01*
%TO.N,FLASHLIGHT*%
X21500000Y-34519998D02*
X21853553Y-34519998D01*
X21853553Y-34519998D02*
X22083555Y-34750000D01*
%TO.N,BUTTON4*%
X27956429Y-33104573D02*
X26030991Y-35030011D01*
%TO.N,GND*%
X18300000Y-41357998D02*
X18300000Y-42240000D01*
X20750000Y-39500000D02*
X20157998Y-39500000D01*
X20157998Y-39500000D02*
X18300000Y-41357998D01*
X20350000Y-31850000D02*
X20500000Y-32000000D01*
X20350000Y-31300000D02*
X20350000Y-31850000D01*
%TO.N,VUSB*%
X20050001Y-30500000D02*
X19606664Y-30943337D01*
%TO.N,VCC*%
X19609461Y-33136675D02*
X19234998Y-32762212D01*
%TO.N,VUSB*%
X19606664Y-32371674D02*
X19856663Y-32621673D01*
%TO.N,VCC*%
X19234998Y-32509990D02*
X17490010Y-32509990D01*
X17490010Y-32509990D02*
X16750000Y-33250000D01*
X19234998Y-32762212D02*
X19234998Y-32509990D01*
%TO.N,VUSB*%
X19606664Y-30943337D02*
X19606664Y-32371674D01*
%TO.N,VCC*%
X20957325Y-33136675D02*
X19609461Y-33136675D01*
%TO.N,BUTTON5*%
X16500001Y-28499999D02*
X16750000Y-28250000D01*
X16500001Y-29033293D02*
X16500001Y-28499999D01*
%TO.N,VCC*%
X15750000Y-31775000D02*
X15750000Y-30250000D01*
%TO.N,BUTTON5*%
X14885000Y-30648294D02*
X16500001Y-29033293D01*
%TO.N,RTCIRQ*%
X17050000Y-29850000D02*
X16265010Y-30634990D01*
%TO.N,BUTTON5*%
X14885000Y-33350000D02*
X14885000Y-30648294D01*
%TO.N,RTCIRQ*%
X16265010Y-30634990D02*
X16265010Y-31250000D01*
%TO.N,VCC*%
X16750000Y-32775000D02*
X15750000Y-31775000D01*
X15750000Y-30250000D02*
X17050000Y-28950000D01*
%TO.N,GND*%
X17000000Y-27000000D02*
X16250000Y-27000000D01*
X18425001Y-28425001D02*
X18250000Y-28250000D01*
X18425001Y-29374999D02*
X18425001Y-28425001D01*
X17950000Y-29850000D02*
X18425001Y-29374999D01*
%TO.N,SCL*%
X18631992Y-31765010D02*
X18631992Y-31411457D01*
%TO.N,SDA*%
X18935749Y-30664251D02*
X18935749Y-29441123D01*
%TO.N,SQW*%
X17950000Y-30750000D02*
X18207202Y-30492798D01*
X18207202Y-30492798D02*
X18350381Y-30492798D01*
%TO.N,SDA*%
X17950000Y-31650000D02*
X18935749Y-30664251D01*
%TO.N,SCL*%
X18631992Y-31411457D02*
X19500000Y-30543449D01*
X19500000Y-30543449D02*
X19500000Y-29000000D01*
%TO.N,BUTTON2*%
X28934999Y-32044899D02*
X28932836Y-32047062D01*
%TO.N,SWDCLK*%
X30150000Y-31150000D02*
X30150000Y-32026603D01*
%TO.N,BUTTON2*%
X28934999Y-30265001D02*
X28934999Y-32044899D01*
X28932836Y-33567164D02*
X28750000Y-33750000D01*
X28932836Y-32047062D02*
X28932836Y-33567164D01*
%TO.N,VIN*%
X29000000Y-35750000D02*
X30000000Y-35750000D01*
X30000000Y-35750000D02*
X30250000Y-35500000D01*
%TO.N,SWDIO*%
X29350000Y-31150000D02*
X29350000Y-32222426D01*
X29350000Y-32222426D02*
X29397837Y-32270263D01*
%TO.N,SWDCLK*%
X30150000Y-32026603D02*
X30034990Y-32141613D01*
%TO.N,VCC*%
X18750000Y-27000000D02*
X18009990Y-26259990D01*
X16040010Y-22540010D02*
X15250000Y-21750000D01*
X18009990Y-26259990D02*
X16770348Y-26259990D01*
X16770348Y-26259990D02*
X16040010Y-25529652D01*
X16040010Y-25529652D02*
X16040010Y-22540010D01*
%TO.N,GND*%
X20649999Y-21700000D02*
X21250000Y-22300001D01*
X21250000Y-22300001D02*
X21250000Y-22750000D01*
%TO.N,VUSB*%
X23500000Y-45250000D02*
X23749999Y-45000001D01*
X23749999Y-45000001D02*
X23749999Y-42100003D01*
%TO.N,GND*%
X21250000Y-18225000D02*
X21750000Y-18225000D01*
%TO.N,VCC*%
X21750000Y-19775000D02*
X21750000Y-19250000D01*
X21750000Y-19250000D02*
X21500000Y-19000000D01*
%TO.N,SDA*%
X25750000Y-33750000D02*
X26250000Y-33250000D01*
X25750000Y-34250000D02*
X25750000Y-33750000D01*
%TO.N,SCL*%
X27600000Y-45000000D02*
X27437719Y-45000000D01*
X27220249Y-43529751D02*
X27250000Y-43500000D01*
X27437719Y-45000000D02*
X27220249Y-44782530D01*
X27220249Y-44782530D02*
X27220249Y-43529751D01*
%TO.N,VCC*%
X18750000Y-27000000D02*
X18750000Y-27982200D01*
%TO.N,BUTTON3*%
X20169988Y-27300000D02*
X19500000Y-27969988D01*
%TO.N,VCC*%
X18750000Y-27982200D02*
X19252798Y-28484998D01*
X19965002Y-28484998D02*
X20350000Y-28100000D01*
X19252798Y-28484998D02*
X19965002Y-28484998D01*
%TO.N,SDA*%
X21250000Y-20500000D02*
X21250000Y-19775000D01*
%TO.N,ACCELINT1*%
X26500000Y-23500000D02*
X26500000Y-22800000D01*
%TO.N,ACCELINT2*%
X25750000Y-22750000D02*
X25750000Y-23250000D01*
X25750000Y-23250000D02*
X25500000Y-23500000D01*
%TO.N,SQW*%
X27715010Y-24034990D02*
X26540228Y-24034990D01*
X30250000Y-19350000D02*
X30250000Y-20500000D01*
X28750000Y-23000000D02*
X27715010Y-24034990D01*
X26540228Y-24034990D02*
X24950000Y-25625218D01*
X24950000Y-25625218D02*
X24950000Y-30250000D01*
%TO.N,LCD_CS*%
X30750000Y-17750000D02*
X30750000Y-19350000D01*
%TO.N,Net-(IC1-Pad34)*%
X21350000Y-31150000D02*
X21350000Y-31887815D01*
%TO.N,Net-(IC1-Pad35)*%
X22150000Y-31150000D02*
X22150000Y-31687815D01*
%TO.N,Net-(IC1-Pad34)*%
X21350000Y-31887815D02*
X21507206Y-32045021D01*
%TO.N,Net-(IC1-Pad35)*%
X22150000Y-31687815D02*
X22507206Y-32045021D01*
%TO.N,BUTTON3*%
X14000000Y-45250000D02*
X14000000Y-46965000D01*
X14000000Y-30750000D02*
X14000000Y-35000000D01*
X14250000Y-30500000D02*
X14000000Y-30750000D01*
X14000000Y-46965000D02*
X14885000Y-47850000D01*
%TO.N,BUTTON5*%
X19500000Y-26250000D02*
X20100000Y-26250000D01*
X20100000Y-26250000D02*
X20350000Y-26500000D01*
%TO.N,VCC*%
X20800000Y-34270000D02*
X20703352Y-34173352D01*
X20800000Y-34775000D02*
X20800000Y-34270000D01*
%TO.N,BUTTON2*%
X23250000Y-34250000D02*
X22934174Y-33934174D01*
%TO.N,SCL*%
X26445020Y-31719989D02*
X23649910Y-31719989D01*
%TO.N,FLASHLIGHT*%
X20400000Y-36720000D02*
X20669876Y-36450124D01*
%TO.N,SCL*%
X23649910Y-31719989D02*
X23476021Y-31893878D01*
%TO.N,FLASHLIGHT*%
X20400000Y-37225000D02*
X20400000Y-36720000D01*
%TO.N,VCC*%
X20703352Y-34173352D02*
X20703352Y-33390648D01*
%TO.N,BUTTON2*%
X22934174Y-33934174D02*
X21218353Y-33934174D01*
%TO.N,SCL*%
X26950000Y-31215009D02*
X26445020Y-31719989D01*
%TO.N,VCC*%
X20703352Y-33390648D02*
X21094000Y-33000000D01*
%TO.N,FLASHLIGHT*%
X20669876Y-36450124D02*
X20924998Y-36450124D01*
%TO.N,BACKLIGHT*%
X28400000Y-32909000D02*
X28400000Y-31569989D01*
X28400000Y-31569989D02*
X28469989Y-31500000D01*
%TO.N,BUTTON2*%
X20000000Y-36250000D02*
X20000000Y-37225000D01*
%TO.N,Net-(J4-Pad1)*%
X25000000Y-37000000D02*
X25740010Y-37740010D01*
X25740010Y-37740010D02*
X29688008Y-37740010D01*
%TO.N,SQW*%
X24484999Y-29684999D02*
X24950000Y-30150000D01*
X21500000Y-30000000D02*
X21815001Y-29684999D01*
X21815001Y-29684999D02*
X24484999Y-29684999D01*
%TO.N,SCL*%
X18631992Y-31765010D02*
X18332001Y-32065001D01*
X18332001Y-32065001D02*
X17465001Y-32065001D01*
X17465001Y-32065001D02*
X17050000Y-31650000D01*
%TO.N,SDA*%
X25500000Y-31000000D02*
X26000000Y-31000000D01*
%TO.N,BUTTON1*%
X20350000Y-25700000D02*
X19050000Y-25700000D01*
X19050000Y-25700000D02*
X19000000Y-25750000D01*
%TO.N,GND*%
X30150000Y-21850000D02*
X31250000Y-21850000D01*
X27250000Y-19350000D02*
X27750000Y-19350000D01*
%TO.N,BUZZER*%
X15250000Y-23250000D02*
X14634999Y-23865001D01*
X14634999Y-23865001D02*
X14634999Y-25534999D01*
X14634999Y-25534999D02*
X15250000Y-26150000D01*
%TO.N,/XL1*%
X16750000Y-22000000D02*
X18175000Y-22000000D01*
X18175000Y-22000000D02*
X18750000Y-22575000D01*
X20350000Y-23300000D02*
X19475000Y-23300000D01*
X19475000Y-23300000D02*
X18750000Y-22575000D01*
%TO.N,/XL2*%
X18750000Y-24425000D02*
X17825000Y-24425000D01*
X17825000Y-24425000D02*
X17000000Y-25250000D01*
X18750000Y-24425000D02*
X20025000Y-24425000D01*
X20025000Y-24425000D02*
X20350000Y-24100000D01*
%TO.N,CHGNG*%
X30320000Y-29250000D02*
X29750000Y-29820000D01*
X31000000Y-29250000D02*
X30320000Y-29250000D01*
X29750000Y-29820000D02*
X29750000Y-30250000D01*
%TO.N,VCC*%
X17050000Y-28950000D02*
X17050000Y-28700000D01*
X17050000Y-28700000D02*
X18750000Y-27000000D01*
X20350000Y-28100000D02*
X20350000Y-28900000D01*
%TO.N,RST*%
X22844000Y-33000000D02*
X24331000Y-33000000D01*
X24331000Y-33000000D02*
X24956000Y-32375000D01*
%TO.N,VIN*%
X19490001Y-38009999D02*
X20240001Y-38009999D01*
X22725000Y-37000000D02*
X21715001Y-38009999D01*
X21715001Y-38009999D02*
X20240001Y-38009999D01*
X18000000Y-39500000D02*
X19490001Y-38009999D01*
X20492003Y-38009999D02*
X20800000Y-37702002D01*
X20800000Y-37702002D02*
X20800000Y-37225000D01*
%TO.N,BATTPOW*%
X29250000Y-42250000D02*
X29250000Y-39885358D01*
X29250000Y-39885358D02*
X28779652Y-39415010D01*
X28779652Y-39415010D02*
X21485010Y-39415010D01*
X21485010Y-39415010D02*
X20620000Y-38550000D01*
%TO.N,VIN*%
X15950000Y-40400000D02*
X15040000Y-40400000D01*
X15040000Y-40400000D02*
X14904999Y-40264999D01*
X14904999Y-40264999D02*
X14904999Y-38635001D01*
X14904999Y-38635001D02*
X15040000Y-38500000D01*
X15040000Y-38500000D02*
X15950000Y-38500000D01*
X18000000Y-39500000D02*
X17100000Y-40400000D01*
X17100000Y-40400000D02*
X15950000Y-40400000D01*
X15950000Y-38500000D02*
X15950000Y-36175000D01*
X15950000Y-36175000D02*
X17000000Y-35125000D01*
%TO.N,Net-(L1-Pad1)*%
X13250000Y-40400000D02*
X14295001Y-39354999D01*
X14295001Y-39354999D02*
X14295001Y-37454999D01*
X14295001Y-37454999D02*
X15000000Y-36750000D01*
%TO.N,VCC*%
X16750000Y-33250000D02*
X13250000Y-36750000D01*
X13250000Y-38500000D02*
X13250000Y-36750000D01*
%TO.N,Net-(R9-Pad1)*%
X28775000Y-38625000D02*
X31550000Y-41400000D01*
%TO.N,GND*%
X18300000Y-42240000D02*
X17760000Y-42240000D01*
X17760000Y-42240000D02*
X17180000Y-42820000D01*
X24700000Y-42240000D02*
X25240000Y-42240000D01*
X25240000Y-42240000D02*
X25820000Y-42820000D01*
%TO.N,VUSB*%
X19100000Y-42240000D02*
X19100000Y-41530000D01*
X19100000Y-41530000D02*
X20180000Y-40450000D01*
%TO.N,Net-(J2-PadB5)*%
X23250000Y-42240000D02*
X23250000Y-41530000D01*
X26140002Y-41234998D02*
X27000000Y-40375000D01*
X23545002Y-41234998D02*
X26140002Y-41234998D01*
X23250000Y-41530000D02*
X23545002Y-41234998D01*
%TO.N,USB_DN*%
X21750000Y-42240000D02*
X21750000Y-41622998D01*
X23148284Y-41165010D02*
X23938294Y-40375000D01*
X22207988Y-41165010D02*
X23148284Y-41165010D01*
X21750000Y-41622998D02*
X22207988Y-41165010D01*
%TO.N,Net-(J2-PadA5)*%
X20250000Y-42240000D02*
X20250000Y-41492002D01*
X20250000Y-41492002D02*
X20702001Y-41040001D01*
X20702001Y-41040001D02*
X21834999Y-41040001D01*
X21834999Y-41040001D02*
X22500000Y-40375000D01*
%TO.N,USB_DN*%
X21026798Y-43965002D02*
X20750000Y-43688204D01*
%TO.N,USB_DP*%
X21250000Y-42240000D02*
X21250000Y-43500000D01*
%TO.N,USB_DN*%
X21473202Y-43965002D02*
X21026798Y-43965002D01*
X21750000Y-43688204D02*
X21473202Y-43965002D01*
X21750000Y-42240000D02*
X21750000Y-43688204D01*
X20750000Y-43688204D02*
X20750000Y-42240000D01*
%TO.N,USB_DP*%
X22000000Y-44250000D02*
X22250000Y-44000000D01*
X22250000Y-44000000D02*
X22250000Y-42240000D01*
%TO.N,+BATT*%
X28000000Y-44600000D02*
X27600000Y-44600000D01*
%TD*%
M02*
