G04 #@! TF.GenerationSoftware,KiCad,Pcbnew,(5.0.0-rc2-200-g1f6f76beb)*
G04 #@! TF.CreationDate,2020-02-24T22:30:54-05:00*
G04 #@! TF.ProjectId,usbstub,757362737475622E6B696361645F7063,rev?*
G04 #@! TF.SameCoordinates,Original*
G04 #@! TF.FileFunction,Copper,L1,Top,Signal*
G04 #@! TF.FilePolarity,Positive*
%FSLAX46Y46*%
G04 Gerber Fmt 4.6, Leading zero omitted, Abs format (unit mm)*
G04 Created by KiCad (PCBNEW (5.0.0-rc2-200-g1f6f76beb)) date Mon Feb 24 22:30:54 2020*
%MOMM*%
%LPD*%
G01*
G04 APERTURE LIST*
G04 #@! TA.AperFunction,ComponentPad*
%ADD10O,2.000000X0.900000*%
G04 #@! TD*
G04 #@! TA.AperFunction,ComponentPad*
%ADD11O,1.700000X0.900000*%
G04 #@! TD*
G04 #@! TA.AperFunction,SMDPad,CuDef*
%ADD12R,1.160000X0.300000*%
G04 #@! TD*
G04 #@! TA.AperFunction,SMDPad,CuDef*
%ADD13R,1.160000X0.600000*%
G04 #@! TD*
G04 #@! TA.AperFunction,ViaPad*
%ADD14C,0.800000*%
G04 #@! TD*
G04 #@! TA.AperFunction,Conductor*
%ADD15C,0.300000*%
G04 #@! TD*
G04 #@! TA.AperFunction,Conductor*
%ADD16C,0.200000*%
G04 #@! TD*
G04 #@! TA.AperFunction,Conductor*
%ADD17C,0.254000*%
G04 #@! TD*
G04 APERTURE END LIST*
D10*
G04 #@! TO.P,J1,S1*
G04 #@! TO.N,GND*
X2180000Y4470000D03*
X2180000Y-4170000D03*
D11*
X-1990000Y4470000D03*
X-1990000Y-4170000D03*
D12*
G04 #@! TO.P,J1,B7*
G04 #@! TO.N,DN*
X2760000Y900000D03*
G04 #@! TO.P,J1,A6*
G04 #@! TO.N,DP*
X2760000Y400000D03*
G04 #@! TO.P,J1,A7*
G04 #@! TO.N,DN*
X2760000Y-100000D03*
G04 #@! TO.P,J1,B8*
G04 #@! TO.N,N/C*
X2760000Y1900000D03*
G04 #@! TO.P,J1,A5*
G04 #@! TO.N,Net-(J1-PadA5)*
X2760000Y1400000D03*
G04 #@! TO.P,J1,A8*
G04 #@! TO.N,N/C*
X2760000Y-1100000D03*
G04 #@! TO.P,J1,B6*
G04 #@! TO.N,DP*
X2760000Y-600000D03*
G04 #@! TO.P,J1,B5*
G04 #@! TO.N,Net-(J1-PadB5)*
X2760000Y-1600000D03*
D13*
G04 #@! TO.P,J1,A4*
G04 #@! TO.N,VBUS*
X2760000Y2550000D03*
G04 #@! TO.P,J1,B9*
X2760000Y2550000D03*
G04 #@! TO.P,J1,A1*
G04 #@! TO.N,GND*
X2760000Y3350000D03*
G04 #@! TO.P,J1,B12*
X2760000Y3350000D03*
G04 #@! TO.P,J1,B4*
G04 #@! TO.N,VBUS*
X2760000Y-2250000D03*
G04 #@! TO.P,J1,B1*
G04 #@! TO.N,GND*
X2760000Y-3050000D03*
G04 #@! TO.P,J1,A9*
G04 #@! TO.N,VBUS*
X2760000Y-2250000D03*
G04 #@! TO.P,J1,A12*
G04 #@! TO.N,GND*
X2760000Y-3050000D03*
G04 #@! TD*
D14*
G04 #@! TO.N,DN*
X-750000Y649987D03*
G04 #@! TO.N,DP*
X942468Y257745D03*
X-755567Y-400010D03*
G04 #@! TO.N,Net-(J1-PadA5)*
X999179Y1748645D03*
G04 #@! TO.N,Net-(J1-PadB5)*
X-1250000Y-2650000D03*
G04 #@! TO.N,VBUS*
X-750000Y1650000D03*
G04 #@! TD*
D15*
G04 #@! TO.N,GND*
X2760000Y3890000D02*
X2180000Y4470000D01*
X2760000Y3350000D02*
X2760000Y3890000D01*
X2760000Y-3590000D02*
X2180000Y-4170000D01*
X2760000Y-3050000D02*
X2760000Y-3590000D01*
D16*
G04 #@! TO.N,DN*
X-350001Y249988D02*
X-750000Y649987D01*
X1302469Y-492256D02*
X442269Y-492256D01*
X2760000Y-100000D02*
X1694725Y-100000D01*
X1694725Y-100000D02*
X1302469Y-492256D01*
X1184311Y999989D02*
X1176548Y1007752D01*
X-299975Y249988D02*
X-350001Y249988D01*
X-184315Y649987D02*
X-750000Y649987D01*
X173450Y1007752D02*
X-184315Y649987D01*
X1176548Y1007752D02*
X173450Y1007752D01*
X1382537Y999989D02*
X1184311Y999989D01*
X1482526Y900000D02*
X1382537Y999989D01*
X442269Y-492256D02*
X-299975Y249988D01*
X2760000Y900000D02*
X1482526Y900000D01*
G04 #@! TO.N,DP*
X1084723Y400000D02*
X942468Y257745D01*
X2760000Y400000D02*
X1084723Y400000D01*
X1831135Y-600000D02*
X1488869Y-942267D01*
X-355568Y-800009D02*
X-755567Y-400010D01*
X2760000Y-600000D02*
X1831135Y-600000D01*
X-213310Y-942267D02*
X-355568Y-800009D01*
X1488869Y-942267D02*
X-213310Y-942267D01*
G04 #@! TO.N,Net-(J1-PadA5)*
X1347824Y1400000D02*
X999179Y1748645D01*
X2760000Y1400000D02*
X1347824Y1400000D01*
G04 #@! TO.N,Net-(J1-PadB5)*
X2760000Y-1600000D02*
X-200000Y-1600000D01*
X-200000Y-1600000D02*
X-1250000Y-2650000D01*
D15*
G04 #@! TO.N,VBUS*
X150000Y2550000D02*
X-750000Y1650000D01*
X2172002Y2550000D02*
X2012001Y2389999D01*
X2760000Y2550000D02*
X2172002Y2550000D01*
X1387999Y2389999D02*
X1227998Y2550000D01*
X2012001Y2389999D02*
X1387999Y2389999D01*
X1227998Y2550000D02*
X150000Y2550000D01*
X3640000Y-2250000D02*
X2760000Y-2250000D01*
X3690001Y-2199999D02*
X3640000Y-2250000D01*
X3690001Y2499999D02*
X3690001Y-2199999D01*
X3640000Y2550000D02*
X3690001Y2499999D01*
X2760000Y2550000D02*
X3640000Y2550000D01*
G04 #@! TD*
D17*
G04 #@! TO.N,VBUS*
G36*
X1295524Y8178474D02*
X821526Y7704476D01*
X565000Y7085167D01*
X565000Y6414833D01*
X821526Y5795524D01*
X1157708Y5459342D01*
X847759Y5252241D01*
X607953Y4893346D01*
X523744Y4470000D01*
X607953Y4046654D01*
X847759Y3687759D01*
X954288Y3616578D01*
X907345Y3569635D01*
X765000Y3225983D01*
X765000Y2854017D01*
X794149Y2783645D01*
X793305Y2783645D01*
X412899Y2626076D01*
X121748Y2334925D01*
X-35821Y1954519D01*
X-35821Y1715524D01*
X-113333Y1700106D01*
X-292158Y1580619D01*
X-544126Y1684987D01*
X-955874Y1684987D01*
X-1336280Y1527418D01*
X-1627431Y1236267D01*
X-1785000Y855861D01*
X-1785000Y444113D01*
X-1655598Y131708D01*
X-1790567Y-194136D01*
X-1790567Y-605884D01*
X-1632998Y-986290D01*
X-1341847Y-1277441D01*
X-1041355Y-1401909D01*
X-1254446Y-1615000D01*
X-1455874Y-1615000D01*
X-1836280Y-1772569D01*
X-2127431Y-2063720D01*
X-2285000Y-2444126D01*
X-2285000Y-2855874D01*
X-2190093Y-3085000D01*
X-2496861Y-3085000D01*
X-2813346Y-3147953D01*
X-3172241Y-3387759D01*
X-3290000Y-3563998D01*
X-3290000Y3863998D01*
X-3172241Y3687759D01*
X-2813346Y3447953D01*
X-2496861Y3385000D01*
X-1483139Y3385000D01*
X-1166654Y3447953D01*
X-807759Y3687759D01*
X-567953Y4046654D01*
X-483744Y4470000D01*
X-567953Y4893346D01*
X-807759Y5252241D01*
X-1166654Y5492047D01*
X-1483139Y5555000D01*
X-2496861Y5555000D01*
X-2813346Y5492047D01*
X-3172241Y5252241D01*
X-3290000Y5076002D01*
X-3290000Y5177825D01*
X266772Y8290000D01*
X1564772Y8290000D01*
X1295524Y8178474D01*
X1295524Y8178474D01*
G37*
X1295524Y8178474D02*
X821526Y7704476D01*
X565000Y7085167D01*
X565000Y6414833D01*
X821526Y5795524D01*
X1157708Y5459342D01*
X847759Y5252241D01*
X607953Y4893346D01*
X523744Y4470000D01*
X607953Y4046654D01*
X847759Y3687759D01*
X954288Y3616578D01*
X907345Y3569635D01*
X765000Y3225983D01*
X765000Y2854017D01*
X794149Y2783645D01*
X793305Y2783645D01*
X412899Y2626076D01*
X121748Y2334925D01*
X-35821Y1954519D01*
X-35821Y1715524D01*
X-113333Y1700106D01*
X-292158Y1580619D01*
X-544126Y1684987D01*
X-955874Y1684987D01*
X-1336280Y1527418D01*
X-1627431Y1236267D01*
X-1785000Y855861D01*
X-1785000Y444113D01*
X-1655598Y131708D01*
X-1790567Y-194136D01*
X-1790567Y-605884D01*
X-1632998Y-986290D01*
X-1341847Y-1277441D01*
X-1041355Y-1401909D01*
X-1254446Y-1615000D01*
X-1455874Y-1615000D01*
X-1836280Y-1772569D01*
X-2127431Y-2063720D01*
X-2285000Y-2444126D01*
X-2285000Y-2855874D01*
X-2190093Y-3085000D01*
X-2496861Y-3085000D01*
X-2813346Y-3147953D01*
X-3172241Y-3387759D01*
X-3290000Y-3563998D01*
X-3290000Y3863998D01*
X-3172241Y3687759D01*
X-2813346Y3447953D01*
X-2496861Y3385000D01*
X-1483139Y3385000D01*
X-1166654Y3447953D01*
X-807759Y3687759D01*
X-567953Y4046654D01*
X-483744Y4470000D01*
X-567953Y4893346D01*
X-807759Y5252241D01*
X-1166654Y5492047D01*
X-1483139Y5555000D01*
X-2496861Y5555000D01*
X-2813346Y5492047D01*
X-3172241Y5252241D01*
X-3290000Y5076002D01*
X-3290000Y5177825D01*
X266772Y8290000D01*
X1564772Y8290000D01*
X1295524Y8178474D01*
G04 #@! TD*
M02*
