G04 #@! TF.GenerationSoftware,KiCad,Pcbnew,(5.0.0-rc2-200-g1f6f76beb)*
G04 #@! TF.CreationDate,2020-02-24T22:30:54-05:00*
G04 #@! TF.ProjectId,usbstub,757362737475622E6B696361645F7063,rev?*
G04 #@! TF.SameCoordinates,Original*
G04 #@! TF.FileFunction,Paste,Bot*
G04 #@! TF.FilePolarity,Positive*
%FSLAX46Y46*%
G04 Gerber Fmt 4.6, Leading zero omitted, Abs format (unit mm)*
G04 Created by KiCad (PCBNEW (5.0.0-rc2-200-g1f6f76beb)) date Mon Feb 24 22:30:54 2020*
%MOMM*%
%LPD*%
G01*
G04 APERTURE LIST*
%ADD10C,0.100000*%
%ADD11C,0.600000*%
%ADD12C,1.200000*%
%ADD13C,0.950000*%
G04 APERTURE END LIST*
D10*
G04 #@! TO.C,J2*
G36*
X-110297Y1949278D02*
X-95736Y1947118D01*
X-81457Y1943541D01*
X-67597Y1938582D01*
X-54290Y1932288D01*
X-41664Y1924720D01*
X-29841Y1915952D01*
X-18934Y1906066D01*
X-9048Y1895159D01*
X-280Y1883336D01*
X7288Y1870710D01*
X13582Y1857403D01*
X18541Y1843543D01*
X22118Y1829264D01*
X24278Y1814703D01*
X25000Y1800000D01*
X25000Y1500000D01*
X24278Y1485297D01*
X22118Y1470736D01*
X18541Y1456457D01*
X13582Y1442597D01*
X7288Y1429290D01*
X-280Y1416664D01*
X-9048Y1404841D01*
X-18934Y1393934D01*
X-29841Y1384048D01*
X-41664Y1375280D01*
X-54290Y1367712D01*
X-67597Y1361418D01*
X-81457Y1356459D01*
X-95736Y1352882D01*
X-110297Y1350722D01*
X-125000Y1350000D01*
X-1375000Y1350000D01*
X-1389703Y1350722D01*
X-1404264Y1352882D01*
X-1418543Y1356459D01*
X-1432403Y1361418D01*
X-1445710Y1367712D01*
X-1458336Y1375280D01*
X-1470159Y1384048D01*
X-1481066Y1393934D01*
X-1490952Y1404841D01*
X-1499720Y1416664D01*
X-1507288Y1429290D01*
X-1513582Y1442597D01*
X-1518541Y1456457D01*
X-1522118Y1470736D01*
X-1524278Y1485297D01*
X-1525000Y1500000D01*
X-1525000Y1800000D01*
X-1524278Y1814703D01*
X-1522118Y1829264D01*
X-1518541Y1843543D01*
X-1513582Y1857403D01*
X-1507288Y1870710D01*
X-1499720Y1883336D01*
X-1490952Y1895159D01*
X-1481066Y1906066D01*
X-1470159Y1915952D01*
X-1458336Y1924720D01*
X-1445710Y1932288D01*
X-1432403Y1938582D01*
X-1418543Y1943541D01*
X-1404264Y1947118D01*
X-1389703Y1949278D01*
X-1375000Y1950000D01*
X-125000Y1950000D01*
X-110297Y1949278D01*
X-110297Y1949278D01*
G37*
D11*
X-750000Y1650000D03*
D10*
G36*
X-110297Y949278D02*
X-95736Y947118D01*
X-81457Y943541D01*
X-67597Y938582D01*
X-54290Y932288D01*
X-41664Y924720D01*
X-29841Y915952D01*
X-18934Y906066D01*
X-9048Y895159D01*
X-280Y883336D01*
X7288Y870710D01*
X13582Y857403D01*
X18541Y843543D01*
X22118Y829264D01*
X24278Y814703D01*
X25000Y800000D01*
X25000Y500000D01*
X24278Y485297D01*
X22118Y470736D01*
X18541Y456457D01*
X13582Y442597D01*
X7288Y429290D01*
X-280Y416664D01*
X-9048Y404841D01*
X-18934Y393934D01*
X-29841Y384048D01*
X-41664Y375280D01*
X-54290Y367712D01*
X-67597Y361418D01*
X-81457Y356459D01*
X-95736Y352882D01*
X-110297Y350722D01*
X-125000Y350000D01*
X-1375000Y350000D01*
X-1389703Y350722D01*
X-1404264Y352882D01*
X-1418543Y356459D01*
X-1432403Y361418D01*
X-1445710Y367712D01*
X-1458336Y375280D01*
X-1470159Y384048D01*
X-1481066Y393934D01*
X-1490952Y404841D01*
X-1499720Y416664D01*
X-1507288Y429290D01*
X-1513582Y442597D01*
X-1518541Y456457D01*
X-1522118Y470736D01*
X-1524278Y485297D01*
X-1525000Y500000D01*
X-1525000Y800000D01*
X-1524278Y814703D01*
X-1522118Y829264D01*
X-1518541Y843543D01*
X-1513582Y857403D01*
X-1507288Y870710D01*
X-1499720Y883336D01*
X-1490952Y895159D01*
X-1481066Y906066D01*
X-1470159Y915952D01*
X-1458336Y924720D01*
X-1445710Y932288D01*
X-1432403Y938582D01*
X-1418543Y943541D01*
X-1404264Y947118D01*
X-1389703Y949278D01*
X-1375000Y950000D01*
X-125000Y950000D01*
X-110297Y949278D01*
X-110297Y949278D01*
G37*
D11*
X-750000Y650000D03*
D10*
G36*
X-110297Y-50722D02*
X-95736Y-52882D01*
X-81457Y-56459D01*
X-67597Y-61418D01*
X-54290Y-67712D01*
X-41664Y-75280D01*
X-29841Y-84048D01*
X-18934Y-93934D01*
X-9048Y-104841D01*
X-280Y-116664D01*
X7288Y-129290D01*
X13582Y-142597D01*
X18541Y-156457D01*
X22118Y-170736D01*
X24278Y-185297D01*
X25000Y-200000D01*
X25000Y-500000D01*
X24278Y-514703D01*
X22118Y-529264D01*
X18541Y-543543D01*
X13582Y-557403D01*
X7288Y-570710D01*
X-280Y-583336D01*
X-9048Y-595159D01*
X-18934Y-606066D01*
X-29841Y-615952D01*
X-41664Y-624720D01*
X-54290Y-632288D01*
X-67597Y-638582D01*
X-81457Y-643541D01*
X-95736Y-647118D01*
X-110297Y-649278D01*
X-125000Y-650000D01*
X-1375000Y-650000D01*
X-1389703Y-649278D01*
X-1404264Y-647118D01*
X-1418543Y-643541D01*
X-1432403Y-638582D01*
X-1445710Y-632288D01*
X-1458336Y-624720D01*
X-1470159Y-615952D01*
X-1481066Y-606066D01*
X-1490952Y-595159D01*
X-1499720Y-583336D01*
X-1507288Y-570710D01*
X-1513582Y-557403D01*
X-1518541Y-543543D01*
X-1522118Y-529264D01*
X-1524278Y-514703D01*
X-1525000Y-500000D01*
X-1525000Y-200000D01*
X-1524278Y-185297D01*
X-1522118Y-170736D01*
X-1518541Y-156457D01*
X-1513582Y-142597D01*
X-1507288Y-129290D01*
X-1499720Y-116664D01*
X-1490952Y-104841D01*
X-1481066Y-93934D01*
X-1470159Y-84048D01*
X-1458336Y-75280D01*
X-1445710Y-67712D01*
X-1432403Y-61418D01*
X-1418543Y-56459D01*
X-1404264Y-52882D01*
X-1389703Y-50722D01*
X-1375000Y-50000D01*
X-125000Y-50000D01*
X-110297Y-50722D01*
X-110297Y-50722D01*
G37*
D11*
X-750000Y-350000D03*
D10*
G36*
X-110297Y-1050722D02*
X-95736Y-1052882D01*
X-81457Y-1056459D01*
X-67597Y-1061418D01*
X-54290Y-1067712D01*
X-41664Y-1075280D01*
X-29841Y-1084048D01*
X-18934Y-1093934D01*
X-9048Y-1104841D01*
X-280Y-1116664D01*
X7288Y-1129290D01*
X13582Y-1142597D01*
X18541Y-1156457D01*
X22118Y-1170736D01*
X24278Y-1185297D01*
X25000Y-1200000D01*
X25000Y-1500000D01*
X24278Y-1514703D01*
X22118Y-1529264D01*
X18541Y-1543543D01*
X13582Y-1557403D01*
X7288Y-1570710D01*
X-280Y-1583336D01*
X-9048Y-1595159D01*
X-18934Y-1606066D01*
X-29841Y-1615952D01*
X-41664Y-1624720D01*
X-54290Y-1632288D01*
X-67597Y-1638582D01*
X-81457Y-1643541D01*
X-95736Y-1647118D01*
X-110297Y-1649278D01*
X-125000Y-1650000D01*
X-1375000Y-1650000D01*
X-1389703Y-1649278D01*
X-1404264Y-1647118D01*
X-1418543Y-1643541D01*
X-1432403Y-1638582D01*
X-1445710Y-1632288D01*
X-1458336Y-1624720D01*
X-1470159Y-1615952D01*
X-1481066Y-1606066D01*
X-1490952Y-1595159D01*
X-1499720Y-1583336D01*
X-1507288Y-1570710D01*
X-1513582Y-1557403D01*
X-1518541Y-1543543D01*
X-1522118Y-1529264D01*
X-1524278Y-1514703D01*
X-1525000Y-1500000D01*
X-1525000Y-1200000D01*
X-1524278Y-1185297D01*
X-1522118Y-1170736D01*
X-1518541Y-1156457D01*
X-1513582Y-1142597D01*
X-1507288Y-1129290D01*
X-1499720Y-1116664D01*
X-1490952Y-1104841D01*
X-1481066Y-1093934D01*
X-1470159Y-1084048D01*
X-1458336Y-1075280D01*
X-1445710Y-1067712D01*
X-1432403Y-1061418D01*
X-1418543Y-1056459D01*
X-1404264Y-1052882D01*
X-1389703Y-1050722D01*
X-1375000Y-1050000D01*
X-125000Y-1050000D01*
X-110297Y-1050722D01*
X-110297Y-1050722D01*
G37*
D11*
X-750000Y-1350000D03*
D10*
G36*
X3799505Y3548796D02*
X3823773Y3545196D01*
X3847572Y3539235D01*
X3870671Y3530970D01*
X3892850Y3520480D01*
X3913893Y3507868D01*
X3933599Y3493253D01*
X3951777Y3476777D01*
X3968253Y3458599D01*
X3982868Y3438893D01*
X3995480Y3417850D01*
X4005970Y3395671D01*
X4014235Y3372572D01*
X4020196Y3348773D01*
X4023796Y3324505D01*
X4025000Y3300001D01*
X4025000Y2599999D01*
X4023796Y2575495D01*
X4020196Y2551227D01*
X4014235Y2527428D01*
X4005970Y2504329D01*
X3995480Y2482150D01*
X3982868Y2461107D01*
X3968253Y2441401D01*
X3951777Y2423223D01*
X3933599Y2406747D01*
X3913893Y2392132D01*
X3892850Y2379520D01*
X3870671Y2369030D01*
X3847572Y2360765D01*
X3823773Y2354804D01*
X3799505Y2351204D01*
X3775001Y2350000D01*
X2474999Y2350000D01*
X2450495Y2351204D01*
X2426227Y2354804D01*
X2402428Y2360765D01*
X2379329Y2369030D01*
X2357150Y2379520D01*
X2336107Y2392132D01*
X2316401Y2406747D01*
X2298223Y2423223D01*
X2281747Y2441401D01*
X2267132Y2461107D01*
X2254520Y2482150D01*
X2244030Y2504329D01*
X2235765Y2527428D01*
X2229804Y2551227D01*
X2226204Y2575495D01*
X2225000Y2599999D01*
X2225000Y3300001D01*
X2226204Y3324505D01*
X2229804Y3348773D01*
X2235765Y3372572D01*
X2244030Y3395671D01*
X2254520Y3417850D01*
X2267132Y3438893D01*
X2281747Y3458599D01*
X2298223Y3476777D01*
X2316401Y3493253D01*
X2336107Y3507868D01*
X2357150Y3520480D01*
X2379329Y3530970D01*
X2402428Y3539235D01*
X2426227Y3545196D01*
X2450495Y3548796D01*
X2474999Y3550000D01*
X3775001Y3550000D01*
X3799505Y3548796D01*
X3799505Y3548796D01*
G37*
D12*
X3125000Y2950000D03*
D10*
G36*
X3799505Y-2051204D02*
X3823773Y-2054804D01*
X3847572Y-2060765D01*
X3870671Y-2069030D01*
X3892850Y-2079520D01*
X3913893Y-2092132D01*
X3933599Y-2106747D01*
X3951777Y-2123223D01*
X3968253Y-2141401D01*
X3982868Y-2161107D01*
X3995480Y-2182150D01*
X4005970Y-2204329D01*
X4014235Y-2227428D01*
X4020196Y-2251227D01*
X4023796Y-2275495D01*
X4025000Y-2299999D01*
X4025000Y-3000001D01*
X4023796Y-3024505D01*
X4020196Y-3048773D01*
X4014235Y-3072572D01*
X4005970Y-3095671D01*
X3995480Y-3117850D01*
X3982868Y-3138893D01*
X3968253Y-3158599D01*
X3951777Y-3176777D01*
X3933599Y-3193253D01*
X3913893Y-3207868D01*
X3892850Y-3220480D01*
X3870671Y-3230970D01*
X3847572Y-3239235D01*
X3823773Y-3245196D01*
X3799505Y-3248796D01*
X3775001Y-3250000D01*
X2474999Y-3250000D01*
X2450495Y-3248796D01*
X2426227Y-3245196D01*
X2402428Y-3239235D01*
X2379329Y-3230970D01*
X2357150Y-3220480D01*
X2336107Y-3207868D01*
X2316401Y-3193253D01*
X2298223Y-3176777D01*
X2281747Y-3158599D01*
X2267132Y-3138893D01*
X2254520Y-3117850D01*
X2244030Y-3095671D01*
X2235765Y-3072572D01*
X2229804Y-3048773D01*
X2226204Y-3024505D01*
X2225000Y-3000001D01*
X2225000Y-2299999D01*
X2226204Y-2275495D01*
X2229804Y-2251227D01*
X2235765Y-2227428D01*
X2244030Y-2204329D01*
X2254520Y-2182150D01*
X2267132Y-2161107D01*
X2281747Y-2141401D01*
X2298223Y-2123223D01*
X2316401Y-2106747D01*
X2336107Y-2092132D01*
X2357150Y-2079520D01*
X2379329Y-2069030D01*
X2402428Y-2060765D01*
X2426227Y-2054804D01*
X2450495Y-2051204D01*
X2474999Y-2050000D01*
X3775001Y-2050000D01*
X3799505Y-2051204D01*
X3799505Y-2051204D01*
G37*
D12*
X3125000Y-2650000D03*
G04 #@! TD*
D10*
G04 #@! TO.C,R1*
G36*
X-2689221Y3423856D02*
X-2666166Y3420437D01*
X-2643557Y3414773D01*
X-2621613Y3406921D01*
X-2600543Y3396956D01*
X-2580552Y3384974D01*
X-2561832Y3371090D01*
X-2544562Y3355438D01*
X-2528910Y3338168D01*
X-2515026Y3319448D01*
X-2503044Y3299457D01*
X-2493079Y3278387D01*
X-2485227Y3256443D01*
X-2479563Y3233834D01*
X-2476144Y3210779D01*
X-2475000Y3187500D01*
X-2475000Y2712500D01*
X-2476144Y2689221D01*
X-2479563Y2666166D01*
X-2485227Y2643557D01*
X-2493079Y2621613D01*
X-2503044Y2600543D01*
X-2515026Y2580552D01*
X-2528910Y2561832D01*
X-2544562Y2544562D01*
X-2561832Y2528910D01*
X-2580552Y2515026D01*
X-2600543Y2503044D01*
X-2621613Y2493079D01*
X-2643557Y2485227D01*
X-2666166Y2479563D01*
X-2689221Y2476144D01*
X-2712500Y2475000D01*
X-3287500Y2475000D01*
X-3310779Y2476144D01*
X-3333834Y2479563D01*
X-3356443Y2485227D01*
X-3378387Y2493079D01*
X-3399457Y2503044D01*
X-3419448Y2515026D01*
X-3438168Y2528910D01*
X-3455438Y2544562D01*
X-3471090Y2561832D01*
X-3484974Y2580552D01*
X-3496956Y2600543D01*
X-3506921Y2621613D01*
X-3514773Y2643557D01*
X-3520437Y2666166D01*
X-3523856Y2689221D01*
X-3525000Y2712500D01*
X-3525000Y3187500D01*
X-3523856Y3210779D01*
X-3520437Y3233834D01*
X-3514773Y3256443D01*
X-3506921Y3278387D01*
X-3496956Y3299457D01*
X-3484974Y3319448D01*
X-3471090Y3338168D01*
X-3455438Y3355438D01*
X-3438168Y3371090D01*
X-3419448Y3384974D01*
X-3399457Y3396956D01*
X-3378387Y3406921D01*
X-3356443Y3414773D01*
X-3333834Y3420437D01*
X-3310779Y3423856D01*
X-3287500Y3425000D01*
X-2712500Y3425000D01*
X-2689221Y3423856D01*
X-2689221Y3423856D01*
G37*
D13*
X-3000000Y2950000D03*
D10*
G36*
X-939221Y3423856D02*
X-916166Y3420437D01*
X-893557Y3414773D01*
X-871613Y3406921D01*
X-850543Y3396956D01*
X-830552Y3384974D01*
X-811832Y3371090D01*
X-794562Y3355438D01*
X-778910Y3338168D01*
X-765026Y3319448D01*
X-753044Y3299457D01*
X-743079Y3278387D01*
X-735227Y3256443D01*
X-729563Y3233834D01*
X-726144Y3210779D01*
X-725000Y3187500D01*
X-725000Y2712500D01*
X-726144Y2689221D01*
X-729563Y2666166D01*
X-735227Y2643557D01*
X-743079Y2621613D01*
X-753044Y2600543D01*
X-765026Y2580552D01*
X-778910Y2561832D01*
X-794562Y2544562D01*
X-811832Y2528910D01*
X-830552Y2515026D01*
X-850543Y2503044D01*
X-871613Y2493079D01*
X-893557Y2485227D01*
X-916166Y2479563D01*
X-939221Y2476144D01*
X-962500Y2475000D01*
X-1537500Y2475000D01*
X-1560779Y2476144D01*
X-1583834Y2479563D01*
X-1606443Y2485227D01*
X-1628387Y2493079D01*
X-1649457Y2503044D01*
X-1669448Y2515026D01*
X-1688168Y2528910D01*
X-1705438Y2544562D01*
X-1721090Y2561832D01*
X-1734974Y2580552D01*
X-1746956Y2600543D01*
X-1756921Y2621613D01*
X-1764773Y2643557D01*
X-1770437Y2666166D01*
X-1773856Y2689221D01*
X-1775000Y2712500D01*
X-1775000Y3187500D01*
X-1773856Y3210779D01*
X-1770437Y3233834D01*
X-1764773Y3256443D01*
X-1756921Y3278387D01*
X-1746956Y3299457D01*
X-1734974Y3319448D01*
X-1721090Y3338168D01*
X-1705438Y3355438D01*
X-1688168Y3371090D01*
X-1669448Y3384974D01*
X-1649457Y3396956D01*
X-1628387Y3406921D01*
X-1606443Y3414773D01*
X-1583834Y3420437D01*
X-1560779Y3423856D01*
X-1537500Y3425000D01*
X-962500Y3425000D01*
X-939221Y3423856D01*
X-939221Y3423856D01*
G37*
D13*
X-1250000Y2950000D03*
G04 #@! TD*
D10*
G04 #@! TO.C,R2*
G36*
X-939221Y-2176144D02*
X-916166Y-2179563D01*
X-893557Y-2185227D01*
X-871613Y-2193079D01*
X-850543Y-2203044D01*
X-830552Y-2215026D01*
X-811832Y-2228910D01*
X-794562Y-2244562D01*
X-778910Y-2261832D01*
X-765026Y-2280552D01*
X-753044Y-2300543D01*
X-743079Y-2321613D01*
X-735227Y-2343557D01*
X-729563Y-2366166D01*
X-726144Y-2389221D01*
X-725000Y-2412500D01*
X-725000Y-2887500D01*
X-726144Y-2910779D01*
X-729563Y-2933834D01*
X-735227Y-2956443D01*
X-743079Y-2978387D01*
X-753044Y-2999457D01*
X-765026Y-3019448D01*
X-778910Y-3038168D01*
X-794562Y-3055438D01*
X-811832Y-3071090D01*
X-830552Y-3084974D01*
X-850543Y-3096956D01*
X-871613Y-3106921D01*
X-893557Y-3114773D01*
X-916166Y-3120437D01*
X-939221Y-3123856D01*
X-962500Y-3125000D01*
X-1537500Y-3125000D01*
X-1560779Y-3123856D01*
X-1583834Y-3120437D01*
X-1606443Y-3114773D01*
X-1628387Y-3106921D01*
X-1649457Y-3096956D01*
X-1669448Y-3084974D01*
X-1688168Y-3071090D01*
X-1705438Y-3055438D01*
X-1721090Y-3038168D01*
X-1734974Y-3019448D01*
X-1746956Y-2999457D01*
X-1756921Y-2978387D01*
X-1764773Y-2956443D01*
X-1770437Y-2933834D01*
X-1773856Y-2910779D01*
X-1775000Y-2887500D01*
X-1775000Y-2412500D01*
X-1773856Y-2389221D01*
X-1770437Y-2366166D01*
X-1764773Y-2343557D01*
X-1756921Y-2321613D01*
X-1746956Y-2300543D01*
X-1734974Y-2280552D01*
X-1721090Y-2261832D01*
X-1705438Y-2244562D01*
X-1688168Y-2228910D01*
X-1669448Y-2215026D01*
X-1649457Y-2203044D01*
X-1628387Y-2193079D01*
X-1606443Y-2185227D01*
X-1583834Y-2179563D01*
X-1560779Y-2176144D01*
X-1537500Y-2175000D01*
X-962500Y-2175000D01*
X-939221Y-2176144D01*
X-939221Y-2176144D01*
G37*
D13*
X-1250000Y-2650000D03*
D10*
G36*
X-2689221Y-2176144D02*
X-2666166Y-2179563D01*
X-2643557Y-2185227D01*
X-2621613Y-2193079D01*
X-2600543Y-2203044D01*
X-2580552Y-2215026D01*
X-2561832Y-2228910D01*
X-2544562Y-2244562D01*
X-2528910Y-2261832D01*
X-2515026Y-2280552D01*
X-2503044Y-2300543D01*
X-2493079Y-2321613D01*
X-2485227Y-2343557D01*
X-2479563Y-2366166D01*
X-2476144Y-2389221D01*
X-2475000Y-2412500D01*
X-2475000Y-2887500D01*
X-2476144Y-2910779D01*
X-2479563Y-2933834D01*
X-2485227Y-2956443D01*
X-2493079Y-2978387D01*
X-2503044Y-2999457D01*
X-2515026Y-3019448D01*
X-2528910Y-3038168D01*
X-2544562Y-3055438D01*
X-2561832Y-3071090D01*
X-2580552Y-3084974D01*
X-2600543Y-3096956D01*
X-2621613Y-3106921D01*
X-2643557Y-3114773D01*
X-2666166Y-3120437D01*
X-2689221Y-3123856D01*
X-2712500Y-3125000D01*
X-3287500Y-3125000D01*
X-3310779Y-3123856D01*
X-3333834Y-3120437D01*
X-3356443Y-3114773D01*
X-3378387Y-3106921D01*
X-3399457Y-3096956D01*
X-3419448Y-3084974D01*
X-3438168Y-3071090D01*
X-3455438Y-3055438D01*
X-3471090Y-3038168D01*
X-3484974Y-3019448D01*
X-3496956Y-2999457D01*
X-3506921Y-2978387D01*
X-3514773Y-2956443D01*
X-3520437Y-2933834D01*
X-3523856Y-2910779D01*
X-3525000Y-2887500D01*
X-3525000Y-2412500D01*
X-3523856Y-2389221D01*
X-3520437Y-2366166D01*
X-3514773Y-2343557D01*
X-3506921Y-2321613D01*
X-3496956Y-2300543D01*
X-3484974Y-2280552D01*
X-3471090Y-2261832D01*
X-3455438Y-2244562D01*
X-3438168Y-2228910D01*
X-3419448Y-2215026D01*
X-3399457Y-2203044D01*
X-3378387Y-2193079D01*
X-3356443Y-2185227D01*
X-3333834Y-2179563D01*
X-3310779Y-2176144D01*
X-3287500Y-2175000D01*
X-2712500Y-2175000D01*
X-2689221Y-2176144D01*
X-2689221Y-2176144D01*
G37*
D13*
X-3000000Y-2650000D03*
G04 #@! TD*
M02*
