%TF.GenerationSoftware,KiCad,Pcbnew,(5.99.0-8775-g06a515339c)*%
%TF.CreationDate,2021-02-12T20:04:27-05:00*%
%TF.ProjectId,dock,646f636b-2e6b-4696-9361-645f70636258,rev?*%
%TF.SameCoordinates,Original*%
%TF.FileFunction,Legend,Top*%
%TF.FilePolarity,Positive*%
%FSLAX46Y46*%
G04 Gerber Fmt 4.6, Leading zero omitted, Abs format (unit mm)*
G04 Created by KiCad (PCBNEW (5.99.0-8775-g06a515339c)) date 2021-02-12 20:04:27*
%MOMM*%
%LPD*%
G01*
G04 APERTURE LIST*
%ADD10C,0.187500*%
%ADD11C,0.200000*%
%ADD12C,0.120000*%
G04 APERTURE END LIST*
D10*
X-5991562Y-1839285D02*
X-6085312Y-2589285D01*
X-5996026Y-1875000D02*
X-5920133Y-1839285D01*
X-5777276Y-1839285D01*
X-5710312Y-1875000D01*
X-5679062Y-1910714D01*
X-5652276Y-1982142D01*
X-5679062Y-2196428D01*
X-5723705Y-2267857D01*
X-5763883Y-2303571D01*
X-5839776Y-2339285D01*
X-5982633Y-2339285D01*
X-6049598Y-2303571D01*
X-5375491Y-2339285D02*
X-5312991Y-1839285D01*
X-5281741Y-1589285D02*
X-5321919Y-1625000D01*
X-5290669Y-1660714D01*
X-5250491Y-1625000D01*
X-5281741Y-1589285D01*
X-5290669Y-1660714D01*
X-5062991Y-1839285D02*
X-4777276Y-1839285D01*
X-4924598Y-1589285D02*
X-5004955Y-2232142D01*
X-4978169Y-2303571D01*
X-4911205Y-2339285D01*
X-4839776Y-2339285D01*
X-4634419Y-1839285D02*
X-4348705Y-1839285D01*
X-4496026Y-1589285D02*
X-4576383Y-2232142D01*
X-4549598Y-2303571D01*
X-4482633Y-2339285D01*
X-4411205Y-2339285D01*
X-4192455Y-2303571D02*
X-4125491Y-2339285D01*
X-3982633Y-2339285D01*
X-3906741Y-2303571D01*
X-3862098Y-2232142D01*
X-3857633Y-2196428D01*
X-3884419Y-2125000D01*
X-3951383Y-2089285D01*
X-4058526Y-2089285D01*
X-4125491Y-2053571D01*
X-4152276Y-1982142D01*
X-4147812Y-1946428D01*
X-4103169Y-1875000D01*
X-4027276Y-1839285D01*
X-3920133Y-1839285D01*
X-3853169Y-1875000D01*
X-3554062Y-2339285D02*
X-3460312Y-1589285D01*
X-3496026Y-1875000D02*
X-3420133Y-1839285D01*
X-3277276Y-1839285D01*
X-3210312Y-1875000D01*
X-3179062Y-1910714D01*
X-3152276Y-1982142D01*
X-3179062Y-2196428D01*
X-3223705Y-2267857D01*
X-3263883Y-2303571D01*
X-3339776Y-2339285D01*
X-3482633Y-2339285D01*
X-3549598Y-2303571D01*
X-2491562Y-1839285D02*
X-2554062Y-2339285D01*
X-2812991Y-1839285D02*
X-2862098Y-2232142D01*
X-2835312Y-2303571D01*
X-2768348Y-2339285D01*
X-2661205Y-2339285D01*
X-2585312Y-2303571D01*
X-2545133Y-2267857D01*
X-2196919Y-2339285D02*
X-2134419Y-1839285D01*
X-2152276Y-1982142D02*
X-2107633Y-1910714D01*
X-2067455Y-1875000D01*
X-1991562Y-1839285D01*
X-1920133Y-1839285D01*
X-1348705Y-1839285D02*
X-1424598Y-2446428D01*
X-1469241Y-2517857D01*
X-1509419Y-2553571D01*
X-1585312Y-2589285D01*
X-1692455Y-2589285D01*
X-1759419Y-2553571D01*
X-1406741Y-2303571D02*
X-1482633Y-2339285D01*
X-1625491Y-2339285D01*
X-1692455Y-2303571D01*
X-1723705Y-2267857D01*
X-1750491Y-2196428D01*
X-1723705Y-1982142D01*
X-1679062Y-1910714D01*
X-1638883Y-1875000D01*
X-1562991Y-1839285D01*
X-1420133Y-1839285D01*
X-1353169Y-1875000D01*
X-1054062Y-2339285D02*
X-960312Y-1589285D01*
X-732633Y-2339285D02*
X-683526Y-1946428D01*
X-710312Y-1875000D01*
X-777276Y-1839285D01*
X-884419Y-1839285D01*
X-960312Y-1875000D01*
X-1000491Y-1910714D01*
X-335312Y-2303571D02*
X-339776Y-2339285D01*
X-384419Y-2410714D01*
X-424598Y-2446428D01*
X615580Y-1839285D02*
X521830Y-2589285D01*
X611116Y-1875000D02*
X687008Y-1839285D01*
X829866Y-1839285D01*
X896830Y-1875000D01*
X928080Y-1910714D01*
X954866Y-1982142D01*
X928080Y-2196428D01*
X883437Y-2267857D01*
X843258Y-2303571D01*
X767366Y-2339285D01*
X624508Y-2339285D01*
X557544Y-2303571D01*
X1553080Y-2339285D02*
X1602187Y-1946428D01*
X1575401Y-1875000D01*
X1508437Y-1839285D01*
X1365580Y-1839285D01*
X1289687Y-1875000D01*
X1557544Y-2303571D02*
X1481651Y-2339285D01*
X1303080Y-2339285D01*
X1236116Y-2303571D01*
X1209330Y-2232142D01*
X1218258Y-2160714D01*
X1262901Y-2089285D01*
X1338794Y-2053571D01*
X1517366Y-2053571D01*
X1593258Y-2017857D01*
D11*
X22523809Y797619D02*
X22523809Y1464285D01*
X22523809Y1273809D02*
X22571428Y1369047D01*
X22619047Y1416666D01*
X22714285Y1464285D01*
X22809523Y1464285D01*
X23523809Y845238D02*
X23428571Y797619D01*
X23238095Y797619D01*
X23142857Y845238D01*
X23095238Y940476D01*
X23095238Y1321428D01*
X23142857Y1416666D01*
X23238095Y1464285D01*
X23428571Y1464285D01*
X23523809Y1416666D01*
X23571428Y1321428D01*
X23571428Y1226190D01*
X23095238Y1130952D01*
X23904761Y1464285D02*
X24142857Y797619D01*
X24380952Y1464285D01*
X24761904Y892857D02*
X24809523Y845238D01*
X24761904Y797619D01*
X24714285Y845238D01*
X24761904Y892857D01*
X24761904Y797619D01*
X26523809Y797619D02*
X25952380Y797619D01*
X26238095Y797619D02*
X26238095Y1797619D01*
X26142857Y1654761D01*
X26047619Y1559523D01*
X25952380Y1511904D01*
X773809Y-9285714D02*
X773809Y-9952380D01*
X773809Y-9380952D02*
X821428Y-9333333D01*
X916666Y-9285714D01*
X1059523Y-9285714D01*
X1154761Y-9333333D01*
X1202380Y-9428571D01*
X1202380Y-9952380D01*
X1678571Y-9952380D02*
X1678571Y-9285714D01*
X1678571Y-9476190D02*
X1726190Y-9380952D01*
X1773809Y-9333333D01*
X1869047Y-9285714D01*
X1964285Y-9285714D01*
X2154761Y-9285714D02*
X2535714Y-9285714D01*
X2297619Y-9952380D02*
X2297619Y-9095238D01*
X2345238Y-9000000D01*
X2440476Y-8952380D01*
X2535714Y-8952380D01*
X3345238Y-8952380D02*
X2869047Y-8952380D01*
X2821428Y-9428571D01*
X2869047Y-9380952D01*
X2964285Y-9333333D01*
X3202380Y-9333333D01*
X3297619Y-9380952D01*
X3345238Y-9428571D01*
X3392857Y-9523809D01*
X3392857Y-9761904D01*
X3345238Y-9857142D01*
X3297619Y-9904761D01*
X3202380Y-9952380D01*
X2964285Y-9952380D01*
X2869047Y-9904761D01*
X2821428Y-9857142D01*
X3773809Y-9047619D02*
X3821428Y-9000000D01*
X3916666Y-8952380D01*
X4154761Y-8952380D01*
X4250000Y-9000000D01*
X4297619Y-9047619D01*
X4345238Y-9142857D01*
X4345238Y-9238095D01*
X4297619Y-9380952D01*
X3726190Y-9952380D01*
X4345238Y-9952380D01*
X5488095Y-9904761D02*
X5630952Y-9952380D01*
X5869047Y-9952380D01*
X5964285Y-9904761D01*
X6011904Y-9857142D01*
X6059523Y-9761904D01*
X6059523Y-9666666D01*
X6011904Y-9571428D01*
X5964285Y-9523809D01*
X5869047Y-9476190D01*
X5678571Y-9428571D01*
X5583333Y-9380952D01*
X5535714Y-9333333D01*
X5488095Y-9238095D01*
X5488095Y-9142857D01*
X5535714Y-9047619D01*
X5583333Y-9000000D01*
X5678571Y-8952380D01*
X5916666Y-8952380D01*
X6059523Y-9000000D01*
X6488095Y-9952380D02*
X6488095Y-9285714D01*
X6488095Y-9380952D02*
X6535714Y-9333333D01*
X6630952Y-9285714D01*
X6773809Y-9285714D01*
X6869047Y-9333333D01*
X6916666Y-9428571D01*
X6916666Y-9952380D01*
X6916666Y-9428571D02*
X6964285Y-9333333D01*
X7059523Y-9285714D01*
X7202380Y-9285714D01*
X7297619Y-9333333D01*
X7345238Y-9428571D01*
X7345238Y-9952380D01*
X8250000Y-9952380D02*
X8250000Y-9428571D01*
X8202380Y-9333333D01*
X8107142Y-9285714D01*
X7916666Y-9285714D01*
X7821428Y-9333333D01*
X8250000Y-9904761D02*
X8154761Y-9952380D01*
X7916666Y-9952380D01*
X7821428Y-9904761D01*
X7773809Y-9809523D01*
X7773809Y-9714285D01*
X7821428Y-9619047D01*
X7916666Y-9571428D01*
X8154761Y-9571428D01*
X8250000Y-9523809D01*
X8726190Y-9952380D02*
X8726190Y-9285714D01*
X8726190Y-9476190D02*
X8773809Y-9380952D01*
X8821428Y-9333333D01*
X8916666Y-9285714D01*
X9011904Y-9285714D01*
X9202380Y-9285714D02*
X9583333Y-9285714D01*
X9345238Y-8952380D02*
X9345238Y-9809523D01*
X9392857Y-9904761D01*
X9488095Y-9952380D01*
X9583333Y-9952380D01*
X9821428Y-9285714D02*
X10011904Y-9952380D01*
X10202380Y-9476190D01*
X10392857Y-9952380D01*
X10583333Y-9285714D01*
X11392857Y-9952380D02*
X11392857Y-9428571D01*
X11345238Y-9333333D01*
X11249999Y-9285714D01*
X11059523Y-9285714D01*
X10964285Y-9333333D01*
X11392857Y-9904761D02*
X11297619Y-9952380D01*
X11059523Y-9952380D01*
X10964285Y-9904761D01*
X10916666Y-9809523D01*
X10916666Y-9714285D01*
X10964285Y-9619047D01*
X11059523Y-9571428D01*
X11297619Y-9571428D01*
X11392857Y-9523809D01*
X11726190Y-9285714D02*
X12107142Y-9285714D01*
X11869047Y-8952380D02*
X11869047Y-9809523D01*
X11916666Y-9904761D01*
X12011904Y-9952380D01*
X12107142Y-9952380D01*
X12869047Y-9904761D02*
X12773809Y-9952380D01*
X12583333Y-9952380D01*
X12488095Y-9904761D01*
X12440476Y-9857142D01*
X12392857Y-9761904D01*
X12392857Y-9476190D01*
X12440476Y-9380952D01*
X12488095Y-9333333D01*
X12583333Y-9285714D01*
X12773809Y-9285714D01*
X12869047Y-9333333D01*
X13297619Y-9952380D02*
X13297619Y-8952380D01*
X13726190Y-9952380D02*
X13726190Y-9428571D01*
X13678571Y-9333333D01*
X13583333Y-9285714D01*
X13440476Y-9285714D01*
X13345238Y-9333333D01*
X13297619Y-9380952D01*
X-5309523Y5047619D02*
X-5309523Y4333333D01*
X-5357142Y4190476D01*
X-5452380Y4095238D01*
X-5595238Y4047619D01*
X-5690476Y4047619D01*
X-4452380Y4095238D02*
X-4547619Y4047619D01*
X-4738095Y4047619D01*
X-4833333Y4095238D01*
X-4880952Y4190476D01*
X-4880952Y4571428D01*
X-4833333Y4666666D01*
X-4738095Y4714285D01*
X-4547619Y4714285D01*
X-4452380Y4666666D01*
X-4404761Y4571428D01*
X-4404761Y4476190D01*
X-4880952Y4380952D01*
X-4119047Y4714285D02*
X-3738095Y4714285D01*
X-3976190Y4047619D02*
X-3976190Y4904761D01*
X-3928571Y5000000D01*
X-3833333Y5047619D01*
X-3738095Y5047619D01*
X-3547619Y4714285D02*
X-3166666Y4714285D01*
X-3404761Y4047619D02*
X-3404761Y4904761D01*
X-3357142Y5000000D01*
X-3261904Y5047619D01*
X-3166666Y5047619D01*
X-1500000Y4142857D02*
X-1547619Y4095238D01*
X-1690476Y4047619D01*
X-1785714Y4047619D01*
X-1928571Y4095238D01*
X-2023809Y4190476D01*
X-2071428Y4285714D01*
X-2119047Y4476190D01*
X-2119047Y4619047D01*
X-2071428Y4809523D01*
X-2023809Y4904761D01*
X-1928571Y5000000D01*
X-1785714Y5047619D01*
X-1690476Y5047619D01*
X-1547619Y5000000D01*
X-1500000Y4952380D01*
X-928571Y4047619D02*
X-1023809Y4095238D01*
X-1071428Y4142857D01*
X-1119047Y4238095D01*
X-1119047Y4523809D01*
X-1071428Y4619047D01*
X-1023809Y4666666D01*
X-928571Y4714285D01*
X-785714Y4714285D01*
X-690476Y4666666D01*
X-642857Y4619047D01*
X-595238Y4523809D01*
X-595238Y4238095D01*
X-642857Y4142857D01*
X-690476Y4095238D01*
X-785714Y4047619D01*
X-928571Y4047619D01*
X-23809Y4047619D02*
X-119047Y4095238D01*
X-166666Y4142857D01*
X-214285Y4238095D01*
X-214285Y4523809D01*
X-166666Y4619047D01*
X-119047Y4666666D01*
X-23809Y4714285D01*
X119047Y4714285D01*
X214285Y4666666D01*
X261904Y4619047D01*
X309523Y4523809D01*
X309523Y4238095D01*
X261904Y4142857D01*
X214285Y4095238D01*
X119047Y4047619D01*
X-23809Y4047619D01*
X738095Y4714285D02*
X738095Y3714285D01*
X738095Y4666666D02*
X833333Y4714285D01*
X1023809Y4714285D01*
X1119047Y4666666D01*
X1166666Y4619047D01*
X1214285Y4523809D01*
X1214285Y4238095D01*
X1166666Y4142857D01*
X1119047Y4095238D01*
X1023809Y4047619D01*
X833333Y4047619D01*
X738095Y4095238D01*
X2023809Y4095238D02*
X1928571Y4047619D01*
X1738095Y4047619D01*
X1642857Y4095238D01*
X1595238Y4190476D01*
X1595238Y4571428D01*
X1642857Y4666666D01*
X1738095Y4714285D01*
X1928571Y4714285D01*
X2023809Y4666666D01*
X2071428Y4571428D01*
X2071428Y4476190D01*
X1595238Y4380952D01*
X2499999Y4047619D02*
X2499999Y4714285D01*
X2499999Y4523809D02*
X2547619Y4619047D01*
X2595238Y4666666D01*
X2690476Y4714285D01*
X2785714Y4714285D01*
X3880952Y4428571D02*
X4642857Y4428571D01*
X5880952Y4714285D02*
X5880952Y3857142D01*
X5833333Y3761904D01*
X5738095Y3714285D01*
X5690476Y3714285D01*
X5880952Y5047619D02*
X5833333Y5000000D01*
X5880952Y4952380D01*
X5928571Y5000000D01*
X5880952Y5047619D01*
X5880952Y4952380D01*
X6738095Y4095238D02*
X6642857Y4047619D01*
X6452380Y4047619D01*
X6357142Y4095238D01*
X6309523Y4190476D01*
X6309523Y4571428D01*
X6357142Y4666666D01*
X6452380Y4714285D01*
X6642857Y4714285D01*
X6738095Y4666666D01*
X6785714Y4571428D01*
X6785714Y4476190D01*
X6309523Y4380952D01*
X7071428Y4714285D02*
X7452380Y4714285D01*
X7214285Y4047619D02*
X7214285Y4904761D01*
X7261904Y5000000D01*
X7357142Y5047619D01*
X7452380Y5047619D01*
X7642857Y4714285D02*
X8023809Y4714285D01*
X7785714Y4047619D02*
X7785714Y4904761D01*
X7833333Y5000000D01*
X7928571Y5047619D01*
X8023809Y5047619D01*
X8976190Y4523809D02*
X8928571Y4571428D01*
X8833333Y4619047D01*
X8738095Y4619047D01*
X8642857Y4571428D01*
X8595238Y4523809D01*
X8547619Y4428571D01*
X8547619Y4333333D01*
X8595238Y4238095D01*
X8642857Y4190476D01*
X8738095Y4142857D01*
X8833333Y4142857D01*
X8928571Y4190476D01*
X8976190Y4238095D01*
X8976190Y4619047D02*
X8976190Y4238095D01*
X9023809Y4190476D01*
X9071428Y4190476D01*
X9166666Y4238095D01*
X9214285Y4333333D01*
X9214285Y4571428D01*
X9119047Y4714285D01*
X8976190Y4809523D01*
X8785714Y4857142D01*
X8595238Y4809523D01*
X8452380Y4714285D01*
X8357142Y4571428D01*
X8309523Y4380952D01*
X8357142Y4190476D01*
X8452380Y4047619D01*
X8595238Y3952380D01*
X8785714Y3904761D01*
X8976190Y3952380D01*
X9119047Y4047619D01*
X9499999Y4714285D02*
X9880952Y4714285D01*
X9642857Y5047619D02*
X9642857Y4190476D01*
X9690476Y4095238D01*
X9785714Y4047619D01*
X9880952Y4047619D01*
X10214285Y4047619D02*
X10214285Y5047619D01*
X10642857Y4047619D02*
X10642857Y4571428D01*
X10595238Y4666666D01*
X10499999Y4714285D01*
X10357142Y4714285D01*
X10261904Y4666666D01*
X10214285Y4619047D01*
X11499999Y4095238D02*
X11404761Y4047619D01*
X11214285Y4047619D01*
X11119047Y4095238D01*
X11071428Y4190476D01*
X11071428Y4571428D01*
X11119047Y4666666D01*
X11214285Y4714285D01*
X11404761Y4714285D01*
X11499999Y4666666D01*
X11547619Y4571428D01*
X11547619Y4476190D01*
X11071428Y4380952D01*
X11976190Y4714285D02*
X11976190Y3857142D01*
X11928571Y3761904D01*
X11833333Y3714285D01*
X11785714Y3714285D01*
X11976190Y5047619D02*
X11928571Y5000000D01*
X11976190Y4952380D01*
X12023809Y5000000D01*
X11976190Y5047619D01*
X11976190Y4952380D01*
X12833333Y4095238D02*
X12738095Y4047619D01*
X12547619Y4047619D01*
X12452380Y4095238D01*
X12404761Y4190476D01*
X12404761Y4571428D01*
X12452380Y4666666D01*
X12547619Y4714285D01*
X12738095Y4714285D01*
X12833333Y4666666D01*
X12880952Y4571428D01*
X12880952Y4476190D01*
X12404761Y4380952D01*
X13166666Y4714285D02*
X13547619Y4714285D01*
X13309523Y4047619D02*
X13309523Y4904761D01*
X13357142Y5000000D01*
X13452380Y5047619D01*
X13547619Y5047619D01*
X13738095Y4714285D02*
X14119047Y4714285D01*
X13880952Y4047619D02*
X13880952Y4904761D01*
X13928571Y5000000D01*
X14023809Y5047619D01*
X14119047Y5047619D01*
X14880952Y4095238D02*
X14785714Y4047619D01*
X14595238Y4047619D01*
X14499999Y4095238D01*
X14452380Y4142857D01*
X14404761Y4238095D01*
X14404761Y4523809D01*
X14452380Y4619047D01*
X14499999Y4666666D01*
X14595238Y4714285D01*
X14785714Y4714285D01*
X14880952Y4666666D01*
X15452380Y4047619D02*
X15357142Y4095238D01*
X15309523Y4142857D01*
X15261904Y4238095D01*
X15261904Y4523809D01*
X15309523Y4619047D01*
X15357142Y4666666D01*
X15452380Y4714285D01*
X15595238Y4714285D01*
X15690476Y4666666D01*
X15738095Y4619047D01*
X15785714Y4523809D01*
X15785714Y4238095D01*
X15738095Y4142857D01*
X15690476Y4095238D01*
X15595238Y4047619D01*
X15452380Y4047619D01*
X16357142Y4047619D02*
X16261904Y4095238D01*
X16214285Y4142857D01*
X16166666Y4238095D01*
X16166666Y4523809D01*
X16214285Y4619047D01*
X16261904Y4666666D01*
X16357142Y4714285D01*
X16499999Y4714285D01*
X16595238Y4666666D01*
X16642857Y4619047D01*
X16690476Y4523809D01*
X16690476Y4238095D01*
X16642857Y4142857D01*
X16595238Y4095238D01*
X16499999Y4047619D01*
X16357142Y4047619D01*
X17119047Y4714285D02*
X17119047Y3714285D01*
X17119047Y4666666D02*
X17214285Y4714285D01*
X17404761Y4714285D01*
X17499999Y4666666D01*
X17547619Y4619047D01*
X17595238Y4523809D01*
X17595238Y4238095D01*
X17547619Y4142857D01*
X17499999Y4095238D01*
X17404761Y4047619D01*
X17214285Y4047619D01*
X17119047Y4095238D01*
X18404761Y4095238D02*
X18309523Y4047619D01*
X18119047Y4047619D01*
X18023809Y4095238D01*
X17976190Y4190476D01*
X17976190Y4571428D01*
X18023809Y4666666D01*
X18119047Y4714285D01*
X18309523Y4714285D01*
X18404761Y4666666D01*
X18452380Y4571428D01*
X18452380Y4476190D01*
X17976190Y4380952D01*
X18880952Y4047619D02*
X18880952Y4714285D01*
X18880952Y4523809D02*
X18928571Y4619047D01*
X18976190Y4666666D01*
X19071428Y4714285D01*
X19166666Y4714285D01*
X19499999Y4142857D02*
X19547619Y4095238D01*
X19499999Y4047619D01*
X19452380Y4095238D01*
X19499999Y4142857D01*
X19499999Y4047619D01*
X20404761Y4095238D02*
X20309523Y4047619D01*
X20119047Y4047619D01*
X20023809Y4095238D01*
X19976190Y4142857D01*
X19928571Y4238095D01*
X19928571Y4523809D01*
X19976190Y4619047D01*
X20023809Y4666666D01*
X20119047Y4714285D01*
X20309523Y4714285D01*
X20404761Y4666666D01*
X20976190Y4047619D02*
X20880952Y4095238D01*
X20833333Y4142857D01*
X20785714Y4238095D01*
X20785714Y4523809D01*
X20833333Y4619047D01*
X20880952Y4666666D01*
X20976190Y4714285D01*
X21119047Y4714285D01*
X21214285Y4666666D01*
X21261904Y4619047D01*
X21309523Y4523809D01*
X21309523Y4238095D01*
X21261904Y4142857D01*
X21214285Y4095238D01*
X21119047Y4047619D01*
X20976190Y4047619D01*
X21738095Y4047619D02*
X21738095Y4714285D01*
X21738095Y4619047D02*
X21785714Y4666666D01*
X21880952Y4714285D01*
X22023809Y4714285D01*
X22119047Y4666666D01*
X22166666Y4571428D01*
X22166666Y4047619D01*
X22166666Y4571428D02*
X22214285Y4666666D01*
X22309523Y4714285D01*
X22452380Y4714285D01*
X22547619Y4666666D01*
X22595238Y4571428D01*
X22595238Y4047619D01*
D12*
%TO.C,R2*%
X15875279Y-2490000D02*
X15549721Y-2490000D01*
X15875279Y-3510000D02*
X15549721Y-3510000D01*
%TO.C,R1*%
X15875279Y-6740000D02*
X15549721Y-6740000D01*
X15875279Y-7760000D02*
X15549721Y-7760000D01*
%TO.C,J1*%
X22330000Y-9470000D02*
X24130000Y-9470000D01*
X27840000Y-9470000D02*
X26380000Y-9470000D01*
X27840000Y-530000D02*
X26380000Y-530000D01*
X22330000Y-530000D02*
X24130000Y-530000D01*
X27840000Y-530000D02*
X27840000Y-9470000D01*
%TD*%
M02*
