%TF.GenerationSoftware,KiCad,Pcbnew,(5.99.0-8775-g06a515339c)*%
%TF.CreationDate,2021-02-12T20:04:26-05:00*%
%TF.ProjectId,dock,646f636b-2e6b-4696-9361-645f70636258,rev?*%
%TF.SameCoordinates,Original*%
%TF.FileFunction,Copper,L2,Bot*%
%TF.FilePolarity,Positive*%
%FSLAX46Y46*%
G04 Gerber Fmt 4.6, Leading zero omitted, Abs format (unit mm)*
G04 Created by KiCad (PCBNEW (5.99.0-8775-g06a515339c)) date 2021-02-12 20:04:26*
%MOMM*%
%LPD*%
G01*
G04 APERTURE LIST*
%TA.AperFunction,ComponentPad*%
%ADD10O,1.700000X0.900000*%
%TD*%
%TA.AperFunction,ComponentPad*%
%ADD11O,2.000000X0.900000*%
%TD*%
%TA.AperFunction,ViaPad*%
%ADD12C,0.800000*%
%TD*%
G04 APERTURE END LIST*
D10*
%TO.P,J1,S1,SHIELD*%
%TO.N,GND*%
X25240000Y-680000D03*
X25240000Y-9320000D03*
D11*
X21070000Y-680000D03*
X21070000Y-9320000D03*
%TD*%
D12*
%TO.N,GND*%
X13500000Y-8000000D03*
X13500000Y-2500000D03*
X3000000Y2000000D03*
%TD*%
%TA.AperFunction,Conductor*%
%TO.N,GND*%
G36*
X26434121Y5471998D02*
G01*
X26480614Y5418342D01*
X26492000Y5366000D01*
X26492000Y130052D01*
X26471998Y61931D01*
X26418342Y15438D01*
X26348068Y5334D01*
X26283488Y34828D01*
X26274454Y43476D01*
X26273629Y44348D01*
X26264013Y52649D01*
X26115038Y156962D01*
X26103950Y163159D01*
X25937038Y235389D01*
X25924935Y239228D01*
X25745406Y276734D01*
X25736138Y277937D01*
X25733747Y278000D01*
X25512115Y278000D01*
X25496876Y273525D01*
X25495671Y272135D01*
X25494000Y264452D01*
X25494000Y-1619885D01*
X25498475Y-1635124D01*
X25499865Y-1636329D01*
X25507548Y-1638000D01*
X25686028Y-1638000D01*
X25692403Y-1637677D01*
X25827289Y-1623976D01*
X25839729Y-1621422D01*
X26013267Y-1567038D01*
X26024955Y-1562029D01*
X26184013Y-1473862D01*
X26194440Y-1466615D01*
X26284003Y-1389851D01*
X26348742Y-1360708D01*
X26418960Y-1371191D01*
X26472364Y-1417973D01*
X26492000Y-1485520D01*
X26492000Y-8509948D01*
X26471998Y-8578069D01*
X26418342Y-8624562D01*
X26348068Y-8634666D01*
X26283488Y-8605172D01*
X26274454Y-8596524D01*
X26273629Y-8595652D01*
X26264013Y-8587351D01*
X26115038Y-8483038D01*
X26103950Y-8476841D01*
X25937038Y-8404611D01*
X25924935Y-8400772D01*
X25745406Y-8363266D01*
X25736138Y-8362063D01*
X25733747Y-8362000D01*
X25512115Y-8362000D01*
X25496876Y-8366475D01*
X25495671Y-8367865D01*
X25494000Y-8375548D01*
X25494000Y-9448000D01*
X25473998Y-9516121D01*
X25420342Y-9562614D01*
X25368000Y-9574000D01*
X23930708Y-9574000D01*
X23917177Y-9577973D01*
X23916300Y-9584075D01*
X23972259Y-9736165D01*
X23977821Y-9747571D01*
X24073662Y-9902147D01*
X24081411Y-9912208D01*
X24206367Y-10044345D01*
X24215987Y-10052649D01*
X24364962Y-10156962D01*
X24376050Y-10163159D01*
X24542962Y-10235389D01*
X24555065Y-10239228D01*
X24571507Y-10242663D01*
X24634097Y-10276173D01*
X24668635Y-10338202D01*
X24664155Y-10409057D01*
X24622079Y-10466242D01*
X24555765Y-10491601D01*
X24545740Y-10492000D01*
X21907367Y-10492000D01*
X21839246Y-10471998D01*
X21792753Y-10418342D01*
X21782649Y-10348068D01*
X21812143Y-10283488D01*
X21869688Y-10245766D01*
X21993267Y-10207038D01*
X22004955Y-10202029D01*
X22164013Y-10113862D01*
X22174446Y-10106611D01*
X22312533Y-9988256D01*
X22321286Y-9979065D01*
X22432757Y-9835356D01*
X22439490Y-9824582D01*
X22519784Y-9661404D01*
X22524212Y-9649497D01*
X22539311Y-9591531D01*
X22538877Y-9577436D01*
X22530696Y-9574000D01*
X19610708Y-9574000D01*
X19597177Y-9577973D01*
X19596300Y-9584075D01*
X19652259Y-9736165D01*
X19657821Y-9747571D01*
X19753662Y-9902147D01*
X19761411Y-9912208D01*
X19886367Y-10044345D01*
X19895987Y-10052649D01*
X20044962Y-10156962D01*
X20056050Y-10163159D01*
X20222962Y-10235389D01*
X20235065Y-10239228D01*
X20251507Y-10242663D01*
X20314097Y-10276173D01*
X20348635Y-10338202D01*
X20344155Y-10409057D01*
X20302079Y-10466242D01*
X20235765Y-10491601D01*
X20225740Y-10492000D01*
X-6366000Y-10492000D01*
X-6434121Y-10471998D01*
X-6480614Y-10418342D01*
X-6492000Y-10366000D01*
X-6492000Y-6977868D01*
X-5113384Y-6977868D01*
X-5096834Y-7264892D01*
X-5096009Y-7269097D01*
X-5096008Y-7269105D01*
X-5072158Y-7390668D01*
X-5041484Y-7547014D01*
X-5040097Y-7551065D01*
X-4985760Y-7709770D01*
X-4948358Y-7819014D01*
X-4819178Y-8075859D01*
X-4656336Y-8312796D01*
X-4462845Y-8525440D01*
X-4242284Y-8709857D01*
X-4238643Y-8712141D01*
X-4002376Y-8860352D01*
X-4002372Y-8860354D01*
X-3998736Y-8862635D01*
X-3736707Y-8980945D01*
X-3732588Y-8982165D01*
X-3465159Y-9061382D01*
X-3465154Y-9061383D01*
X-3461046Y-9062600D01*
X-3456812Y-9063248D01*
X-3456807Y-9063249D01*
X-3203963Y-9101940D01*
X-3176853Y-9106088D01*
X-3030502Y-9108387D01*
X-2893679Y-9110537D01*
X-2893673Y-9110537D01*
X-2889388Y-9110604D01*
X-2885136Y-9110089D01*
X-2885128Y-9110089D01*
X-2663471Y-9083265D01*
X-2603970Y-9076064D01*
X-2599821Y-9074976D01*
X-2599818Y-9074975D01*
X-2498782Y-9048469D01*
X19600689Y-9048469D01*
X19601123Y-9062564D01*
X19609304Y-9066000D01*
X22529292Y-9066000D01*
X22542823Y-9062027D01*
X22543700Y-9055925D01*
X22540957Y-9048469D01*
X23920689Y-9048469D01*
X23921123Y-9062564D01*
X23929304Y-9066000D01*
X24967885Y-9066000D01*
X24983124Y-9061525D01*
X24984329Y-9060135D01*
X24986000Y-9052452D01*
X24986000Y-8380115D01*
X24981525Y-8364876D01*
X24980135Y-8363671D01*
X24972452Y-8362000D01*
X24793972Y-8362000D01*
X24787597Y-8362323D01*
X24652711Y-8376024D01*
X24640271Y-8378578D01*
X24466733Y-8432962D01*
X24455045Y-8437971D01*
X24295987Y-8526138D01*
X24285554Y-8533389D01*
X24147467Y-8651744D01*
X24138714Y-8660935D01*
X24027243Y-8804644D01*
X24020510Y-8815418D01*
X23940216Y-8978596D01*
X23935788Y-8990503D01*
X23920689Y-9048469D01*
X22540957Y-9048469D01*
X22487741Y-8903835D01*
X22482179Y-8892429D01*
X22386338Y-8737853D01*
X22378589Y-8727792D01*
X22253633Y-8595655D01*
X22244013Y-8587351D01*
X22217288Y-8568638D01*
X22172960Y-8513181D01*
X22165651Y-8442561D01*
X22184611Y-8395698D01*
X22194965Y-8380115D01*
X22273540Y-8261849D01*
X22337942Y-8092309D01*
X22363183Y-7912714D01*
X22363500Y-7890000D01*
X22343284Y-7709770D01*
X22283641Y-7538498D01*
X22187535Y-7384696D01*
X22178745Y-7375844D01*
X22064710Y-7261012D01*
X22059742Y-7256009D01*
X21906615Y-7158831D01*
X21735763Y-7097994D01*
X21728771Y-7097160D01*
X21728770Y-7097160D01*
X21645721Y-7087257D01*
X21555679Y-7076520D01*
X21548676Y-7077256D01*
X21548675Y-7077256D01*
X21382321Y-7094740D01*
X21382317Y-7094741D01*
X21375313Y-7095477D01*
X21368642Y-7097748D01*
X21210299Y-7151652D01*
X21210296Y-7151653D01*
X21203629Y-7153923D01*
X21049159Y-7248953D01*
X20919583Y-7375844D01*
X20821338Y-7528289D01*
X20799958Y-7587032D01*
X20761720Y-7692089D01*
X20761719Y-7692093D01*
X20759310Y-7698712D01*
X20736579Y-7878642D01*
X20754277Y-8059136D01*
X20756502Y-8065824D01*
X20756502Y-8065825D01*
X20799881Y-8196229D01*
X20802404Y-8267180D01*
X20766167Y-8328233D01*
X20702675Y-8360002D01*
X20680323Y-8362000D01*
X20473972Y-8362000D01*
X20467597Y-8362323D01*
X20332711Y-8376024D01*
X20320271Y-8378578D01*
X20146733Y-8432962D01*
X20135045Y-8437971D01*
X19975987Y-8526138D01*
X19965554Y-8533389D01*
X19827467Y-8651744D01*
X19818714Y-8660935D01*
X19707243Y-8804644D01*
X19700510Y-8815418D01*
X19620216Y-8978596D01*
X19615788Y-8990503D01*
X19600689Y-9048469D01*
X-2498782Y-9048469D01*
X-2330030Y-9004198D01*
X-2325879Y-9003109D01*
X-2060264Y-8893087D01*
X-2011173Y-8864401D01*
X-1815745Y-8750202D01*
X-1815743Y-8750200D01*
X-1812037Y-8748035D01*
X-1585792Y-8570637D01*
X-1542669Y-8526138D01*
X-1401164Y-8380115D01*
X-1385717Y-8364175D01*
X-1383184Y-8360727D01*
X-1383180Y-8360722D01*
X-1218051Y-8135925D01*
X-1215513Y-8132470D01*
X-1184776Y-8075859D01*
X-1080379Y-7883585D01*
X-1080378Y-7883583D01*
X-1078329Y-7879809D01*
X-976705Y-7610869D01*
X-924905Y-7384696D01*
X-913479Y-7334808D01*
X-913478Y-7334804D01*
X-912521Y-7330624D01*
X-907030Y-7269105D01*
X-887184Y-7046728D01*
X-887184Y-7046726D01*
X-886964Y-7044262D01*
X-886500Y-7000000D01*
X-906054Y-6713165D01*
X-910591Y-6691254D01*
X-963487Y-6435835D01*
X-964356Y-6431638D01*
X-1060326Y-6160628D01*
X-1192188Y-5905150D01*
X-1357502Y-5669931D01*
X-1360427Y-5666783D01*
X-1550289Y-5462468D01*
X-1550292Y-5462466D01*
X-1553210Y-5459325D01*
X-1556526Y-5456611D01*
X-1556529Y-5456608D01*
X-1772371Y-5279942D01*
X-1772378Y-5279937D01*
X-1775689Y-5277227D01*
X-2020824Y-5127009D01*
X-2024760Y-5125281D01*
X-2280149Y-5013172D01*
X-2280153Y-5013171D01*
X-2284077Y-5011448D01*
X-2560579Y-4932685D01*
X-2771206Y-4902708D01*
X-2840959Y-4892781D01*
X-2840961Y-4892781D01*
X-2845211Y-4892176D01*
X-2996024Y-4891387D01*
X-3128421Y-4890693D01*
X-3128427Y-4890693D01*
X-3132708Y-4890671D01*
X-3136952Y-4891230D01*
X-3136956Y-4891230D01*
X-3262136Y-4907710D01*
X-3417749Y-4928197D01*
X-3421889Y-4929330D01*
X-3421891Y-4929330D01*
X-3438453Y-4933861D01*
X-3695060Y-5004061D01*
X-3716420Y-5013172D01*
X-3955567Y-5115176D01*
X-3955574Y-5115180D01*
X-3959509Y-5116858D01*
X-3963190Y-5119061D01*
X-4202521Y-5262297D01*
X-4202525Y-5262300D01*
X-4206203Y-5264501D01*
X-4209546Y-5267179D01*
X-4209550Y-5267182D01*
X-4319078Y-5354931D01*
X-4430577Y-5444259D01*
X-4433521Y-5447361D01*
X-4433525Y-5447365D01*
X-4447857Y-5462468D01*
X-4628480Y-5652804D01*
X-4796248Y-5886279D01*
X-4930778Y-6140362D01*
X-5029581Y-6410352D01*
X-5090827Y-6691254D01*
X-5113384Y-6977868D01*
X-6492000Y-6977868D01*
X-6492000Y-944075D01*
X19596300Y-944075D01*
X19652259Y-1096165D01*
X19657821Y-1107571D01*
X19753662Y-1262147D01*
X19761411Y-1272208D01*
X19886367Y-1404345D01*
X19895987Y-1412649D01*
X20044962Y-1516962D01*
X20056050Y-1523159D01*
X20222962Y-1595389D01*
X20235065Y-1599228D01*
X20414594Y-1636734D01*
X20423862Y-1637937D01*
X20426253Y-1638000D01*
X20681534Y-1638000D01*
X20749655Y-1658002D01*
X20796148Y-1711658D01*
X20806252Y-1781932D01*
X20799935Y-1807094D01*
X20761720Y-1912089D01*
X20761719Y-1912093D01*
X20759310Y-1918712D01*
X20736579Y-2098642D01*
X20754277Y-2279136D01*
X20811523Y-2451224D01*
X20905472Y-2606353D01*
X21031456Y-2736813D01*
X21037348Y-2740668D01*
X21037352Y-2740672D01*
X21069311Y-2761585D01*
X21183211Y-2836119D01*
X21353197Y-2899336D01*
X21360178Y-2900267D01*
X21360180Y-2900268D01*
X21409766Y-2906884D01*
X21532963Y-2923322D01*
X21539974Y-2922684D01*
X21539978Y-2922684D01*
X21680059Y-2909934D01*
X21713577Y-2906884D01*
X21720279Y-2904706D01*
X21720281Y-2904706D01*
X21879361Y-2853018D01*
X21879364Y-2853017D01*
X21886060Y-2850841D01*
X22041841Y-2757977D01*
X22173177Y-2632908D01*
X22273540Y-2481849D01*
X22337942Y-2312309D01*
X22363183Y-2132714D01*
X22363500Y-2110000D01*
X22343284Y-1929770D01*
X22283641Y-1758498D01*
X22187535Y-1604696D01*
X22188788Y-1603913D01*
X22165150Y-1545516D01*
X22178320Y-1475752D01*
X22208535Y-1437393D01*
X22312538Y-1348252D01*
X22321286Y-1339065D01*
X22432757Y-1195356D01*
X22439490Y-1184582D01*
X22519784Y-1021404D01*
X22524212Y-1009497D01*
X22539311Y-951531D01*
X22539081Y-944075D01*
X23916300Y-944075D01*
X23972259Y-1096165D01*
X23977821Y-1107571D01*
X24073662Y-1262147D01*
X24081411Y-1272208D01*
X24206367Y-1404345D01*
X24215987Y-1412649D01*
X24364962Y-1516962D01*
X24376050Y-1523159D01*
X24542962Y-1595389D01*
X24555065Y-1599228D01*
X24734594Y-1636734D01*
X24743862Y-1637937D01*
X24746253Y-1638000D01*
X24967885Y-1638000D01*
X24983124Y-1633525D01*
X24984329Y-1632135D01*
X24986000Y-1624452D01*
X24986000Y-952115D01*
X24981525Y-936876D01*
X24980135Y-935671D01*
X24972452Y-934000D01*
X23930708Y-934000D01*
X23917177Y-937973D01*
X23916300Y-944075D01*
X22539081Y-944075D01*
X22538877Y-937436D01*
X22530696Y-934000D01*
X19610708Y-934000D01*
X19597177Y-937973D01*
X19596300Y-944075D01*
X-6492000Y-944075D01*
X-6492000Y-408469D01*
X19600689Y-408469D01*
X19601123Y-422564D01*
X19609304Y-426000D01*
X20797885Y-426000D01*
X20813124Y-421525D01*
X20814329Y-420135D01*
X20816000Y-412452D01*
X20816000Y259885D01*
X20814659Y264452D01*
X21324000Y264452D01*
X21324000Y-407885D01*
X21328475Y-423124D01*
X21329865Y-424329D01*
X21337548Y-426000D01*
X22529292Y-426000D01*
X22542823Y-422027D01*
X22543700Y-415925D01*
X22540957Y-408469D01*
X23920689Y-408469D01*
X23921123Y-422564D01*
X23929304Y-426000D01*
X24967885Y-426000D01*
X24983124Y-421525D01*
X24984329Y-420135D01*
X24986000Y-412452D01*
X24986000Y259885D01*
X24981525Y275124D01*
X24980135Y276329D01*
X24972452Y278000D01*
X24793972Y278000D01*
X24787597Y277677D01*
X24652711Y263976D01*
X24640271Y261422D01*
X24466733Y207038D01*
X24455045Y202029D01*
X24295987Y113862D01*
X24285554Y106611D01*
X24147467Y-11744D01*
X24138714Y-20935D01*
X24027243Y-164644D01*
X24020510Y-175418D01*
X23940216Y-338596D01*
X23935788Y-350503D01*
X23920689Y-408469D01*
X22540957Y-408469D01*
X22487741Y-263835D01*
X22482179Y-252429D01*
X22386338Y-97853D01*
X22378589Y-87792D01*
X22253633Y44345D01*
X22244013Y52649D01*
X22095038Y156962D01*
X22083950Y163159D01*
X21917038Y235389D01*
X21904935Y239228D01*
X21725406Y276734D01*
X21716138Y277937D01*
X21713747Y278000D01*
X21342115Y278000D01*
X21326876Y273525D01*
X21325671Y272135D01*
X21324000Y264452D01*
X20814659Y264452D01*
X20811525Y275124D01*
X20810135Y276329D01*
X20802452Y278000D01*
X20473972Y278000D01*
X20467597Y277677D01*
X20332711Y263976D01*
X20320271Y261422D01*
X20146733Y207038D01*
X20135045Y202029D01*
X19975987Y113862D01*
X19965554Y106611D01*
X19827467Y-11744D01*
X19818714Y-20935D01*
X19707243Y-164644D01*
X19700510Y-175418D01*
X19620216Y-338596D01*
X19615788Y-350503D01*
X19600689Y-408469D01*
X-6492000Y-408469D01*
X-6492000Y2022132D01*
X12886616Y2022132D01*
X12903166Y1735108D01*
X12903991Y1730903D01*
X12903992Y1730895D01*
X12915223Y1673652D01*
X12958516Y1452986D01*
X13051642Y1180986D01*
X13180822Y924141D01*
X13343664Y687204D01*
X13537155Y474560D01*
X13757716Y290143D01*
X13761357Y287859D01*
X13997624Y139648D01*
X13997628Y139646D01*
X14001264Y137365D01*
X14005174Y135600D01*
X14005175Y135599D01*
X14045012Y117612D01*
X14263293Y19055D01*
X14267412Y17835D01*
X14534841Y-61382D01*
X14534846Y-61383D01*
X14538954Y-62600D01*
X14543188Y-63248D01*
X14543193Y-63249D01*
X14769331Y-97853D01*
X14823147Y-106088D01*
X14969498Y-108387D01*
X15106321Y-110537D01*
X15106327Y-110537D01*
X15110612Y-110604D01*
X15114864Y-110089D01*
X15114872Y-110089D01*
X15336529Y-83265D01*
X15396030Y-76064D01*
X15400179Y-74976D01*
X15400182Y-74975D01*
X15669970Y-4198D01*
X15674121Y-3109D01*
X15939736Y106913D01*
X15988827Y135599D01*
X16184255Y249798D01*
X16184257Y249800D01*
X16187963Y251965D01*
X16414208Y429363D01*
X16614283Y635825D01*
X16616816Y639273D01*
X16616820Y639278D01*
X16781949Y864075D01*
X16784487Y867530D01*
X16815224Y924141D01*
X16919621Y1116415D01*
X16919622Y1116417D01*
X16921671Y1120191D01*
X17023295Y1389131D01*
X17087479Y1669376D01*
X17092970Y1730895D01*
X17112816Y1953272D01*
X17112816Y1953274D01*
X17113036Y1955738D01*
X17113500Y2000000D01*
X17093946Y2286835D01*
X17089409Y2308746D01*
X17036513Y2564165D01*
X17035644Y2568362D01*
X16939674Y2839372D01*
X16807812Y3094850D01*
X16642498Y3330069D01*
X16639573Y3333217D01*
X16449711Y3537532D01*
X16449708Y3537534D01*
X16446790Y3540675D01*
X16443474Y3543389D01*
X16443471Y3543392D01*
X16227629Y3720058D01*
X16227622Y3720063D01*
X16224311Y3722773D01*
X15979176Y3872991D01*
X15975240Y3874719D01*
X15719851Y3986828D01*
X15719847Y3986829D01*
X15715923Y3988552D01*
X15439421Y4067315D01*
X15228794Y4097292D01*
X15159041Y4107219D01*
X15159039Y4107219D01*
X15154789Y4107824D01*
X15003976Y4108613D01*
X14871579Y4109307D01*
X14871573Y4109307D01*
X14867292Y4109329D01*
X14863048Y4108770D01*
X14863044Y4108770D01*
X14737864Y4092290D01*
X14582251Y4071803D01*
X14578111Y4070670D01*
X14578109Y4070670D01*
X14561547Y4066139D01*
X14304940Y3995939D01*
X14283580Y3986828D01*
X14044433Y3884824D01*
X14044426Y3884820D01*
X14040491Y3883142D01*
X14036810Y3880939D01*
X13797479Y3737703D01*
X13797475Y3737700D01*
X13793797Y3735499D01*
X13790454Y3732821D01*
X13790450Y3732818D01*
X13680922Y3645069D01*
X13569423Y3555741D01*
X13566479Y3552639D01*
X13566475Y3552635D01*
X13552143Y3537532D01*
X13371520Y3347196D01*
X13203752Y3113721D01*
X13069222Y2859638D01*
X12970419Y2589648D01*
X12909173Y2308746D01*
X12886616Y2022132D01*
X-6492000Y2022132D01*
X-6492000Y5366000D01*
X-6471998Y5434121D01*
X-6418342Y5480614D01*
X-6366000Y5492000D01*
X26366000Y5492000D01*
X26434121Y5471998D01*
G37*
%TD.AperFunction*%
%TD*%
M02*
