%TF.GenerationSoftware,KiCad,Pcbnew,(5.99.0-2309-gaf729d578)*%
%TF.CreationDate,2020-08-01T12:07:05-04:00*%
%TF.ProjectId,mk2,6d6b322e-6b69-4636-9164-5f7063625858,rev?*%
%TF.SameCoordinates,Original*%
%TF.FileFunction,Legend,Top*%
%TF.FilePolarity,Positive*%
%FSLAX46Y46*%
G04 Gerber Fmt 4.6, Leading zero omitted, Abs format (unit mm)*
G04 Created by KiCad (PCBNEW (5.99.0-2309-gaf729d578)) date 2020-08-01 12:07:05*
%MOMM*%
%LPD*%
G01*
G04 APERTURE LIST*
%ADD10C,0.120000*%
%ADD11C,0.050000*%
%ADD12C,0.250000*%
%ADD13C,0.150000*%
%ADD14C,0.100000*%
G04 APERTURE END LIST*
D10*
%TO.C,R16*%
X14546267Y-21240000D02*
X14203733Y-21240000D01*
X14546267Y-22260000D02*
X14203733Y-22260000D01*
%TO.C,R15*%
X14546267Y-22740000D02*
X14203733Y-22740000D01*
X14546267Y-23760000D02*
X14203733Y-23760000D01*
%TO.C,R14*%
X23328733Y-37510000D02*
X23671267Y-37510000D01*
X23328733Y-36490000D02*
X23671267Y-36490000D01*
%TO.C,R13*%
X26879733Y-37510000D02*
X27222267Y-37510000D01*
X26879733Y-36490000D02*
X27222267Y-36490000D01*
%TO.C,R12*%
X27510000Y-39671267D02*
X27510000Y-39328733D01*
X26490000Y-39671267D02*
X26490000Y-39328733D01*
%TO.C,R11*%
X23010000Y-39671267D02*
X23010000Y-39328733D01*
X21990000Y-39671267D02*
X21990000Y-39328733D01*
%TO.C,R9*%
X27990000Y-39328733D02*
X27990000Y-39671267D01*
X29010000Y-39328733D02*
X29010000Y-39671267D01*
%TO.C,R6*%
X21338000Y-33826267D02*
X21338000Y-33483733D01*
X20318000Y-33826267D02*
X20318000Y-33483733D01*
%TO.C,R5*%
X34084000Y-39203733D02*
X34084000Y-39546267D01*
X35104000Y-39203733D02*
X35104000Y-39546267D01*
%TO.C,R4*%
X24990000Y-39328733D02*
X24990000Y-39671267D01*
X26010000Y-39328733D02*
X26010000Y-39671267D01*
%TO.C,R3*%
X23490000Y-39328733D02*
X23490000Y-39671267D01*
X24510000Y-39328733D02*
X24510000Y-39671267D01*
%TO.C,C20*%
X28546267Y-41740000D02*
X28203733Y-41740000D01*
X28546267Y-42760000D02*
X28203733Y-42760000D01*
%TO.C,C10*%
X27760000Y-48296267D02*
X27760000Y-47953733D01*
X26740000Y-48296267D02*
X26740000Y-47953733D01*
%TO.C,C9*%
X23510000Y-15546267D02*
X23510000Y-15203733D01*
X22490000Y-15546267D02*
X22490000Y-15203733D01*
%TO.C,C8*%
X23510000Y-19046267D02*
X23510000Y-18703733D01*
X22490000Y-19046267D02*
X22490000Y-18703733D01*
%TO.C,C7*%
X28240000Y-47953733D02*
X28240000Y-48296267D01*
X29260000Y-47953733D02*
X29260000Y-48296267D01*
%TO.C,C6*%
X20546267Y-16990000D02*
X20203733Y-16990000D01*
X20546267Y-18010000D02*
X20203733Y-18010000D01*
%TO.C,C4*%
X16490000Y-35828733D02*
X16490000Y-36171267D01*
X17510000Y-35828733D02*
X17510000Y-36171267D01*
%TO.C,C3*%
X18046267Y-26490000D02*
X17703733Y-26490000D01*
X18046267Y-27510000D02*
X17703733Y-27510000D01*
%TO.C,C2*%
X16490000Y-24203733D02*
X16490000Y-24546267D01*
X17510000Y-24203733D02*
X17510000Y-24546267D01*
%TO.C,C1*%
X16240000Y-20953733D02*
X16240000Y-21296267D01*
X17260000Y-20953733D02*
X17260000Y-21296267D01*
D11*
%TO.C,P1*%
X30245000Y-36575000D02*
G75*
G03*
X30245000Y-36575000I-70000J0D01*
G01*
D10*
%TO.C,J5*%
X35250000Y-36000000D02*
X27250000Y-36000000D01*
X27250000Y-36000000D02*
X27250000Y-32750000D01*
X27250000Y-32750000D02*
X35250000Y-32750000D01*
X35250000Y-32750000D02*
X35250000Y-36000000D01*
%TO.C,JP1*%
X35104000Y-42787779D02*
X35104000Y-42462221D01*
X34084000Y-42787779D02*
X34084000Y-42462221D01*
%TO.C,BT1*%
X31560000Y-44990000D02*
X33440000Y-44990000D01*
X34610000Y-48110000D02*
X33560000Y-48110000D01*
X34610000Y-46960000D02*
X34610000Y-48110000D01*
X31440000Y-48110000D02*
X31440000Y-49100000D01*
X30390000Y-48110000D02*
X31440000Y-48110000D01*
X30390000Y-46960000D02*
X30390000Y-48110000D01*
D12*
%TO.C,U6*%
X26807000Y-44500000D02*
G75*
G03*
X26807000Y-44500000I-125000J0D01*
G01*
D13*
X28925000Y-45925000D02*
X27075000Y-45925000D01*
X28925000Y-44075000D02*
X28925000Y-45925000D01*
X27075000Y-44075000D02*
X28925000Y-44075000D01*
X27075000Y-45925000D02*
X27075000Y-44075000D01*
%TO.C,U5*%
X16675000Y-13521437D02*
X16675000Y-15571435D01*
X19325000Y-13521437D02*
X19325000Y-15571435D01*
D12*
X18775000Y-12310200D02*
G75*
G03*
X18775000Y-12310200I-125000J0D01*
G01*
D14*
%TO.C,U1*%
X17500000Y-18950000D02*
G75*
G03*
X17500000Y-18950000I-50000J0D01*
G01*
D10*
%TO.C,J1*%
X32160000Y-18800000D02*
X32160000Y-20000000D01*
X25350000Y-13000000D02*
X25350000Y-14740000D01*
X33650000Y-13000000D02*
X25350000Y-13000000D01*
X33650000Y-14740000D02*
X33650000Y-13000000D01*
X25350000Y-18800000D02*
X25350000Y-17460000D01*
X26840000Y-18800000D02*
X25350000Y-18800000D01*
X33650000Y-18800000D02*
X33650000Y-17460000D01*
X32160000Y-18800000D02*
X33650000Y-18800000D01*
%TO.C,J3*%
X18685000Y-16805000D02*
X18685000Y-17500000D01*
X18000000Y-16805000D02*
X18685000Y-16805000D01*
X17315000Y-18108276D02*
X17315000Y-18195000D01*
X17315000Y-16805000D02*
X17315000Y-16891724D01*
X17315000Y-18195000D02*
X16440000Y-18195000D01*
X17315000Y-16805000D02*
X16440000Y-16805000D01*
X16440000Y-17894493D02*
X16440000Y-18195000D01*
X16440000Y-16805000D02*
X16440000Y-17105507D01*
%TO.C,Q4*%
X14930000Y-24340000D02*
X13520000Y-24340000D01*
X13520000Y-26660000D02*
X15550000Y-26660000D01*
X13520000Y-26660000D02*
X13520000Y-26000000D01*
X13520000Y-25000000D02*
X13520000Y-24340000D01*
%TO.C,J2*%
X17030000Y-44080000D02*
X17030000Y-45880000D01*
X17030000Y-49590000D02*
X17030000Y-48130000D01*
X25970000Y-49590000D02*
X25970000Y-48130000D01*
X25970000Y-44080000D02*
X25970000Y-45880000D01*
X25970000Y-49590000D02*
X17030000Y-49590000D01*
D13*
%TO.C,SW4*%
X14275000Y-42175000D02*
X15875000Y-42175000D01*
X14275000Y-49325000D02*
X15875000Y-49325000D01*
X15875000Y-48675000D02*
X15875000Y-49325000D01*
X15875000Y-44475000D02*
X15875000Y-47025000D01*
X15875000Y-42175000D02*
X15875000Y-42825000D01*
D12*
X16720000Y-43650000D02*
G75*
G03*
X16720000Y-43650000I-125000J0D01*
G01*
D13*
%TO.C,SW2*%
X14275000Y-13175000D02*
X15875000Y-13175000D01*
X14275000Y-20325000D02*
X15875000Y-20325000D01*
X15875000Y-19675000D02*
X15875000Y-20325000D01*
X15875000Y-15475000D02*
X15875000Y-18025000D01*
X15875000Y-13175000D02*
X15875000Y-13825000D01*
D12*
X16720000Y-14650000D02*
G75*
G03*
X16720000Y-14650000I-125000J0D01*
G01*
D13*
%TO.C,SW1*%
X14275000Y-27675000D02*
X15875000Y-27675000D01*
X14275000Y-34825000D02*
X15875000Y-34825000D01*
X15875000Y-34175000D02*
X15875000Y-34825000D01*
X15875000Y-29975000D02*
X15875000Y-32525000D01*
X15875000Y-27675000D02*
X15875000Y-28325000D01*
D12*
X16720000Y-29150000D02*
G75*
G03*
X16720000Y-29150000I-125000J0D01*
G01*
D10*
%TO.C,Q3*%
X24621000Y-33229000D02*
X24621000Y-34639000D01*
X26941000Y-34639000D02*
X26941000Y-32609000D01*
X26941000Y-34639000D02*
X26281000Y-34639000D01*
X25281000Y-34639000D02*
X24621000Y-34639000D01*
%TO.C,C5*%
X19360000Y-30852064D02*
X19360000Y-29647936D01*
X16640000Y-30852064D02*
X16640000Y-29647936D01*
%TO.C,Y1*%
X19550000Y-25150000D02*
X19550000Y-22300000D01*
X17950000Y-25150000D02*
X19550000Y-25150000D01*
X17950000Y-22300000D02*
X17950000Y-25150000D01*
%TO.C,U3*%
X30234000Y-41100000D02*
X30234000Y-43550000D01*
X33454000Y-42900000D02*
X33454000Y-41100000D01*
%TO.C,U2*%
X13700000Y-41060000D02*
X16150000Y-41060000D01*
X15500000Y-37840000D02*
X13700000Y-37840000D01*
%TO.C,SW_RESET1*%
X21967000Y-32380000D02*
X21867000Y-32380000D01*
X21967000Y-35620000D02*
X21867000Y-35620000D01*
X21867000Y-32380000D02*
X21867000Y-35620000D01*
X24107000Y-32380000D02*
X24007000Y-32380000D01*
X24107000Y-35620000D02*
X24007000Y-35620000D01*
X24107000Y-32380000D02*
X24107000Y-35620000D01*
%TO.C,L2*%
X21010000Y-14796267D02*
X21010000Y-14453733D01*
X19990000Y-14796267D02*
X19990000Y-14453733D01*
%TO.C,L1*%
X13921267Y-36490000D02*
X13578733Y-36490000D01*
X13921267Y-37510000D02*
X13578733Y-37510000D01*
D14*
%TO.C,IC1*%
X35250000Y-21250000D02*
X35250000Y-31750000D01*
X35250000Y-31750000D02*
X19750000Y-31750000D01*
X19750000Y-31750000D02*
X19750000Y-21250000D01*
X19750000Y-21250000D02*
X35250000Y-21250000D01*
X31300000Y-20900000D02*
X31300000Y-20900000D01*
X31200000Y-20900000D02*
X31200000Y-20900000D01*
X31200000Y-20900000D02*
G75*
G02*
X31300000Y-20900000I50000J0D01*
G01*
X31300000Y-20900000D02*
G75*
G02*
X31200000Y-20900000I-50000J0D01*
G01*
D10*
%TO.C,D2*%
X16465000Y-34235000D02*
X18925000Y-34235000D01*
X16465000Y-32765000D02*
X16465000Y-34235000D01*
X18925000Y-32765000D02*
X16465000Y-32765000D01*
%TO.C,D1*%
X18380000Y-41010000D02*
X20810000Y-41010000D01*
X18360000Y-41000000D02*
X18360000Y-40000000D01*
X18360000Y-37950000D02*
X20210000Y-37950000D01*
X18360000Y-39000000D02*
X18360000Y-37950000D01*
%TD*%
M02*
