%TF.GenerationSoftware,KiCad,Pcbnew,(5.99.0-2309-gaf729d578)*%
%TF.CreationDate,2020-08-01T12:07:05-04:00*%
%TF.ProjectId,mk2,6d6b322e-6b69-4636-9164-5f7063625858,rev?*%
%TF.SameCoordinates,Original*%
%TF.FileFunction,Copper,L3,Inr*%
%TF.FilePolarity,Positive*%
%FSLAX46Y46*%
G04 Gerber Fmt 4.6, Leading zero omitted, Abs format (unit mm)*
G04 Created by KiCad (PCBNEW (5.99.0-2309-gaf729d578)) date 2020-08-01 12:07:05*
%MOMM*%
%LPD*%
G01*
G04 APERTURE LIST*
%TA.AperFunction,ComponentPad*%
%ADD10O,0.850000X0.850000*%
%TD*%
%TA.AperFunction,ComponentPad*%
%ADD11R,0.850000X0.850000*%
%TD*%
%TA.AperFunction,ComponentPad*%
%ADD12O,0.900000X1.700000*%
%TD*%
%TA.AperFunction,ComponentPad*%
%ADD13O,0.900000X2.000000*%
%TD*%
%TA.AperFunction,ViaPad*%
%ADD14C,0.500000*%
%TD*%
%TA.AperFunction,Conductor*%
%ADD15C,0.254000*%
%TD*%
G04 APERTURE END LIST*
D10*
%TO.N,Net-(J3-Pad2)*%
%TO.C,J3*%
X17000000Y-17500000D03*
D11*
%TO.N,Net-(J3-Pad1)*%
X18000000Y-17500000D03*
%TD*%
D12*
%TO.N,GND*%
%TO.C,J2*%
X25820000Y-46990000D03*
X17180000Y-46990000D03*
D13*
X25820000Y-42820000D03*
X17180000Y-42820000D03*
%TD*%
D14*
%TO.N,GND*%
X22987000Y-14478000D03*
%TO.N,VCC*%
X15261500Y-21738500D03*
X18923000Y-26924000D03*
%TO.N,SCL*%
X26169433Y-31871817D03*
%TO.N,GND*%
X25273000Y-32385000D03*
X22479000Y-38608000D03*
X23241000Y-35687000D03*
X32131000Y-32893000D03*
X33147000Y-35433000D03*
X15494000Y-43561000D03*
X15875000Y-39370000D03*
X17145000Y-36703000D03*
X19177000Y-35941000D03*
X20105030Y-31877000D03*
X15240000Y-28956000D03*
X17145000Y-28702000D03*
X13589000Y-23241000D03*
X17018000Y-23622000D03*
X15240000Y-24765000D03*
X19305405Y-21600032D03*
X19200435Y-20570020D03*
X16764000Y-20320000D03*
X15385000Y-14650000D03*
X19558000Y-17399000D03*
X24003000Y-17907000D03*
X26416000Y-19431000D03*
X30480000Y-22479000D03*
%TO.N,VCC*%
X30607000Y-23241000D03*
%TO.N,GND*%
X29083000Y-23622000D03*
X27051000Y-38608000D03*
X28448000Y-40386000D03*
X27432000Y-42291000D03*
X32258000Y-44069000D03*
X29464000Y-45847000D03*
X27305000Y-47371000D03*
X33020000Y-48387000D03*
X28829000Y-49022000D03*
%TO.N,SPI_CLK*%
X25019000Y-20828000D03*
%TO.N,5V*%
X23000000Y-19600990D03*
%TO.N,SPI_CLK*%
X20320000Y-20066000D03*
%TO.N,SQW*%
X29210000Y-18019989D03*
%TO.N,VIN*%
X22352000Y-25527000D03*
X22352000Y-20828000D03*
X22352000Y-22733000D03*
%TO.N,Net-(C5-Pad1)*%
X17515010Y-33571185D03*
%TO.N,VIN*%
X17000000Y-35125000D03*
%TO.N,BUTTON3*%
X15367000Y-35306000D03*
X19812000Y-27051000D03*
%TO.N,BATTPOW*%
X32175192Y-41940472D03*
%TO.N,VCC*%
X31900121Y-46028092D03*
X34594000Y-40250000D03*
%TO.N,BACKLIGHT*%
X26924000Y-34036000D03*
X24384000Y-28448000D03*
%TO.N,SWDCLK*%
X30299221Y-32565778D03*
%TO.N,CHGNG*%
X30241079Y-31850012D03*
%TO.N,SWDIO*%
X29210000Y-31969946D03*
%TO.N,BUTTON4*%
X29210008Y-32619957D03*
%TO.N,BUTTON1*%
X14097000Y-26162000D03*
%TO.N,BUTTON5*%
X18892040Y-26029797D03*
%TO.N,BUTTON1*%
X19304000Y-25527000D03*
%TO.N,BUZZER*%
X23368000Y-23495000D03*
X15250000Y-23250000D03*
%TO.N,VCC*%
X18415000Y-30480000D03*
X19000000Y-33500000D03*
%TO.N,VUSB*%
X18891324Y-34972515D03*
%TO.N,SQW*%
X20414604Y-35785020D03*
%TO.N,Net-(C5-Pad1)*%
X18161000Y-37465000D03*
%TO.N,BUTTON5*%
X15367000Y-31877000D03*
%TO.N,Net-(J3-Pad1)*%
X15621000Y-17950000D03*
X13462000Y-18669000D03*
%TO.N,FLASH_CS*%
X17402983Y-19041800D03*
%TO.N,SPI_MISO*%
X16749747Y-19081411D03*
%TO.N,FLASH_CS*%
X21590000Y-22352000D03*
%TO.N,SPI_MISO*%
X17907000Y-21209000D03*
%TO.N,5V*%
X21844000Y-15748000D03*
%TO.N,SPI_MOSI*%
X30993711Y-20562691D03*
X29667416Y-20510080D03*
%TO.N,SQW*%
X28575000Y-22225000D03*
%TO.N,SPI_CLK*%
X29040010Y-20680011D03*
%TO.N,BUTTON2*%
X31549612Y-38390694D03*
%TO.N,FLASHLIGHT*%
X30569698Y-38068405D03*
%TO.N,BUTTON4*%
X28194000Y-32258000D03*
X31242000Y-33909000D03*
X32131000Y-38100000D03*
%TO.N,VIN*%
X29226979Y-36322000D03*
%TO.N,CHGNG*%
X29858666Y-29295189D03*
%TO.N,Net-(J5-Pad3)*%
X29176979Y-35433000D03*
%TO.N,BUTTON2*%
X29210000Y-29337000D03*
%TO.N,FLASHLIGHT*%
X29506990Y-33887889D03*
%TO.N,RST*%
X22479000Y-33020000D03*
X20828000Y-32780000D03*
%TO.N,SDA*%
X22746559Y-34761516D03*
%TO.N,RST*%
X22987000Y-32385000D03*
X24130000Y-29337000D03*
%TO.N,SDA*%
X24081628Y-33606628D03*
%TO.N,RTCIRQ*%
X24289138Y-31822238D03*
%TO.N,SQW*%
X23368000Y-33274000D03*
%TO.N,RTCIRQ*%
X19304000Y-37465000D03*
%TO.N,BATTPOW*%
X20217827Y-39658030D03*
%TO.N,VUSB*%
X19003078Y-39100906D03*
%TO.N,Net-(J5-Pad1)*%
X24725225Y-35853775D03*
%TO.N,VIN*%
X22733000Y-36957000D03*
%TO.N,Net-(J5-Pad1)*%
X28575000Y-35933990D03*
%TO.N,Net-(J5-Pad3)*%
X25827992Y-35298990D03*
%TO.N,CHGNG*%
X30988000Y-42926000D03*
X34594000Y-38500000D03*
%TO.N,SCL*%
X18380020Y-44522759D03*
X20835051Y-37474994D03*
%TO.N,SDA*%
X18415000Y-45466000D03*
%TO.N,VUSB*%
X29845000Y-41148000D03*
X29718000Y-43561000D03*
%TO.N,Net-(J2-PadB5)*%
X26378139Y-41147987D03*
%TO.N,BATTPOW*%
X29210000Y-42291000D03*
%TO.N,Net-(J2-PadB5)*%
X23204939Y-43524939D03*
%TO.N,USB_DN*%
X20766013Y-43434000D03*
%TO.N,Net-(J2-PadA5)*%
X22606000Y-40386000D03*
X20066000Y-43434000D03*
%TO.N,USB_DN*%
X21844000Y-43307000D03*
%TO.N,BATTPOW*%
X29591000Y-44831000D03*
%TO.N,SPI_CLK*%
X32639000Y-19558000D03*
%TD*%
%TO.N,GND*%
D15*
X34866001Y-20366000D02*
X33002881Y-20366000D01*
X33099032Y-20324392D01*
X33114331Y-20314998D01*
X33295642Y-20164471D01*
X33307690Y-20151161D01*
X33439464Y-19955796D01*
X33447292Y-19939640D01*
X33519056Y-19714775D01*
X33522050Y-19696289D01*
X33525165Y-19441328D01*
X33522624Y-19422774D01*
X33456376Y-19196223D01*
X33448945Y-19179879D01*
X33321983Y-18981354D01*
X33310264Y-18967753D01*
X33132685Y-18812841D01*
X33117620Y-18803076D01*
X32903700Y-18704232D01*
X32886500Y-18699088D01*
X32653436Y-18664256D01*
X32635483Y-18664147D01*
X32402012Y-18696128D01*
X32384750Y-18701061D01*
X32169639Y-18797285D01*
X32154456Y-18806865D01*
X31974998Y-18959596D01*
X31963114Y-18973053D01*
X31833735Y-19170013D01*
X31826105Y-19186264D01*
X31757207Y-19411618D01*
X31754445Y-19429358D01*
X31751567Y-19664993D01*
X31753895Y-19682794D01*
X31817265Y-19909765D01*
X31824496Y-19926198D01*
X31949024Y-20126259D01*
X31960576Y-20140002D01*
X32136249Y-20297071D01*
X32151193Y-20307019D01*
X32274848Y-20366000D01*
X31859361Y-20366000D01*
X31811087Y-20200914D01*
X31803656Y-20184570D01*
X31676694Y-19986045D01*
X31664975Y-19972444D01*
X31487396Y-19817532D01*
X31472331Y-19807767D01*
X31258411Y-19708923D01*
X31241211Y-19703779D01*
X31008147Y-19668947D01*
X30990194Y-19668838D01*
X30756723Y-19700819D01*
X30739461Y-19705752D01*
X30524350Y-19801976D01*
X30509167Y-19811556D01*
X30355884Y-19942010D01*
X30350399Y-19933433D01*
X30338680Y-19919833D01*
X30161101Y-19764921D01*
X30146036Y-19755156D01*
X29932116Y-19656312D01*
X29914916Y-19651168D01*
X29681852Y-19616336D01*
X29663899Y-19616227D01*
X29430428Y-19648208D01*
X29413166Y-19653141D01*
X29198055Y-19749365D01*
X29182872Y-19758945D01*
X29136381Y-19798512D01*
X29054446Y-19786267D01*
X29036493Y-19786158D01*
X28803022Y-19818139D01*
X28785760Y-19823072D01*
X28570649Y-19919296D01*
X28555466Y-19928876D01*
X28376008Y-20081607D01*
X28364124Y-20095064D01*
X28234745Y-20292024D01*
X28227115Y-20308275D01*
X28158217Y-20533629D01*
X28155455Y-20551369D01*
X28152577Y-20787004D01*
X28154905Y-20804805D01*
X28218275Y-21031776D01*
X28225506Y-21048209D01*
X28350034Y-21248270D01*
X28361586Y-21262013D01*
X28456521Y-21346895D01*
X28338012Y-21363128D01*
X28320750Y-21368061D01*
X28105639Y-21464285D01*
X28090456Y-21473865D01*
X27910998Y-21626596D01*
X27899114Y-21640053D01*
X27769735Y-21837013D01*
X27762105Y-21853264D01*
X27693207Y-22078618D01*
X27690445Y-22096358D01*
X27687567Y-22331993D01*
X27689895Y-22349794D01*
X27753265Y-22576765D01*
X27760496Y-22593198D01*
X27885024Y-22793259D01*
X27896576Y-22807002D01*
X28072249Y-22964071D01*
X28087193Y-22974019D01*
X28299888Y-23075470D01*
X28317025Y-23080824D01*
X28549646Y-23118500D01*
X28567596Y-23118829D01*
X28801440Y-23089702D01*
X28818761Y-23084980D01*
X29035032Y-22991392D01*
X29050331Y-22981998D01*
X29231642Y-22831471D01*
X29243690Y-22818161D01*
X29375464Y-22622796D01*
X29383292Y-22606640D01*
X29455056Y-22381775D01*
X29458050Y-22363289D01*
X29461165Y-22108328D01*
X29458624Y-22089774D01*
X29392376Y-21863223D01*
X29384945Y-21846879D01*
X29257983Y-21648354D01*
X29246264Y-21634753D01*
X29158467Y-21558163D01*
X29266450Y-21544713D01*
X29283771Y-21539991D01*
X29500042Y-21446403D01*
X29515341Y-21437009D01*
X29569720Y-21391863D01*
X29642062Y-21403580D01*
X29660012Y-21403909D01*
X29893856Y-21374782D01*
X29911177Y-21370060D01*
X30127448Y-21276472D01*
X30142747Y-21267078D01*
X30304960Y-21132407D01*
X30315287Y-21144693D01*
X30490960Y-21301762D01*
X30505904Y-21311710D01*
X30718599Y-21413161D01*
X30735736Y-21418515D01*
X30968357Y-21456191D01*
X30986307Y-21456520D01*
X31116000Y-21440366D01*
X31116000Y-22509201D01*
X31100685Y-22495841D01*
X31085620Y-22486076D01*
X30871700Y-22387232D01*
X30854500Y-22382088D01*
X30621436Y-22347256D01*
X30603483Y-22347147D01*
X30370012Y-22379128D01*
X30352750Y-22384061D01*
X30137639Y-22480285D01*
X30122456Y-22489865D01*
X29942998Y-22642596D01*
X29931114Y-22656053D01*
X29801735Y-22853013D01*
X29794105Y-22869264D01*
X29725207Y-23094618D01*
X29722445Y-23112358D01*
X29719567Y-23347993D01*
X29721895Y-23365794D01*
X29785265Y-23592765D01*
X29792496Y-23609198D01*
X29917024Y-23809259D01*
X29928576Y-23823002D01*
X30104249Y-23980071D01*
X30119193Y-23990019D01*
X30331888Y-24091470D01*
X30349025Y-24096824D01*
X30581646Y-24134500D01*
X30599596Y-24134829D01*
X30833440Y-24105702D01*
X30850761Y-24100980D01*
X31067032Y-24007392D01*
X31082331Y-23997998D01*
X31116000Y-23970045D01*
X31116001Y-31685027D01*
X31058455Y-31488235D01*
X31051024Y-31471891D01*
X30924062Y-31273366D01*
X30912343Y-31259765D01*
X30734764Y-31104853D01*
X30719699Y-31095088D01*
X30505779Y-30996244D01*
X30488579Y-30991100D01*
X30255515Y-30956268D01*
X30237562Y-30956159D01*
X30004091Y-30988140D01*
X29986829Y-30993073D01*
X29771718Y-31089297D01*
X29756535Y-31098877D01*
X29644188Y-31194492D01*
X29474700Y-31116178D01*
X29457500Y-31111034D01*
X29224436Y-31076202D01*
X29206483Y-31076093D01*
X28973012Y-31108074D01*
X28955750Y-31113007D01*
X28740639Y-31209231D01*
X28725456Y-31218811D01*
X28545998Y-31371542D01*
X28534113Y-31384999D01*
X28506861Y-31426486D01*
X28458700Y-31404232D01*
X28441500Y-31399088D01*
X28208436Y-31364256D01*
X28190483Y-31364147D01*
X27957012Y-31396128D01*
X27939750Y-31401061D01*
X27724639Y-31497285D01*
X27709456Y-31506865D01*
X27529998Y-31659596D01*
X27518114Y-31673053D01*
X27388735Y-31870013D01*
X27381105Y-31886264D01*
X27312207Y-32111618D01*
X27309445Y-32129358D01*
X27306567Y-32364993D01*
X27308895Y-32382794D01*
X27372265Y-32609765D01*
X27379496Y-32626198D01*
X27504024Y-32826259D01*
X27515576Y-32840002D01*
X27691249Y-32997071D01*
X27706193Y-33007019D01*
X27918888Y-33108470D01*
X27936025Y-33113824D01*
X28168646Y-33151500D01*
X28186596Y-33151829D01*
X28420440Y-33122702D01*
X28437761Y-33117980D01*
X28468133Y-33104837D01*
X28520032Y-33188216D01*
X28531584Y-33201959D01*
X28707257Y-33359028D01*
X28722201Y-33368976D01*
X28772095Y-33392774D01*
X28701725Y-33499902D01*
X28694095Y-33516153D01*
X28625197Y-33741507D01*
X28622435Y-33759247D01*
X28619557Y-33994882D01*
X28621885Y-34012683D01*
X28685255Y-34239654D01*
X28692486Y-34256087D01*
X28817014Y-34456148D01*
X28828566Y-34469891D01*
X28941554Y-34570914D01*
X28939991Y-34571128D01*
X28922729Y-34576061D01*
X28707618Y-34672285D01*
X28692435Y-34681865D01*
X28512977Y-34834596D01*
X28501093Y-34848053D01*
X28371714Y-35045013D01*
X28364084Y-35061264D01*
X28361760Y-35068865D01*
X28338012Y-35072118D01*
X28320750Y-35077052D01*
X28105639Y-35173275D01*
X28090456Y-35182855D01*
X27910998Y-35335586D01*
X27899114Y-35349043D01*
X27769735Y-35546003D01*
X27762105Y-35562254D01*
X27693207Y-35787608D01*
X27690445Y-35805348D01*
X27687567Y-36040983D01*
X27689895Y-36058784D01*
X27753265Y-36285755D01*
X27760496Y-36302188D01*
X27885024Y-36502249D01*
X27896576Y-36515992D01*
X28072249Y-36673061D01*
X28087193Y-36683009D01*
X28299888Y-36784460D01*
X28317025Y-36789814D01*
X28492135Y-36818175D01*
X28537003Y-36890259D01*
X28548555Y-36904002D01*
X28724228Y-37061071D01*
X28739172Y-37071019D01*
X28951867Y-37172470D01*
X28969004Y-37177824D01*
X29201625Y-37215500D01*
X29219575Y-37215829D01*
X29453419Y-37186702D01*
X29470740Y-37181980D01*
X29687011Y-37088392D01*
X29702310Y-37078998D01*
X29883621Y-36928471D01*
X29895669Y-36915161D01*
X30027443Y-36719796D01*
X30035271Y-36703640D01*
X30107035Y-36478775D01*
X30110029Y-36460289D01*
X30113144Y-36205328D01*
X30110603Y-36186774D01*
X30044355Y-35960223D01*
X30036924Y-35943879D01*
X29970853Y-35840566D01*
X29977443Y-35830796D01*
X29985271Y-35814640D01*
X30057035Y-35589775D01*
X30060029Y-35571289D01*
X30063144Y-35316328D01*
X30060603Y-35297774D01*
X29994355Y-35071223D01*
X29986924Y-35054879D01*
X29859962Y-34856354D01*
X29848243Y-34842753D01*
X29742160Y-34750211D01*
X29750751Y-34747869D01*
X29967022Y-34654281D01*
X29982321Y-34644887D01*
X30163632Y-34494360D01*
X30175680Y-34481050D01*
X30307454Y-34285685D01*
X30315282Y-34269529D01*
X30372583Y-34089983D01*
X30420265Y-34260765D01*
X30427496Y-34277198D01*
X30552024Y-34477259D01*
X30563576Y-34491002D01*
X30739249Y-34648071D01*
X30754193Y-34658019D01*
X30966888Y-34759470D01*
X30984025Y-34764824D01*
X31216646Y-34802500D01*
X31234596Y-34802829D01*
X31468440Y-34773702D01*
X31485761Y-34768980D01*
X31702032Y-34675392D01*
X31717331Y-34665998D01*
X31898642Y-34515471D01*
X31910690Y-34502161D01*
X32042464Y-34306796D01*
X32050292Y-34290640D01*
X32122056Y-34065775D01*
X32125050Y-34047289D01*
X32128165Y-33792328D01*
X32125624Y-33773774D01*
X32059376Y-33547223D01*
X32051945Y-33530879D01*
X31924983Y-33332354D01*
X31913264Y-33318753D01*
X31735685Y-33163841D01*
X31720620Y-33154076D01*
X31506700Y-33055232D01*
X31489500Y-33050088D01*
X31256436Y-33015256D01*
X31238483Y-33015147D01*
X31047228Y-33041345D01*
X31099685Y-32963574D01*
X31107513Y-32947418D01*
X31179277Y-32722553D01*
X31182271Y-32704067D01*
X31185386Y-32449106D01*
X31182845Y-32430552D01*
X31116597Y-32204001D01*
X31109166Y-32187657D01*
X31078643Y-32139930D01*
X31115805Y-32023489D01*
X31115473Y-32077859D01*
X31117909Y-32095647D01*
X31128494Y-32132680D01*
X31133952Y-32170793D01*
X31138991Y-32188025D01*
X31153319Y-32219538D01*
X31162831Y-32252821D01*
X31170162Y-32269210D01*
X31190714Y-32301782D01*
X31206649Y-32336832D01*
X31216322Y-32351957D01*
X31238916Y-32378178D01*
X31257389Y-32407457D01*
X31269025Y-32421129D01*
X31297894Y-32446624D01*
X31323027Y-32475794D01*
X31336556Y-32487596D01*
X31365599Y-32506421D01*
X31391550Y-32529340D01*
X31406554Y-32539196D01*
X31441426Y-32555569D01*
X31473730Y-32576507D01*
X31490027Y-32584037D01*
X31523182Y-32593952D01*
X31554700Y-32608750D01*
X31572255Y-32614059D01*
X31608545Y-32619482D01*
X31646640Y-32630875D01*
X31664396Y-32633529D01*
X31707593Y-32633793D01*
X31710379Y-32634000D01*
X31741463Y-32634000D01*
X31827859Y-32634527D01*
X31831707Y-32634000D01*
X34866000Y-32634000D01*
X34866000Y-37649605D01*
X34858700Y-37646232D01*
X34841500Y-37641088D01*
X34608436Y-37606256D01*
X34590483Y-37606147D01*
X34357012Y-37638128D01*
X34339750Y-37643061D01*
X34124639Y-37739285D01*
X34109456Y-37748865D01*
X33929998Y-37901596D01*
X33918114Y-37915053D01*
X33788735Y-38112013D01*
X33781105Y-38128264D01*
X33712207Y-38353618D01*
X33709445Y-38371358D01*
X33706567Y-38606993D01*
X33708895Y-38624794D01*
X33772265Y-38851765D01*
X33779496Y-38868198D01*
X33904024Y-39068259D01*
X33915576Y-39082002D01*
X34091249Y-39239071D01*
X34106193Y-39249019D01*
X34318888Y-39350470D01*
X34336025Y-39355824D01*
X34453702Y-39374883D01*
X34357012Y-39388128D01*
X34339750Y-39393061D01*
X34124639Y-39489285D01*
X34109456Y-39498865D01*
X33929998Y-39651596D01*
X33918114Y-39665053D01*
X33788735Y-39862013D01*
X33781105Y-39878264D01*
X33712207Y-40103618D01*
X33709445Y-40121358D01*
X33706567Y-40356993D01*
X33708895Y-40374794D01*
X33772265Y-40601765D01*
X33779496Y-40618198D01*
X33904024Y-40818259D01*
X33915576Y-40832002D01*
X34091249Y-40989071D01*
X34106193Y-40999019D01*
X34318888Y-41100470D01*
X34336025Y-41105824D01*
X34568646Y-41143500D01*
X34586596Y-41143829D01*
X34820440Y-41114702D01*
X34837761Y-41109980D01*
X34866000Y-41097760D01*
X34866001Y-49366000D01*
X12634000Y-49366000D01*
X12634000Y-47191808D01*
X16096000Y-47191808D01*
X16096000Y-47440350D01*
X16096301Y-47446502D01*
X16110901Y-47595404D01*
X16113295Y-47607495D01*
X16171159Y-47799149D01*
X16175855Y-47810543D01*
X16269843Y-47987308D01*
X16276663Y-47997574D01*
X16403194Y-48152717D01*
X16411878Y-48161463D01*
X16566134Y-48289074D01*
X16576352Y-48295966D01*
X16752456Y-48391185D01*
X16763819Y-48395961D01*
X16949542Y-48453451D01*
X17052000Y-48377912D01*
X17052000Y-48377013D01*
X17307999Y-48377013D01*
X17409045Y-48452605D01*
X17582095Y-48401674D01*
X17593522Y-48397057D01*
X17770940Y-48304306D01*
X17781254Y-48297557D01*
X17937275Y-48172111D01*
X17946080Y-48163488D01*
X18074766Y-48010128D01*
X18081729Y-47999958D01*
X18178175Y-47824523D01*
X18183031Y-47813195D01*
X18243631Y-47622157D01*
X18246242Y-47609662D01*
X18263655Y-47443988D01*
X18264000Y-47437398D01*
X18264000Y-47191809D01*
X18263999Y-47191808D01*
X24736000Y-47191808D01*
X24736000Y-47440350D01*
X24736301Y-47446502D01*
X24750901Y-47595404D01*
X24753295Y-47607495D01*
X24811159Y-47799149D01*
X24815855Y-47810543D01*
X24909843Y-47987308D01*
X24916663Y-47997574D01*
X25043194Y-48152717D01*
X25051878Y-48161463D01*
X25206134Y-48289074D01*
X25216352Y-48295966D01*
X25392456Y-48391185D01*
X25403819Y-48395961D01*
X25589542Y-48453451D01*
X25692000Y-48377912D01*
X25692000Y-48377013D01*
X25947999Y-48377013D01*
X26049045Y-48452605D01*
X26222095Y-48401674D01*
X26233522Y-48397057D01*
X26410940Y-48304306D01*
X26421254Y-48297557D01*
X26577275Y-48172111D01*
X26586080Y-48163488D01*
X26714766Y-48010128D01*
X26721729Y-47999958D01*
X26818175Y-47824523D01*
X26823031Y-47813195D01*
X26883631Y-47622157D01*
X26886242Y-47609662D01*
X26903655Y-47443988D01*
X26904000Y-47437398D01*
X26904000Y-47191809D01*
X26830191Y-47118000D01*
X26021809Y-47117999D01*
X25948000Y-47191808D01*
X25947999Y-48377013D01*
X25692000Y-48377013D01*
X25692001Y-47191809D01*
X25618192Y-47118000D01*
X24809809Y-47117999D01*
X24736000Y-47191808D01*
X18263999Y-47191808D01*
X18190191Y-47118000D01*
X17381809Y-47117999D01*
X17308000Y-47191808D01*
X17307999Y-48377013D01*
X17052000Y-48377013D01*
X17052001Y-47191809D01*
X16978192Y-47118000D01*
X16169809Y-47117999D01*
X16096000Y-47191808D01*
X12634000Y-47191808D01*
X12634000Y-46542601D01*
X16096000Y-46542601D01*
X16096000Y-46788191D01*
X16169809Y-46862000D01*
X16978191Y-46862001D01*
X17052000Y-46788192D01*
X17052001Y-45602987D01*
X16950955Y-45527395D01*
X16777905Y-45578326D01*
X16766478Y-45582943D01*
X16589061Y-45675694D01*
X16578747Y-45682443D01*
X16422726Y-45807889D01*
X16413921Y-45816512D01*
X16285235Y-45969872D01*
X16278272Y-45980042D01*
X16181826Y-46155477D01*
X16176970Y-46166805D01*
X16116370Y-46357842D01*
X16113760Y-46370338D01*
X16096345Y-46536011D01*
X16096000Y-46542601D01*
X12634000Y-46542601D01*
X12634000Y-43021808D01*
X16096000Y-43021808D01*
X16096000Y-43420350D01*
X16096301Y-43426502D01*
X16110901Y-43575404D01*
X16113295Y-43587495D01*
X16171159Y-43779149D01*
X16175855Y-43790543D01*
X16269843Y-43967308D01*
X16276663Y-43977574D01*
X16403194Y-44132717D01*
X16411878Y-44141463D01*
X16566134Y-44269074D01*
X16576352Y-44275966D01*
X16752456Y-44371185D01*
X16763819Y-44375961D01*
X16949542Y-44433451D01*
X17052000Y-44357912D01*
X17052001Y-43021809D01*
X16978192Y-42948000D01*
X16169809Y-42947999D01*
X16096000Y-43021808D01*
X12634000Y-43021808D01*
X12634000Y-42222602D01*
X16096001Y-42222602D01*
X16096001Y-42618191D01*
X16169810Y-42692000D01*
X16978191Y-42692001D01*
X17052000Y-42618192D01*
X17307999Y-42618192D01*
X17308000Y-42618193D01*
X17307999Y-44357013D01*
X17409045Y-44432605D01*
X17495305Y-44407217D01*
X17492587Y-44629752D01*
X17494915Y-44647553D01*
X17558285Y-44874524D01*
X17565516Y-44890957D01*
X17646813Y-45021566D01*
X17609735Y-45078013D01*
X17602105Y-45094264D01*
X17533207Y-45319618D01*
X17530445Y-45337358D01*
X17527691Y-45562838D01*
X17410458Y-45526549D01*
X17308000Y-45602088D01*
X17307999Y-46788191D01*
X17381808Y-46862000D01*
X18190191Y-46862001D01*
X18264000Y-46788192D01*
X18264000Y-46542601D01*
X24736000Y-46542601D01*
X24736000Y-46788191D01*
X24809809Y-46862000D01*
X25618191Y-46862001D01*
X25692000Y-46788192D01*
X25692000Y-46788191D01*
X25947999Y-46788191D01*
X26021808Y-46862000D01*
X26830191Y-46862001D01*
X26904000Y-46788192D01*
X26904000Y-46539650D01*
X26903699Y-46533498D01*
X26889099Y-46384595D01*
X26886705Y-46372504D01*
X26828841Y-46180850D01*
X26824144Y-46169456D01*
X26805869Y-46135085D01*
X31012688Y-46135085D01*
X31015016Y-46152886D01*
X31078386Y-46379857D01*
X31085617Y-46396290D01*
X31210145Y-46596351D01*
X31221697Y-46610094D01*
X31397370Y-46767163D01*
X31412314Y-46777111D01*
X31625009Y-46878562D01*
X31642146Y-46883916D01*
X31874767Y-46921592D01*
X31892717Y-46921921D01*
X32126561Y-46892794D01*
X32143882Y-46888072D01*
X32360153Y-46794484D01*
X32375452Y-46785090D01*
X32556763Y-46634563D01*
X32568811Y-46621253D01*
X32700585Y-46425888D01*
X32708413Y-46409732D01*
X32780177Y-46184867D01*
X32783171Y-46166381D01*
X32786286Y-45911420D01*
X32783745Y-45892866D01*
X32717497Y-45666315D01*
X32710066Y-45649971D01*
X32583104Y-45451446D01*
X32571385Y-45437845D01*
X32393806Y-45282933D01*
X32378741Y-45273168D01*
X32164821Y-45174324D01*
X32147621Y-45169180D01*
X31914557Y-45134348D01*
X31896604Y-45134239D01*
X31663133Y-45166220D01*
X31645871Y-45171153D01*
X31430760Y-45267377D01*
X31415577Y-45276957D01*
X31236119Y-45429688D01*
X31224235Y-45443145D01*
X31094856Y-45640105D01*
X31087226Y-45656356D01*
X31018328Y-45881710D01*
X31015566Y-45899450D01*
X31012688Y-46135085D01*
X26805869Y-46135085D01*
X26730157Y-45992692D01*
X26723337Y-45982426D01*
X26596806Y-45827283D01*
X26588122Y-45818537D01*
X26433866Y-45690926D01*
X26423648Y-45684034D01*
X26247544Y-45588815D01*
X26236181Y-45584039D01*
X26050458Y-45526549D01*
X25948000Y-45602088D01*
X25947999Y-46788191D01*
X25692000Y-46788191D01*
X25692001Y-45602987D01*
X25590955Y-45527395D01*
X25417905Y-45578326D01*
X25406478Y-45582943D01*
X25229061Y-45675694D01*
X25218747Y-45682443D01*
X25062726Y-45807889D01*
X25053921Y-45816512D01*
X24925235Y-45969872D01*
X24918272Y-45980042D01*
X24821826Y-46155477D01*
X24816970Y-46166805D01*
X24756370Y-46357842D01*
X24753760Y-46370338D01*
X24736345Y-46536011D01*
X24736000Y-46542601D01*
X18264000Y-46542601D01*
X18264000Y-46539650D01*
X18263699Y-46533498D01*
X18249099Y-46384595D01*
X18246705Y-46372504D01*
X18235228Y-46334490D01*
X18389646Y-46359500D01*
X18407596Y-46359829D01*
X18641440Y-46330702D01*
X18658761Y-46325980D01*
X18875032Y-46232392D01*
X18890331Y-46222998D01*
X19071642Y-46072471D01*
X19083690Y-46059161D01*
X19215464Y-45863796D01*
X19223292Y-45847640D01*
X19295056Y-45622775D01*
X19298050Y-45604289D01*
X19301165Y-45349328D01*
X19298624Y-45330774D01*
X19232376Y-45104223D01*
X19224945Y-45087879D01*
X19148378Y-44968155D01*
X19180484Y-44920555D01*
X19188312Y-44904399D01*
X19260076Y-44679534D01*
X19263070Y-44661048D01*
X19266185Y-44406087D01*
X19263644Y-44387533D01*
X19197396Y-44160982D01*
X19189965Y-44144638D01*
X19141654Y-44069095D01*
X19252529Y-43984937D01*
X19262732Y-43975220D01*
X19318112Y-43909220D01*
X19376024Y-44002259D01*
X19387576Y-44016002D01*
X19563249Y-44173071D01*
X19578193Y-44183019D01*
X19790888Y-44284470D01*
X19808025Y-44289824D01*
X20040646Y-44327500D01*
X20058596Y-44327829D01*
X20292440Y-44298702D01*
X20309761Y-44293980D01*
X20415190Y-44248357D01*
X20490901Y-44284470D01*
X20508038Y-44289824D01*
X20740659Y-44327500D01*
X20758609Y-44327829D01*
X20992453Y-44298702D01*
X21009774Y-44293980D01*
X21226045Y-44200392D01*
X21241344Y-44190998D01*
X21386510Y-44070480D01*
X21568888Y-44157470D01*
X21586025Y-44162824D01*
X21818646Y-44200500D01*
X21836596Y-44200829D01*
X22070440Y-44171702D01*
X22087761Y-44166980D01*
X22304032Y-44073392D01*
X22319331Y-44063998D01*
X22436328Y-43966866D01*
X22514963Y-44093198D01*
X22526515Y-44106941D01*
X22702188Y-44264010D01*
X22717132Y-44273958D01*
X22929827Y-44375409D01*
X22946964Y-44380763D01*
X23179585Y-44418439D01*
X23197535Y-44418768D01*
X23431379Y-44389641D01*
X23448700Y-44384919D01*
X23664971Y-44291331D01*
X23680270Y-44281937D01*
X23861581Y-44131410D01*
X23873629Y-44118100D01*
X23889974Y-44093867D01*
X24056049Y-44177757D01*
X24069255Y-44182668D01*
X24258814Y-44229930D01*
X24272779Y-44231794D01*
X24468098Y-44235886D01*
X24482130Y-44234609D01*
X24673502Y-44195325D01*
X24686901Y-44190971D01*
X24864814Y-44110267D01*
X24876916Y-44103053D01*
X24964674Y-44036441D01*
X25043194Y-44132717D01*
X25051878Y-44141463D01*
X25206134Y-44269074D01*
X25216352Y-44275966D01*
X25392456Y-44371185D01*
X25403819Y-44375961D01*
X25589542Y-44433451D01*
X25692000Y-44357912D01*
X25692000Y-44357013D01*
X25947999Y-44357013D01*
X26049045Y-44432605D01*
X26222095Y-44381674D01*
X26233522Y-44377057D01*
X26410940Y-44284306D01*
X26421254Y-44277557D01*
X26577275Y-44152111D01*
X26586080Y-44143488D01*
X26714766Y-43990128D01*
X26721729Y-43979958D01*
X26818175Y-43804523D01*
X26823031Y-43793195D01*
X26883631Y-43602157D01*
X26886242Y-43589662D01*
X26903655Y-43423988D01*
X26904000Y-43417398D01*
X26904000Y-43021809D01*
X26830191Y-42948000D01*
X26021809Y-42947999D01*
X25948000Y-43021808D01*
X25947999Y-44357013D01*
X25692000Y-44357013D01*
X25692001Y-43021808D01*
X25692000Y-43021807D01*
X25692001Y-42692000D01*
X26830191Y-42692001D01*
X26904000Y-42618192D01*
X26904000Y-42397993D01*
X28322567Y-42397993D01*
X28324895Y-42415794D01*
X28388265Y-42642765D01*
X28395496Y-42659198D01*
X28520024Y-42859259D01*
X28531576Y-42873002D01*
X28707249Y-43030071D01*
X28722193Y-43040019D01*
X28933797Y-43140949D01*
X28912735Y-43173013D01*
X28905105Y-43189264D01*
X28836207Y-43414618D01*
X28833445Y-43432358D01*
X28830567Y-43667993D01*
X28832895Y-43685794D01*
X28896265Y-43912765D01*
X28903496Y-43929198D01*
X29028024Y-44129259D01*
X29036529Y-44139377D01*
X28926998Y-44232596D01*
X28915114Y-44246053D01*
X28785735Y-44443013D01*
X28778105Y-44459264D01*
X28709207Y-44684618D01*
X28706445Y-44702358D01*
X28703567Y-44937993D01*
X28705895Y-44955794D01*
X28769265Y-45182765D01*
X28776496Y-45199198D01*
X28901024Y-45399259D01*
X28912576Y-45413002D01*
X29088249Y-45570071D01*
X29103193Y-45580019D01*
X29315888Y-45681470D01*
X29333025Y-45686824D01*
X29565646Y-45724500D01*
X29583596Y-45724829D01*
X29817440Y-45695702D01*
X29834761Y-45690980D01*
X30051032Y-45597392D01*
X30066331Y-45587998D01*
X30247642Y-45437471D01*
X30259690Y-45424161D01*
X30391464Y-45228796D01*
X30399292Y-45212640D01*
X30471056Y-44987775D01*
X30474050Y-44969289D01*
X30477165Y-44714328D01*
X30474624Y-44695774D01*
X30408376Y-44469223D01*
X30400945Y-44452879D01*
X30273983Y-44254353D01*
X30272318Y-44252421D01*
X30374642Y-44167471D01*
X30386690Y-44154161D01*
X30518464Y-43958796D01*
X30526292Y-43942640D01*
X30596970Y-43721179D01*
X30712888Y-43776470D01*
X30730025Y-43781824D01*
X30962646Y-43819500D01*
X30980596Y-43819829D01*
X31214440Y-43790702D01*
X31231761Y-43785980D01*
X31448032Y-43692392D01*
X31463331Y-43682998D01*
X31644642Y-43532471D01*
X31656690Y-43519161D01*
X31788464Y-43323796D01*
X31796292Y-43307640D01*
X31868056Y-43082775D01*
X31871050Y-43064289D01*
X31874165Y-42809328D01*
X31871624Y-42790774D01*
X31867069Y-42775196D01*
X31900080Y-42790942D01*
X31917217Y-42796296D01*
X32149838Y-42833972D01*
X32167788Y-42834301D01*
X32401632Y-42805174D01*
X32418953Y-42800452D01*
X32635224Y-42706864D01*
X32650523Y-42697470D01*
X32831834Y-42546943D01*
X32843882Y-42533633D01*
X32975656Y-42338268D01*
X32983484Y-42322112D01*
X33055248Y-42097247D01*
X33058242Y-42078761D01*
X33061357Y-41823800D01*
X33058816Y-41805246D01*
X32992568Y-41578695D01*
X32985137Y-41562351D01*
X32858175Y-41363826D01*
X32846456Y-41350225D01*
X32668877Y-41195313D01*
X32653812Y-41185548D01*
X32439892Y-41086704D01*
X32422692Y-41081560D01*
X32189628Y-41046728D01*
X32171675Y-41046619D01*
X31938204Y-41078600D01*
X31920942Y-41083533D01*
X31705831Y-41179757D01*
X31690648Y-41189337D01*
X31511190Y-41342068D01*
X31499306Y-41355525D01*
X31369927Y-41552485D01*
X31362297Y-41568736D01*
X31293399Y-41794090D01*
X31290637Y-41811830D01*
X31287759Y-42047465D01*
X31290087Y-42065266D01*
X31297858Y-42093098D01*
X31252700Y-42072232D01*
X31235500Y-42067088D01*
X31002436Y-42032256D01*
X30984483Y-42032147D01*
X30751012Y-42064128D01*
X30733750Y-42069061D01*
X30518639Y-42165285D01*
X30503456Y-42174865D01*
X30323998Y-42327596D01*
X30312114Y-42341053D01*
X30182735Y-42538013D01*
X30175105Y-42554264D01*
X30110311Y-42766196D01*
X29994387Y-42712632D01*
X30010464Y-42688796D01*
X30018292Y-42672640D01*
X30090056Y-42447775D01*
X30093050Y-42429289D01*
X30096165Y-42174328D01*
X30093624Y-42155774D01*
X30052478Y-42015064D01*
X30071440Y-42012702D01*
X30088761Y-42007980D01*
X30305032Y-41914392D01*
X30320331Y-41904998D01*
X30501642Y-41754471D01*
X30513690Y-41741161D01*
X30645464Y-41545796D01*
X30653292Y-41529640D01*
X30725056Y-41304775D01*
X30728050Y-41286289D01*
X30731165Y-41031328D01*
X30728624Y-41012774D01*
X30662376Y-40786223D01*
X30654945Y-40769879D01*
X30527983Y-40571354D01*
X30516264Y-40557753D01*
X30338685Y-40402841D01*
X30323620Y-40393076D01*
X30109700Y-40294232D01*
X30092500Y-40289088D01*
X29859436Y-40254256D01*
X29841483Y-40254147D01*
X29608012Y-40286128D01*
X29590750Y-40291061D01*
X29375639Y-40387285D01*
X29360456Y-40396865D01*
X29180998Y-40549596D01*
X29169114Y-40563053D01*
X29039735Y-40760013D01*
X29032105Y-40776264D01*
X28963207Y-41001618D01*
X28960445Y-41019358D01*
X28957567Y-41254993D01*
X28959895Y-41272794D01*
X29002419Y-41425100D01*
X28973012Y-41429128D01*
X28955750Y-41434061D01*
X28740639Y-41530285D01*
X28725456Y-41539865D01*
X28545998Y-41692596D01*
X28534114Y-41706053D01*
X28404735Y-41903013D01*
X28397105Y-41919264D01*
X28328207Y-42144618D01*
X28325445Y-42162358D01*
X28322567Y-42397993D01*
X26904000Y-42397993D01*
X26904000Y-42219649D01*
X26903699Y-42213497D01*
X26889099Y-42064595D01*
X26886705Y-42052504D01*
X26843934Y-41910840D01*
X26853470Y-41904985D01*
X27034781Y-41754458D01*
X27046829Y-41741148D01*
X27178603Y-41545783D01*
X27186431Y-41529627D01*
X27258195Y-41304762D01*
X27261189Y-41286276D01*
X27264304Y-41031315D01*
X27261763Y-41012761D01*
X27195515Y-40786210D01*
X27188084Y-40769866D01*
X27061122Y-40571341D01*
X27049403Y-40557740D01*
X26871824Y-40402828D01*
X26856759Y-40393063D01*
X26642839Y-40294219D01*
X26625639Y-40289075D01*
X26392575Y-40254243D01*
X26374622Y-40254134D01*
X26141151Y-40286115D01*
X26123889Y-40291048D01*
X25908778Y-40387272D01*
X25893595Y-40396852D01*
X25714137Y-40549583D01*
X25702253Y-40563040D01*
X25572874Y-40760000D01*
X25565244Y-40776251D01*
X25496346Y-41001605D01*
X25493584Y-41019345D01*
X25490928Y-41236835D01*
X25417906Y-41258326D01*
X25406478Y-41262943D01*
X25229061Y-41355694D01*
X25218747Y-41362443D01*
X25062726Y-41487889D01*
X25053921Y-41496512D01*
X24925235Y-41649872D01*
X24918272Y-41660042D01*
X24821826Y-41835477D01*
X24816970Y-41846805D01*
X24756370Y-42037843D01*
X24753759Y-42050338D01*
X24736346Y-42216012D01*
X24736001Y-42222602D01*
X24736001Y-42429536D01*
X24711663Y-42417666D01*
X24698391Y-42412940D01*
X24508190Y-42368328D01*
X24494200Y-42366660D01*
X24298843Y-42365296D01*
X24284831Y-42366769D01*
X24094025Y-42408720D01*
X24080688Y-42413260D01*
X23903919Y-42496442D01*
X23891919Y-42503825D01*
X23737971Y-42624102D01*
X23727904Y-42633959D01*
X23635174Y-42747658D01*
X23469639Y-42671171D01*
X23452439Y-42666027D01*
X23219375Y-42631195D01*
X23201422Y-42631086D01*
X22967951Y-42663067D01*
X22950689Y-42668000D01*
X22735578Y-42764224D01*
X22720395Y-42773804D01*
X22613145Y-42865081D01*
X22526983Y-42730354D01*
X22515264Y-42716753D01*
X22337685Y-42561841D01*
X22322620Y-42552076D01*
X22108700Y-42453232D01*
X22091500Y-42448088D01*
X21858436Y-42413256D01*
X21840483Y-42413147D01*
X21607012Y-42445128D01*
X21589750Y-42450061D01*
X21374639Y-42546285D01*
X21359456Y-42555865D01*
X21225222Y-42670107D01*
X21030713Y-42580232D01*
X21013513Y-42575088D01*
X20780449Y-42540256D01*
X20762496Y-42540147D01*
X20529025Y-42572128D01*
X20511764Y-42577061D01*
X20416278Y-42619774D01*
X20330700Y-42580232D01*
X20313500Y-42575088D01*
X20080436Y-42540256D01*
X20062483Y-42540147D01*
X19829012Y-42572128D01*
X19811750Y-42577061D01*
X19596639Y-42673285D01*
X19581456Y-42682865D01*
X19417068Y-42822770D01*
X19410145Y-42808320D01*
X19402679Y-42796372D01*
X19281330Y-42643268D01*
X19271402Y-42633270D01*
X19119149Y-42510856D01*
X19107253Y-42503307D01*
X18931663Y-42417666D01*
X18918391Y-42412940D01*
X18728190Y-42368328D01*
X18714200Y-42366660D01*
X18518843Y-42365296D01*
X18504831Y-42366769D01*
X18314025Y-42408720D01*
X18300688Y-42413260D01*
X18264000Y-42430524D01*
X18264000Y-42219649D01*
X18263699Y-42213497D01*
X18249099Y-42064595D01*
X18246705Y-42052504D01*
X18188841Y-41860850D01*
X18184144Y-41849456D01*
X18090157Y-41672692D01*
X18083337Y-41662426D01*
X17956806Y-41507283D01*
X17948122Y-41498537D01*
X17793866Y-41370926D01*
X17783648Y-41364034D01*
X17607544Y-41268815D01*
X17596181Y-41264039D01*
X17410458Y-41206549D01*
X17308000Y-41282088D01*
X17307999Y-42618192D01*
X17052000Y-42618192D01*
X17052001Y-41282987D01*
X16950955Y-41207395D01*
X16777905Y-41258326D01*
X16766478Y-41262943D01*
X16589061Y-41355694D01*
X16578747Y-41362443D01*
X16422726Y-41487889D01*
X16413921Y-41496512D01*
X16285235Y-41649872D01*
X16278272Y-41660042D01*
X16181826Y-41835477D01*
X16176970Y-41846805D01*
X16116370Y-42037843D01*
X16113759Y-42050338D01*
X16096346Y-42216012D01*
X16096001Y-42222602D01*
X12634000Y-42222602D01*
X12634000Y-35412993D01*
X14479567Y-35412993D01*
X14481895Y-35430794D01*
X14545265Y-35657765D01*
X14552496Y-35674198D01*
X14677024Y-35874259D01*
X14688576Y-35888002D01*
X14864249Y-36045071D01*
X14879193Y-36055019D01*
X15091888Y-36156470D01*
X15109025Y-36161824D01*
X15341646Y-36199500D01*
X15359596Y-36199829D01*
X15593440Y-36170702D01*
X15610761Y-36165980D01*
X15827032Y-36072392D01*
X15842331Y-36062998D01*
X16023642Y-35912471D01*
X16035690Y-35899161D01*
X16167464Y-35703796D01*
X16175292Y-35687640D01*
X16219772Y-35548265D01*
X16310024Y-35693259D01*
X16321576Y-35707002D01*
X16497249Y-35864071D01*
X16512193Y-35874019D01*
X16724888Y-35975470D01*
X16742025Y-35980824D01*
X16974646Y-36018500D01*
X16992596Y-36018829D01*
X17226440Y-35989702D01*
X17243761Y-35984980D01*
X17460032Y-35891392D01*
X17475331Y-35881998D01*
X17656642Y-35731471D01*
X17668690Y-35718161D01*
X17800464Y-35522796D01*
X17808292Y-35506640D01*
X17880056Y-35281775D01*
X17883050Y-35263289D01*
X17886165Y-35008328D01*
X17883624Y-34989774D01*
X17817376Y-34763223D01*
X17809945Y-34746879D01*
X17682983Y-34548354D01*
X17671264Y-34534753D01*
X17580861Y-34455890D01*
X17741450Y-34435887D01*
X17758771Y-34431165D01*
X17975042Y-34337577D01*
X17990341Y-34328183D01*
X18171652Y-34177656D01*
X18183700Y-34164346D01*
X18280502Y-34020831D01*
X18310024Y-34068259D01*
X18321576Y-34082002D01*
X18451814Y-34198447D01*
X18421963Y-34211800D01*
X18406780Y-34221380D01*
X18227322Y-34374111D01*
X18215438Y-34387568D01*
X18086059Y-34584528D01*
X18078429Y-34600779D01*
X18009531Y-34826133D01*
X18006769Y-34843873D01*
X18003891Y-35079508D01*
X18006219Y-35097309D01*
X18069589Y-35324280D01*
X18076820Y-35340713D01*
X18201348Y-35540774D01*
X18212900Y-35554517D01*
X18388573Y-35711586D01*
X18403517Y-35721534D01*
X18616212Y-35822985D01*
X18633349Y-35828339D01*
X18865970Y-35866015D01*
X18883920Y-35866344D01*
X19117764Y-35837217D01*
X19135085Y-35832495D01*
X19351356Y-35738907D01*
X19366655Y-35729513D01*
X19547966Y-35578986D01*
X19552621Y-35573844D01*
X19532811Y-35638638D01*
X19530049Y-35656378D01*
X19527171Y-35892013D01*
X19529499Y-35909814D01*
X19592869Y-36136785D01*
X19600100Y-36153218D01*
X19724628Y-36353279D01*
X19736180Y-36367022D01*
X19911853Y-36524091D01*
X19926797Y-36534039D01*
X20139492Y-36635490D01*
X20156629Y-36640844D01*
X20389250Y-36678520D01*
X20407200Y-36678849D01*
X20459441Y-36672342D01*
X20365690Y-36714279D01*
X20350507Y-36723859D01*
X20171049Y-36876590D01*
X20159165Y-36890047D01*
X20072470Y-37022027D01*
X19986983Y-36888354D01*
X19975264Y-36874753D01*
X19797685Y-36719841D01*
X19782620Y-36710076D01*
X19568700Y-36611232D01*
X19551500Y-36606088D01*
X19318436Y-36571256D01*
X19300483Y-36571147D01*
X19067012Y-36603128D01*
X19049750Y-36608061D01*
X18834639Y-36704285D01*
X18819456Y-36713865D01*
X18732585Y-36787798D01*
X18654685Y-36719841D01*
X18639620Y-36710076D01*
X18425700Y-36611232D01*
X18408500Y-36606088D01*
X18175436Y-36571256D01*
X18157483Y-36571147D01*
X17924012Y-36603128D01*
X17906750Y-36608061D01*
X17691639Y-36704285D01*
X17676456Y-36713865D01*
X17496998Y-36866596D01*
X17485114Y-36880053D01*
X17355735Y-37077013D01*
X17348105Y-37093264D01*
X17279207Y-37318618D01*
X17276445Y-37336358D01*
X17273567Y-37571993D01*
X17275895Y-37589794D01*
X17339265Y-37816765D01*
X17346496Y-37833198D01*
X17471024Y-38033259D01*
X17482576Y-38047002D01*
X17658249Y-38204071D01*
X17673193Y-38214019D01*
X17885888Y-38315470D01*
X17903025Y-38320824D01*
X18135646Y-38358500D01*
X18153596Y-38358829D01*
X18387440Y-38329702D01*
X18404761Y-38324980D01*
X18621032Y-38231392D01*
X18636331Y-38221998D01*
X18732242Y-38142372D01*
X18801249Y-38204071D01*
X18816193Y-38214019D01*
X18845758Y-38228121D01*
X18766090Y-38239034D01*
X18748828Y-38243967D01*
X18533717Y-38340191D01*
X18518534Y-38349771D01*
X18339076Y-38502502D01*
X18327192Y-38515959D01*
X18197813Y-38712919D01*
X18190183Y-38729170D01*
X18121285Y-38954524D01*
X18118523Y-38972264D01*
X18115645Y-39207899D01*
X18117973Y-39225700D01*
X18181343Y-39452671D01*
X18188574Y-39469104D01*
X18313102Y-39669165D01*
X18324654Y-39682908D01*
X18500327Y-39839977D01*
X18515271Y-39849925D01*
X18727966Y-39951376D01*
X18745103Y-39956730D01*
X18977724Y-39994406D01*
X18995674Y-39994735D01*
X19229518Y-39965608D01*
X19246839Y-39960886D01*
X19367820Y-39908533D01*
X19396092Y-40009795D01*
X19403323Y-40026228D01*
X19527851Y-40226289D01*
X19539403Y-40240032D01*
X19715076Y-40397101D01*
X19730020Y-40407049D01*
X19942715Y-40508500D01*
X19959852Y-40513854D01*
X20192473Y-40551530D01*
X20210423Y-40551859D01*
X20444267Y-40522732D01*
X20461588Y-40518010D01*
X20519399Y-40492993D01*
X21718567Y-40492993D01*
X21720895Y-40510794D01*
X21784265Y-40737765D01*
X21791496Y-40754198D01*
X21916024Y-40954259D01*
X21927576Y-40968002D01*
X22103249Y-41125071D01*
X22118193Y-41135019D01*
X22330888Y-41236470D01*
X22348025Y-41241824D01*
X22580646Y-41279500D01*
X22598596Y-41279829D01*
X22832440Y-41250702D01*
X22849761Y-41245980D01*
X23066032Y-41152392D01*
X23081331Y-41142998D01*
X23262642Y-40992471D01*
X23274690Y-40979161D01*
X23406464Y-40783796D01*
X23414292Y-40767640D01*
X23486056Y-40542775D01*
X23489050Y-40524289D01*
X23492165Y-40269328D01*
X23489624Y-40250774D01*
X23423376Y-40024223D01*
X23415945Y-40007879D01*
X23288983Y-39809354D01*
X23277264Y-39795753D01*
X23099685Y-39640841D01*
X23084620Y-39631076D01*
X22870700Y-39532232D01*
X22853500Y-39527088D01*
X22620436Y-39492256D01*
X22602483Y-39492147D01*
X22369012Y-39524128D01*
X22351750Y-39529061D01*
X22136639Y-39625285D01*
X22121456Y-39634865D01*
X21941998Y-39787596D01*
X21930114Y-39801053D01*
X21800735Y-39998013D01*
X21793105Y-40014264D01*
X21724207Y-40239618D01*
X21721445Y-40257358D01*
X21718567Y-40492993D01*
X20519399Y-40492993D01*
X20677859Y-40424422D01*
X20693158Y-40415028D01*
X20874469Y-40264501D01*
X20886517Y-40251191D01*
X21018291Y-40055826D01*
X21026119Y-40039670D01*
X21097883Y-39814805D01*
X21100877Y-39796319D01*
X21103992Y-39541358D01*
X21101451Y-39522804D01*
X21035203Y-39296253D01*
X21027772Y-39279909D01*
X20900810Y-39081384D01*
X20889091Y-39067783D01*
X20711512Y-38912871D01*
X20696447Y-38903106D01*
X20482527Y-38804262D01*
X20465327Y-38799118D01*
X20232263Y-38764286D01*
X20214310Y-38764177D01*
X19980839Y-38796158D01*
X19963577Y-38801091D01*
X19853033Y-38850540D01*
X19820454Y-38739129D01*
X19813023Y-38722785D01*
X19686061Y-38524260D01*
X19674342Y-38510659D01*
X19496763Y-38355747D01*
X19481698Y-38345982D01*
X19464295Y-38337941D01*
X19530440Y-38329702D01*
X19547761Y-38324980D01*
X19764032Y-38231392D01*
X19779331Y-38221998D01*
X19960642Y-38071471D01*
X19972690Y-38058161D01*
X20067168Y-37918091D01*
X20145075Y-38043253D01*
X20156627Y-38056996D01*
X20332300Y-38214065D01*
X20347244Y-38224013D01*
X20559939Y-38325464D01*
X20577076Y-38330818D01*
X20809697Y-38368494D01*
X20827647Y-38368823D01*
X21061491Y-38339696D01*
X21078812Y-38334974D01*
X21295083Y-38241386D01*
X21310382Y-38231992D01*
X21378549Y-38175398D01*
X29682265Y-38175398D01*
X29684593Y-38193199D01*
X29747963Y-38420170D01*
X29755194Y-38436603D01*
X29879722Y-38636664D01*
X29891274Y-38650407D01*
X30066947Y-38807476D01*
X30081891Y-38817424D01*
X30294586Y-38918875D01*
X30311723Y-38924229D01*
X30544344Y-38961905D01*
X30562294Y-38962234D01*
X30796138Y-38933107D01*
X30813459Y-38928385D01*
X30834848Y-38919129D01*
X30859636Y-38958953D01*
X30871188Y-38972696D01*
X31046861Y-39129765D01*
X31061805Y-39139713D01*
X31274500Y-39241164D01*
X31291637Y-39246518D01*
X31524258Y-39284194D01*
X31542208Y-39284523D01*
X31776052Y-39255396D01*
X31793373Y-39250674D01*
X32009644Y-39157086D01*
X32024943Y-39147692D01*
X32206254Y-38997165D01*
X32218303Y-38983854D01*
X32219644Y-38981866D01*
X32357440Y-38964702D01*
X32374761Y-38959980D01*
X32591032Y-38866392D01*
X32606331Y-38856998D01*
X32787642Y-38706471D01*
X32799690Y-38693161D01*
X32931464Y-38497796D01*
X32939292Y-38481640D01*
X33011056Y-38256775D01*
X33014050Y-38238289D01*
X33017165Y-37983328D01*
X33014624Y-37964774D01*
X32948376Y-37738223D01*
X32940945Y-37721879D01*
X32813983Y-37523354D01*
X32802264Y-37509753D01*
X32624685Y-37354841D01*
X32609620Y-37345076D01*
X32395700Y-37246232D01*
X32378500Y-37241088D01*
X32145436Y-37206256D01*
X32127483Y-37206147D01*
X31894012Y-37238128D01*
X31876750Y-37243061D01*
X31661639Y-37339285D01*
X31646456Y-37348865D01*
X31466998Y-37501596D01*
X31460890Y-37508512D01*
X31312624Y-37528822D01*
X31295363Y-37533755D01*
X31283059Y-37539259D01*
X31252681Y-37491759D01*
X31240962Y-37478158D01*
X31063383Y-37323246D01*
X31048318Y-37313481D01*
X30834398Y-37214637D01*
X30817198Y-37209493D01*
X30584134Y-37174661D01*
X30566181Y-37174552D01*
X30332710Y-37206533D01*
X30315448Y-37211466D01*
X30100337Y-37307690D01*
X30085154Y-37317270D01*
X29905696Y-37470001D01*
X29893812Y-37483458D01*
X29764433Y-37680418D01*
X29756803Y-37696669D01*
X29687905Y-37922023D01*
X29685143Y-37939763D01*
X29682265Y-38175398D01*
X21378549Y-38175398D01*
X21491693Y-38081465D01*
X21503741Y-38068155D01*
X21635515Y-37872790D01*
X21643343Y-37856634D01*
X21715107Y-37631769D01*
X21718101Y-37613283D01*
X21721216Y-37358322D01*
X21718675Y-37339768D01*
X21652427Y-37113217D01*
X21644996Y-37096873D01*
X21623969Y-37063993D01*
X21845567Y-37063993D01*
X21847895Y-37081794D01*
X21911265Y-37308765D01*
X21918496Y-37325198D01*
X22043024Y-37525259D01*
X22054576Y-37539002D01*
X22230249Y-37696071D01*
X22245193Y-37706019D01*
X22457888Y-37807470D01*
X22475025Y-37812824D01*
X22707646Y-37850500D01*
X22725596Y-37850829D01*
X22959440Y-37821702D01*
X22976761Y-37816980D01*
X23193032Y-37723392D01*
X23208331Y-37713998D01*
X23389642Y-37563471D01*
X23401690Y-37550161D01*
X23533464Y-37354796D01*
X23541292Y-37338640D01*
X23613056Y-37113775D01*
X23616050Y-37095289D01*
X23619165Y-36840328D01*
X23616624Y-36821774D01*
X23550376Y-36595223D01*
X23542945Y-36578879D01*
X23415983Y-36380354D01*
X23404264Y-36366753D01*
X23226685Y-36211841D01*
X23211620Y-36202076D01*
X22997700Y-36103232D01*
X22980500Y-36098088D01*
X22747436Y-36063256D01*
X22729483Y-36063147D01*
X22496012Y-36095128D01*
X22478750Y-36100061D01*
X22263639Y-36196285D01*
X22248456Y-36205865D01*
X22068998Y-36358596D01*
X22057114Y-36372053D01*
X21927735Y-36569013D01*
X21920105Y-36585264D01*
X21851207Y-36810618D01*
X21848445Y-36828358D01*
X21845567Y-37063993D01*
X21623969Y-37063993D01*
X21518034Y-36898348D01*
X21506315Y-36884747D01*
X21328736Y-36729835D01*
X21313671Y-36720070D01*
X21099751Y-36621226D01*
X21082551Y-36616082D01*
X20849487Y-36581250D01*
X20831534Y-36581141D01*
X20794080Y-36586272D01*
X20874636Y-36551412D01*
X20889935Y-36542018D01*
X21071246Y-36391491D01*
X21083294Y-36378181D01*
X21215068Y-36182816D01*
X21222896Y-36166660D01*
X21288604Y-35960768D01*
X23837792Y-35960768D01*
X23840120Y-35978569D01*
X23903490Y-36205540D01*
X23910721Y-36221973D01*
X24035249Y-36422034D01*
X24046801Y-36435777D01*
X24222474Y-36592846D01*
X24237418Y-36602794D01*
X24450113Y-36704245D01*
X24467250Y-36709599D01*
X24699871Y-36747275D01*
X24717821Y-36747604D01*
X24951665Y-36718477D01*
X24968986Y-36713755D01*
X25185257Y-36620167D01*
X25200556Y-36610773D01*
X25381867Y-36460246D01*
X25393915Y-36446936D01*
X25525689Y-36251571D01*
X25533517Y-36235415D01*
X25560218Y-36151752D01*
X25570017Y-36154814D01*
X25802638Y-36192490D01*
X25820588Y-36192819D01*
X26054432Y-36163692D01*
X26071753Y-36158970D01*
X26288024Y-36065382D01*
X26303323Y-36055988D01*
X26484634Y-35905461D01*
X26496682Y-35892151D01*
X26628456Y-35696786D01*
X26636284Y-35680630D01*
X26708048Y-35455765D01*
X26711042Y-35437279D01*
X26714157Y-35182318D01*
X26711616Y-35163764D01*
X26645368Y-34937213D01*
X26637937Y-34920869D01*
X26601475Y-34863855D01*
X26648888Y-34886470D01*
X26666025Y-34891824D01*
X26898646Y-34929500D01*
X26916596Y-34929829D01*
X27150440Y-34900702D01*
X27167761Y-34895980D01*
X27384032Y-34802392D01*
X27399331Y-34792998D01*
X27580642Y-34642471D01*
X27592690Y-34629161D01*
X27724464Y-34433796D01*
X27732292Y-34417640D01*
X27804056Y-34192775D01*
X27807050Y-34174289D01*
X27810165Y-33919328D01*
X27807624Y-33900774D01*
X27741376Y-33674223D01*
X27733945Y-33657879D01*
X27606983Y-33459354D01*
X27595264Y-33445753D01*
X27417685Y-33290841D01*
X27402620Y-33281076D01*
X27188700Y-33182232D01*
X27171500Y-33177088D01*
X26938436Y-33142256D01*
X26920483Y-33142147D01*
X26687012Y-33174128D01*
X26669750Y-33179061D01*
X26454639Y-33275285D01*
X26439456Y-33284865D01*
X26259998Y-33437596D01*
X26248114Y-33451053D01*
X26118735Y-33648013D01*
X26111105Y-33664264D01*
X26042207Y-33889618D01*
X26039445Y-33907358D01*
X26036567Y-34142993D01*
X26038895Y-34160794D01*
X26102265Y-34387765D01*
X26109496Y-34404198D01*
X26152125Y-34472684D01*
X26092692Y-34445222D01*
X26075492Y-34440078D01*
X25842428Y-34405246D01*
X25824475Y-34405137D01*
X25591004Y-34437118D01*
X25573742Y-34442051D01*
X25358631Y-34538275D01*
X25343448Y-34547855D01*
X25163990Y-34700586D01*
X25152106Y-34714043D01*
X25022727Y-34911003D01*
X25015097Y-34927254D01*
X24992492Y-35001193D01*
X24989925Y-35000007D01*
X24972725Y-34994863D01*
X24739661Y-34960031D01*
X24721708Y-34959922D01*
X24488237Y-34991903D01*
X24470975Y-34996836D01*
X24255864Y-35093060D01*
X24240681Y-35102640D01*
X24061223Y-35255371D01*
X24049339Y-35268828D01*
X23919960Y-35465788D01*
X23912330Y-35482039D01*
X23843432Y-35707393D01*
X23840670Y-35725133D01*
X23837792Y-35960768D01*
X21288604Y-35960768D01*
X21294660Y-35941795D01*
X21297654Y-35923309D01*
X21300769Y-35668348D01*
X21298228Y-35649794D01*
X21231980Y-35423243D01*
X21224549Y-35406899D01*
X21097587Y-35208374D01*
X21085868Y-35194773D01*
X20908289Y-35039861D01*
X20893224Y-35030096D01*
X20679304Y-34931252D01*
X20662104Y-34926108D01*
X20429040Y-34891276D01*
X20411087Y-34891167D01*
X20177616Y-34923148D01*
X20160354Y-34928081D01*
X19945243Y-35024305D01*
X19930060Y-35033885D01*
X19754011Y-35183715D01*
X19771380Y-35129290D01*
X19774374Y-35110804D01*
X19777489Y-34855843D01*
X19774948Y-34837289D01*
X19708700Y-34610738D01*
X19701269Y-34594394D01*
X19574307Y-34395869D01*
X19562588Y-34382268D01*
X19439795Y-34275149D01*
X19460032Y-34266392D01*
X19475331Y-34256998D01*
X19656642Y-34106471D01*
X19668690Y-34093161D01*
X19800464Y-33897796D01*
X19808292Y-33881640D01*
X19880056Y-33656775D01*
X19883050Y-33638289D01*
X19886165Y-33383328D01*
X19883624Y-33364774D01*
X19817376Y-33138223D01*
X19809945Y-33121879D01*
X19682983Y-32923354D01*
X19671264Y-32909753D01*
X19645174Y-32886993D01*
X19940567Y-32886993D01*
X19942895Y-32904794D01*
X20006265Y-33131765D01*
X20013496Y-33148198D01*
X20138024Y-33348259D01*
X20149576Y-33362002D01*
X20325249Y-33519071D01*
X20340193Y-33529019D01*
X20552888Y-33630470D01*
X20570025Y-33635824D01*
X20802646Y-33673500D01*
X20820596Y-33673829D01*
X21054440Y-33644702D01*
X21071761Y-33639980D01*
X21288032Y-33546392D01*
X21303331Y-33536998D01*
X21484642Y-33386471D01*
X21496690Y-33373161D01*
X21610532Y-33204382D01*
X21657265Y-33371765D01*
X21664496Y-33388198D01*
X21789024Y-33588259D01*
X21800576Y-33602002D01*
X21976249Y-33759071D01*
X21991193Y-33769019D01*
X22203888Y-33870470D01*
X22221025Y-33875824D01*
X22453646Y-33913500D01*
X22471596Y-33913829D01*
X22471637Y-33913824D01*
X22277198Y-34000801D01*
X22262015Y-34010381D01*
X22082557Y-34163112D01*
X22070673Y-34176569D01*
X21941294Y-34373529D01*
X21933664Y-34389780D01*
X21864766Y-34615134D01*
X21862004Y-34632874D01*
X21859126Y-34868509D01*
X21861454Y-34886310D01*
X21924824Y-35113281D01*
X21932055Y-35129714D01*
X22056583Y-35329775D01*
X22068135Y-35343518D01*
X22243808Y-35500587D01*
X22258752Y-35510535D01*
X22471447Y-35611986D01*
X22488584Y-35617340D01*
X22721205Y-35655016D01*
X22739155Y-35655345D01*
X22972999Y-35626218D01*
X22990320Y-35621496D01*
X23206591Y-35527908D01*
X23221890Y-35518514D01*
X23403201Y-35367987D01*
X23415249Y-35354677D01*
X23547023Y-35159312D01*
X23554851Y-35143156D01*
X23626615Y-34918291D01*
X23629609Y-34899805D01*
X23632724Y-34644844D01*
X23630183Y-34626290D01*
X23563935Y-34399739D01*
X23556504Y-34383395D01*
X23470328Y-34248646D01*
X23578877Y-34345699D01*
X23593821Y-34355647D01*
X23806516Y-34457098D01*
X23823653Y-34462452D01*
X24056274Y-34500128D01*
X24074224Y-34500457D01*
X24308068Y-34471330D01*
X24325389Y-34466608D01*
X24541660Y-34373020D01*
X24556959Y-34363626D01*
X24738270Y-34213099D01*
X24750318Y-34199789D01*
X24882092Y-34004424D01*
X24889920Y-33988268D01*
X24961684Y-33763403D01*
X24964678Y-33744917D01*
X24967793Y-33489956D01*
X24965252Y-33471402D01*
X24899004Y-33244851D01*
X24891573Y-33228507D01*
X24764611Y-33029982D01*
X24752892Y-33016381D01*
X24575313Y-32861469D01*
X24560248Y-32851704D01*
X24346328Y-32752860D01*
X24329128Y-32747716D01*
X24096064Y-32712884D01*
X24078112Y-32712774D01*
X24062236Y-32714949D01*
X24050983Y-32697353D01*
X24039264Y-32683753D01*
X24033100Y-32678376D01*
X24263784Y-32715738D01*
X24281734Y-32716067D01*
X24515578Y-32686940D01*
X24532899Y-32682218D01*
X24749170Y-32588630D01*
X24764469Y-32579236D01*
X24945780Y-32428709D01*
X24957828Y-32415399D01*
X25089602Y-32220034D01*
X25097430Y-32203878D01*
X25169194Y-31979013D01*
X25169226Y-31978810D01*
X25282000Y-31978810D01*
X25284328Y-31996611D01*
X25347698Y-32223582D01*
X25354929Y-32240015D01*
X25479457Y-32440076D01*
X25491009Y-32453819D01*
X25666682Y-32610888D01*
X25681626Y-32620836D01*
X25894321Y-32722287D01*
X25911458Y-32727641D01*
X26144079Y-32765317D01*
X26162029Y-32765646D01*
X26395873Y-32736519D01*
X26413194Y-32731797D01*
X26629465Y-32638209D01*
X26644764Y-32628815D01*
X26826075Y-32478288D01*
X26838123Y-32464978D01*
X26969897Y-32269613D01*
X26977725Y-32253457D01*
X27049489Y-32028592D01*
X27052483Y-32010106D01*
X27055598Y-31755145D01*
X27053057Y-31736591D01*
X26986809Y-31510040D01*
X26979378Y-31493696D01*
X26852416Y-31295171D01*
X26840697Y-31281570D01*
X26663118Y-31126658D01*
X26648053Y-31116893D01*
X26434133Y-31018049D01*
X26416933Y-31012905D01*
X26183869Y-30978073D01*
X26165916Y-30977964D01*
X25932445Y-31009945D01*
X25915183Y-31014878D01*
X25700072Y-31111102D01*
X25684889Y-31120682D01*
X25505431Y-31273413D01*
X25493547Y-31286870D01*
X25364168Y-31483830D01*
X25356538Y-31500081D01*
X25287640Y-31725435D01*
X25284878Y-31743175D01*
X25282000Y-31978810D01*
X25169226Y-31978810D01*
X25172188Y-31960527D01*
X25175303Y-31705566D01*
X25172762Y-31687012D01*
X25106514Y-31460461D01*
X25099083Y-31444117D01*
X24972121Y-31245592D01*
X24960402Y-31231991D01*
X24782823Y-31077079D01*
X24767758Y-31067314D01*
X24553838Y-30968470D01*
X24536638Y-30963326D01*
X24303574Y-30928494D01*
X24285621Y-30928385D01*
X24052150Y-30960366D01*
X24034888Y-30965299D01*
X23819777Y-31061523D01*
X23804594Y-31071103D01*
X23625136Y-31223834D01*
X23613252Y-31237291D01*
X23483873Y-31434251D01*
X23476243Y-31450502D01*
X23426822Y-31612149D01*
X23251700Y-31531232D01*
X23234500Y-31526088D01*
X23001436Y-31491256D01*
X22983483Y-31491147D01*
X22750012Y-31523128D01*
X22732750Y-31528061D01*
X22517639Y-31624285D01*
X22502456Y-31633865D01*
X22322998Y-31786596D01*
X22311114Y-31800053D01*
X22181735Y-31997013D01*
X22174105Y-32013264D01*
X22113028Y-32213037D01*
X22009639Y-32259285D01*
X21994456Y-32268865D01*
X21814998Y-32421596D01*
X21803114Y-32435053D01*
X21697371Y-32596031D01*
X21645376Y-32418223D01*
X21637945Y-32401879D01*
X21510983Y-32203354D01*
X21499264Y-32189753D01*
X21321685Y-32034841D01*
X21306620Y-32025076D01*
X21092700Y-31926232D01*
X21075500Y-31921088D01*
X20842436Y-31886256D01*
X20824483Y-31886147D01*
X20591012Y-31918128D01*
X20573750Y-31923061D01*
X20358639Y-32019285D01*
X20343456Y-32028865D01*
X20163998Y-32181596D01*
X20152114Y-32195053D01*
X20022735Y-32392013D01*
X20015105Y-32408264D01*
X19946207Y-32633618D01*
X19943445Y-32651358D01*
X19940567Y-32886993D01*
X19645174Y-32886993D01*
X19493685Y-32754841D01*
X19478620Y-32745076D01*
X19264700Y-32646232D01*
X19247500Y-32641088D01*
X19014436Y-32606256D01*
X18996483Y-32606147D01*
X18763012Y-32638128D01*
X18745750Y-32643061D01*
X18530639Y-32739285D01*
X18515456Y-32748865D01*
X18335998Y-32901596D01*
X18324114Y-32915053D01*
X18234452Y-33051549D01*
X18197993Y-32994539D01*
X18186274Y-32980938D01*
X18008695Y-32826026D01*
X17993630Y-32816261D01*
X17779710Y-32717417D01*
X17762510Y-32712273D01*
X17529446Y-32677441D01*
X17511493Y-32677332D01*
X17278022Y-32709313D01*
X17260760Y-32714246D01*
X17045649Y-32810470D01*
X17030466Y-32820050D01*
X16851008Y-32972781D01*
X16839124Y-32986238D01*
X16709745Y-33183198D01*
X16702115Y-33199449D01*
X16633217Y-33424803D01*
X16630455Y-33442543D01*
X16627577Y-33678178D01*
X16629905Y-33695979D01*
X16693275Y-33922950D01*
X16700506Y-33939383D01*
X16825034Y-34139444D01*
X16836586Y-34153187D01*
X16933439Y-34239783D01*
X16763012Y-34263128D01*
X16745750Y-34268061D01*
X16530639Y-34364285D01*
X16515456Y-34373865D01*
X16335998Y-34526596D01*
X16324114Y-34540053D01*
X16194735Y-34737013D01*
X16187105Y-34753264D01*
X16147700Y-34882150D01*
X16049983Y-34729354D01*
X16038264Y-34715753D01*
X15860685Y-34560841D01*
X15845620Y-34551076D01*
X15631700Y-34452232D01*
X15614500Y-34447088D01*
X15381436Y-34412256D01*
X15363483Y-34412147D01*
X15130012Y-34444128D01*
X15112750Y-34449061D01*
X14897639Y-34545285D01*
X14882456Y-34554865D01*
X14702998Y-34707596D01*
X14691114Y-34721053D01*
X14561735Y-34918013D01*
X14554105Y-34934264D01*
X14485207Y-35159618D01*
X14482445Y-35177358D01*
X14479567Y-35412993D01*
X12634000Y-35412993D01*
X12634000Y-31983993D01*
X14479567Y-31983993D01*
X14481895Y-32001794D01*
X14545265Y-32228765D01*
X14552496Y-32245198D01*
X14677024Y-32445259D01*
X14688576Y-32459002D01*
X14864249Y-32616071D01*
X14879193Y-32626019D01*
X15091888Y-32727470D01*
X15109025Y-32732824D01*
X15341646Y-32770500D01*
X15359596Y-32770829D01*
X15593440Y-32741702D01*
X15610761Y-32736980D01*
X15827032Y-32643392D01*
X15842331Y-32633998D01*
X16023642Y-32483471D01*
X16035690Y-32470161D01*
X16167464Y-32274796D01*
X16175292Y-32258640D01*
X16247056Y-32033775D01*
X16250050Y-32015289D01*
X16253165Y-31760328D01*
X16250624Y-31741774D01*
X16184376Y-31515223D01*
X16176945Y-31498879D01*
X16049983Y-31300354D01*
X16038264Y-31286753D01*
X15860685Y-31131841D01*
X15845620Y-31122076D01*
X15631700Y-31023232D01*
X15614500Y-31018088D01*
X15381436Y-30983256D01*
X15363483Y-30983147D01*
X15130012Y-31015128D01*
X15112750Y-31020061D01*
X14897639Y-31116285D01*
X14882456Y-31125865D01*
X14702998Y-31278596D01*
X14691114Y-31292053D01*
X14561735Y-31489013D01*
X14554105Y-31505264D01*
X14485207Y-31730618D01*
X14482445Y-31748358D01*
X14479567Y-31983993D01*
X12634000Y-31983993D01*
X12634000Y-30586993D01*
X17527567Y-30586993D01*
X17529895Y-30604794D01*
X17593265Y-30831765D01*
X17600496Y-30848198D01*
X17725024Y-31048259D01*
X17736576Y-31062002D01*
X17912249Y-31219071D01*
X17927193Y-31229019D01*
X18139888Y-31330470D01*
X18157025Y-31335824D01*
X18389646Y-31373500D01*
X18407596Y-31373829D01*
X18641440Y-31344702D01*
X18658761Y-31339980D01*
X18875032Y-31246392D01*
X18890331Y-31236998D01*
X19071642Y-31086471D01*
X19083690Y-31073161D01*
X19215464Y-30877796D01*
X19223292Y-30861640D01*
X19295056Y-30636775D01*
X19298050Y-30618289D01*
X19301165Y-30363328D01*
X19298624Y-30344774D01*
X19232376Y-30118223D01*
X19224945Y-30101879D01*
X19097983Y-29903354D01*
X19086264Y-29889753D01*
X18908685Y-29734841D01*
X18893620Y-29725076D01*
X18679700Y-29626232D01*
X18662500Y-29621088D01*
X18429436Y-29586256D01*
X18411483Y-29586147D01*
X18178012Y-29618128D01*
X18160750Y-29623061D01*
X17945639Y-29719285D01*
X17930456Y-29728865D01*
X17750998Y-29881596D01*
X17739114Y-29895053D01*
X17609735Y-30092013D01*
X17602105Y-30108264D01*
X17533207Y-30333618D01*
X17530445Y-30351358D01*
X17527567Y-30586993D01*
X12634000Y-30586993D01*
X12634000Y-29443993D01*
X23242567Y-29443993D01*
X23244895Y-29461794D01*
X23308265Y-29688765D01*
X23315496Y-29705198D01*
X23440024Y-29905259D01*
X23451576Y-29919002D01*
X23627249Y-30076071D01*
X23642193Y-30086019D01*
X23854888Y-30187470D01*
X23872025Y-30192824D01*
X24104646Y-30230500D01*
X24122596Y-30230829D01*
X24356440Y-30201702D01*
X24373761Y-30196980D01*
X24590032Y-30103392D01*
X24605331Y-30093998D01*
X24786642Y-29943471D01*
X24798690Y-29930161D01*
X24930464Y-29734796D01*
X24938292Y-29718640D01*
X25010056Y-29493775D01*
X25013050Y-29475289D01*
X25013432Y-29443993D01*
X28322567Y-29443993D01*
X28324895Y-29461794D01*
X28388265Y-29688765D01*
X28395496Y-29705198D01*
X28520024Y-29905259D01*
X28531576Y-29919002D01*
X28707249Y-30076071D01*
X28722193Y-30086019D01*
X28934888Y-30187470D01*
X28952025Y-30192824D01*
X29184646Y-30230500D01*
X29202596Y-30230829D01*
X29436440Y-30201702D01*
X29453761Y-30196980D01*
X29578229Y-30143119D01*
X29583555Y-30145659D01*
X29600691Y-30151013D01*
X29833312Y-30188689D01*
X29851262Y-30189018D01*
X30085106Y-30159891D01*
X30102427Y-30155169D01*
X30318698Y-30061581D01*
X30333997Y-30052187D01*
X30515308Y-29901660D01*
X30527356Y-29888350D01*
X30659130Y-29692985D01*
X30666958Y-29676829D01*
X30738722Y-29451964D01*
X30741716Y-29433478D01*
X30744831Y-29178517D01*
X30742290Y-29159963D01*
X30676042Y-28933412D01*
X30668611Y-28917068D01*
X30541649Y-28718543D01*
X30529930Y-28704942D01*
X30352351Y-28550030D01*
X30337286Y-28540265D01*
X30123366Y-28441421D01*
X30106166Y-28436277D01*
X29873102Y-28401445D01*
X29855149Y-28401336D01*
X29621678Y-28433317D01*
X29604417Y-28438250D01*
X29489043Y-28489859D01*
X29474700Y-28483232D01*
X29457500Y-28478088D01*
X29224436Y-28443256D01*
X29206483Y-28443147D01*
X28973012Y-28475128D01*
X28955750Y-28480061D01*
X28740639Y-28576285D01*
X28725456Y-28585865D01*
X28545998Y-28738596D01*
X28534114Y-28752053D01*
X28404735Y-28949013D01*
X28397105Y-28965264D01*
X28328207Y-29190618D01*
X28325445Y-29208358D01*
X28322567Y-29443993D01*
X25013432Y-29443993D01*
X25016165Y-29220328D01*
X25013624Y-29201774D01*
X24984242Y-29101295D01*
X25040642Y-29054471D01*
X25052690Y-29041161D01*
X25184464Y-28845796D01*
X25192292Y-28829640D01*
X25264056Y-28604775D01*
X25267050Y-28586289D01*
X25270165Y-28331328D01*
X25267624Y-28312774D01*
X25201376Y-28086223D01*
X25193945Y-28069879D01*
X25066983Y-27871354D01*
X25055264Y-27857753D01*
X24877685Y-27702841D01*
X24862620Y-27693076D01*
X24648700Y-27594232D01*
X24631500Y-27589088D01*
X24398436Y-27554256D01*
X24380483Y-27554147D01*
X24147012Y-27586128D01*
X24129750Y-27591061D01*
X23914639Y-27687285D01*
X23899456Y-27696865D01*
X23719998Y-27849596D01*
X23708114Y-27863053D01*
X23578735Y-28060013D01*
X23571105Y-28076264D01*
X23502207Y-28301618D01*
X23499445Y-28319358D01*
X23496567Y-28554993D01*
X23498895Y-28572794D01*
X23529983Y-28684141D01*
X23465998Y-28738596D01*
X23454114Y-28752052D01*
X23324735Y-28949013D01*
X23317105Y-28965264D01*
X23248207Y-29190618D01*
X23245445Y-29208358D01*
X23242567Y-29443993D01*
X12634000Y-29443993D01*
X12634000Y-26268993D01*
X13209567Y-26268993D01*
X13211895Y-26286794D01*
X13275265Y-26513765D01*
X13282496Y-26530198D01*
X13407024Y-26730259D01*
X13418576Y-26744002D01*
X13594249Y-26901071D01*
X13609193Y-26911019D01*
X13821888Y-27012470D01*
X13839025Y-27017824D01*
X14071646Y-27055500D01*
X14089596Y-27055829D01*
X14323440Y-27026702D01*
X14340761Y-27021980D01*
X14557032Y-26928392D01*
X14572331Y-26918998D01*
X14753642Y-26768471D01*
X14765690Y-26755161D01*
X14897464Y-26559796D01*
X14905292Y-26543640D01*
X14977056Y-26318775D01*
X14980050Y-26300289D01*
X14982047Y-26136790D01*
X18004607Y-26136790D01*
X18006935Y-26154591D01*
X18070305Y-26381562D01*
X18077536Y-26397995D01*
X18141205Y-26500283D01*
X18117735Y-26536012D01*
X18110105Y-26552264D01*
X18041207Y-26777618D01*
X18038445Y-26795358D01*
X18035567Y-27030993D01*
X18037895Y-27048794D01*
X18101265Y-27275765D01*
X18108496Y-27292198D01*
X18233024Y-27492259D01*
X18244576Y-27506002D01*
X18420249Y-27663071D01*
X18435193Y-27673019D01*
X18647888Y-27774470D01*
X18665025Y-27779824D01*
X18897646Y-27817500D01*
X18915596Y-27817829D01*
X19149440Y-27788702D01*
X19166761Y-27783980D01*
X19258187Y-27744417D01*
X19309249Y-27790071D01*
X19324193Y-27800019D01*
X19536888Y-27901470D01*
X19554025Y-27906824D01*
X19786646Y-27944500D01*
X19804596Y-27944829D01*
X20038440Y-27915702D01*
X20055761Y-27910980D01*
X20272032Y-27817392D01*
X20287331Y-27807998D01*
X20468642Y-27657471D01*
X20480690Y-27644161D01*
X20612464Y-27448796D01*
X20620292Y-27432640D01*
X20692056Y-27207775D01*
X20695050Y-27189289D01*
X20698165Y-26934328D01*
X20695624Y-26915774D01*
X20629376Y-26689223D01*
X20621945Y-26672879D01*
X20494983Y-26474354D01*
X20483264Y-26460753D01*
X20305685Y-26305841D01*
X20290620Y-26296076D01*
X20076700Y-26197232D01*
X20059500Y-26192088D01*
X19915890Y-26170625D01*
X19960642Y-26133471D01*
X19972690Y-26120161D01*
X20104464Y-25924796D01*
X20112292Y-25908640D01*
X20184056Y-25683775D01*
X20187050Y-25665289D01*
X20187432Y-25633993D01*
X21464567Y-25633993D01*
X21466895Y-25651794D01*
X21530265Y-25878765D01*
X21537496Y-25895198D01*
X21662024Y-26095259D01*
X21673576Y-26109002D01*
X21849249Y-26266071D01*
X21864193Y-26276019D01*
X22076888Y-26377470D01*
X22094025Y-26382824D01*
X22326646Y-26420500D01*
X22344596Y-26420829D01*
X22578440Y-26391702D01*
X22595761Y-26386980D01*
X22812032Y-26293392D01*
X22827331Y-26283998D01*
X23008642Y-26133471D01*
X23020690Y-26120161D01*
X23152464Y-25924796D01*
X23160292Y-25908640D01*
X23232056Y-25683775D01*
X23235050Y-25665289D01*
X23238165Y-25410328D01*
X23235624Y-25391774D01*
X23169376Y-25165223D01*
X23161945Y-25148879D01*
X23034983Y-24950354D01*
X23023264Y-24936753D01*
X22845685Y-24781841D01*
X22830620Y-24772076D01*
X22616700Y-24673232D01*
X22599500Y-24668088D01*
X22366436Y-24633256D01*
X22348483Y-24633147D01*
X22115012Y-24665128D01*
X22097750Y-24670061D01*
X21882639Y-24766285D01*
X21867456Y-24775865D01*
X21687998Y-24928596D01*
X21676114Y-24942053D01*
X21546735Y-25139013D01*
X21539105Y-25155264D01*
X21470207Y-25380618D01*
X21467445Y-25398358D01*
X21464567Y-25633993D01*
X20187432Y-25633993D01*
X20190165Y-25410328D01*
X20187624Y-25391774D01*
X20121376Y-25165223D01*
X20113945Y-25148879D01*
X19986983Y-24950354D01*
X19975264Y-24936753D01*
X19797685Y-24781841D01*
X19782620Y-24772076D01*
X19568700Y-24673232D01*
X19551500Y-24668088D01*
X19318436Y-24633256D01*
X19300483Y-24633147D01*
X19067012Y-24665128D01*
X19049750Y-24670061D01*
X18834639Y-24766285D01*
X18819456Y-24775865D01*
X18639998Y-24928596D01*
X18628114Y-24942053D01*
X18498735Y-25139013D01*
X18491105Y-25155264D01*
X18461635Y-25251656D01*
X18422679Y-25269082D01*
X18407496Y-25278662D01*
X18228038Y-25431393D01*
X18216154Y-25444850D01*
X18086775Y-25641810D01*
X18079145Y-25658061D01*
X18010247Y-25883415D01*
X18007485Y-25901155D01*
X18004607Y-26136790D01*
X14982047Y-26136790D01*
X14983165Y-26045328D01*
X14980624Y-26026774D01*
X14914376Y-25800223D01*
X14906945Y-25783879D01*
X14779983Y-25585354D01*
X14768264Y-25571753D01*
X14590685Y-25416841D01*
X14575620Y-25407076D01*
X14361700Y-25308232D01*
X14344500Y-25303088D01*
X14111436Y-25268256D01*
X14093483Y-25268147D01*
X13860012Y-25300128D01*
X13842750Y-25305061D01*
X13627639Y-25401285D01*
X13612456Y-25410865D01*
X13432998Y-25563596D01*
X13421114Y-25577053D01*
X13291735Y-25774013D01*
X13284105Y-25790264D01*
X13215207Y-26015618D01*
X13212445Y-26033358D01*
X13209567Y-26268993D01*
X12634000Y-26268993D01*
X12634000Y-23356993D01*
X14362567Y-23356993D01*
X14364895Y-23374794D01*
X14428265Y-23601765D01*
X14435496Y-23618198D01*
X14560024Y-23818259D01*
X14571576Y-23832002D01*
X14747249Y-23989071D01*
X14762193Y-23999019D01*
X14974888Y-24100470D01*
X14992025Y-24105824D01*
X15224646Y-24143500D01*
X15242596Y-24143829D01*
X15476440Y-24114702D01*
X15493761Y-24109980D01*
X15710032Y-24016392D01*
X15725331Y-24006998D01*
X15906642Y-23856471D01*
X15918690Y-23843161D01*
X16050464Y-23647796D01*
X16058292Y-23631640D01*
X16130056Y-23406775D01*
X16133050Y-23388289D01*
X16136165Y-23133328D01*
X16133624Y-23114774D01*
X16067376Y-22888223D01*
X16059945Y-22871879D01*
X15932983Y-22673354D01*
X15921264Y-22659753D01*
X15743685Y-22504841D01*
X15732949Y-22497882D01*
X15736831Y-22495498D01*
X15780801Y-22458993D01*
X20702567Y-22458993D01*
X20704895Y-22476794D01*
X20768265Y-22703765D01*
X20775496Y-22720198D01*
X20900024Y-22920259D01*
X20911576Y-22934002D01*
X21087249Y-23091071D01*
X21102193Y-23101019D01*
X21314888Y-23202470D01*
X21332025Y-23207824D01*
X21564646Y-23245500D01*
X21582597Y-23245829D01*
X21624290Y-23240636D01*
X21662024Y-23301259D01*
X21673576Y-23315002D01*
X21849249Y-23472071D01*
X21864193Y-23482019D01*
X22076888Y-23583470D01*
X22094025Y-23588824D01*
X22326646Y-23626500D01*
X22344596Y-23626829D01*
X22481584Y-23609766D01*
X22482895Y-23619794D01*
X22546265Y-23846765D01*
X22553496Y-23863198D01*
X22678024Y-24063259D01*
X22689576Y-24077002D01*
X22865249Y-24234071D01*
X22880193Y-24244019D01*
X23092888Y-24345470D01*
X23110025Y-24350824D01*
X23342646Y-24388500D01*
X23360596Y-24388829D01*
X23594440Y-24359702D01*
X23611761Y-24354980D01*
X23828032Y-24261392D01*
X23843331Y-24251998D01*
X24024642Y-24101471D01*
X24036690Y-24088161D01*
X24168464Y-23892796D01*
X24176292Y-23876640D01*
X24248056Y-23651775D01*
X24251050Y-23633289D01*
X24254165Y-23378328D01*
X24251624Y-23359774D01*
X24185376Y-23133223D01*
X24177945Y-23116879D01*
X24050983Y-22918354D01*
X24039264Y-22904753D01*
X23861685Y-22749841D01*
X23846620Y-22740076D01*
X23632700Y-22641232D01*
X23615500Y-22636088D01*
X23382436Y-22601256D01*
X23364483Y-22601147D01*
X23238139Y-22618454D01*
X23238165Y-22616328D01*
X23235624Y-22597774D01*
X23169376Y-22371223D01*
X23161945Y-22354879D01*
X23034983Y-22156354D01*
X23023264Y-22142753D01*
X22845685Y-21987841D01*
X22830620Y-21978076D01*
X22616700Y-21879232D01*
X22599500Y-21874088D01*
X22366436Y-21839256D01*
X22348483Y-21839147D01*
X22316576Y-21843518D01*
X22272983Y-21775354D01*
X22261264Y-21761753D01*
X22189694Y-21699319D01*
X22326646Y-21721500D01*
X22344596Y-21721829D01*
X22578440Y-21692702D01*
X22595761Y-21687980D01*
X22812032Y-21594392D01*
X22827331Y-21584998D01*
X23008642Y-21434471D01*
X23020690Y-21421161D01*
X23152464Y-21225796D01*
X23160292Y-21209640D01*
X23232056Y-20984775D01*
X23235050Y-20966289D01*
X23235432Y-20934993D01*
X24131567Y-20934993D01*
X24133895Y-20952794D01*
X24197265Y-21179765D01*
X24204496Y-21196198D01*
X24329024Y-21396259D01*
X24340576Y-21410002D01*
X24516249Y-21567071D01*
X24531193Y-21577019D01*
X24743888Y-21678470D01*
X24761025Y-21683824D01*
X24993646Y-21721500D01*
X25011596Y-21721829D01*
X25245440Y-21692702D01*
X25262761Y-21687980D01*
X25479032Y-21594392D01*
X25494331Y-21584998D01*
X25675642Y-21434471D01*
X25687690Y-21421161D01*
X25819464Y-21225796D01*
X25827292Y-21209640D01*
X25899056Y-20984775D01*
X25902050Y-20966289D01*
X25905165Y-20711328D01*
X25902624Y-20692774D01*
X25836376Y-20466223D01*
X25828945Y-20449879D01*
X25701983Y-20251354D01*
X25690264Y-20237753D01*
X25512685Y-20082841D01*
X25497620Y-20073076D01*
X25283700Y-19974232D01*
X25266500Y-19969088D01*
X25033436Y-19934256D01*
X25015483Y-19934147D01*
X24782012Y-19966128D01*
X24764750Y-19971061D01*
X24549639Y-20067285D01*
X24534456Y-20076865D01*
X24354998Y-20229596D01*
X24343114Y-20243053D01*
X24213735Y-20440013D01*
X24206105Y-20456264D01*
X24137207Y-20681618D01*
X24134445Y-20699358D01*
X24131567Y-20934993D01*
X23235432Y-20934993D01*
X23238165Y-20711328D01*
X23235624Y-20692774D01*
X23171232Y-20472569D01*
X23226440Y-20465692D01*
X23243761Y-20460970D01*
X23460032Y-20367382D01*
X23475331Y-20357988D01*
X23656642Y-20207461D01*
X23668690Y-20194151D01*
X23800464Y-19998786D01*
X23808292Y-19982630D01*
X23880056Y-19757765D01*
X23883050Y-19739279D01*
X23886165Y-19484318D01*
X23883624Y-19465764D01*
X23817376Y-19239213D01*
X23809945Y-19222869D01*
X23682983Y-19024344D01*
X23671264Y-19010743D01*
X23493685Y-18855831D01*
X23478620Y-18846066D01*
X23264700Y-18747222D01*
X23247500Y-18742078D01*
X23014436Y-18707246D01*
X22996483Y-18707137D01*
X22763012Y-18739118D01*
X22745750Y-18744051D01*
X22530639Y-18840275D01*
X22515456Y-18849855D01*
X22335998Y-19002586D01*
X22324114Y-19016043D01*
X22194735Y-19213003D01*
X22187105Y-19229254D01*
X22118207Y-19454608D01*
X22115445Y-19472348D01*
X22112567Y-19707983D01*
X22114895Y-19725784D01*
X22178265Y-19952755D01*
X22180219Y-19957196D01*
X22115012Y-19966128D01*
X22097750Y-19971061D01*
X21882639Y-20067285D01*
X21867456Y-20076865D01*
X21687998Y-20229596D01*
X21676114Y-20243053D01*
X21546735Y-20440013D01*
X21539105Y-20456264D01*
X21470207Y-20681618D01*
X21467445Y-20699358D01*
X21464567Y-20934993D01*
X21466895Y-20952794D01*
X21530265Y-21179765D01*
X21537496Y-21196198D01*
X21662024Y-21396259D01*
X21673576Y-21410002D01*
X21752254Y-21480348D01*
X21604436Y-21458256D01*
X21586483Y-21458147D01*
X21353012Y-21490128D01*
X21335750Y-21495061D01*
X21120639Y-21591285D01*
X21105456Y-21600865D01*
X20925998Y-21753596D01*
X20914114Y-21767053D01*
X20784735Y-21964013D01*
X20777105Y-21980264D01*
X20708207Y-22205618D01*
X20705445Y-22223358D01*
X20702567Y-22458993D01*
X15780801Y-22458993D01*
X15918142Y-22344971D01*
X15930190Y-22331661D01*
X16061964Y-22136296D01*
X16069792Y-22120140D01*
X16141556Y-21895275D01*
X16144550Y-21876789D01*
X16147665Y-21621828D01*
X16145124Y-21603274D01*
X16078876Y-21376723D01*
X16071445Y-21360379D01*
X16043059Y-21315993D01*
X17019567Y-21315993D01*
X17021895Y-21333794D01*
X17085265Y-21560765D01*
X17092496Y-21577198D01*
X17217024Y-21777259D01*
X17228576Y-21791002D01*
X17404249Y-21948071D01*
X17419193Y-21958019D01*
X17631888Y-22059470D01*
X17649025Y-22064824D01*
X17881646Y-22102500D01*
X17899596Y-22102829D01*
X18133440Y-22073702D01*
X18150761Y-22068980D01*
X18367032Y-21975392D01*
X18382331Y-21965998D01*
X18563642Y-21815471D01*
X18575690Y-21802161D01*
X18707464Y-21606796D01*
X18715292Y-21590640D01*
X18787056Y-21365775D01*
X18790050Y-21347289D01*
X18793165Y-21092328D01*
X18790624Y-21073774D01*
X18724376Y-20847223D01*
X18716945Y-20830879D01*
X18589983Y-20632354D01*
X18578264Y-20618753D01*
X18400685Y-20463841D01*
X18385620Y-20454076D01*
X18171700Y-20355232D01*
X18154500Y-20350088D01*
X17921436Y-20315256D01*
X17903483Y-20315147D01*
X17670012Y-20347128D01*
X17652750Y-20352061D01*
X17437639Y-20448285D01*
X17422456Y-20457865D01*
X17242998Y-20610596D01*
X17231114Y-20624053D01*
X17101735Y-20821013D01*
X17094105Y-20837264D01*
X17025207Y-21062618D01*
X17022445Y-21080358D01*
X17019567Y-21315993D01*
X16043059Y-21315993D01*
X15944483Y-21161854D01*
X15932764Y-21148253D01*
X15755185Y-20993341D01*
X15740120Y-20983576D01*
X15526200Y-20884732D01*
X15509000Y-20879588D01*
X15275936Y-20844756D01*
X15257983Y-20844647D01*
X15024512Y-20876628D01*
X15007250Y-20881561D01*
X14792139Y-20977785D01*
X14776956Y-20987365D01*
X14597498Y-21140096D01*
X14585614Y-21153553D01*
X14456235Y-21350513D01*
X14448605Y-21366764D01*
X14379707Y-21592118D01*
X14376945Y-21609858D01*
X14374067Y-21845493D01*
X14376395Y-21863294D01*
X14439765Y-22090265D01*
X14446996Y-22106698D01*
X14571524Y-22306759D01*
X14583076Y-22320502D01*
X14758749Y-22477571D01*
X14773693Y-22487519D01*
X14779243Y-22490166D01*
X14765456Y-22498865D01*
X14585998Y-22651596D01*
X14574114Y-22665053D01*
X14444735Y-22862013D01*
X14437105Y-22878264D01*
X14368207Y-23103618D01*
X14365445Y-23121358D01*
X14362567Y-23356993D01*
X12634000Y-23356993D01*
X12634000Y-20172993D01*
X19432567Y-20172993D01*
X19434895Y-20190794D01*
X19498265Y-20417765D01*
X19505496Y-20434198D01*
X19630024Y-20634259D01*
X19641576Y-20648002D01*
X19817249Y-20805071D01*
X19832193Y-20815019D01*
X20044888Y-20916470D01*
X20062025Y-20921824D01*
X20294646Y-20959500D01*
X20312596Y-20959829D01*
X20546440Y-20930702D01*
X20563761Y-20925980D01*
X20780032Y-20832392D01*
X20795331Y-20822998D01*
X20976642Y-20672471D01*
X20988690Y-20659161D01*
X21120464Y-20463796D01*
X21128292Y-20447640D01*
X21200056Y-20222775D01*
X21203050Y-20204289D01*
X21206165Y-19949328D01*
X21203624Y-19930774D01*
X21137376Y-19704223D01*
X21129945Y-19687879D01*
X21002983Y-19489354D01*
X20991264Y-19475753D01*
X20813685Y-19320841D01*
X20798620Y-19311076D01*
X20584700Y-19212232D01*
X20567500Y-19207088D01*
X20334436Y-19172256D01*
X20316483Y-19172147D01*
X20083012Y-19204128D01*
X20065750Y-19209061D01*
X19850639Y-19305285D01*
X19835456Y-19314865D01*
X19655998Y-19467596D01*
X19644114Y-19481053D01*
X19514735Y-19678013D01*
X19507105Y-19694264D01*
X19438207Y-19919618D01*
X19435445Y-19937358D01*
X19432567Y-20172993D01*
X12634000Y-20172993D01*
X12634000Y-18998326D01*
X12640265Y-19020765D01*
X12647496Y-19037198D01*
X12772024Y-19237259D01*
X12783576Y-19251002D01*
X12959249Y-19408071D01*
X12974193Y-19418019D01*
X13186888Y-19519470D01*
X13204025Y-19524824D01*
X13436646Y-19562500D01*
X13454596Y-19562829D01*
X13688440Y-19533702D01*
X13705761Y-19528980D01*
X13922032Y-19435392D01*
X13937331Y-19425998D01*
X14118642Y-19275471D01*
X14130690Y-19262161D01*
X14262464Y-19066796D01*
X14270292Y-19050640D01*
X14342056Y-18825775D01*
X14345050Y-18807289D01*
X14348165Y-18552328D01*
X14345624Y-18533774D01*
X14279376Y-18307223D01*
X14271945Y-18290879D01*
X14144983Y-18092354D01*
X14133264Y-18078753D01*
X14108321Y-18056993D01*
X14733567Y-18056993D01*
X14735895Y-18074794D01*
X14799265Y-18301765D01*
X14806496Y-18318198D01*
X14931024Y-18518259D01*
X14942576Y-18532002D01*
X15118249Y-18689071D01*
X15133193Y-18699019D01*
X15345888Y-18800470D01*
X15363025Y-18805824D01*
X15595646Y-18843500D01*
X15613596Y-18843829D01*
X15847440Y-18814702D01*
X15864761Y-18809980D01*
X15912502Y-18789321D01*
X15867954Y-18935029D01*
X15865192Y-18952769D01*
X15862314Y-19188404D01*
X15864642Y-19206205D01*
X15928012Y-19433176D01*
X15935243Y-19449609D01*
X16059771Y-19649670D01*
X16071323Y-19663413D01*
X16246996Y-19820482D01*
X16261940Y-19830430D01*
X16474635Y-19931881D01*
X16491772Y-19937235D01*
X16724393Y-19974911D01*
X16742343Y-19975240D01*
X16976188Y-19946113D01*
X16993508Y-19941391D01*
X17117953Y-19887539D01*
X17127871Y-19892270D01*
X17145008Y-19897624D01*
X17377629Y-19935300D01*
X17395579Y-19935629D01*
X17629423Y-19906502D01*
X17646744Y-19901780D01*
X17863015Y-19808192D01*
X17878314Y-19798798D01*
X18059625Y-19648271D01*
X18071673Y-19634961D01*
X18203447Y-19439596D01*
X18211275Y-19423440D01*
X18283039Y-19198575D01*
X18286033Y-19180089D01*
X18289148Y-18925128D01*
X18286607Y-18906574D01*
X18220359Y-18680023D01*
X18212928Y-18663679D01*
X18150995Y-18566837D01*
X18433258Y-18566837D01*
X18449634Y-18564681D01*
X18728859Y-18489863D01*
X18753339Y-18477120D01*
X18909590Y-18346010D01*
X18923761Y-18329121D01*
X19024359Y-18154880D01*
X19031900Y-18134163D01*
X19033166Y-18126982D01*
X28322567Y-18126982D01*
X28324895Y-18144783D01*
X28388265Y-18371754D01*
X28395496Y-18388187D01*
X28520024Y-18588248D01*
X28531576Y-18601991D01*
X28707249Y-18759060D01*
X28722193Y-18769008D01*
X28934888Y-18870459D01*
X28952025Y-18875813D01*
X29184646Y-18913489D01*
X29202596Y-18913818D01*
X29436440Y-18884691D01*
X29453761Y-18879969D01*
X29670032Y-18786381D01*
X29685331Y-18776987D01*
X29866642Y-18626460D01*
X29878690Y-18613150D01*
X30010464Y-18417785D01*
X30018292Y-18401629D01*
X30090056Y-18176764D01*
X30093050Y-18158278D01*
X30096165Y-17903317D01*
X30093624Y-17884763D01*
X30027376Y-17658212D01*
X30019945Y-17641868D01*
X29892983Y-17443343D01*
X29881264Y-17429742D01*
X29703685Y-17274830D01*
X29688620Y-17265065D01*
X29474700Y-17166221D01*
X29457500Y-17161077D01*
X29224436Y-17126245D01*
X29206483Y-17126136D01*
X28973012Y-17158117D01*
X28955750Y-17163050D01*
X28740639Y-17259274D01*
X28725456Y-17268854D01*
X28545998Y-17421585D01*
X28534114Y-17435042D01*
X28404735Y-17632002D01*
X28397105Y-17648253D01*
X28328207Y-17873607D01*
X28325445Y-17891347D01*
X28322567Y-18126982D01*
X19033166Y-18126982D01*
X19065878Y-17941462D01*
X19066837Y-17930501D01*
X19066837Y-17066742D01*
X19064681Y-17050366D01*
X18989863Y-16771142D01*
X18977120Y-16746662D01*
X18846010Y-16590410D01*
X18829121Y-16576239D01*
X18654880Y-16475641D01*
X18634163Y-16468100D01*
X18441462Y-16434122D01*
X18430501Y-16433163D01*
X17566741Y-16433163D01*
X17550366Y-16435319D01*
X17331080Y-16494076D01*
X17227706Y-16460488D01*
X17214788Y-16457743D01*
X17006604Y-16435861D01*
X16993396Y-16435861D01*
X16785212Y-16457743D01*
X16772294Y-16460488D01*
X16573208Y-16525174D01*
X16561142Y-16530546D01*
X16379857Y-16635213D01*
X16369173Y-16642975D01*
X16213609Y-16783044D01*
X16204772Y-16792859D01*
X16081730Y-16962213D01*
X16075127Y-16973650D01*
X15997541Y-17147909D01*
X15885700Y-17096232D01*
X15868500Y-17091088D01*
X15635436Y-17056256D01*
X15617483Y-17056147D01*
X15384012Y-17088128D01*
X15366750Y-17093061D01*
X15151639Y-17189285D01*
X15136456Y-17198865D01*
X14956998Y-17351596D01*
X14945114Y-17365053D01*
X14815735Y-17562013D01*
X14808105Y-17578264D01*
X14739207Y-17803618D01*
X14736445Y-17821358D01*
X14733567Y-18056993D01*
X14108321Y-18056993D01*
X13955685Y-17923841D01*
X13940620Y-17914076D01*
X13726700Y-17815232D01*
X13709500Y-17810088D01*
X13476436Y-17775256D01*
X13458483Y-17775147D01*
X13225012Y-17807128D01*
X13207750Y-17812061D01*
X12992639Y-17908285D01*
X12977456Y-17917865D01*
X12797998Y-18070596D01*
X12786114Y-18084053D01*
X12656735Y-18281013D01*
X12649105Y-18297264D01*
X12634000Y-18346670D01*
X12634000Y-15854993D01*
X20956567Y-15854993D01*
X20958895Y-15872794D01*
X21022265Y-16099765D01*
X21029496Y-16116198D01*
X21154024Y-16316259D01*
X21165576Y-16330002D01*
X21341249Y-16487071D01*
X21356193Y-16497019D01*
X21568888Y-16598470D01*
X21586025Y-16603824D01*
X21818646Y-16641500D01*
X21836596Y-16641829D01*
X22070440Y-16612702D01*
X22087761Y-16607980D01*
X22304032Y-16514392D01*
X22319331Y-16504998D01*
X22500642Y-16354471D01*
X22512690Y-16341161D01*
X22644464Y-16145796D01*
X22652292Y-16129640D01*
X22724056Y-15904775D01*
X22727050Y-15886289D01*
X22730165Y-15631328D01*
X22727624Y-15612774D01*
X22661376Y-15386223D01*
X22653945Y-15369879D01*
X22526983Y-15171354D01*
X22515264Y-15157753D01*
X22337685Y-15002841D01*
X22322620Y-14993076D01*
X22108700Y-14894232D01*
X22091500Y-14889088D01*
X21858436Y-14854256D01*
X21840483Y-14854147D01*
X21607012Y-14886128D01*
X21589750Y-14891061D01*
X21374639Y-14987285D01*
X21359456Y-14996865D01*
X21179998Y-15149596D01*
X21168114Y-15163053D01*
X21038735Y-15360013D01*
X21031105Y-15376264D01*
X20962207Y-15601618D01*
X20959445Y-15619358D01*
X20956567Y-15854993D01*
X12634000Y-15854993D01*
X12634000Y-13134000D01*
X34866000Y-13134000D01*
X34866001Y-20366000D01*
%TA.AperFunction,Conductor*%
G36*
X34866001Y-20366000D02*
G01*
X33002881Y-20366000D01*
X33099032Y-20324392D01*
X33114331Y-20314998D01*
X33295642Y-20164471D01*
X33307690Y-20151161D01*
X33439464Y-19955796D01*
X33447292Y-19939640D01*
X33519056Y-19714775D01*
X33522050Y-19696289D01*
X33525165Y-19441328D01*
X33522624Y-19422774D01*
X33456376Y-19196223D01*
X33448945Y-19179879D01*
X33321983Y-18981354D01*
X33310264Y-18967753D01*
X33132685Y-18812841D01*
X33117620Y-18803076D01*
X32903700Y-18704232D01*
X32886500Y-18699088D01*
X32653436Y-18664256D01*
X32635483Y-18664147D01*
X32402012Y-18696128D01*
X32384750Y-18701061D01*
X32169639Y-18797285D01*
X32154456Y-18806865D01*
X31974998Y-18959596D01*
X31963114Y-18973053D01*
X31833735Y-19170013D01*
X31826105Y-19186264D01*
X31757207Y-19411618D01*
X31754445Y-19429358D01*
X31751567Y-19664993D01*
X31753895Y-19682794D01*
X31817265Y-19909765D01*
X31824496Y-19926198D01*
X31949024Y-20126259D01*
X31960576Y-20140002D01*
X32136249Y-20297071D01*
X32151193Y-20307019D01*
X32274848Y-20366000D01*
X31859361Y-20366000D01*
X31811087Y-20200914D01*
X31803656Y-20184570D01*
X31676694Y-19986045D01*
X31664975Y-19972444D01*
X31487396Y-19817532D01*
X31472331Y-19807767D01*
X31258411Y-19708923D01*
X31241211Y-19703779D01*
X31008147Y-19668947D01*
X30990194Y-19668838D01*
X30756723Y-19700819D01*
X30739461Y-19705752D01*
X30524350Y-19801976D01*
X30509167Y-19811556D01*
X30355884Y-19942010D01*
X30350399Y-19933433D01*
X30338680Y-19919833D01*
X30161101Y-19764921D01*
X30146036Y-19755156D01*
X29932116Y-19656312D01*
X29914916Y-19651168D01*
X29681852Y-19616336D01*
X29663899Y-19616227D01*
X29430428Y-19648208D01*
X29413166Y-19653141D01*
X29198055Y-19749365D01*
X29182872Y-19758945D01*
X29136381Y-19798512D01*
X29054446Y-19786267D01*
X29036493Y-19786158D01*
X28803022Y-19818139D01*
X28785760Y-19823072D01*
X28570649Y-19919296D01*
X28555466Y-19928876D01*
X28376008Y-20081607D01*
X28364124Y-20095064D01*
X28234745Y-20292024D01*
X28227115Y-20308275D01*
X28158217Y-20533629D01*
X28155455Y-20551369D01*
X28152577Y-20787004D01*
X28154905Y-20804805D01*
X28218275Y-21031776D01*
X28225506Y-21048209D01*
X28350034Y-21248270D01*
X28361586Y-21262013D01*
X28456521Y-21346895D01*
X28338012Y-21363128D01*
X28320750Y-21368061D01*
X28105639Y-21464285D01*
X28090456Y-21473865D01*
X27910998Y-21626596D01*
X27899114Y-21640053D01*
X27769735Y-21837013D01*
X27762105Y-21853264D01*
X27693207Y-22078618D01*
X27690445Y-22096358D01*
X27687567Y-22331993D01*
X27689895Y-22349794D01*
X27753265Y-22576765D01*
X27760496Y-22593198D01*
X27885024Y-22793259D01*
X27896576Y-22807002D01*
X28072249Y-22964071D01*
X28087193Y-22974019D01*
X28299888Y-23075470D01*
X28317025Y-23080824D01*
X28549646Y-23118500D01*
X28567596Y-23118829D01*
X28801440Y-23089702D01*
X28818761Y-23084980D01*
X29035032Y-22991392D01*
X29050331Y-22981998D01*
X29231642Y-22831471D01*
X29243690Y-22818161D01*
X29375464Y-22622796D01*
X29383292Y-22606640D01*
X29455056Y-22381775D01*
X29458050Y-22363289D01*
X29461165Y-22108328D01*
X29458624Y-22089774D01*
X29392376Y-21863223D01*
X29384945Y-21846879D01*
X29257983Y-21648354D01*
X29246264Y-21634753D01*
X29158467Y-21558163D01*
X29266450Y-21544713D01*
X29283771Y-21539991D01*
X29500042Y-21446403D01*
X29515341Y-21437009D01*
X29569720Y-21391863D01*
X29642062Y-21403580D01*
X29660012Y-21403909D01*
X29893856Y-21374782D01*
X29911177Y-21370060D01*
X30127448Y-21276472D01*
X30142747Y-21267078D01*
X30304960Y-21132407D01*
X30315287Y-21144693D01*
X30490960Y-21301762D01*
X30505904Y-21311710D01*
X30718599Y-21413161D01*
X30735736Y-21418515D01*
X30968357Y-21456191D01*
X30986307Y-21456520D01*
X31116000Y-21440366D01*
X31116000Y-22509201D01*
X31100685Y-22495841D01*
X31085620Y-22486076D01*
X30871700Y-22387232D01*
X30854500Y-22382088D01*
X30621436Y-22347256D01*
X30603483Y-22347147D01*
X30370012Y-22379128D01*
X30352750Y-22384061D01*
X30137639Y-22480285D01*
X30122456Y-22489865D01*
X29942998Y-22642596D01*
X29931114Y-22656053D01*
X29801735Y-22853013D01*
X29794105Y-22869264D01*
X29725207Y-23094618D01*
X29722445Y-23112358D01*
X29719567Y-23347993D01*
X29721895Y-23365794D01*
X29785265Y-23592765D01*
X29792496Y-23609198D01*
X29917024Y-23809259D01*
X29928576Y-23823002D01*
X30104249Y-23980071D01*
X30119193Y-23990019D01*
X30331888Y-24091470D01*
X30349025Y-24096824D01*
X30581646Y-24134500D01*
X30599596Y-24134829D01*
X30833440Y-24105702D01*
X30850761Y-24100980D01*
X31067032Y-24007392D01*
X31082331Y-23997998D01*
X31116000Y-23970045D01*
X31116001Y-31685027D01*
X31058455Y-31488235D01*
X31051024Y-31471891D01*
X30924062Y-31273366D01*
X30912343Y-31259765D01*
X30734764Y-31104853D01*
X30719699Y-31095088D01*
X30505779Y-30996244D01*
X30488579Y-30991100D01*
X30255515Y-30956268D01*
X30237562Y-30956159D01*
X30004091Y-30988140D01*
X29986829Y-30993073D01*
X29771718Y-31089297D01*
X29756535Y-31098877D01*
X29644188Y-31194492D01*
X29474700Y-31116178D01*
X29457500Y-31111034D01*
X29224436Y-31076202D01*
X29206483Y-31076093D01*
X28973012Y-31108074D01*
X28955750Y-31113007D01*
X28740639Y-31209231D01*
X28725456Y-31218811D01*
X28545998Y-31371542D01*
X28534113Y-31384999D01*
X28506861Y-31426486D01*
X28458700Y-31404232D01*
X28441500Y-31399088D01*
X28208436Y-31364256D01*
X28190483Y-31364147D01*
X27957012Y-31396128D01*
X27939750Y-31401061D01*
X27724639Y-31497285D01*
X27709456Y-31506865D01*
X27529998Y-31659596D01*
X27518114Y-31673053D01*
X27388735Y-31870013D01*
X27381105Y-31886264D01*
X27312207Y-32111618D01*
X27309445Y-32129358D01*
X27306567Y-32364993D01*
X27308895Y-32382794D01*
X27372265Y-32609765D01*
X27379496Y-32626198D01*
X27504024Y-32826259D01*
X27515576Y-32840002D01*
X27691249Y-32997071D01*
X27706193Y-33007019D01*
X27918888Y-33108470D01*
X27936025Y-33113824D01*
X28168646Y-33151500D01*
X28186596Y-33151829D01*
X28420440Y-33122702D01*
X28437761Y-33117980D01*
X28468133Y-33104837D01*
X28520032Y-33188216D01*
X28531584Y-33201959D01*
X28707257Y-33359028D01*
X28722201Y-33368976D01*
X28772095Y-33392774D01*
X28701725Y-33499902D01*
X28694095Y-33516153D01*
X28625197Y-33741507D01*
X28622435Y-33759247D01*
X28619557Y-33994882D01*
X28621885Y-34012683D01*
X28685255Y-34239654D01*
X28692486Y-34256087D01*
X28817014Y-34456148D01*
X28828566Y-34469891D01*
X28941554Y-34570914D01*
X28939991Y-34571128D01*
X28922729Y-34576061D01*
X28707618Y-34672285D01*
X28692435Y-34681865D01*
X28512977Y-34834596D01*
X28501093Y-34848053D01*
X28371714Y-35045013D01*
X28364084Y-35061264D01*
X28361760Y-35068865D01*
X28338012Y-35072118D01*
X28320750Y-35077052D01*
X28105639Y-35173275D01*
X28090456Y-35182855D01*
X27910998Y-35335586D01*
X27899114Y-35349043D01*
X27769735Y-35546003D01*
X27762105Y-35562254D01*
X27693207Y-35787608D01*
X27690445Y-35805348D01*
X27687567Y-36040983D01*
X27689895Y-36058784D01*
X27753265Y-36285755D01*
X27760496Y-36302188D01*
X27885024Y-36502249D01*
X27896576Y-36515992D01*
X28072249Y-36673061D01*
X28087193Y-36683009D01*
X28299888Y-36784460D01*
X28317025Y-36789814D01*
X28492135Y-36818175D01*
X28537003Y-36890259D01*
X28548555Y-36904002D01*
X28724228Y-37061071D01*
X28739172Y-37071019D01*
X28951867Y-37172470D01*
X28969004Y-37177824D01*
X29201625Y-37215500D01*
X29219575Y-37215829D01*
X29453419Y-37186702D01*
X29470740Y-37181980D01*
X29687011Y-37088392D01*
X29702310Y-37078998D01*
X29883621Y-36928471D01*
X29895669Y-36915161D01*
X30027443Y-36719796D01*
X30035271Y-36703640D01*
X30107035Y-36478775D01*
X30110029Y-36460289D01*
X30113144Y-36205328D01*
X30110603Y-36186774D01*
X30044355Y-35960223D01*
X30036924Y-35943879D01*
X29970853Y-35840566D01*
X29977443Y-35830796D01*
X29985271Y-35814640D01*
X30057035Y-35589775D01*
X30060029Y-35571289D01*
X30063144Y-35316328D01*
X30060603Y-35297774D01*
X29994355Y-35071223D01*
X29986924Y-35054879D01*
X29859962Y-34856354D01*
X29848243Y-34842753D01*
X29742160Y-34750211D01*
X29750751Y-34747869D01*
X29967022Y-34654281D01*
X29982321Y-34644887D01*
X30163632Y-34494360D01*
X30175680Y-34481050D01*
X30307454Y-34285685D01*
X30315282Y-34269529D01*
X30372583Y-34089983D01*
X30420265Y-34260765D01*
X30427496Y-34277198D01*
X30552024Y-34477259D01*
X30563576Y-34491002D01*
X30739249Y-34648071D01*
X30754193Y-34658019D01*
X30966888Y-34759470D01*
X30984025Y-34764824D01*
X31216646Y-34802500D01*
X31234596Y-34802829D01*
X31468440Y-34773702D01*
X31485761Y-34768980D01*
X31702032Y-34675392D01*
X31717331Y-34665998D01*
X31898642Y-34515471D01*
X31910690Y-34502161D01*
X32042464Y-34306796D01*
X32050292Y-34290640D01*
X32122056Y-34065775D01*
X32125050Y-34047289D01*
X32128165Y-33792328D01*
X32125624Y-33773774D01*
X32059376Y-33547223D01*
X32051945Y-33530879D01*
X31924983Y-33332354D01*
X31913264Y-33318753D01*
X31735685Y-33163841D01*
X31720620Y-33154076D01*
X31506700Y-33055232D01*
X31489500Y-33050088D01*
X31256436Y-33015256D01*
X31238483Y-33015147D01*
X31047228Y-33041345D01*
X31099685Y-32963574D01*
X31107513Y-32947418D01*
X31179277Y-32722553D01*
X31182271Y-32704067D01*
X31185386Y-32449106D01*
X31182845Y-32430552D01*
X31116597Y-32204001D01*
X31109166Y-32187657D01*
X31078643Y-32139930D01*
X31115805Y-32023489D01*
X31115473Y-32077859D01*
X31117909Y-32095647D01*
X31128494Y-32132680D01*
X31133952Y-32170793D01*
X31138991Y-32188025D01*
X31153319Y-32219538D01*
X31162831Y-32252821D01*
X31170162Y-32269210D01*
X31190714Y-32301782D01*
X31206649Y-32336832D01*
X31216322Y-32351957D01*
X31238916Y-32378178D01*
X31257389Y-32407457D01*
X31269025Y-32421129D01*
X31297894Y-32446624D01*
X31323027Y-32475794D01*
X31336556Y-32487596D01*
X31365599Y-32506421D01*
X31391550Y-32529340D01*
X31406554Y-32539196D01*
X31441426Y-32555569D01*
X31473730Y-32576507D01*
X31490027Y-32584037D01*
X31523182Y-32593952D01*
X31554700Y-32608750D01*
X31572255Y-32614059D01*
X31608545Y-32619482D01*
X31646640Y-32630875D01*
X31664396Y-32633529D01*
X31707593Y-32633793D01*
X31710379Y-32634000D01*
X31741463Y-32634000D01*
X31827859Y-32634527D01*
X31831707Y-32634000D01*
X34866000Y-32634000D01*
X34866000Y-37649605D01*
X34858700Y-37646232D01*
X34841500Y-37641088D01*
X34608436Y-37606256D01*
X34590483Y-37606147D01*
X34357012Y-37638128D01*
X34339750Y-37643061D01*
X34124639Y-37739285D01*
X34109456Y-37748865D01*
X33929998Y-37901596D01*
X33918114Y-37915053D01*
X33788735Y-38112013D01*
X33781105Y-38128264D01*
X33712207Y-38353618D01*
X33709445Y-38371358D01*
X33706567Y-38606993D01*
X33708895Y-38624794D01*
X33772265Y-38851765D01*
X33779496Y-38868198D01*
X33904024Y-39068259D01*
X33915576Y-39082002D01*
X34091249Y-39239071D01*
X34106193Y-39249019D01*
X34318888Y-39350470D01*
X34336025Y-39355824D01*
X34453702Y-39374883D01*
X34357012Y-39388128D01*
X34339750Y-39393061D01*
X34124639Y-39489285D01*
X34109456Y-39498865D01*
X33929998Y-39651596D01*
X33918114Y-39665053D01*
X33788735Y-39862013D01*
X33781105Y-39878264D01*
X33712207Y-40103618D01*
X33709445Y-40121358D01*
X33706567Y-40356993D01*
X33708895Y-40374794D01*
X33772265Y-40601765D01*
X33779496Y-40618198D01*
X33904024Y-40818259D01*
X33915576Y-40832002D01*
X34091249Y-40989071D01*
X34106193Y-40999019D01*
X34318888Y-41100470D01*
X34336025Y-41105824D01*
X34568646Y-41143500D01*
X34586596Y-41143829D01*
X34820440Y-41114702D01*
X34837761Y-41109980D01*
X34866000Y-41097760D01*
X34866001Y-49366000D01*
X12634000Y-49366000D01*
X12634000Y-47191808D01*
X16096000Y-47191808D01*
X16096000Y-47440350D01*
X16096301Y-47446502D01*
X16110901Y-47595404D01*
X16113295Y-47607495D01*
X16171159Y-47799149D01*
X16175855Y-47810543D01*
X16269843Y-47987308D01*
X16276663Y-47997574D01*
X16403194Y-48152717D01*
X16411878Y-48161463D01*
X16566134Y-48289074D01*
X16576352Y-48295966D01*
X16752456Y-48391185D01*
X16763819Y-48395961D01*
X16949542Y-48453451D01*
X17052000Y-48377912D01*
X17052000Y-48377013D01*
X17307999Y-48377013D01*
X17409045Y-48452605D01*
X17582095Y-48401674D01*
X17593522Y-48397057D01*
X17770940Y-48304306D01*
X17781254Y-48297557D01*
X17937275Y-48172111D01*
X17946080Y-48163488D01*
X18074766Y-48010128D01*
X18081729Y-47999958D01*
X18178175Y-47824523D01*
X18183031Y-47813195D01*
X18243631Y-47622157D01*
X18246242Y-47609662D01*
X18263655Y-47443988D01*
X18264000Y-47437398D01*
X18264000Y-47191809D01*
X18263999Y-47191808D01*
X24736000Y-47191808D01*
X24736000Y-47440350D01*
X24736301Y-47446502D01*
X24750901Y-47595404D01*
X24753295Y-47607495D01*
X24811159Y-47799149D01*
X24815855Y-47810543D01*
X24909843Y-47987308D01*
X24916663Y-47997574D01*
X25043194Y-48152717D01*
X25051878Y-48161463D01*
X25206134Y-48289074D01*
X25216352Y-48295966D01*
X25392456Y-48391185D01*
X25403819Y-48395961D01*
X25589542Y-48453451D01*
X25692000Y-48377912D01*
X25692000Y-48377013D01*
X25947999Y-48377013D01*
X26049045Y-48452605D01*
X26222095Y-48401674D01*
X26233522Y-48397057D01*
X26410940Y-48304306D01*
X26421254Y-48297557D01*
X26577275Y-48172111D01*
X26586080Y-48163488D01*
X26714766Y-48010128D01*
X26721729Y-47999958D01*
X26818175Y-47824523D01*
X26823031Y-47813195D01*
X26883631Y-47622157D01*
X26886242Y-47609662D01*
X26903655Y-47443988D01*
X26904000Y-47437398D01*
X26904000Y-47191809D01*
X26830191Y-47118000D01*
X26021809Y-47117999D01*
X25948000Y-47191808D01*
X25947999Y-48377013D01*
X25692000Y-48377013D01*
X25692001Y-47191809D01*
X25618192Y-47118000D01*
X24809809Y-47117999D01*
X24736000Y-47191808D01*
X18263999Y-47191808D01*
X18190191Y-47118000D01*
X17381809Y-47117999D01*
X17308000Y-47191808D01*
X17307999Y-48377013D01*
X17052000Y-48377013D01*
X17052001Y-47191809D01*
X16978192Y-47118000D01*
X16169809Y-47117999D01*
X16096000Y-47191808D01*
X12634000Y-47191808D01*
X12634000Y-46542601D01*
X16096000Y-46542601D01*
X16096000Y-46788191D01*
X16169809Y-46862000D01*
X16978191Y-46862001D01*
X17052000Y-46788192D01*
X17052001Y-45602987D01*
X16950955Y-45527395D01*
X16777905Y-45578326D01*
X16766478Y-45582943D01*
X16589061Y-45675694D01*
X16578747Y-45682443D01*
X16422726Y-45807889D01*
X16413921Y-45816512D01*
X16285235Y-45969872D01*
X16278272Y-45980042D01*
X16181826Y-46155477D01*
X16176970Y-46166805D01*
X16116370Y-46357842D01*
X16113760Y-46370338D01*
X16096345Y-46536011D01*
X16096000Y-46542601D01*
X12634000Y-46542601D01*
X12634000Y-43021808D01*
X16096000Y-43021808D01*
X16096000Y-43420350D01*
X16096301Y-43426502D01*
X16110901Y-43575404D01*
X16113295Y-43587495D01*
X16171159Y-43779149D01*
X16175855Y-43790543D01*
X16269843Y-43967308D01*
X16276663Y-43977574D01*
X16403194Y-44132717D01*
X16411878Y-44141463D01*
X16566134Y-44269074D01*
X16576352Y-44275966D01*
X16752456Y-44371185D01*
X16763819Y-44375961D01*
X16949542Y-44433451D01*
X17052000Y-44357912D01*
X17052001Y-43021809D01*
X16978192Y-42948000D01*
X16169809Y-42947999D01*
X16096000Y-43021808D01*
X12634000Y-43021808D01*
X12634000Y-42222602D01*
X16096001Y-42222602D01*
X16096001Y-42618191D01*
X16169810Y-42692000D01*
X16978191Y-42692001D01*
X17052000Y-42618192D01*
X17307999Y-42618192D01*
X17308000Y-42618193D01*
X17307999Y-44357013D01*
X17409045Y-44432605D01*
X17495305Y-44407217D01*
X17492587Y-44629752D01*
X17494915Y-44647553D01*
X17558285Y-44874524D01*
X17565516Y-44890957D01*
X17646813Y-45021566D01*
X17609735Y-45078013D01*
X17602105Y-45094264D01*
X17533207Y-45319618D01*
X17530445Y-45337358D01*
X17527691Y-45562838D01*
X17410458Y-45526549D01*
X17308000Y-45602088D01*
X17307999Y-46788191D01*
X17381808Y-46862000D01*
X18190191Y-46862001D01*
X18264000Y-46788192D01*
X18264000Y-46542601D01*
X24736000Y-46542601D01*
X24736000Y-46788191D01*
X24809809Y-46862000D01*
X25618191Y-46862001D01*
X25692000Y-46788192D01*
X25692000Y-46788191D01*
X25947999Y-46788191D01*
X26021808Y-46862000D01*
X26830191Y-46862001D01*
X26904000Y-46788192D01*
X26904000Y-46539650D01*
X26903699Y-46533498D01*
X26889099Y-46384595D01*
X26886705Y-46372504D01*
X26828841Y-46180850D01*
X26824144Y-46169456D01*
X26805869Y-46135085D01*
X31012688Y-46135085D01*
X31015016Y-46152886D01*
X31078386Y-46379857D01*
X31085617Y-46396290D01*
X31210145Y-46596351D01*
X31221697Y-46610094D01*
X31397370Y-46767163D01*
X31412314Y-46777111D01*
X31625009Y-46878562D01*
X31642146Y-46883916D01*
X31874767Y-46921592D01*
X31892717Y-46921921D01*
X32126561Y-46892794D01*
X32143882Y-46888072D01*
X32360153Y-46794484D01*
X32375452Y-46785090D01*
X32556763Y-46634563D01*
X32568811Y-46621253D01*
X32700585Y-46425888D01*
X32708413Y-46409732D01*
X32780177Y-46184867D01*
X32783171Y-46166381D01*
X32786286Y-45911420D01*
X32783745Y-45892866D01*
X32717497Y-45666315D01*
X32710066Y-45649971D01*
X32583104Y-45451446D01*
X32571385Y-45437845D01*
X32393806Y-45282933D01*
X32378741Y-45273168D01*
X32164821Y-45174324D01*
X32147621Y-45169180D01*
X31914557Y-45134348D01*
X31896604Y-45134239D01*
X31663133Y-45166220D01*
X31645871Y-45171153D01*
X31430760Y-45267377D01*
X31415577Y-45276957D01*
X31236119Y-45429688D01*
X31224235Y-45443145D01*
X31094856Y-45640105D01*
X31087226Y-45656356D01*
X31018328Y-45881710D01*
X31015566Y-45899450D01*
X31012688Y-46135085D01*
X26805869Y-46135085D01*
X26730157Y-45992692D01*
X26723337Y-45982426D01*
X26596806Y-45827283D01*
X26588122Y-45818537D01*
X26433866Y-45690926D01*
X26423648Y-45684034D01*
X26247544Y-45588815D01*
X26236181Y-45584039D01*
X26050458Y-45526549D01*
X25948000Y-45602088D01*
X25947999Y-46788191D01*
X25692000Y-46788191D01*
X25692001Y-45602987D01*
X25590955Y-45527395D01*
X25417905Y-45578326D01*
X25406478Y-45582943D01*
X25229061Y-45675694D01*
X25218747Y-45682443D01*
X25062726Y-45807889D01*
X25053921Y-45816512D01*
X24925235Y-45969872D01*
X24918272Y-45980042D01*
X24821826Y-46155477D01*
X24816970Y-46166805D01*
X24756370Y-46357842D01*
X24753760Y-46370338D01*
X24736345Y-46536011D01*
X24736000Y-46542601D01*
X18264000Y-46542601D01*
X18264000Y-46539650D01*
X18263699Y-46533498D01*
X18249099Y-46384595D01*
X18246705Y-46372504D01*
X18235228Y-46334490D01*
X18389646Y-46359500D01*
X18407596Y-46359829D01*
X18641440Y-46330702D01*
X18658761Y-46325980D01*
X18875032Y-46232392D01*
X18890331Y-46222998D01*
X19071642Y-46072471D01*
X19083690Y-46059161D01*
X19215464Y-45863796D01*
X19223292Y-45847640D01*
X19295056Y-45622775D01*
X19298050Y-45604289D01*
X19301165Y-45349328D01*
X19298624Y-45330774D01*
X19232376Y-45104223D01*
X19224945Y-45087879D01*
X19148378Y-44968155D01*
X19180484Y-44920555D01*
X19188312Y-44904399D01*
X19260076Y-44679534D01*
X19263070Y-44661048D01*
X19266185Y-44406087D01*
X19263644Y-44387533D01*
X19197396Y-44160982D01*
X19189965Y-44144638D01*
X19141654Y-44069095D01*
X19252529Y-43984937D01*
X19262732Y-43975220D01*
X19318112Y-43909220D01*
X19376024Y-44002259D01*
X19387576Y-44016002D01*
X19563249Y-44173071D01*
X19578193Y-44183019D01*
X19790888Y-44284470D01*
X19808025Y-44289824D01*
X20040646Y-44327500D01*
X20058596Y-44327829D01*
X20292440Y-44298702D01*
X20309761Y-44293980D01*
X20415190Y-44248357D01*
X20490901Y-44284470D01*
X20508038Y-44289824D01*
X20740659Y-44327500D01*
X20758609Y-44327829D01*
X20992453Y-44298702D01*
X21009774Y-44293980D01*
X21226045Y-44200392D01*
X21241344Y-44190998D01*
X21386510Y-44070480D01*
X21568888Y-44157470D01*
X21586025Y-44162824D01*
X21818646Y-44200500D01*
X21836596Y-44200829D01*
X22070440Y-44171702D01*
X22087761Y-44166980D01*
X22304032Y-44073392D01*
X22319331Y-44063998D01*
X22436328Y-43966866D01*
X22514963Y-44093198D01*
X22526515Y-44106941D01*
X22702188Y-44264010D01*
X22717132Y-44273958D01*
X22929827Y-44375409D01*
X22946964Y-44380763D01*
X23179585Y-44418439D01*
X23197535Y-44418768D01*
X23431379Y-44389641D01*
X23448700Y-44384919D01*
X23664971Y-44291331D01*
X23680270Y-44281937D01*
X23861581Y-44131410D01*
X23873629Y-44118100D01*
X23889974Y-44093867D01*
X24056049Y-44177757D01*
X24069255Y-44182668D01*
X24258814Y-44229930D01*
X24272779Y-44231794D01*
X24468098Y-44235886D01*
X24482130Y-44234609D01*
X24673502Y-44195325D01*
X24686901Y-44190971D01*
X24864814Y-44110267D01*
X24876916Y-44103053D01*
X24964674Y-44036441D01*
X25043194Y-44132717D01*
X25051878Y-44141463D01*
X25206134Y-44269074D01*
X25216352Y-44275966D01*
X25392456Y-44371185D01*
X25403819Y-44375961D01*
X25589542Y-44433451D01*
X25692000Y-44357912D01*
X25692000Y-44357013D01*
X25947999Y-44357013D01*
X26049045Y-44432605D01*
X26222095Y-44381674D01*
X26233522Y-44377057D01*
X26410940Y-44284306D01*
X26421254Y-44277557D01*
X26577275Y-44152111D01*
X26586080Y-44143488D01*
X26714766Y-43990128D01*
X26721729Y-43979958D01*
X26818175Y-43804523D01*
X26823031Y-43793195D01*
X26883631Y-43602157D01*
X26886242Y-43589662D01*
X26903655Y-43423988D01*
X26904000Y-43417398D01*
X26904000Y-43021809D01*
X26830191Y-42948000D01*
X26021809Y-42947999D01*
X25948000Y-43021808D01*
X25947999Y-44357013D01*
X25692000Y-44357013D01*
X25692001Y-43021808D01*
X25692000Y-43021807D01*
X25692001Y-42692000D01*
X26830191Y-42692001D01*
X26904000Y-42618192D01*
X26904000Y-42397993D01*
X28322567Y-42397993D01*
X28324895Y-42415794D01*
X28388265Y-42642765D01*
X28395496Y-42659198D01*
X28520024Y-42859259D01*
X28531576Y-42873002D01*
X28707249Y-43030071D01*
X28722193Y-43040019D01*
X28933797Y-43140949D01*
X28912735Y-43173013D01*
X28905105Y-43189264D01*
X28836207Y-43414618D01*
X28833445Y-43432358D01*
X28830567Y-43667993D01*
X28832895Y-43685794D01*
X28896265Y-43912765D01*
X28903496Y-43929198D01*
X29028024Y-44129259D01*
X29036529Y-44139377D01*
X28926998Y-44232596D01*
X28915114Y-44246053D01*
X28785735Y-44443013D01*
X28778105Y-44459264D01*
X28709207Y-44684618D01*
X28706445Y-44702358D01*
X28703567Y-44937993D01*
X28705895Y-44955794D01*
X28769265Y-45182765D01*
X28776496Y-45199198D01*
X28901024Y-45399259D01*
X28912576Y-45413002D01*
X29088249Y-45570071D01*
X29103193Y-45580019D01*
X29315888Y-45681470D01*
X29333025Y-45686824D01*
X29565646Y-45724500D01*
X29583596Y-45724829D01*
X29817440Y-45695702D01*
X29834761Y-45690980D01*
X30051032Y-45597392D01*
X30066331Y-45587998D01*
X30247642Y-45437471D01*
X30259690Y-45424161D01*
X30391464Y-45228796D01*
X30399292Y-45212640D01*
X30471056Y-44987775D01*
X30474050Y-44969289D01*
X30477165Y-44714328D01*
X30474624Y-44695774D01*
X30408376Y-44469223D01*
X30400945Y-44452879D01*
X30273983Y-44254353D01*
X30272318Y-44252421D01*
X30374642Y-44167471D01*
X30386690Y-44154161D01*
X30518464Y-43958796D01*
X30526292Y-43942640D01*
X30596970Y-43721179D01*
X30712888Y-43776470D01*
X30730025Y-43781824D01*
X30962646Y-43819500D01*
X30980596Y-43819829D01*
X31214440Y-43790702D01*
X31231761Y-43785980D01*
X31448032Y-43692392D01*
X31463331Y-43682998D01*
X31644642Y-43532471D01*
X31656690Y-43519161D01*
X31788464Y-43323796D01*
X31796292Y-43307640D01*
X31868056Y-43082775D01*
X31871050Y-43064289D01*
X31874165Y-42809328D01*
X31871624Y-42790774D01*
X31867069Y-42775196D01*
X31900080Y-42790942D01*
X31917217Y-42796296D01*
X32149838Y-42833972D01*
X32167788Y-42834301D01*
X32401632Y-42805174D01*
X32418953Y-42800452D01*
X32635224Y-42706864D01*
X32650523Y-42697470D01*
X32831834Y-42546943D01*
X32843882Y-42533633D01*
X32975656Y-42338268D01*
X32983484Y-42322112D01*
X33055248Y-42097247D01*
X33058242Y-42078761D01*
X33061357Y-41823800D01*
X33058816Y-41805246D01*
X32992568Y-41578695D01*
X32985137Y-41562351D01*
X32858175Y-41363826D01*
X32846456Y-41350225D01*
X32668877Y-41195313D01*
X32653812Y-41185548D01*
X32439892Y-41086704D01*
X32422692Y-41081560D01*
X32189628Y-41046728D01*
X32171675Y-41046619D01*
X31938204Y-41078600D01*
X31920942Y-41083533D01*
X31705831Y-41179757D01*
X31690648Y-41189337D01*
X31511190Y-41342068D01*
X31499306Y-41355525D01*
X31369927Y-41552485D01*
X31362297Y-41568736D01*
X31293399Y-41794090D01*
X31290637Y-41811830D01*
X31287759Y-42047465D01*
X31290087Y-42065266D01*
X31297858Y-42093098D01*
X31252700Y-42072232D01*
X31235500Y-42067088D01*
X31002436Y-42032256D01*
X30984483Y-42032147D01*
X30751012Y-42064128D01*
X30733750Y-42069061D01*
X30518639Y-42165285D01*
X30503456Y-42174865D01*
X30323998Y-42327596D01*
X30312114Y-42341053D01*
X30182735Y-42538013D01*
X30175105Y-42554264D01*
X30110311Y-42766196D01*
X29994387Y-42712632D01*
X30010464Y-42688796D01*
X30018292Y-42672640D01*
X30090056Y-42447775D01*
X30093050Y-42429289D01*
X30096165Y-42174328D01*
X30093624Y-42155774D01*
X30052478Y-42015064D01*
X30071440Y-42012702D01*
X30088761Y-42007980D01*
X30305032Y-41914392D01*
X30320331Y-41904998D01*
X30501642Y-41754471D01*
X30513690Y-41741161D01*
X30645464Y-41545796D01*
X30653292Y-41529640D01*
X30725056Y-41304775D01*
X30728050Y-41286289D01*
X30731165Y-41031328D01*
X30728624Y-41012774D01*
X30662376Y-40786223D01*
X30654945Y-40769879D01*
X30527983Y-40571354D01*
X30516264Y-40557753D01*
X30338685Y-40402841D01*
X30323620Y-40393076D01*
X30109700Y-40294232D01*
X30092500Y-40289088D01*
X29859436Y-40254256D01*
X29841483Y-40254147D01*
X29608012Y-40286128D01*
X29590750Y-40291061D01*
X29375639Y-40387285D01*
X29360456Y-40396865D01*
X29180998Y-40549596D01*
X29169114Y-40563053D01*
X29039735Y-40760013D01*
X29032105Y-40776264D01*
X28963207Y-41001618D01*
X28960445Y-41019358D01*
X28957567Y-41254993D01*
X28959895Y-41272794D01*
X29002419Y-41425100D01*
X28973012Y-41429128D01*
X28955750Y-41434061D01*
X28740639Y-41530285D01*
X28725456Y-41539865D01*
X28545998Y-41692596D01*
X28534114Y-41706053D01*
X28404735Y-41903013D01*
X28397105Y-41919264D01*
X28328207Y-42144618D01*
X28325445Y-42162358D01*
X28322567Y-42397993D01*
X26904000Y-42397993D01*
X26904000Y-42219649D01*
X26903699Y-42213497D01*
X26889099Y-42064595D01*
X26886705Y-42052504D01*
X26843934Y-41910840D01*
X26853470Y-41904985D01*
X27034781Y-41754458D01*
X27046829Y-41741148D01*
X27178603Y-41545783D01*
X27186431Y-41529627D01*
X27258195Y-41304762D01*
X27261189Y-41286276D01*
X27264304Y-41031315D01*
X27261763Y-41012761D01*
X27195515Y-40786210D01*
X27188084Y-40769866D01*
X27061122Y-40571341D01*
X27049403Y-40557740D01*
X26871824Y-40402828D01*
X26856759Y-40393063D01*
X26642839Y-40294219D01*
X26625639Y-40289075D01*
X26392575Y-40254243D01*
X26374622Y-40254134D01*
X26141151Y-40286115D01*
X26123889Y-40291048D01*
X25908778Y-40387272D01*
X25893595Y-40396852D01*
X25714137Y-40549583D01*
X25702253Y-40563040D01*
X25572874Y-40760000D01*
X25565244Y-40776251D01*
X25496346Y-41001605D01*
X25493584Y-41019345D01*
X25490928Y-41236835D01*
X25417906Y-41258326D01*
X25406478Y-41262943D01*
X25229061Y-41355694D01*
X25218747Y-41362443D01*
X25062726Y-41487889D01*
X25053921Y-41496512D01*
X24925235Y-41649872D01*
X24918272Y-41660042D01*
X24821826Y-41835477D01*
X24816970Y-41846805D01*
X24756370Y-42037843D01*
X24753759Y-42050338D01*
X24736346Y-42216012D01*
X24736001Y-42222602D01*
X24736001Y-42429536D01*
X24711663Y-42417666D01*
X24698391Y-42412940D01*
X24508190Y-42368328D01*
X24494200Y-42366660D01*
X24298843Y-42365296D01*
X24284831Y-42366769D01*
X24094025Y-42408720D01*
X24080688Y-42413260D01*
X23903919Y-42496442D01*
X23891919Y-42503825D01*
X23737971Y-42624102D01*
X23727904Y-42633959D01*
X23635174Y-42747658D01*
X23469639Y-42671171D01*
X23452439Y-42666027D01*
X23219375Y-42631195D01*
X23201422Y-42631086D01*
X22967951Y-42663067D01*
X22950689Y-42668000D01*
X22735578Y-42764224D01*
X22720395Y-42773804D01*
X22613145Y-42865081D01*
X22526983Y-42730354D01*
X22515264Y-42716753D01*
X22337685Y-42561841D01*
X22322620Y-42552076D01*
X22108700Y-42453232D01*
X22091500Y-42448088D01*
X21858436Y-42413256D01*
X21840483Y-42413147D01*
X21607012Y-42445128D01*
X21589750Y-42450061D01*
X21374639Y-42546285D01*
X21359456Y-42555865D01*
X21225222Y-42670107D01*
X21030713Y-42580232D01*
X21013513Y-42575088D01*
X20780449Y-42540256D01*
X20762496Y-42540147D01*
X20529025Y-42572128D01*
X20511764Y-42577061D01*
X20416278Y-42619774D01*
X20330700Y-42580232D01*
X20313500Y-42575088D01*
X20080436Y-42540256D01*
X20062483Y-42540147D01*
X19829012Y-42572128D01*
X19811750Y-42577061D01*
X19596639Y-42673285D01*
X19581456Y-42682865D01*
X19417068Y-42822770D01*
X19410145Y-42808320D01*
X19402679Y-42796372D01*
X19281330Y-42643268D01*
X19271402Y-42633270D01*
X19119149Y-42510856D01*
X19107253Y-42503307D01*
X18931663Y-42417666D01*
X18918391Y-42412940D01*
X18728190Y-42368328D01*
X18714200Y-42366660D01*
X18518843Y-42365296D01*
X18504831Y-42366769D01*
X18314025Y-42408720D01*
X18300688Y-42413260D01*
X18264000Y-42430524D01*
X18264000Y-42219649D01*
X18263699Y-42213497D01*
X18249099Y-42064595D01*
X18246705Y-42052504D01*
X18188841Y-41860850D01*
X18184144Y-41849456D01*
X18090157Y-41672692D01*
X18083337Y-41662426D01*
X17956806Y-41507283D01*
X17948122Y-41498537D01*
X17793866Y-41370926D01*
X17783648Y-41364034D01*
X17607544Y-41268815D01*
X17596181Y-41264039D01*
X17410458Y-41206549D01*
X17308000Y-41282088D01*
X17307999Y-42618192D01*
X17052000Y-42618192D01*
X17052001Y-41282987D01*
X16950955Y-41207395D01*
X16777905Y-41258326D01*
X16766478Y-41262943D01*
X16589061Y-41355694D01*
X16578747Y-41362443D01*
X16422726Y-41487889D01*
X16413921Y-41496512D01*
X16285235Y-41649872D01*
X16278272Y-41660042D01*
X16181826Y-41835477D01*
X16176970Y-41846805D01*
X16116370Y-42037843D01*
X16113759Y-42050338D01*
X16096346Y-42216012D01*
X16096001Y-42222602D01*
X12634000Y-42222602D01*
X12634000Y-35412993D01*
X14479567Y-35412993D01*
X14481895Y-35430794D01*
X14545265Y-35657765D01*
X14552496Y-35674198D01*
X14677024Y-35874259D01*
X14688576Y-35888002D01*
X14864249Y-36045071D01*
X14879193Y-36055019D01*
X15091888Y-36156470D01*
X15109025Y-36161824D01*
X15341646Y-36199500D01*
X15359596Y-36199829D01*
X15593440Y-36170702D01*
X15610761Y-36165980D01*
X15827032Y-36072392D01*
X15842331Y-36062998D01*
X16023642Y-35912471D01*
X16035690Y-35899161D01*
X16167464Y-35703796D01*
X16175292Y-35687640D01*
X16219772Y-35548265D01*
X16310024Y-35693259D01*
X16321576Y-35707002D01*
X16497249Y-35864071D01*
X16512193Y-35874019D01*
X16724888Y-35975470D01*
X16742025Y-35980824D01*
X16974646Y-36018500D01*
X16992596Y-36018829D01*
X17226440Y-35989702D01*
X17243761Y-35984980D01*
X17460032Y-35891392D01*
X17475331Y-35881998D01*
X17656642Y-35731471D01*
X17668690Y-35718161D01*
X17800464Y-35522796D01*
X17808292Y-35506640D01*
X17880056Y-35281775D01*
X17883050Y-35263289D01*
X17886165Y-35008328D01*
X17883624Y-34989774D01*
X17817376Y-34763223D01*
X17809945Y-34746879D01*
X17682983Y-34548354D01*
X17671264Y-34534753D01*
X17580861Y-34455890D01*
X17741450Y-34435887D01*
X17758771Y-34431165D01*
X17975042Y-34337577D01*
X17990341Y-34328183D01*
X18171652Y-34177656D01*
X18183700Y-34164346D01*
X18280502Y-34020831D01*
X18310024Y-34068259D01*
X18321576Y-34082002D01*
X18451814Y-34198447D01*
X18421963Y-34211800D01*
X18406780Y-34221380D01*
X18227322Y-34374111D01*
X18215438Y-34387568D01*
X18086059Y-34584528D01*
X18078429Y-34600779D01*
X18009531Y-34826133D01*
X18006769Y-34843873D01*
X18003891Y-35079508D01*
X18006219Y-35097309D01*
X18069589Y-35324280D01*
X18076820Y-35340713D01*
X18201348Y-35540774D01*
X18212900Y-35554517D01*
X18388573Y-35711586D01*
X18403517Y-35721534D01*
X18616212Y-35822985D01*
X18633349Y-35828339D01*
X18865970Y-35866015D01*
X18883920Y-35866344D01*
X19117764Y-35837217D01*
X19135085Y-35832495D01*
X19351356Y-35738907D01*
X19366655Y-35729513D01*
X19547966Y-35578986D01*
X19552621Y-35573844D01*
X19532811Y-35638638D01*
X19530049Y-35656378D01*
X19527171Y-35892013D01*
X19529499Y-35909814D01*
X19592869Y-36136785D01*
X19600100Y-36153218D01*
X19724628Y-36353279D01*
X19736180Y-36367022D01*
X19911853Y-36524091D01*
X19926797Y-36534039D01*
X20139492Y-36635490D01*
X20156629Y-36640844D01*
X20389250Y-36678520D01*
X20407200Y-36678849D01*
X20459441Y-36672342D01*
X20365690Y-36714279D01*
X20350507Y-36723859D01*
X20171049Y-36876590D01*
X20159165Y-36890047D01*
X20072470Y-37022027D01*
X19986983Y-36888354D01*
X19975264Y-36874753D01*
X19797685Y-36719841D01*
X19782620Y-36710076D01*
X19568700Y-36611232D01*
X19551500Y-36606088D01*
X19318436Y-36571256D01*
X19300483Y-36571147D01*
X19067012Y-36603128D01*
X19049750Y-36608061D01*
X18834639Y-36704285D01*
X18819456Y-36713865D01*
X18732585Y-36787798D01*
X18654685Y-36719841D01*
X18639620Y-36710076D01*
X18425700Y-36611232D01*
X18408500Y-36606088D01*
X18175436Y-36571256D01*
X18157483Y-36571147D01*
X17924012Y-36603128D01*
X17906750Y-36608061D01*
X17691639Y-36704285D01*
X17676456Y-36713865D01*
X17496998Y-36866596D01*
X17485114Y-36880053D01*
X17355735Y-37077013D01*
X17348105Y-37093264D01*
X17279207Y-37318618D01*
X17276445Y-37336358D01*
X17273567Y-37571993D01*
X17275895Y-37589794D01*
X17339265Y-37816765D01*
X17346496Y-37833198D01*
X17471024Y-38033259D01*
X17482576Y-38047002D01*
X17658249Y-38204071D01*
X17673193Y-38214019D01*
X17885888Y-38315470D01*
X17903025Y-38320824D01*
X18135646Y-38358500D01*
X18153596Y-38358829D01*
X18387440Y-38329702D01*
X18404761Y-38324980D01*
X18621032Y-38231392D01*
X18636331Y-38221998D01*
X18732242Y-38142372D01*
X18801249Y-38204071D01*
X18816193Y-38214019D01*
X18845758Y-38228121D01*
X18766090Y-38239034D01*
X18748828Y-38243967D01*
X18533717Y-38340191D01*
X18518534Y-38349771D01*
X18339076Y-38502502D01*
X18327192Y-38515959D01*
X18197813Y-38712919D01*
X18190183Y-38729170D01*
X18121285Y-38954524D01*
X18118523Y-38972264D01*
X18115645Y-39207899D01*
X18117973Y-39225700D01*
X18181343Y-39452671D01*
X18188574Y-39469104D01*
X18313102Y-39669165D01*
X18324654Y-39682908D01*
X18500327Y-39839977D01*
X18515271Y-39849925D01*
X18727966Y-39951376D01*
X18745103Y-39956730D01*
X18977724Y-39994406D01*
X18995674Y-39994735D01*
X19229518Y-39965608D01*
X19246839Y-39960886D01*
X19367820Y-39908533D01*
X19396092Y-40009795D01*
X19403323Y-40026228D01*
X19527851Y-40226289D01*
X19539403Y-40240032D01*
X19715076Y-40397101D01*
X19730020Y-40407049D01*
X19942715Y-40508500D01*
X19959852Y-40513854D01*
X20192473Y-40551530D01*
X20210423Y-40551859D01*
X20444267Y-40522732D01*
X20461588Y-40518010D01*
X20519399Y-40492993D01*
X21718567Y-40492993D01*
X21720895Y-40510794D01*
X21784265Y-40737765D01*
X21791496Y-40754198D01*
X21916024Y-40954259D01*
X21927576Y-40968002D01*
X22103249Y-41125071D01*
X22118193Y-41135019D01*
X22330888Y-41236470D01*
X22348025Y-41241824D01*
X22580646Y-41279500D01*
X22598596Y-41279829D01*
X22832440Y-41250702D01*
X22849761Y-41245980D01*
X23066032Y-41152392D01*
X23081331Y-41142998D01*
X23262642Y-40992471D01*
X23274690Y-40979161D01*
X23406464Y-40783796D01*
X23414292Y-40767640D01*
X23486056Y-40542775D01*
X23489050Y-40524289D01*
X23492165Y-40269328D01*
X23489624Y-40250774D01*
X23423376Y-40024223D01*
X23415945Y-40007879D01*
X23288983Y-39809354D01*
X23277264Y-39795753D01*
X23099685Y-39640841D01*
X23084620Y-39631076D01*
X22870700Y-39532232D01*
X22853500Y-39527088D01*
X22620436Y-39492256D01*
X22602483Y-39492147D01*
X22369012Y-39524128D01*
X22351750Y-39529061D01*
X22136639Y-39625285D01*
X22121456Y-39634865D01*
X21941998Y-39787596D01*
X21930114Y-39801053D01*
X21800735Y-39998013D01*
X21793105Y-40014264D01*
X21724207Y-40239618D01*
X21721445Y-40257358D01*
X21718567Y-40492993D01*
X20519399Y-40492993D01*
X20677859Y-40424422D01*
X20693158Y-40415028D01*
X20874469Y-40264501D01*
X20886517Y-40251191D01*
X21018291Y-40055826D01*
X21026119Y-40039670D01*
X21097883Y-39814805D01*
X21100877Y-39796319D01*
X21103992Y-39541358D01*
X21101451Y-39522804D01*
X21035203Y-39296253D01*
X21027772Y-39279909D01*
X20900810Y-39081384D01*
X20889091Y-39067783D01*
X20711512Y-38912871D01*
X20696447Y-38903106D01*
X20482527Y-38804262D01*
X20465327Y-38799118D01*
X20232263Y-38764286D01*
X20214310Y-38764177D01*
X19980839Y-38796158D01*
X19963577Y-38801091D01*
X19853033Y-38850540D01*
X19820454Y-38739129D01*
X19813023Y-38722785D01*
X19686061Y-38524260D01*
X19674342Y-38510659D01*
X19496763Y-38355747D01*
X19481698Y-38345982D01*
X19464295Y-38337941D01*
X19530440Y-38329702D01*
X19547761Y-38324980D01*
X19764032Y-38231392D01*
X19779331Y-38221998D01*
X19960642Y-38071471D01*
X19972690Y-38058161D01*
X20067168Y-37918091D01*
X20145075Y-38043253D01*
X20156627Y-38056996D01*
X20332300Y-38214065D01*
X20347244Y-38224013D01*
X20559939Y-38325464D01*
X20577076Y-38330818D01*
X20809697Y-38368494D01*
X20827647Y-38368823D01*
X21061491Y-38339696D01*
X21078812Y-38334974D01*
X21295083Y-38241386D01*
X21310382Y-38231992D01*
X21378549Y-38175398D01*
X29682265Y-38175398D01*
X29684593Y-38193199D01*
X29747963Y-38420170D01*
X29755194Y-38436603D01*
X29879722Y-38636664D01*
X29891274Y-38650407D01*
X30066947Y-38807476D01*
X30081891Y-38817424D01*
X30294586Y-38918875D01*
X30311723Y-38924229D01*
X30544344Y-38961905D01*
X30562294Y-38962234D01*
X30796138Y-38933107D01*
X30813459Y-38928385D01*
X30834848Y-38919129D01*
X30859636Y-38958953D01*
X30871188Y-38972696D01*
X31046861Y-39129765D01*
X31061805Y-39139713D01*
X31274500Y-39241164D01*
X31291637Y-39246518D01*
X31524258Y-39284194D01*
X31542208Y-39284523D01*
X31776052Y-39255396D01*
X31793373Y-39250674D01*
X32009644Y-39157086D01*
X32024943Y-39147692D01*
X32206254Y-38997165D01*
X32218303Y-38983854D01*
X32219644Y-38981866D01*
X32357440Y-38964702D01*
X32374761Y-38959980D01*
X32591032Y-38866392D01*
X32606331Y-38856998D01*
X32787642Y-38706471D01*
X32799690Y-38693161D01*
X32931464Y-38497796D01*
X32939292Y-38481640D01*
X33011056Y-38256775D01*
X33014050Y-38238289D01*
X33017165Y-37983328D01*
X33014624Y-37964774D01*
X32948376Y-37738223D01*
X32940945Y-37721879D01*
X32813983Y-37523354D01*
X32802264Y-37509753D01*
X32624685Y-37354841D01*
X32609620Y-37345076D01*
X32395700Y-37246232D01*
X32378500Y-37241088D01*
X32145436Y-37206256D01*
X32127483Y-37206147D01*
X31894012Y-37238128D01*
X31876750Y-37243061D01*
X31661639Y-37339285D01*
X31646456Y-37348865D01*
X31466998Y-37501596D01*
X31460890Y-37508512D01*
X31312624Y-37528822D01*
X31295363Y-37533755D01*
X31283059Y-37539259D01*
X31252681Y-37491759D01*
X31240962Y-37478158D01*
X31063383Y-37323246D01*
X31048318Y-37313481D01*
X30834398Y-37214637D01*
X30817198Y-37209493D01*
X30584134Y-37174661D01*
X30566181Y-37174552D01*
X30332710Y-37206533D01*
X30315448Y-37211466D01*
X30100337Y-37307690D01*
X30085154Y-37317270D01*
X29905696Y-37470001D01*
X29893812Y-37483458D01*
X29764433Y-37680418D01*
X29756803Y-37696669D01*
X29687905Y-37922023D01*
X29685143Y-37939763D01*
X29682265Y-38175398D01*
X21378549Y-38175398D01*
X21491693Y-38081465D01*
X21503741Y-38068155D01*
X21635515Y-37872790D01*
X21643343Y-37856634D01*
X21715107Y-37631769D01*
X21718101Y-37613283D01*
X21721216Y-37358322D01*
X21718675Y-37339768D01*
X21652427Y-37113217D01*
X21644996Y-37096873D01*
X21623969Y-37063993D01*
X21845567Y-37063993D01*
X21847895Y-37081794D01*
X21911265Y-37308765D01*
X21918496Y-37325198D01*
X22043024Y-37525259D01*
X22054576Y-37539002D01*
X22230249Y-37696071D01*
X22245193Y-37706019D01*
X22457888Y-37807470D01*
X22475025Y-37812824D01*
X22707646Y-37850500D01*
X22725596Y-37850829D01*
X22959440Y-37821702D01*
X22976761Y-37816980D01*
X23193032Y-37723392D01*
X23208331Y-37713998D01*
X23389642Y-37563471D01*
X23401690Y-37550161D01*
X23533464Y-37354796D01*
X23541292Y-37338640D01*
X23613056Y-37113775D01*
X23616050Y-37095289D01*
X23619165Y-36840328D01*
X23616624Y-36821774D01*
X23550376Y-36595223D01*
X23542945Y-36578879D01*
X23415983Y-36380354D01*
X23404264Y-36366753D01*
X23226685Y-36211841D01*
X23211620Y-36202076D01*
X22997700Y-36103232D01*
X22980500Y-36098088D01*
X22747436Y-36063256D01*
X22729483Y-36063147D01*
X22496012Y-36095128D01*
X22478750Y-36100061D01*
X22263639Y-36196285D01*
X22248456Y-36205865D01*
X22068998Y-36358596D01*
X22057114Y-36372053D01*
X21927735Y-36569013D01*
X21920105Y-36585264D01*
X21851207Y-36810618D01*
X21848445Y-36828358D01*
X21845567Y-37063993D01*
X21623969Y-37063993D01*
X21518034Y-36898348D01*
X21506315Y-36884747D01*
X21328736Y-36729835D01*
X21313671Y-36720070D01*
X21099751Y-36621226D01*
X21082551Y-36616082D01*
X20849487Y-36581250D01*
X20831534Y-36581141D01*
X20794080Y-36586272D01*
X20874636Y-36551412D01*
X20889935Y-36542018D01*
X21071246Y-36391491D01*
X21083294Y-36378181D01*
X21215068Y-36182816D01*
X21222896Y-36166660D01*
X21288604Y-35960768D01*
X23837792Y-35960768D01*
X23840120Y-35978569D01*
X23903490Y-36205540D01*
X23910721Y-36221973D01*
X24035249Y-36422034D01*
X24046801Y-36435777D01*
X24222474Y-36592846D01*
X24237418Y-36602794D01*
X24450113Y-36704245D01*
X24467250Y-36709599D01*
X24699871Y-36747275D01*
X24717821Y-36747604D01*
X24951665Y-36718477D01*
X24968986Y-36713755D01*
X25185257Y-36620167D01*
X25200556Y-36610773D01*
X25381867Y-36460246D01*
X25393915Y-36446936D01*
X25525689Y-36251571D01*
X25533517Y-36235415D01*
X25560218Y-36151752D01*
X25570017Y-36154814D01*
X25802638Y-36192490D01*
X25820588Y-36192819D01*
X26054432Y-36163692D01*
X26071753Y-36158970D01*
X26288024Y-36065382D01*
X26303323Y-36055988D01*
X26484634Y-35905461D01*
X26496682Y-35892151D01*
X26628456Y-35696786D01*
X26636284Y-35680630D01*
X26708048Y-35455765D01*
X26711042Y-35437279D01*
X26714157Y-35182318D01*
X26711616Y-35163764D01*
X26645368Y-34937213D01*
X26637937Y-34920869D01*
X26601475Y-34863855D01*
X26648888Y-34886470D01*
X26666025Y-34891824D01*
X26898646Y-34929500D01*
X26916596Y-34929829D01*
X27150440Y-34900702D01*
X27167761Y-34895980D01*
X27384032Y-34802392D01*
X27399331Y-34792998D01*
X27580642Y-34642471D01*
X27592690Y-34629161D01*
X27724464Y-34433796D01*
X27732292Y-34417640D01*
X27804056Y-34192775D01*
X27807050Y-34174289D01*
X27810165Y-33919328D01*
X27807624Y-33900774D01*
X27741376Y-33674223D01*
X27733945Y-33657879D01*
X27606983Y-33459354D01*
X27595264Y-33445753D01*
X27417685Y-33290841D01*
X27402620Y-33281076D01*
X27188700Y-33182232D01*
X27171500Y-33177088D01*
X26938436Y-33142256D01*
X26920483Y-33142147D01*
X26687012Y-33174128D01*
X26669750Y-33179061D01*
X26454639Y-33275285D01*
X26439456Y-33284865D01*
X26259998Y-33437596D01*
X26248114Y-33451053D01*
X26118735Y-33648013D01*
X26111105Y-33664264D01*
X26042207Y-33889618D01*
X26039445Y-33907358D01*
X26036567Y-34142993D01*
X26038895Y-34160794D01*
X26102265Y-34387765D01*
X26109496Y-34404198D01*
X26152125Y-34472684D01*
X26092692Y-34445222D01*
X26075492Y-34440078D01*
X25842428Y-34405246D01*
X25824475Y-34405137D01*
X25591004Y-34437118D01*
X25573742Y-34442051D01*
X25358631Y-34538275D01*
X25343448Y-34547855D01*
X25163990Y-34700586D01*
X25152106Y-34714043D01*
X25022727Y-34911003D01*
X25015097Y-34927254D01*
X24992492Y-35001193D01*
X24989925Y-35000007D01*
X24972725Y-34994863D01*
X24739661Y-34960031D01*
X24721708Y-34959922D01*
X24488237Y-34991903D01*
X24470975Y-34996836D01*
X24255864Y-35093060D01*
X24240681Y-35102640D01*
X24061223Y-35255371D01*
X24049339Y-35268828D01*
X23919960Y-35465788D01*
X23912330Y-35482039D01*
X23843432Y-35707393D01*
X23840670Y-35725133D01*
X23837792Y-35960768D01*
X21288604Y-35960768D01*
X21294660Y-35941795D01*
X21297654Y-35923309D01*
X21300769Y-35668348D01*
X21298228Y-35649794D01*
X21231980Y-35423243D01*
X21224549Y-35406899D01*
X21097587Y-35208374D01*
X21085868Y-35194773D01*
X20908289Y-35039861D01*
X20893224Y-35030096D01*
X20679304Y-34931252D01*
X20662104Y-34926108D01*
X20429040Y-34891276D01*
X20411087Y-34891167D01*
X20177616Y-34923148D01*
X20160354Y-34928081D01*
X19945243Y-35024305D01*
X19930060Y-35033885D01*
X19754011Y-35183715D01*
X19771380Y-35129290D01*
X19774374Y-35110804D01*
X19777489Y-34855843D01*
X19774948Y-34837289D01*
X19708700Y-34610738D01*
X19701269Y-34594394D01*
X19574307Y-34395869D01*
X19562588Y-34382268D01*
X19439795Y-34275149D01*
X19460032Y-34266392D01*
X19475331Y-34256998D01*
X19656642Y-34106471D01*
X19668690Y-34093161D01*
X19800464Y-33897796D01*
X19808292Y-33881640D01*
X19880056Y-33656775D01*
X19883050Y-33638289D01*
X19886165Y-33383328D01*
X19883624Y-33364774D01*
X19817376Y-33138223D01*
X19809945Y-33121879D01*
X19682983Y-32923354D01*
X19671264Y-32909753D01*
X19645174Y-32886993D01*
X19940567Y-32886993D01*
X19942895Y-32904794D01*
X20006265Y-33131765D01*
X20013496Y-33148198D01*
X20138024Y-33348259D01*
X20149576Y-33362002D01*
X20325249Y-33519071D01*
X20340193Y-33529019D01*
X20552888Y-33630470D01*
X20570025Y-33635824D01*
X20802646Y-33673500D01*
X20820596Y-33673829D01*
X21054440Y-33644702D01*
X21071761Y-33639980D01*
X21288032Y-33546392D01*
X21303331Y-33536998D01*
X21484642Y-33386471D01*
X21496690Y-33373161D01*
X21610532Y-33204382D01*
X21657265Y-33371765D01*
X21664496Y-33388198D01*
X21789024Y-33588259D01*
X21800576Y-33602002D01*
X21976249Y-33759071D01*
X21991193Y-33769019D01*
X22203888Y-33870470D01*
X22221025Y-33875824D01*
X22453646Y-33913500D01*
X22471596Y-33913829D01*
X22471637Y-33913824D01*
X22277198Y-34000801D01*
X22262015Y-34010381D01*
X22082557Y-34163112D01*
X22070673Y-34176569D01*
X21941294Y-34373529D01*
X21933664Y-34389780D01*
X21864766Y-34615134D01*
X21862004Y-34632874D01*
X21859126Y-34868509D01*
X21861454Y-34886310D01*
X21924824Y-35113281D01*
X21932055Y-35129714D01*
X22056583Y-35329775D01*
X22068135Y-35343518D01*
X22243808Y-35500587D01*
X22258752Y-35510535D01*
X22471447Y-35611986D01*
X22488584Y-35617340D01*
X22721205Y-35655016D01*
X22739155Y-35655345D01*
X22972999Y-35626218D01*
X22990320Y-35621496D01*
X23206591Y-35527908D01*
X23221890Y-35518514D01*
X23403201Y-35367987D01*
X23415249Y-35354677D01*
X23547023Y-35159312D01*
X23554851Y-35143156D01*
X23626615Y-34918291D01*
X23629609Y-34899805D01*
X23632724Y-34644844D01*
X23630183Y-34626290D01*
X23563935Y-34399739D01*
X23556504Y-34383395D01*
X23470328Y-34248646D01*
X23578877Y-34345699D01*
X23593821Y-34355647D01*
X23806516Y-34457098D01*
X23823653Y-34462452D01*
X24056274Y-34500128D01*
X24074224Y-34500457D01*
X24308068Y-34471330D01*
X24325389Y-34466608D01*
X24541660Y-34373020D01*
X24556959Y-34363626D01*
X24738270Y-34213099D01*
X24750318Y-34199789D01*
X24882092Y-34004424D01*
X24889920Y-33988268D01*
X24961684Y-33763403D01*
X24964678Y-33744917D01*
X24967793Y-33489956D01*
X24965252Y-33471402D01*
X24899004Y-33244851D01*
X24891573Y-33228507D01*
X24764611Y-33029982D01*
X24752892Y-33016381D01*
X24575313Y-32861469D01*
X24560248Y-32851704D01*
X24346328Y-32752860D01*
X24329128Y-32747716D01*
X24096064Y-32712884D01*
X24078112Y-32712774D01*
X24062236Y-32714949D01*
X24050983Y-32697353D01*
X24039264Y-32683753D01*
X24033100Y-32678376D01*
X24263784Y-32715738D01*
X24281734Y-32716067D01*
X24515578Y-32686940D01*
X24532899Y-32682218D01*
X24749170Y-32588630D01*
X24764469Y-32579236D01*
X24945780Y-32428709D01*
X24957828Y-32415399D01*
X25089602Y-32220034D01*
X25097430Y-32203878D01*
X25169194Y-31979013D01*
X25169226Y-31978810D01*
X25282000Y-31978810D01*
X25284328Y-31996611D01*
X25347698Y-32223582D01*
X25354929Y-32240015D01*
X25479457Y-32440076D01*
X25491009Y-32453819D01*
X25666682Y-32610888D01*
X25681626Y-32620836D01*
X25894321Y-32722287D01*
X25911458Y-32727641D01*
X26144079Y-32765317D01*
X26162029Y-32765646D01*
X26395873Y-32736519D01*
X26413194Y-32731797D01*
X26629465Y-32638209D01*
X26644764Y-32628815D01*
X26826075Y-32478288D01*
X26838123Y-32464978D01*
X26969897Y-32269613D01*
X26977725Y-32253457D01*
X27049489Y-32028592D01*
X27052483Y-32010106D01*
X27055598Y-31755145D01*
X27053057Y-31736591D01*
X26986809Y-31510040D01*
X26979378Y-31493696D01*
X26852416Y-31295171D01*
X26840697Y-31281570D01*
X26663118Y-31126658D01*
X26648053Y-31116893D01*
X26434133Y-31018049D01*
X26416933Y-31012905D01*
X26183869Y-30978073D01*
X26165916Y-30977964D01*
X25932445Y-31009945D01*
X25915183Y-31014878D01*
X25700072Y-31111102D01*
X25684889Y-31120682D01*
X25505431Y-31273413D01*
X25493547Y-31286870D01*
X25364168Y-31483830D01*
X25356538Y-31500081D01*
X25287640Y-31725435D01*
X25284878Y-31743175D01*
X25282000Y-31978810D01*
X25169226Y-31978810D01*
X25172188Y-31960527D01*
X25175303Y-31705566D01*
X25172762Y-31687012D01*
X25106514Y-31460461D01*
X25099083Y-31444117D01*
X24972121Y-31245592D01*
X24960402Y-31231991D01*
X24782823Y-31077079D01*
X24767758Y-31067314D01*
X24553838Y-30968470D01*
X24536638Y-30963326D01*
X24303574Y-30928494D01*
X24285621Y-30928385D01*
X24052150Y-30960366D01*
X24034888Y-30965299D01*
X23819777Y-31061523D01*
X23804594Y-31071103D01*
X23625136Y-31223834D01*
X23613252Y-31237291D01*
X23483873Y-31434251D01*
X23476243Y-31450502D01*
X23426822Y-31612149D01*
X23251700Y-31531232D01*
X23234500Y-31526088D01*
X23001436Y-31491256D01*
X22983483Y-31491147D01*
X22750012Y-31523128D01*
X22732750Y-31528061D01*
X22517639Y-31624285D01*
X22502456Y-31633865D01*
X22322998Y-31786596D01*
X22311114Y-31800053D01*
X22181735Y-31997013D01*
X22174105Y-32013264D01*
X22113028Y-32213037D01*
X22009639Y-32259285D01*
X21994456Y-32268865D01*
X21814998Y-32421596D01*
X21803114Y-32435053D01*
X21697371Y-32596031D01*
X21645376Y-32418223D01*
X21637945Y-32401879D01*
X21510983Y-32203354D01*
X21499264Y-32189753D01*
X21321685Y-32034841D01*
X21306620Y-32025076D01*
X21092700Y-31926232D01*
X21075500Y-31921088D01*
X20842436Y-31886256D01*
X20824483Y-31886147D01*
X20591012Y-31918128D01*
X20573750Y-31923061D01*
X20358639Y-32019285D01*
X20343456Y-32028865D01*
X20163998Y-32181596D01*
X20152114Y-32195053D01*
X20022735Y-32392013D01*
X20015105Y-32408264D01*
X19946207Y-32633618D01*
X19943445Y-32651358D01*
X19940567Y-32886993D01*
X19645174Y-32886993D01*
X19493685Y-32754841D01*
X19478620Y-32745076D01*
X19264700Y-32646232D01*
X19247500Y-32641088D01*
X19014436Y-32606256D01*
X18996483Y-32606147D01*
X18763012Y-32638128D01*
X18745750Y-32643061D01*
X18530639Y-32739285D01*
X18515456Y-32748865D01*
X18335998Y-32901596D01*
X18324114Y-32915053D01*
X18234452Y-33051549D01*
X18197993Y-32994539D01*
X18186274Y-32980938D01*
X18008695Y-32826026D01*
X17993630Y-32816261D01*
X17779710Y-32717417D01*
X17762510Y-32712273D01*
X17529446Y-32677441D01*
X17511493Y-32677332D01*
X17278022Y-32709313D01*
X17260760Y-32714246D01*
X17045649Y-32810470D01*
X17030466Y-32820050D01*
X16851008Y-32972781D01*
X16839124Y-32986238D01*
X16709745Y-33183198D01*
X16702115Y-33199449D01*
X16633217Y-33424803D01*
X16630455Y-33442543D01*
X16627577Y-33678178D01*
X16629905Y-33695979D01*
X16693275Y-33922950D01*
X16700506Y-33939383D01*
X16825034Y-34139444D01*
X16836586Y-34153187D01*
X16933439Y-34239783D01*
X16763012Y-34263128D01*
X16745750Y-34268061D01*
X16530639Y-34364285D01*
X16515456Y-34373865D01*
X16335998Y-34526596D01*
X16324114Y-34540053D01*
X16194735Y-34737013D01*
X16187105Y-34753264D01*
X16147700Y-34882150D01*
X16049983Y-34729354D01*
X16038264Y-34715753D01*
X15860685Y-34560841D01*
X15845620Y-34551076D01*
X15631700Y-34452232D01*
X15614500Y-34447088D01*
X15381436Y-34412256D01*
X15363483Y-34412147D01*
X15130012Y-34444128D01*
X15112750Y-34449061D01*
X14897639Y-34545285D01*
X14882456Y-34554865D01*
X14702998Y-34707596D01*
X14691114Y-34721053D01*
X14561735Y-34918013D01*
X14554105Y-34934264D01*
X14485207Y-35159618D01*
X14482445Y-35177358D01*
X14479567Y-35412993D01*
X12634000Y-35412993D01*
X12634000Y-31983993D01*
X14479567Y-31983993D01*
X14481895Y-32001794D01*
X14545265Y-32228765D01*
X14552496Y-32245198D01*
X14677024Y-32445259D01*
X14688576Y-32459002D01*
X14864249Y-32616071D01*
X14879193Y-32626019D01*
X15091888Y-32727470D01*
X15109025Y-32732824D01*
X15341646Y-32770500D01*
X15359596Y-32770829D01*
X15593440Y-32741702D01*
X15610761Y-32736980D01*
X15827032Y-32643392D01*
X15842331Y-32633998D01*
X16023642Y-32483471D01*
X16035690Y-32470161D01*
X16167464Y-32274796D01*
X16175292Y-32258640D01*
X16247056Y-32033775D01*
X16250050Y-32015289D01*
X16253165Y-31760328D01*
X16250624Y-31741774D01*
X16184376Y-31515223D01*
X16176945Y-31498879D01*
X16049983Y-31300354D01*
X16038264Y-31286753D01*
X15860685Y-31131841D01*
X15845620Y-31122076D01*
X15631700Y-31023232D01*
X15614500Y-31018088D01*
X15381436Y-30983256D01*
X15363483Y-30983147D01*
X15130012Y-31015128D01*
X15112750Y-31020061D01*
X14897639Y-31116285D01*
X14882456Y-31125865D01*
X14702998Y-31278596D01*
X14691114Y-31292053D01*
X14561735Y-31489013D01*
X14554105Y-31505264D01*
X14485207Y-31730618D01*
X14482445Y-31748358D01*
X14479567Y-31983993D01*
X12634000Y-31983993D01*
X12634000Y-30586993D01*
X17527567Y-30586993D01*
X17529895Y-30604794D01*
X17593265Y-30831765D01*
X17600496Y-30848198D01*
X17725024Y-31048259D01*
X17736576Y-31062002D01*
X17912249Y-31219071D01*
X17927193Y-31229019D01*
X18139888Y-31330470D01*
X18157025Y-31335824D01*
X18389646Y-31373500D01*
X18407596Y-31373829D01*
X18641440Y-31344702D01*
X18658761Y-31339980D01*
X18875032Y-31246392D01*
X18890331Y-31236998D01*
X19071642Y-31086471D01*
X19083690Y-31073161D01*
X19215464Y-30877796D01*
X19223292Y-30861640D01*
X19295056Y-30636775D01*
X19298050Y-30618289D01*
X19301165Y-30363328D01*
X19298624Y-30344774D01*
X19232376Y-30118223D01*
X19224945Y-30101879D01*
X19097983Y-29903354D01*
X19086264Y-29889753D01*
X18908685Y-29734841D01*
X18893620Y-29725076D01*
X18679700Y-29626232D01*
X18662500Y-29621088D01*
X18429436Y-29586256D01*
X18411483Y-29586147D01*
X18178012Y-29618128D01*
X18160750Y-29623061D01*
X17945639Y-29719285D01*
X17930456Y-29728865D01*
X17750998Y-29881596D01*
X17739114Y-29895053D01*
X17609735Y-30092013D01*
X17602105Y-30108264D01*
X17533207Y-30333618D01*
X17530445Y-30351358D01*
X17527567Y-30586993D01*
X12634000Y-30586993D01*
X12634000Y-29443993D01*
X23242567Y-29443993D01*
X23244895Y-29461794D01*
X23308265Y-29688765D01*
X23315496Y-29705198D01*
X23440024Y-29905259D01*
X23451576Y-29919002D01*
X23627249Y-30076071D01*
X23642193Y-30086019D01*
X23854888Y-30187470D01*
X23872025Y-30192824D01*
X24104646Y-30230500D01*
X24122596Y-30230829D01*
X24356440Y-30201702D01*
X24373761Y-30196980D01*
X24590032Y-30103392D01*
X24605331Y-30093998D01*
X24786642Y-29943471D01*
X24798690Y-29930161D01*
X24930464Y-29734796D01*
X24938292Y-29718640D01*
X25010056Y-29493775D01*
X25013050Y-29475289D01*
X25013432Y-29443993D01*
X28322567Y-29443993D01*
X28324895Y-29461794D01*
X28388265Y-29688765D01*
X28395496Y-29705198D01*
X28520024Y-29905259D01*
X28531576Y-29919002D01*
X28707249Y-30076071D01*
X28722193Y-30086019D01*
X28934888Y-30187470D01*
X28952025Y-30192824D01*
X29184646Y-30230500D01*
X29202596Y-30230829D01*
X29436440Y-30201702D01*
X29453761Y-30196980D01*
X29578229Y-30143119D01*
X29583555Y-30145659D01*
X29600691Y-30151013D01*
X29833312Y-30188689D01*
X29851262Y-30189018D01*
X30085106Y-30159891D01*
X30102427Y-30155169D01*
X30318698Y-30061581D01*
X30333997Y-30052187D01*
X30515308Y-29901660D01*
X30527356Y-29888350D01*
X30659130Y-29692985D01*
X30666958Y-29676829D01*
X30738722Y-29451964D01*
X30741716Y-29433478D01*
X30744831Y-29178517D01*
X30742290Y-29159963D01*
X30676042Y-28933412D01*
X30668611Y-28917068D01*
X30541649Y-28718543D01*
X30529930Y-28704942D01*
X30352351Y-28550030D01*
X30337286Y-28540265D01*
X30123366Y-28441421D01*
X30106166Y-28436277D01*
X29873102Y-28401445D01*
X29855149Y-28401336D01*
X29621678Y-28433317D01*
X29604417Y-28438250D01*
X29489043Y-28489859D01*
X29474700Y-28483232D01*
X29457500Y-28478088D01*
X29224436Y-28443256D01*
X29206483Y-28443147D01*
X28973012Y-28475128D01*
X28955750Y-28480061D01*
X28740639Y-28576285D01*
X28725456Y-28585865D01*
X28545998Y-28738596D01*
X28534114Y-28752053D01*
X28404735Y-28949013D01*
X28397105Y-28965264D01*
X28328207Y-29190618D01*
X28325445Y-29208358D01*
X28322567Y-29443993D01*
X25013432Y-29443993D01*
X25016165Y-29220328D01*
X25013624Y-29201774D01*
X24984242Y-29101295D01*
X25040642Y-29054471D01*
X25052690Y-29041161D01*
X25184464Y-28845796D01*
X25192292Y-28829640D01*
X25264056Y-28604775D01*
X25267050Y-28586289D01*
X25270165Y-28331328D01*
X25267624Y-28312774D01*
X25201376Y-28086223D01*
X25193945Y-28069879D01*
X25066983Y-27871354D01*
X25055264Y-27857753D01*
X24877685Y-27702841D01*
X24862620Y-27693076D01*
X24648700Y-27594232D01*
X24631500Y-27589088D01*
X24398436Y-27554256D01*
X24380483Y-27554147D01*
X24147012Y-27586128D01*
X24129750Y-27591061D01*
X23914639Y-27687285D01*
X23899456Y-27696865D01*
X23719998Y-27849596D01*
X23708114Y-27863053D01*
X23578735Y-28060013D01*
X23571105Y-28076264D01*
X23502207Y-28301618D01*
X23499445Y-28319358D01*
X23496567Y-28554993D01*
X23498895Y-28572794D01*
X23529983Y-28684141D01*
X23465998Y-28738596D01*
X23454114Y-28752052D01*
X23324735Y-28949013D01*
X23317105Y-28965264D01*
X23248207Y-29190618D01*
X23245445Y-29208358D01*
X23242567Y-29443993D01*
X12634000Y-29443993D01*
X12634000Y-26268993D01*
X13209567Y-26268993D01*
X13211895Y-26286794D01*
X13275265Y-26513765D01*
X13282496Y-26530198D01*
X13407024Y-26730259D01*
X13418576Y-26744002D01*
X13594249Y-26901071D01*
X13609193Y-26911019D01*
X13821888Y-27012470D01*
X13839025Y-27017824D01*
X14071646Y-27055500D01*
X14089596Y-27055829D01*
X14323440Y-27026702D01*
X14340761Y-27021980D01*
X14557032Y-26928392D01*
X14572331Y-26918998D01*
X14753642Y-26768471D01*
X14765690Y-26755161D01*
X14897464Y-26559796D01*
X14905292Y-26543640D01*
X14977056Y-26318775D01*
X14980050Y-26300289D01*
X14982047Y-26136790D01*
X18004607Y-26136790D01*
X18006935Y-26154591D01*
X18070305Y-26381562D01*
X18077536Y-26397995D01*
X18141205Y-26500283D01*
X18117735Y-26536012D01*
X18110105Y-26552264D01*
X18041207Y-26777618D01*
X18038445Y-26795358D01*
X18035567Y-27030993D01*
X18037895Y-27048794D01*
X18101265Y-27275765D01*
X18108496Y-27292198D01*
X18233024Y-27492259D01*
X18244576Y-27506002D01*
X18420249Y-27663071D01*
X18435193Y-27673019D01*
X18647888Y-27774470D01*
X18665025Y-27779824D01*
X18897646Y-27817500D01*
X18915596Y-27817829D01*
X19149440Y-27788702D01*
X19166761Y-27783980D01*
X19258187Y-27744417D01*
X19309249Y-27790071D01*
X19324193Y-27800019D01*
X19536888Y-27901470D01*
X19554025Y-27906824D01*
X19786646Y-27944500D01*
X19804596Y-27944829D01*
X20038440Y-27915702D01*
X20055761Y-27910980D01*
X20272032Y-27817392D01*
X20287331Y-27807998D01*
X20468642Y-27657471D01*
X20480690Y-27644161D01*
X20612464Y-27448796D01*
X20620292Y-27432640D01*
X20692056Y-27207775D01*
X20695050Y-27189289D01*
X20698165Y-26934328D01*
X20695624Y-26915774D01*
X20629376Y-26689223D01*
X20621945Y-26672879D01*
X20494983Y-26474354D01*
X20483264Y-26460753D01*
X20305685Y-26305841D01*
X20290620Y-26296076D01*
X20076700Y-26197232D01*
X20059500Y-26192088D01*
X19915890Y-26170625D01*
X19960642Y-26133471D01*
X19972690Y-26120161D01*
X20104464Y-25924796D01*
X20112292Y-25908640D01*
X20184056Y-25683775D01*
X20187050Y-25665289D01*
X20187432Y-25633993D01*
X21464567Y-25633993D01*
X21466895Y-25651794D01*
X21530265Y-25878765D01*
X21537496Y-25895198D01*
X21662024Y-26095259D01*
X21673576Y-26109002D01*
X21849249Y-26266071D01*
X21864193Y-26276019D01*
X22076888Y-26377470D01*
X22094025Y-26382824D01*
X22326646Y-26420500D01*
X22344596Y-26420829D01*
X22578440Y-26391702D01*
X22595761Y-26386980D01*
X22812032Y-26293392D01*
X22827331Y-26283998D01*
X23008642Y-26133471D01*
X23020690Y-26120161D01*
X23152464Y-25924796D01*
X23160292Y-25908640D01*
X23232056Y-25683775D01*
X23235050Y-25665289D01*
X23238165Y-25410328D01*
X23235624Y-25391774D01*
X23169376Y-25165223D01*
X23161945Y-25148879D01*
X23034983Y-24950354D01*
X23023264Y-24936753D01*
X22845685Y-24781841D01*
X22830620Y-24772076D01*
X22616700Y-24673232D01*
X22599500Y-24668088D01*
X22366436Y-24633256D01*
X22348483Y-24633147D01*
X22115012Y-24665128D01*
X22097750Y-24670061D01*
X21882639Y-24766285D01*
X21867456Y-24775865D01*
X21687998Y-24928596D01*
X21676114Y-24942053D01*
X21546735Y-25139013D01*
X21539105Y-25155264D01*
X21470207Y-25380618D01*
X21467445Y-25398358D01*
X21464567Y-25633993D01*
X20187432Y-25633993D01*
X20190165Y-25410328D01*
X20187624Y-25391774D01*
X20121376Y-25165223D01*
X20113945Y-25148879D01*
X19986983Y-24950354D01*
X19975264Y-24936753D01*
X19797685Y-24781841D01*
X19782620Y-24772076D01*
X19568700Y-24673232D01*
X19551500Y-24668088D01*
X19318436Y-24633256D01*
X19300483Y-24633147D01*
X19067012Y-24665128D01*
X19049750Y-24670061D01*
X18834639Y-24766285D01*
X18819456Y-24775865D01*
X18639998Y-24928596D01*
X18628114Y-24942053D01*
X18498735Y-25139013D01*
X18491105Y-25155264D01*
X18461635Y-25251656D01*
X18422679Y-25269082D01*
X18407496Y-25278662D01*
X18228038Y-25431393D01*
X18216154Y-25444850D01*
X18086775Y-25641810D01*
X18079145Y-25658061D01*
X18010247Y-25883415D01*
X18007485Y-25901155D01*
X18004607Y-26136790D01*
X14982047Y-26136790D01*
X14983165Y-26045328D01*
X14980624Y-26026774D01*
X14914376Y-25800223D01*
X14906945Y-25783879D01*
X14779983Y-25585354D01*
X14768264Y-25571753D01*
X14590685Y-25416841D01*
X14575620Y-25407076D01*
X14361700Y-25308232D01*
X14344500Y-25303088D01*
X14111436Y-25268256D01*
X14093483Y-25268147D01*
X13860012Y-25300128D01*
X13842750Y-25305061D01*
X13627639Y-25401285D01*
X13612456Y-25410865D01*
X13432998Y-25563596D01*
X13421114Y-25577053D01*
X13291735Y-25774013D01*
X13284105Y-25790264D01*
X13215207Y-26015618D01*
X13212445Y-26033358D01*
X13209567Y-26268993D01*
X12634000Y-26268993D01*
X12634000Y-23356993D01*
X14362567Y-23356993D01*
X14364895Y-23374794D01*
X14428265Y-23601765D01*
X14435496Y-23618198D01*
X14560024Y-23818259D01*
X14571576Y-23832002D01*
X14747249Y-23989071D01*
X14762193Y-23999019D01*
X14974888Y-24100470D01*
X14992025Y-24105824D01*
X15224646Y-24143500D01*
X15242596Y-24143829D01*
X15476440Y-24114702D01*
X15493761Y-24109980D01*
X15710032Y-24016392D01*
X15725331Y-24006998D01*
X15906642Y-23856471D01*
X15918690Y-23843161D01*
X16050464Y-23647796D01*
X16058292Y-23631640D01*
X16130056Y-23406775D01*
X16133050Y-23388289D01*
X16136165Y-23133328D01*
X16133624Y-23114774D01*
X16067376Y-22888223D01*
X16059945Y-22871879D01*
X15932983Y-22673354D01*
X15921264Y-22659753D01*
X15743685Y-22504841D01*
X15732949Y-22497882D01*
X15736831Y-22495498D01*
X15780801Y-22458993D01*
X20702567Y-22458993D01*
X20704895Y-22476794D01*
X20768265Y-22703765D01*
X20775496Y-22720198D01*
X20900024Y-22920259D01*
X20911576Y-22934002D01*
X21087249Y-23091071D01*
X21102193Y-23101019D01*
X21314888Y-23202470D01*
X21332025Y-23207824D01*
X21564646Y-23245500D01*
X21582597Y-23245829D01*
X21624290Y-23240636D01*
X21662024Y-23301259D01*
X21673576Y-23315002D01*
X21849249Y-23472071D01*
X21864193Y-23482019D01*
X22076888Y-23583470D01*
X22094025Y-23588824D01*
X22326646Y-23626500D01*
X22344596Y-23626829D01*
X22481584Y-23609766D01*
X22482895Y-23619794D01*
X22546265Y-23846765D01*
X22553496Y-23863198D01*
X22678024Y-24063259D01*
X22689576Y-24077002D01*
X22865249Y-24234071D01*
X22880193Y-24244019D01*
X23092888Y-24345470D01*
X23110025Y-24350824D01*
X23342646Y-24388500D01*
X23360596Y-24388829D01*
X23594440Y-24359702D01*
X23611761Y-24354980D01*
X23828032Y-24261392D01*
X23843331Y-24251998D01*
X24024642Y-24101471D01*
X24036690Y-24088161D01*
X24168464Y-23892796D01*
X24176292Y-23876640D01*
X24248056Y-23651775D01*
X24251050Y-23633289D01*
X24254165Y-23378328D01*
X24251624Y-23359774D01*
X24185376Y-23133223D01*
X24177945Y-23116879D01*
X24050983Y-22918354D01*
X24039264Y-22904753D01*
X23861685Y-22749841D01*
X23846620Y-22740076D01*
X23632700Y-22641232D01*
X23615500Y-22636088D01*
X23382436Y-22601256D01*
X23364483Y-22601147D01*
X23238139Y-22618454D01*
X23238165Y-22616328D01*
X23235624Y-22597774D01*
X23169376Y-22371223D01*
X23161945Y-22354879D01*
X23034983Y-22156354D01*
X23023264Y-22142753D01*
X22845685Y-21987841D01*
X22830620Y-21978076D01*
X22616700Y-21879232D01*
X22599500Y-21874088D01*
X22366436Y-21839256D01*
X22348483Y-21839147D01*
X22316576Y-21843518D01*
X22272983Y-21775354D01*
X22261264Y-21761753D01*
X22189694Y-21699319D01*
X22326646Y-21721500D01*
X22344596Y-21721829D01*
X22578440Y-21692702D01*
X22595761Y-21687980D01*
X22812032Y-21594392D01*
X22827331Y-21584998D01*
X23008642Y-21434471D01*
X23020690Y-21421161D01*
X23152464Y-21225796D01*
X23160292Y-21209640D01*
X23232056Y-20984775D01*
X23235050Y-20966289D01*
X23235432Y-20934993D01*
X24131567Y-20934993D01*
X24133895Y-20952794D01*
X24197265Y-21179765D01*
X24204496Y-21196198D01*
X24329024Y-21396259D01*
X24340576Y-21410002D01*
X24516249Y-21567071D01*
X24531193Y-21577019D01*
X24743888Y-21678470D01*
X24761025Y-21683824D01*
X24993646Y-21721500D01*
X25011596Y-21721829D01*
X25245440Y-21692702D01*
X25262761Y-21687980D01*
X25479032Y-21594392D01*
X25494331Y-21584998D01*
X25675642Y-21434471D01*
X25687690Y-21421161D01*
X25819464Y-21225796D01*
X25827292Y-21209640D01*
X25899056Y-20984775D01*
X25902050Y-20966289D01*
X25905165Y-20711328D01*
X25902624Y-20692774D01*
X25836376Y-20466223D01*
X25828945Y-20449879D01*
X25701983Y-20251354D01*
X25690264Y-20237753D01*
X25512685Y-20082841D01*
X25497620Y-20073076D01*
X25283700Y-19974232D01*
X25266500Y-19969088D01*
X25033436Y-19934256D01*
X25015483Y-19934147D01*
X24782012Y-19966128D01*
X24764750Y-19971061D01*
X24549639Y-20067285D01*
X24534456Y-20076865D01*
X24354998Y-20229596D01*
X24343114Y-20243053D01*
X24213735Y-20440013D01*
X24206105Y-20456264D01*
X24137207Y-20681618D01*
X24134445Y-20699358D01*
X24131567Y-20934993D01*
X23235432Y-20934993D01*
X23238165Y-20711328D01*
X23235624Y-20692774D01*
X23171232Y-20472569D01*
X23226440Y-20465692D01*
X23243761Y-20460970D01*
X23460032Y-20367382D01*
X23475331Y-20357988D01*
X23656642Y-20207461D01*
X23668690Y-20194151D01*
X23800464Y-19998786D01*
X23808292Y-19982630D01*
X23880056Y-19757765D01*
X23883050Y-19739279D01*
X23886165Y-19484318D01*
X23883624Y-19465764D01*
X23817376Y-19239213D01*
X23809945Y-19222869D01*
X23682983Y-19024344D01*
X23671264Y-19010743D01*
X23493685Y-18855831D01*
X23478620Y-18846066D01*
X23264700Y-18747222D01*
X23247500Y-18742078D01*
X23014436Y-18707246D01*
X22996483Y-18707137D01*
X22763012Y-18739118D01*
X22745750Y-18744051D01*
X22530639Y-18840275D01*
X22515456Y-18849855D01*
X22335998Y-19002586D01*
X22324114Y-19016043D01*
X22194735Y-19213003D01*
X22187105Y-19229254D01*
X22118207Y-19454608D01*
X22115445Y-19472348D01*
X22112567Y-19707983D01*
X22114895Y-19725784D01*
X22178265Y-19952755D01*
X22180219Y-19957196D01*
X22115012Y-19966128D01*
X22097750Y-19971061D01*
X21882639Y-20067285D01*
X21867456Y-20076865D01*
X21687998Y-20229596D01*
X21676114Y-20243053D01*
X21546735Y-20440013D01*
X21539105Y-20456264D01*
X21470207Y-20681618D01*
X21467445Y-20699358D01*
X21464567Y-20934993D01*
X21466895Y-20952794D01*
X21530265Y-21179765D01*
X21537496Y-21196198D01*
X21662024Y-21396259D01*
X21673576Y-21410002D01*
X21752254Y-21480348D01*
X21604436Y-21458256D01*
X21586483Y-21458147D01*
X21353012Y-21490128D01*
X21335750Y-21495061D01*
X21120639Y-21591285D01*
X21105456Y-21600865D01*
X20925998Y-21753596D01*
X20914114Y-21767053D01*
X20784735Y-21964013D01*
X20777105Y-21980264D01*
X20708207Y-22205618D01*
X20705445Y-22223358D01*
X20702567Y-22458993D01*
X15780801Y-22458993D01*
X15918142Y-22344971D01*
X15930190Y-22331661D01*
X16061964Y-22136296D01*
X16069792Y-22120140D01*
X16141556Y-21895275D01*
X16144550Y-21876789D01*
X16147665Y-21621828D01*
X16145124Y-21603274D01*
X16078876Y-21376723D01*
X16071445Y-21360379D01*
X16043059Y-21315993D01*
X17019567Y-21315993D01*
X17021895Y-21333794D01*
X17085265Y-21560765D01*
X17092496Y-21577198D01*
X17217024Y-21777259D01*
X17228576Y-21791002D01*
X17404249Y-21948071D01*
X17419193Y-21958019D01*
X17631888Y-22059470D01*
X17649025Y-22064824D01*
X17881646Y-22102500D01*
X17899596Y-22102829D01*
X18133440Y-22073702D01*
X18150761Y-22068980D01*
X18367032Y-21975392D01*
X18382331Y-21965998D01*
X18563642Y-21815471D01*
X18575690Y-21802161D01*
X18707464Y-21606796D01*
X18715292Y-21590640D01*
X18787056Y-21365775D01*
X18790050Y-21347289D01*
X18793165Y-21092328D01*
X18790624Y-21073774D01*
X18724376Y-20847223D01*
X18716945Y-20830879D01*
X18589983Y-20632354D01*
X18578264Y-20618753D01*
X18400685Y-20463841D01*
X18385620Y-20454076D01*
X18171700Y-20355232D01*
X18154500Y-20350088D01*
X17921436Y-20315256D01*
X17903483Y-20315147D01*
X17670012Y-20347128D01*
X17652750Y-20352061D01*
X17437639Y-20448285D01*
X17422456Y-20457865D01*
X17242998Y-20610596D01*
X17231114Y-20624053D01*
X17101735Y-20821013D01*
X17094105Y-20837264D01*
X17025207Y-21062618D01*
X17022445Y-21080358D01*
X17019567Y-21315993D01*
X16043059Y-21315993D01*
X15944483Y-21161854D01*
X15932764Y-21148253D01*
X15755185Y-20993341D01*
X15740120Y-20983576D01*
X15526200Y-20884732D01*
X15509000Y-20879588D01*
X15275936Y-20844756D01*
X15257983Y-20844647D01*
X15024512Y-20876628D01*
X15007250Y-20881561D01*
X14792139Y-20977785D01*
X14776956Y-20987365D01*
X14597498Y-21140096D01*
X14585614Y-21153553D01*
X14456235Y-21350513D01*
X14448605Y-21366764D01*
X14379707Y-21592118D01*
X14376945Y-21609858D01*
X14374067Y-21845493D01*
X14376395Y-21863294D01*
X14439765Y-22090265D01*
X14446996Y-22106698D01*
X14571524Y-22306759D01*
X14583076Y-22320502D01*
X14758749Y-22477571D01*
X14773693Y-22487519D01*
X14779243Y-22490166D01*
X14765456Y-22498865D01*
X14585998Y-22651596D01*
X14574114Y-22665053D01*
X14444735Y-22862013D01*
X14437105Y-22878264D01*
X14368207Y-23103618D01*
X14365445Y-23121358D01*
X14362567Y-23356993D01*
X12634000Y-23356993D01*
X12634000Y-20172993D01*
X19432567Y-20172993D01*
X19434895Y-20190794D01*
X19498265Y-20417765D01*
X19505496Y-20434198D01*
X19630024Y-20634259D01*
X19641576Y-20648002D01*
X19817249Y-20805071D01*
X19832193Y-20815019D01*
X20044888Y-20916470D01*
X20062025Y-20921824D01*
X20294646Y-20959500D01*
X20312596Y-20959829D01*
X20546440Y-20930702D01*
X20563761Y-20925980D01*
X20780032Y-20832392D01*
X20795331Y-20822998D01*
X20976642Y-20672471D01*
X20988690Y-20659161D01*
X21120464Y-20463796D01*
X21128292Y-20447640D01*
X21200056Y-20222775D01*
X21203050Y-20204289D01*
X21206165Y-19949328D01*
X21203624Y-19930774D01*
X21137376Y-19704223D01*
X21129945Y-19687879D01*
X21002983Y-19489354D01*
X20991264Y-19475753D01*
X20813685Y-19320841D01*
X20798620Y-19311076D01*
X20584700Y-19212232D01*
X20567500Y-19207088D01*
X20334436Y-19172256D01*
X20316483Y-19172147D01*
X20083012Y-19204128D01*
X20065750Y-19209061D01*
X19850639Y-19305285D01*
X19835456Y-19314865D01*
X19655998Y-19467596D01*
X19644114Y-19481053D01*
X19514735Y-19678013D01*
X19507105Y-19694264D01*
X19438207Y-19919618D01*
X19435445Y-19937358D01*
X19432567Y-20172993D01*
X12634000Y-20172993D01*
X12634000Y-18998326D01*
X12640265Y-19020765D01*
X12647496Y-19037198D01*
X12772024Y-19237259D01*
X12783576Y-19251002D01*
X12959249Y-19408071D01*
X12974193Y-19418019D01*
X13186888Y-19519470D01*
X13204025Y-19524824D01*
X13436646Y-19562500D01*
X13454596Y-19562829D01*
X13688440Y-19533702D01*
X13705761Y-19528980D01*
X13922032Y-19435392D01*
X13937331Y-19425998D01*
X14118642Y-19275471D01*
X14130690Y-19262161D01*
X14262464Y-19066796D01*
X14270292Y-19050640D01*
X14342056Y-18825775D01*
X14345050Y-18807289D01*
X14348165Y-18552328D01*
X14345624Y-18533774D01*
X14279376Y-18307223D01*
X14271945Y-18290879D01*
X14144983Y-18092354D01*
X14133264Y-18078753D01*
X14108321Y-18056993D01*
X14733567Y-18056993D01*
X14735895Y-18074794D01*
X14799265Y-18301765D01*
X14806496Y-18318198D01*
X14931024Y-18518259D01*
X14942576Y-18532002D01*
X15118249Y-18689071D01*
X15133193Y-18699019D01*
X15345888Y-18800470D01*
X15363025Y-18805824D01*
X15595646Y-18843500D01*
X15613596Y-18843829D01*
X15847440Y-18814702D01*
X15864761Y-18809980D01*
X15912502Y-18789321D01*
X15867954Y-18935029D01*
X15865192Y-18952769D01*
X15862314Y-19188404D01*
X15864642Y-19206205D01*
X15928012Y-19433176D01*
X15935243Y-19449609D01*
X16059771Y-19649670D01*
X16071323Y-19663413D01*
X16246996Y-19820482D01*
X16261940Y-19830430D01*
X16474635Y-19931881D01*
X16491772Y-19937235D01*
X16724393Y-19974911D01*
X16742343Y-19975240D01*
X16976188Y-19946113D01*
X16993508Y-19941391D01*
X17117953Y-19887539D01*
X17127871Y-19892270D01*
X17145008Y-19897624D01*
X17377629Y-19935300D01*
X17395579Y-19935629D01*
X17629423Y-19906502D01*
X17646744Y-19901780D01*
X17863015Y-19808192D01*
X17878314Y-19798798D01*
X18059625Y-19648271D01*
X18071673Y-19634961D01*
X18203447Y-19439596D01*
X18211275Y-19423440D01*
X18283039Y-19198575D01*
X18286033Y-19180089D01*
X18289148Y-18925128D01*
X18286607Y-18906574D01*
X18220359Y-18680023D01*
X18212928Y-18663679D01*
X18150995Y-18566837D01*
X18433258Y-18566837D01*
X18449634Y-18564681D01*
X18728859Y-18489863D01*
X18753339Y-18477120D01*
X18909590Y-18346010D01*
X18923761Y-18329121D01*
X19024359Y-18154880D01*
X19031900Y-18134163D01*
X19033166Y-18126982D01*
X28322567Y-18126982D01*
X28324895Y-18144783D01*
X28388265Y-18371754D01*
X28395496Y-18388187D01*
X28520024Y-18588248D01*
X28531576Y-18601991D01*
X28707249Y-18759060D01*
X28722193Y-18769008D01*
X28934888Y-18870459D01*
X28952025Y-18875813D01*
X29184646Y-18913489D01*
X29202596Y-18913818D01*
X29436440Y-18884691D01*
X29453761Y-18879969D01*
X29670032Y-18786381D01*
X29685331Y-18776987D01*
X29866642Y-18626460D01*
X29878690Y-18613150D01*
X30010464Y-18417785D01*
X30018292Y-18401629D01*
X30090056Y-18176764D01*
X30093050Y-18158278D01*
X30096165Y-17903317D01*
X30093624Y-17884763D01*
X30027376Y-17658212D01*
X30019945Y-17641868D01*
X29892983Y-17443343D01*
X29881264Y-17429742D01*
X29703685Y-17274830D01*
X29688620Y-17265065D01*
X29474700Y-17166221D01*
X29457500Y-17161077D01*
X29224436Y-17126245D01*
X29206483Y-17126136D01*
X28973012Y-17158117D01*
X28955750Y-17163050D01*
X28740639Y-17259274D01*
X28725456Y-17268854D01*
X28545998Y-17421585D01*
X28534114Y-17435042D01*
X28404735Y-17632002D01*
X28397105Y-17648253D01*
X28328207Y-17873607D01*
X28325445Y-17891347D01*
X28322567Y-18126982D01*
X19033166Y-18126982D01*
X19065878Y-17941462D01*
X19066837Y-17930501D01*
X19066837Y-17066742D01*
X19064681Y-17050366D01*
X18989863Y-16771142D01*
X18977120Y-16746662D01*
X18846010Y-16590410D01*
X18829121Y-16576239D01*
X18654880Y-16475641D01*
X18634163Y-16468100D01*
X18441462Y-16434122D01*
X18430501Y-16433163D01*
X17566741Y-16433163D01*
X17550366Y-16435319D01*
X17331080Y-16494076D01*
X17227706Y-16460488D01*
X17214788Y-16457743D01*
X17006604Y-16435861D01*
X16993396Y-16435861D01*
X16785212Y-16457743D01*
X16772294Y-16460488D01*
X16573208Y-16525174D01*
X16561142Y-16530546D01*
X16379857Y-16635213D01*
X16369173Y-16642975D01*
X16213609Y-16783044D01*
X16204772Y-16792859D01*
X16081730Y-16962213D01*
X16075127Y-16973650D01*
X15997541Y-17147909D01*
X15885700Y-17096232D01*
X15868500Y-17091088D01*
X15635436Y-17056256D01*
X15617483Y-17056147D01*
X15384012Y-17088128D01*
X15366750Y-17093061D01*
X15151639Y-17189285D01*
X15136456Y-17198865D01*
X14956998Y-17351596D01*
X14945114Y-17365053D01*
X14815735Y-17562013D01*
X14808105Y-17578264D01*
X14739207Y-17803618D01*
X14736445Y-17821358D01*
X14733567Y-18056993D01*
X14108321Y-18056993D01*
X13955685Y-17923841D01*
X13940620Y-17914076D01*
X13726700Y-17815232D01*
X13709500Y-17810088D01*
X13476436Y-17775256D01*
X13458483Y-17775147D01*
X13225012Y-17807128D01*
X13207750Y-17812061D01*
X12992639Y-17908285D01*
X12977456Y-17917865D01*
X12797998Y-18070596D01*
X12786114Y-18084053D01*
X12656735Y-18281013D01*
X12649105Y-18297264D01*
X12634000Y-18346670D01*
X12634000Y-15854993D01*
X20956567Y-15854993D01*
X20958895Y-15872794D01*
X21022265Y-16099765D01*
X21029496Y-16116198D01*
X21154024Y-16316259D01*
X21165576Y-16330002D01*
X21341249Y-16487071D01*
X21356193Y-16497019D01*
X21568888Y-16598470D01*
X21586025Y-16603824D01*
X21818646Y-16641500D01*
X21836596Y-16641829D01*
X22070440Y-16612702D01*
X22087761Y-16607980D01*
X22304032Y-16514392D01*
X22319331Y-16504998D01*
X22500642Y-16354471D01*
X22512690Y-16341161D01*
X22644464Y-16145796D01*
X22652292Y-16129640D01*
X22724056Y-15904775D01*
X22727050Y-15886289D01*
X22730165Y-15631328D01*
X22727624Y-15612774D01*
X22661376Y-15386223D01*
X22653945Y-15369879D01*
X22526983Y-15171354D01*
X22515264Y-15157753D01*
X22337685Y-15002841D01*
X22322620Y-14993076D01*
X22108700Y-14894232D01*
X22091500Y-14889088D01*
X21858436Y-14854256D01*
X21840483Y-14854147D01*
X21607012Y-14886128D01*
X21589750Y-14891061D01*
X21374639Y-14987285D01*
X21359456Y-14996865D01*
X21179998Y-15149596D01*
X21168114Y-15163053D01*
X21038735Y-15360013D01*
X21031105Y-15376264D01*
X20962207Y-15601618D01*
X20959445Y-15619358D01*
X20956567Y-15854993D01*
X12634000Y-15854993D01*
X12634000Y-13134000D01*
X34866000Y-13134000D01*
X34866001Y-20366000D01*
G37*
%TD.AperFunction*%
%TD*%
M02*
