%TF.GenerationSoftware,KiCad,Pcbnew,(5.99.0-2309-gaf729d578)*%
%TF.CreationDate,2020-08-01T12:07:05-04:00*%
%TF.ProjectId,mk2,6d6b322e-6b69-4636-9164-5f7063625858,rev?*%
%TF.SameCoordinates,Original*%
%TF.FileFunction,Copper,L4,Bot*%
%TF.FilePolarity,Positive*%
%FSLAX46Y46*%
G04 Gerber Fmt 4.6, Leading zero omitted, Abs format (unit mm)*
G04 Created by KiCad (PCBNEW (5.99.0-2309-gaf729d578)) date 2020-08-01 12:07:05*
%MOMM*%
%LPD*%
G01*
G04 APERTURE LIST*
%TA.AperFunction,SMDPad,CuDef*%
%ADD10C,1.000000*%
%TD*%
%TA.AperFunction,ComponentPad*%
%ADD11O,0.850000X0.850000*%
%TD*%
%TA.AperFunction,ComponentPad*%
%ADD12R,0.850000X0.850000*%
%TD*%
%TA.AperFunction,ComponentPad*%
%ADD13O,0.900000X1.700000*%
%TD*%
%TA.AperFunction,ComponentPad*%
%ADD14O,0.900000X2.000000*%
%TD*%
%TA.AperFunction,ViaPad*%
%ADD15C,0.500000*%
%TD*%
%TA.AperFunction,Conductor*%
%ADD16C,0.130000*%
%TD*%
%TA.AperFunction,Conductor*%
%ADD17C,0.100000*%
%TD*%
G04 APERTURE END LIST*
D10*
%TO.P,TP4,1,1*%
%TO.N,SWDIO*%
X28250000Y-27015000D03*
%TD*%
%TO.P,TP3,1,1*%
%TO.N,VCC*%
X30500000Y-24765000D03*
%TD*%
%TO.P,TP1,1,1*%
%TO.N,GND*%
X28250000Y-24765000D03*
%TD*%
%TO.P,TP2,1,1*%
%TO.N,SWDCLK*%
X30500000Y-27015000D03*
%TD*%
D11*
%TO.P,J3,2,Pin_2*%
%TO.N,Net-(J3-Pad2)*%
X17000000Y-17500000D03*
D12*
%TO.P,J3,1,Pin_1*%
%TO.N,Net-(J3-Pad1)*%
X18000000Y-17500000D03*
%TD*%
D13*
%TO.P,J2,S1,SHIELD*%
%TO.N,GND*%
X25820000Y-46990000D03*
X17180000Y-46990000D03*
D14*
X25820000Y-42820000D03*
X17180000Y-42820000D03*
%TD*%
D15*
%TO.N,GND*%
X22987000Y-14478000D03*
%TO.N,VCC*%
X15261500Y-21738500D03*
X18923000Y-26924000D03*
%TO.N,SCL*%
X26169433Y-31871817D03*
%TO.N,GND*%
X25273000Y-32385000D03*
X22479000Y-38608000D03*
X23241000Y-35687000D03*
X32131000Y-32893000D03*
X33147000Y-35433000D03*
X15494000Y-43561000D03*
X15875000Y-39370000D03*
X17145000Y-36703000D03*
X19177000Y-35941000D03*
X20105030Y-31877000D03*
X15240000Y-28956000D03*
X17145000Y-28702000D03*
X13589000Y-23241000D03*
X17018000Y-23622000D03*
X15240000Y-24765000D03*
X19305405Y-21600032D03*
X19200435Y-20570020D03*
X16764000Y-20320000D03*
X15385000Y-14650000D03*
X19558000Y-17399000D03*
X24003000Y-17907000D03*
X26416000Y-19431000D03*
X30480000Y-22479000D03*
%TO.N,VCC*%
X30607000Y-23241000D03*
%TO.N,GND*%
X29083000Y-23622000D03*
X27051000Y-38608000D03*
X28448000Y-40386000D03*
X27432000Y-42291000D03*
X32258000Y-44069000D03*
X29464000Y-45847000D03*
X27305000Y-47371000D03*
X33020000Y-48387000D03*
X28829000Y-49022000D03*
%TO.N,SPI_CLK*%
X25019000Y-20828000D03*
%TO.N,5V*%
X23000000Y-19600990D03*
%TO.N,SPI_CLK*%
X20320000Y-20066000D03*
%TO.N,SQW*%
X29210000Y-18019989D03*
%TO.N,VIN*%
X22352000Y-25527000D03*
X22352000Y-20828000D03*
X22352000Y-22733000D03*
%TO.N,Net-(C5-Pad1)*%
X17515010Y-33571185D03*
%TO.N,VIN*%
X17000000Y-35125000D03*
%TO.N,BUTTON3*%
X15367000Y-35306000D03*
X19812000Y-27051000D03*
%TO.N,BATTPOW*%
X32175192Y-41940472D03*
%TO.N,VCC*%
X31900121Y-46028092D03*
X34594000Y-40250000D03*
%TO.N,BACKLIGHT*%
X26924000Y-34036000D03*
X24384000Y-28448000D03*
%TO.N,SWDCLK*%
X30299221Y-32565778D03*
%TO.N,CHGNG*%
X30241079Y-31850012D03*
%TO.N,SWDIO*%
X29210000Y-31969946D03*
%TO.N,BUTTON4*%
X29210008Y-32619957D03*
%TO.N,BUTTON1*%
X14097000Y-26162000D03*
%TO.N,BUTTON5*%
X18892040Y-26029797D03*
%TO.N,BUTTON1*%
X19304000Y-25527000D03*
%TO.N,BUZZER*%
X23368000Y-23495000D03*
X15250000Y-23250000D03*
%TO.N,VCC*%
X18415000Y-30480000D03*
X19000000Y-33500000D03*
%TO.N,VUSB*%
X18891324Y-34972515D03*
%TO.N,SQW*%
X20414604Y-35785020D03*
%TO.N,Net-(C5-Pad1)*%
X18161000Y-37465000D03*
%TO.N,BUTTON5*%
X15367000Y-31877000D03*
%TO.N,Net-(J3-Pad1)*%
X15621000Y-17950000D03*
X13462000Y-18669000D03*
%TO.N,FLASH_CS*%
X17402983Y-19041800D03*
%TO.N,SPI_MISO*%
X16749747Y-19081411D03*
%TO.N,FLASH_CS*%
X21590000Y-22352000D03*
%TO.N,SPI_MISO*%
X17907000Y-21209000D03*
%TO.N,5V*%
X21844000Y-15748000D03*
%TO.N,SPI_MOSI*%
X30993711Y-20562691D03*
X29667416Y-20510080D03*
%TO.N,SQW*%
X28575000Y-22225000D03*
%TO.N,SPI_CLK*%
X29040010Y-20680011D03*
%TO.N,BUTTON2*%
X31549612Y-38390694D03*
%TO.N,FLASHLIGHT*%
X30569698Y-38068405D03*
%TO.N,BUTTON4*%
X28194000Y-32258000D03*
X31242000Y-33909000D03*
X32131000Y-38100000D03*
%TO.N,VIN*%
X29226979Y-36322000D03*
%TO.N,CHGNG*%
X29858666Y-29295189D03*
%TO.N,Net-(J5-Pad3)*%
X29176979Y-35433000D03*
%TO.N,BUTTON2*%
X29210000Y-29337000D03*
%TO.N,FLASHLIGHT*%
X29506990Y-33887889D03*
%TO.N,RST*%
X22479000Y-33020000D03*
X20828000Y-32780000D03*
%TO.N,SDA*%
X22746559Y-34761516D03*
%TO.N,RST*%
X22987000Y-32385000D03*
X24130000Y-29337000D03*
%TO.N,SDA*%
X24081628Y-33606628D03*
%TO.N,RTCIRQ*%
X24289138Y-31822238D03*
%TO.N,SQW*%
X23368000Y-33274000D03*
%TO.N,RTCIRQ*%
X19304000Y-37465000D03*
%TO.N,BATTPOW*%
X20217827Y-39658030D03*
%TO.N,VUSB*%
X19003078Y-39100906D03*
%TO.N,Net-(J5-Pad1)*%
X24725225Y-35853775D03*
%TO.N,VIN*%
X22733000Y-36957000D03*
%TO.N,Net-(J5-Pad1)*%
X28575000Y-35933990D03*
%TO.N,Net-(J5-Pad3)*%
X25827992Y-35298990D03*
%TO.N,CHGNG*%
X30988000Y-42926000D03*
X34594000Y-38500000D03*
%TO.N,SCL*%
X18380020Y-44522759D03*
X20835051Y-37474994D03*
%TO.N,SDA*%
X18415000Y-45466000D03*
%TO.N,VUSB*%
X29845000Y-41148000D03*
X29718000Y-43561000D03*
%TO.N,Net-(J2-PadB5)*%
X26378139Y-41147987D03*
%TO.N,BATTPOW*%
X29210000Y-42291000D03*
%TO.N,Net-(J2-PadB5)*%
X23204939Y-43524939D03*
%TO.N,USB_DN*%
X20766013Y-43434000D03*
%TO.N,Net-(J2-PadA5)*%
X22606000Y-40386000D03*
X20066000Y-43434000D03*
%TO.N,USB_DN*%
X21844000Y-43307000D03*
%TO.N,BATTPOW*%
X29591000Y-44831000D03*
%TO.N,SPI_CLK*%
X32639000Y-19558000D03*
%TD*%
D16*
%TO.N,SCL*%
X23222804Y-35171999D02*
X26169433Y-32225370D01*
X26169433Y-32225370D02*
X26169433Y-31871817D01*
%TO.N,RST*%
X24510798Y-32385000D02*
X24892000Y-32003798D01*
%TO.N,SCL*%
X22993799Y-35171999D02*
X23222804Y-35171999D01*
%TO.N,RST*%
X24892000Y-32003798D02*
X24892000Y-30099000D01*
X22987000Y-32385000D02*
X24510798Y-32385000D01*
X24892000Y-30099000D02*
X24130000Y-29337000D01*
%TO.N,SCL*%
X20835051Y-37474994D02*
X20835051Y-37330747D01*
X20835051Y-37330747D02*
X22993799Y-35171999D01*
%TO.N,RTCIRQ*%
X19304000Y-37465000D02*
X19692001Y-37076999D01*
X19692001Y-37076999D02*
X19692001Y-33227795D01*
X21097558Y-31822238D02*
X24289138Y-31822238D01*
X19692001Y-33227795D02*
X21097558Y-31822238D01*
%TO.N,VUSB*%
X18753079Y-38850907D02*
X18753079Y-36279281D01*
X19003078Y-39100906D02*
X18753079Y-38850907D01*
X18641325Y-36167527D02*
X18641325Y-35222514D01*
X18753079Y-36279281D02*
X18641325Y-36167527D01*
X18641325Y-35222514D02*
X18891324Y-34972515D01*
%TO.N,BUTTON5*%
X15367000Y-31877000D02*
X15755001Y-31488999D01*
X15755001Y-31488999D02*
X15755001Y-29166836D01*
X15755001Y-29166836D02*
X18892040Y-26029797D01*
%TO.N,BUZZER*%
X17265201Y-23106999D02*
X17653202Y-23495000D01*
X17653202Y-23495000D02*
X23368000Y-23495000D01*
X15250000Y-23250000D02*
X15393001Y-23106999D01*
X15393001Y-23106999D02*
X17265201Y-23106999D01*
%TO.N,GND*%
X19305405Y-21600032D02*
X19305405Y-20674990D01*
X19305405Y-20674990D02*
X19200435Y-20570020D01*
%TO.N,FLASH_CS*%
X21329201Y-21201999D02*
X21839999Y-21712797D01*
X18633353Y-19041800D02*
X20793552Y-21201999D01*
X20793552Y-21201999D02*
X21329201Y-21201999D01*
X21839999Y-21712797D02*
X21839999Y-22102001D01*
X21839999Y-22102001D02*
X21590000Y-22352000D01*
X17402983Y-19041800D02*
X18633353Y-19041800D01*
%TO.N,VCC*%
X30500000Y-23348000D02*
X30607000Y-23241000D01*
X30500000Y-24765000D02*
X30500000Y-23348000D01*
%TO.N,GND*%
X29083000Y-23932000D02*
X29083000Y-23622000D01*
X28250000Y-24765000D02*
X29083000Y-23932000D01*
%TO.N,VCC*%
X34594000Y-43334213D02*
X34594000Y-40250000D01*
X31900121Y-46028092D02*
X34594000Y-43334213D01*
%TO.N,5V*%
X21844000Y-18444990D02*
X23000000Y-19600990D01*
%TO.N,SPI_CLK*%
X25019000Y-20828000D02*
X24257000Y-20066000D01*
%TO.N,5V*%
X21844000Y-15748000D02*
X21844000Y-18444990D01*
%TO.N,SPI_CLK*%
X24257000Y-20066000D02*
X20320000Y-20066000D01*
%TO.N,SQW*%
X28575000Y-22225000D02*
X28575000Y-18654989D01*
X28575000Y-18654989D02*
X29210000Y-18019989D01*
%TO.N,Net-(C5-Pad1)*%
X18161000Y-34217175D02*
X17515010Y-33571185D01*
%TO.N,VIN*%
X22352000Y-25527000D02*
X17018000Y-30861000D01*
%TO.N,Net-(C5-Pad1)*%
X18161000Y-37465000D02*
X18161000Y-34217175D01*
%TO.N,VIN*%
X22352000Y-20828000D02*
X22352000Y-22733000D01*
X17018000Y-30861000D02*
X17000000Y-30879000D01*
X17000000Y-30879000D02*
X17000000Y-35125000D01*
%TO.N,BUTTON3*%
X16510000Y-34163000D02*
X16510000Y-30353000D01*
X16510000Y-30353000D02*
X19812000Y-27051000D01*
X15367000Y-35306000D02*
X16510000Y-34163000D01*
%TO.N,BATTPOW*%
X31570110Y-43205443D02*
X31570110Y-42545554D01*
X31570110Y-42545554D02*
X32175192Y-41940472D01*
X29944553Y-44831000D02*
X31570110Y-43205443D01*
X29591000Y-44831000D02*
X29944553Y-44831000D01*
%TO.N,BACKLIGHT*%
X24384000Y-28448000D02*
X26924000Y-30988000D01*
X26924000Y-30988000D02*
X26924000Y-34036000D01*
%TO.N,SWDCLK*%
X30706089Y-31904911D02*
X30706089Y-27221089D01*
X30299221Y-32565778D02*
X30299221Y-32480072D01*
X30299221Y-32480072D02*
X30706080Y-32073213D01*
X30706080Y-31904920D02*
X30706089Y-31904911D01*
X30706080Y-32073213D02*
X30706080Y-31904920D01*
%TO.N,CHGNG*%
X29858666Y-29295189D02*
X30241079Y-29677602D01*
X30241079Y-29677602D02*
X30241079Y-31850012D01*
%TO.N,BUTTON2*%
X29210000Y-29337000D02*
X29776077Y-29903077D01*
X29971999Y-32926758D02*
X29971999Y-36813081D01*
X29776077Y-29903077D02*
X29776077Y-32730836D01*
X29971999Y-36813081D02*
X31549612Y-38390694D01*
X29776077Y-32730836D02*
X29971999Y-32926758D01*
%TO.N,SWDCLK*%
X30706089Y-27221089D02*
X30500000Y-27015000D01*
%TO.N,BUTTON4*%
X28194000Y-32258000D02*
X28555957Y-32619957D01*
X28555957Y-32619957D02*
X29210008Y-32619957D01*
%TO.N,SWDIO*%
X29210000Y-31969946D02*
X28250000Y-31009946D01*
X28250000Y-31009946D02*
X28250000Y-27015000D01*
%TO.N,BUTTON1*%
X14732000Y-25527000D02*
X19304000Y-25527000D01*
X14097000Y-26162000D02*
X14732000Y-25527000D01*
%TO.N,VCC*%
X18415000Y-30480000D02*
X18415000Y-32915000D01*
X18415000Y-32915000D02*
X19000000Y-33500000D01*
%TO.N,SQW*%
X23368000Y-33274000D02*
X22925624Y-33274000D01*
X22925624Y-33274000D02*
X20414604Y-35785020D01*
%TO.N,Net-(J3-Pad1)*%
X15621000Y-17950000D02*
X14181000Y-17950000D01*
X14181000Y-17950000D02*
X13462000Y-18669000D01*
%TO.N,SPI_MISO*%
X17907000Y-20238664D02*
X16749747Y-19081411D01*
X17907000Y-21209000D02*
X17907000Y-20238664D01*
%TO.N,SPI_CLK*%
X32639000Y-19558000D02*
X29649565Y-19558000D01*
%TO.N,SPI_MOSI*%
X30993711Y-20562691D02*
X29720027Y-20562691D01*
%TO.N,SPI_CLK*%
X29040010Y-20167555D02*
X29040010Y-20680011D01*
%TO.N,SPI_MOSI*%
X29720027Y-20562691D02*
X29667416Y-20510080D01*
%TO.N,SPI_CLK*%
X29649565Y-19558000D02*
X29040010Y-20167555D01*
%TO.N,FLASHLIGHT*%
X29691989Y-34072888D02*
X29691989Y-37190696D01*
%TO.N,BUTTON4*%
X31242000Y-37211000D02*
X32131000Y-38100000D01*
X31242000Y-33909000D02*
X31242000Y-37211000D01*
%TO.N,FLASHLIGHT*%
X29691989Y-37190696D02*
X30569698Y-38068405D01*
X29506990Y-33887889D02*
X29691989Y-34072888D01*
D17*
%TO.N,Net-(J5-Pad3)*%
X25827992Y-35298990D02*
X29042969Y-35298990D01*
D16*
%TO.N,VIN*%
X28591979Y-36957000D02*
X29226979Y-36322000D01*
X22733000Y-36957000D02*
X28591979Y-36957000D01*
D17*
%TO.N,Net-(J5-Pad3)*%
X29042969Y-35298990D02*
X29176979Y-35433000D01*
D16*
%TO.N,RST*%
X22479000Y-33020000D02*
X21068000Y-33020000D01*
X21068000Y-33020000D02*
X20828000Y-32780000D01*
D17*
%TO.N,SDA*%
X17880010Y-40889978D02*
X19453080Y-39316908D01*
X17880010Y-44931010D02*
X17880010Y-40889978D01*
X19453080Y-38054995D02*
X22746559Y-34761516D01*
X18415000Y-45466000D02*
X17880010Y-44931010D01*
X19453080Y-39316908D02*
X19453080Y-38054995D01*
D16*
X24081628Y-33606628D02*
X22926740Y-34761516D01*
X22926740Y-34761516D02*
X22746559Y-34761516D01*
D17*
%TO.N,SCL*%
X19160001Y-39963555D02*
X19160001Y-43742778D01*
X20835051Y-37474994D02*
X19703091Y-38606954D01*
X19160001Y-43742778D02*
X18380020Y-44522759D01*
X19703091Y-38606954D02*
X19703091Y-39420465D01*
%TO.N,BATTPOW*%
X26577030Y-39658030D02*
X20217827Y-39658030D01*
X29210000Y-42291000D02*
X26577030Y-39658030D01*
%TO.N,SCL*%
X19703091Y-39420465D02*
X19160001Y-39963555D01*
D16*
%TO.N,Net-(J5-Pad1)*%
X28575000Y-35933990D02*
X24805440Y-35933990D01*
X24805440Y-35933990D02*
X24725225Y-35853775D01*
D17*
%TO.N,CHGNG*%
X30988000Y-42926000D02*
X30988000Y-42106000D01*
X30988000Y-42106000D02*
X34594000Y-38500000D01*
%TO.N,VUSB*%
X29845000Y-43434000D02*
X29718000Y-43561000D01*
X29845000Y-41148000D02*
X29845000Y-43434000D01*
%TO.N,Net-(J2-PadB5)*%
X23204939Y-43171386D02*
X25228338Y-41147987D01*
X23204939Y-43524939D02*
X23204939Y-43171386D01*
X25228338Y-41147987D02*
X26378139Y-41147987D01*
%TO.N,Net-(J2-PadA5)*%
X20066000Y-42926000D02*
X20066000Y-43434000D01*
X22606000Y-40386000D02*
X20066000Y-42926000D01*
D16*
%TO.N,USB_DN*%
X21844000Y-43307000D02*
X20893013Y-43307000D01*
X20893013Y-43307000D02*
X20766013Y-43434000D01*
%TD*%
M02*
