%TF.GenerationSoftware,KiCad,Pcbnew,(5.99.0-2309-gaf729d578)*%
%TF.CreationDate,2020-08-01T12:07:06-04:00*%
%TF.ProjectId,mk2,6d6b322e-6b69-4636-9164-5f7063625858,rev?*%
%TF.SameCoordinates,Original*%
%TF.FileFunction,Soldermask,Top*%
%TF.FilePolarity,Negative*%
%FSLAX46Y46*%
G04 Gerber Fmt 4.6, Leading zero omitted, Abs format (unit mm)*
G04 Created by KiCad (PCBNEW (5.99.0-2309-gaf729d578)) date 2020-08-01 12:07:06*
%MOMM*%
%LPD*%
G01*
G04 APERTURE LIST*
%ADD10R,0.450000X0.655000*%
%ADD11R,0.230000X0.750000*%
%ADD12R,1.650000X1.300000*%
%ADD13R,0.300000X1.000000*%
%ADD14R,0.400000X0.420000*%
%ADD15C,0.229500*%
%ADD16R,0.292474X0.965347*%
%ADD17R,0.200000X1.600000*%
%ADD18R,0.890000X0.300000*%
%ADD19R,0.300000X1.300000*%
%ADD20R,1.800000X2.200000*%
%ADD21O,0.850000X0.850000*%
%ADD22R,0.850000X0.850000*%
%ADD23R,0.700000X0.450000*%
%ADD24R,0.600000X1.160000*%
%ADD25C,0.600000*%
%ADD26R,0.300000X1.160000*%
%ADD27O,0.900000X1.700000*%
%ADD28O,0.900000X2.000000*%
%ADD29R,0.800000X1.450000*%
%ADD30R,1.270000X0.900000*%
%ADD31R,0.450000X0.700000*%
%ADD32R,1.100000X1.050000*%
%ADD33R,0.650000X1.060000*%
%ADD34R,1.560000X0.650000*%
%ADD35R,1.500000X0.550000*%
%ADD36R,0.400000X0.600000*%
%ADD37R,0.600000X0.400000*%
%ADD38R,1.220000X0.650000*%
G04 APERTURE END LIST*
%TO.C,R16*%
G36*
G01*
X14025000Y-21512500D02*
X14025000Y-21987500D01*
G75*
G02*
X13787500Y-22225000I-237500J0D01*
G01*
X13212500Y-22225000D01*
G75*
G02*
X12975000Y-21987500I0J237500D01*
G01*
X12975000Y-21512500D01*
G75*
G02*
X13212500Y-21275000I237500J0D01*
G01*
X13787500Y-21275000D01*
G75*
G02*
X14025000Y-21512500I0J-237500D01*
G01*
G37*
G36*
G01*
X15775000Y-21512500D02*
X15775000Y-21987500D01*
G75*
G02*
X15537500Y-22225000I-237500J0D01*
G01*
X14962500Y-22225000D01*
G75*
G02*
X14725000Y-21987500I0J237500D01*
G01*
X14725000Y-21512500D01*
G75*
G02*
X14962500Y-21275000I237500J0D01*
G01*
X15537500Y-21275000D01*
G75*
G02*
X15775000Y-21512500I0J-237500D01*
G01*
G37*
%TD*%
%TO.C,R15*%
G36*
G01*
X14025000Y-23012500D02*
X14025000Y-23487500D01*
G75*
G02*
X13787500Y-23725000I-237500J0D01*
G01*
X13212500Y-23725000D01*
G75*
G02*
X12975000Y-23487500I0J237500D01*
G01*
X12975000Y-23012500D01*
G75*
G02*
X13212500Y-22775000I237500J0D01*
G01*
X13787500Y-22775000D01*
G75*
G02*
X14025000Y-23012500I0J-237500D01*
G01*
G37*
G36*
G01*
X15775000Y-23012500D02*
X15775000Y-23487500D01*
G75*
G02*
X15537500Y-23725000I-237500J0D01*
G01*
X14962500Y-23725000D01*
G75*
G02*
X14725000Y-23487500I0J237500D01*
G01*
X14725000Y-23012500D01*
G75*
G02*
X14962500Y-22775000I237500J0D01*
G01*
X15537500Y-22775000D01*
G75*
G02*
X15775000Y-23012500I0J-237500D01*
G01*
G37*
%TD*%
%TO.C,R14*%
G36*
G01*
X23850000Y-37237500D02*
X23850000Y-36762500D01*
G75*
G02*
X24087500Y-36525000I237500J0D01*
G01*
X24662500Y-36525000D01*
G75*
G02*
X24900000Y-36762500I0J-237500D01*
G01*
X24900000Y-37237500D01*
G75*
G02*
X24662500Y-37475000I-237500J0D01*
G01*
X24087500Y-37475000D01*
G75*
G02*
X23850000Y-37237500I0J237500D01*
G01*
G37*
G36*
G01*
X22100000Y-37237500D02*
X22100000Y-36762500D01*
G75*
G02*
X22337500Y-36525000I237500J0D01*
G01*
X22912500Y-36525000D01*
G75*
G02*
X23150000Y-36762500I0J-237500D01*
G01*
X23150000Y-37237500D01*
G75*
G02*
X22912500Y-37475000I-237500J0D01*
G01*
X22337500Y-37475000D01*
G75*
G02*
X22100000Y-37237500I0J237500D01*
G01*
G37*
%TD*%
%TO.C,R13*%
G36*
G01*
X27401000Y-37237500D02*
X27401000Y-36762500D01*
G75*
G02*
X27638500Y-36525000I237500J0D01*
G01*
X28213500Y-36525000D01*
G75*
G02*
X28451000Y-36762500I0J-237500D01*
G01*
X28451000Y-37237500D01*
G75*
G02*
X28213500Y-37475000I-237500J0D01*
G01*
X27638500Y-37475000D01*
G75*
G02*
X27401000Y-37237500I0J237500D01*
G01*
G37*
G36*
G01*
X25651000Y-37237500D02*
X25651000Y-36762500D01*
G75*
G02*
X25888500Y-36525000I237500J0D01*
G01*
X26463500Y-36525000D01*
G75*
G02*
X26701000Y-36762500I0J-237500D01*
G01*
X26701000Y-37237500D01*
G75*
G02*
X26463500Y-37475000I-237500J0D01*
G01*
X25888500Y-37475000D01*
G75*
G02*
X25651000Y-37237500I0J237500D01*
G01*
G37*
%TD*%
%TO.C,R12*%
G36*
G01*
X27237500Y-39150000D02*
X26762500Y-39150000D01*
G75*
G02*
X26525000Y-38912500I0J237500D01*
G01*
X26525000Y-38337500D01*
G75*
G02*
X26762500Y-38100000I237500J0D01*
G01*
X27237500Y-38100000D01*
G75*
G02*
X27475000Y-38337500I0J-237500D01*
G01*
X27475000Y-38912500D01*
G75*
G02*
X27237500Y-39150000I-237500J0D01*
G01*
G37*
G36*
G01*
X27237500Y-40900000D02*
X26762500Y-40900000D01*
G75*
G02*
X26525000Y-40662500I0J237500D01*
G01*
X26525000Y-40087500D01*
G75*
G02*
X26762500Y-39850000I237500J0D01*
G01*
X27237500Y-39850000D01*
G75*
G02*
X27475000Y-40087500I0J-237500D01*
G01*
X27475000Y-40662500D01*
G75*
G02*
X27237500Y-40900000I-237500J0D01*
G01*
G37*
%TD*%
%TO.C,R11*%
G36*
G01*
X22737500Y-39150000D02*
X22262500Y-39150000D01*
G75*
G02*
X22025000Y-38912500I0J237500D01*
G01*
X22025000Y-38337500D01*
G75*
G02*
X22262500Y-38100000I237500J0D01*
G01*
X22737500Y-38100000D01*
G75*
G02*
X22975000Y-38337500I0J-237500D01*
G01*
X22975000Y-38912500D01*
G75*
G02*
X22737500Y-39150000I-237500J0D01*
G01*
G37*
G36*
G01*
X22737500Y-40900000D02*
X22262500Y-40900000D01*
G75*
G02*
X22025000Y-40662500I0J237500D01*
G01*
X22025000Y-40087500D01*
G75*
G02*
X22262500Y-39850000I237500J0D01*
G01*
X22737500Y-39850000D01*
G75*
G02*
X22975000Y-40087500I0J-237500D01*
G01*
X22975000Y-40662500D01*
G75*
G02*
X22737500Y-40900000I-237500J0D01*
G01*
G37*
%TD*%
%TO.C,R9*%
G36*
G01*
X28262500Y-39850000D02*
X28737500Y-39850000D01*
G75*
G02*
X28975000Y-40087500I0J-237500D01*
G01*
X28975000Y-40662500D01*
G75*
G02*
X28737500Y-40900000I-237500J0D01*
G01*
X28262500Y-40900000D01*
G75*
G02*
X28025000Y-40662500I0J237500D01*
G01*
X28025000Y-40087500D01*
G75*
G02*
X28262500Y-39850000I237500J0D01*
G01*
G37*
G36*
G01*
X28262500Y-38100000D02*
X28737500Y-38100000D01*
G75*
G02*
X28975000Y-38337500I0J-237500D01*
G01*
X28975000Y-38912500D01*
G75*
G02*
X28737500Y-39150000I-237500J0D01*
G01*
X28262500Y-39150000D01*
G75*
G02*
X28025000Y-38912500I0J237500D01*
G01*
X28025000Y-38337500D01*
G75*
G02*
X28262500Y-38100000I237500J0D01*
G01*
G37*
%TD*%
%TO.C,R6*%
G36*
G01*
X21065500Y-33305000D02*
X20590500Y-33305000D01*
G75*
G02*
X20353000Y-33067500I0J237500D01*
G01*
X20353000Y-32492500D01*
G75*
G02*
X20590500Y-32255000I237500J0D01*
G01*
X21065500Y-32255000D01*
G75*
G02*
X21303000Y-32492500I0J-237500D01*
G01*
X21303000Y-33067500D01*
G75*
G02*
X21065500Y-33305000I-237500J0D01*
G01*
G37*
G36*
G01*
X21065500Y-35055000D02*
X20590500Y-35055000D01*
G75*
G02*
X20353000Y-34817500I0J237500D01*
G01*
X20353000Y-34242500D01*
G75*
G02*
X20590500Y-34005000I237500J0D01*
G01*
X21065500Y-34005000D01*
G75*
G02*
X21303000Y-34242500I0J-237500D01*
G01*
X21303000Y-34817500D01*
G75*
G02*
X21065500Y-35055000I-237500J0D01*
G01*
G37*
%TD*%
%TO.C,R5*%
G36*
G01*
X34356500Y-39725000D02*
X34831500Y-39725000D01*
G75*
G02*
X35069000Y-39962500I0J-237500D01*
G01*
X35069000Y-40537500D01*
G75*
G02*
X34831500Y-40775000I-237500J0D01*
G01*
X34356500Y-40775000D01*
G75*
G02*
X34119000Y-40537500I0J237500D01*
G01*
X34119000Y-39962500D01*
G75*
G02*
X34356500Y-39725000I237500J0D01*
G01*
G37*
G36*
G01*
X34356500Y-37975000D02*
X34831500Y-37975000D01*
G75*
G02*
X35069000Y-38212500I0J-237500D01*
G01*
X35069000Y-38787500D01*
G75*
G02*
X34831500Y-39025000I-237500J0D01*
G01*
X34356500Y-39025000D01*
G75*
G02*
X34119000Y-38787500I0J237500D01*
G01*
X34119000Y-38212500D01*
G75*
G02*
X34356500Y-37975000I237500J0D01*
G01*
G37*
%TD*%
%TO.C,R4*%
G36*
G01*
X25262500Y-39850000D02*
X25737500Y-39850000D01*
G75*
G02*
X25975000Y-40087500I0J-237500D01*
G01*
X25975000Y-40662500D01*
G75*
G02*
X25737500Y-40900000I-237500J0D01*
G01*
X25262500Y-40900000D01*
G75*
G02*
X25025000Y-40662500I0J237500D01*
G01*
X25025000Y-40087500D01*
G75*
G02*
X25262500Y-39850000I237500J0D01*
G01*
G37*
G36*
G01*
X25262500Y-38100000D02*
X25737500Y-38100000D01*
G75*
G02*
X25975000Y-38337500I0J-237500D01*
G01*
X25975000Y-38912500D01*
G75*
G02*
X25737500Y-39150000I-237500J0D01*
G01*
X25262500Y-39150000D01*
G75*
G02*
X25025000Y-38912500I0J237500D01*
G01*
X25025000Y-38337500D01*
G75*
G02*
X25262500Y-38100000I237500J0D01*
G01*
G37*
%TD*%
%TO.C,R3*%
G36*
G01*
X23762500Y-39850000D02*
X24237500Y-39850000D01*
G75*
G02*
X24475000Y-40087500I0J-237500D01*
G01*
X24475000Y-40662500D01*
G75*
G02*
X24237500Y-40900000I-237500J0D01*
G01*
X23762500Y-40900000D01*
G75*
G02*
X23525000Y-40662500I0J237500D01*
G01*
X23525000Y-40087500D01*
G75*
G02*
X23762500Y-39850000I237500J0D01*
G01*
G37*
G36*
G01*
X23762500Y-38100000D02*
X24237500Y-38100000D01*
G75*
G02*
X24475000Y-38337500I0J-237500D01*
G01*
X24475000Y-38912500D01*
G75*
G02*
X24237500Y-39150000I-237500J0D01*
G01*
X23762500Y-39150000D01*
G75*
G02*
X23525000Y-38912500I0J237500D01*
G01*
X23525000Y-38337500D01*
G75*
G02*
X23762500Y-38100000I237500J0D01*
G01*
G37*
%TD*%
%TO.C,C20*%
G36*
G01*
X28025000Y-42012500D02*
X28025000Y-42487500D01*
G75*
G02*
X27787500Y-42725000I-237500J0D01*
G01*
X27212500Y-42725000D01*
G75*
G02*
X26975000Y-42487500I0J237500D01*
G01*
X26975000Y-42012500D01*
G75*
G02*
X27212500Y-41775000I237500J0D01*
G01*
X27787500Y-41775000D01*
G75*
G02*
X28025000Y-42012500I0J-237500D01*
G01*
G37*
G36*
G01*
X29775000Y-42012500D02*
X29775000Y-42487500D01*
G75*
G02*
X29537500Y-42725000I-237500J0D01*
G01*
X28962500Y-42725000D01*
G75*
G02*
X28725000Y-42487500I0J237500D01*
G01*
X28725000Y-42012500D01*
G75*
G02*
X28962500Y-41775000I237500J0D01*
G01*
X29537500Y-41775000D01*
G75*
G02*
X29775000Y-42012500I0J-237500D01*
G01*
G37*
%TD*%
%TO.C,C10*%
G36*
G01*
X27487500Y-47775000D02*
X27012500Y-47775000D01*
G75*
G02*
X26775000Y-47537500I0J237500D01*
G01*
X26775000Y-46962500D01*
G75*
G02*
X27012500Y-46725000I237500J0D01*
G01*
X27487500Y-46725000D01*
G75*
G02*
X27725000Y-46962500I0J-237500D01*
G01*
X27725000Y-47537500D01*
G75*
G02*
X27487500Y-47775000I-237500J0D01*
G01*
G37*
G36*
G01*
X27487500Y-49525000D02*
X27012500Y-49525000D01*
G75*
G02*
X26775000Y-49287500I0J237500D01*
G01*
X26775000Y-48712500D01*
G75*
G02*
X27012500Y-48475000I237500J0D01*
G01*
X27487500Y-48475000D01*
G75*
G02*
X27725000Y-48712500I0J-237500D01*
G01*
X27725000Y-49287500D01*
G75*
G02*
X27487500Y-49525000I-237500J0D01*
G01*
G37*
%TD*%
%TO.C,C9*%
G36*
G01*
X23237500Y-15025000D02*
X22762500Y-15025000D01*
G75*
G02*
X22525000Y-14787500I0J237500D01*
G01*
X22525000Y-14212500D01*
G75*
G02*
X22762500Y-13975000I237500J0D01*
G01*
X23237500Y-13975000D01*
G75*
G02*
X23475000Y-14212500I0J-237500D01*
G01*
X23475000Y-14787500D01*
G75*
G02*
X23237500Y-15025000I-237500J0D01*
G01*
G37*
G36*
G01*
X23237500Y-16775000D02*
X22762500Y-16775000D01*
G75*
G02*
X22525000Y-16537500I0J237500D01*
G01*
X22525000Y-15962500D01*
G75*
G02*
X22762500Y-15725000I237500J0D01*
G01*
X23237500Y-15725000D01*
G75*
G02*
X23475000Y-15962500I0J-237500D01*
G01*
X23475000Y-16537500D01*
G75*
G02*
X23237500Y-16775000I-237500J0D01*
G01*
G37*
%TD*%
%TO.C,C8*%
G36*
G01*
X23237500Y-18525000D02*
X22762500Y-18525000D01*
G75*
G02*
X22525000Y-18287500I0J237500D01*
G01*
X22525000Y-17712500D01*
G75*
G02*
X22762500Y-17475000I237500J0D01*
G01*
X23237500Y-17475000D01*
G75*
G02*
X23475000Y-17712500I0J-237500D01*
G01*
X23475000Y-18287500D01*
G75*
G02*
X23237500Y-18525000I-237500J0D01*
G01*
G37*
G36*
G01*
X23237500Y-20275000D02*
X22762500Y-20275000D01*
G75*
G02*
X22525000Y-20037500I0J237500D01*
G01*
X22525000Y-19462500D01*
G75*
G02*
X22762500Y-19225000I237500J0D01*
G01*
X23237500Y-19225000D01*
G75*
G02*
X23475000Y-19462500I0J-237500D01*
G01*
X23475000Y-20037500D01*
G75*
G02*
X23237500Y-20275000I-237500J0D01*
G01*
G37*
%TD*%
%TO.C,C7*%
G36*
G01*
X28512500Y-48475000D02*
X28987500Y-48475000D01*
G75*
G02*
X29225000Y-48712500I0J-237500D01*
G01*
X29225000Y-49287500D01*
G75*
G02*
X28987500Y-49525000I-237500J0D01*
G01*
X28512500Y-49525000D01*
G75*
G02*
X28275000Y-49287500I0J237500D01*
G01*
X28275000Y-48712500D01*
G75*
G02*
X28512500Y-48475000I237500J0D01*
G01*
G37*
G36*
G01*
X28512500Y-46725000D02*
X28987500Y-46725000D01*
G75*
G02*
X29225000Y-46962500I0J-237500D01*
G01*
X29225000Y-47537500D01*
G75*
G02*
X28987500Y-47775000I-237500J0D01*
G01*
X28512500Y-47775000D01*
G75*
G02*
X28275000Y-47537500I0J237500D01*
G01*
X28275000Y-46962500D01*
G75*
G02*
X28512500Y-46725000I237500J0D01*
G01*
G37*
%TD*%
%TO.C,C6*%
G36*
G01*
X20025000Y-17262500D02*
X20025000Y-17737500D01*
G75*
G02*
X19787500Y-17975000I-237500J0D01*
G01*
X19212500Y-17975000D01*
G75*
G02*
X18975000Y-17737500I0J237500D01*
G01*
X18975000Y-17262500D01*
G75*
G02*
X19212500Y-17025000I237500J0D01*
G01*
X19787500Y-17025000D01*
G75*
G02*
X20025000Y-17262500I0J-237500D01*
G01*
G37*
G36*
G01*
X21775000Y-17262500D02*
X21775000Y-17737500D01*
G75*
G02*
X21537500Y-17975000I-237500J0D01*
G01*
X20962500Y-17975000D01*
G75*
G02*
X20725000Y-17737500I0J237500D01*
G01*
X20725000Y-17262500D01*
G75*
G02*
X20962500Y-17025000I237500J0D01*
G01*
X21537500Y-17025000D01*
G75*
G02*
X21775000Y-17262500I0J-237500D01*
G01*
G37*
%TD*%
%TO.C,C4*%
G36*
G01*
X16762500Y-36350000D02*
X17237500Y-36350000D01*
G75*
G02*
X17475000Y-36587500I0J-237500D01*
G01*
X17475000Y-37162500D01*
G75*
G02*
X17237500Y-37400000I-237500J0D01*
G01*
X16762500Y-37400000D01*
G75*
G02*
X16525000Y-37162500I0J237500D01*
G01*
X16525000Y-36587500D01*
G75*
G02*
X16762500Y-36350000I237500J0D01*
G01*
G37*
G36*
G01*
X16762500Y-34600000D02*
X17237500Y-34600000D01*
G75*
G02*
X17475000Y-34837500I0J-237500D01*
G01*
X17475000Y-35412500D01*
G75*
G02*
X17237500Y-35650000I-237500J0D01*
G01*
X16762500Y-35650000D01*
G75*
G02*
X16525000Y-35412500I0J237500D01*
G01*
X16525000Y-34837500D01*
G75*
G02*
X16762500Y-34600000I237500J0D01*
G01*
G37*
%TD*%
%TO.C,C3*%
G36*
G01*
X17525000Y-26762500D02*
X17525000Y-27237500D01*
G75*
G02*
X17287500Y-27475000I-237500J0D01*
G01*
X16712500Y-27475000D01*
G75*
G02*
X16475000Y-27237500I0J237500D01*
G01*
X16475000Y-26762500D01*
G75*
G02*
X16712500Y-26525000I237500J0D01*
G01*
X17287500Y-26525000D01*
G75*
G02*
X17525000Y-26762500I0J-237500D01*
G01*
G37*
G36*
G01*
X19275000Y-26762500D02*
X19275000Y-27237500D01*
G75*
G02*
X19037500Y-27475000I-237500J0D01*
G01*
X18462500Y-27475000D01*
G75*
G02*
X18225000Y-27237500I0J237500D01*
G01*
X18225000Y-26762500D01*
G75*
G02*
X18462500Y-26525000I237500J0D01*
G01*
X19037500Y-26525000D01*
G75*
G02*
X19275000Y-26762500I0J-237500D01*
G01*
G37*
%TD*%
%TO.C,C2*%
G36*
G01*
X16762500Y-24725000D02*
X17237500Y-24725000D01*
G75*
G02*
X17475000Y-24962500I0J-237500D01*
G01*
X17475000Y-25537500D01*
G75*
G02*
X17237500Y-25775000I-237500J0D01*
G01*
X16762500Y-25775000D01*
G75*
G02*
X16525000Y-25537500I0J237500D01*
G01*
X16525000Y-24962500D01*
G75*
G02*
X16762500Y-24725000I237500J0D01*
G01*
G37*
G36*
G01*
X16762500Y-22975000D02*
X17237500Y-22975000D01*
G75*
G02*
X17475000Y-23212500I0J-237500D01*
G01*
X17475000Y-23787500D01*
G75*
G02*
X17237500Y-24025000I-237500J0D01*
G01*
X16762500Y-24025000D01*
G75*
G02*
X16525000Y-23787500I0J237500D01*
G01*
X16525000Y-23212500D01*
G75*
G02*
X16762500Y-22975000I237500J0D01*
G01*
G37*
%TD*%
%TO.C,C1*%
G36*
G01*
X16512500Y-21475000D02*
X16987500Y-21475000D01*
G75*
G02*
X17225000Y-21712500I0J-237500D01*
G01*
X17225000Y-22287500D01*
G75*
G02*
X16987500Y-22525000I-237500J0D01*
G01*
X16512500Y-22525000D01*
G75*
G02*
X16275000Y-22287500I0J237500D01*
G01*
X16275000Y-21712500D01*
G75*
G02*
X16512500Y-21475000I237500J0D01*
G01*
G37*
G36*
G01*
X16512500Y-19725000D02*
X16987500Y-19725000D01*
G75*
G02*
X17225000Y-19962500I0J-237500D01*
G01*
X17225000Y-20537500D01*
G75*
G02*
X16987500Y-20775000I-237500J0D01*
G01*
X16512500Y-20775000D01*
G75*
G02*
X16275000Y-20537500I0J237500D01*
G01*
X16275000Y-19962500D01*
G75*
G02*
X16512500Y-19725000I237500J0D01*
G01*
G37*
%TD*%
D10*
%TO.C,P1*%
X33100000Y-37297500D03*
X33100000Y-38702500D03*
X29900000Y-38702500D03*
X29900000Y-37297500D03*
D11*
X32300000Y-36775000D03*
X30700000Y-36775000D03*
X31900000Y-36775000D03*
X31100000Y-36775000D03*
X31500000Y-36775000D03*
X32300000Y-39225000D03*
X30700000Y-39225000D03*
X31900000Y-39225000D03*
X31100000Y-39225000D03*
X31500000Y-39225000D03*
%TD*%
D12*
%TO.C,J5*%
X34250000Y-34000000D03*
X28225000Y-34000000D03*
D13*
X32000000Y-35250000D03*
X30500000Y-35250000D03*
X31000000Y-35250000D03*
X31500000Y-35250000D03*
%TD*%
D14*
%TO.C,IC2*%
X18400000Y-35800000D03*
X19300000Y-35800000D03*
X20200000Y-35800000D03*
X21100000Y-35800000D03*
X18400000Y-36700000D03*
X19300000Y-36700000D03*
X20200000Y-36700000D03*
X21100000Y-36700000D03*
%TD*%
%TO.C,JP1*%
G36*
G01*
X34850250Y-42275000D02*
X34337750Y-42275000D01*
G75*
G02*
X34119000Y-42056250I0J218750D01*
G01*
X34119000Y-41618750D01*
G75*
G02*
X34337750Y-41400000I218750J0D01*
G01*
X34850250Y-41400000D01*
G75*
G02*
X35069000Y-41618750I0J-218750D01*
G01*
X35069000Y-42056250D01*
G75*
G02*
X34850250Y-42275000I-218750J0D01*
G01*
G37*
G36*
G01*
X34850250Y-43850000D02*
X34337750Y-43850000D01*
G75*
G02*
X34119000Y-43631250I0J218750D01*
G01*
X34119000Y-43193750D01*
G75*
G02*
X34337750Y-42975000I218750J0D01*
G01*
X34850250Y-42975000D01*
G75*
G02*
X35069000Y-43193750I0J-218750D01*
G01*
X35069000Y-43631250D01*
G75*
G02*
X34850250Y-43850000I-218750J0D01*
G01*
G37*
%TD*%
%TO.C,BT1*%
G36*
G01*
X33700000Y-46450000D02*
X33700000Y-45150000D01*
G75*
G02*
X33950000Y-44900000I250000J0D01*
G01*
X34650000Y-44900000D01*
G75*
G02*
X34900000Y-45150000I0J-250000D01*
G01*
X34900000Y-46450000D01*
G75*
G02*
X34650000Y-46700000I-250000J0D01*
G01*
X33950000Y-46700000D01*
G75*
G02*
X33700000Y-46450000I0J250000D01*
G01*
G37*
G36*
G01*
X30100000Y-46450000D02*
X30100000Y-45150000D01*
G75*
G02*
X30350000Y-44900000I250000J0D01*
G01*
X31050000Y-44900000D01*
G75*
G02*
X31300000Y-45150000I0J-250000D01*
G01*
X31300000Y-46450000D01*
G75*
G02*
X31050000Y-46700000I-250000J0D01*
G01*
X30350000Y-46700000D01*
G75*
G02*
X30100000Y-46450000I0J250000D01*
G01*
G37*
G36*
G01*
X32700000Y-48950000D02*
X32700000Y-47700000D01*
G75*
G02*
X32850000Y-47550000I150000J0D01*
G01*
X33150000Y-47550000D01*
G75*
G02*
X33300000Y-47700000I0J-150000D01*
G01*
X33300000Y-48950000D01*
G75*
G02*
X33150000Y-49100000I-150000J0D01*
G01*
X32850000Y-49100000D01*
G75*
G02*
X32700000Y-48950000I0J150000D01*
G01*
G37*
G36*
G01*
X31700000Y-48950000D02*
X31700000Y-47700000D01*
G75*
G02*
X31850000Y-47550000I150000J0D01*
G01*
X32150000Y-47550000D01*
G75*
G02*
X32300000Y-47700000I0J-150000D01*
G01*
X32300000Y-48950000D01*
G75*
G02*
X32150000Y-49100000I-150000J0D01*
G01*
X31850000Y-49100000D01*
G75*
G02*
X31700000Y-48950000I0J150000D01*
G01*
G37*
%TD*%
D15*
%TO.C,U6*%
X28400000Y-45400000D03*
X28000000Y-45400000D03*
X27600000Y-45400000D03*
X28400000Y-45000000D03*
X28000000Y-45000000D03*
X27600000Y-45000000D03*
X28400000Y-44600000D03*
X28000000Y-44600000D03*
X27600000Y-44600000D03*
%TD*%
%TO.C,U5*%
G36*
G01*
X18650000Y-15017327D02*
X18650000Y-15017327D01*
G75*
G02*
X18796237Y-15163564I0J-146237D01*
G01*
X18796237Y-15836436D01*
G75*
G02*
X18650000Y-15982673I-146237J0D01*
G01*
X18650000Y-15982673D01*
G75*
G02*
X18503763Y-15836436I0J146237D01*
G01*
X18503763Y-15163564D01*
G75*
G02*
X18650000Y-15017327I146237J0D01*
G01*
G37*
G36*
G01*
X18000000Y-15017327D02*
X18000000Y-15017327D01*
G75*
G02*
X18146237Y-15163564I0J-146237D01*
G01*
X18146237Y-15836436D01*
G75*
G02*
X18000000Y-15982673I-146237J0D01*
G01*
X18000000Y-15982673D01*
G75*
G02*
X17853763Y-15836436I0J146237D01*
G01*
X17853763Y-15163564D01*
G75*
G02*
X18000000Y-15017327I146237J0D01*
G01*
G37*
G36*
G01*
X17350000Y-15017327D02*
X17350000Y-15017327D01*
G75*
G02*
X17496237Y-15163564I0J-146237D01*
G01*
X17496237Y-15836436D01*
G75*
G02*
X17350000Y-15982673I-146237J0D01*
G01*
X17350000Y-15982673D01*
G75*
G02*
X17203763Y-15836436I0J146237D01*
G01*
X17203763Y-15163564D01*
G75*
G02*
X17350000Y-15017327I146237J0D01*
G01*
G37*
G36*
G01*
X17350000Y-13110200D02*
X17350000Y-13110200D01*
G75*
G02*
X17496237Y-13256437I0J-146237D01*
G01*
X17496237Y-13929309D01*
G75*
G02*
X17350000Y-14075546I-146237J0D01*
G01*
X17350000Y-14075546D01*
G75*
G02*
X17203763Y-13929309I0J146237D01*
G01*
X17203763Y-13256437D01*
G75*
G02*
X17350000Y-13110200I146237J0D01*
G01*
G37*
G36*
G01*
X18000000Y-13110200D02*
X18000000Y-13110200D01*
G75*
G02*
X18146237Y-13256437I0J-146237D01*
G01*
X18146237Y-13929309D01*
G75*
G02*
X18000000Y-14075546I-146237J0D01*
G01*
X18000000Y-14075546D01*
G75*
G02*
X17853763Y-13929309I0J146237D01*
G01*
X17853763Y-13256437D01*
G75*
G02*
X18000000Y-13110200I146237J0D01*
G01*
G37*
D16*
X18650000Y-13592873D03*
%TD*%
D17*
%TO.C,U1*%
X19750000Y-19750000D03*
D18*
X21170000Y-19000000D03*
X21170000Y-19500000D03*
X21170000Y-20000000D03*
X21170000Y-20500000D03*
X18330000Y-20500000D03*
X18330000Y-20000000D03*
X18330000Y-19500000D03*
X18330000Y-19000000D03*
%TD*%
D19*
%TO.C,J1*%
X27250000Y-19350000D03*
X27750000Y-19350000D03*
X28250000Y-19350000D03*
X28750000Y-19350000D03*
X29250000Y-19350000D03*
X29750000Y-19350000D03*
X30250000Y-19350000D03*
X30750000Y-19350000D03*
X31250000Y-19350000D03*
X31750000Y-19350000D03*
D20*
X33650000Y-16100000D03*
X25350000Y-16100000D03*
%TD*%
D21*
%TO.C,J3*%
X17000000Y-17500000D03*
D22*
X18000000Y-17500000D03*
%TD*%
D23*
%TO.C,Q4*%
X13250000Y-25500000D03*
X15250000Y-24850000D03*
X15250000Y-26150000D03*
%TD*%
D24*
%TO.C,J2*%
X24700000Y-42240000D03*
X23900000Y-42240000D03*
X18300000Y-42240000D03*
X19100000Y-42240000D03*
D25*
X18610000Y-43300000D03*
X24390000Y-43300000D03*
D26*
X23250000Y-42240000D03*
X22250000Y-42240000D03*
X22750000Y-42240000D03*
X20250000Y-42240000D03*
X19750000Y-42240000D03*
X21750000Y-42240000D03*
X21250000Y-42240000D03*
X20750000Y-42240000D03*
D27*
X25820000Y-46990000D03*
X17180000Y-46990000D03*
D28*
X25820000Y-42820000D03*
X17180000Y-42820000D03*
%TD*%
D29*
%TO.C,SW4*%
X13500000Y-49125000D03*
X13500000Y-42375000D03*
D30*
X15385000Y-47850000D03*
X15385000Y-43650000D03*
%TD*%
D29*
%TO.C,SW2*%
X13500000Y-20125000D03*
X13500000Y-13375000D03*
D30*
X15385000Y-18850000D03*
X15385000Y-14650000D03*
%TD*%
D29*
%TO.C,SW1*%
X13500000Y-34625000D03*
X13500000Y-27875000D03*
D30*
X15385000Y-33350000D03*
X15385000Y-29150000D03*
%TD*%
D31*
%TO.C,Q3*%
X25781000Y-34909000D03*
X25131000Y-32909000D03*
X26431000Y-32909000D03*
%TD*%
%TO.C,C5*%
G36*
G01*
X19074999Y-29475000D02*
X16925001Y-29475000D01*
G75*
G02*
X16675000Y-29224999I0J250001D01*
G01*
X16675000Y-28300001D01*
G75*
G02*
X16925001Y-28050000I250001J0D01*
G01*
X19074999Y-28050000D01*
G75*
G02*
X19325000Y-28300001I0J-250001D01*
G01*
X19325000Y-29224999D01*
G75*
G02*
X19074999Y-29475000I-250001J0D01*
G01*
G37*
G36*
G01*
X19074999Y-32450000D02*
X16925001Y-32450000D01*
G75*
G02*
X16675000Y-32199999I0J250001D01*
G01*
X16675000Y-31275001D01*
G75*
G02*
X16925001Y-31025000I250001J0D01*
G01*
X19074999Y-31025000D01*
G75*
G02*
X19325000Y-31275001I0J-250001D01*
G01*
X19325000Y-32199999D01*
G75*
G02*
X19074999Y-32450000I-250001J0D01*
G01*
G37*
%TD*%
D32*
%TO.C,Y1*%
X18750000Y-22575000D03*
X18750000Y-24425000D03*
%TD*%
D33*
%TO.C,U3*%
X30894000Y-40900000D03*
X32794000Y-40900000D03*
X32794000Y-43100000D03*
X31844000Y-43100000D03*
X30894000Y-43100000D03*
%TD*%
D34*
%TO.C,U2*%
X13250000Y-40400000D03*
X13250000Y-38500000D03*
X15950000Y-38500000D03*
X15950000Y-39450000D03*
X15950000Y-40400000D03*
%TD*%
D35*
%TO.C,SW_RESET1*%
X22987000Y-35625000D03*
X22987000Y-32375000D03*
%TD*%
%TO.C,L2*%
G36*
G01*
X20737500Y-14275000D02*
X20262500Y-14275000D01*
G75*
G02*
X20025000Y-14037500I0J237500D01*
G01*
X20025000Y-13462500D01*
G75*
G02*
X20262500Y-13225000I237500J0D01*
G01*
X20737500Y-13225000D01*
G75*
G02*
X20975000Y-13462500I0J-237500D01*
G01*
X20975000Y-14037500D01*
G75*
G02*
X20737500Y-14275000I-237500J0D01*
G01*
G37*
G36*
G01*
X20737500Y-16025000D02*
X20262500Y-16025000D01*
G75*
G02*
X20025000Y-15787500I0J237500D01*
G01*
X20025000Y-15212500D01*
G75*
G02*
X20262500Y-14975000I237500J0D01*
G01*
X20737500Y-14975000D01*
G75*
G02*
X20975000Y-15212500I0J-237500D01*
G01*
X20975000Y-15787500D01*
G75*
G02*
X20737500Y-16025000I-237500J0D01*
G01*
G37*
%TD*%
%TO.C,L1*%
G36*
G01*
X13400000Y-36762500D02*
X13400000Y-37237500D01*
G75*
G02*
X13162500Y-37475000I-237500J0D01*
G01*
X12587500Y-37475000D01*
G75*
G02*
X12350000Y-37237500I0J237500D01*
G01*
X12350000Y-36762500D01*
G75*
G02*
X12587500Y-36525000I237500J0D01*
G01*
X13162500Y-36525000D01*
G75*
G02*
X13400000Y-36762500I0J-237500D01*
G01*
G37*
G36*
G01*
X15150000Y-36762500D02*
X15150000Y-37237500D01*
G75*
G02*
X14912500Y-37475000I-237500J0D01*
G01*
X14337500Y-37475000D01*
G75*
G02*
X14100000Y-37237500I0J237500D01*
G01*
X14100000Y-36762500D01*
G75*
G02*
X14337500Y-36525000I237500J0D01*
G01*
X14912500Y-36525000D01*
G75*
G02*
X15150000Y-36762500I0J-237500D01*
G01*
G37*
%TD*%
D36*
%TO.C,IC1*%
X31250000Y-21850000D03*
X30150000Y-21850000D03*
X29350000Y-21850000D03*
X27750000Y-21850000D03*
X27350000Y-22750000D03*
X26950000Y-21850000D03*
X26550000Y-22750000D03*
X26150000Y-21850000D03*
X25750000Y-22750000D03*
X25350000Y-21850000D03*
X24950000Y-22750000D03*
X24550000Y-21850000D03*
X24150000Y-22750000D03*
X23750000Y-21850000D03*
D37*
X20350000Y-21700000D03*
X20350000Y-22500000D03*
X20350000Y-23300000D03*
X20350000Y-24100000D03*
X21250000Y-24500000D03*
X20350000Y-24900000D03*
X21250000Y-25300000D03*
X20350000Y-25700000D03*
X21250000Y-26100000D03*
X20350000Y-26500000D03*
X21250000Y-26900000D03*
X20350000Y-27300000D03*
X21250000Y-27700000D03*
X20350000Y-28100000D03*
X21250000Y-28500000D03*
X20350000Y-28900000D03*
X20350000Y-29700000D03*
X20350000Y-30500000D03*
X20350000Y-31300000D03*
D36*
X21350000Y-31150000D03*
X22150000Y-31150000D03*
X22550000Y-30250000D03*
X22950000Y-31150000D03*
X23350000Y-30250000D03*
X23750000Y-31150000D03*
X24150000Y-30250000D03*
X24550000Y-31150000D03*
X24950000Y-30250000D03*
X25750000Y-30250000D03*
X26150000Y-31150000D03*
X26550000Y-30250000D03*
X26950000Y-31150000D03*
X27350000Y-30250000D03*
X27750000Y-31150000D03*
X28150000Y-30250000D03*
X28950000Y-30250000D03*
X29350000Y-31150000D03*
X29750000Y-30250000D03*
X30150000Y-31150000D03*
X30550000Y-30250000D03*
X31250000Y-31150000D03*
D37*
X26950000Y-24500000D03*
X26950000Y-25300000D03*
X26950000Y-26100000D03*
X26950000Y-26900000D03*
X26950000Y-27700000D03*
X26950000Y-28500000D03*
%TD*%
%TO.C,D2*%
G36*
G01*
X18475000Y-33737500D02*
X18475000Y-33262500D01*
G75*
G02*
X18712500Y-33025000I237500J0D01*
G01*
X19287500Y-33025000D01*
G75*
G02*
X19525000Y-33262500I0J-237500D01*
G01*
X19525000Y-33737500D01*
G75*
G02*
X19287500Y-33975000I-237500J0D01*
G01*
X18712500Y-33975000D01*
G75*
G02*
X18475000Y-33737500I0J237500D01*
G01*
G37*
G36*
G01*
X16725000Y-33737500D02*
X16725000Y-33262500D01*
G75*
G02*
X16962500Y-33025000I237500J0D01*
G01*
X17537500Y-33025000D01*
G75*
G02*
X17775000Y-33262500I0J-237500D01*
G01*
X17775000Y-33737500D01*
G75*
G02*
X17537500Y-33975000I-237500J0D01*
G01*
X16962500Y-33975000D01*
G75*
G02*
X16725000Y-33737500I0J237500D01*
G01*
G37*
%TD*%
D38*
%TO.C,D1*%
X18000000Y-39500000D03*
X20620000Y-38550000D03*
X20620000Y-40450000D03*
%TD*%
M02*
