%TF.GenerationSoftware,KiCad,Pcbnew,(5.99.0-2309-gaf729d578)*%
%TF.CreationDate,2020-08-01T12:07:05-04:00*%
%TF.ProjectId,mk2,6d6b322e-6b69-4636-9164-5f7063625858,rev?*%
%TF.SameCoordinates,Original*%
%TF.FileFunction,Copper,L2,Inr*%
%TF.FilePolarity,Positive*%
%FSLAX46Y46*%
G04 Gerber Fmt 4.6, Leading zero omitted, Abs format (unit mm)*
G04 Created by KiCad (PCBNEW (5.99.0-2309-gaf729d578)) date 2020-08-01 12:07:05*
%MOMM*%
%LPD*%
G01*
G04 APERTURE LIST*
%TA.AperFunction,ComponentPad*%
%ADD10O,0.850000X0.850000*%
%TD*%
%TA.AperFunction,ComponentPad*%
%ADD11R,0.850000X0.850000*%
%TD*%
%TA.AperFunction,ComponentPad*%
%ADD12O,0.900000X1.700000*%
%TD*%
%TA.AperFunction,ComponentPad*%
%ADD13O,0.900000X2.000000*%
%TD*%
%TA.AperFunction,ViaPad*%
%ADD14C,0.500000*%
%TD*%
%TA.AperFunction,Conductor*%
%ADD15C,0.254000*%
%TD*%
G04 APERTURE END LIST*
D10*
%TO.N,Net-(J3-Pad2)*%
%TO.C,J3*%
X17000000Y-17500000D03*
D11*
%TO.N,Net-(J3-Pad1)*%
X18000000Y-17500000D03*
%TD*%
D12*
%TO.N,GND*%
%TO.C,J2*%
X25820000Y-46990000D03*
X17180000Y-46990000D03*
D13*
X25820000Y-42820000D03*
X17180000Y-42820000D03*
%TD*%
D14*
%TO.N,GND*%
X22987000Y-14478000D03*
%TO.N,VCC*%
X15261500Y-21738500D03*
X18923000Y-26924000D03*
%TO.N,SCL*%
X26169433Y-31871817D03*
%TO.N,GND*%
X25273000Y-32385000D03*
X22479000Y-38608000D03*
X23241000Y-35687000D03*
X32131000Y-32893000D03*
X33147000Y-35433000D03*
X15494000Y-43561000D03*
X15875000Y-39370000D03*
X17145000Y-36703000D03*
X19177000Y-35941000D03*
X20105030Y-31877000D03*
X15240000Y-28956000D03*
X17145000Y-28702000D03*
X13589000Y-23241000D03*
X17018000Y-23622000D03*
X15240000Y-24765000D03*
X19305405Y-21600032D03*
X19200435Y-20570020D03*
X16764000Y-20320000D03*
X15385000Y-14650000D03*
X19558000Y-17399000D03*
X24003000Y-17907000D03*
X26416000Y-19431000D03*
X30480000Y-22479000D03*
%TO.N,VCC*%
X30607000Y-23241000D03*
%TO.N,GND*%
X29083000Y-23622000D03*
X27051000Y-38608000D03*
X28448000Y-40386000D03*
X27432000Y-42291000D03*
X32258000Y-44069000D03*
X29464000Y-45847000D03*
X27305000Y-47371000D03*
X33020000Y-48387000D03*
X28829000Y-49022000D03*
%TO.N,SPI_CLK*%
X25019000Y-20828000D03*
%TO.N,5V*%
X23000000Y-19600990D03*
%TO.N,SPI_CLK*%
X20320000Y-20066000D03*
%TO.N,SQW*%
X29210000Y-18019989D03*
%TO.N,VIN*%
X22352000Y-25527000D03*
X22352000Y-20828000D03*
X22352000Y-22733000D03*
%TO.N,Net-(C5-Pad1)*%
X17515010Y-33571185D03*
%TO.N,VIN*%
X17000000Y-35125000D03*
%TO.N,BUTTON3*%
X15367000Y-35306000D03*
X19812000Y-27051000D03*
%TO.N,BATTPOW*%
X32175192Y-41940472D03*
%TO.N,VCC*%
X31900121Y-46028092D03*
X34594000Y-40250000D03*
%TO.N,BACKLIGHT*%
X26924000Y-34036000D03*
X24384000Y-28448000D03*
%TO.N,SWDCLK*%
X30299221Y-32565778D03*
%TO.N,CHGNG*%
X30241079Y-31850012D03*
%TO.N,SWDIO*%
X29210000Y-31969946D03*
%TO.N,BUTTON4*%
X29210008Y-32619957D03*
%TO.N,BUTTON1*%
X14097000Y-26162000D03*
%TO.N,BUTTON5*%
X18892040Y-26029797D03*
%TO.N,BUTTON1*%
X19304000Y-25527000D03*
%TO.N,BUZZER*%
X23368000Y-23495000D03*
X15250000Y-23250000D03*
%TO.N,VCC*%
X18415000Y-30480000D03*
X19000000Y-33500000D03*
%TO.N,VUSB*%
X18891324Y-34972515D03*
%TO.N,SQW*%
X20414604Y-35785020D03*
%TO.N,Net-(C5-Pad1)*%
X18161000Y-37465000D03*
%TO.N,BUTTON5*%
X15367000Y-31877000D03*
%TO.N,Net-(J3-Pad1)*%
X15621000Y-17950000D03*
X13462000Y-18669000D03*
%TO.N,FLASH_CS*%
X17402983Y-19041800D03*
%TO.N,SPI_MISO*%
X16749747Y-19081411D03*
%TO.N,FLASH_CS*%
X21590000Y-22352000D03*
%TO.N,SPI_MISO*%
X17907000Y-21209000D03*
%TO.N,5V*%
X21844000Y-15748000D03*
%TO.N,SPI_MOSI*%
X30993711Y-20562691D03*
X29667416Y-20510080D03*
%TO.N,SQW*%
X28575000Y-22225000D03*
%TO.N,SPI_CLK*%
X29040010Y-20680011D03*
%TO.N,BUTTON2*%
X31549612Y-38390694D03*
%TO.N,FLASHLIGHT*%
X30569698Y-38068405D03*
%TO.N,BUTTON4*%
X28194000Y-32258000D03*
X31242000Y-33909000D03*
X32131000Y-38100000D03*
%TO.N,VIN*%
X29226979Y-36322000D03*
%TO.N,CHGNG*%
X29858666Y-29295189D03*
%TO.N,Net-(J5-Pad3)*%
X29176979Y-35433000D03*
%TO.N,BUTTON2*%
X29210000Y-29337000D03*
%TO.N,FLASHLIGHT*%
X29506990Y-33887889D03*
%TO.N,RST*%
X22479000Y-33020000D03*
X20828000Y-32780000D03*
%TO.N,SDA*%
X22746559Y-34761516D03*
%TO.N,RST*%
X22987000Y-32385000D03*
X24130000Y-29337000D03*
%TO.N,SDA*%
X24081628Y-33606628D03*
%TO.N,RTCIRQ*%
X24289138Y-31822238D03*
%TO.N,SQW*%
X23368000Y-33274000D03*
%TO.N,RTCIRQ*%
X19304000Y-37465000D03*
%TO.N,BATTPOW*%
X20217827Y-39658030D03*
%TO.N,VUSB*%
X19003078Y-39100906D03*
%TO.N,Net-(J5-Pad1)*%
X24725225Y-35853775D03*
%TO.N,VIN*%
X22733000Y-36957000D03*
%TO.N,Net-(J5-Pad1)*%
X28575000Y-35933990D03*
%TO.N,Net-(J5-Pad3)*%
X25827992Y-35298990D03*
%TO.N,CHGNG*%
X30988000Y-42926000D03*
X34594000Y-38500000D03*
%TO.N,SCL*%
X18380020Y-44522759D03*
X20835051Y-37474994D03*
%TO.N,SDA*%
X18415000Y-45466000D03*
%TO.N,VUSB*%
X29845000Y-41148000D03*
X29718000Y-43561000D03*
%TO.N,Net-(J2-PadB5)*%
X26378139Y-41147987D03*
%TO.N,BATTPOW*%
X29210000Y-42291000D03*
%TO.N,Net-(J2-PadB5)*%
X23204939Y-43524939D03*
%TO.N,USB_DN*%
X20766013Y-43434000D03*
%TO.N,Net-(J2-PadA5)*%
X22606000Y-40386000D03*
X20066000Y-43434000D03*
%TO.N,USB_DN*%
X21844000Y-43307000D03*
%TO.N,BATTPOW*%
X29591000Y-44831000D03*
%TO.N,SPI_CLK*%
X32639000Y-19558000D03*
%TD*%
%TO.N,VCC*%
D15*
X34866001Y-20366000D02*
X33002881Y-20366000D01*
X33099032Y-20324392D01*
X33114331Y-20314998D01*
X33295642Y-20164471D01*
X33307690Y-20151161D01*
X33439464Y-19955796D01*
X33447292Y-19939640D01*
X33519056Y-19714775D01*
X33522050Y-19696289D01*
X33525165Y-19441328D01*
X33522624Y-19422774D01*
X33456376Y-19196223D01*
X33448945Y-19179879D01*
X33321983Y-18981354D01*
X33310264Y-18967753D01*
X33132685Y-18812841D01*
X33117620Y-18803076D01*
X32903700Y-18704232D01*
X32886500Y-18699088D01*
X32653436Y-18664256D01*
X32635483Y-18664147D01*
X32402012Y-18696128D01*
X32384750Y-18701061D01*
X32169639Y-18797285D01*
X32154456Y-18806865D01*
X31974998Y-18959596D01*
X31963114Y-18973053D01*
X31833735Y-19170013D01*
X31826105Y-19186264D01*
X31757207Y-19411618D01*
X31754445Y-19429358D01*
X31751567Y-19664993D01*
X31753895Y-19682794D01*
X31817265Y-19909765D01*
X31824496Y-19926198D01*
X31949024Y-20126259D01*
X31960576Y-20140002D01*
X32136249Y-20297071D01*
X32151193Y-20307019D01*
X32274848Y-20366000D01*
X31859361Y-20366000D01*
X31811087Y-20200914D01*
X31803656Y-20184570D01*
X31676694Y-19986045D01*
X31664975Y-19972444D01*
X31487396Y-19817532D01*
X31472331Y-19807767D01*
X31258411Y-19708923D01*
X31241211Y-19703779D01*
X31008147Y-19668947D01*
X30990194Y-19668838D01*
X30756723Y-19700819D01*
X30739461Y-19705752D01*
X30524350Y-19801976D01*
X30509167Y-19811556D01*
X30355884Y-19942010D01*
X30350399Y-19933433D01*
X30338680Y-19919833D01*
X30161101Y-19764921D01*
X30146036Y-19755156D01*
X29932116Y-19656312D01*
X29914916Y-19651168D01*
X29681852Y-19616336D01*
X29663899Y-19616227D01*
X29430428Y-19648208D01*
X29413166Y-19653141D01*
X29198055Y-19749365D01*
X29182872Y-19758945D01*
X29136381Y-19798512D01*
X29054446Y-19786267D01*
X29036493Y-19786158D01*
X28803022Y-19818139D01*
X28785760Y-19823072D01*
X28570649Y-19919296D01*
X28555466Y-19928876D01*
X28376008Y-20081607D01*
X28364124Y-20095064D01*
X28234745Y-20292024D01*
X28227115Y-20308275D01*
X28158217Y-20533629D01*
X28155455Y-20551369D01*
X28152577Y-20787004D01*
X28154905Y-20804805D01*
X28218275Y-21031776D01*
X28225506Y-21048209D01*
X28350034Y-21248270D01*
X28361586Y-21262013D01*
X28456521Y-21346895D01*
X28338012Y-21363128D01*
X28320750Y-21368061D01*
X28105639Y-21464285D01*
X28090456Y-21473865D01*
X27910998Y-21626596D01*
X27899114Y-21640053D01*
X27769735Y-21837013D01*
X27762105Y-21853264D01*
X27693207Y-22078618D01*
X27690445Y-22096358D01*
X27687567Y-22331993D01*
X27689895Y-22349794D01*
X27753265Y-22576765D01*
X27760496Y-22593198D01*
X27885024Y-22793259D01*
X27896576Y-22807002D01*
X28072249Y-22964071D01*
X28087193Y-22974019D01*
X28299888Y-23075470D01*
X28317025Y-23080824D01*
X28372463Y-23089803D01*
X28277735Y-23234013D01*
X28270105Y-23250264D01*
X28201207Y-23475618D01*
X28198445Y-23493358D01*
X28195567Y-23728993D01*
X28197895Y-23746794D01*
X28261265Y-23973765D01*
X28268496Y-23990198D01*
X28393024Y-24190259D01*
X28404576Y-24204002D01*
X28580249Y-24361071D01*
X28595193Y-24371019D01*
X28807888Y-24472470D01*
X28825025Y-24477824D01*
X29057646Y-24515500D01*
X29075596Y-24515829D01*
X29309440Y-24486702D01*
X29326761Y-24481980D01*
X29543032Y-24388392D01*
X29558331Y-24378998D01*
X29739642Y-24228471D01*
X29751690Y-24215161D01*
X29883464Y-24019796D01*
X29891292Y-24003640D01*
X29963056Y-23778775D01*
X29966050Y-23760289D01*
X29969165Y-23505328D01*
X29966624Y-23486774D01*
X29900376Y-23260223D01*
X29892945Y-23243879D01*
X29765983Y-23045354D01*
X29754264Y-23031753D01*
X29576685Y-22876841D01*
X29561620Y-22867076D01*
X29347700Y-22768232D01*
X29330500Y-22763088D01*
X29285385Y-22756345D01*
X29375464Y-22622796D01*
X29383292Y-22606640D01*
X29455056Y-22381775D01*
X29458050Y-22363289D01*
X29461165Y-22108328D01*
X29458624Y-22089774D01*
X29392376Y-21863223D01*
X29384945Y-21846879D01*
X29257983Y-21648354D01*
X29246264Y-21634753D01*
X29158467Y-21558163D01*
X29266450Y-21544713D01*
X29283771Y-21539991D01*
X29500042Y-21446403D01*
X29515341Y-21437009D01*
X29569720Y-21391863D01*
X29642062Y-21403580D01*
X29660012Y-21403909D01*
X29893856Y-21374782D01*
X29911177Y-21370060D01*
X30127448Y-21276472D01*
X30142747Y-21267078D01*
X30304960Y-21132407D01*
X30315287Y-21144693D01*
X30490960Y-21301762D01*
X30505904Y-21311710D01*
X30718599Y-21413161D01*
X30735736Y-21418515D01*
X30968357Y-21456191D01*
X30986307Y-21456520D01*
X31116000Y-21440366D01*
X31116000Y-21857990D01*
X30973685Y-21733841D01*
X30958620Y-21724076D01*
X30744700Y-21625232D01*
X30727500Y-21620088D01*
X30494436Y-21585256D01*
X30476483Y-21585147D01*
X30243012Y-21617128D01*
X30225750Y-21622061D01*
X30010639Y-21718285D01*
X29995456Y-21727865D01*
X29815998Y-21880596D01*
X29804114Y-21894053D01*
X29674735Y-22091013D01*
X29667105Y-22107264D01*
X29598207Y-22332618D01*
X29595445Y-22350358D01*
X29592567Y-22585993D01*
X29594895Y-22603794D01*
X29658265Y-22830765D01*
X29665496Y-22847198D01*
X29790024Y-23047259D01*
X29801576Y-23061002D01*
X29977249Y-23218071D01*
X29992193Y-23228019D01*
X30204888Y-23329470D01*
X30222025Y-23334824D01*
X30454646Y-23372500D01*
X30472596Y-23372829D01*
X30706440Y-23343702D01*
X30723761Y-23338980D01*
X30940032Y-23245392D01*
X30955331Y-23235998D01*
X31116000Y-23102608D01*
X31116001Y-31685027D01*
X31058455Y-31488235D01*
X31051024Y-31471891D01*
X30924062Y-31273366D01*
X30912343Y-31259765D01*
X30734764Y-31104853D01*
X30719699Y-31095088D01*
X30505779Y-30996244D01*
X30488579Y-30991100D01*
X30255515Y-30956268D01*
X30237562Y-30956159D01*
X30004091Y-30988140D01*
X29986829Y-30993073D01*
X29771718Y-31089297D01*
X29756535Y-31098877D01*
X29644188Y-31194492D01*
X29474700Y-31116178D01*
X29457500Y-31111034D01*
X29224436Y-31076202D01*
X29206483Y-31076093D01*
X28973012Y-31108074D01*
X28955750Y-31113007D01*
X28740639Y-31209231D01*
X28725456Y-31218811D01*
X28545998Y-31371542D01*
X28534113Y-31384999D01*
X28506861Y-31426486D01*
X28458700Y-31404232D01*
X28441500Y-31399088D01*
X28208436Y-31364256D01*
X28190483Y-31364147D01*
X27957012Y-31396128D01*
X27939750Y-31401061D01*
X27724639Y-31497285D01*
X27709456Y-31506865D01*
X27529998Y-31659596D01*
X27518114Y-31673053D01*
X27388735Y-31870013D01*
X27381105Y-31886264D01*
X27312207Y-32111618D01*
X27309445Y-32129358D01*
X27306567Y-32364993D01*
X27308895Y-32382794D01*
X27372265Y-32609765D01*
X27379496Y-32626198D01*
X27504024Y-32826259D01*
X27515576Y-32840002D01*
X27691249Y-32997071D01*
X27706193Y-33007019D01*
X27918888Y-33108470D01*
X27936025Y-33113824D01*
X28168646Y-33151500D01*
X28186596Y-33151829D01*
X28420440Y-33122702D01*
X28437761Y-33117980D01*
X28468133Y-33104837D01*
X28520032Y-33188216D01*
X28531584Y-33201959D01*
X28707257Y-33359028D01*
X28722201Y-33368976D01*
X28772095Y-33392774D01*
X28701725Y-33499902D01*
X28694095Y-33516153D01*
X28625197Y-33741507D01*
X28622435Y-33759247D01*
X28619557Y-33994882D01*
X28621885Y-34012683D01*
X28685255Y-34239654D01*
X28692486Y-34256087D01*
X28817014Y-34456148D01*
X28828566Y-34469891D01*
X28941554Y-34570914D01*
X28939991Y-34571128D01*
X28922729Y-34576061D01*
X28707618Y-34672285D01*
X28692435Y-34681865D01*
X28512977Y-34834596D01*
X28501093Y-34848053D01*
X28371714Y-35045013D01*
X28364084Y-35061264D01*
X28361760Y-35068865D01*
X28338012Y-35072118D01*
X28320750Y-35077052D01*
X28105639Y-35173275D01*
X28090456Y-35182855D01*
X27910998Y-35335586D01*
X27899114Y-35349043D01*
X27769735Y-35546003D01*
X27762105Y-35562254D01*
X27693207Y-35787608D01*
X27690445Y-35805348D01*
X27687567Y-36040983D01*
X27689895Y-36058784D01*
X27753265Y-36285755D01*
X27760496Y-36302188D01*
X27885024Y-36502249D01*
X27896576Y-36515992D01*
X28072249Y-36673061D01*
X28087193Y-36683009D01*
X28299888Y-36784460D01*
X28317025Y-36789814D01*
X28492135Y-36818175D01*
X28537003Y-36890259D01*
X28548555Y-36904002D01*
X28724228Y-37061071D01*
X28739172Y-37071019D01*
X28951867Y-37172470D01*
X28969004Y-37177824D01*
X29201625Y-37215500D01*
X29219575Y-37215829D01*
X29453419Y-37186702D01*
X29470740Y-37181980D01*
X29687011Y-37088392D01*
X29702310Y-37078998D01*
X29883621Y-36928471D01*
X29895669Y-36915161D01*
X30027443Y-36719796D01*
X30035271Y-36703640D01*
X30107035Y-36478775D01*
X30110029Y-36460289D01*
X30113144Y-36205328D01*
X30110603Y-36186774D01*
X30044355Y-35960223D01*
X30036924Y-35943879D01*
X29970853Y-35840566D01*
X29977443Y-35830796D01*
X29985271Y-35814640D01*
X30057035Y-35589775D01*
X30060029Y-35571289D01*
X30060411Y-35539993D01*
X32259567Y-35539993D01*
X32261895Y-35557794D01*
X32325265Y-35784765D01*
X32332496Y-35801198D01*
X32457024Y-36001259D01*
X32468576Y-36015002D01*
X32644249Y-36172071D01*
X32659193Y-36182019D01*
X32871888Y-36283470D01*
X32889025Y-36288824D01*
X33121646Y-36326500D01*
X33139596Y-36326829D01*
X33373440Y-36297702D01*
X33390761Y-36292980D01*
X33607032Y-36199392D01*
X33622331Y-36189998D01*
X33803642Y-36039471D01*
X33815690Y-36026161D01*
X33947464Y-35830796D01*
X33955292Y-35814640D01*
X34027056Y-35589775D01*
X34030050Y-35571289D01*
X34033165Y-35316328D01*
X34030624Y-35297774D01*
X33964376Y-35071223D01*
X33956945Y-35054879D01*
X33829983Y-34856354D01*
X33818264Y-34842753D01*
X33640685Y-34687841D01*
X33625620Y-34678076D01*
X33411700Y-34579232D01*
X33394500Y-34574088D01*
X33161436Y-34539256D01*
X33143483Y-34539147D01*
X32910012Y-34571128D01*
X32892750Y-34576061D01*
X32677639Y-34672285D01*
X32662456Y-34681865D01*
X32482998Y-34834596D01*
X32471114Y-34848053D01*
X32341735Y-35045013D01*
X32334105Y-35061264D01*
X32265207Y-35286618D01*
X32262445Y-35304358D01*
X32259567Y-35539993D01*
X30060411Y-35539993D01*
X30063144Y-35316328D01*
X30060603Y-35297774D01*
X29994355Y-35071223D01*
X29986924Y-35054879D01*
X29859962Y-34856354D01*
X29848243Y-34842753D01*
X29742160Y-34750211D01*
X29750751Y-34747869D01*
X29967022Y-34654281D01*
X29982321Y-34644887D01*
X30163632Y-34494360D01*
X30175680Y-34481050D01*
X30307454Y-34285685D01*
X30315282Y-34269529D01*
X30372583Y-34089983D01*
X30420265Y-34260765D01*
X30427496Y-34277198D01*
X30552024Y-34477259D01*
X30563576Y-34491002D01*
X30739249Y-34648071D01*
X30754193Y-34658019D01*
X30966888Y-34759470D01*
X30984025Y-34764824D01*
X31216646Y-34802500D01*
X31234596Y-34802829D01*
X31468440Y-34773702D01*
X31485761Y-34768980D01*
X31702032Y-34675392D01*
X31717331Y-34665998D01*
X31898642Y-34515471D01*
X31910690Y-34502161D01*
X32042464Y-34306796D01*
X32050292Y-34290640D01*
X32122056Y-34065775D01*
X32125050Y-34047289D01*
X32128165Y-33792328D01*
X32127348Y-33786362D01*
X32357440Y-33757702D01*
X32374761Y-33752980D01*
X32591032Y-33659392D01*
X32606331Y-33649998D01*
X32787642Y-33499471D01*
X32799690Y-33486161D01*
X32931464Y-33290796D01*
X32939292Y-33274640D01*
X33011056Y-33049775D01*
X33014050Y-33031289D01*
X33017165Y-32776328D01*
X33014624Y-32757774D01*
X32978430Y-32634000D01*
X34866000Y-32634000D01*
X34866000Y-37649605D01*
X34858700Y-37646232D01*
X34841500Y-37641088D01*
X34608436Y-37606256D01*
X34590483Y-37606147D01*
X34357012Y-37638128D01*
X34339750Y-37643061D01*
X34124639Y-37739285D01*
X34109456Y-37748865D01*
X33929998Y-37901596D01*
X33918114Y-37915053D01*
X33788735Y-38112013D01*
X33781105Y-38128264D01*
X33712207Y-38353618D01*
X33709445Y-38371358D01*
X33706567Y-38606993D01*
X33708895Y-38624794D01*
X33772265Y-38851765D01*
X33779496Y-38868198D01*
X33904024Y-39068259D01*
X33915576Y-39082002D01*
X34091249Y-39239071D01*
X34106193Y-39249019D01*
X34318888Y-39350470D01*
X34336025Y-39355824D01*
X34568646Y-39393500D01*
X34586596Y-39393829D01*
X34820440Y-39364702D01*
X34837761Y-39359980D01*
X34866000Y-39347760D01*
X34866001Y-49366000D01*
X29649305Y-49366000D01*
X29709056Y-49178775D01*
X29712050Y-49160289D01*
X29715165Y-48905328D01*
X29712624Y-48886774D01*
X29646376Y-48660223D01*
X29638945Y-48643879D01*
X29543089Y-48493993D01*
X32132567Y-48493993D01*
X32134895Y-48511794D01*
X32198265Y-48738765D01*
X32205496Y-48755198D01*
X32330024Y-48955259D01*
X32341576Y-48969002D01*
X32517249Y-49126071D01*
X32532193Y-49136019D01*
X32744888Y-49237470D01*
X32762025Y-49242824D01*
X32994646Y-49280500D01*
X33012596Y-49280829D01*
X33246440Y-49251702D01*
X33263761Y-49246980D01*
X33480032Y-49153392D01*
X33495331Y-49143998D01*
X33676642Y-48993471D01*
X33688690Y-48980161D01*
X33820464Y-48784796D01*
X33828292Y-48768640D01*
X33900056Y-48543775D01*
X33903050Y-48525289D01*
X33906165Y-48270328D01*
X33903624Y-48251774D01*
X33837376Y-48025223D01*
X33829945Y-48008879D01*
X33702983Y-47810354D01*
X33691264Y-47796753D01*
X33513685Y-47641841D01*
X33498620Y-47632076D01*
X33284700Y-47533232D01*
X33267500Y-47528088D01*
X33034436Y-47493256D01*
X33016483Y-47493147D01*
X32783012Y-47525128D01*
X32765750Y-47530061D01*
X32550639Y-47626285D01*
X32535456Y-47635865D01*
X32355998Y-47788596D01*
X32344114Y-47802053D01*
X32214735Y-47999013D01*
X32207105Y-48015264D01*
X32138207Y-48240618D01*
X32135445Y-48258358D01*
X32132567Y-48493993D01*
X29543089Y-48493993D01*
X29511983Y-48445354D01*
X29500264Y-48431753D01*
X29322685Y-48276841D01*
X29307620Y-48267076D01*
X29093700Y-48168232D01*
X29076500Y-48163088D01*
X28843436Y-48128256D01*
X28825483Y-48128147D01*
X28592012Y-48160128D01*
X28574750Y-48165061D01*
X28359639Y-48261285D01*
X28344456Y-48270865D01*
X28164998Y-48423596D01*
X28153114Y-48437053D01*
X28023735Y-48634013D01*
X28016105Y-48650264D01*
X27947207Y-48875618D01*
X27944445Y-48893358D01*
X27941567Y-49128993D01*
X27943895Y-49146794D01*
X28005097Y-49366000D01*
X12634000Y-49366000D01*
X12634000Y-43667993D01*
X14606567Y-43667993D01*
X14608895Y-43685794D01*
X14672265Y-43912765D01*
X14679496Y-43929198D01*
X14804024Y-44129259D01*
X14815576Y-44143002D01*
X14991249Y-44300071D01*
X15006193Y-44310019D01*
X15218888Y-44411470D01*
X15236025Y-44416824D01*
X15468646Y-44454500D01*
X15486596Y-44454829D01*
X15720440Y-44425702D01*
X15737761Y-44420980D01*
X15954032Y-44327392D01*
X15969331Y-44317998D01*
X16150642Y-44167471D01*
X16162690Y-44154161D01*
X16279474Y-43981020D01*
X16403194Y-44132717D01*
X16411878Y-44141463D01*
X16566134Y-44269074D01*
X16576352Y-44275966D01*
X16752456Y-44371185D01*
X16763818Y-44375961D01*
X16955063Y-44435160D01*
X16967135Y-44437639D01*
X17166238Y-44458566D01*
X17178563Y-44458652D01*
X17377936Y-44440507D01*
X17390042Y-44438197D01*
X17495305Y-44407217D01*
X17492587Y-44629752D01*
X17494915Y-44647553D01*
X17558285Y-44874524D01*
X17565516Y-44890957D01*
X17646813Y-45021566D01*
X17609735Y-45078013D01*
X17602105Y-45094264D01*
X17533207Y-45319618D01*
X17530445Y-45337358D01*
X17527691Y-45562838D01*
X17404937Y-45524840D01*
X17392865Y-45522361D01*
X17193762Y-45501434D01*
X17181437Y-45501348D01*
X16982064Y-45519493D01*
X16969958Y-45521803D01*
X16777905Y-45578326D01*
X16766478Y-45582943D01*
X16589061Y-45675694D01*
X16578747Y-45682443D01*
X16422726Y-45807889D01*
X16413921Y-45816512D01*
X16285235Y-45969872D01*
X16278272Y-45980042D01*
X16181826Y-46155477D01*
X16176970Y-46166805D01*
X16116370Y-46357842D01*
X16113760Y-46370338D01*
X16096345Y-46536011D01*
X16096000Y-46542601D01*
X16096000Y-47440350D01*
X16096301Y-47446502D01*
X16110901Y-47595404D01*
X16113295Y-47607495D01*
X16171159Y-47799149D01*
X16175855Y-47810543D01*
X16269843Y-47987308D01*
X16276663Y-47997574D01*
X16403194Y-48152717D01*
X16411878Y-48161463D01*
X16566134Y-48289074D01*
X16576352Y-48295966D01*
X16752456Y-48391185D01*
X16763818Y-48395961D01*
X16955063Y-48455160D01*
X16967135Y-48457639D01*
X17166238Y-48478566D01*
X17178563Y-48478652D01*
X17377936Y-48460507D01*
X17390042Y-48458197D01*
X17582094Y-48401674D01*
X17593522Y-48397057D01*
X17770940Y-48304306D01*
X17781254Y-48297557D01*
X17937275Y-48172111D01*
X17946080Y-48163488D01*
X18074766Y-48010128D01*
X18081729Y-47999958D01*
X18178175Y-47824523D01*
X18183031Y-47813195D01*
X18243631Y-47622157D01*
X18246242Y-47609662D01*
X18263655Y-47443988D01*
X18264000Y-47437398D01*
X18264000Y-46542601D01*
X24736000Y-46542601D01*
X24736000Y-47440350D01*
X24736301Y-47446502D01*
X24750901Y-47595404D01*
X24753295Y-47607495D01*
X24811159Y-47799149D01*
X24815855Y-47810543D01*
X24909843Y-47987308D01*
X24916663Y-47997574D01*
X25043194Y-48152717D01*
X25051878Y-48161463D01*
X25206134Y-48289074D01*
X25216352Y-48295966D01*
X25392456Y-48391185D01*
X25403818Y-48395961D01*
X25595063Y-48455160D01*
X25607135Y-48457639D01*
X25806238Y-48478566D01*
X25818563Y-48478652D01*
X26017936Y-48460507D01*
X26030042Y-48458197D01*
X26222094Y-48401674D01*
X26233522Y-48397057D01*
X26410940Y-48304306D01*
X26421254Y-48297557D01*
X26577275Y-48172111D01*
X26586080Y-48163488D01*
X26704351Y-48022540D01*
X26802249Y-48110071D01*
X26817193Y-48120019D01*
X27029888Y-48221470D01*
X27047025Y-48226824D01*
X27279646Y-48264500D01*
X27297596Y-48264829D01*
X27531440Y-48235702D01*
X27548761Y-48230980D01*
X27765032Y-48137392D01*
X27780331Y-48127998D01*
X27961642Y-47977471D01*
X27973690Y-47964161D01*
X28105464Y-47768796D01*
X28113292Y-47752640D01*
X28185056Y-47527775D01*
X28188050Y-47509289D01*
X28191165Y-47254328D01*
X28188624Y-47235774D01*
X28122376Y-47009223D01*
X28114945Y-46992879D01*
X27987983Y-46794354D01*
X27976264Y-46780753D01*
X27798685Y-46625841D01*
X27783620Y-46616076D01*
X27569700Y-46517232D01*
X27552500Y-46512088D01*
X27319436Y-46477256D01*
X27301483Y-46477147D01*
X27068012Y-46509128D01*
X27050750Y-46514061D01*
X26904000Y-46579706D01*
X26904000Y-46539650D01*
X26903699Y-46533498D01*
X26889099Y-46384595D01*
X26886705Y-46372504D01*
X26828841Y-46180850D01*
X26824144Y-46169456D01*
X26730157Y-45992692D01*
X26723337Y-45982426D01*
X26596806Y-45827283D01*
X26588122Y-45818537D01*
X26433866Y-45690926D01*
X26423648Y-45684034D01*
X26247544Y-45588815D01*
X26236182Y-45584039D01*
X26044937Y-45524840D01*
X26032865Y-45522361D01*
X25833762Y-45501434D01*
X25821437Y-45501348D01*
X25622064Y-45519493D01*
X25609958Y-45521803D01*
X25417905Y-45578326D01*
X25406478Y-45582943D01*
X25229061Y-45675694D01*
X25218747Y-45682443D01*
X25062726Y-45807889D01*
X25053921Y-45816512D01*
X24925235Y-45969872D01*
X24918272Y-45980042D01*
X24821826Y-46155477D01*
X24816970Y-46166805D01*
X24756370Y-46357842D01*
X24753760Y-46370338D01*
X24736345Y-46536011D01*
X24736000Y-46542601D01*
X18264000Y-46542601D01*
X18264000Y-46539650D01*
X18263699Y-46533498D01*
X18249099Y-46384595D01*
X18246705Y-46372504D01*
X18235228Y-46334490D01*
X18389646Y-46359500D01*
X18407596Y-46359829D01*
X18641440Y-46330702D01*
X18658761Y-46325980D01*
X18875032Y-46232392D01*
X18890331Y-46222998D01*
X19071642Y-46072471D01*
X19083690Y-46059161D01*
X19215464Y-45863796D01*
X19223292Y-45847640D01*
X19295056Y-45622775D01*
X19298050Y-45604289D01*
X19301165Y-45349328D01*
X19298624Y-45330774D01*
X19232376Y-45104223D01*
X19224945Y-45087879D01*
X19148378Y-44968155D01*
X19180484Y-44920555D01*
X19188312Y-44904399D01*
X19260076Y-44679534D01*
X19263070Y-44661048D01*
X19266185Y-44406087D01*
X19263644Y-44387533D01*
X19197396Y-44160982D01*
X19189965Y-44144638D01*
X19141654Y-44069095D01*
X19252529Y-43984937D01*
X19262732Y-43975220D01*
X19318112Y-43909220D01*
X19376024Y-44002259D01*
X19387576Y-44016002D01*
X19563249Y-44173071D01*
X19578193Y-44183019D01*
X19790888Y-44284470D01*
X19808025Y-44289824D01*
X20040646Y-44327500D01*
X20058596Y-44327829D01*
X20292440Y-44298702D01*
X20309761Y-44293980D01*
X20415190Y-44248357D01*
X20490901Y-44284470D01*
X20508038Y-44289824D01*
X20740659Y-44327500D01*
X20758609Y-44327829D01*
X20992453Y-44298702D01*
X21009774Y-44293980D01*
X21226045Y-44200392D01*
X21241344Y-44190998D01*
X21386510Y-44070480D01*
X21568888Y-44157470D01*
X21586025Y-44162824D01*
X21818646Y-44200500D01*
X21836596Y-44200829D01*
X22070440Y-44171702D01*
X22087761Y-44166980D01*
X22304032Y-44073392D01*
X22319331Y-44063998D01*
X22436328Y-43966866D01*
X22514963Y-44093198D01*
X22526515Y-44106941D01*
X22702188Y-44264010D01*
X22717132Y-44273958D01*
X22929827Y-44375409D01*
X22946964Y-44380763D01*
X23179585Y-44418439D01*
X23197535Y-44418768D01*
X23431379Y-44389641D01*
X23448700Y-44384919D01*
X23664971Y-44291331D01*
X23680270Y-44281937D01*
X23861581Y-44131410D01*
X23873629Y-44118100D01*
X23889974Y-44093867D01*
X24056049Y-44177757D01*
X24069255Y-44182668D01*
X24258814Y-44229930D01*
X24272779Y-44231794D01*
X24468098Y-44235886D01*
X24482130Y-44234609D01*
X24673502Y-44195325D01*
X24686901Y-44190971D01*
X24864814Y-44110267D01*
X24876916Y-44103053D01*
X24964674Y-44036441D01*
X25043194Y-44132717D01*
X25051878Y-44141463D01*
X25206134Y-44269074D01*
X25216352Y-44275966D01*
X25392456Y-44371185D01*
X25403818Y-44375961D01*
X25595063Y-44435160D01*
X25607135Y-44437639D01*
X25806238Y-44458566D01*
X25818563Y-44458652D01*
X26017936Y-44440507D01*
X26030042Y-44438197D01*
X26222094Y-44381674D01*
X26233522Y-44377057D01*
X26410940Y-44284306D01*
X26421254Y-44277557D01*
X26577275Y-44152111D01*
X26586080Y-44143488D01*
X26714766Y-43990128D01*
X26721729Y-43979958D01*
X26818175Y-43804523D01*
X26823031Y-43793195D01*
X26883631Y-43602157D01*
X26886242Y-43589662D01*
X26903655Y-43423988D01*
X26904000Y-43417398D01*
X26904000Y-43007496D01*
X26929249Y-43030071D01*
X26944193Y-43040019D01*
X27156888Y-43141470D01*
X27174025Y-43146824D01*
X27406646Y-43184500D01*
X27424596Y-43184829D01*
X27658440Y-43155702D01*
X27675761Y-43150980D01*
X27892032Y-43057392D01*
X27907331Y-43047998D01*
X28088642Y-42897471D01*
X28100690Y-42884161D01*
X28232464Y-42688796D01*
X28240292Y-42672640D01*
X28312056Y-42447775D01*
X28315050Y-42429289D01*
X28318165Y-42174328D01*
X28315624Y-42155774D01*
X28249376Y-41929223D01*
X28241945Y-41912879D01*
X28114983Y-41714354D01*
X28103264Y-41700753D01*
X27925685Y-41545841D01*
X27910620Y-41536076D01*
X27696700Y-41437232D01*
X27679500Y-41432088D01*
X27446436Y-41397256D01*
X27428483Y-41397147D01*
X27219578Y-41425763D01*
X27258195Y-41304762D01*
X27261189Y-41286276D01*
X27264304Y-41031315D01*
X27261763Y-41012761D01*
X27195515Y-40786210D01*
X27188084Y-40769866D01*
X27061122Y-40571341D01*
X27049403Y-40557740D01*
X26975183Y-40492993D01*
X27560567Y-40492993D01*
X27562895Y-40510794D01*
X27626265Y-40737765D01*
X27633496Y-40754198D01*
X27758024Y-40954259D01*
X27769576Y-40968002D01*
X27945249Y-41125071D01*
X27960193Y-41135019D01*
X28172888Y-41236470D01*
X28190025Y-41241824D01*
X28422646Y-41279500D01*
X28440596Y-41279829D01*
X28674440Y-41250702D01*
X28691761Y-41245980D01*
X28908032Y-41152392D01*
X28923331Y-41142998D01*
X28959300Y-41113136D01*
X28957567Y-41254993D01*
X28959895Y-41272794D01*
X29002419Y-41425100D01*
X28973012Y-41429128D01*
X28955750Y-41434061D01*
X28740639Y-41530285D01*
X28725456Y-41539865D01*
X28545998Y-41692596D01*
X28534114Y-41706053D01*
X28404735Y-41903013D01*
X28397105Y-41919264D01*
X28328207Y-42144618D01*
X28325445Y-42162358D01*
X28322567Y-42397993D01*
X28324895Y-42415794D01*
X28388265Y-42642765D01*
X28395496Y-42659198D01*
X28520024Y-42859259D01*
X28531576Y-42873002D01*
X28707249Y-43030071D01*
X28722193Y-43040019D01*
X28933797Y-43140949D01*
X28912735Y-43173013D01*
X28905105Y-43189264D01*
X28836207Y-43414618D01*
X28833445Y-43432358D01*
X28830567Y-43667993D01*
X28832895Y-43685794D01*
X28896265Y-43912765D01*
X28903496Y-43929198D01*
X29028024Y-44129259D01*
X29036529Y-44139377D01*
X28926998Y-44232596D01*
X28915114Y-44246053D01*
X28785735Y-44443013D01*
X28778105Y-44459264D01*
X28709207Y-44684618D01*
X28706445Y-44702358D01*
X28703567Y-44937993D01*
X28705895Y-44955794D01*
X28769265Y-45182765D01*
X28776496Y-45199197D01*
X28804735Y-45244565D01*
X28799998Y-45248596D01*
X28788114Y-45262053D01*
X28658735Y-45459013D01*
X28651105Y-45475264D01*
X28582207Y-45700618D01*
X28579445Y-45718358D01*
X28576567Y-45953993D01*
X28578895Y-45971794D01*
X28642265Y-46198765D01*
X28649496Y-46215198D01*
X28774024Y-46415259D01*
X28785576Y-46429002D01*
X28961249Y-46586071D01*
X28976193Y-46596019D01*
X29188888Y-46697470D01*
X29206025Y-46702824D01*
X29438646Y-46740500D01*
X29456596Y-46740829D01*
X29690440Y-46711702D01*
X29707761Y-46706980D01*
X29924032Y-46613392D01*
X29939331Y-46603998D01*
X30120642Y-46453471D01*
X30132690Y-46440161D01*
X30264464Y-46244796D01*
X30272292Y-46228640D01*
X30344056Y-46003775D01*
X30347050Y-45985289D01*
X30350165Y-45730328D01*
X30347624Y-45711774D01*
X30281376Y-45485223D01*
X30273945Y-45468879D01*
X30251285Y-45433447D01*
X30259690Y-45424161D01*
X30391464Y-45228796D01*
X30399292Y-45212640D01*
X30471056Y-44987775D01*
X30474050Y-44969289D01*
X30477165Y-44714328D01*
X30474624Y-44695774D01*
X30408376Y-44469223D01*
X30400945Y-44452879D01*
X30273983Y-44254353D01*
X30272318Y-44252421D01*
X30374642Y-44167471D01*
X30386690Y-44154161D01*
X30518464Y-43958796D01*
X30526292Y-43942640D01*
X30596970Y-43721179D01*
X30712888Y-43776470D01*
X30730025Y-43781824D01*
X30962646Y-43819500D01*
X30980596Y-43819829D01*
X31214440Y-43790702D01*
X31231761Y-43785980D01*
X31447229Y-43692739D01*
X31445105Y-43697264D01*
X31376207Y-43922618D01*
X31373445Y-43940358D01*
X31370567Y-44175993D01*
X31372895Y-44193794D01*
X31436265Y-44420765D01*
X31443496Y-44437198D01*
X31568024Y-44637259D01*
X31579576Y-44651002D01*
X31755249Y-44808071D01*
X31770193Y-44818019D01*
X31982888Y-44919470D01*
X32000025Y-44924824D01*
X32232646Y-44962500D01*
X32250596Y-44962829D01*
X32484440Y-44933702D01*
X32501761Y-44928980D01*
X32718032Y-44835392D01*
X32733331Y-44825998D01*
X32914642Y-44675471D01*
X32926690Y-44662161D01*
X33058464Y-44466796D01*
X33066292Y-44450640D01*
X33138056Y-44225775D01*
X33141050Y-44207289D01*
X33144165Y-43952328D01*
X33141624Y-43933774D01*
X33075376Y-43707223D01*
X33067945Y-43690879D01*
X32940983Y-43492354D01*
X32929264Y-43478753D01*
X32751685Y-43323841D01*
X32736620Y-43314076D01*
X32522700Y-43215232D01*
X32505500Y-43210088D01*
X32272436Y-43175256D01*
X32254483Y-43175147D01*
X32021012Y-43207128D01*
X32003750Y-43212061D01*
X31797326Y-43304399D01*
X31868056Y-43082775D01*
X31871050Y-43064289D01*
X31874165Y-42809328D01*
X31871624Y-42790774D01*
X31867069Y-42775196D01*
X31900080Y-42790942D01*
X31917217Y-42796296D01*
X32149838Y-42833972D01*
X32167788Y-42834301D01*
X32401632Y-42805174D01*
X32418953Y-42800452D01*
X32635224Y-42706864D01*
X32650523Y-42697470D01*
X32831834Y-42546943D01*
X32843882Y-42533633D01*
X32975656Y-42338268D01*
X32983484Y-42322112D01*
X33055248Y-42097247D01*
X33058242Y-42078761D01*
X33061357Y-41823800D01*
X33058816Y-41805246D01*
X32992568Y-41578695D01*
X32985137Y-41562351D01*
X32858175Y-41363826D01*
X32846456Y-41350225D01*
X32668877Y-41195313D01*
X32653812Y-41185548D01*
X32439892Y-41086704D01*
X32422692Y-41081560D01*
X32189628Y-41046728D01*
X32171675Y-41046619D01*
X31938204Y-41078600D01*
X31920942Y-41083533D01*
X31705831Y-41179757D01*
X31690648Y-41189337D01*
X31511190Y-41342068D01*
X31499306Y-41355525D01*
X31369927Y-41552485D01*
X31362297Y-41568736D01*
X31293399Y-41794090D01*
X31290637Y-41811830D01*
X31287759Y-42047465D01*
X31290087Y-42065266D01*
X31297858Y-42093098D01*
X31252700Y-42072232D01*
X31235500Y-42067088D01*
X31002436Y-42032256D01*
X30984483Y-42032147D01*
X30751012Y-42064128D01*
X30733750Y-42069061D01*
X30518639Y-42165285D01*
X30503456Y-42174865D01*
X30323998Y-42327596D01*
X30312114Y-42341053D01*
X30182735Y-42538013D01*
X30175105Y-42554264D01*
X30110311Y-42766196D01*
X29994387Y-42712632D01*
X30010464Y-42688796D01*
X30018292Y-42672640D01*
X30090056Y-42447775D01*
X30093050Y-42429289D01*
X30096165Y-42174328D01*
X30093624Y-42155774D01*
X30052478Y-42015064D01*
X30071440Y-42012702D01*
X30088761Y-42007980D01*
X30305032Y-41914392D01*
X30320331Y-41904998D01*
X30501642Y-41754471D01*
X30513690Y-41741161D01*
X30645464Y-41545796D01*
X30653292Y-41529640D01*
X30725056Y-41304775D01*
X30728050Y-41286289D01*
X30731165Y-41031328D01*
X30728624Y-41012774D01*
X30662376Y-40786223D01*
X30654945Y-40769879D01*
X30527983Y-40571354D01*
X30516264Y-40557753D01*
X30338685Y-40402841D01*
X30323620Y-40393076D01*
X30109700Y-40294232D01*
X30092500Y-40289088D01*
X29859436Y-40254256D01*
X29841483Y-40254147D01*
X29608012Y-40286128D01*
X29590750Y-40291061D01*
X29375639Y-40387285D01*
X29360456Y-40396865D01*
X29332314Y-40420816D01*
X29334165Y-40269328D01*
X29331624Y-40250774D01*
X29265376Y-40024223D01*
X29257945Y-40007879D01*
X29130983Y-39809354D01*
X29119264Y-39795753D01*
X28941685Y-39640841D01*
X28926620Y-39631076D01*
X28712700Y-39532232D01*
X28695500Y-39527088D01*
X28462436Y-39492256D01*
X28444483Y-39492147D01*
X28211012Y-39524128D01*
X28193750Y-39529061D01*
X27978639Y-39625285D01*
X27963456Y-39634865D01*
X27783998Y-39787596D01*
X27772114Y-39801053D01*
X27642735Y-39998013D01*
X27635105Y-40014264D01*
X27566207Y-40239618D01*
X27563445Y-40257358D01*
X27560567Y-40492993D01*
X26975183Y-40492993D01*
X26871824Y-40402828D01*
X26856759Y-40393063D01*
X26642839Y-40294219D01*
X26625639Y-40289075D01*
X26392575Y-40254243D01*
X26374622Y-40254134D01*
X26141151Y-40286115D01*
X26123889Y-40291048D01*
X25908778Y-40387272D01*
X25893595Y-40396852D01*
X25714137Y-40549583D01*
X25702253Y-40563040D01*
X25572874Y-40760000D01*
X25565244Y-40776251D01*
X25496346Y-41001605D01*
X25493584Y-41019345D01*
X25490928Y-41236835D01*
X25417906Y-41258326D01*
X25406478Y-41262943D01*
X25229061Y-41355694D01*
X25218747Y-41362443D01*
X25062726Y-41487889D01*
X25053921Y-41496512D01*
X24925235Y-41649872D01*
X24918272Y-41660042D01*
X24821826Y-41835477D01*
X24816970Y-41846805D01*
X24756370Y-42037843D01*
X24753759Y-42050338D01*
X24736346Y-42216012D01*
X24736001Y-42222602D01*
X24736001Y-42429536D01*
X24711663Y-42417666D01*
X24698391Y-42412940D01*
X24508190Y-42368328D01*
X24494200Y-42366660D01*
X24298843Y-42365296D01*
X24284831Y-42366769D01*
X24094025Y-42408720D01*
X24080688Y-42413260D01*
X23903919Y-42496442D01*
X23891919Y-42503825D01*
X23737971Y-42624102D01*
X23727904Y-42633959D01*
X23635174Y-42747658D01*
X23469639Y-42671171D01*
X23452439Y-42666027D01*
X23219375Y-42631195D01*
X23201422Y-42631086D01*
X22967951Y-42663067D01*
X22950689Y-42668000D01*
X22735578Y-42764224D01*
X22720395Y-42773804D01*
X22613145Y-42865081D01*
X22526983Y-42730354D01*
X22515264Y-42716753D01*
X22337685Y-42561841D01*
X22322620Y-42552076D01*
X22108700Y-42453232D01*
X22091500Y-42448088D01*
X21858436Y-42413256D01*
X21840483Y-42413147D01*
X21607012Y-42445128D01*
X21589750Y-42450061D01*
X21374639Y-42546285D01*
X21359456Y-42555865D01*
X21225222Y-42670107D01*
X21030713Y-42580232D01*
X21013513Y-42575088D01*
X20780449Y-42540256D01*
X20762496Y-42540147D01*
X20529025Y-42572128D01*
X20511764Y-42577061D01*
X20416278Y-42619774D01*
X20330700Y-42580232D01*
X20313500Y-42575088D01*
X20080436Y-42540256D01*
X20062483Y-42540147D01*
X19829012Y-42572128D01*
X19811750Y-42577061D01*
X19596639Y-42673285D01*
X19581456Y-42682865D01*
X19417068Y-42822770D01*
X19410145Y-42808320D01*
X19402679Y-42796372D01*
X19281330Y-42643268D01*
X19271402Y-42633270D01*
X19119149Y-42510856D01*
X19107253Y-42503307D01*
X18931663Y-42417666D01*
X18918391Y-42412940D01*
X18728190Y-42368328D01*
X18714200Y-42366660D01*
X18518843Y-42365296D01*
X18504831Y-42366769D01*
X18314025Y-42408720D01*
X18300688Y-42413260D01*
X18264000Y-42430524D01*
X18264000Y-42219649D01*
X18263699Y-42213497D01*
X18249099Y-42064595D01*
X18246705Y-42052504D01*
X18188841Y-41860850D01*
X18184144Y-41849456D01*
X18090157Y-41672692D01*
X18083337Y-41662426D01*
X17956806Y-41507283D01*
X17948122Y-41498537D01*
X17793866Y-41370926D01*
X17783648Y-41364034D01*
X17607544Y-41268815D01*
X17596182Y-41264039D01*
X17404937Y-41204840D01*
X17392865Y-41202361D01*
X17193762Y-41181434D01*
X17181437Y-41181348D01*
X16982064Y-41199493D01*
X16969958Y-41201803D01*
X16777905Y-41258326D01*
X16766478Y-41262943D01*
X16589061Y-41355694D01*
X16578747Y-41362443D01*
X16422726Y-41487889D01*
X16413921Y-41496512D01*
X16285235Y-41649872D01*
X16278272Y-41660042D01*
X16181826Y-41835477D01*
X16176970Y-41846805D01*
X16116370Y-42037843D01*
X16113759Y-42050338D01*
X16096346Y-42216012D01*
X16096001Y-42222601D01*
X16096000Y-42910331D01*
X15987685Y-42815841D01*
X15972620Y-42806076D01*
X15758700Y-42707232D01*
X15741500Y-42702088D01*
X15508436Y-42667256D01*
X15490483Y-42667147D01*
X15257012Y-42699128D01*
X15239750Y-42704061D01*
X15024639Y-42800285D01*
X15009456Y-42809865D01*
X14829998Y-42962596D01*
X14818114Y-42976053D01*
X14688735Y-43173013D01*
X14681105Y-43189264D01*
X14612207Y-43414618D01*
X14609445Y-43432358D01*
X14606567Y-43667993D01*
X12634000Y-43667993D01*
X12634000Y-39476993D01*
X14987567Y-39476993D01*
X14989895Y-39494794D01*
X15053265Y-39721765D01*
X15060496Y-39738198D01*
X15185024Y-39938259D01*
X15196576Y-39952002D01*
X15372249Y-40109071D01*
X15387193Y-40119019D01*
X15599888Y-40220470D01*
X15617025Y-40225824D01*
X15849646Y-40263500D01*
X15867596Y-40263829D01*
X16101440Y-40234702D01*
X16118761Y-40229980D01*
X16335032Y-40136392D01*
X16350331Y-40126998D01*
X16531642Y-39976471D01*
X16543690Y-39963161D01*
X16675464Y-39767796D01*
X16683292Y-39751640D01*
X16755056Y-39526775D01*
X16758050Y-39508289D01*
X16761165Y-39253328D01*
X16758624Y-39234774D01*
X16692376Y-39008223D01*
X16684945Y-38991879D01*
X16557983Y-38793354D01*
X16546264Y-38779753D01*
X16368685Y-38624841D01*
X16353620Y-38615076D01*
X16139700Y-38516232D01*
X16122500Y-38511088D01*
X15889436Y-38476256D01*
X15871483Y-38476147D01*
X15638012Y-38508128D01*
X15620750Y-38513061D01*
X15405639Y-38609285D01*
X15390456Y-38618865D01*
X15210998Y-38771596D01*
X15199114Y-38785053D01*
X15069735Y-38982013D01*
X15062105Y-38998264D01*
X14993207Y-39223618D01*
X14990445Y-39241358D01*
X14987567Y-39476993D01*
X12634000Y-39476993D01*
X12634000Y-35412993D01*
X14479567Y-35412993D01*
X14481895Y-35430794D01*
X14545265Y-35657765D01*
X14552496Y-35674198D01*
X14677024Y-35874259D01*
X14688576Y-35888002D01*
X14864249Y-36045071D01*
X14879193Y-36055019D01*
X15091888Y-36156470D01*
X15109025Y-36161824D01*
X15341646Y-36199500D01*
X15359596Y-36199829D01*
X15593440Y-36170702D01*
X15610761Y-36165980D01*
X15827032Y-36072392D01*
X15842331Y-36062998D01*
X16023642Y-35912471D01*
X16035690Y-35899161D01*
X16167464Y-35703796D01*
X16175292Y-35687640D01*
X16219772Y-35548265D01*
X16310024Y-35693259D01*
X16321576Y-35707002D01*
X16497249Y-35864071D01*
X16512193Y-35874019D01*
X16666889Y-35947806D01*
X16660456Y-35951865D01*
X16480998Y-36104596D01*
X16469114Y-36118053D01*
X16339735Y-36315013D01*
X16332105Y-36331264D01*
X16263207Y-36556618D01*
X16260445Y-36574358D01*
X16257567Y-36809993D01*
X16259895Y-36827794D01*
X16323265Y-37054765D01*
X16330496Y-37071198D01*
X16455024Y-37271259D01*
X16466576Y-37285002D01*
X16642249Y-37442071D01*
X16657193Y-37452019D01*
X16869888Y-37553470D01*
X16887025Y-37558824D01*
X17119646Y-37596500D01*
X17137596Y-37596829D01*
X17274584Y-37579766D01*
X17275895Y-37589794D01*
X17339265Y-37816765D01*
X17346496Y-37833198D01*
X17471024Y-38033259D01*
X17482576Y-38047002D01*
X17658249Y-38204071D01*
X17673193Y-38214019D01*
X17885888Y-38315470D01*
X17903025Y-38320824D01*
X18135646Y-38358500D01*
X18153596Y-38358829D01*
X18387440Y-38329702D01*
X18404761Y-38324980D01*
X18621032Y-38231392D01*
X18636331Y-38221998D01*
X18732242Y-38142372D01*
X18801249Y-38204071D01*
X18816193Y-38214019D01*
X18845758Y-38228121D01*
X18766090Y-38239034D01*
X18748828Y-38243967D01*
X18533717Y-38340191D01*
X18518534Y-38349771D01*
X18339076Y-38502502D01*
X18327192Y-38515959D01*
X18197813Y-38712919D01*
X18190183Y-38729170D01*
X18121285Y-38954524D01*
X18118523Y-38972264D01*
X18115645Y-39207899D01*
X18117973Y-39225700D01*
X18181343Y-39452671D01*
X18188574Y-39469104D01*
X18313102Y-39669165D01*
X18324654Y-39682908D01*
X18500327Y-39839977D01*
X18515271Y-39849925D01*
X18727966Y-39951376D01*
X18745103Y-39956730D01*
X18977724Y-39994406D01*
X18995674Y-39994735D01*
X19229518Y-39965608D01*
X19246839Y-39960886D01*
X19367820Y-39908533D01*
X19396092Y-40009795D01*
X19403323Y-40026228D01*
X19527851Y-40226289D01*
X19539403Y-40240032D01*
X19715076Y-40397101D01*
X19730020Y-40407049D01*
X19942715Y-40508500D01*
X19959852Y-40513854D01*
X20192473Y-40551530D01*
X20210423Y-40551859D01*
X20444267Y-40522732D01*
X20461588Y-40518010D01*
X20519399Y-40492993D01*
X21718567Y-40492993D01*
X21720895Y-40510794D01*
X21784265Y-40737765D01*
X21791496Y-40754198D01*
X21916024Y-40954259D01*
X21927576Y-40968002D01*
X22103249Y-41125071D01*
X22118193Y-41135019D01*
X22330888Y-41236470D01*
X22348025Y-41241824D01*
X22580646Y-41279500D01*
X22598596Y-41279829D01*
X22832440Y-41250702D01*
X22849761Y-41245980D01*
X23066032Y-41152392D01*
X23081331Y-41142998D01*
X23262642Y-40992471D01*
X23274690Y-40979161D01*
X23406464Y-40783796D01*
X23414292Y-40767640D01*
X23486056Y-40542775D01*
X23489050Y-40524289D01*
X23492165Y-40269328D01*
X23489624Y-40250774D01*
X23423376Y-40024223D01*
X23415945Y-40007879D01*
X23288983Y-39809354D01*
X23277264Y-39795753D01*
X23099685Y-39640841D01*
X23084620Y-39631076D01*
X22870700Y-39532232D01*
X22853500Y-39527088D01*
X22620436Y-39492256D01*
X22602483Y-39492147D01*
X22369012Y-39524128D01*
X22351750Y-39529061D01*
X22136639Y-39625285D01*
X22121456Y-39634865D01*
X21941998Y-39787596D01*
X21930114Y-39801053D01*
X21800735Y-39998013D01*
X21793105Y-40014264D01*
X21724207Y-40239618D01*
X21721445Y-40257358D01*
X21718567Y-40492993D01*
X20519399Y-40492993D01*
X20677859Y-40424422D01*
X20693158Y-40415028D01*
X20874469Y-40264501D01*
X20886517Y-40251191D01*
X21018291Y-40055826D01*
X21026119Y-40039670D01*
X21097883Y-39814805D01*
X21100877Y-39796319D01*
X21103992Y-39541358D01*
X21101451Y-39522804D01*
X21035203Y-39296253D01*
X21027772Y-39279909D01*
X20900810Y-39081384D01*
X20889091Y-39067783D01*
X20711512Y-38912871D01*
X20696447Y-38903106D01*
X20482527Y-38804262D01*
X20465327Y-38799118D01*
X20232263Y-38764286D01*
X20214310Y-38764177D01*
X19980839Y-38796158D01*
X19963577Y-38801091D01*
X19853033Y-38850540D01*
X19820454Y-38739129D01*
X19813023Y-38722785D01*
X19686061Y-38524260D01*
X19674342Y-38510659D01*
X19496763Y-38355747D01*
X19481698Y-38345982D01*
X19464295Y-38337941D01*
X19530440Y-38329702D01*
X19547761Y-38324980D01*
X19764032Y-38231392D01*
X19779331Y-38221998D01*
X19960642Y-38071471D01*
X19972690Y-38058161D01*
X20067168Y-37918091D01*
X20145075Y-38043253D01*
X20156627Y-38056996D01*
X20332300Y-38214065D01*
X20347244Y-38224013D01*
X20559939Y-38325464D01*
X20577076Y-38330818D01*
X20809697Y-38368494D01*
X20827647Y-38368823D01*
X21061491Y-38339696D01*
X21078812Y-38334974D01*
X21295083Y-38241386D01*
X21310382Y-38231992D01*
X21491693Y-38081465D01*
X21503741Y-38068155D01*
X21635515Y-37872790D01*
X21643343Y-37856634D01*
X21715107Y-37631769D01*
X21718101Y-37613283D01*
X21721216Y-37358322D01*
X21718675Y-37339768D01*
X21652427Y-37113217D01*
X21644996Y-37096873D01*
X21518034Y-36898348D01*
X21506315Y-36884747D01*
X21328736Y-36729835D01*
X21313671Y-36720070D01*
X21099751Y-36621226D01*
X21082551Y-36616082D01*
X20849487Y-36581250D01*
X20831534Y-36581141D01*
X20794080Y-36586272D01*
X20874636Y-36551412D01*
X20889935Y-36542018D01*
X21071246Y-36391491D01*
X21083294Y-36378181D01*
X21215068Y-36182816D01*
X21222896Y-36166660D01*
X21294660Y-35941795D01*
X21297654Y-35923309D01*
X21300769Y-35668348D01*
X21298228Y-35649794D01*
X21231980Y-35423243D01*
X21224549Y-35406899D01*
X21097587Y-35208374D01*
X21085868Y-35194773D01*
X20908289Y-35039861D01*
X20893224Y-35030096D01*
X20679304Y-34931252D01*
X20662104Y-34926108D01*
X20429040Y-34891276D01*
X20411087Y-34891167D01*
X20177616Y-34923148D01*
X20160354Y-34928081D01*
X19945243Y-35024305D01*
X19930060Y-35033885D01*
X19754011Y-35183715D01*
X19771380Y-35129290D01*
X19774374Y-35110804D01*
X19777489Y-34855843D01*
X19774948Y-34837289D01*
X19708700Y-34610738D01*
X19701269Y-34594394D01*
X19574307Y-34395869D01*
X19562588Y-34382268D01*
X19385009Y-34227356D01*
X19369944Y-34217591D01*
X19156024Y-34118747D01*
X19138824Y-34113603D01*
X18905760Y-34078771D01*
X18887807Y-34078662D01*
X18654336Y-34110643D01*
X18637074Y-34115576D01*
X18421963Y-34211800D01*
X18406780Y-34221380D01*
X18227322Y-34374111D01*
X18215438Y-34387568D01*
X18086059Y-34584528D01*
X18078429Y-34600779D01*
X18009531Y-34826133D01*
X18006769Y-34843873D01*
X18003891Y-35079508D01*
X18006219Y-35097309D01*
X18069589Y-35324280D01*
X18076820Y-35340713D01*
X18201348Y-35540774D01*
X18212900Y-35554517D01*
X18335186Y-35663853D01*
X18295207Y-35794618D01*
X18292445Y-35812358D01*
X18289567Y-36047993D01*
X18291895Y-36065794D01*
X18355265Y-36292765D01*
X18362496Y-36309198D01*
X18487024Y-36509259D01*
X18498576Y-36523002D01*
X18674249Y-36680071D01*
X18689193Y-36690019D01*
X18790627Y-36738401D01*
X18732585Y-36787798D01*
X18654685Y-36719841D01*
X18639620Y-36710076D01*
X18425700Y-36611232D01*
X18408500Y-36606088D01*
X18175436Y-36571256D01*
X18157483Y-36571147D01*
X18031139Y-36588454D01*
X18031165Y-36586328D01*
X18028624Y-36567774D01*
X17962376Y-36341223D01*
X17954945Y-36324879D01*
X17827983Y-36126354D01*
X17816264Y-36112753D01*
X17638685Y-35957841D01*
X17623620Y-35948076D01*
X17477220Y-35880430D01*
X17656642Y-35731471D01*
X17668690Y-35718161D01*
X17800464Y-35522796D01*
X17808292Y-35506640D01*
X17880056Y-35281775D01*
X17883050Y-35263289D01*
X17886165Y-35008328D01*
X17883624Y-34989774D01*
X17817376Y-34763223D01*
X17809945Y-34746879D01*
X17682983Y-34548354D01*
X17671264Y-34534753D01*
X17580861Y-34455890D01*
X17741450Y-34435887D01*
X17758771Y-34431165D01*
X17975042Y-34337577D01*
X17990341Y-34328183D01*
X18171652Y-34177656D01*
X18183700Y-34164346D01*
X18315474Y-33968981D01*
X18323302Y-33952825D01*
X18395066Y-33727960D01*
X18398060Y-33709474D01*
X18401175Y-33454513D01*
X18398634Y-33435959D01*
X18332386Y-33209408D01*
X18324955Y-33193064D01*
X18197993Y-32994539D01*
X18186274Y-32980938D01*
X18008695Y-32826026D01*
X17993630Y-32816261D01*
X17779710Y-32717417D01*
X17762510Y-32712273D01*
X17529446Y-32677441D01*
X17511493Y-32677332D01*
X17278022Y-32709313D01*
X17260760Y-32714246D01*
X17045649Y-32810470D01*
X17030466Y-32820050D01*
X16851008Y-32972781D01*
X16839124Y-32986238D01*
X16709745Y-33183198D01*
X16702115Y-33199449D01*
X16633217Y-33424803D01*
X16630455Y-33442543D01*
X16627577Y-33678178D01*
X16629905Y-33695979D01*
X16693275Y-33922950D01*
X16700506Y-33939383D01*
X16825034Y-34139444D01*
X16836586Y-34153187D01*
X16933439Y-34239783D01*
X16763012Y-34263128D01*
X16745750Y-34268061D01*
X16530639Y-34364285D01*
X16515456Y-34373865D01*
X16335998Y-34526596D01*
X16324114Y-34540053D01*
X16194735Y-34737013D01*
X16187105Y-34753264D01*
X16147700Y-34882150D01*
X16049983Y-34729354D01*
X16038264Y-34715753D01*
X15860685Y-34560841D01*
X15845620Y-34551076D01*
X15631700Y-34452232D01*
X15614500Y-34447088D01*
X15381436Y-34412256D01*
X15363483Y-34412147D01*
X15130012Y-34444128D01*
X15112750Y-34449061D01*
X14897639Y-34545285D01*
X14882456Y-34554865D01*
X14702998Y-34707596D01*
X14691114Y-34721053D01*
X14561735Y-34918013D01*
X14554105Y-34934264D01*
X14485207Y-35159618D01*
X14482445Y-35177358D01*
X14479567Y-35412993D01*
X12634000Y-35412993D01*
X12634000Y-31983993D01*
X14479567Y-31983993D01*
X14481895Y-32001794D01*
X14545265Y-32228765D01*
X14552496Y-32245198D01*
X14677024Y-32445259D01*
X14688576Y-32459002D01*
X14864249Y-32616071D01*
X14879193Y-32626019D01*
X15091888Y-32727470D01*
X15109025Y-32732824D01*
X15341646Y-32770500D01*
X15359596Y-32770829D01*
X15593440Y-32741702D01*
X15610761Y-32736980D01*
X15827032Y-32643392D01*
X15842331Y-32633998D01*
X16023642Y-32483471D01*
X16035690Y-32470161D01*
X16167464Y-32274796D01*
X16175292Y-32258640D01*
X16247056Y-32033775D01*
X16250050Y-32015289D01*
X16250432Y-31983993D01*
X19217597Y-31983993D01*
X19219925Y-32001794D01*
X19283295Y-32228765D01*
X19290526Y-32245198D01*
X19415054Y-32445259D01*
X19426606Y-32459002D01*
X19602279Y-32616071D01*
X19617223Y-32626019D01*
X19829919Y-32727470D01*
X19847055Y-32732824D01*
X19942262Y-32748244D01*
X19940567Y-32886993D01*
X19942895Y-32904794D01*
X20006265Y-33131765D01*
X20013496Y-33148198D01*
X20138024Y-33348259D01*
X20149576Y-33362002D01*
X20325249Y-33519071D01*
X20340193Y-33529019D01*
X20552888Y-33630470D01*
X20570025Y-33635824D01*
X20802646Y-33673500D01*
X20820596Y-33673829D01*
X21054440Y-33644702D01*
X21071761Y-33639980D01*
X21288032Y-33546392D01*
X21303331Y-33536998D01*
X21484642Y-33386471D01*
X21496690Y-33373161D01*
X21610532Y-33204382D01*
X21657265Y-33371765D01*
X21664496Y-33388198D01*
X21789024Y-33588259D01*
X21800576Y-33602002D01*
X21976249Y-33759071D01*
X21991193Y-33769019D01*
X22203888Y-33870470D01*
X22221025Y-33875824D01*
X22453646Y-33913500D01*
X22471596Y-33913829D01*
X22471637Y-33913824D01*
X22277198Y-34000801D01*
X22262015Y-34010381D01*
X22082557Y-34163112D01*
X22070673Y-34176569D01*
X21941294Y-34373529D01*
X21933664Y-34389780D01*
X21864766Y-34615134D01*
X21862004Y-34632874D01*
X21859126Y-34868509D01*
X21861454Y-34886310D01*
X21924824Y-35113281D01*
X21932055Y-35129714D01*
X22056583Y-35329775D01*
X22068135Y-35343518D01*
X22243808Y-35500587D01*
X22258752Y-35510535D01*
X22356623Y-35557217D01*
X22356445Y-35558358D01*
X22353567Y-35793993D01*
X22355895Y-35811794D01*
X22419265Y-36038765D01*
X22426496Y-36055198D01*
X22459720Y-36108574D01*
X22263639Y-36196285D01*
X22248456Y-36205865D01*
X22068998Y-36358596D01*
X22057114Y-36372053D01*
X21927735Y-36569013D01*
X21920105Y-36585264D01*
X21851207Y-36810618D01*
X21848445Y-36828358D01*
X21845567Y-37063993D01*
X21847895Y-37081794D01*
X21911265Y-37308765D01*
X21918496Y-37325198D01*
X22043024Y-37525259D01*
X22054576Y-37539002D01*
X22230249Y-37696071D01*
X22245193Y-37706019D01*
X22309812Y-37736841D01*
X22242012Y-37746128D01*
X22224750Y-37751061D01*
X22009639Y-37847285D01*
X21994456Y-37856865D01*
X21814998Y-38009596D01*
X21803114Y-38023053D01*
X21673735Y-38220013D01*
X21666105Y-38236264D01*
X21597207Y-38461618D01*
X21594445Y-38479358D01*
X21591567Y-38714993D01*
X21593895Y-38732794D01*
X21657265Y-38959765D01*
X21664496Y-38976198D01*
X21789024Y-39176259D01*
X21800576Y-39190002D01*
X21976249Y-39347071D01*
X21991193Y-39357019D01*
X22203888Y-39458470D01*
X22221025Y-39463824D01*
X22453646Y-39501500D01*
X22471596Y-39501829D01*
X22705440Y-39472702D01*
X22722761Y-39467980D01*
X22939032Y-39374392D01*
X22954331Y-39364998D01*
X23135642Y-39214471D01*
X23147690Y-39201161D01*
X23279464Y-39005796D01*
X23287292Y-38989640D01*
X23359056Y-38764775D01*
X23362050Y-38746289D01*
X23362432Y-38714993D01*
X26163567Y-38714993D01*
X26165895Y-38732794D01*
X26229265Y-38959765D01*
X26236496Y-38976198D01*
X26361024Y-39176259D01*
X26372576Y-39190002D01*
X26548249Y-39347071D01*
X26563193Y-39357019D01*
X26775888Y-39458470D01*
X26793025Y-39463824D01*
X27025646Y-39501500D01*
X27043596Y-39501829D01*
X27277440Y-39472702D01*
X27294761Y-39467980D01*
X27511032Y-39374392D01*
X27526331Y-39364998D01*
X27707642Y-39214471D01*
X27719690Y-39201161D01*
X27851464Y-39005796D01*
X27859292Y-38989640D01*
X27931056Y-38764775D01*
X27934050Y-38746289D01*
X27937165Y-38491328D01*
X27934624Y-38472774D01*
X27868376Y-38246223D01*
X27860945Y-38229879D01*
X27826103Y-38175398D01*
X29682265Y-38175398D01*
X29684593Y-38193199D01*
X29747963Y-38420170D01*
X29755194Y-38436603D01*
X29879722Y-38636664D01*
X29891274Y-38650407D01*
X30066947Y-38807476D01*
X30081891Y-38817424D01*
X30294586Y-38918875D01*
X30311723Y-38924229D01*
X30544344Y-38961905D01*
X30562294Y-38962234D01*
X30796138Y-38933107D01*
X30813459Y-38928385D01*
X30834848Y-38919129D01*
X30859636Y-38958953D01*
X30871188Y-38972696D01*
X31046861Y-39129765D01*
X31061805Y-39139713D01*
X31274500Y-39241164D01*
X31291637Y-39246518D01*
X31524258Y-39284194D01*
X31542208Y-39284523D01*
X31776052Y-39255396D01*
X31793373Y-39250674D01*
X32009644Y-39157086D01*
X32024943Y-39147692D01*
X32206254Y-38997165D01*
X32218303Y-38983854D01*
X32219644Y-38981866D01*
X32357440Y-38964702D01*
X32374761Y-38959980D01*
X32591032Y-38866392D01*
X32606331Y-38856998D01*
X32787642Y-38706471D01*
X32799690Y-38693161D01*
X32931464Y-38497796D01*
X32939292Y-38481640D01*
X33011056Y-38256775D01*
X33014050Y-38238289D01*
X33017165Y-37983328D01*
X33014624Y-37964774D01*
X32948376Y-37738223D01*
X32940945Y-37721879D01*
X32813983Y-37523354D01*
X32802264Y-37509753D01*
X32624685Y-37354841D01*
X32609620Y-37345076D01*
X32395700Y-37246232D01*
X32378500Y-37241088D01*
X32145436Y-37206256D01*
X32127483Y-37206147D01*
X31894012Y-37238128D01*
X31876750Y-37243061D01*
X31661639Y-37339285D01*
X31646456Y-37348865D01*
X31466998Y-37501596D01*
X31460890Y-37508512D01*
X31312624Y-37528822D01*
X31295363Y-37533755D01*
X31283059Y-37539259D01*
X31252681Y-37491759D01*
X31240962Y-37478158D01*
X31063383Y-37323246D01*
X31048318Y-37313481D01*
X30834398Y-37214637D01*
X30817198Y-37209493D01*
X30584134Y-37174661D01*
X30566181Y-37174552D01*
X30332710Y-37206533D01*
X30315448Y-37211466D01*
X30100337Y-37307690D01*
X30085154Y-37317270D01*
X29905696Y-37470001D01*
X29893812Y-37483458D01*
X29764433Y-37680418D01*
X29756803Y-37696669D01*
X29687905Y-37922023D01*
X29685143Y-37939763D01*
X29682265Y-38175398D01*
X27826103Y-38175398D01*
X27733983Y-38031354D01*
X27722264Y-38017753D01*
X27544685Y-37862841D01*
X27529620Y-37853076D01*
X27315700Y-37754232D01*
X27298500Y-37749088D01*
X27065436Y-37714256D01*
X27047483Y-37714147D01*
X26814012Y-37746128D01*
X26796750Y-37751061D01*
X26581639Y-37847285D01*
X26566456Y-37856865D01*
X26386998Y-38009596D01*
X26375114Y-38023053D01*
X26245735Y-38220013D01*
X26238105Y-38236264D01*
X26169207Y-38461618D01*
X26166445Y-38479358D01*
X26163567Y-38714993D01*
X23362432Y-38714993D01*
X23365165Y-38491328D01*
X23362624Y-38472774D01*
X23296376Y-38246223D01*
X23288945Y-38229879D01*
X23161983Y-38031354D01*
X23150264Y-38017753D01*
X22972685Y-37862841D01*
X22957620Y-37853076D01*
X22904524Y-37828542D01*
X22959440Y-37821702D01*
X22976761Y-37816980D01*
X23193032Y-37723392D01*
X23208331Y-37713998D01*
X23389642Y-37563471D01*
X23401690Y-37550161D01*
X23533464Y-37354796D01*
X23541292Y-37338640D01*
X23613056Y-37113775D01*
X23616050Y-37095289D01*
X23619165Y-36840328D01*
X23616624Y-36821774D01*
X23550376Y-36595223D01*
X23542945Y-36578879D01*
X23514355Y-36534174D01*
X23701032Y-36453392D01*
X23716331Y-36443998D01*
X23897642Y-36293471D01*
X23909690Y-36280161D01*
X23929063Y-36251440D01*
X24035249Y-36422034D01*
X24046801Y-36435777D01*
X24222474Y-36592846D01*
X24237418Y-36602794D01*
X24450113Y-36704245D01*
X24467250Y-36709599D01*
X24699871Y-36747275D01*
X24717821Y-36747604D01*
X24951665Y-36718477D01*
X24968986Y-36713755D01*
X25185257Y-36620167D01*
X25200556Y-36610773D01*
X25381867Y-36460246D01*
X25393915Y-36446936D01*
X25525689Y-36251571D01*
X25533517Y-36235415D01*
X25560218Y-36151752D01*
X25570017Y-36154814D01*
X25802638Y-36192490D01*
X25820588Y-36192819D01*
X26054432Y-36163692D01*
X26071753Y-36158970D01*
X26288024Y-36065382D01*
X26303323Y-36055988D01*
X26484634Y-35905461D01*
X26496682Y-35892151D01*
X26628456Y-35696786D01*
X26636284Y-35680630D01*
X26708048Y-35455765D01*
X26711042Y-35437279D01*
X26714157Y-35182318D01*
X26711616Y-35163764D01*
X26645368Y-34937213D01*
X26637937Y-34920869D01*
X26601475Y-34863855D01*
X26648888Y-34886470D01*
X26666025Y-34891824D01*
X26898646Y-34929500D01*
X26916596Y-34929829D01*
X27150440Y-34900702D01*
X27167761Y-34895980D01*
X27384032Y-34802392D01*
X27399331Y-34792998D01*
X27580642Y-34642471D01*
X27592690Y-34629161D01*
X27724464Y-34433796D01*
X27732292Y-34417640D01*
X27804056Y-34192775D01*
X27807050Y-34174289D01*
X27810165Y-33919328D01*
X27807624Y-33900774D01*
X27741376Y-33674223D01*
X27733945Y-33657879D01*
X27606983Y-33459354D01*
X27595264Y-33445753D01*
X27417685Y-33290841D01*
X27402620Y-33281076D01*
X27188700Y-33182232D01*
X27171500Y-33177088D01*
X26938436Y-33142256D01*
X26920483Y-33142147D01*
X26687012Y-33174128D01*
X26669750Y-33179061D01*
X26454639Y-33275285D01*
X26439456Y-33284865D01*
X26259998Y-33437596D01*
X26248114Y-33451053D01*
X26118735Y-33648013D01*
X26111105Y-33664264D01*
X26042207Y-33889618D01*
X26039445Y-33907358D01*
X26036567Y-34142993D01*
X26038895Y-34160794D01*
X26102265Y-34387765D01*
X26109496Y-34404198D01*
X26152125Y-34472684D01*
X26092692Y-34445222D01*
X26075492Y-34440078D01*
X25842428Y-34405246D01*
X25824475Y-34405137D01*
X25591004Y-34437118D01*
X25573742Y-34442051D01*
X25358631Y-34538275D01*
X25343448Y-34547855D01*
X25163990Y-34700586D01*
X25152106Y-34714043D01*
X25022727Y-34911003D01*
X25015097Y-34927254D01*
X24992492Y-35001193D01*
X24989925Y-35000007D01*
X24972725Y-34994863D01*
X24739661Y-34960031D01*
X24721708Y-34959922D01*
X24488237Y-34991903D01*
X24470975Y-34996836D01*
X24255864Y-35093060D01*
X24240681Y-35102640D01*
X24061223Y-35255371D01*
X24049339Y-35268828D01*
X24037174Y-35287347D01*
X23923983Y-35110354D01*
X23912264Y-35096753D01*
X23734685Y-34941841D01*
X23719620Y-34932076D01*
X23629722Y-34890538D01*
X23632724Y-34644844D01*
X23630183Y-34626290D01*
X23563935Y-34399739D01*
X23556504Y-34383395D01*
X23470328Y-34248646D01*
X23578877Y-34345699D01*
X23593821Y-34355647D01*
X23806516Y-34457098D01*
X23823653Y-34462452D01*
X24056274Y-34500128D01*
X24074224Y-34500457D01*
X24308068Y-34471330D01*
X24325389Y-34466608D01*
X24541660Y-34373020D01*
X24556959Y-34363626D01*
X24738270Y-34213099D01*
X24750318Y-34199789D01*
X24882092Y-34004424D01*
X24889920Y-33988268D01*
X24961684Y-33763403D01*
X24964678Y-33744917D01*
X24967793Y-33489956D01*
X24965252Y-33471402D01*
X24899004Y-33244851D01*
X24891573Y-33228507D01*
X24851315Y-33165558D01*
X24997888Y-33235470D01*
X25015025Y-33240824D01*
X25247646Y-33278500D01*
X25265596Y-33278829D01*
X25499440Y-33249702D01*
X25516761Y-33244980D01*
X25733032Y-33151392D01*
X25748331Y-33141998D01*
X25929642Y-32991471D01*
X25941690Y-32978161D01*
X26073464Y-32782796D01*
X26081292Y-32766640D01*
X26084779Y-32755713D01*
X26144079Y-32765317D01*
X26162029Y-32765646D01*
X26395873Y-32736519D01*
X26413194Y-32731797D01*
X26629465Y-32638209D01*
X26644764Y-32628815D01*
X26826075Y-32478288D01*
X26838123Y-32464978D01*
X26969897Y-32269613D01*
X26977725Y-32253457D01*
X27049489Y-32028592D01*
X27052483Y-32010106D01*
X27055598Y-31755145D01*
X27053057Y-31736591D01*
X26986809Y-31510040D01*
X26979378Y-31493696D01*
X26852416Y-31295171D01*
X26840697Y-31281570D01*
X26663118Y-31126658D01*
X26648053Y-31116893D01*
X26434133Y-31018049D01*
X26416933Y-31012905D01*
X26183869Y-30978073D01*
X26165916Y-30977964D01*
X25932445Y-31009945D01*
X25915183Y-31014878D01*
X25700072Y-31111102D01*
X25684889Y-31120682D01*
X25505431Y-31273413D01*
X25493547Y-31286870D01*
X25364168Y-31483830D01*
X25356538Y-31500081D01*
X25356099Y-31501518D01*
X25287436Y-31491256D01*
X25269483Y-31491147D01*
X25121418Y-31511429D01*
X25106514Y-31460461D01*
X25099083Y-31444117D01*
X24972121Y-31245592D01*
X24960402Y-31231991D01*
X24782823Y-31077079D01*
X24767758Y-31067314D01*
X24553838Y-30968470D01*
X24536638Y-30963326D01*
X24303574Y-30928494D01*
X24285621Y-30928385D01*
X24052150Y-30960366D01*
X24034888Y-30965299D01*
X23819777Y-31061523D01*
X23804594Y-31071103D01*
X23625136Y-31223834D01*
X23613252Y-31237291D01*
X23483873Y-31434251D01*
X23476243Y-31450502D01*
X23426822Y-31612149D01*
X23251700Y-31531232D01*
X23234500Y-31526088D01*
X23001436Y-31491256D01*
X22983483Y-31491147D01*
X22750012Y-31523128D01*
X22732750Y-31528061D01*
X22517639Y-31624285D01*
X22502456Y-31633865D01*
X22322998Y-31786596D01*
X22311114Y-31800053D01*
X22181735Y-31997013D01*
X22174105Y-32013264D01*
X22113028Y-32213037D01*
X22009639Y-32259285D01*
X21994456Y-32268865D01*
X21814998Y-32421596D01*
X21803114Y-32435053D01*
X21697371Y-32596031D01*
X21645376Y-32418223D01*
X21637945Y-32401879D01*
X21510983Y-32203354D01*
X21499264Y-32189753D01*
X21321685Y-32034841D01*
X21306620Y-32025076D01*
X21092700Y-31926232D01*
X21075500Y-31921088D01*
X20989388Y-31908218D01*
X20991195Y-31760328D01*
X20988654Y-31741774D01*
X20922406Y-31515223D01*
X20914975Y-31498879D01*
X20788013Y-31300354D01*
X20776294Y-31286753D01*
X20598715Y-31131841D01*
X20583650Y-31122076D01*
X20369730Y-31023232D01*
X20352530Y-31018088D01*
X20119466Y-30983256D01*
X20101513Y-30983147D01*
X19868042Y-31015128D01*
X19850780Y-31020061D01*
X19635669Y-31116285D01*
X19620486Y-31125865D01*
X19441028Y-31278596D01*
X19429144Y-31292053D01*
X19299765Y-31489013D01*
X19292135Y-31505264D01*
X19223237Y-31730618D01*
X19220475Y-31748358D01*
X19217597Y-31983993D01*
X16250432Y-31983993D01*
X16253165Y-31760328D01*
X16250624Y-31741774D01*
X16184376Y-31515223D01*
X16176945Y-31498879D01*
X16049983Y-31300354D01*
X16038264Y-31286753D01*
X15860685Y-31131841D01*
X15845620Y-31122076D01*
X15631700Y-31023232D01*
X15614500Y-31018088D01*
X15381436Y-30983256D01*
X15363483Y-30983147D01*
X15130012Y-31015128D01*
X15112750Y-31020061D01*
X14897639Y-31116285D01*
X14882456Y-31125865D01*
X14702998Y-31278596D01*
X14691114Y-31292053D01*
X14561735Y-31489013D01*
X14554105Y-31505264D01*
X14485207Y-31730618D01*
X14482445Y-31748358D01*
X14479567Y-31983993D01*
X12634000Y-31983993D01*
X12634000Y-29062993D01*
X14352567Y-29062993D01*
X14354895Y-29080794D01*
X14418265Y-29307765D01*
X14425496Y-29324198D01*
X14550024Y-29524259D01*
X14561576Y-29538002D01*
X14737249Y-29695071D01*
X14752193Y-29705019D01*
X14964888Y-29806470D01*
X14982025Y-29811824D01*
X15214646Y-29849500D01*
X15232596Y-29849829D01*
X15466440Y-29820702D01*
X15483761Y-29815980D01*
X15700032Y-29722392D01*
X15715331Y-29712998D01*
X15896642Y-29562471D01*
X15908690Y-29549161D01*
X16040464Y-29353796D01*
X16048292Y-29337640D01*
X16120056Y-29112775D01*
X16123050Y-29094289D01*
X16126165Y-28839328D01*
X16123624Y-28820774D01*
X16120180Y-28808993D01*
X16257567Y-28808993D01*
X16259895Y-28826794D01*
X16323265Y-29053765D01*
X16330496Y-29070198D01*
X16455024Y-29270259D01*
X16466576Y-29284002D01*
X16642249Y-29441071D01*
X16657193Y-29451019D01*
X16869888Y-29552470D01*
X16887025Y-29557824D01*
X17119646Y-29595500D01*
X17137596Y-29595829D01*
X17371440Y-29566702D01*
X17388761Y-29561980D01*
X17605032Y-29468392D01*
X17620331Y-29458998D01*
X17638404Y-29443993D01*
X23242567Y-29443993D01*
X23244895Y-29461794D01*
X23308265Y-29688765D01*
X23315496Y-29705198D01*
X23440024Y-29905259D01*
X23451576Y-29919002D01*
X23627249Y-30076071D01*
X23642193Y-30086019D01*
X23854888Y-30187470D01*
X23872025Y-30192824D01*
X24104646Y-30230500D01*
X24122596Y-30230829D01*
X24356440Y-30201702D01*
X24373761Y-30196980D01*
X24590032Y-30103392D01*
X24605331Y-30093998D01*
X24786642Y-29943471D01*
X24798690Y-29930161D01*
X24930464Y-29734796D01*
X24938292Y-29718640D01*
X25010056Y-29493775D01*
X25013050Y-29475289D01*
X25013432Y-29443993D01*
X28322567Y-29443993D01*
X28324895Y-29461794D01*
X28388265Y-29688765D01*
X28395496Y-29705198D01*
X28520024Y-29905259D01*
X28531576Y-29919002D01*
X28707249Y-30076071D01*
X28722193Y-30086019D01*
X28934888Y-30187470D01*
X28952025Y-30192824D01*
X29184646Y-30230500D01*
X29202596Y-30230829D01*
X29436440Y-30201702D01*
X29453761Y-30196980D01*
X29578229Y-30143119D01*
X29583555Y-30145659D01*
X29600691Y-30151013D01*
X29833312Y-30188689D01*
X29851262Y-30189018D01*
X30085106Y-30159891D01*
X30102427Y-30155169D01*
X30318698Y-30061581D01*
X30333997Y-30052187D01*
X30515308Y-29901660D01*
X30527356Y-29888350D01*
X30659130Y-29692985D01*
X30666958Y-29676829D01*
X30738722Y-29451964D01*
X30741716Y-29433478D01*
X30744831Y-29178517D01*
X30742290Y-29159963D01*
X30676042Y-28933412D01*
X30668611Y-28917068D01*
X30541649Y-28718543D01*
X30529930Y-28704942D01*
X30352351Y-28550030D01*
X30337286Y-28540265D01*
X30123366Y-28441421D01*
X30106166Y-28436277D01*
X29873102Y-28401445D01*
X29855149Y-28401336D01*
X29621678Y-28433317D01*
X29604417Y-28438250D01*
X29489043Y-28489859D01*
X29474700Y-28483232D01*
X29457500Y-28478088D01*
X29224436Y-28443256D01*
X29206483Y-28443147D01*
X28973012Y-28475128D01*
X28955750Y-28480061D01*
X28740639Y-28576285D01*
X28725456Y-28585865D01*
X28545998Y-28738596D01*
X28534114Y-28752053D01*
X28404735Y-28949013D01*
X28397105Y-28965264D01*
X28328207Y-29190618D01*
X28325445Y-29208358D01*
X28322567Y-29443993D01*
X25013432Y-29443993D01*
X25016165Y-29220328D01*
X25013624Y-29201774D01*
X24984242Y-29101295D01*
X25040642Y-29054471D01*
X25052690Y-29041161D01*
X25184464Y-28845796D01*
X25192292Y-28829640D01*
X25264056Y-28604775D01*
X25267050Y-28586289D01*
X25270165Y-28331328D01*
X25267624Y-28312774D01*
X25201376Y-28086223D01*
X25193945Y-28069879D01*
X25066983Y-27871354D01*
X25055264Y-27857753D01*
X24877685Y-27702841D01*
X24862620Y-27693076D01*
X24648700Y-27594232D01*
X24631500Y-27589088D01*
X24398436Y-27554256D01*
X24380483Y-27554147D01*
X24147012Y-27586128D01*
X24129750Y-27591061D01*
X23914639Y-27687285D01*
X23899456Y-27696865D01*
X23719998Y-27849596D01*
X23708114Y-27863053D01*
X23578735Y-28060013D01*
X23571105Y-28076264D01*
X23502207Y-28301618D01*
X23499445Y-28319358D01*
X23496567Y-28554993D01*
X23498895Y-28572794D01*
X23529983Y-28684141D01*
X23465998Y-28738596D01*
X23454114Y-28752052D01*
X23324735Y-28949013D01*
X23317105Y-28965264D01*
X23248207Y-29190618D01*
X23245445Y-29208358D01*
X23242567Y-29443993D01*
X17638404Y-29443993D01*
X17801642Y-29308471D01*
X17813690Y-29295161D01*
X17945464Y-29099796D01*
X17953292Y-29083640D01*
X18025056Y-28858775D01*
X18028050Y-28840289D01*
X18031165Y-28585328D01*
X18028624Y-28566774D01*
X17962376Y-28340223D01*
X17954945Y-28323879D01*
X17827983Y-28125354D01*
X17816264Y-28111753D01*
X17638685Y-27956841D01*
X17623620Y-27947076D01*
X17409700Y-27848232D01*
X17392500Y-27843088D01*
X17159436Y-27808256D01*
X17141483Y-27808147D01*
X16908012Y-27840128D01*
X16890750Y-27845061D01*
X16675639Y-27941285D01*
X16660456Y-27950865D01*
X16480998Y-28103596D01*
X16469114Y-28117053D01*
X16339735Y-28314013D01*
X16332105Y-28330264D01*
X16263207Y-28555618D01*
X16260445Y-28573358D01*
X16257567Y-28808993D01*
X16120180Y-28808993D01*
X16057376Y-28594223D01*
X16049945Y-28577879D01*
X15922983Y-28379354D01*
X15911264Y-28365753D01*
X15733685Y-28210841D01*
X15718620Y-28201076D01*
X15504700Y-28102232D01*
X15487500Y-28097088D01*
X15254436Y-28062256D01*
X15236483Y-28062147D01*
X15003012Y-28094128D01*
X14985750Y-28099061D01*
X14770639Y-28195285D01*
X14755456Y-28204865D01*
X14575998Y-28357596D01*
X14564114Y-28371053D01*
X14434735Y-28568013D01*
X14427105Y-28584264D01*
X14358207Y-28809618D01*
X14355445Y-28827358D01*
X14352567Y-29062993D01*
X12634000Y-29062993D01*
X12634000Y-26268993D01*
X13209567Y-26268993D01*
X13211895Y-26286794D01*
X13275265Y-26513765D01*
X13282496Y-26530198D01*
X13407024Y-26730259D01*
X13418576Y-26744002D01*
X13594249Y-26901071D01*
X13609193Y-26911019D01*
X13821888Y-27012470D01*
X13839025Y-27017824D01*
X14071646Y-27055500D01*
X14089596Y-27055829D01*
X14323440Y-27026702D01*
X14340761Y-27021980D01*
X14557032Y-26928392D01*
X14572331Y-26918998D01*
X14753642Y-26768471D01*
X14765690Y-26755161D01*
X14897464Y-26559796D01*
X14905292Y-26543640D01*
X14977056Y-26318775D01*
X14980050Y-26300289D01*
X14982047Y-26136790D01*
X18004607Y-26136790D01*
X18006935Y-26154591D01*
X18070305Y-26381562D01*
X18077536Y-26397995D01*
X18202064Y-26598056D01*
X18213616Y-26611799D01*
X18389289Y-26768868D01*
X18404233Y-26778816D01*
X18616928Y-26880267D01*
X18634065Y-26885621D01*
X18866686Y-26923297D01*
X18884636Y-26923626D01*
X18928090Y-26918213D01*
X18927445Y-26922358D01*
X18924567Y-27157993D01*
X18926895Y-27175794D01*
X18990265Y-27402765D01*
X18997496Y-27419198D01*
X19122024Y-27619259D01*
X19133576Y-27633002D01*
X19309249Y-27790071D01*
X19324193Y-27800019D01*
X19536888Y-27901470D01*
X19554025Y-27906824D01*
X19786646Y-27944500D01*
X19804596Y-27944829D01*
X20038440Y-27915702D01*
X20055761Y-27910980D01*
X20272032Y-27817392D01*
X20287331Y-27807998D01*
X20468642Y-27657471D01*
X20480690Y-27644161D01*
X20612464Y-27448796D01*
X20620292Y-27432640D01*
X20692056Y-27207775D01*
X20695050Y-27189289D01*
X20698165Y-26934328D01*
X20695624Y-26915774D01*
X20629376Y-26689223D01*
X20621945Y-26672879D01*
X20494983Y-26474354D01*
X20483264Y-26460753D01*
X20305685Y-26305841D01*
X20290620Y-26296076D01*
X20076700Y-26197232D01*
X20059500Y-26192088D01*
X19915890Y-26170625D01*
X19960642Y-26133471D01*
X19972690Y-26120161D01*
X20104464Y-25924796D01*
X20112292Y-25908640D01*
X20184056Y-25683775D01*
X20187050Y-25665289D01*
X20187432Y-25633993D01*
X21464567Y-25633993D01*
X21466895Y-25651794D01*
X21530265Y-25878765D01*
X21537496Y-25895198D01*
X21662024Y-26095259D01*
X21673576Y-26109002D01*
X21849249Y-26266071D01*
X21864193Y-26276019D01*
X22076888Y-26377470D01*
X22094025Y-26382824D01*
X22326646Y-26420500D01*
X22344596Y-26420829D01*
X22578440Y-26391702D01*
X22595761Y-26386980D01*
X22812032Y-26293392D01*
X22827331Y-26283998D01*
X23008642Y-26133471D01*
X23020690Y-26120161D01*
X23152464Y-25924796D01*
X23160292Y-25908640D01*
X23232056Y-25683775D01*
X23235050Y-25665289D01*
X23238165Y-25410328D01*
X23235624Y-25391774D01*
X23169376Y-25165223D01*
X23161945Y-25148879D01*
X23034983Y-24950354D01*
X23023264Y-24936753D01*
X22845685Y-24781841D01*
X22830620Y-24772076D01*
X22616700Y-24673232D01*
X22599500Y-24668088D01*
X22366436Y-24633256D01*
X22348483Y-24633147D01*
X22115012Y-24665128D01*
X22097750Y-24670061D01*
X21882639Y-24766285D01*
X21867456Y-24775865D01*
X21687998Y-24928596D01*
X21676114Y-24942053D01*
X21546735Y-25139013D01*
X21539105Y-25155264D01*
X21470207Y-25380618D01*
X21467445Y-25398358D01*
X21464567Y-25633993D01*
X20187432Y-25633993D01*
X20190165Y-25410328D01*
X20187624Y-25391774D01*
X20121376Y-25165223D01*
X20113945Y-25148879D01*
X19986983Y-24950354D01*
X19975264Y-24936753D01*
X19797685Y-24781841D01*
X19782620Y-24772076D01*
X19568700Y-24673232D01*
X19551500Y-24668088D01*
X19318436Y-24633256D01*
X19300483Y-24633147D01*
X19067012Y-24665128D01*
X19049750Y-24670061D01*
X18834639Y-24766285D01*
X18819456Y-24775865D01*
X18639998Y-24928596D01*
X18628114Y-24942053D01*
X18498735Y-25139013D01*
X18491105Y-25155264D01*
X18461635Y-25251656D01*
X18422679Y-25269082D01*
X18407496Y-25278662D01*
X18228038Y-25431393D01*
X18216154Y-25444850D01*
X18086775Y-25641810D01*
X18079145Y-25658061D01*
X18010247Y-25883415D01*
X18007485Y-25901155D01*
X18004607Y-26136790D01*
X14982047Y-26136790D01*
X14983165Y-26045328D01*
X14980624Y-26026774D01*
X14914376Y-25800223D01*
X14906945Y-25783879D01*
X14779983Y-25585354D01*
X14768264Y-25571753D01*
X14590685Y-25416841D01*
X14575620Y-25407076D01*
X14361700Y-25308232D01*
X14344500Y-25303088D01*
X14111436Y-25268256D01*
X14093483Y-25268147D01*
X13860012Y-25300128D01*
X13842750Y-25305061D01*
X13627639Y-25401285D01*
X13612456Y-25410865D01*
X13432998Y-25563596D01*
X13421114Y-25577053D01*
X13291735Y-25774013D01*
X13284105Y-25790264D01*
X13215207Y-26015618D01*
X13212445Y-26033358D01*
X13209567Y-26268993D01*
X12634000Y-26268993D01*
X12634000Y-23347993D01*
X12701567Y-23347993D01*
X12703895Y-23365794D01*
X12767265Y-23592765D01*
X12774496Y-23609198D01*
X12899024Y-23809259D01*
X12910576Y-23823002D01*
X13086249Y-23980071D01*
X13101193Y-23990019D01*
X13313888Y-24091470D01*
X13331025Y-24096824D01*
X13563646Y-24134500D01*
X13581596Y-24134829D01*
X13815440Y-24105702D01*
X13832761Y-24100980D01*
X14049032Y-24007392D01*
X14064331Y-23997998D01*
X14245642Y-23847471D01*
X14257690Y-23834161D01*
X14389464Y-23638796D01*
X14397292Y-23622640D01*
X14416921Y-23561135D01*
X14428265Y-23601765D01*
X14435496Y-23618198D01*
X14560024Y-23818259D01*
X14571576Y-23832002D01*
X14747249Y-23989071D01*
X14762193Y-23999019D01*
X14771978Y-24003686D01*
X14770639Y-24004285D01*
X14755456Y-24013865D01*
X14575998Y-24166596D01*
X14564114Y-24180053D01*
X14434735Y-24377013D01*
X14427105Y-24393264D01*
X14358207Y-24618618D01*
X14355445Y-24636358D01*
X14352567Y-24871993D01*
X14354895Y-24889794D01*
X14418265Y-25116765D01*
X14425496Y-25133198D01*
X14550024Y-25333259D01*
X14561576Y-25347002D01*
X14737249Y-25504071D01*
X14752193Y-25514019D01*
X14964888Y-25615470D01*
X14982025Y-25620824D01*
X15214646Y-25658500D01*
X15232596Y-25658829D01*
X15466440Y-25629702D01*
X15483761Y-25624980D01*
X15700032Y-25531392D01*
X15715331Y-25521998D01*
X15896642Y-25371471D01*
X15908690Y-25358161D01*
X16040464Y-25162796D01*
X16048292Y-25146640D01*
X16120056Y-24921775D01*
X16123050Y-24903289D01*
X16126165Y-24648328D01*
X16123624Y-24629774D01*
X16057376Y-24403223D01*
X16049945Y-24386879D01*
X15922983Y-24188354D01*
X15911264Y-24174753D01*
X15733685Y-24019841D01*
X15719446Y-24010611D01*
X15725331Y-24006998D01*
X15906642Y-23856471D01*
X15918690Y-23843161D01*
X15995696Y-23728993D01*
X16130567Y-23728993D01*
X16132895Y-23746794D01*
X16196265Y-23973765D01*
X16203496Y-23990198D01*
X16328024Y-24190259D01*
X16339576Y-24204002D01*
X16515249Y-24361071D01*
X16530193Y-24371019D01*
X16742888Y-24472470D01*
X16760025Y-24477824D01*
X16992646Y-24515500D01*
X17010596Y-24515829D01*
X17244440Y-24486702D01*
X17261761Y-24481980D01*
X17478032Y-24388392D01*
X17493331Y-24378998D01*
X17674642Y-24228471D01*
X17686690Y-24215161D01*
X17818464Y-24019796D01*
X17826292Y-24003640D01*
X17898056Y-23778775D01*
X17901050Y-23760289D01*
X17904165Y-23505328D01*
X17901624Y-23486774D01*
X17835376Y-23260223D01*
X17827945Y-23243879D01*
X17700983Y-23045354D01*
X17689264Y-23031753D01*
X17511685Y-22876841D01*
X17496620Y-22867076D01*
X17282700Y-22768232D01*
X17265500Y-22763088D01*
X17032436Y-22728256D01*
X17014483Y-22728147D01*
X16781012Y-22760128D01*
X16763750Y-22765061D01*
X16548639Y-22861285D01*
X16533456Y-22870865D01*
X16353998Y-23023596D01*
X16342114Y-23037053D01*
X16212735Y-23234013D01*
X16205105Y-23250264D01*
X16136207Y-23475618D01*
X16133445Y-23493358D01*
X16130567Y-23728993D01*
X15995696Y-23728993D01*
X16050464Y-23647796D01*
X16058292Y-23631640D01*
X16130056Y-23406775D01*
X16133050Y-23388289D01*
X16136165Y-23133328D01*
X16133624Y-23114774D01*
X16067376Y-22888223D01*
X16059945Y-22871879D01*
X15932983Y-22673354D01*
X15921264Y-22659753D01*
X15743685Y-22504841D01*
X15728620Y-22495076D01*
X15514700Y-22396232D01*
X15497500Y-22391088D01*
X15264436Y-22356256D01*
X15246483Y-22356147D01*
X15013012Y-22388128D01*
X14995750Y-22393061D01*
X14780639Y-22489285D01*
X14765456Y-22498865D01*
X14585998Y-22651596D01*
X14574114Y-22665053D01*
X14444735Y-22862013D01*
X14437105Y-22878264D01*
X14421255Y-22930106D01*
X14406376Y-22879223D01*
X14398945Y-22862879D01*
X14271983Y-22664354D01*
X14260264Y-22650753D01*
X14082685Y-22495841D01*
X14067620Y-22486076D01*
X13853700Y-22387232D01*
X13836500Y-22382088D01*
X13603436Y-22347256D01*
X13585483Y-22347147D01*
X13352012Y-22379128D01*
X13334750Y-22384061D01*
X13119639Y-22480285D01*
X13104456Y-22489865D01*
X12924998Y-22642596D01*
X12913114Y-22656053D01*
X12783735Y-22853013D01*
X12776105Y-22869264D01*
X12707207Y-23094618D01*
X12704445Y-23112358D01*
X12701567Y-23347993D01*
X12634000Y-23347993D01*
X12634000Y-18998326D01*
X12640265Y-19020765D01*
X12647496Y-19037198D01*
X12772024Y-19237259D01*
X12783576Y-19251002D01*
X12959249Y-19408071D01*
X12974193Y-19418019D01*
X13186888Y-19519470D01*
X13204025Y-19524824D01*
X13436646Y-19562500D01*
X13454596Y-19562829D01*
X13688440Y-19533702D01*
X13705761Y-19528980D01*
X13922032Y-19435392D01*
X13937331Y-19425998D01*
X14118642Y-19275471D01*
X14130690Y-19262161D01*
X14262464Y-19066796D01*
X14270292Y-19050640D01*
X14342056Y-18825775D01*
X14345050Y-18807289D01*
X14348165Y-18552328D01*
X14345624Y-18533774D01*
X14279376Y-18307223D01*
X14271945Y-18290879D01*
X14144983Y-18092354D01*
X14133264Y-18078753D01*
X14108321Y-18056993D01*
X14733567Y-18056993D01*
X14735895Y-18074794D01*
X14799265Y-18301765D01*
X14806496Y-18318198D01*
X14931024Y-18518259D01*
X14942576Y-18532002D01*
X15118249Y-18689071D01*
X15133193Y-18699019D01*
X15345888Y-18800470D01*
X15363025Y-18805824D01*
X15595646Y-18843500D01*
X15613596Y-18843829D01*
X15847440Y-18814702D01*
X15864761Y-18809980D01*
X15912502Y-18789321D01*
X15867954Y-18935029D01*
X15865192Y-18952769D01*
X15862314Y-19188404D01*
X15864642Y-19206205D01*
X15928012Y-19433176D01*
X15935243Y-19449609D01*
X16059771Y-19649670D01*
X16071323Y-19663413D01*
X16118647Y-19705725D01*
X16099998Y-19721596D01*
X16088114Y-19735053D01*
X15958735Y-19932013D01*
X15951105Y-19948264D01*
X15882207Y-20173618D01*
X15879445Y-20191358D01*
X15876567Y-20426993D01*
X15878895Y-20444794D01*
X15942265Y-20671765D01*
X15949496Y-20688198D01*
X16074024Y-20888259D01*
X16085576Y-20902002D01*
X16261249Y-21059071D01*
X16276193Y-21069019D01*
X16488888Y-21170470D01*
X16506025Y-21175824D01*
X16738646Y-21213500D01*
X16756596Y-21213829D01*
X16990440Y-21184702D01*
X17007761Y-21179980D01*
X17021300Y-21174121D01*
X17019567Y-21315993D01*
X17021895Y-21333794D01*
X17085265Y-21560765D01*
X17092496Y-21577198D01*
X17217024Y-21777259D01*
X17228576Y-21791002D01*
X17404249Y-21948071D01*
X17419193Y-21958019D01*
X17631888Y-22059470D01*
X17649025Y-22064824D01*
X17881646Y-22102500D01*
X17899596Y-22102829D01*
X18133440Y-22073702D01*
X18150761Y-22068980D01*
X18367032Y-21975392D01*
X18382331Y-21965998D01*
X18467819Y-21895024D01*
X18483670Y-21951797D01*
X18490901Y-21968230D01*
X18615429Y-22168291D01*
X18626981Y-22182034D01*
X18802654Y-22339103D01*
X18817598Y-22349051D01*
X19030293Y-22450502D01*
X19047430Y-22455856D01*
X19280051Y-22493532D01*
X19298001Y-22493861D01*
X19531845Y-22464734D01*
X19549166Y-22460012D01*
X19551520Y-22458993D01*
X20702567Y-22458993D01*
X20704895Y-22476794D01*
X20768265Y-22703765D01*
X20775496Y-22720198D01*
X20900024Y-22920259D01*
X20911576Y-22934002D01*
X21087249Y-23091071D01*
X21102193Y-23101019D01*
X21314888Y-23202470D01*
X21332025Y-23207824D01*
X21564646Y-23245500D01*
X21582597Y-23245829D01*
X21624290Y-23240636D01*
X21662024Y-23301259D01*
X21673576Y-23315002D01*
X21849249Y-23472071D01*
X21864193Y-23482019D01*
X22076888Y-23583470D01*
X22094025Y-23588824D01*
X22326646Y-23626500D01*
X22344596Y-23626829D01*
X22481584Y-23609766D01*
X22482895Y-23619794D01*
X22546265Y-23846765D01*
X22553496Y-23863198D01*
X22678024Y-24063259D01*
X22689576Y-24077002D01*
X22865249Y-24234071D01*
X22880193Y-24244019D01*
X23092888Y-24345470D01*
X23110025Y-24350824D01*
X23342646Y-24388500D01*
X23360596Y-24388829D01*
X23594440Y-24359702D01*
X23611761Y-24354980D01*
X23828032Y-24261392D01*
X23843331Y-24251998D01*
X24024642Y-24101471D01*
X24036690Y-24088161D01*
X24168464Y-23892796D01*
X24176292Y-23876640D01*
X24248056Y-23651775D01*
X24251050Y-23633289D01*
X24254165Y-23378328D01*
X24251624Y-23359774D01*
X24185376Y-23133223D01*
X24177945Y-23116879D01*
X24050983Y-22918354D01*
X24039264Y-22904753D01*
X23861685Y-22749841D01*
X23846620Y-22740076D01*
X23632700Y-22641232D01*
X23615500Y-22636088D01*
X23382436Y-22601256D01*
X23364483Y-22601147D01*
X23238139Y-22618454D01*
X23238165Y-22616328D01*
X23235624Y-22597774D01*
X23169376Y-22371223D01*
X23161945Y-22354879D01*
X23034983Y-22156354D01*
X23023264Y-22142753D01*
X22845685Y-21987841D01*
X22830620Y-21978076D01*
X22616700Y-21879232D01*
X22599500Y-21874088D01*
X22366436Y-21839256D01*
X22348483Y-21839147D01*
X22316576Y-21843518D01*
X22272983Y-21775354D01*
X22261264Y-21761753D01*
X22189694Y-21699319D01*
X22326646Y-21721500D01*
X22344596Y-21721829D01*
X22578440Y-21692702D01*
X22595761Y-21687980D01*
X22812032Y-21594392D01*
X22827331Y-21584998D01*
X23008642Y-21434471D01*
X23020690Y-21421161D01*
X23152464Y-21225796D01*
X23160292Y-21209640D01*
X23232056Y-20984775D01*
X23235050Y-20966289D01*
X23235432Y-20934993D01*
X24131567Y-20934993D01*
X24133895Y-20952794D01*
X24197265Y-21179765D01*
X24204496Y-21196198D01*
X24329024Y-21396259D01*
X24340576Y-21410002D01*
X24516249Y-21567071D01*
X24531193Y-21577019D01*
X24743888Y-21678470D01*
X24761025Y-21683824D01*
X24993646Y-21721500D01*
X25011596Y-21721829D01*
X25245440Y-21692702D01*
X25262761Y-21687980D01*
X25479032Y-21594392D01*
X25494331Y-21584998D01*
X25675642Y-21434471D01*
X25687690Y-21421161D01*
X25819464Y-21225796D01*
X25827292Y-21209640D01*
X25899056Y-20984775D01*
X25902050Y-20966289D01*
X25905165Y-20711328D01*
X25902624Y-20692774D01*
X25836376Y-20466223D01*
X25828945Y-20449879D01*
X25701983Y-20251354D01*
X25690264Y-20237753D01*
X25512685Y-20082841D01*
X25497620Y-20073076D01*
X25283700Y-19974232D01*
X25266500Y-19969088D01*
X25033436Y-19934256D01*
X25015483Y-19934147D01*
X24782012Y-19966128D01*
X24764750Y-19971061D01*
X24549639Y-20067285D01*
X24534456Y-20076865D01*
X24354998Y-20229596D01*
X24343114Y-20243053D01*
X24213735Y-20440013D01*
X24206105Y-20456264D01*
X24137207Y-20681618D01*
X24134445Y-20699358D01*
X24131567Y-20934993D01*
X23235432Y-20934993D01*
X23238165Y-20711328D01*
X23235624Y-20692774D01*
X23171232Y-20472569D01*
X23226440Y-20465692D01*
X23243761Y-20460970D01*
X23460032Y-20367382D01*
X23475331Y-20357988D01*
X23656642Y-20207461D01*
X23668690Y-20194151D01*
X23800464Y-19998786D01*
X23808292Y-19982630D01*
X23880056Y-19757765D01*
X23883050Y-19739279D01*
X23885509Y-19537993D01*
X25528567Y-19537993D01*
X25530895Y-19555794D01*
X25594265Y-19782765D01*
X25601496Y-19799198D01*
X25726024Y-19999259D01*
X25737576Y-20013002D01*
X25913249Y-20170071D01*
X25928193Y-20180019D01*
X26140888Y-20281470D01*
X26158025Y-20286824D01*
X26390646Y-20324500D01*
X26408596Y-20324829D01*
X26642440Y-20295702D01*
X26659761Y-20290980D01*
X26876032Y-20197392D01*
X26891331Y-20187998D01*
X27072642Y-20037471D01*
X27084690Y-20024161D01*
X27216464Y-19828796D01*
X27224292Y-19812640D01*
X27296056Y-19587775D01*
X27299050Y-19569289D01*
X27302165Y-19314328D01*
X27299624Y-19295774D01*
X27233376Y-19069223D01*
X27225945Y-19052879D01*
X27098983Y-18854354D01*
X27087264Y-18840753D01*
X26909685Y-18685841D01*
X26894620Y-18676076D01*
X26680700Y-18577232D01*
X26663500Y-18572088D01*
X26430436Y-18537256D01*
X26412483Y-18537147D01*
X26179012Y-18569128D01*
X26161750Y-18574061D01*
X25946639Y-18670285D01*
X25931456Y-18679865D01*
X25751998Y-18832596D01*
X25740114Y-18846053D01*
X25610735Y-19043013D01*
X25603105Y-19059264D01*
X25534207Y-19284618D01*
X25531445Y-19302358D01*
X25528567Y-19537993D01*
X23885509Y-19537993D01*
X23886165Y-19484318D01*
X23883624Y-19465764D01*
X23817376Y-19239213D01*
X23809945Y-19222869D01*
X23682983Y-19024344D01*
X23671264Y-19010743D01*
X23493685Y-18855831D01*
X23478620Y-18846066D01*
X23264700Y-18747222D01*
X23247500Y-18742078D01*
X23014436Y-18707246D01*
X22996483Y-18707137D01*
X22763012Y-18739118D01*
X22745750Y-18744051D01*
X22530639Y-18840275D01*
X22515456Y-18849855D01*
X22335998Y-19002586D01*
X22324114Y-19016043D01*
X22194735Y-19213003D01*
X22187105Y-19229254D01*
X22118207Y-19454608D01*
X22115445Y-19472348D01*
X22112567Y-19707983D01*
X22114895Y-19725784D01*
X22178265Y-19952755D01*
X22180219Y-19957196D01*
X22115012Y-19966128D01*
X22097750Y-19971061D01*
X21882639Y-20067285D01*
X21867456Y-20076865D01*
X21687998Y-20229596D01*
X21676114Y-20243053D01*
X21546735Y-20440013D01*
X21539105Y-20456264D01*
X21470207Y-20681618D01*
X21467445Y-20699358D01*
X21464567Y-20934993D01*
X21466895Y-20952794D01*
X21530265Y-21179765D01*
X21537496Y-21196198D01*
X21662024Y-21396259D01*
X21673576Y-21410002D01*
X21752254Y-21480348D01*
X21604436Y-21458256D01*
X21586483Y-21458147D01*
X21353012Y-21490128D01*
X21335750Y-21495061D01*
X21120639Y-21591285D01*
X21105456Y-21600865D01*
X20925998Y-21753596D01*
X20914114Y-21767053D01*
X20784735Y-21964013D01*
X20777105Y-21980264D01*
X20708207Y-22205618D01*
X20705445Y-22223358D01*
X20702567Y-22458993D01*
X19551520Y-22458993D01*
X19765437Y-22366424D01*
X19780736Y-22357030D01*
X19962047Y-22206503D01*
X19974095Y-22193193D01*
X20105869Y-21997828D01*
X20113697Y-21981672D01*
X20185461Y-21756807D01*
X20188455Y-21738321D01*
X20191570Y-21483360D01*
X20189029Y-21464806D01*
X20122781Y-21238255D01*
X20115350Y-21221911D01*
X19988388Y-21023386D01*
X19976669Y-21009785D01*
X19974102Y-21007546D01*
X20000900Y-20967816D01*
X20008727Y-20951660D01*
X20023251Y-20906150D01*
X20044888Y-20916470D01*
X20062025Y-20921824D01*
X20294646Y-20959500D01*
X20312596Y-20959829D01*
X20546440Y-20930702D01*
X20563761Y-20925980D01*
X20780032Y-20832392D01*
X20795331Y-20822998D01*
X20976642Y-20672471D01*
X20988690Y-20659161D01*
X21120464Y-20463796D01*
X21128292Y-20447640D01*
X21200056Y-20222775D01*
X21203050Y-20204289D01*
X21206165Y-19949328D01*
X21203624Y-19930774D01*
X21137376Y-19704223D01*
X21129945Y-19687879D01*
X21002983Y-19489354D01*
X20991264Y-19475753D01*
X20813685Y-19320841D01*
X20798620Y-19311076D01*
X20584700Y-19212232D01*
X20567500Y-19207088D01*
X20334436Y-19172256D01*
X20316483Y-19172147D01*
X20083012Y-19204128D01*
X20065750Y-19209061D01*
X19850639Y-19305285D01*
X19835456Y-19314865D01*
X19655998Y-19467596D01*
X19644114Y-19481053D01*
X19514735Y-19678013D01*
X19507105Y-19694264D01*
X19496020Y-19730523D01*
X19465135Y-19716252D01*
X19447935Y-19711108D01*
X19214871Y-19676276D01*
X19196918Y-19676167D01*
X18963447Y-19708148D01*
X18946185Y-19713081D01*
X18731074Y-19809305D01*
X18715891Y-19818885D01*
X18536433Y-19971616D01*
X18524549Y-19985073D01*
X18395170Y-20182033D01*
X18387540Y-20198284D01*
X18318779Y-20423191D01*
X18171700Y-20355232D01*
X18154500Y-20350088D01*
X17921436Y-20315256D01*
X17903483Y-20315147D01*
X17670012Y-20347128D01*
X17652750Y-20352061D01*
X17648324Y-20354041D01*
X17650165Y-20203328D01*
X17647624Y-20184774D01*
X17581376Y-19958223D01*
X17573945Y-19941879D01*
X17557083Y-19915512D01*
X17629423Y-19906502D01*
X17646744Y-19901780D01*
X17863015Y-19808192D01*
X17878314Y-19798798D01*
X18059625Y-19648271D01*
X18071673Y-19634961D01*
X18203447Y-19439596D01*
X18211275Y-19423440D01*
X18283039Y-19198575D01*
X18286033Y-19180089D01*
X18289148Y-18925128D01*
X18286607Y-18906574D01*
X18220359Y-18680023D01*
X18212928Y-18663679D01*
X18150995Y-18566837D01*
X18433258Y-18566837D01*
X18449634Y-18564681D01*
X18728859Y-18489863D01*
X18753339Y-18477120D01*
X18909590Y-18346010D01*
X18923761Y-18329121D01*
X19024359Y-18154880D01*
X19031900Y-18134163D01*
X19034484Y-18119505D01*
X19055249Y-18138071D01*
X19070193Y-18148019D01*
X19282888Y-18249470D01*
X19300025Y-18254824D01*
X19532646Y-18292500D01*
X19550596Y-18292829D01*
X19784440Y-18263702D01*
X19801761Y-18258980D01*
X20018032Y-18165392D01*
X20033331Y-18155998D01*
X20204377Y-18013993D01*
X23115567Y-18013993D01*
X23117895Y-18031794D01*
X23181265Y-18258765D01*
X23188496Y-18275198D01*
X23313024Y-18475259D01*
X23324576Y-18489002D01*
X23500249Y-18646071D01*
X23515193Y-18656019D01*
X23727888Y-18757470D01*
X23745025Y-18762824D01*
X23977646Y-18800500D01*
X23995596Y-18800829D01*
X24229440Y-18771702D01*
X24246761Y-18766980D01*
X24463032Y-18673392D01*
X24478331Y-18663998D01*
X24659642Y-18513471D01*
X24671690Y-18500161D01*
X24803464Y-18304796D01*
X24811292Y-18288640D01*
X24862883Y-18126982D01*
X28322567Y-18126982D01*
X28324895Y-18144783D01*
X28388265Y-18371754D01*
X28395496Y-18388187D01*
X28520024Y-18588248D01*
X28531576Y-18601991D01*
X28707249Y-18759060D01*
X28722193Y-18769008D01*
X28934888Y-18870459D01*
X28952025Y-18875813D01*
X29184646Y-18913489D01*
X29202596Y-18913818D01*
X29436440Y-18884691D01*
X29453761Y-18879969D01*
X29670032Y-18786381D01*
X29685331Y-18776987D01*
X29866642Y-18626460D01*
X29878690Y-18613150D01*
X30010464Y-18417785D01*
X30018292Y-18401629D01*
X30090056Y-18176764D01*
X30093050Y-18158278D01*
X30096165Y-17903317D01*
X30093624Y-17884763D01*
X30027376Y-17658212D01*
X30019945Y-17641868D01*
X29892983Y-17443343D01*
X29881264Y-17429742D01*
X29703685Y-17274830D01*
X29688620Y-17265065D01*
X29474700Y-17166221D01*
X29457500Y-17161077D01*
X29224436Y-17126245D01*
X29206483Y-17126136D01*
X28973012Y-17158117D01*
X28955750Y-17163050D01*
X28740639Y-17259274D01*
X28725456Y-17268854D01*
X28545998Y-17421585D01*
X28534114Y-17435042D01*
X28404735Y-17632002D01*
X28397105Y-17648253D01*
X28328207Y-17873607D01*
X28325445Y-17891347D01*
X28322567Y-18126982D01*
X24862883Y-18126982D01*
X24883056Y-18063775D01*
X24886050Y-18045289D01*
X24889165Y-17790328D01*
X24886624Y-17771774D01*
X24820376Y-17545223D01*
X24812945Y-17528879D01*
X24685983Y-17330354D01*
X24674264Y-17316753D01*
X24496685Y-17161841D01*
X24481620Y-17152076D01*
X24267700Y-17053232D01*
X24250500Y-17048088D01*
X24017436Y-17013256D01*
X23999483Y-17013147D01*
X23766012Y-17045128D01*
X23748750Y-17050061D01*
X23533639Y-17146285D01*
X23518456Y-17155865D01*
X23338998Y-17308596D01*
X23327114Y-17322053D01*
X23197735Y-17519013D01*
X23190105Y-17535264D01*
X23121207Y-17760618D01*
X23118445Y-17778358D01*
X23115567Y-18013993D01*
X20204377Y-18013993D01*
X20214642Y-18005471D01*
X20226690Y-17992161D01*
X20358464Y-17796796D01*
X20366292Y-17780640D01*
X20438056Y-17555775D01*
X20441050Y-17537289D01*
X20444165Y-17282328D01*
X20441624Y-17263774D01*
X20375376Y-17037223D01*
X20367945Y-17020879D01*
X20240983Y-16822354D01*
X20229264Y-16808753D01*
X20051685Y-16653841D01*
X20036620Y-16644076D01*
X19822700Y-16545232D01*
X19805500Y-16540088D01*
X19572436Y-16505256D01*
X19554483Y-16505147D01*
X19321012Y-16537128D01*
X19303750Y-16542061D01*
X19088639Y-16638285D01*
X19073456Y-16647865D01*
X18968892Y-16736856D01*
X18846010Y-16590410D01*
X18829121Y-16576239D01*
X18654880Y-16475641D01*
X18634163Y-16468100D01*
X18441462Y-16434122D01*
X18430501Y-16433163D01*
X17566741Y-16433163D01*
X17550366Y-16435319D01*
X17331080Y-16494076D01*
X17227706Y-16460488D01*
X17214788Y-16457743D01*
X17006604Y-16435861D01*
X16993396Y-16435861D01*
X16785212Y-16457743D01*
X16772294Y-16460488D01*
X16573208Y-16525174D01*
X16561142Y-16530546D01*
X16379857Y-16635213D01*
X16369173Y-16642975D01*
X16213609Y-16783044D01*
X16204772Y-16792859D01*
X16081730Y-16962213D01*
X16075127Y-16973650D01*
X15997541Y-17147909D01*
X15885700Y-17096232D01*
X15868500Y-17091088D01*
X15635436Y-17056256D01*
X15617483Y-17056147D01*
X15384012Y-17088128D01*
X15366750Y-17093061D01*
X15151639Y-17189285D01*
X15136456Y-17198865D01*
X14956998Y-17351596D01*
X14945114Y-17365053D01*
X14815735Y-17562013D01*
X14808105Y-17578264D01*
X14739207Y-17803618D01*
X14736445Y-17821358D01*
X14733567Y-18056993D01*
X14108321Y-18056993D01*
X13955685Y-17923841D01*
X13940620Y-17914076D01*
X13726700Y-17815232D01*
X13709500Y-17810088D01*
X13476436Y-17775256D01*
X13458483Y-17775147D01*
X13225012Y-17807128D01*
X13207750Y-17812061D01*
X12992639Y-17908285D01*
X12977456Y-17917865D01*
X12797998Y-18070596D01*
X12786114Y-18084053D01*
X12656735Y-18281013D01*
X12649105Y-18297264D01*
X12634000Y-18346670D01*
X12634000Y-15854993D01*
X20956567Y-15854993D01*
X20958895Y-15872794D01*
X21022265Y-16099765D01*
X21029496Y-16116198D01*
X21154024Y-16316259D01*
X21165576Y-16330002D01*
X21341249Y-16487071D01*
X21356193Y-16497019D01*
X21568888Y-16598470D01*
X21586025Y-16603824D01*
X21818646Y-16641500D01*
X21836596Y-16641829D01*
X22070440Y-16612702D01*
X22087761Y-16607980D01*
X22304032Y-16514392D01*
X22319331Y-16504998D01*
X22500642Y-16354471D01*
X22512690Y-16341161D01*
X22644464Y-16145796D01*
X22652292Y-16129640D01*
X22724056Y-15904775D01*
X22727050Y-15886289D01*
X22730165Y-15631328D01*
X22727624Y-15612774D01*
X22661376Y-15386223D01*
X22653945Y-15369879D01*
X22590406Y-15270526D01*
X22711888Y-15328470D01*
X22729025Y-15333824D01*
X22961646Y-15371500D01*
X22979596Y-15371829D01*
X23213440Y-15342702D01*
X23230761Y-15337980D01*
X23447032Y-15244392D01*
X23462331Y-15234998D01*
X23643642Y-15084471D01*
X23655690Y-15071161D01*
X23787464Y-14875796D01*
X23795292Y-14859640D01*
X23867056Y-14634775D01*
X23870050Y-14616289D01*
X23873165Y-14361328D01*
X23870624Y-14342774D01*
X23804376Y-14116223D01*
X23796945Y-14099879D01*
X23669983Y-13901354D01*
X23658264Y-13887753D01*
X23480685Y-13732841D01*
X23465620Y-13723076D01*
X23251700Y-13624232D01*
X23234500Y-13619088D01*
X23001436Y-13584256D01*
X22983483Y-13584147D01*
X22750012Y-13616128D01*
X22732750Y-13621061D01*
X22517639Y-13717285D01*
X22502456Y-13726865D01*
X22322998Y-13879596D01*
X22311114Y-13893053D01*
X22181735Y-14090013D01*
X22174105Y-14106264D01*
X22105207Y-14331618D01*
X22102445Y-14349358D01*
X22099567Y-14584993D01*
X22101895Y-14602794D01*
X22165265Y-14829765D01*
X22172496Y-14846198D01*
X22240222Y-14955003D01*
X22108700Y-14894232D01*
X22091500Y-14889088D01*
X21858436Y-14854256D01*
X21840483Y-14854147D01*
X21607012Y-14886128D01*
X21589750Y-14891061D01*
X21374639Y-14987285D01*
X21359456Y-14996865D01*
X21179998Y-15149596D01*
X21168114Y-15163053D01*
X21038735Y-15360013D01*
X21031105Y-15376264D01*
X20962207Y-15601618D01*
X20959445Y-15619358D01*
X20956567Y-15854993D01*
X12634000Y-15854993D01*
X12634000Y-14756993D01*
X14497567Y-14756993D01*
X14499895Y-14774794D01*
X14563265Y-15001765D01*
X14570496Y-15018198D01*
X14695024Y-15218259D01*
X14706576Y-15232002D01*
X14882249Y-15389071D01*
X14897193Y-15399019D01*
X15109888Y-15500470D01*
X15127025Y-15505824D01*
X15359646Y-15543500D01*
X15377596Y-15543829D01*
X15611440Y-15514702D01*
X15628761Y-15509980D01*
X15845032Y-15416392D01*
X15860331Y-15406998D01*
X16041642Y-15256471D01*
X16053690Y-15243161D01*
X16185464Y-15047796D01*
X16193292Y-15031640D01*
X16265056Y-14806775D01*
X16268050Y-14788289D01*
X16271165Y-14533328D01*
X16268624Y-14514774D01*
X16202376Y-14288223D01*
X16194945Y-14271879D01*
X16067983Y-14073354D01*
X16056264Y-14059753D01*
X15878685Y-13904841D01*
X15863620Y-13895076D01*
X15649700Y-13796232D01*
X15632500Y-13791088D01*
X15399436Y-13756256D01*
X15381483Y-13756147D01*
X15148012Y-13788128D01*
X15130750Y-13793061D01*
X14915639Y-13889285D01*
X14900456Y-13898865D01*
X14720998Y-14051596D01*
X14709114Y-14065053D01*
X14579735Y-14262013D01*
X14572105Y-14278264D01*
X14503207Y-14503618D01*
X14500445Y-14521358D01*
X14497567Y-14756993D01*
X12634000Y-14756993D01*
X12634000Y-13134000D01*
X34866000Y-13134000D01*
X34866001Y-20366000D01*
%TA.AperFunction,Conductor*%
G36*
X34866001Y-20366000D02*
G01*
X33002881Y-20366000D01*
X33099032Y-20324392D01*
X33114331Y-20314998D01*
X33295642Y-20164471D01*
X33307690Y-20151161D01*
X33439464Y-19955796D01*
X33447292Y-19939640D01*
X33519056Y-19714775D01*
X33522050Y-19696289D01*
X33525165Y-19441328D01*
X33522624Y-19422774D01*
X33456376Y-19196223D01*
X33448945Y-19179879D01*
X33321983Y-18981354D01*
X33310264Y-18967753D01*
X33132685Y-18812841D01*
X33117620Y-18803076D01*
X32903700Y-18704232D01*
X32886500Y-18699088D01*
X32653436Y-18664256D01*
X32635483Y-18664147D01*
X32402012Y-18696128D01*
X32384750Y-18701061D01*
X32169639Y-18797285D01*
X32154456Y-18806865D01*
X31974998Y-18959596D01*
X31963114Y-18973053D01*
X31833735Y-19170013D01*
X31826105Y-19186264D01*
X31757207Y-19411618D01*
X31754445Y-19429358D01*
X31751567Y-19664993D01*
X31753895Y-19682794D01*
X31817265Y-19909765D01*
X31824496Y-19926198D01*
X31949024Y-20126259D01*
X31960576Y-20140002D01*
X32136249Y-20297071D01*
X32151193Y-20307019D01*
X32274848Y-20366000D01*
X31859361Y-20366000D01*
X31811087Y-20200914D01*
X31803656Y-20184570D01*
X31676694Y-19986045D01*
X31664975Y-19972444D01*
X31487396Y-19817532D01*
X31472331Y-19807767D01*
X31258411Y-19708923D01*
X31241211Y-19703779D01*
X31008147Y-19668947D01*
X30990194Y-19668838D01*
X30756723Y-19700819D01*
X30739461Y-19705752D01*
X30524350Y-19801976D01*
X30509167Y-19811556D01*
X30355884Y-19942010D01*
X30350399Y-19933433D01*
X30338680Y-19919833D01*
X30161101Y-19764921D01*
X30146036Y-19755156D01*
X29932116Y-19656312D01*
X29914916Y-19651168D01*
X29681852Y-19616336D01*
X29663899Y-19616227D01*
X29430428Y-19648208D01*
X29413166Y-19653141D01*
X29198055Y-19749365D01*
X29182872Y-19758945D01*
X29136381Y-19798512D01*
X29054446Y-19786267D01*
X29036493Y-19786158D01*
X28803022Y-19818139D01*
X28785760Y-19823072D01*
X28570649Y-19919296D01*
X28555466Y-19928876D01*
X28376008Y-20081607D01*
X28364124Y-20095064D01*
X28234745Y-20292024D01*
X28227115Y-20308275D01*
X28158217Y-20533629D01*
X28155455Y-20551369D01*
X28152577Y-20787004D01*
X28154905Y-20804805D01*
X28218275Y-21031776D01*
X28225506Y-21048209D01*
X28350034Y-21248270D01*
X28361586Y-21262013D01*
X28456521Y-21346895D01*
X28338012Y-21363128D01*
X28320750Y-21368061D01*
X28105639Y-21464285D01*
X28090456Y-21473865D01*
X27910998Y-21626596D01*
X27899114Y-21640053D01*
X27769735Y-21837013D01*
X27762105Y-21853264D01*
X27693207Y-22078618D01*
X27690445Y-22096358D01*
X27687567Y-22331993D01*
X27689895Y-22349794D01*
X27753265Y-22576765D01*
X27760496Y-22593198D01*
X27885024Y-22793259D01*
X27896576Y-22807002D01*
X28072249Y-22964071D01*
X28087193Y-22974019D01*
X28299888Y-23075470D01*
X28317025Y-23080824D01*
X28372463Y-23089803D01*
X28277735Y-23234013D01*
X28270105Y-23250264D01*
X28201207Y-23475618D01*
X28198445Y-23493358D01*
X28195567Y-23728993D01*
X28197895Y-23746794D01*
X28261265Y-23973765D01*
X28268496Y-23990198D01*
X28393024Y-24190259D01*
X28404576Y-24204002D01*
X28580249Y-24361071D01*
X28595193Y-24371019D01*
X28807888Y-24472470D01*
X28825025Y-24477824D01*
X29057646Y-24515500D01*
X29075596Y-24515829D01*
X29309440Y-24486702D01*
X29326761Y-24481980D01*
X29543032Y-24388392D01*
X29558331Y-24378998D01*
X29739642Y-24228471D01*
X29751690Y-24215161D01*
X29883464Y-24019796D01*
X29891292Y-24003640D01*
X29963056Y-23778775D01*
X29966050Y-23760289D01*
X29969165Y-23505328D01*
X29966624Y-23486774D01*
X29900376Y-23260223D01*
X29892945Y-23243879D01*
X29765983Y-23045354D01*
X29754264Y-23031753D01*
X29576685Y-22876841D01*
X29561620Y-22867076D01*
X29347700Y-22768232D01*
X29330500Y-22763088D01*
X29285385Y-22756345D01*
X29375464Y-22622796D01*
X29383292Y-22606640D01*
X29455056Y-22381775D01*
X29458050Y-22363289D01*
X29461165Y-22108328D01*
X29458624Y-22089774D01*
X29392376Y-21863223D01*
X29384945Y-21846879D01*
X29257983Y-21648354D01*
X29246264Y-21634753D01*
X29158467Y-21558163D01*
X29266450Y-21544713D01*
X29283771Y-21539991D01*
X29500042Y-21446403D01*
X29515341Y-21437009D01*
X29569720Y-21391863D01*
X29642062Y-21403580D01*
X29660012Y-21403909D01*
X29893856Y-21374782D01*
X29911177Y-21370060D01*
X30127448Y-21276472D01*
X30142747Y-21267078D01*
X30304960Y-21132407D01*
X30315287Y-21144693D01*
X30490960Y-21301762D01*
X30505904Y-21311710D01*
X30718599Y-21413161D01*
X30735736Y-21418515D01*
X30968357Y-21456191D01*
X30986307Y-21456520D01*
X31116000Y-21440366D01*
X31116000Y-21857990D01*
X30973685Y-21733841D01*
X30958620Y-21724076D01*
X30744700Y-21625232D01*
X30727500Y-21620088D01*
X30494436Y-21585256D01*
X30476483Y-21585147D01*
X30243012Y-21617128D01*
X30225750Y-21622061D01*
X30010639Y-21718285D01*
X29995456Y-21727865D01*
X29815998Y-21880596D01*
X29804114Y-21894053D01*
X29674735Y-22091013D01*
X29667105Y-22107264D01*
X29598207Y-22332618D01*
X29595445Y-22350358D01*
X29592567Y-22585993D01*
X29594895Y-22603794D01*
X29658265Y-22830765D01*
X29665496Y-22847198D01*
X29790024Y-23047259D01*
X29801576Y-23061002D01*
X29977249Y-23218071D01*
X29992193Y-23228019D01*
X30204888Y-23329470D01*
X30222025Y-23334824D01*
X30454646Y-23372500D01*
X30472596Y-23372829D01*
X30706440Y-23343702D01*
X30723761Y-23338980D01*
X30940032Y-23245392D01*
X30955331Y-23235998D01*
X31116000Y-23102608D01*
X31116001Y-31685027D01*
X31058455Y-31488235D01*
X31051024Y-31471891D01*
X30924062Y-31273366D01*
X30912343Y-31259765D01*
X30734764Y-31104853D01*
X30719699Y-31095088D01*
X30505779Y-30996244D01*
X30488579Y-30991100D01*
X30255515Y-30956268D01*
X30237562Y-30956159D01*
X30004091Y-30988140D01*
X29986829Y-30993073D01*
X29771718Y-31089297D01*
X29756535Y-31098877D01*
X29644188Y-31194492D01*
X29474700Y-31116178D01*
X29457500Y-31111034D01*
X29224436Y-31076202D01*
X29206483Y-31076093D01*
X28973012Y-31108074D01*
X28955750Y-31113007D01*
X28740639Y-31209231D01*
X28725456Y-31218811D01*
X28545998Y-31371542D01*
X28534113Y-31384999D01*
X28506861Y-31426486D01*
X28458700Y-31404232D01*
X28441500Y-31399088D01*
X28208436Y-31364256D01*
X28190483Y-31364147D01*
X27957012Y-31396128D01*
X27939750Y-31401061D01*
X27724639Y-31497285D01*
X27709456Y-31506865D01*
X27529998Y-31659596D01*
X27518114Y-31673053D01*
X27388735Y-31870013D01*
X27381105Y-31886264D01*
X27312207Y-32111618D01*
X27309445Y-32129358D01*
X27306567Y-32364993D01*
X27308895Y-32382794D01*
X27372265Y-32609765D01*
X27379496Y-32626198D01*
X27504024Y-32826259D01*
X27515576Y-32840002D01*
X27691249Y-32997071D01*
X27706193Y-33007019D01*
X27918888Y-33108470D01*
X27936025Y-33113824D01*
X28168646Y-33151500D01*
X28186596Y-33151829D01*
X28420440Y-33122702D01*
X28437761Y-33117980D01*
X28468133Y-33104837D01*
X28520032Y-33188216D01*
X28531584Y-33201959D01*
X28707257Y-33359028D01*
X28722201Y-33368976D01*
X28772095Y-33392774D01*
X28701725Y-33499902D01*
X28694095Y-33516153D01*
X28625197Y-33741507D01*
X28622435Y-33759247D01*
X28619557Y-33994882D01*
X28621885Y-34012683D01*
X28685255Y-34239654D01*
X28692486Y-34256087D01*
X28817014Y-34456148D01*
X28828566Y-34469891D01*
X28941554Y-34570914D01*
X28939991Y-34571128D01*
X28922729Y-34576061D01*
X28707618Y-34672285D01*
X28692435Y-34681865D01*
X28512977Y-34834596D01*
X28501093Y-34848053D01*
X28371714Y-35045013D01*
X28364084Y-35061264D01*
X28361760Y-35068865D01*
X28338012Y-35072118D01*
X28320750Y-35077052D01*
X28105639Y-35173275D01*
X28090456Y-35182855D01*
X27910998Y-35335586D01*
X27899114Y-35349043D01*
X27769735Y-35546003D01*
X27762105Y-35562254D01*
X27693207Y-35787608D01*
X27690445Y-35805348D01*
X27687567Y-36040983D01*
X27689895Y-36058784D01*
X27753265Y-36285755D01*
X27760496Y-36302188D01*
X27885024Y-36502249D01*
X27896576Y-36515992D01*
X28072249Y-36673061D01*
X28087193Y-36683009D01*
X28299888Y-36784460D01*
X28317025Y-36789814D01*
X28492135Y-36818175D01*
X28537003Y-36890259D01*
X28548555Y-36904002D01*
X28724228Y-37061071D01*
X28739172Y-37071019D01*
X28951867Y-37172470D01*
X28969004Y-37177824D01*
X29201625Y-37215500D01*
X29219575Y-37215829D01*
X29453419Y-37186702D01*
X29470740Y-37181980D01*
X29687011Y-37088392D01*
X29702310Y-37078998D01*
X29883621Y-36928471D01*
X29895669Y-36915161D01*
X30027443Y-36719796D01*
X30035271Y-36703640D01*
X30107035Y-36478775D01*
X30110029Y-36460289D01*
X30113144Y-36205328D01*
X30110603Y-36186774D01*
X30044355Y-35960223D01*
X30036924Y-35943879D01*
X29970853Y-35840566D01*
X29977443Y-35830796D01*
X29985271Y-35814640D01*
X30057035Y-35589775D01*
X30060029Y-35571289D01*
X30060411Y-35539993D01*
X32259567Y-35539993D01*
X32261895Y-35557794D01*
X32325265Y-35784765D01*
X32332496Y-35801198D01*
X32457024Y-36001259D01*
X32468576Y-36015002D01*
X32644249Y-36172071D01*
X32659193Y-36182019D01*
X32871888Y-36283470D01*
X32889025Y-36288824D01*
X33121646Y-36326500D01*
X33139596Y-36326829D01*
X33373440Y-36297702D01*
X33390761Y-36292980D01*
X33607032Y-36199392D01*
X33622331Y-36189998D01*
X33803642Y-36039471D01*
X33815690Y-36026161D01*
X33947464Y-35830796D01*
X33955292Y-35814640D01*
X34027056Y-35589775D01*
X34030050Y-35571289D01*
X34033165Y-35316328D01*
X34030624Y-35297774D01*
X33964376Y-35071223D01*
X33956945Y-35054879D01*
X33829983Y-34856354D01*
X33818264Y-34842753D01*
X33640685Y-34687841D01*
X33625620Y-34678076D01*
X33411700Y-34579232D01*
X33394500Y-34574088D01*
X33161436Y-34539256D01*
X33143483Y-34539147D01*
X32910012Y-34571128D01*
X32892750Y-34576061D01*
X32677639Y-34672285D01*
X32662456Y-34681865D01*
X32482998Y-34834596D01*
X32471114Y-34848053D01*
X32341735Y-35045013D01*
X32334105Y-35061264D01*
X32265207Y-35286618D01*
X32262445Y-35304358D01*
X32259567Y-35539993D01*
X30060411Y-35539993D01*
X30063144Y-35316328D01*
X30060603Y-35297774D01*
X29994355Y-35071223D01*
X29986924Y-35054879D01*
X29859962Y-34856354D01*
X29848243Y-34842753D01*
X29742160Y-34750211D01*
X29750751Y-34747869D01*
X29967022Y-34654281D01*
X29982321Y-34644887D01*
X30163632Y-34494360D01*
X30175680Y-34481050D01*
X30307454Y-34285685D01*
X30315282Y-34269529D01*
X30372583Y-34089983D01*
X30420265Y-34260765D01*
X30427496Y-34277198D01*
X30552024Y-34477259D01*
X30563576Y-34491002D01*
X30739249Y-34648071D01*
X30754193Y-34658019D01*
X30966888Y-34759470D01*
X30984025Y-34764824D01*
X31216646Y-34802500D01*
X31234596Y-34802829D01*
X31468440Y-34773702D01*
X31485761Y-34768980D01*
X31702032Y-34675392D01*
X31717331Y-34665998D01*
X31898642Y-34515471D01*
X31910690Y-34502161D01*
X32042464Y-34306796D01*
X32050292Y-34290640D01*
X32122056Y-34065775D01*
X32125050Y-34047289D01*
X32128165Y-33792328D01*
X32127348Y-33786362D01*
X32357440Y-33757702D01*
X32374761Y-33752980D01*
X32591032Y-33659392D01*
X32606331Y-33649998D01*
X32787642Y-33499471D01*
X32799690Y-33486161D01*
X32931464Y-33290796D01*
X32939292Y-33274640D01*
X33011056Y-33049775D01*
X33014050Y-33031289D01*
X33017165Y-32776328D01*
X33014624Y-32757774D01*
X32978430Y-32634000D01*
X34866000Y-32634000D01*
X34866000Y-37649605D01*
X34858700Y-37646232D01*
X34841500Y-37641088D01*
X34608436Y-37606256D01*
X34590483Y-37606147D01*
X34357012Y-37638128D01*
X34339750Y-37643061D01*
X34124639Y-37739285D01*
X34109456Y-37748865D01*
X33929998Y-37901596D01*
X33918114Y-37915053D01*
X33788735Y-38112013D01*
X33781105Y-38128264D01*
X33712207Y-38353618D01*
X33709445Y-38371358D01*
X33706567Y-38606993D01*
X33708895Y-38624794D01*
X33772265Y-38851765D01*
X33779496Y-38868198D01*
X33904024Y-39068259D01*
X33915576Y-39082002D01*
X34091249Y-39239071D01*
X34106193Y-39249019D01*
X34318888Y-39350470D01*
X34336025Y-39355824D01*
X34568646Y-39393500D01*
X34586596Y-39393829D01*
X34820440Y-39364702D01*
X34837761Y-39359980D01*
X34866000Y-39347760D01*
X34866001Y-49366000D01*
X29649305Y-49366000D01*
X29709056Y-49178775D01*
X29712050Y-49160289D01*
X29715165Y-48905328D01*
X29712624Y-48886774D01*
X29646376Y-48660223D01*
X29638945Y-48643879D01*
X29543089Y-48493993D01*
X32132567Y-48493993D01*
X32134895Y-48511794D01*
X32198265Y-48738765D01*
X32205496Y-48755198D01*
X32330024Y-48955259D01*
X32341576Y-48969002D01*
X32517249Y-49126071D01*
X32532193Y-49136019D01*
X32744888Y-49237470D01*
X32762025Y-49242824D01*
X32994646Y-49280500D01*
X33012596Y-49280829D01*
X33246440Y-49251702D01*
X33263761Y-49246980D01*
X33480032Y-49153392D01*
X33495331Y-49143998D01*
X33676642Y-48993471D01*
X33688690Y-48980161D01*
X33820464Y-48784796D01*
X33828292Y-48768640D01*
X33900056Y-48543775D01*
X33903050Y-48525289D01*
X33906165Y-48270328D01*
X33903624Y-48251774D01*
X33837376Y-48025223D01*
X33829945Y-48008879D01*
X33702983Y-47810354D01*
X33691264Y-47796753D01*
X33513685Y-47641841D01*
X33498620Y-47632076D01*
X33284700Y-47533232D01*
X33267500Y-47528088D01*
X33034436Y-47493256D01*
X33016483Y-47493147D01*
X32783012Y-47525128D01*
X32765750Y-47530061D01*
X32550639Y-47626285D01*
X32535456Y-47635865D01*
X32355998Y-47788596D01*
X32344114Y-47802053D01*
X32214735Y-47999013D01*
X32207105Y-48015264D01*
X32138207Y-48240618D01*
X32135445Y-48258358D01*
X32132567Y-48493993D01*
X29543089Y-48493993D01*
X29511983Y-48445354D01*
X29500264Y-48431753D01*
X29322685Y-48276841D01*
X29307620Y-48267076D01*
X29093700Y-48168232D01*
X29076500Y-48163088D01*
X28843436Y-48128256D01*
X28825483Y-48128147D01*
X28592012Y-48160128D01*
X28574750Y-48165061D01*
X28359639Y-48261285D01*
X28344456Y-48270865D01*
X28164998Y-48423596D01*
X28153114Y-48437053D01*
X28023735Y-48634013D01*
X28016105Y-48650264D01*
X27947207Y-48875618D01*
X27944445Y-48893358D01*
X27941567Y-49128993D01*
X27943895Y-49146794D01*
X28005097Y-49366000D01*
X12634000Y-49366000D01*
X12634000Y-43667993D01*
X14606567Y-43667993D01*
X14608895Y-43685794D01*
X14672265Y-43912765D01*
X14679496Y-43929198D01*
X14804024Y-44129259D01*
X14815576Y-44143002D01*
X14991249Y-44300071D01*
X15006193Y-44310019D01*
X15218888Y-44411470D01*
X15236025Y-44416824D01*
X15468646Y-44454500D01*
X15486596Y-44454829D01*
X15720440Y-44425702D01*
X15737761Y-44420980D01*
X15954032Y-44327392D01*
X15969331Y-44317998D01*
X16150642Y-44167471D01*
X16162690Y-44154161D01*
X16279474Y-43981020D01*
X16403194Y-44132717D01*
X16411878Y-44141463D01*
X16566134Y-44269074D01*
X16576352Y-44275966D01*
X16752456Y-44371185D01*
X16763818Y-44375961D01*
X16955063Y-44435160D01*
X16967135Y-44437639D01*
X17166238Y-44458566D01*
X17178563Y-44458652D01*
X17377936Y-44440507D01*
X17390042Y-44438197D01*
X17495305Y-44407217D01*
X17492587Y-44629752D01*
X17494915Y-44647553D01*
X17558285Y-44874524D01*
X17565516Y-44890957D01*
X17646813Y-45021566D01*
X17609735Y-45078013D01*
X17602105Y-45094264D01*
X17533207Y-45319618D01*
X17530445Y-45337358D01*
X17527691Y-45562838D01*
X17404937Y-45524840D01*
X17392865Y-45522361D01*
X17193762Y-45501434D01*
X17181437Y-45501348D01*
X16982064Y-45519493D01*
X16969958Y-45521803D01*
X16777905Y-45578326D01*
X16766478Y-45582943D01*
X16589061Y-45675694D01*
X16578747Y-45682443D01*
X16422726Y-45807889D01*
X16413921Y-45816512D01*
X16285235Y-45969872D01*
X16278272Y-45980042D01*
X16181826Y-46155477D01*
X16176970Y-46166805D01*
X16116370Y-46357842D01*
X16113760Y-46370338D01*
X16096345Y-46536011D01*
X16096000Y-46542601D01*
X16096000Y-47440350D01*
X16096301Y-47446502D01*
X16110901Y-47595404D01*
X16113295Y-47607495D01*
X16171159Y-47799149D01*
X16175855Y-47810543D01*
X16269843Y-47987308D01*
X16276663Y-47997574D01*
X16403194Y-48152717D01*
X16411878Y-48161463D01*
X16566134Y-48289074D01*
X16576352Y-48295966D01*
X16752456Y-48391185D01*
X16763818Y-48395961D01*
X16955063Y-48455160D01*
X16967135Y-48457639D01*
X17166238Y-48478566D01*
X17178563Y-48478652D01*
X17377936Y-48460507D01*
X17390042Y-48458197D01*
X17582094Y-48401674D01*
X17593522Y-48397057D01*
X17770940Y-48304306D01*
X17781254Y-48297557D01*
X17937275Y-48172111D01*
X17946080Y-48163488D01*
X18074766Y-48010128D01*
X18081729Y-47999958D01*
X18178175Y-47824523D01*
X18183031Y-47813195D01*
X18243631Y-47622157D01*
X18246242Y-47609662D01*
X18263655Y-47443988D01*
X18264000Y-47437398D01*
X18264000Y-46542601D01*
X24736000Y-46542601D01*
X24736000Y-47440350D01*
X24736301Y-47446502D01*
X24750901Y-47595404D01*
X24753295Y-47607495D01*
X24811159Y-47799149D01*
X24815855Y-47810543D01*
X24909843Y-47987308D01*
X24916663Y-47997574D01*
X25043194Y-48152717D01*
X25051878Y-48161463D01*
X25206134Y-48289074D01*
X25216352Y-48295966D01*
X25392456Y-48391185D01*
X25403818Y-48395961D01*
X25595063Y-48455160D01*
X25607135Y-48457639D01*
X25806238Y-48478566D01*
X25818563Y-48478652D01*
X26017936Y-48460507D01*
X26030042Y-48458197D01*
X26222094Y-48401674D01*
X26233522Y-48397057D01*
X26410940Y-48304306D01*
X26421254Y-48297557D01*
X26577275Y-48172111D01*
X26586080Y-48163488D01*
X26704351Y-48022540D01*
X26802249Y-48110071D01*
X26817193Y-48120019D01*
X27029888Y-48221470D01*
X27047025Y-48226824D01*
X27279646Y-48264500D01*
X27297596Y-48264829D01*
X27531440Y-48235702D01*
X27548761Y-48230980D01*
X27765032Y-48137392D01*
X27780331Y-48127998D01*
X27961642Y-47977471D01*
X27973690Y-47964161D01*
X28105464Y-47768796D01*
X28113292Y-47752640D01*
X28185056Y-47527775D01*
X28188050Y-47509289D01*
X28191165Y-47254328D01*
X28188624Y-47235774D01*
X28122376Y-47009223D01*
X28114945Y-46992879D01*
X27987983Y-46794354D01*
X27976264Y-46780753D01*
X27798685Y-46625841D01*
X27783620Y-46616076D01*
X27569700Y-46517232D01*
X27552500Y-46512088D01*
X27319436Y-46477256D01*
X27301483Y-46477147D01*
X27068012Y-46509128D01*
X27050750Y-46514061D01*
X26904000Y-46579706D01*
X26904000Y-46539650D01*
X26903699Y-46533498D01*
X26889099Y-46384595D01*
X26886705Y-46372504D01*
X26828841Y-46180850D01*
X26824144Y-46169456D01*
X26730157Y-45992692D01*
X26723337Y-45982426D01*
X26596806Y-45827283D01*
X26588122Y-45818537D01*
X26433866Y-45690926D01*
X26423648Y-45684034D01*
X26247544Y-45588815D01*
X26236182Y-45584039D01*
X26044937Y-45524840D01*
X26032865Y-45522361D01*
X25833762Y-45501434D01*
X25821437Y-45501348D01*
X25622064Y-45519493D01*
X25609958Y-45521803D01*
X25417905Y-45578326D01*
X25406478Y-45582943D01*
X25229061Y-45675694D01*
X25218747Y-45682443D01*
X25062726Y-45807889D01*
X25053921Y-45816512D01*
X24925235Y-45969872D01*
X24918272Y-45980042D01*
X24821826Y-46155477D01*
X24816970Y-46166805D01*
X24756370Y-46357842D01*
X24753760Y-46370338D01*
X24736345Y-46536011D01*
X24736000Y-46542601D01*
X18264000Y-46542601D01*
X18264000Y-46539650D01*
X18263699Y-46533498D01*
X18249099Y-46384595D01*
X18246705Y-46372504D01*
X18235228Y-46334490D01*
X18389646Y-46359500D01*
X18407596Y-46359829D01*
X18641440Y-46330702D01*
X18658761Y-46325980D01*
X18875032Y-46232392D01*
X18890331Y-46222998D01*
X19071642Y-46072471D01*
X19083690Y-46059161D01*
X19215464Y-45863796D01*
X19223292Y-45847640D01*
X19295056Y-45622775D01*
X19298050Y-45604289D01*
X19301165Y-45349328D01*
X19298624Y-45330774D01*
X19232376Y-45104223D01*
X19224945Y-45087879D01*
X19148378Y-44968155D01*
X19180484Y-44920555D01*
X19188312Y-44904399D01*
X19260076Y-44679534D01*
X19263070Y-44661048D01*
X19266185Y-44406087D01*
X19263644Y-44387533D01*
X19197396Y-44160982D01*
X19189965Y-44144638D01*
X19141654Y-44069095D01*
X19252529Y-43984937D01*
X19262732Y-43975220D01*
X19318112Y-43909220D01*
X19376024Y-44002259D01*
X19387576Y-44016002D01*
X19563249Y-44173071D01*
X19578193Y-44183019D01*
X19790888Y-44284470D01*
X19808025Y-44289824D01*
X20040646Y-44327500D01*
X20058596Y-44327829D01*
X20292440Y-44298702D01*
X20309761Y-44293980D01*
X20415190Y-44248357D01*
X20490901Y-44284470D01*
X20508038Y-44289824D01*
X20740659Y-44327500D01*
X20758609Y-44327829D01*
X20992453Y-44298702D01*
X21009774Y-44293980D01*
X21226045Y-44200392D01*
X21241344Y-44190998D01*
X21386510Y-44070480D01*
X21568888Y-44157470D01*
X21586025Y-44162824D01*
X21818646Y-44200500D01*
X21836596Y-44200829D01*
X22070440Y-44171702D01*
X22087761Y-44166980D01*
X22304032Y-44073392D01*
X22319331Y-44063998D01*
X22436328Y-43966866D01*
X22514963Y-44093198D01*
X22526515Y-44106941D01*
X22702188Y-44264010D01*
X22717132Y-44273958D01*
X22929827Y-44375409D01*
X22946964Y-44380763D01*
X23179585Y-44418439D01*
X23197535Y-44418768D01*
X23431379Y-44389641D01*
X23448700Y-44384919D01*
X23664971Y-44291331D01*
X23680270Y-44281937D01*
X23861581Y-44131410D01*
X23873629Y-44118100D01*
X23889974Y-44093867D01*
X24056049Y-44177757D01*
X24069255Y-44182668D01*
X24258814Y-44229930D01*
X24272779Y-44231794D01*
X24468098Y-44235886D01*
X24482130Y-44234609D01*
X24673502Y-44195325D01*
X24686901Y-44190971D01*
X24864814Y-44110267D01*
X24876916Y-44103053D01*
X24964674Y-44036441D01*
X25043194Y-44132717D01*
X25051878Y-44141463D01*
X25206134Y-44269074D01*
X25216352Y-44275966D01*
X25392456Y-44371185D01*
X25403818Y-44375961D01*
X25595063Y-44435160D01*
X25607135Y-44437639D01*
X25806238Y-44458566D01*
X25818563Y-44458652D01*
X26017936Y-44440507D01*
X26030042Y-44438197D01*
X26222094Y-44381674D01*
X26233522Y-44377057D01*
X26410940Y-44284306D01*
X26421254Y-44277557D01*
X26577275Y-44152111D01*
X26586080Y-44143488D01*
X26714766Y-43990128D01*
X26721729Y-43979958D01*
X26818175Y-43804523D01*
X26823031Y-43793195D01*
X26883631Y-43602157D01*
X26886242Y-43589662D01*
X26903655Y-43423988D01*
X26904000Y-43417398D01*
X26904000Y-43007496D01*
X26929249Y-43030071D01*
X26944193Y-43040019D01*
X27156888Y-43141470D01*
X27174025Y-43146824D01*
X27406646Y-43184500D01*
X27424596Y-43184829D01*
X27658440Y-43155702D01*
X27675761Y-43150980D01*
X27892032Y-43057392D01*
X27907331Y-43047998D01*
X28088642Y-42897471D01*
X28100690Y-42884161D01*
X28232464Y-42688796D01*
X28240292Y-42672640D01*
X28312056Y-42447775D01*
X28315050Y-42429289D01*
X28318165Y-42174328D01*
X28315624Y-42155774D01*
X28249376Y-41929223D01*
X28241945Y-41912879D01*
X28114983Y-41714354D01*
X28103264Y-41700753D01*
X27925685Y-41545841D01*
X27910620Y-41536076D01*
X27696700Y-41437232D01*
X27679500Y-41432088D01*
X27446436Y-41397256D01*
X27428483Y-41397147D01*
X27219578Y-41425763D01*
X27258195Y-41304762D01*
X27261189Y-41286276D01*
X27264304Y-41031315D01*
X27261763Y-41012761D01*
X27195515Y-40786210D01*
X27188084Y-40769866D01*
X27061122Y-40571341D01*
X27049403Y-40557740D01*
X26975183Y-40492993D01*
X27560567Y-40492993D01*
X27562895Y-40510794D01*
X27626265Y-40737765D01*
X27633496Y-40754198D01*
X27758024Y-40954259D01*
X27769576Y-40968002D01*
X27945249Y-41125071D01*
X27960193Y-41135019D01*
X28172888Y-41236470D01*
X28190025Y-41241824D01*
X28422646Y-41279500D01*
X28440596Y-41279829D01*
X28674440Y-41250702D01*
X28691761Y-41245980D01*
X28908032Y-41152392D01*
X28923331Y-41142998D01*
X28959300Y-41113136D01*
X28957567Y-41254993D01*
X28959895Y-41272794D01*
X29002419Y-41425100D01*
X28973012Y-41429128D01*
X28955750Y-41434061D01*
X28740639Y-41530285D01*
X28725456Y-41539865D01*
X28545998Y-41692596D01*
X28534114Y-41706053D01*
X28404735Y-41903013D01*
X28397105Y-41919264D01*
X28328207Y-42144618D01*
X28325445Y-42162358D01*
X28322567Y-42397993D01*
X28324895Y-42415794D01*
X28388265Y-42642765D01*
X28395496Y-42659198D01*
X28520024Y-42859259D01*
X28531576Y-42873002D01*
X28707249Y-43030071D01*
X28722193Y-43040019D01*
X28933797Y-43140949D01*
X28912735Y-43173013D01*
X28905105Y-43189264D01*
X28836207Y-43414618D01*
X28833445Y-43432358D01*
X28830567Y-43667993D01*
X28832895Y-43685794D01*
X28896265Y-43912765D01*
X28903496Y-43929198D01*
X29028024Y-44129259D01*
X29036529Y-44139377D01*
X28926998Y-44232596D01*
X28915114Y-44246053D01*
X28785735Y-44443013D01*
X28778105Y-44459264D01*
X28709207Y-44684618D01*
X28706445Y-44702358D01*
X28703567Y-44937993D01*
X28705895Y-44955794D01*
X28769265Y-45182765D01*
X28776496Y-45199197D01*
X28804735Y-45244565D01*
X28799998Y-45248596D01*
X28788114Y-45262053D01*
X28658735Y-45459013D01*
X28651105Y-45475264D01*
X28582207Y-45700618D01*
X28579445Y-45718358D01*
X28576567Y-45953993D01*
X28578895Y-45971794D01*
X28642265Y-46198765D01*
X28649496Y-46215198D01*
X28774024Y-46415259D01*
X28785576Y-46429002D01*
X28961249Y-46586071D01*
X28976193Y-46596019D01*
X29188888Y-46697470D01*
X29206025Y-46702824D01*
X29438646Y-46740500D01*
X29456596Y-46740829D01*
X29690440Y-46711702D01*
X29707761Y-46706980D01*
X29924032Y-46613392D01*
X29939331Y-46603998D01*
X30120642Y-46453471D01*
X30132690Y-46440161D01*
X30264464Y-46244796D01*
X30272292Y-46228640D01*
X30344056Y-46003775D01*
X30347050Y-45985289D01*
X30350165Y-45730328D01*
X30347624Y-45711774D01*
X30281376Y-45485223D01*
X30273945Y-45468879D01*
X30251285Y-45433447D01*
X30259690Y-45424161D01*
X30391464Y-45228796D01*
X30399292Y-45212640D01*
X30471056Y-44987775D01*
X30474050Y-44969289D01*
X30477165Y-44714328D01*
X30474624Y-44695774D01*
X30408376Y-44469223D01*
X30400945Y-44452879D01*
X30273983Y-44254353D01*
X30272318Y-44252421D01*
X30374642Y-44167471D01*
X30386690Y-44154161D01*
X30518464Y-43958796D01*
X30526292Y-43942640D01*
X30596970Y-43721179D01*
X30712888Y-43776470D01*
X30730025Y-43781824D01*
X30962646Y-43819500D01*
X30980596Y-43819829D01*
X31214440Y-43790702D01*
X31231761Y-43785980D01*
X31447229Y-43692739D01*
X31445105Y-43697264D01*
X31376207Y-43922618D01*
X31373445Y-43940358D01*
X31370567Y-44175993D01*
X31372895Y-44193794D01*
X31436265Y-44420765D01*
X31443496Y-44437198D01*
X31568024Y-44637259D01*
X31579576Y-44651002D01*
X31755249Y-44808071D01*
X31770193Y-44818019D01*
X31982888Y-44919470D01*
X32000025Y-44924824D01*
X32232646Y-44962500D01*
X32250596Y-44962829D01*
X32484440Y-44933702D01*
X32501761Y-44928980D01*
X32718032Y-44835392D01*
X32733331Y-44825998D01*
X32914642Y-44675471D01*
X32926690Y-44662161D01*
X33058464Y-44466796D01*
X33066292Y-44450640D01*
X33138056Y-44225775D01*
X33141050Y-44207289D01*
X33144165Y-43952328D01*
X33141624Y-43933774D01*
X33075376Y-43707223D01*
X33067945Y-43690879D01*
X32940983Y-43492354D01*
X32929264Y-43478753D01*
X32751685Y-43323841D01*
X32736620Y-43314076D01*
X32522700Y-43215232D01*
X32505500Y-43210088D01*
X32272436Y-43175256D01*
X32254483Y-43175147D01*
X32021012Y-43207128D01*
X32003750Y-43212061D01*
X31797326Y-43304399D01*
X31868056Y-43082775D01*
X31871050Y-43064289D01*
X31874165Y-42809328D01*
X31871624Y-42790774D01*
X31867069Y-42775196D01*
X31900080Y-42790942D01*
X31917217Y-42796296D01*
X32149838Y-42833972D01*
X32167788Y-42834301D01*
X32401632Y-42805174D01*
X32418953Y-42800452D01*
X32635224Y-42706864D01*
X32650523Y-42697470D01*
X32831834Y-42546943D01*
X32843882Y-42533633D01*
X32975656Y-42338268D01*
X32983484Y-42322112D01*
X33055248Y-42097247D01*
X33058242Y-42078761D01*
X33061357Y-41823800D01*
X33058816Y-41805246D01*
X32992568Y-41578695D01*
X32985137Y-41562351D01*
X32858175Y-41363826D01*
X32846456Y-41350225D01*
X32668877Y-41195313D01*
X32653812Y-41185548D01*
X32439892Y-41086704D01*
X32422692Y-41081560D01*
X32189628Y-41046728D01*
X32171675Y-41046619D01*
X31938204Y-41078600D01*
X31920942Y-41083533D01*
X31705831Y-41179757D01*
X31690648Y-41189337D01*
X31511190Y-41342068D01*
X31499306Y-41355525D01*
X31369927Y-41552485D01*
X31362297Y-41568736D01*
X31293399Y-41794090D01*
X31290637Y-41811830D01*
X31287759Y-42047465D01*
X31290087Y-42065266D01*
X31297858Y-42093098D01*
X31252700Y-42072232D01*
X31235500Y-42067088D01*
X31002436Y-42032256D01*
X30984483Y-42032147D01*
X30751012Y-42064128D01*
X30733750Y-42069061D01*
X30518639Y-42165285D01*
X30503456Y-42174865D01*
X30323998Y-42327596D01*
X30312114Y-42341053D01*
X30182735Y-42538013D01*
X30175105Y-42554264D01*
X30110311Y-42766196D01*
X29994387Y-42712632D01*
X30010464Y-42688796D01*
X30018292Y-42672640D01*
X30090056Y-42447775D01*
X30093050Y-42429289D01*
X30096165Y-42174328D01*
X30093624Y-42155774D01*
X30052478Y-42015064D01*
X30071440Y-42012702D01*
X30088761Y-42007980D01*
X30305032Y-41914392D01*
X30320331Y-41904998D01*
X30501642Y-41754471D01*
X30513690Y-41741161D01*
X30645464Y-41545796D01*
X30653292Y-41529640D01*
X30725056Y-41304775D01*
X30728050Y-41286289D01*
X30731165Y-41031328D01*
X30728624Y-41012774D01*
X30662376Y-40786223D01*
X30654945Y-40769879D01*
X30527983Y-40571354D01*
X30516264Y-40557753D01*
X30338685Y-40402841D01*
X30323620Y-40393076D01*
X30109700Y-40294232D01*
X30092500Y-40289088D01*
X29859436Y-40254256D01*
X29841483Y-40254147D01*
X29608012Y-40286128D01*
X29590750Y-40291061D01*
X29375639Y-40387285D01*
X29360456Y-40396865D01*
X29332314Y-40420816D01*
X29334165Y-40269328D01*
X29331624Y-40250774D01*
X29265376Y-40024223D01*
X29257945Y-40007879D01*
X29130983Y-39809354D01*
X29119264Y-39795753D01*
X28941685Y-39640841D01*
X28926620Y-39631076D01*
X28712700Y-39532232D01*
X28695500Y-39527088D01*
X28462436Y-39492256D01*
X28444483Y-39492147D01*
X28211012Y-39524128D01*
X28193750Y-39529061D01*
X27978639Y-39625285D01*
X27963456Y-39634865D01*
X27783998Y-39787596D01*
X27772114Y-39801053D01*
X27642735Y-39998013D01*
X27635105Y-40014264D01*
X27566207Y-40239618D01*
X27563445Y-40257358D01*
X27560567Y-40492993D01*
X26975183Y-40492993D01*
X26871824Y-40402828D01*
X26856759Y-40393063D01*
X26642839Y-40294219D01*
X26625639Y-40289075D01*
X26392575Y-40254243D01*
X26374622Y-40254134D01*
X26141151Y-40286115D01*
X26123889Y-40291048D01*
X25908778Y-40387272D01*
X25893595Y-40396852D01*
X25714137Y-40549583D01*
X25702253Y-40563040D01*
X25572874Y-40760000D01*
X25565244Y-40776251D01*
X25496346Y-41001605D01*
X25493584Y-41019345D01*
X25490928Y-41236835D01*
X25417906Y-41258326D01*
X25406478Y-41262943D01*
X25229061Y-41355694D01*
X25218747Y-41362443D01*
X25062726Y-41487889D01*
X25053921Y-41496512D01*
X24925235Y-41649872D01*
X24918272Y-41660042D01*
X24821826Y-41835477D01*
X24816970Y-41846805D01*
X24756370Y-42037843D01*
X24753759Y-42050338D01*
X24736346Y-42216012D01*
X24736001Y-42222602D01*
X24736001Y-42429536D01*
X24711663Y-42417666D01*
X24698391Y-42412940D01*
X24508190Y-42368328D01*
X24494200Y-42366660D01*
X24298843Y-42365296D01*
X24284831Y-42366769D01*
X24094025Y-42408720D01*
X24080688Y-42413260D01*
X23903919Y-42496442D01*
X23891919Y-42503825D01*
X23737971Y-42624102D01*
X23727904Y-42633959D01*
X23635174Y-42747658D01*
X23469639Y-42671171D01*
X23452439Y-42666027D01*
X23219375Y-42631195D01*
X23201422Y-42631086D01*
X22967951Y-42663067D01*
X22950689Y-42668000D01*
X22735578Y-42764224D01*
X22720395Y-42773804D01*
X22613145Y-42865081D01*
X22526983Y-42730354D01*
X22515264Y-42716753D01*
X22337685Y-42561841D01*
X22322620Y-42552076D01*
X22108700Y-42453232D01*
X22091500Y-42448088D01*
X21858436Y-42413256D01*
X21840483Y-42413147D01*
X21607012Y-42445128D01*
X21589750Y-42450061D01*
X21374639Y-42546285D01*
X21359456Y-42555865D01*
X21225222Y-42670107D01*
X21030713Y-42580232D01*
X21013513Y-42575088D01*
X20780449Y-42540256D01*
X20762496Y-42540147D01*
X20529025Y-42572128D01*
X20511764Y-42577061D01*
X20416278Y-42619774D01*
X20330700Y-42580232D01*
X20313500Y-42575088D01*
X20080436Y-42540256D01*
X20062483Y-42540147D01*
X19829012Y-42572128D01*
X19811750Y-42577061D01*
X19596639Y-42673285D01*
X19581456Y-42682865D01*
X19417068Y-42822770D01*
X19410145Y-42808320D01*
X19402679Y-42796372D01*
X19281330Y-42643268D01*
X19271402Y-42633270D01*
X19119149Y-42510856D01*
X19107253Y-42503307D01*
X18931663Y-42417666D01*
X18918391Y-42412940D01*
X18728190Y-42368328D01*
X18714200Y-42366660D01*
X18518843Y-42365296D01*
X18504831Y-42366769D01*
X18314025Y-42408720D01*
X18300688Y-42413260D01*
X18264000Y-42430524D01*
X18264000Y-42219649D01*
X18263699Y-42213497D01*
X18249099Y-42064595D01*
X18246705Y-42052504D01*
X18188841Y-41860850D01*
X18184144Y-41849456D01*
X18090157Y-41672692D01*
X18083337Y-41662426D01*
X17956806Y-41507283D01*
X17948122Y-41498537D01*
X17793866Y-41370926D01*
X17783648Y-41364034D01*
X17607544Y-41268815D01*
X17596182Y-41264039D01*
X17404937Y-41204840D01*
X17392865Y-41202361D01*
X17193762Y-41181434D01*
X17181437Y-41181348D01*
X16982064Y-41199493D01*
X16969958Y-41201803D01*
X16777905Y-41258326D01*
X16766478Y-41262943D01*
X16589061Y-41355694D01*
X16578747Y-41362443D01*
X16422726Y-41487889D01*
X16413921Y-41496512D01*
X16285235Y-41649872D01*
X16278272Y-41660042D01*
X16181826Y-41835477D01*
X16176970Y-41846805D01*
X16116370Y-42037843D01*
X16113759Y-42050338D01*
X16096346Y-42216012D01*
X16096001Y-42222601D01*
X16096000Y-42910331D01*
X15987685Y-42815841D01*
X15972620Y-42806076D01*
X15758700Y-42707232D01*
X15741500Y-42702088D01*
X15508436Y-42667256D01*
X15490483Y-42667147D01*
X15257012Y-42699128D01*
X15239750Y-42704061D01*
X15024639Y-42800285D01*
X15009456Y-42809865D01*
X14829998Y-42962596D01*
X14818114Y-42976053D01*
X14688735Y-43173013D01*
X14681105Y-43189264D01*
X14612207Y-43414618D01*
X14609445Y-43432358D01*
X14606567Y-43667993D01*
X12634000Y-43667993D01*
X12634000Y-39476993D01*
X14987567Y-39476993D01*
X14989895Y-39494794D01*
X15053265Y-39721765D01*
X15060496Y-39738198D01*
X15185024Y-39938259D01*
X15196576Y-39952002D01*
X15372249Y-40109071D01*
X15387193Y-40119019D01*
X15599888Y-40220470D01*
X15617025Y-40225824D01*
X15849646Y-40263500D01*
X15867596Y-40263829D01*
X16101440Y-40234702D01*
X16118761Y-40229980D01*
X16335032Y-40136392D01*
X16350331Y-40126998D01*
X16531642Y-39976471D01*
X16543690Y-39963161D01*
X16675464Y-39767796D01*
X16683292Y-39751640D01*
X16755056Y-39526775D01*
X16758050Y-39508289D01*
X16761165Y-39253328D01*
X16758624Y-39234774D01*
X16692376Y-39008223D01*
X16684945Y-38991879D01*
X16557983Y-38793354D01*
X16546264Y-38779753D01*
X16368685Y-38624841D01*
X16353620Y-38615076D01*
X16139700Y-38516232D01*
X16122500Y-38511088D01*
X15889436Y-38476256D01*
X15871483Y-38476147D01*
X15638012Y-38508128D01*
X15620750Y-38513061D01*
X15405639Y-38609285D01*
X15390456Y-38618865D01*
X15210998Y-38771596D01*
X15199114Y-38785053D01*
X15069735Y-38982013D01*
X15062105Y-38998264D01*
X14993207Y-39223618D01*
X14990445Y-39241358D01*
X14987567Y-39476993D01*
X12634000Y-39476993D01*
X12634000Y-35412993D01*
X14479567Y-35412993D01*
X14481895Y-35430794D01*
X14545265Y-35657765D01*
X14552496Y-35674198D01*
X14677024Y-35874259D01*
X14688576Y-35888002D01*
X14864249Y-36045071D01*
X14879193Y-36055019D01*
X15091888Y-36156470D01*
X15109025Y-36161824D01*
X15341646Y-36199500D01*
X15359596Y-36199829D01*
X15593440Y-36170702D01*
X15610761Y-36165980D01*
X15827032Y-36072392D01*
X15842331Y-36062998D01*
X16023642Y-35912471D01*
X16035690Y-35899161D01*
X16167464Y-35703796D01*
X16175292Y-35687640D01*
X16219772Y-35548265D01*
X16310024Y-35693259D01*
X16321576Y-35707002D01*
X16497249Y-35864071D01*
X16512193Y-35874019D01*
X16666889Y-35947806D01*
X16660456Y-35951865D01*
X16480998Y-36104596D01*
X16469114Y-36118053D01*
X16339735Y-36315013D01*
X16332105Y-36331264D01*
X16263207Y-36556618D01*
X16260445Y-36574358D01*
X16257567Y-36809993D01*
X16259895Y-36827794D01*
X16323265Y-37054765D01*
X16330496Y-37071198D01*
X16455024Y-37271259D01*
X16466576Y-37285002D01*
X16642249Y-37442071D01*
X16657193Y-37452019D01*
X16869888Y-37553470D01*
X16887025Y-37558824D01*
X17119646Y-37596500D01*
X17137596Y-37596829D01*
X17274584Y-37579766D01*
X17275895Y-37589794D01*
X17339265Y-37816765D01*
X17346496Y-37833198D01*
X17471024Y-38033259D01*
X17482576Y-38047002D01*
X17658249Y-38204071D01*
X17673193Y-38214019D01*
X17885888Y-38315470D01*
X17903025Y-38320824D01*
X18135646Y-38358500D01*
X18153596Y-38358829D01*
X18387440Y-38329702D01*
X18404761Y-38324980D01*
X18621032Y-38231392D01*
X18636331Y-38221998D01*
X18732242Y-38142372D01*
X18801249Y-38204071D01*
X18816193Y-38214019D01*
X18845758Y-38228121D01*
X18766090Y-38239034D01*
X18748828Y-38243967D01*
X18533717Y-38340191D01*
X18518534Y-38349771D01*
X18339076Y-38502502D01*
X18327192Y-38515959D01*
X18197813Y-38712919D01*
X18190183Y-38729170D01*
X18121285Y-38954524D01*
X18118523Y-38972264D01*
X18115645Y-39207899D01*
X18117973Y-39225700D01*
X18181343Y-39452671D01*
X18188574Y-39469104D01*
X18313102Y-39669165D01*
X18324654Y-39682908D01*
X18500327Y-39839977D01*
X18515271Y-39849925D01*
X18727966Y-39951376D01*
X18745103Y-39956730D01*
X18977724Y-39994406D01*
X18995674Y-39994735D01*
X19229518Y-39965608D01*
X19246839Y-39960886D01*
X19367820Y-39908533D01*
X19396092Y-40009795D01*
X19403323Y-40026228D01*
X19527851Y-40226289D01*
X19539403Y-40240032D01*
X19715076Y-40397101D01*
X19730020Y-40407049D01*
X19942715Y-40508500D01*
X19959852Y-40513854D01*
X20192473Y-40551530D01*
X20210423Y-40551859D01*
X20444267Y-40522732D01*
X20461588Y-40518010D01*
X20519399Y-40492993D01*
X21718567Y-40492993D01*
X21720895Y-40510794D01*
X21784265Y-40737765D01*
X21791496Y-40754198D01*
X21916024Y-40954259D01*
X21927576Y-40968002D01*
X22103249Y-41125071D01*
X22118193Y-41135019D01*
X22330888Y-41236470D01*
X22348025Y-41241824D01*
X22580646Y-41279500D01*
X22598596Y-41279829D01*
X22832440Y-41250702D01*
X22849761Y-41245980D01*
X23066032Y-41152392D01*
X23081331Y-41142998D01*
X23262642Y-40992471D01*
X23274690Y-40979161D01*
X23406464Y-40783796D01*
X23414292Y-40767640D01*
X23486056Y-40542775D01*
X23489050Y-40524289D01*
X23492165Y-40269328D01*
X23489624Y-40250774D01*
X23423376Y-40024223D01*
X23415945Y-40007879D01*
X23288983Y-39809354D01*
X23277264Y-39795753D01*
X23099685Y-39640841D01*
X23084620Y-39631076D01*
X22870700Y-39532232D01*
X22853500Y-39527088D01*
X22620436Y-39492256D01*
X22602483Y-39492147D01*
X22369012Y-39524128D01*
X22351750Y-39529061D01*
X22136639Y-39625285D01*
X22121456Y-39634865D01*
X21941998Y-39787596D01*
X21930114Y-39801053D01*
X21800735Y-39998013D01*
X21793105Y-40014264D01*
X21724207Y-40239618D01*
X21721445Y-40257358D01*
X21718567Y-40492993D01*
X20519399Y-40492993D01*
X20677859Y-40424422D01*
X20693158Y-40415028D01*
X20874469Y-40264501D01*
X20886517Y-40251191D01*
X21018291Y-40055826D01*
X21026119Y-40039670D01*
X21097883Y-39814805D01*
X21100877Y-39796319D01*
X21103992Y-39541358D01*
X21101451Y-39522804D01*
X21035203Y-39296253D01*
X21027772Y-39279909D01*
X20900810Y-39081384D01*
X20889091Y-39067783D01*
X20711512Y-38912871D01*
X20696447Y-38903106D01*
X20482527Y-38804262D01*
X20465327Y-38799118D01*
X20232263Y-38764286D01*
X20214310Y-38764177D01*
X19980839Y-38796158D01*
X19963577Y-38801091D01*
X19853033Y-38850540D01*
X19820454Y-38739129D01*
X19813023Y-38722785D01*
X19686061Y-38524260D01*
X19674342Y-38510659D01*
X19496763Y-38355747D01*
X19481698Y-38345982D01*
X19464295Y-38337941D01*
X19530440Y-38329702D01*
X19547761Y-38324980D01*
X19764032Y-38231392D01*
X19779331Y-38221998D01*
X19960642Y-38071471D01*
X19972690Y-38058161D01*
X20067168Y-37918091D01*
X20145075Y-38043253D01*
X20156627Y-38056996D01*
X20332300Y-38214065D01*
X20347244Y-38224013D01*
X20559939Y-38325464D01*
X20577076Y-38330818D01*
X20809697Y-38368494D01*
X20827647Y-38368823D01*
X21061491Y-38339696D01*
X21078812Y-38334974D01*
X21295083Y-38241386D01*
X21310382Y-38231992D01*
X21491693Y-38081465D01*
X21503741Y-38068155D01*
X21635515Y-37872790D01*
X21643343Y-37856634D01*
X21715107Y-37631769D01*
X21718101Y-37613283D01*
X21721216Y-37358322D01*
X21718675Y-37339768D01*
X21652427Y-37113217D01*
X21644996Y-37096873D01*
X21518034Y-36898348D01*
X21506315Y-36884747D01*
X21328736Y-36729835D01*
X21313671Y-36720070D01*
X21099751Y-36621226D01*
X21082551Y-36616082D01*
X20849487Y-36581250D01*
X20831534Y-36581141D01*
X20794080Y-36586272D01*
X20874636Y-36551412D01*
X20889935Y-36542018D01*
X21071246Y-36391491D01*
X21083294Y-36378181D01*
X21215068Y-36182816D01*
X21222896Y-36166660D01*
X21294660Y-35941795D01*
X21297654Y-35923309D01*
X21300769Y-35668348D01*
X21298228Y-35649794D01*
X21231980Y-35423243D01*
X21224549Y-35406899D01*
X21097587Y-35208374D01*
X21085868Y-35194773D01*
X20908289Y-35039861D01*
X20893224Y-35030096D01*
X20679304Y-34931252D01*
X20662104Y-34926108D01*
X20429040Y-34891276D01*
X20411087Y-34891167D01*
X20177616Y-34923148D01*
X20160354Y-34928081D01*
X19945243Y-35024305D01*
X19930060Y-35033885D01*
X19754011Y-35183715D01*
X19771380Y-35129290D01*
X19774374Y-35110804D01*
X19777489Y-34855843D01*
X19774948Y-34837289D01*
X19708700Y-34610738D01*
X19701269Y-34594394D01*
X19574307Y-34395869D01*
X19562588Y-34382268D01*
X19385009Y-34227356D01*
X19369944Y-34217591D01*
X19156024Y-34118747D01*
X19138824Y-34113603D01*
X18905760Y-34078771D01*
X18887807Y-34078662D01*
X18654336Y-34110643D01*
X18637074Y-34115576D01*
X18421963Y-34211800D01*
X18406780Y-34221380D01*
X18227322Y-34374111D01*
X18215438Y-34387568D01*
X18086059Y-34584528D01*
X18078429Y-34600779D01*
X18009531Y-34826133D01*
X18006769Y-34843873D01*
X18003891Y-35079508D01*
X18006219Y-35097309D01*
X18069589Y-35324280D01*
X18076820Y-35340713D01*
X18201348Y-35540774D01*
X18212900Y-35554517D01*
X18335186Y-35663853D01*
X18295207Y-35794618D01*
X18292445Y-35812358D01*
X18289567Y-36047993D01*
X18291895Y-36065794D01*
X18355265Y-36292765D01*
X18362496Y-36309198D01*
X18487024Y-36509259D01*
X18498576Y-36523002D01*
X18674249Y-36680071D01*
X18689193Y-36690019D01*
X18790627Y-36738401D01*
X18732585Y-36787798D01*
X18654685Y-36719841D01*
X18639620Y-36710076D01*
X18425700Y-36611232D01*
X18408500Y-36606088D01*
X18175436Y-36571256D01*
X18157483Y-36571147D01*
X18031139Y-36588454D01*
X18031165Y-36586328D01*
X18028624Y-36567774D01*
X17962376Y-36341223D01*
X17954945Y-36324879D01*
X17827983Y-36126354D01*
X17816264Y-36112753D01*
X17638685Y-35957841D01*
X17623620Y-35948076D01*
X17477220Y-35880430D01*
X17656642Y-35731471D01*
X17668690Y-35718161D01*
X17800464Y-35522796D01*
X17808292Y-35506640D01*
X17880056Y-35281775D01*
X17883050Y-35263289D01*
X17886165Y-35008328D01*
X17883624Y-34989774D01*
X17817376Y-34763223D01*
X17809945Y-34746879D01*
X17682983Y-34548354D01*
X17671264Y-34534753D01*
X17580861Y-34455890D01*
X17741450Y-34435887D01*
X17758771Y-34431165D01*
X17975042Y-34337577D01*
X17990341Y-34328183D01*
X18171652Y-34177656D01*
X18183700Y-34164346D01*
X18315474Y-33968981D01*
X18323302Y-33952825D01*
X18395066Y-33727960D01*
X18398060Y-33709474D01*
X18401175Y-33454513D01*
X18398634Y-33435959D01*
X18332386Y-33209408D01*
X18324955Y-33193064D01*
X18197993Y-32994539D01*
X18186274Y-32980938D01*
X18008695Y-32826026D01*
X17993630Y-32816261D01*
X17779710Y-32717417D01*
X17762510Y-32712273D01*
X17529446Y-32677441D01*
X17511493Y-32677332D01*
X17278022Y-32709313D01*
X17260760Y-32714246D01*
X17045649Y-32810470D01*
X17030466Y-32820050D01*
X16851008Y-32972781D01*
X16839124Y-32986238D01*
X16709745Y-33183198D01*
X16702115Y-33199449D01*
X16633217Y-33424803D01*
X16630455Y-33442543D01*
X16627577Y-33678178D01*
X16629905Y-33695979D01*
X16693275Y-33922950D01*
X16700506Y-33939383D01*
X16825034Y-34139444D01*
X16836586Y-34153187D01*
X16933439Y-34239783D01*
X16763012Y-34263128D01*
X16745750Y-34268061D01*
X16530639Y-34364285D01*
X16515456Y-34373865D01*
X16335998Y-34526596D01*
X16324114Y-34540053D01*
X16194735Y-34737013D01*
X16187105Y-34753264D01*
X16147700Y-34882150D01*
X16049983Y-34729354D01*
X16038264Y-34715753D01*
X15860685Y-34560841D01*
X15845620Y-34551076D01*
X15631700Y-34452232D01*
X15614500Y-34447088D01*
X15381436Y-34412256D01*
X15363483Y-34412147D01*
X15130012Y-34444128D01*
X15112750Y-34449061D01*
X14897639Y-34545285D01*
X14882456Y-34554865D01*
X14702998Y-34707596D01*
X14691114Y-34721053D01*
X14561735Y-34918013D01*
X14554105Y-34934264D01*
X14485207Y-35159618D01*
X14482445Y-35177358D01*
X14479567Y-35412993D01*
X12634000Y-35412993D01*
X12634000Y-31983993D01*
X14479567Y-31983993D01*
X14481895Y-32001794D01*
X14545265Y-32228765D01*
X14552496Y-32245198D01*
X14677024Y-32445259D01*
X14688576Y-32459002D01*
X14864249Y-32616071D01*
X14879193Y-32626019D01*
X15091888Y-32727470D01*
X15109025Y-32732824D01*
X15341646Y-32770500D01*
X15359596Y-32770829D01*
X15593440Y-32741702D01*
X15610761Y-32736980D01*
X15827032Y-32643392D01*
X15842331Y-32633998D01*
X16023642Y-32483471D01*
X16035690Y-32470161D01*
X16167464Y-32274796D01*
X16175292Y-32258640D01*
X16247056Y-32033775D01*
X16250050Y-32015289D01*
X16250432Y-31983993D01*
X19217597Y-31983993D01*
X19219925Y-32001794D01*
X19283295Y-32228765D01*
X19290526Y-32245198D01*
X19415054Y-32445259D01*
X19426606Y-32459002D01*
X19602279Y-32616071D01*
X19617223Y-32626019D01*
X19829919Y-32727470D01*
X19847055Y-32732824D01*
X19942262Y-32748244D01*
X19940567Y-32886993D01*
X19942895Y-32904794D01*
X20006265Y-33131765D01*
X20013496Y-33148198D01*
X20138024Y-33348259D01*
X20149576Y-33362002D01*
X20325249Y-33519071D01*
X20340193Y-33529019D01*
X20552888Y-33630470D01*
X20570025Y-33635824D01*
X20802646Y-33673500D01*
X20820596Y-33673829D01*
X21054440Y-33644702D01*
X21071761Y-33639980D01*
X21288032Y-33546392D01*
X21303331Y-33536998D01*
X21484642Y-33386471D01*
X21496690Y-33373161D01*
X21610532Y-33204382D01*
X21657265Y-33371765D01*
X21664496Y-33388198D01*
X21789024Y-33588259D01*
X21800576Y-33602002D01*
X21976249Y-33759071D01*
X21991193Y-33769019D01*
X22203888Y-33870470D01*
X22221025Y-33875824D01*
X22453646Y-33913500D01*
X22471596Y-33913829D01*
X22471637Y-33913824D01*
X22277198Y-34000801D01*
X22262015Y-34010381D01*
X22082557Y-34163112D01*
X22070673Y-34176569D01*
X21941294Y-34373529D01*
X21933664Y-34389780D01*
X21864766Y-34615134D01*
X21862004Y-34632874D01*
X21859126Y-34868509D01*
X21861454Y-34886310D01*
X21924824Y-35113281D01*
X21932055Y-35129714D01*
X22056583Y-35329775D01*
X22068135Y-35343518D01*
X22243808Y-35500587D01*
X22258752Y-35510535D01*
X22356623Y-35557217D01*
X22356445Y-35558358D01*
X22353567Y-35793993D01*
X22355895Y-35811794D01*
X22419265Y-36038765D01*
X22426496Y-36055198D01*
X22459720Y-36108574D01*
X22263639Y-36196285D01*
X22248456Y-36205865D01*
X22068998Y-36358596D01*
X22057114Y-36372053D01*
X21927735Y-36569013D01*
X21920105Y-36585264D01*
X21851207Y-36810618D01*
X21848445Y-36828358D01*
X21845567Y-37063993D01*
X21847895Y-37081794D01*
X21911265Y-37308765D01*
X21918496Y-37325198D01*
X22043024Y-37525259D01*
X22054576Y-37539002D01*
X22230249Y-37696071D01*
X22245193Y-37706019D01*
X22309812Y-37736841D01*
X22242012Y-37746128D01*
X22224750Y-37751061D01*
X22009639Y-37847285D01*
X21994456Y-37856865D01*
X21814998Y-38009596D01*
X21803114Y-38023053D01*
X21673735Y-38220013D01*
X21666105Y-38236264D01*
X21597207Y-38461618D01*
X21594445Y-38479358D01*
X21591567Y-38714993D01*
X21593895Y-38732794D01*
X21657265Y-38959765D01*
X21664496Y-38976198D01*
X21789024Y-39176259D01*
X21800576Y-39190002D01*
X21976249Y-39347071D01*
X21991193Y-39357019D01*
X22203888Y-39458470D01*
X22221025Y-39463824D01*
X22453646Y-39501500D01*
X22471596Y-39501829D01*
X22705440Y-39472702D01*
X22722761Y-39467980D01*
X22939032Y-39374392D01*
X22954331Y-39364998D01*
X23135642Y-39214471D01*
X23147690Y-39201161D01*
X23279464Y-39005796D01*
X23287292Y-38989640D01*
X23359056Y-38764775D01*
X23362050Y-38746289D01*
X23362432Y-38714993D01*
X26163567Y-38714993D01*
X26165895Y-38732794D01*
X26229265Y-38959765D01*
X26236496Y-38976198D01*
X26361024Y-39176259D01*
X26372576Y-39190002D01*
X26548249Y-39347071D01*
X26563193Y-39357019D01*
X26775888Y-39458470D01*
X26793025Y-39463824D01*
X27025646Y-39501500D01*
X27043596Y-39501829D01*
X27277440Y-39472702D01*
X27294761Y-39467980D01*
X27511032Y-39374392D01*
X27526331Y-39364998D01*
X27707642Y-39214471D01*
X27719690Y-39201161D01*
X27851464Y-39005796D01*
X27859292Y-38989640D01*
X27931056Y-38764775D01*
X27934050Y-38746289D01*
X27937165Y-38491328D01*
X27934624Y-38472774D01*
X27868376Y-38246223D01*
X27860945Y-38229879D01*
X27826103Y-38175398D01*
X29682265Y-38175398D01*
X29684593Y-38193199D01*
X29747963Y-38420170D01*
X29755194Y-38436603D01*
X29879722Y-38636664D01*
X29891274Y-38650407D01*
X30066947Y-38807476D01*
X30081891Y-38817424D01*
X30294586Y-38918875D01*
X30311723Y-38924229D01*
X30544344Y-38961905D01*
X30562294Y-38962234D01*
X30796138Y-38933107D01*
X30813459Y-38928385D01*
X30834848Y-38919129D01*
X30859636Y-38958953D01*
X30871188Y-38972696D01*
X31046861Y-39129765D01*
X31061805Y-39139713D01*
X31274500Y-39241164D01*
X31291637Y-39246518D01*
X31524258Y-39284194D01*
X31542208Y-39284523D01*
X31776052Y-39255396D01*
X31793373Y-39250674D01*
X32009644Y-39157086D01*
X32024943Y-39147692D01*
X32206254Y-38997165D01*
X32218303Y-38983854D01*
X32219644Y-38981866D01*
X32357440Y-38964702D01*
X32374761Y-38959980D01*
X32591032Y-38866392D01*
X32606331Y-38856998D01*
X32787642Y-38706471D01*
X32799690Y-38693161D01*
X32931464Y-38497796D01*
X32939292Y-38481640D01*
X33011056Y-38256775D01*
X33014050Y-38238289D01*
X33017165Y-37983328D01*
X33014624Y-37964774D01*
X32948376Y-37738223D01*
X32940945Y-37721879D01*
X32813983Y-37523354D01*
X32802264Y-37509753D01*
X32624685Y-37354841D01*
X32609620Y-37345076D01*
X32395700Y-37246232D01*
X32378500Y-37241088D01*
X32145436Y-37206256D01*
X32127483Y-37206147D01*
X31894012Y-37238128D01*
X31876750Y-37243061D01*
X31661639Y-37339285D01*
X31646456Y-37348865D01*
X31466998Y-37501596D01*
X31460890Y-37508512D01*
X31312624Y-37528822D01*
X31295363Y-37533755D01*
X31283059Y-37539259D01*
X31252681Y-37491759D01*
X31240962Y-37478158D01*
X31063383Y-37323246D01*
X31048318Y-37313481D01*
X30834398Y-37214637D01*
X30817198Y-37209493D01*
X30584134Y-37174661D01*
X30566181Y-37174552D01*
X30332710Y-37206533D01*
X30315448Y-37211466D01*
X30100337Y-37307690D01*
X30085154Y-37317270D01*
X29905696Y-37470001D01*
X29893812Y-37483458D01*
X29764433Y-37680418D01*
X29756803Y-37696669D01*
X29687905Y-37922023D01*
X29685143Y-37939763D01*
X29682265Y-38175398D01*
X27826103Y-38175398D01*
X27733983Y-38031354D01*
X27722264Y-38017753D01*
X27544685Y-37862841D01*
X27529620Y-37853076D01*
X27315700Y-37754232D01*
X27298500Y-37749088D01*
X27065436Y-37714256D01*
X27047483Y-37714147D01*
X26814012Y-37746128D01*
X26796750Y-37751061D01*
X26581639Y-37847285D01*
X26566456Y-37856865D01*
X26386998Y-38009596D01*
X26375114Y-38023053D01*
X26245735Y-38220013D01*
X26238105Y-38236264D01*
X26169207Y-38461618D01*
X26166445Y-38479358D01*
X26163567Y-38714993D01*
X23362432Y-38714993D01*
X23365165Y-38491328D01*
X23362624Y-38472774D01*
X23296376Y-38246223D01*
X23288945Y-38229879D01*
X23161983Y-38031354D01*
X23150264Y-38017753D01*
X22972685Y-37862841D01*
X22957620Y-37853076D01*
X22904524Y-37828542D01*
X22959440Y-37821702D01*
X22976761Y-37816980D01*
X23193032Y-37723392D01*
X23208331Y-37713998D01*
X23389642Y-37563471D01*
X23401690Y-37550161D01*
X23533464Y-37354796D01*
X23541292Y-37338640D01*
X23613056Y-37113775D01*
X23616050Y-37095289D01*
X23619165Y-36840328D01*
X23616624Y-36821774D01*
X23550376Y-36595223D01*
X23542945Y-36578879D01*
X23514355Y-36534174D01*
X23701032Y-36453392D01*
X23716331Y-36443998D01*
X23897642Y-36293471D01*
X23909690Y-36280161D01*
X23929063Y-36251440D01*
X24035249Y-36422034D01*
X24046801Y-36435777D01*
X24222474Y-36592846D01*
X24237418Y-36602794D01*
X24450113Y-36704245D01*
X24467250Y-36709599D01*
X24699871Y-36747275D01*
X24717821Y-36747604D01*
X24951665Y-36718477D01*
X24968986Y-36713755D01*
X25185257Y-36620167D01*
X25200556Y-36610773D01*
X25381867Y-36460246D01*
X25393915Y-36446936D01*
X25525689Y-36251571D01*
X25533517Y-36235415D01*
X25560218Y-36151752D01*
X25570017Y-36154814D01*
X25802638Y-36192490D01*
X25820588Y-36192819D01*
X26054432Y-36163692D01*
X26071753Y-36158970D01*
X26288024Y-36065382D01*
X26303323Y-36055988D01*
X26484634Y-35905461D01*
X26496682Y-35892151D01*
X26628456Y-35696786D01*
X26636284Y-35680630D01*
X26708048Y-35455765D01*
X26711042Y-35437279D01*
X26714157Y-35182318D01*
X26711616Y-35163764D01*
X26645368Y-34937213D01*
X26637937Y-34920869D01*
X26601475Y-34863855D01*
X26648888Y-34886470D01*
X26666025Y-34891824D01*
X26898646Y-34929500D01*
X26916596Y-34929829D01*
X27150440Y-34900702D01*
X27167761Y-34895980D01*
X27384032Y-34802392D01*
X27399331Y-34792998D01*
X27580642Y-34642471D01*
X27592690Y-34629161D01*
X27724464Y-34433796D01*
X27732292Y-34417640D01*
X27804056Y-34192775D01*
X27807050Y-34174289D01*
X27810165Y-33919328D01*
X27807624Y-33900774D01*
X27741376Y-33674223D01*
X27733945Y-33657879D01*
X27606983Y-33459354D01*
X27595264Y-33445753D01*
X27417685Y-33290841D01*
X27402620Y-33281076D01*
X27188700Y-33182232D01*
X27171500Y-33177088D01*
X26938436Y-33142256D01*
X26920483Y-33142147D01*
X26687012Y-33174128D01*
X26669750Y-33179061D01*
X26454639Y-33275285D01*
X26439456Y-33284865D01*
X26259998Y-33437596D01*
X26248114Y-33451053D01*
X26118735Y-33648013D01*
X26111105Y-33664264D01*
X26042207Y-33889618D01*
X26039445Y-33907358D01*
X26036567Y-34142993D01*
X26038895Y-34160794D01*
X26102265Y-34387765D01*
X26109496Y-34404198D01*
X26152125Y-34472684D01*
X26092692Y-34445222D01*
X26075492Y-34440078D01*
X25842428Y-34405246D01*
X25824475Y-34405137D01*
X25591004Y-34437118D01*
X25573742Y-34442051D01*
X25358631Y-34538275D01*
X25343448Y-34547855D01*
X25163990Y-34700586D01*
X25152106Y-34714043D01*
X25022727Y-34911003D01*
X25015097Y-34927254D01*
X24992492Y-35001193D01*
X24989925Y-35000007D01*
X24972725Y-34994863D01*
X24739661Y-34960031D01*
X24721708Y-34959922D01*
X24488237Y-34991903D01*
X24470975Y-34996836D01*
X24255864Y-35093060D01*
X24240681Y-35102640D01*
X24061223Y-35255371D01*
X24049339Y-35268828D01*
X24037174Y-35287347D01*
X23923983Y-35110354D01*
X23912264Y-35096753D01*
X23734685Y-34941841D01*
X23719620Y-34932076D01*
X23629722Y-34890538D01*
X23632724Y-34644844D01*
X23630183Y-34626290D01*
X23563935Y-34399739D01*
X23556504Y-34383395D01*
X23470328Y-34248646D01*
X23578877Y-34345699D01*
X23593821Y-34355647D01*
X23806516Y-34457098D01*
X23823653Y-34462452D01*
X24056274Y-34500128D01*
X24074224Y-34500457D01*
X24308068Y-34471330D01*
X24325389Y-34466608D01*
X24541660Y-34373020D01*
X24556959Y-34363626D01*
X24738270Y-34213099D01*
X24750318Y-34199789D01*
X24882092Y-34004424D01*
X24889920Y-33988268D01*
X24961684Y-33763403D01*
X24964678Y-33744917D01*
X24967793Y-33489956D01*
X24965252Y-33471402D01*
X24899004Y-33244851D01*
X24891573Y-33228507D01*
X24851315Y-33165558D01*
X24997888Y-33235470D01*
X25015025Y-33240824D01*
X25247646Y-33278500D01*
X25265596Y-33278829D01*
X25499440Y-33249702D01*
X25516761Y-33244980D01*
X25733032Y-33151392D01*
X25748331Y-33141998D01*
X25929642Y-32991471D01*
X25941690Y-32978161D01*
X26073464Y-32782796D01*
X26081292Y-32766640D01*
X26084779Y-32755713D01*
X26144079Y-32765317D01*
X26162029Y-32765646D01*
X26395873Y-32736519D01*
X26413194Y-32731797D01*
X26629465Y-32638209D01*
X26644764Y-32628815D01*
X26826075Y-32478288D01*
X26838123Y-32464978D01*
X26969897Y-32269613D01*
X26977725Y-32253457D01*
X27049489Y-32028592D01*
X27052483Y-32010106D01*
X27055598Y-31755145D01*
X27053057Y-31736591D01*
X26986809Y-31510040D01*
X26979378Y-31493696D01*
X26852416Y-31295171D01*
X26840697Y-31281570D01*
X26663118Y-31126658D01*
X26648053Y-31116893D01*
X26434133Y-31018049D01*
X26416933Y-31012905D01*
X26183869Y-30978073D01*
X26165916Y-30977964D01*
X25932445Y-31009945D01*
X25915183Y-31014878D01*
X25700072Y-31111102D01*
X25684889Y-31120682D01*
X25505431Y-31273413D01*
X25493547Y-31286870D01*
X25364168Y-31483830D01*
X25356538Y-31500081D01*
X25356099Y-31501518D01*
X25287436Y-31491256D01*
X25269483Y-31491147D01*
X25121418Y-31511429D01*
X25106514Y-31460461D01*
X25099083Y-31444117D01*
X24972121Y-31245592D01*
X24960402Y-31231991D01*
X24782823Y-31077079D01*
X24767758Y-31067314D01*
X24553838Y-30968470D01*
X24536638Y-30963326D01*
X24303574Y-30928494D01*
X24285621Y-30928385D01*
X24052150Y-30960366D01*
X24034888Y-30965299D01*
X23819777Y-31061523D01*
X23804594Y-31071103D01*
X23625136Y-31223834D01*
X23613252Y-31237291D01*
X23483873Y-31434251D01*
X23476243Y-31450502D01*
X23426822Y-31612149D01*
X23251700Y-31531232D01*
X23234500Y-31526088D01*
X23001436Y-31491256D01*
X22983483Y-31491147D01*
X22750012Y-31523128D01*
X22732750Y-31528061D01*
X22517639Y-31624285D01*
X22502456Y-31633865D01*
X22322998Y-31786596D01*
X22311114Y-31800053D01*
X22181735Y-31997013D01*
X22174105Y-32013264D01*
X22113028Y-32213037D01*
X22009639Y-32259285D01*
X21994456Y-32268865D01*
X21814998Y-32421596D01*
X21803114Y-32435053D01*
X21697371Y-32596031D01*
X21645376Y-32418223D01*
X21637945Y-32401879D01*
X21510983Y-32203354D01*
X21499264Y-32189753D01*
X21321685Y-32034841D01*
X21306620Y-32025076D01*
X21092700Y-31926232D01*
X21075500Y-31921088D01*
X20989388Y-31908218D01*
X20991195Y-31760328D01*
X20988654Y-31741774D01*
X20922406Y-31515223D01*
X20914975Y-31498879D01*
X20788013Y-31300354D01*
X20776294Y-31286753D01*
X20598715Y-31131841D01*
X20583650Y-31122076D01*
X20369730Y-31023232D01*
X20352530Y-31018088D01*
X20119466Y-30983256D01*
X20101513Y-30983147D01*
X19868042Y-31015128D01*
X19850780Y-31020061D01*
X19635669Y-31116285D01*
X19620486Y-31125865D01*
X19441028Y-31278596D01*
X19429144Y-31292053D01*
X19299765Y-31489013D01*
X19292135Y-31505264D01*
X19223237Y-31730618D01*
X19220475Y-31748358D01*
X19217597Y-31983993D01*
X16250432Y-31983993D01*
X16253165Y-31760328D01*
X16250624Y-31741774D01*
X16184376Y-31515223D01*
X16176945Y-31498879D01*
X16049983Y-31300354D01*
X16038264Y-31286753D01*
X15860685Y-31131841D01*
X15845620Y-31122076D01*
X15631700Y-31023232D01*
X15614500Y-31018088D01*
X15381436Y-30983256D01*
X15363483Y-30983147D01*
X15130012Y-31015128D01*
X15112750Y-31020061D01*
X14897639Y-31116285D01*
X14882456Y-31125865D01*
X14702998Y-31278596D01*
X14691114Y-31292053D01*
X14561735Y-31489013D01*
X14554105Y-31505264D01*
X14485207Y-31730618D01*
X14482445Y-31748358D01*
X14479567Y-31983993D01*
X12634000Y-31983993D01*
X12634000Y-29062993D01*
X14352567Y-29062993D01*
X14354895Y-29080794D01*
X14418265Y-29307765D01*
X14425496Y-29324198D01*
X14550024Y-29524259D01*
X14561576Y-29538002D01*
X14737249Y-29695071D01*
X14752193Y-29705019D01*
X14964888Y-29806470D01*
X14982025Y-29811824D01*
X15214646Y-29849500D01*
X15232596Y-29849829D01*
X15466440Y-29820702D01*
X15483761Y-29815980D01*
X15700032Y-29722392D01*
X15715331Y-29712998D01*
X15896642Y-29562471D01*
X15908690Y-29549161D01*
X16040464Y-29353796D01*
X16048292Y-29337640D01*
X16120056Y-29112775D01*
X16123050Y-29094289D01*
X16126165Y-28839328D01*
X16123624Y-28820774D01*
X16120180Y-28808993D01*
X16257567Y-28808993D01*
X16259895Y-28826794D01*
X16323265Y-29053765D01*
X16330496Y-29070198D01*
X16455024Y-29270259D01*
X16466576Y-29284002D01*
X16642249Y-29441071D01*
X16657193Y-29451019D01*
X16869888Y-29552470D01*
X16887025Y-29557824D01*
X17119646Y-29595500D01*
X17137596Y-29595829D01*
X17371440Y-29566702D01*
X17388761Y-29561980D01*
X17605032Y-29468392D01*
X17620331Y-29458998D01*
X17638404Y-29443993D01*
X23242567Y-29443993D01*
X23244895Y-29461794D01*
X23308265Y-29688765D01*
X23315496Y-29705198D01*
X23440024Y-29905259D01*
X23451576Y-29919002D01*
X23627249Y-30076071D01*
X23642193Y-30086019D01*
X23854888Y-30187470D01*
X23872025Y-30192824D01*
X24104646Y-30230500D01*
X24122596Y-30230829D01*
X24356440Y-30201702D01*
X24373761Y-30196980D01*
X24590032Y-30103392D01*
X24605331Y-30093998D01*
X24786642Y-29943471D01*
X24798690Y-29930161D01*
X24930464Y-29734796D01*
X24938292Y-29718640D01*
X25010056Y-29493775D01*
X25013050Y-29475289D01*
X25013432Y-29443993D01*
X28322567Y-29443993D01*
X28324895Y-29461794D01*
X28388265Y-29688765D01*
X28395496Y-29705198D01*
X28520024Y-29905259D01*
X28531576Y-29919002D01*
X28707249Y-30076071D01*
X28722193Y-30086019D01*
X28934888Y-30187470D01*
X28952025Y-30192824D01*
X29184646Y-30230500D01*
X29202596Y-30230829D01*
X29436440Y-30201702D01*
X29453761Y-30196980D01*
X29578229Y-30143119D01*
X29583555Y-30145659D01*
X29600691Y-30151013D01*
X29833312Y-30188689D01*
X29851262Y-30189018D01*
X30085106Y-30159891D01*
X30102427Y-30155169D01*
X30318698Y-30061581D01*
X30333997Y-30052187D01*
X30515308Y-29901660D01*
X30527356Y-29888350D01*
X30659130Y-29692985D01*
X30666958Y-29676829D01*
X30738722Y-29451964D01*
X30741716Y-29433478D01*
X30744831Y-29178517D01*
X30742290Y-29159963D01*
X30676042Y-28933412D01*
X30668611Y-28917068D01*
X30541649Y-28718543D01*
X30529930Y-28704942D01*
X30352351Y-28550030D01*
X30337286Y-28540265D01*
X30123366Y-28441421D01*
X30106166Y-28436277D01*
X29873102Y-28401445D01*
X29855149Y-28401336D01*
X29621678Y-28433317D01*
X29604417Y-28438250D01*
X29489043Y-28489859D01*
X29474700Y-28483232D01*
X29457500Y-28478088D01*
X29224436Y-28443256D01*
X29206483Y-28443147D01*
X28973012Y-28475128D01*
X28955750Y-28480061D01*
X28740639Y-28576285D01*
X28725456Y-28585865D01*
X28545998Y-28738596D01*
X28534114Y-28752053D01*
X28404735Y-28949013D01*
X28397105Y-28965264D01*
X28328207Y-29190618D01*
X28325445Y-29208358D01*
X28322567Y-29443993D01*
X25013432Y-29443993D01*
X25016165Y-29220328D01*
X25013624Y-29201774D01*
X24984242Y-29101295D01*
X25040642Y-29054471D01*
X25052690Y-29041161D01*
X25184464Y-28845796D01*
X25192292Y-28829640D01*
X25264056Y-28604775D01*
X25267050Y-28586289D01*
X25270165Y-28331328D01*
X25267624Y-28312774D01*
X25201376Y-28086223D01*
X25193945Y-28069879D01*
X25066983Y-27871354D01*
X25055264Y-27857753D01*
X24877685Y-27702841D01*
X24862620Y-27693076D01*
X24648700Y-27594232D01*
X24631500Y-27589088D01*
X24398436Y-27554256D01*
X24380483Y-27554147D01*
X24147012Y-27586128D01*
X24129750Y-27591061D01*
X23914639Y-27687285D01*
X23899456Y-27696865D01*
X23719998Y-27849596D01*
X23708114Y-27863053D01*
X23578735Y-28060013D01*
X23571105Y-28076264D01*
X23502207Y-28301618D01*
X23499445Y-28319358D01*
X23496567Y-28554993D01*
X23498895Y-28572794D01*
X23529983Y-28684141D01*
X23465998Y-28738596D01*
X23454114Y-28752052D01*
X23324735Y-28949013D01*
X23317105Y-28965264D01*
X23248207Y-29190618D01*
X23245445Y-29208358D01*
X23242567Y-29443993D01*
X17638404Y-29443993D01*
X17801642Y-29308471D01*
X17813690Y-29295161D01*
X17945464Y-29099796D01*
X17953292Y-29083640D01*
X18025056Y-28858775D01*
X18028050Y-28840289D01*
X18031165Y-28585328D01*
X18028624Y-28566774D01*
X17962376Y-28340223D01*
X17954945Y-28323879D01*
X17827983Y-28125354D01*
X17816264Y-28111753D01*
X17638685Y-27956841D01*
X17623620Y-27947076D01*
X17409700Y-27848232D01*
X17392500Y-27843088D01*
X17159436Y-27808256D01*
X17141483Y-27808147D01*
X16908012Y-27840128D01*
X16890750Y-27845061D01*
X16675639Y-27941285D01*
X16660456Y-27950865D01*
X16480998Y-28103596D01*
X16469114Y-28117053D01*
X16339735Y-28314013D01*
X16332105Y-28330264D01*
X16263207Y-28555618D01*
X16260445Y-28573358D01*
X16257567Y-28808993D01*
X16120180Y-28808993D01*
X16057376Y-28594223D01*
X16049945Y-28577879D01*
X15922983Y-28379354D01*
X15911264Y-28365753D01*
X15733685Y-28210841D01*
X15718620Y-28201076D01*
X15504700Y-28102232D01*
X15487500Y-28097088D01*
X15254436Y-28062256D01*
X15236483Y-28062147D01*
X15003012Y-28094128D01*
X14985750Y-28099061D01*
X14770639Y-28195285D01*
X14755456Y-28204865D01*
X14575998Y-28357596D01*
X14564114Y-28371053D01*
X14434735Y-28568013D01*
X14427105Y-28584264D01*
X14358207Y-28809618D01*
X14355445Y-28827358D01*
X14352567Y-29062993D01*
X12634000Y-29062993D01*
X12634000Y-26268993D01*
X13209567Y-26268993D01*
X13211895Y-26286794D01*
X13275265Y-26513765D01*
X13282496Y-26530198D01*
X13407024Y-26730259D01*
X13418576Y-26744002D01*
X13594249Y-26901071D01*
X13609193Y-26911019D01*
X13821888Y-27012470D01*
X13839025Y-27017824D01*
X14071646Y-27055500D01*
X14089596Y-27055829D01*
X14323440Y-27026702D01*
X14340761Y-27021980D01*
X14557032Y-26928392D01*
X14572331Y-26918998D01*
X14753642Y-26768471D01*
X14765690Y-26755161D01*
X14897464Y-26559796D01*
X14905292Y-26543640D01*
X14977056Y-26318775D01*
X14980050Y-26300289D01*
X14982047Y-26136790D01*
X18004607Y-26136790D01*
X18006935Y-26154591D01*
X18070305Y-26381562D01*
X18077536Y-26397995D01*
X18202064Y-26598056D01*
X18213616Y-26611799D01*
X18389289Y-26768868D01*
X18404233Y-26778816D01*
X18616928Y-26880267D01*
X18634065Y-26885621D01*
X18866686Y-26923297D01*
X18884636Y-26923626D01*
X18928090Y-26918213D01*
X18927445Y-26922358D01*
X18924567Y-27157993D01*
X18926895Y-27175794D01*
X18990265Y-27402765D01*
X18997496Y-27419198D01*
X19122024Y-27619259D01*
X19133576Y-27633002D01*
X19309249Y-27790071D01*
X19324193Y-27800019D01*
X19536888Y-27901470D01*
X19554025Y-27906824D01*
X19786646Y-27944500D01*
X19804596Y-27944829D01*
X20038440Y-27915702D01*
X20055761Y-27910980D01*
X20272032Y-27817392D01*
X20287331Y-27807998D01*
X20468642Y-27657471D01*
X20480690Y-27644161D01*
X20612464Y-27448796D01*
X20620292Y-27432640D01*
X20692056Y-27207775D01*
X20695050Y-27189289D01*
X20698165Y-26934328D01*
X20695624Y-26915774D01*
X20629376Y-26689223D01*
X20621945Y-26672879D01*
X20494983Y-26474354D01*
X20483264Y-26460753D01*
X20305685Y-26305841D01*
X20290620Y-26296076D01*
X20076700Y-26197232D01*
X20059500Y-26192088D01*
X19915890Y-26170625D01*
X19960642Y-26133471D01*
X19972690Y-26120161D01*
X20104464Y-25924796D01*
X20112292Y-25908640D01*
X20184056Y-25683775D01*
X20187050Y-25665289D01*
X20187432Y-25633993D01*
X21464567Y-25633993D01*
X21466895Y-25651794D01*
X21530265Y-25878765D01*
X21537496Y-25895198D01*
X21662024Y-26095259D01*
X21673576Y-26109002D01*
X21849249Y-26266071D01*
X21864193Y-26276019D01*
X22076888Y-26377470D01*
X22094025Y-26382824D01*
X22326646Y-26420500D01*
X22344596Y-26420829D01*
X22578440Y-26391702D01*
X22595761Y-26386980D01*
X22812032Y-26293392D01*
X22827331Y-26283998D01*
X23008642Y-26133471D01*
X23020690Y-26120161D01*
X23152464Y-25924796D01*
X23160292Y-25908640D01*
X23232056Y-25683775D01*
X23235050Y-25665289D01*
X23238165Y-25410328D01*
X23235624Y-25391774D01*
X23169376Y-25165223D01*
X23161945Y-25148879D01*
X23034983Y-24950354D01*
X23023264Y-24936753D01*
X22845685Y-24781841D01*
X22830620Y-24772076D01*
X22616700Y-24673232D01*
X22599500Y-24668088D01*
X22366436Y-24633256D01*
X22348483Y-24633147D01*
X22115012Y-24665128D01*
X22097750Y-24670061D01*
X21882639Y-24766285D01*
X21867456Y-24775865D01*
X21687998Y-24928596D01*
X21676114Y-24942053D01*
X21546735Y-25139013D01*
X21539105Y-25155264D01*
X21470207Y-25380618D01*
X21467445Y-25398358D01*
X21464567Y-25633993D01*
X20187432Y-25633993D01*
X20190165Y-25410328D01*
X20187624Y-25391774D01*
X20121376Y-25165223D01*
X20113945Y-25148879D01*
X19986983Y-24950354D01*
X19975264Y-24936753D01*
X19797685Y-24781841D01*
X19782620Y-24772076D01*
X19568700Y-24673232D01*
X19551500Y-24668088D01*
X19318436Y-24633256D01*
X19300483Y-24633147D01*
X19067012Y-24665128D01*
X19049750Y-24670061D01*
X18834639Y-24766285D01*
X18819456Y-24775865D01*
X18639998Y-24928596D01*
X18628114Y-24942053D01*
X18498735Y-25139013D01*
X18491105Y-25155264D01*
X18461635Y-25251656D01*
X18422679Y-25269082D01*
X18407496Y-25278662D01*
X18228038Y-25431393D01*
X18216154Y-25444850D01*
X18086775Y-25641810D01*
X18079145Y-25658061D01*
X18010247Y-25883415D01*
X18007485Y-25901155D01*
X18004607Y-26136790D01*
X14982047Y-26136790D01*
X14983165Y-26045328D01*
X14980624Y-26026774D01*
X14914376Y-25800223D01*
X14906945Y-25783879D01*
X14779983Y-25585354D01*
X14768264Y-25571753D01*
X14590685Y-25416841D01*
X14575620Y-25407076D01*
X14361700Y-25308232D01*
X14344500Y-25303088D01*
X14111436Y-25268256D01*
X14093483Y-25268147D01*
X13860012Y-25300128D01*
X13842750Y-25305061D01*
X13627639Y-25401285D01*
X13612456Y-25410865D01*
X13432998Y-25563596D01*
X13421114Y-25577053D01*
X13291735Y-25774013D01*
X13284105Y-25790264D01*
X13215207Y-26015618D01*
X13212445Y-26033358D01*
X13209567Y-26268993D01*
X12634000Y-26268993D01*
X12634000Y-23347993D01*
X12701567Y-23347993D01*
X12703895Y-23365794D01*
X12767265Y-23592765D01*
X12774496Y-23609198D01*
X12899024Y-23809259D01*
X12910576Y-23823002D01*
X13086249Y-23980071D01*
X13101193Y-23990019D01*
X13313888Y-24091470D01*
X13331025Y-24096824D01*
X13563646Y-24134500D01*
X13581596Y-24134829D01*
X13815440Y-24105702D01*
X13832761Y-24100980D01*
X14049032Y-24007392D01*
X14064331Y-23997998D01*
X14245642Y-23847471D01*
X14257690Y-23834161D01*
X14389464Y-23638796D01*
X14397292Y-23622640D01*
X14416921Y-23561135D01*
X14428265Y-23601765D01*
X14435496Y-23618198D01*
X14560024Y-23818259D01*
X14571576Y-23832002D01*
X14747249Y-23989071D01*
X14762193Y-23999019D01*
X14771978Y-24003686D01*
X14770639Y-24004285D01*
X14755456Y-24013865D01*
X14575998Y-24166596D01*
X14564114Y-24180053D01*
X14434735Y-24377013D01*
X14427105Y-24393264D01*
X14358207Y-24618618D01*
X14355445Y-24636358D01*
X14352567Y-24871993D01*
X14354895Y-24889794D01*
X14418265Y-25116765D01*
X14425496Y-25133198D01*
X14550024Y-25333259D01*
X14561576Y-25347002D01*
X14737249Y-25504071D01*
X14752193Y-25514019D01*
X14964888Y-25615470D01*
X14982025Y-25620824D01*
X15214646Y-25658500D01*
X15232596Y-25658829D01*
X15466440Y-25629702D01*
X15483761Y-25624980D01*
X15700032Y-25531392D01*
X15715331Y-25521998D01*
X15896642Y-25371471D01*
X15908690Y-25358161D01*
X16040464Y-25162796D01*
X16048292Y-25146640D01*
X16120056Y-24921775D01*
X16123050Y-24903289D01*
X16126165Y-24648328D01*
X16123624Y-24629774D01*
X16057376Y-24403223D01*
X16049945Y-24386879D01*
X15922983Y-24188354D01*
X15911264Y-24174753D01*
X15733685Y-24019841D01*
X15719446Y-24010611D01*
X15725331Y-24006998D01*
X15906642Y-23856471D01*
X15918690Y-23843161D01*
X15995696Y-23728993D01*
X16130567Y-23728993D01*
X16132895Y-23746794D01*
X16196265Y-23973765D01*
X16203496Y-23990198D01*
X16328024Y-24190259D01*
X16339576Y-24204002D01*
X16515249Y-24361071D01*
X16530193Y-24371019D01*
X16742888Y-24472470D01*
X16760025Y-24477824D01*
X16992646Y-24515500D01*
X17010596Y-24515829D01*
X17244440Y-24486702D01*
X17261761Y-24481980D01*
X17478032Y-24388392D01*
X17493331Y-24378998D01*
X17674642Y-24228471D01*
X17686690Y-24215161D01*
X17818464Y-24019796D01*
X17826292Y-24003640D01*
X17898056Y-23778775D01*
X17901050Y-23760289D01*
X17904165Y-23505328D01*
X17901624Y-23486774D01*
X17835376Y-23260223D01*
X17827945Y-23243879D01*
X17700983Y-23045354D01*
X17689264Y-23031753D01*
X17511685Y-22876841D01*
X17496620Y-22867076D01*
X17282700Y-22768232D01*
X17265500Y-22763088D01*
X17032436Y-22728256D01*
X17014483Y-22728147D01*
X16781012Y-22760128D01*
X16763750Y-22765061D01*
X16548639Y-22861285D01*
X16533456Y-22870865D01*
X16353998Y-23023596D01*
X16342114Y-23037053D01*
X16212735Y-23234013D01*
X16205105Y-23250264D01*
X16136207Y-23475618D01*
X16133445Y-23493358D01*
X16130567Y-23728993D01*
X15995696Y-23728993D01*
X16050464Y-23647796D01*
X16058292Y-23631640D01*
X16130056Y-23406775D01*
X16133050Y-23388289D01*
X16136165Y-23133328D01*
X16133624Y-23114774D01*
X16067376Y-22888223D01*
X16059945Y-22871879D01*
X15932983Y-22673354D01*
X15921264Y-22659753D01*
X15743685Y-22504841D01*
X15728620Y-22495076D01*
X15514700Y-22396232D01*
X15497500Y-22391088D01*
X15264436Y-22356256D01*
X15246483Y-22356147D01*
X15013012Y-22388128D01*
X14995750Y-22393061D01*
X14780639Y-22489285D01*
X14765456Y-22498865D01*
X14585998Y-22651596D01*
X14574114Y-22665053D01*
X14444735Y-22862013D01*
X14437105Y-22878264D01*
X14421255Y-22930106D01*
X14406376Y-22879223D01*
X14398945Y-22862879D01*
X14271983Y-22664354D01*
X14260264Y-22650753D01*
X14082685Y-22495841D01*
X14067620Y-22486076D01*
X13853700Y-22387232D01*
X13836500Y-22382088D01*
X13603436Y-22347256D01*
X13585483Y-22347147D01*
X13352012Y-22379128D01*
X13334750Y-22384061D01*
X13119639Y-22480285D01*
X13104456Y-22489865D01*
X12924998Y-22642596D01*
X12913114Y-22656053D01*
X12783735Y-22853013D01*
X12776105Y-22869264D01*
X12707207Y-23094618D01*
X12704445Y-23112358D01*
X12701567Y-23347993D01*
X12634000Y-23347993D01*
X12634000Y-18998326D01*
X12640265Y-19020765D01*
X12647496Y-19037198D01*
X12772024Y-19237259D01*
X12783576Y-19251002D01*
X12959249Y-19408071D01*
X12974193Y-19418019D01*
X13186888Y-19519470D01*
X13204025Y-19524824D01*
X13436646Y-19562500D01*
X13454596Y-19562829D01*
X13688440Y-19533702D01*
X13705761Y-19528980D01*
X13922032Y-19435392D01*
X13937331Y-19425998D01*
X14118642Y-19275471D01*
X14130690Y-19262161D01*
X14262464Y-19066796D01*
X14270292Y-19050640D01*
X14342056Y-18825775D01*
X14345050Y-18807289D01*
X14348165Y-18552328D01*
X14345624Y-18533774D01*
X14279376Y-18307223D01*
X14271945Y-18290879D01*
X14144983Y-18092354D01*
X14133264Y-18078753D01*
X14108321Y-18056993D01*
X14733567Y-18056993D01*
X14735895Y-18074794D01*
X14799265Y-18301765D01*
X14806496Y-18318198D01*
X14931024Y-18518259D01*
X14942576Y-18532002D01*
X15118249Y-18689071D01*
X15133193Y-18699019D01*
X15345888Y-18800470D01*
X15363025Y-18805824D01*
X15595646Y-18843500D01*
X15613596Y-18843829D01*
X15847440Y-18814702D01*
X15864761Y-18809980D01*
X15912502Y-18789321D01*
X15867954Y-18935029D01*
X15865192Y-18952769D01*
X15862314Y-19188404D01*
X15864642Y-19206205D01*
X15928012Y-19433176D01*
X15935243Y-19449609D01*
X16059771Y-19649670D01*
X16071323Y-19663413D01*
X16118647Y-19705725D01*
X16099998Y-19721596D01*
X16088114Y-19735053D01*
X15958735Y-19932013D01*
X15951105Y-19948264D01*
X15882207Y-20173618D01*
X15879445Y-20191358D01*
X15876567Y-20426993D01*
X15878895Y-20444794D01*
X15942265Y-20671765D01*
X15949496Y-20688198D01*
X16074024Y-20888259D01*
X16085576Y-20902002D01*
X16261249Y-21059071D01*
X16276193Y-21069019D01*
X16488888Y-21170470D01*
X16506025Y-21175824D01*
X16738646Y-21213500D01*
X16756596Y-21213829D01*
X16990440Y-21184702D01*
X17007761Y-21179980D01*
X17021300Y-21174121D01*
X17019567Y-21315993D01*
X17021895Y-21333794D01*
X17085265Y-21560765D01*
X17092496Y-21577198D01*
X17217024Y-21777259D01*
X17228576Y-21791002D01*
X17404249Y-21948071D01*
X17419193Y-21958019D01*
X17631888Y-22059470D01*
X17649025Y-22064824D01*
X17881646Y-22102500D01*
X17899596Y-22102829D01*
X18133440Y-22073702D01*
X18150761Y-22068980D01*
X18367032Y-21975392D01*
X18382331Y-21965998D01*
X18467819Y-21895024D01*
X18483670Y-21951797D01*
X18490901Y-21968230D01*
X18615429Y-22168291D01*
X18626981Y-22182034D01*
X18802654Y-22339103D01*
X18817598Y-22349051D01*
X19030293Y-22450502D01*
X19047430Y-22455856D01*
X19280051Y-22493532D01*
X19298001Y-22493861D01*
X19531845Y-22464734D01*
X19549166Y-22460012D01*
X19551520Y-22458993D01*
X20702567Y-22458993D01*
X20704895Y-22476794D01*
X20768265Y-22703765D01*
X20775496Y-22720198D01*
X20900024Y-22920259D01*
X20911576Y-22934002D01*
X21087249Y-23091071D01*
X21102193Y-23101019D01*
X21314888Y-23202470D01*
X21332025Y-23207824D01*
X21564646Y-23245500D01*
X21582597Y-23245829D01*
X21624290Y-23240636D01*
X21662024Y-23301259D01*
X21673576Y-23315002D01*
X21849249Y-23472071D01*
X21864193Y-23482019D01*
X22076888Y-23583470D01*
X22094025Y-23588824D01*
X22326646Y-23626500D01*
X22344596Y-23626829D01*
X22481584Y-23609766D01*
X22482895Y-23619794D01*
X22546265Y-23846765D01*
X22553496Y-23863198D01*
X22678024Y-24063259D01*
X22689576Y-24077002D01*
X22865249Y-24234071D01*
X22880193Y-24244019D01*
X23092888Y-24345470D01*
X23110025Y-24350824D01*
X23342646Y-24388500D01*
X23360596Y-24388829D01*
X23594440Y-24359702D01*
X23611761Y-24354980D01*
X23828032Y-24261392D01*
X23843331Y-24251998D01*
X24024642Y-24101471D01*
X24036690Y-24088161D01*
X24168464Y-23892796D01*
X24176292Y-23876640D01*
X24248056Y-23651775D01*
X24251050Y-23633289D01*
X24254165Y-23378328D01*
X24251624Y-23359774D01*
X24185376Y-23133223D01*
X24177945Y-23116879D01*
X24050983Y-22918354D01*
X24039264Y-22904753D01*
X23861685Y-22749841D01*
X23846620Y-22740076D01*
X23632700Y-22641232D01*
X23615500Y-22636088D01*
X23382436Y-22601256D01*
X23364483Y-22601147D01*
X23238139Y-22618454D01*
X23238165Y-22616328D01*
X23235624Y-22597774D01*
X23169376Y-22371223D01*
X23161945Y-22354879D01*
X23034983Y-22156354D01*
X23023264Y-22142753D01*
X22845685Y-21987841D01*
X22830620Y-21978076D01*
X22616700Y-21879232D01*
X22599500Y-21874088D01*
X22366436Y-21839256D01*
X22348483Y-21839147D01*
X22316576Y-21843518D01*
X22272983Y-21775354D01*
X22261264Y-21761753D01*
X22189694Y-21699319D01*
X22326646Y-21721500D01*
X22344596Y-21721829D01*
X22578440Y-21692702D01*
X22595761Y-21687980D01*
X22812032Y-21594392D01*
X22827331Y-21584998D01*
X23008642Y-21434471D01*
X23020690Y-21421161D01*
X23152464Y-21225796D01*
X23160292Y-21209640D01*
X23232056Y-20984775D01*
X23235050Y-20966289D01*
X23235432Y-20934993D01*
X24131567Y-20934993D01*
X24133895Y-20952794D01*
X24197265Y-21179765D01*
X24204496Y-21196198D01*
X24329024Y-21396259D01*
X24340576Y-21410002D01*
X24516249Y-21567071D01*
X24531193Y-21577019D01*
X24743888Y-21678470D01*
X24761025Y-21683824D01*
X24993646Y-21721500D01*
X25011596Y-21721829D01*
X25245440Y-21692702D01*
X25262761Y-21687980D01*
X25479032Y-21594392D01*
X25494331Y-21584998D01*
X25675642Y-21434471D01*
X25687690Y-21421161D01*
X25819464Y-21225796D01*
X25827292Y-21209640D01*
X25899056Y-20984775D01*
X25902050Y-20966289D01*
X25905165Y-20711328D01*
X25902624Y-20692774D01*
X25836376Y-20466223D01*
X25828945Y-20449879D01*
X25701983Y-20251354D01*
X25690264Y-20237753D01*
X25512685Y-20082841D01*
X25497620Y-20073076D01*
X25283700Y-19974232D01*
X25266500Y-19969088D01*
X25033436Y-19934256D01*
X25015483Y-19934147D01*
X24782012Y-19966128D01*
X24764750Y-19971061D01*
X24549639Y-20067285D01*
X24534456Y-20076865D01*
X24354998Y-20229596D01*
X24343114Y-20243053D01*
X24213735Y-20440013D01*
X24206105Y-20456264D01*
X24137207Y-20681618D01*
X24134445Y-20699358D01*
X24131567Y-20934993D01*
X23235432Y-20934993D01*
X23238165Y-20711328D01*
X23235624Y-20692774D01*
X23171232Y-20472569D01*
X23226440Y-20465692D01*
X23243761Y-20460970D01*
X23460032Y-20367382D01*
X23475331Y-20357988D01*
X23656642Y-20207461D01*
X23668690Y-20194151D01*
X23800464Y-19998786D01*
X23808292Y-19982630D01*
X23880056Y-19757765D01*
X23883050Y-19739279D01*
X23885509Y-19537993D01*
X25528567Y-19537993D01*
X25530895Y-19555794D01*
X25594265Y-19782765D01*
X25601496Y-19799198D01*
X25726024Y-19999259D01*
X25737576Y-20013002D01*
X25913249Y-20170071D01*
X25928193Y-20180019D01*
X26140888Y-20281470D01*
X26158025Y-20286824D01*
X26390646Y-20324500D01*
X26408596Y-20324829D01*
X26642440Y-20295702D01*
X26659761Y-20290980D01*
X26876032Y-20197392D01*
X26891331Y-20187998D01*
X27072642Y-20037471D01*
X27084690Y-20024161D01*
X27216464Y-19828796D01*
X27224292Y-19812640D01*
X27296056Y-19587775D01*
X27299050Y-19569289D01*
X27302165Y-19314328D01*
X27299624Y-19295774D01*
X27233376Y-19069223D01*
X27225945Y-19052879D01*
X27098983Y-18854354D01*
X27087264Y-18840753D01*
X26909685Y-18685841D01*
X26894620Y-18676076D01*
X26680700Y-18577232D01*
X26663500Y-18572088D01*
X26430436Y-18537256D01*
X26412483Y-18537147D01*
X26179012Y-18569128D01*
X26161750Y-18574061D01*
X25946639Y-18670285D01*
X25931456Y-18679865D01*
X25751998Y-18832596D01*
X25740114Y-18846053D01*
X25610735Y-19043013D01*
X25603105Y-19059264D01*
X25534207Y-19284618D01*
X25531445Y-19302358D01*
X25528567Y-19537993D01*
X23885509Y-19537993D01*
X23886165Y-19484318D01*
X23883624Y-19465764D01*
X23817376Y-19239213D01*
X23809945Y-19222869D01*
X23682983Y-19024344D01*
X23671264Y-19010743D01*
X23493685Y-18855831D01*
X23478620Y-18846066D01*
X23264700Y-18747222D01*
X23247500Y-18742078D01*
X23014436Y-18707246D01*
X22996483Y-18707137D01*
X22763012Y-18739118D01*
X22745750Y-18744051D01*
X22530639Y-18840275D01*
X22515456Y-18849855D01*
X22335998Y-19002586D01*
X22324114Y-19016043D01*
X22194735Y-19213003D01*
X22187105Y-19229254D01*
X22118207Y-19454608D01*
X22115445Y-19472348D01*
X22112567Y-19707983D01*
X22114895Y-19725784D01*
X22178265Y-19952755D01*
X22180219Y-19957196D01*
X22115012Y-19966128D01*
X22097750Y-19971061D01*
X21882639Y-20067285D01*
X21867456Y-20076865D01*
X21687998Y-20229596D01*
X21676114Y-20243053D01*
X21546735Y-20440013D01*
X21539105Y-20456264D01*
X21470207Y-20681618D01*
X21467445Y-20699358D01*
X21464567Y-20934993D01*
X21466895Y-20952794D01*
X21530265Y-21179765D01*
X21537496Y-21196198D01*
X21662024Y-21396259D01*
X21673576Y-21410002D01*
X21752254Y-21480348D01*
X21604436Y-21458256D01*
X21586483Y-21458147D01*
X21353012Y-21490128D01*
X21335750Y-21495061D01*
X21120639Y-21591285D01*
X21105456Y-21600865D01*
X20925998Y-21753596D01*
X20914114Y-21767053D01*
X20784735Y-21964013D01*
X20777105Y-21980264D01*
X20708207Y-22205618D01*
X20705445Y-22223358D01*
X20702567Y-22458993D01*
X19551520Y-22458993D01*
X19765437Y-22366424D01*
X19780736Y-22357030D01*
X19962047Y-22206503D01*
X19974095Y-22193193D01*
X20105869Y-21997828D01*
X20113697Y-21981672D01*
X20185461Y-21756807D01*
X20188455Y-21738321D01*
X20191570Y-21483360D01*
X20189029Y-21464806D01*
X20122781Y-21238255D01*
X20115350Y-21221911D01*
X19988388Y-21023386D01*
X19976669Y-21009785D01*
X19974102Y-21007546D01*
X20000900Y-20967816D01*
X20008727Y-20951660D01*
X20023251Y-20906150D01*
X20044888Y-20916470D01*
X20062025Y-20921824D01*
X20294646Y-20959500D01*
X20312596Y-20959829D01*
X20546440Y-20930702D01*
X20563761Y-20925980D01*
X20780032Y-20832392D01*
X20795331Y-20822998D01*
X20976642Y-20672471D01*
X20988690Y-20659161D01*
X21120464Y-20463796D01*
X21128292Y-20447640D01*
X21200056Y-20222775D01*
X21203050Y-20204289D01*
X21206165Y-19949328D01*
X21203624Y-19930774D01*
X21137376Y-19704223D01*
X21129945Y-19687879D01*
X21002983Y-19489354D01*
X20991264Y-19475753D01*
X20813685Y-19320841D01*
X20798620Y-19311076D01*
X20584700Y-19212232D01*
X20567500Y-19207088D01*
X20334436Y-19172256D01*
X20316483Y-19172147D01*
X20083012Y-19204128D01*
X20065750Y-19209061D01*
X19850639Y-19305285D01*
X19835456Y-19314865D01*
X19655998Y-19467596D01*
X19644114Y-19481053D01*
X19514735Y-19678013D01*
X19507105Y-19694264D01*
X19496020Y-19730523D01*
X19465135Y-19716252D01*
X19447935Y-19711108D01*
X19214871Y-19676276D01*
X19196918Y-19676167D01*
X18963447Y-19708148D01*
X18946185Y-19713081D01*
X18731074Y-19809305D01*
X18715891Y-19818885D01*
X18536433Y-19971616D01*
X18524549Y-19985073D01*
X18395170Y-20182033D01*
X18387540Y-20198284D01*
X18318779Y-20423191D01*
X18171700Y-20355232D01*
X18154500Y-20350088D01*
X17921436Y-20315256D01*
X17903483Y-20315147D01*
X17670012Y-20347128D01*
X17652750Y-20352061D01*
X17648324Y-20354041D01*
X17650165Y-20203328D01*
X17647624Y-20184774D01*
X17581376Y-19958223D01*
X17573945Y-19941879D01*
X17557083Y-19915512D01*
X17629423Y-19906502D01*
X17646744Y-19901780D01*
X17863015Y-19808192D01*
X17878314Y-19798798D01*
X18059625Y-19648271D01*
X18071673Y-19634961D01*
X18203447Y-19439596D01*
X18211275Y-19423440D01*
X18283039Y-19198575D01*
X18286033Y-19180089D01*
X18289148Y-18925128D01*
X18286607Y-18906574D01*
X18220359Y-18680023D01*
X18212928Y-18663679D01*
X18150995Y-18566837D01*
X18433258Y-18566837D01*
X18449634Y-18564681D01*
X18728859Y-18489863D01*
X18753339Y-18477120D01*
X18909590Y-18346010D01*
X18923761Y-18329121D01*
X19024359Y-18154880D01*
X19031900Y-18134163D01*
X19034484Y-18119505D01*
X19055249Y-18138071D01*
X19070193Y-18148019D01*
X19282888Y-18249470D01*
X19300025Y-18254824D01*
X19532646Y-18292500D01*
X19550596Y-18292829D01*
X19784440Y-18263702D01*
X19801761Y-18258980D01*
X20018032Y-18165392D01*
X20033331Y-18155998D01*
X20204377Y-18013993D01*
X23115567Y-18013993D01*
X23117895Y-18031794D01*
X23181265Y-18258765D01*
X23188496Y-18275198D01*
X23313024Y-18475259D01*
X23324576Y-18489002D01*
X23500249Y-18646071D01*
X23515193Y-18656019D01*
X23727888Y-18757470D01*
X23745025Y-18762824D01*
X23977646Y-18800500D01*
X23995596Y-18800829D01*
X24229440Y-18771702D01*
X24246761Y-18766980D01*
X24463032Y-18673392D01*
X24478331Y-18663998D01*
X24659642Y-18513471D01*
X24671690Y-18500161D01*
X24803464Y-18304796D01*
X24811292Y-18288640D01*
X24862883Y-18126982D01*
X28322567Y-18126982D01*
X28324895Y-18144783D01*
X28388265Y-18371754D01*
X28395496Y-18388187D01*
X28520024Y-18588248D01*
X28531576Y-18601991D01*
X28707249Y-18759060D01*
X28722193Y-18769008D01*
X28934888Y-18870459D01*
X28952025Y-18875813D01*
X29184646Y-18913489D01*
X29202596Y-18913818D01*
X29436440Y-18884691D01*
X29453761Y-18879969D01*
X29670032Y-18786381D01*
X29685331Y-18776987D01*
X29866642Y-18626460D01*
X29878690Y-18613150D01*
X30010464Y-18417785D01*
X30018292Y-18401629D01*
X30090056Y-18176764D01*
X30093050Y-18158278D01*
X30096165Y-17903317D01*
X30093624Y-17884763D01*
X30027376Y-17658212D01*
X30019945Y-17641868D01*
X29892983Y-17443343D01*
X29881264Y-17429742D01*
X29703685Y-17274830D01*
X29688620Y-17265065D01*
X29474700Y-17166221D01*
X29457500Y-17161077D01*
X29224436Y-17126245D01*
X29206483Y-17126136D01*
X28973012Y-17158117D01*
X28955750Y-17163050D01*
X28740639Y-17259274D01*
X28725456Y-17268854D01*
X28545998Y-17421585D01*
X28534114Y-17435042D01*
X28404735Y-17632002D01*
X28397105Y-17648253D01*
X28328207Y-17873607D01*
X28325445Y-17891347D01*
X28322567Y-18126982D01*
X24862883Y-18126982D01*
X24883056Y-18063775D01*
X24886050Y-18045289D01*
X24889165Y-17790328D01*
X24886624Y-17771774D01*
X24820376Y-17545223D01*
X24812945Y-17528879D01*
X24685983Y-17330354D01*
X24674264Y-17316753D01*
X24496685Y-17161841D01*
X24481620Y-17152076D01*
X24267700Y-17053232D01*
X24250500Y-17048088D01*
X24017436Y-17013256D01*
X23999483Y-17013147D01*
X23766012Y-17045128D01*
X23748750Y-17050061D01*
X23533639Y-17146285D01*
X23518456Y-17155865D01*
X23338998Y-17308596D01*
X23327114Y-17322053D01*
X23197735Y-17519013D01*
X23190105Y-17535264D01*
X23121207Y-17760618D01*
X23118445Y-17778358D01*
X23115567Y-18013993D01*
X20204377Y-18013993D01*
X20214642Y-18005471D01*
X20226690Y-17992161D01*
X20358464Y-17796796D01*
X20366292Y-17780640D01*
X20438056Y-17555775D01*
X20441050Y-17537289D01*
X20444165Y-17282328D01*
X20441624Y-17263774D01*
X20375376Y-17037223D01*
X20367945Y-17020879D01*
X20240983Y-16822354D01*
X20229264Y-16808753D01*
X20051685Y-16653841D01*
X20036620Y-16644076D01*
X19822700Y-16545232D01*
X19805500Y-16540088D01*
X19572436Y-16505256D01*
X19554483Y-16505147D01*
X19321012Y-16537128D01*
X19303750Y-16542061D01*
X19088639Y-16638285D01*
X19073456Y-16647865D01*
X18968892Y-16736856D01*
X18846010Y-16590410D01*
X18829121Y-16576239D01*
X18654880Y-16475641D01*
X18634163Y-16468100D01*
X18441462Y-16434122D01*
X18430501Y-16433163D01*
X17566741Y-16433163D01*
X17550366Y-16435319D01*
X17331080Y-16494076D01*
X17227706Y-16460488D01*
X17214788Y-16457743D01*
X17006604Y-16435861D01*
X16993396Y-16435861D01*
X16785212Y-16457743D01*
X16772294Y-16460488D01*
X16573208Y-16525174D01*
X16561142Y-16530546D01*
X16379857Y-16635213D01*
X16369173Y-16642975D01*
X16213609Y-16783044D01*
X16204772Y-16792859D01*
X16081730Y-16962213D01*
X16075127Y-16973650D01*
X15997541Y-17147909D01*
X15885700Y-17096232D01*
X15868500Y-17091088D01*
X15635436Y-17056256D01*
X15617483Y-17056147D01*
X15384012Y-17088128D01*
X15366750Y-17093061D01*
X15151639Y-17189285D01*
X15136456Y-17198865D01*
X14956998Y-17351596D01*
X14945114Y-17365053D01*
X14815735Y-17562013D01*
X14808105Y-17578264D01*
X14739207Y-17803618D01*
X14736445Y-17821358D01*
X14733567Y-18056993D01*
X14108321Y-18056993D01*
X13955685Y-17923841D01*
X13940620Y-17914076D01*
X13726700Y-17815232D01*
X13709500Y-17810088D01*
X13476436Y-17775256D01*
X13458483Y-17775147D01*
X13225012Y-17807128D01*
X13207750Y-17812061D01*
X12992639Y-17908285D01*
X12977456Y-17917865D01*
X12797998Y-18070596D01*
X12786114Y-18084053D01*
X12656735Y-18281013D01*
X12649105Y-18297264D01*
X12634000Y-18346670D01*
X12634000Y-15854993D01*
X20956567Y-15854993D01*
X20958895Y-15872794D01*
X21022265Y-16099765D01*
X21029496Y-16116198D01*
X21154024Y-16316259D01*
X21165576Y-16330002D01*
X21341249Y-16487071D01*
X21356193Y-16497019D01*
X21568888Y-16598470D01*
X21586025Y-16603824D01*
X21818646Y-16641500D01*
X21836596Y-16641829D01*
X22070440Y-16612702D01*
X22087761Y-16607980D01*
X22304032Y-16514392D01*
X22319331Y-16504998D01*
X22500642Y-16354471D01*
X22512690Y-16341161D01*
X22644464Y-16145796D01*
X22652292Y-16129640D01*
X22724056Y-15904775D01*
X22727050Y-15886289D01*
X22730165Y-15631328D01*
X22727624Y-15612774D01*
X22661376Y-15386223D01*
X22653945Y-15369879D01*
X22590406Y-15270526D01*
X22711888Y-15328470D01*
X22729025Y-15333824D01*
X22961646Y-15371500D01*
X22979596Y-15371829D01*
X23213440Y-15342702D01*
X23230761Y-15337980D01*
X23447032Y-15244392D01*
X23462331Y-15234998D01*
X23643642Y-15084471D01*
X23655690Y-15071161D01*
X23787464Y-14875796D01*
X23795292Y-14859640D01*
X23867056Y-14634775D01*
X23870050Y-14616289D01*
X23873165Y-14361328D01*
X23870624Y-14342774D01*
X23804376Y-14116223D01*
X23796945Y-14099879D01*
X23669983Y-13901354D01*
X23658264Y-13887753D01*
X23480685Y-13732841D01*
X23465620Y-13723076D01*
X23251700Y-13624232D01*
X23234500Y-13619088D01*
X23001436Y-13584256D01*
X22983483Y-13584147D01*
X22750012Y-13616128D01*
X22732750Y-13621061D01*
X22517639Y-13717285D01*
X22502456Y-13726865D01*
X22322998Y-13879596D01*
X22311114Y-13893053D01*
X22181735Y-14090013D01*
X22174105Y-14106264D01*
X22105207Y-14331618D01*
X22102445Y-14349358D01*
X22099567Y-14584993D01*
X22101895Y-14602794D01*
X22165265Y-14829765D01*
X22172496Y-14846198D01*
X22240222Y-14955003D01*
X22108700Y-14894232D01*
X22091500Y-14889088D01*
X21858436Y-14854256D01*
X21840483Y-14854147D01*
X21607012Y-14886128D01*
X21589750Y-14891061D01*
X21374639Y-14987285D01*
X21359456Y-14996865D01*
X21179998Y-15149596D01*
X21168114Y-15163053D01*
X21038735Y-15360013D01*
X21031105Y-15376264D01*
X20962207Y-15601618D01*
X20959445Y-15619358D01*
X20956567Y-15854993D01*
X12634000Y-15854993D01*
X12634000Y-14756993D01*
X14497567Y-14756993D01*
X14499895Y-14774794D01*
X14563265Y-15001765D01*
X14570496Y-15018198D01*
X14695024Y-15218259D01*
X14706576Y-15232002D01*
X14882249Y-15389071D01*
X14897193Y-15399019D01*
X15109888Y-15500470D01*
X15127025Y-15505824D01*
X15359646Y-15543500D01*
X15377596Y-15543829D01*
X15611440Y-15514702D01*
X15628761Y-15509980D01*
X15845032Y-15416392D01*
X15860331Y-15406998D01*
X16041642Y-15256471D01*
X16053690Y-15243161D01*
X16185464Y-15047796D01*
X16193292Y-15031640D01*
X16265056Y-14806775D01*
X16268050Y-14788289D01*
X16271165Y-14533328D01*
X16268624Y-14514774D01*
X16202376Y-14288223D01*
X16194945Y-14271879D01*
X16067983Y-14073354D01*
X16056264Y-14059753D01*
X15878685Y-13904841D01*
X15863620Y-13895076D01*
X15649700Y-13796232D01*
X15632500Y-13791088D01*
X15399436Y-13756256D01*
X15381483Y-13756147D01*
X15148012Y-13788128D01*
X15130750Y-13793061D01*
X14915639Y-13889285D01*
X14900456Y-13898865D01*
X14720998Y-14051596D01*
X14709114Y-14065053D01*
X14579735Y-14262013D01*
X14572105Y-14278264D01*
X14503207Y-14503618D01*
X14500445Y-14521358D01*
X14497567Y-14756993D01*
X12634000Y-14756993D01*
X12634000Y-13134000D01*
X34866000Y-13134000D01*
X34866001Y-20366000D01*
G37*
%TD.AperFunction*%
%TD*%
M02*
