M48
; DRILL file {KiCad (5.99.0-2309-gaf729d578)} date Sat Aug  1 12:07:13 2020
; FORMAT={-:-/ absolute / inch / decimal}
; #@! TF.CreationDate,2020-08-01T12:07:13-04:00
; #@! TF.GenerationSoftware,Kicad,Pcbnew,(5.99.0-2309-gaf729d578)
; #@! TF.FileFunction,Plated,1,4,PTH
FMAT,2
INCH
T1C0.0118
T2C0.0197
T3C0.0236
%
G90
G05
T1
X0.53Y-0.735
X0.535Y-0.915
X0.555Y-1.03
X0.6Y-0.975
X0.6Y-1.14
X0.6004Y-0.9154
X0.6008Y-0.8558
X0.605Y-1.255
X0.605Y-1.39
X0.6057Y-0.5768
X0.61Y-1.715
X0.615Y-0.7067
X0.625Y-1.55
X0.6594Y-0.7512
X0.66Y-0.8
X0.6693Y-1.3829
X0.67Y-0.93
X0.675Y-1.13
X0.675Y-1.445
X0.6852Y-0.7497
X0.6896Y-1.3217
X0.705Y-0.835
X0.715Y-1.475
X0.7236Y-1.7529
X0.725Y-1.2
X0.725Y-1.79
X0.7438Y-1.3769
X0.7438Y-1.0248
X0.745Y-1.06
X0.748Y-1.3189
X0.7482Y-1.5394
X0.755Y-1.415
X0.7559Y-0.8098
X0.76Y-1.005
X0.76Y-1.475
X0.7601Y-0.8504
X0.77Y-0.685
X0.78Y-1.065
X0.79Y-1.71
X0.7915Y-1.255
X0.796Y-1.5613
X0.8Y-0.79
X0.8037Y-1.4089
X0.8176Y-1.71
X0.82Y-1.2906
X0.8203Y-1.4754
X0.85Y-0.88
X0.86Y-0.62
X0.86Y-1.705
X0.88Y-0.82
X0.88Y-0.895
X0.88Y-1.005
X0.885Y-1.3
X0.885Y-1.52
X0.89Y-1.59
X0.895Y-1.455
X0.8955Y-1.3686
X0.905Y-0.57
X0.905Y-1.275
X0.9055Y-0.7717
X0.9136Y-1.7136
X0.915Y-1.405
X0.92Y-0.925
X0.92Y-1.31
X0.945Y-0.705
X0.9481Y-1.3231
X0.95Y-1.155
X0.9563Y-1.2528
X0.96Y-1.12
X0.9734Y-1.4116
X0.985Y-0.82
X0.995Y-1.275
X1.0169Y-1.3897
X1.0303Y-1.2548
X1.0385Y-1.62
X1.04Y-0.765
X1.06Y-1.34
X1.065Y-1.52
X1.075Y-1.865
X1.08Y-1.665
X1.11Y-1.27
X1.12Y-1.59
X1.125Y-0.875
X1.125Y-1.4147
X1.135Y-1.93
X1.1433Y-0.8142
X1.145Y-0.93
X1.1487Y-1.395
X1.15Y-0.7094
X1.15Y-1.155
X1.15Y-1.2587
X1.15Y-1.665
X1.15Y-1.2843
X1.1507Y-1.43
X1.16Y-1.805
X1.1617Y-1.3342
X1.165Y-1.765
X1.168Y-0.8075
X1.17Y-1.715
X1.175Y-1.62
X1.1755Y-1.1534
X1.1906Y-1.2539
X1.1929Y-1.2821
X1.2Y-0.885
X1.2035Y-1.4988
X1.205Y-0.915
X1.22Y-1.69
X1.2202Y-0.8096
X1.23Y-1.335
X1.2421Y-1.5114
X1.2559Y-1.8121
X1.265Y-1.295
X1.265Y-1.5
X1.2667Y-1.6512
X1.27Y-1.735
X1.285Y-0.77
X1.3Y-1.905
X1.305Y-1.395
X1.362Y-1.5157
X1.362Y-1.5846
T2
X0.6693Y-0.689
X0.7087Y-0.689
T3
G00X0.6764Y-1.7075
M15
G01X0.6764Y-1.6642
M16
G05
G00X0.6764Y-1.8657
M15
G01X0.6764Y-1.8343
M16
G05
G00X1.0165Y-1.7075
M15
G01X1.0165Y-1.6642
M16
G05
G00X1.0165Y-1.8657
M15
G01X1.0165Y-1.8343
M16
G05
T0
M30
