%TF.GenerationSoftware,KiCad,Pcbnew,(5.99.0-2309-gaf729d578)*%
%TF.CreationDate,2020-07-18T18:02:02-04:00*%
%TF.ProjectId,mk2,6d6b322e-6b69-4636-9164-5f7063625858,rev?*%
%TF.SameCoordinates,Original*%
%TF.FileFunction,Paste,Top*%
%TF.FilePolarity,Positive*%
%FSLAX46Y46*%
G04 Gerber Fmt 4.6, Leading zero omitted, Abs format (unit mm)*
G04 Created by KiCad (PCBNEW (5.99.0-2309-gaf729d578)) date 2020-07-18 18:02:02*
%MOMM*%
%LPD*%
G01*
G04 APERTURE LIST*
%ADD10R,0.700000X0.450000*%
%ADD11R,0.800000X1.450000*%
%ADD12R,1.270000X0.900000*%
%ADD13R,0.450000X0.700000*%
%ADD14R,1.050000X1.100000*%
%ADD15R,1.060000X0.650000*%
%ADD16R,0.650000X1.560000*%
%ADD17R,0.300000X1.300000*%
%ADD18R,1.800000X2.200000*%
%ADD19R,0.400000X0.420000*%
%ADD20R,0.600000X0.400000*%
%ADD21R,0.400000X0.600000*%
%ADD22R,1.200000X0.900000*%
G04 APERTURE END LIST*
%TO.C,R16*%
G36*
G01*
X35487500Y-42525000D02*
X35012500Y-42525000D01*
G75*
G02*
X34775000Y-42287500I0J237500D01*
G01*
X34775000Y-41712500D01*
G75*
G02*
X35012500Y-41475000I237500J0D01*
G01*
X35487500Y-41475000D01*
G75*
G02*
X35725000Y-41712500I0J-237500D01*
G01*
X35725000Y-42287500D01*
G75*
G02*
X35487500Y-42525000I-237500J0D01*
G01*
G37*
G36*
G01*
X35487500Y-44275000D02*
X35012500Y-44275000D01*
G75*
G02*
X34775000Y-44037500I0J237500D01*
G01*
X34775000Y-43462500D01*
G75*
G02*
X35012500Y-43225000I237500J0D01*
G01*
X35487500Y-43225000D01*
G75*
G02*
X35725000Y-43462500I0J-237500D01*
G01*
X35725000Y-44037500D01*
G75*
G02*
X35487500Y-44275000I-237500J0D01*
G01*
G37*
%TD*%
%TO.C,R15*%
G36*
G01*
X37762500Y-49600000D02*
X38237500Y-49600000D01*
G75*
G02*
X38475000Y-49837500I0J-237500D01*
G01*
X38475000Y-50412500D01*
G75*
G02*
X38237500Y-50650000I-237500J0D01*
G01*
X37762500Y-50650000D01*
G75*
G02*
X37525000Y-50412500I0J237500D01*
G01*
X37525000Y-49837500D01*
G75*
G02*
X37762500Y-49600000I237500J0D01*
G01*
G37*
G36*
G01*
X37762500Y-47850000D02*
X38237500Y-47850000D01*
G75*
G02*
X38475000Y-48087500I0J-237500D01*
G01*
X38475000Y-48662500D01*
G75*
G02*
X38237500Y-48900000I-237500J0D01*
G01*
X37762500Y-48900000D01*
G75*
G02*
X37525000Y-48662500I0J237500D01*
G01*
X37525000Y-48087500D01*
G75*
G02*
X37762500Y-47850000I237500J0D01*
G01*
G37*
%TD*%
D10*
%TO.C,Q4*%
X38750000Y-46000000D03*
X36750000Y-46650000D03*
X36750000Y-45350000D03*
%TD*%
D11*
%TO.C,SW5*%
X11250000Y-63375000D03*
X11250000Y-56625000D03*
D12*
X13135000Y-62100000D03*
X13135000Y-57900000D03*
%TD*%
D11*
%TO.C,SW4*%
X11250000Y-43375000D03*
X11250000Y-36625000D03*
D12*
X13135000Y-42100000D03*
X13135000Y-37900000D03*
%TD*%
D11*
%TO.C,SW3*%
X38750000Y-56625000D03*
X38750000Y-63375000D03*
D12*
X36865000Y-57900000D03*
X36865000Y-62100000D03*
%TD*%
D11*
%TO.C,SW2*%
X38750000Y-36625000D03*
X38750000Y-43375000D03*
D12*
X36865000Y-37900000D03*
X36865000Y-42100000D03*
%TD*%
D11*
%TO.C,SW1*%
X38750000Y-16625000D03*
X38750000Y-23375000D03*
D12*
X36865000Y-17900000D03*
X36865000Y-22100000D03*
%TD*%
%TO.C,R14*%
G36*
G01*
X33225000Y-20737500D02*
X33225000Y-20262500D01*
G75*
G02*
X33462500Y-20025000I237500J0D01*
G01*
X34037500Y-20025000D01*
G75*
G02*
X34275000Y-20262500I0J-237500D01*
G01*
X34275000Y-20737500D01*
G75*
G02*
X34037500Y-20975000I-237500J0D01*
G01*
X33462500Y-20975000D01*
G75*
G02*
X33225000Y-20737500I0J237500D01*
G01*
G37*
G36*
G01*
X31475000Y-20737500D02*
X31475000Y-20262500D01*
G75*
G02*
X31712500Y-20025000I237500J0D01*
G01*
X32287500Y-20025000D01*
G75*
G02*
X32525000Y-20262500I0J-237500D01*
G01*
X32525000Y-20737500D01*
G75*
G02*
X32287500Y-20975000I-237500J0D01*
G01*
X31712500Y-20975000D01*
G75*
G02*
X31475000Y-20737500I0J237500D01*
G01*
G37*
%TD*%
%TO.C,R13*%
G36*
G01*
X31487500Y-17525000D02*
X31012500Y-17525000D01*
G75*
G02*
X30775000Y-17287500I0J237500D01*
G01*
X30775000Y-16712500D01*
G75*
G02*
X31012500Y-16475000I237500J0D01*
G01*
X31487500Y-16475000D01*
G75*
G02*
X31725000Y-16712500I0J-237500D01*
G01*
X31725000Y-17287500D01*
G75*
G02*
X31487500Y-17525000I-237500J0D01*
G01*
G37*
G36*
G01*
X31487500Y-19275000D02*
X31012500Y-19275000D01*
G75*
G02*
X30775000Y-19037500I0J237500D01*
G01*
X30775000Y-18462500D01*
G75*
G02*
X31012500Y-18225000I237500J0D01*
G01*
X31487500Y-18225000D01*
G75*
G02*
X31725000Y-18462500I0J-237500D01*
G01*
X31725000Y-19037500D01*
G75*
G02*
X31487500Y-19275000I-237500J0D01*
G01*
G37*
%TD*%
%TO.C,R2*%
G36*
G01*
X14762500Y-26475000D02*
X15237500Y-26475000D01*
G75*
G02*
X15475000Y-26712500I0J-237500D01*
G01*
X15475000Y-27287500D01*
G75*
G02*
X15237500Y-27525000I-237500J0D01*
G01*
X14762500Y-27525000D01*
G75*
G02*
X14525000Y-27287500I0J237500D01*
G01*
X14525000Y-26712500D01*
G75*
G02*
X14762500Y-26475000I237500J0D01*
G01*
G37*
G36*
G01*
X14762500Y-24725000D02*
X15237500Y-24725000D01*
G75*
G02*
X15475000Y-24962500I0J-237500D01*
G01*
X15475000Y-25537500D01*
G75*
G02*
X15237500Y-25775000I-237500J0D01*
G01*
X14762500Y-25775000D01*
G75*
G02*
X14525000Y-25537500I0J237500D01*
G01*
X14525000Y-24962500D01*
G75*
G02*
X14762500Y-24725000I237500J0D01*
G01*
G37*
%TD*%
%TO.C,R1*%
G36*
G01*
X12650000Y-34512500D02*
X12650000Y-34987500D01*
G75*
G02*
X12412500Y-35225000I-237500J0D01*
G01*
X11837500Y-35225000D01*
G75*
G02*
X11600000Y-34987500I0J237500D01*
G01*
X11600000Y-34512500D01*
G75*
G02*
X11837500Y-34275000I237500J0D01*
G01*
X12412500Y-34275000D01*
G75*
G02*
X12650000Y-34512500I0J-237500D01*
G01*
G37*
G36*
G01*
X14400000Y-34512500D02*
X14400000Y-34987500D01*
G75*
G02*
X14162500Y-35225000I-237500J0D01*
G01*
X13587500Y-35225000D01*
G75*
G02*
X13350000Y-34987500I0J237500D01*
G01*
X13350000Y-34512500D01*
G75*
G02*
X13587500Y-34275000I237500J0D01*
G01*
X14162500Y-34275000D01*
G75*
G02*
X14400000Y-34512500I0J-237500D01*
G01*
G37*
%TD*%
D13*
%TO.C,Q3*%
X33500000Y-16750000D03*
X34150000Y-18750000D03*
X32850000Y-18750000D03*
%TD*%
D10*
%TO.C,Q2*%
X12000000Y-32500000D03*
X14000000Y-31850000D03*
X14000000Y-33150000D03*
%TD*%
%TO.C,C5*%
G36*
G01*
X36525000Y-30074999D02*
X36525000Y-27925001D01*
G75*
G02*
X36775001Y-27675000I250001J0D01*
G01*
X37699999Y-27675000D01*
G75*
G02*
X37950000Y-27925001I0J-250001D01*
G01*
X37950000Y-30074999D01*
G75*
G02*
X37699999Y-30325000I-250001J0D01*
G01*
X36775001Y-30325000D01*
G75*
G02*
X36525000Y-30074999I0J250001D01*
G01*
G37*
G36*
G01*
X33550000Y-30074999D02*
X33550000Y-27925001D01*
G75*
G02*
X33800001Y-27675000I250001J0D01*
G01*
X34724999Y-27675000D01*
G75*
G02*
X34975000Y-27925001I0J-250001D01*
G01*
X34975000Y-30074999D01*
G75*
G02*
X34724999Y-30325000I-250001J0D01*
G01*
X33800001Y-30325000D01*
G75*
G02*
X33550000Y-30074999I0J250001D01*
G01*
G37*
%TD*%
D14*
%TO.C,Y1*%
X28675000Y-34500000D03*
X26825000Y-34500000D03*
%TD*%
D15*
%TO.C,U3*%
X21100000Y-20550000D03*
X21100000Y-22450000D03*
X18900000Y-22450000D03*
X18900000Y-21500000D03*
X18900000Y-20550000D03*
%TD*%
D16*
%TO.C,U2*%
X20950000Y-27350000D03*
X19050000Y-27350000D03*
X19050000Y-24650000D03*
X20000000Y-24650000D03*
X20950000Y-24650000D03*
%TD*%
%TO.C,U1*%
G36*
G01*
X27375000Y-25375000D02*
X27375000Y-25575000D01*
G75*
G02*
X27275000Y-25675000I-100000J0D01*
G01*
X26000000Y-25675000D01*
G75*
G02*
X25900000Y-25575000I0J100000D01*
G01*
X25900000Y-25375000D01*
G75*
G02*
X26000000Y-25275000I100000J0D01*
G01*
X27275000Y-25275000D01*
G75*
G02*
X27375000Y-25375000I0J-100000D01*
G01*
G37*
G36*
G01*
X27375000Y-24725000D02*
X27375000Y-24925000D01*
G75*
G02*
X27275000Y-25025000I-100000J0D01*
G01*
X26000000Y-25025000D01*
G75*
G02*
X25900000Y-24925000I0J100000D01*
G01*
X25900000Y-24725000D01*
G75*
G02*
X26000000Y-24625000I100000J0D01*
G01*
X27275000Y-24625000D01*
G75*
G02*
X27375000Y-24725000I0J-100000D01*
G01*
G37*
G36*
G01*
X27375000Y-24075000D02*
X27375000Y-24275000D01*
G75*
G02*
X27275000Y-24375000I-100000J0D01*
G01*
X26000000Y-24375000D01*
G75*
G02*
X25900000Y-24275000I0J100000D01*
G01*
X25900000Y-24075000D01*
G75*
G02*
X26000000Y-23975000I100000J0D01*
G01*
X27275000Y-23975000D01*
G75*
G02*
X27375000Y-24075000I0J-100000D01*
G01*
G37*
G36*
G01*
X27375000Y-23425000D02*
X27375000Y-23625000D01*
G75*
G02*
X27275000Y-23725000I-100000J0D01*
G01*
X26000000Y-23725000D01*
G75*
G02*
X25900000Y-23625000I0J100000D01*
G01*
X25900000Y-23425000D01*
G75*
G02*
X26000000Y-23325000I100000J0D01*
G01*
X27275000Y-23325000D01*
G75*
G02*
X27375000Y-23425000I0J-100000D01*
G01*
G37*
G36*
G01*
X33100000Y-23425000D02*
X33100000Y-23625000D01*
G75*
G02*
X33000000Y-23725000I-100000J0D01*
G01*
X31725000Y-23725000D01*
G75*
G02*
X31625000Y-23625000I0J100000D01*
G01*
X31625000Y-23425000D01*
G75*
G02*
X31725000Y-23325000I100000J0D01*
G01*
X33000000Y-23325000D01*
G75*
G02*
X33100000Y-23425000I0J-100000D01*
G01*
G37*
G36*
G01*
X33100000Y-24075000D02*
X33100000Y-24275000D01*
G75*
G02*
X33000000Y-24375000I-100000J0D01*
G01*
X31725000Y-24375000D01*
G75*
G02*
X31625000Y-24275000I0J100000D01*
G01*
X31625000Y-24075000D01*
G75*
G02*
X31725000Y-23975000I100000J0D01*
G01*
X33000000Y-23975000D01*
G75*
G02*
X33100000Y-24075000I0J-100000D01*
G01*
G37*
G36*
G01*
X33100000Y-24725000D02*
X33100000Y-24925000D01*
G75*
G02*
X33000000Y-25025000I-100000J0D01*
G01*
X31725000Y-25025000D01*
G75*
G02*
X31625000Y-24925000I0J100000D01*
G01*
X31625000Y-24725000D01*
G75*
G02*
X31725000Y-24625000I100000J0D01*
G01*
X33000000Y-24625000D01*
G75*
G02*
X33100000Y-24725000I0J-100000D01*
G01*
G37*
G36*
G01*
X33100000Y-25375000D02*
X33100000Y-25575000D01*
G75*
G02*
X33000000Y-25675000I-100000J0D01*
G01*
X31725000Y-25675000D01*
G75*
G02*
X31625000Y-25575000I0J100000D01*
G01*
X31625000Y-25375000D01*
G75*
G02*
X31725000Y-25275000I100000J0D01*
G01*
X33000000Y-25275000D01*
G75*
G02*
X33100000Y-25375000I0J-100000D01*
G01*
G37*
%TD*%
%TO.C,R12*%
G36*
G01*
X26987500Y-13525000D02*
X26512500Y-13525000D01*
G75*
G02*
X26275000Y-13287500I0J237500D01*
G01*
X26275000Y-12712500D01*
G75*
G02*
X26512500Y-12475000I237500J0D01*
G01*
X26987500Y-12475000D01*
G75*
G02*
X27225000Y-12712500I0J-237500D01*
G01*
X27225000Y-13287500D01*
G75*
G02*
X26987500Y-13525000I-237500J0D01*
G01*
G37*
G36*
G01*
X26987500Y-15275000D02*
X26512500Y-15275000D01*
G75*
G02*
X26275000Y-15037500I0J237500D01*
G01*
X26275000Y-14462500D01*
G75*
G02*
X26512500Y-14225000I237500J0D01*
G01*
X26987500Y-14225000D01*
G75*
G02*
X27225000Y-14462500I0J-237500D01*
G01*
X27225000Y-15037500D01*
G75*
G02*
X26987500Y-15275000I-237500J0D01*
G01*
G37*
%TD*%
%TO.C,R11*%
G36*
G01*
X24237500Y-13400000D02*
X23762500Y-13400000D01*
G75*
G02*
X23525000Y-13162500I0J237500D01*
G01*
X23525000Y-12587500D01*
G75*
G02*
X23762500Y-12350000I237500J0D01*
G01*
X24237500Y-12350000D01*
G75*
G02*
X24475000Y-12587500I0J-237500D01*
G01*
X24475000Y-13162500D01*
G75*
G02*
X24237500Y-13400000I-237500J0D01*
G01*
G37*
G36*
G01*
X24237500Y-15150000D02*
X23762500Y-15150000D01*
G75*
G02*
X23525000Y-14912500I0J237500D01*
G01*
X23525000Y-14337500D01*
G75*
G02*
X23762500Y-14100000I237500J0D01*
G01*
X24237500Y-14100000D01*
G75*
G02*
X24475000Y-14337500I0J-237500D01*
G01*
X24475000Y-14912500D01*
G75*
G02*
X24237500Y-15150000I-237500J0D01*
G01*
G37*
%TD*%
%TO.C,R10*%
G36*
G01*
X26775000Y-10512500D02*
X26775000Y-10987500D01*
G75*
G02*
X26537500Y-11225000I-237500J0D01*
G01*
X25962500Y-11225000D01*
G75*
G02*
X25725000Y-10987500I0J237500D01*
G01*
X25725000Y-10512500D01*
G75*
G02*
X25962500Y-10275000I237500J0D01*
G01*
X26537500Y-10275000D01*
G75*
G02*
X26775000Y-10512500I0J-237500D01*
G01*
G37*
G36*
G01*
X28525000Y-10512500D02*
X28525000Y-10987500D01*
G75*
G02*
X28287500Y-11225000I-237500J0D01*
G01*
X27712500Y-11225000D01*
G75*
G02*
X27475000Y-10987500I0J237500D01*
G01*
X27475000Y-10512500D01*
G75*
G02*
X27712500Y-10275000I237500J0D01*
G01*
X28287500Y-10275000D01*
G75*
G02*
X28525000Y-10512500I0J-237500D01*
G01*
G37*
%TD*%
%TO.C,R9*%
G36*
G01*
X22762500Y-21850000D02*
X23237500Y-21850000D01*
G75*
G02*
X23475000Y-22087500I0J-237500D01*
G01*
X23475000Y-22662500D01*
G75*
G02*
X23237500Y-22900000I-237500J0D01*
G01*
X22762500Y-22900000D01*
G75*
G02*
X22525000Y-22662500I0J237500D01*
G01*
X22525000Y-22087500D01*
G75*
G02*
X22762500Y-21850000I237500J0D01*
G01*
G37*
G36*
G01*
X22762500Y-20100000D02*
X23237500Y-20100000D01*
G75*
G02*
X23475000Y-20337500I0J-237500D01*
G01*
X23475000Y-20912500D01*
G75*
G02*
X23237500Y-21150000I-237500J0D01*
G01*
X22762500Y-21150000D01*
G75*
G02*
X22525000Y-20912500I0J237500D01*
G01*
X22525000Y-20337500D01*
G75*
G02*
X22762500Y-20100000I237500J0D01*
G01*
G37*
%TD*%
%TO.C,R5*%
G36*
G01*
X32025000Y-46012500D02*
X32025000Y-46487500D01*
G75*
G02*
X31787500Y-46725000I-237500J0D01*
G01*
X31212500Y-46725000D01*
G75*
G02*
X30975000Y-46487500I0J237500D01*
G01*
X30975000Y-46012500D01*
G75*
G02*
X31212500Y-45775000I237500J0D01*
G01*
X31787500Y-45775000D01*
G75*
G02*
X32025000Y-46012500I0J-237500D01*
G01*
G37*
G36*
G01*
X33775000Y-46012500D02*
X33775000Y-46487500D01*
G75*
G02*
X33537500Y-46725000I-237500J0D01*
G01*
X32962500Y-46725000D01*
G75*
G02*
X32725000Y-46487500I0J237500D01*
G01*
X32725000Y-46012500D01*
G75*
G02*
X32962500Y-45775000I237500J0D01*
G01*
X33537500Y-45775000D01*
G75*
G02*
X33775000Y-46012500I0J-237500D01*
G01*
G37*
%TD*%
%TO.C,R4*%
G36*
G01*
X26987500Y-19025000D02*
X26512500Y-19025000D01*
G75*
G02*
X26275000Y-18787500I0J237500D01*
G01*
X26275000Y-18212500D01*
G75*
G02*
X26512500Y-17975000I237500J0D01*
G01*
X26987500Y-17975000D01*
G75*
G02*
X27225000Y-18212500I0J-237500D01*
G01*
X27225000Y-18787500D01*
G75*
G02*
X26987500Y-19025000I-237500J0D01*
G01*
G37*
G36*
G01*
X26987500Y-20775000D02*
X26512500Y-20775000D01*
G75*
G02*
X26275000Y-20537500I0J237500D01*
G01*
X26275000Y-19962500D01*
G75*
G02*
X26512500Y-19725000I237500J0D01*
G01*
X26987500Y-19725000D01*
G75*
G02*
X27225000Y-19962500I0J-237500D01*
G01*
X27225000Y-20537500D01*
G75*
G02*
X26987500Y-20775000I-237500J0D01*
G01*
G37*
%TD*%
%TO.C,R3*%
G36*
G01*
X25487500Y-19025000D02*
X25012500Y-19025000D01*
G75*
G02*
X24775000Y-18787500I0J237500D01*
G01*
X24775000Y-18212500D01*
G75*
G02*
X25012500Y-17975000I237500J0D01*
G01*
X25487500Y-17975000D01*
G75*
G02*
X25725000Y-18212500I0J-237500D01*
G01*
X25725000Y-18787500D01*
G75*
G02*
X25487500Y-19025000I-237500J0D01*
G01*
G37*
G36*
G01*
X25487500Y-20775000D02*
X25012500Y-20775000D01*
G75*
G02*
X24775000Y-20537500I0J237500D01*
G01*
X24775000Y-19962500D01*
G75*
G02*
X25012500Y-19725000I237500J0D01*
G01*
X25487500Y-19725000D01*
G75*
G02*
X25725000Y-19962500I0J-237500D01*
G01*
X25725000Y-20537500D01*
G75*
G02*
X25487500Y-20775000I-237500J0D01*
G01*
G37*
%TD*%
D13*
%TO.C,Q1*%
X16250000Y-59000000D03*
X16900000Y-61000000D03*
X15600000Y-61000000D03*
%TD*%
%TO.C,L2*%
G36*
G01*
X35262500Y-49475000D02*
X35737500Y-49475000D01*
G75*
G02*
X35975000Y-49712500I0J-237500D01*
G01*
X35975000Y-50287500D01*
G75*
G02*
X35737500Y-50525000I-237500J0D01*
G01*
X35262500Y-50525000D01*
G75*
G02*
X35025000Y-50287500I0J237500D01*
G01*
X35025000Y-49712500D01*
G75*
G02*
X35262500Y-49475000I237500J0D01*
G01*
G37*
G36*
G01*
X35262500Y-47725000D02*
X35737500Y-47725000D01*
G75*
G02*
X35975000Y-47962500I0J-237500D01*
G01*
X35975000Y-48537500D01*
G75*
G02*
X35737500Y-48775000I-237500J0D01*
G01*
X35262500Y-48775000D01*
G75*
G02*
X35025000Y-48537500I0J237500D01*
G01*
X35025000Y-47962500D01*
G75*
G02*
X35262500Y-47725000I237500J0D01*
G01*
G37*
%TD*%
%TO.C,L1*%
G36*
G01*
X19525000Y-29262500D02*
X19525000Y-29737500D01*
G75*
G02*
X19287500Y-29975000I-237500J0D01*
G01*
X18712500Y-29975000D01*
G75*
G02*
X18475000Y-29737500I0J237500D01*
G01*
X18475000Y-29262500D01*
G75*
G02*
X18712500Y-29025000I237500J0D01*
G01*
X19287500Y-29025000D01*
G75*
G02*
X19525000Y-29262500I0J-237500D01*
G01*
G37*
G36*
G01*
X21275000Y-29262500D02*
X21275000Y-29737500D01*
G75*
G02*
X21037500Y-29975000I-237500J0D01*
G01*
X20462500Y-29975000D01*
G75*
G02*
X20225000Y-29737500I0J237500D01*
G01*
X20225000Y-29262500D01*
G75*
G02*
X20462500Y-29025000I237500J0D01*
G01*
X21037500Y-29025000D01*
G75*
G02*
X21275000Y-29262500I0J-237500D01*
G01*
G37*
%TD*%
D17*
%TO.C,J1*%
X30750000Y-63400000D03*
X30250000Y-63400000D03*
X29750000Y-63400000D03*
X29250000Y-63400000D03*
X28750000Y-63400000D03*
X28250000Y-63400000D03*
X27750000Y-63400000D03*
X27250000Y-63400000D03*
X26750000Y-63400000D03*
X26250000Y-63400000D03*
X25750000Y-63400000D03*
X25250000Y-63400000D03*
X24750000Y-63400000D03*
X24250000Y-63400000D03*
X23750000Y-63400000D03*
X23250000Y-63400000D03*
X22750000Y-63400000D03*
X22250000Y-63400000D03*
X21750000Y-63400000D03*
X21250000Y-63400000D03*
X20750000Y-63400000D03*
X20250000Y-63400000D03*
X19750000Y-63400000D03*
X19250000Y-63400000D03*
D18*
X17350000Y-66650000D03*
X32650000Y-66650000D03*
%TD*%
D19*
%TO.C,IC2*%
X35600000Y-32700000D03*
X34700000Y-32700000D03*
X33800000Y-32700000D03*
X32900000Y-32700000D03*
X35600000Y-31800000D03*
X34700000Y-31800000D03*
X33800000Y-31800000D03*
X32900000Y-31800000D03*
%TD*%
D20*
%TO.C,IC1*%
X29650000Y-48250000D03*
X29650000Y-47150000D03*
X29650000Y-46350000D03*
X29650000Y-44750000D03*
X28750000Y-44350000D03*
X29650000Y-43950000D03*
X28750000Y-43550000D03*
X29650000Y-43150000D03*
X28750000Y-42750000D03*
X29650000Y-42350000D03*
X28750000Y-41950000D03*
X29650000Y-41550000D03*
X28750000Y-41150000D03*
X29650000Y-40750000D03*
D21*
X29800000Y-37350000D03*
X29000000Y-37350000D03*
X28200000Y-37350000D03*
X27400000Y-37350000D03*
X27000000Y-38250000D03*
X26600000Y-37350000D03*
X26200000Y-38250000D03*
X25800000Y-37350000D03*
X25400000Y-38250000D03*
X25000000Y-37350000D03*
X24600000Y-38250000D03*
X24200000Y-37350000D03*
X23800000Y-38250000D03*
X23400000Y-37350000D03*
X23000000Y-38250000D03*
X22600000Y-37350000D03*
X21800000Y-37350000D03*
X21000000Y-37350000D03*
X20200000Y-37350000D03*
D20*
X20350000Y-38350000D03*
X20350000Y-39150000D03*
X21250000Y-39550000D03*
X20350000Y-39950000D03*
X21250000Y-40350000D03*
X20350000Y-40750000D03*
X21250000Y-41150000D03*
X20350000Y-41550000D03*
X21250000Y-41950000D03*
X21250000Y-42750000D03*
X20350000Y-43150000D03*
X21250000Y-43550000D03*
X20350000Y-43950000D03*
X21250000Y-44350000D03*
X20350000Y-44750000D03*
X21250000Y-45150000D03*
X21250000Y-45950000D03*
X20350000Y-46350000D03*
X21250000Y-46750000D03*
X20350000Y-47150000D03*
X21250000Y-47550000D03*
X20350000Y-48250000D03*
D21*
X27000000Y-43950000D03*
X26200000Y-43950000D03*
X25400000Y-43950000D03*
X24600000Y-43950000D03*
X23800000Y-43950000D03*
X23000000Y-43950000D03*
%TD*%
%TO.C,D6*%
G36*
G01*
X23025000Y-10512500D02*
X23025000Y-10987500D01*
G75*
G02*
X22787500Y-11225000I-237500J0D01*
G01*
X22212500Y-11225000D01*
G75*
G02*
X21975000Y-10987500I0J237500D01*
G01*
X21975000Y-10512500D01*
G75*
G02*
X22212500Y-10275000I237500J0D01*
G01*
X22787500Y-10275000D01*
G75*
G02*
X23025000Y-10512500I0J-237500D01*
G01*
G37*
G36*
G01*
X24775000Y-10512500D02*
X24775000Y-10987500D01*
G75*
G02*
X24537500Y-11225000I-237500J0D01*
G01*
X23962500Y-11225000D01*
G75*
G02*
X23725000Y-10987500I0J237500D01*
G01*
X23725000Y-10512500D01*
G75*
G02*
X23962500Y-10275000I237500J0D01*
G01*
X24537500Y-10275000D01*
G75*
G02*
X24775000Y-10512500I0J-237500D01*
G01*
G37*
%TD*%
D22*
%TO.C,D5*%
X35500000Y-54900000D03*
X35500000Y-51600000D03*
%TD*%
%TO.C,D4*%
X33500000Y-61500000D03*
X33500000Y-58200000D03*
%TD*%
%TO.C,D2*%
G36*
G01*
X38350000Y-32487500D02*
X38350000Y-32012500D01*
G75*
G02*
X38587500Y-31775000I237500J0D01*
G01*
X39162500Y-31775000D01*
G75*
G02*
X39400000Y-32012500I0J-237500D01*
G01*
X39400000Y-32487500D01*
G75*
G02*
X39162500Y-32725000I-237500J0D01*
G01*
X38587500Y-32725000D01*
G75*
G02*
X38350000Y-32487500I0J237500D01*
G01*
G37*
G36*
G01*
X36600000Y-32487500D02*
X36600000Y-32012500D01*
G75*
G02*
X36837500Y-31775000I237500J0D01*
G01*
X37412500Y-31775000D01*
G75*
G02*
X37650000Y-32012500I0J-237500D01*
G01*
X37650000Y-32487500D01*
G75*
G02*
X37412500Y-32725000I-237500J0D01*
G01*
X36837500Y-32725000D01*
G75*
G02*
X36600000Y-32487500I0J237500D01*
G01*
G37*
%TD*%
%TO.C,C19*%
G36*
G01*
X31012500Y-59725000D02*
X31487500Y-59725000D01*
G75*
G02*
X31725000Y-59962500I0J-237500D01*
G01*
X31725000Y-60537500D01*
G75*
G02*
X31487500Y-60775000I-237500J0D01*
G01*
X31012500Y-60775000D01*
G75*
G02*
X30775000Y-60537500I0J237500D01*
G01*
X30775000Y-59962500D01*
G75*
G02*
X31012500Y-59725000I237500J0D01*
G01*
G37*
G36*
G01*
X31012500Y-57975000D02*
X31487500Y-57975000D01*
G75*
G02*
X31725000Y-58212500I0J-237500D01*
G01*
X31725000Y-58787500D01*
G75*
G02*
X31487500Y-59025000I-237500J0D01*
G01*
X31012500Y-59025000D01*
G75*
G02*
X30775000Y-58787500I0J237500D01*
G01*
X30775000Y-58212500D01*
G75*
G02*
X31012500Y-57975000I237500J0D01*
G01*
G37*
%TD*%
%TO.C,C18*%
G36*
G01*
X29512500Y-59725000D02*
X29987500Y-59725000D01*
G75*
G02*
X30225000Y-59962500I0J-237500D01*
G01*
X30225000Y-60537500D01*
G75*
G02*
X29987500Y-60775000I-237500J0D01*
G01*
X29512500Y-60775000D01*
G75*
G02*
X29275000Y-60537500I0J237500D01*
G01*
X29275000Y-59962500D01*
G75*
G02*
X29512500Y-59725000I237500J0D01*
G01*
G37*
G36*
G01*
X29512500Y-57975000D02*
X29987500Y-57975000D01*
G75*
G02*
X30225000Y-58212500I0J-237500D01*
G01*
X30225000Y-58787500D01*
G75*
G02*
X29987500Y-59025000I-237500J0D01*
G01*
X29512500Y-59025000D01*
G75*
G02*
X29275000Y-58787500I0J237500D01*
G01*
X29275000Y-58212500D01*
G75*
G02*
X29512500Y-57975000I237500J0D01*
G01*
G37*
%TD*%
%TO.C,C17*%
G36*
G01*
X28012500Y-59725000D02*
X28487500Y-59725000D01*
G75*
G02*
X28725000Y-59962500I0J-237500D01*
G01*
X28725000Y-60537500D01*
G75*
G02*
X28487500Y-60775000I-237500J0D01*
G01*
X28012500Y-60775000D01*
G75*
G02*
X27775000Y-60537500I0J237500D01*
G01*
X27775000Y-59962500D01*
G75*
G02*
X28012500Y-59725000I237500J0D01*
G01*
G37*
G36*
G01*
X28012500Y-57975000D02*
X28487500Y-57975000D01*
G75*
G02*
X28725000Y-58212500I0J-237500D01*
G01*
X28725000Y-58787500D01*
G75*
G02*
X28487500Y-59025000I-237500J0D01*
G01*
X28012500Y-59025000D01*
G75*
G02*
X27775000Y-58787500I0J237500D01*
G01*
X27775000Y-58212500D01*
G75*
G02*
X28012500Y-57975000I237500J0D01*
G01*
G37*
%TD*%
%TO.C,C16*%
G36*
G01*
X19762500Y-60225000D02*
X20237500Y-60225000D01*
G75*
G02*
X20475000Y-60462500I0J-237500D01*
G01*
X20475000Y-61037500D01*
G75*
G02*
X20237500Y-61275000I-237500J0D01*
G01*
X19762500Y-61275000D01*
G75*
G02*
X19525000Y-61037500I0J237500D01*
G01*
X19525000Y-60462500D01*
G75*
G02*
X19762500Y-60225000I237500J0D01*
G01*
G37*
G36*
G01*
X19762500Y-58475000D02*
X20237500Y-58475000D01*
G75*
G02*
X20475000Y-58712500I0J-237500D01*
G01*
X20475000Y-59287500D01*
G75*
G02*
X20237500Y-59525000I-237500J0D01*
G01*
X19762500Y-59525000D01*
G75*
G02*
X19525000Y-59287500I0J237500D01*
G01*
X19525000Y-58712500D01*
G75*
G02*
X19762500Y-58475000I237500J0D01*
G01*
G37*
%TD*%
%TO.C,C14*%
G36*
G01*
X18262500Y-60225000D02*
X18737500Y-60225000D01*
G75*
G02*
X18975000Y-60462500I0J-237500D01*
G01*
X18975000Y-61037500D01*
G75*
G02*
X18737500Y-61275000I-237500J0D01*
G01*
X18262500Y-61275000D01*
G75*
G02*
X18025000Y-61037500I0J237500D01*
G01*
X18025000Y-60462500D01*
G75*
G02*
X18262500Y-60225000I237500J0D01*
G01*
G37*
G36*
G01*
X18262500Y-58475000D02*
X18737500Y-58475000D01*
G75*
G02*
X18975000Y-58712500I0J-237500D01*
G01*
X18975000Y-59287500D01*
G75*
G02*
X18737500Y-59525000I-237500J0D01*
G01*
X18262500Y-59525000D01*
G75*
G02*
X18025000Y-59287500I0J237500D01*
G01*
X18025000Y-58712500D01*
G75*
G02*
X18262500Y-58475000I237500J0D01*
G01*
G37*
%TD*%
%TO.C,C13*%
G36*
G01*
X26512500Y-59725000D02*
X26987500Y-59725000D01*
G75*
G02*
X27225000Y-59962500I0J-237500D01*
G01*
X27225000Y-60537500D01*
G75*
G02*
X26987500Y-60775000I-237500J0D01*
G01*
X26512500Y-60775000D01*
G75*
G02*
X26275000Y-60537500I0J237500D01*
G01*
X26275000Y-59962500D01*
G75*
G02*
X26512500Y-59725000I237500J0D01*
G01*
G37*
G36*
G01*
X26512500Y-57975000D02*
X26987500Y-57975000D01*
G75*
G02*
X27225000Y-58212500I0J-237500D01*
G01*
X27225000Y-58787500D01*
G75*
G02*
X26987500Y-59025000I-237500J0D01*
G01*
X26512500Y-59025000D01*
G75*
G02*
X26275000Y-58787500I0J237500D01*
G01*
X26275000Y-58212500D01*
G75*
G02*
X26512500Y-57975000I237500J0D01*
G01*
G37*
%TD*%
%TO.C,C8*%
G36*
G01*
X34725000Y-56737500D02*
X34725000Y-56262500D01*
G75*
G02*
X34962500Y-56025000I237500J0D01*
G01*
X35537500Y-56025000D01*
G75*
G02*
X35775000Y-56262500I0J-237500D01*
G01*
X35775000Y-56737500D01*
G75*
G02*
X35537500Y-56975000I-237500J0D01*
G01*
X34962500Y-56975000D01*
G75*
G02*
X34725000Y-56737500I0J237500D01*
G01*
G37*
G36*
G01*
X32975000Y-56737500D02*
X32975000Y-56262500D01*
G75*
G02*
X33212500Y-56025000I237500J0D01*
G01*
X33787500Y-56025000D01*
G75*
G02*
X34025000Y-56262500I0J-237500D01*
G01*
X34025000Y-56737500D01*
G75*
G02*
X33787500Y-56975000I-237500J0D01*
G01*
X33212500Y-56975000D01*
G75*
G02*
X32975000Y-56737500I0J237500D01*
G01*
G37*
%TD*%
%TO.C,C7*%
G36*
G01*
X17487500Y-28275000D02*
X17012500Y-28275000D01*
G75*
G02*
X16775000Y-28037500I0J237500D01*
G01*
X16775000Y-27462500D01*
G75*
G02*
X17012500Y-27225000I237500J0D01*
G01*
X17487500Y-27225000D01*
G75*
G02*
X17725000Y-27462500I0J-237500D01*
G01*
X17725000Y-28037500D01*
G75*
G02*
X17487500Y-28275000I-237500J0D01*
G01*
G37*
G36*
G01*
X17487500Y-30025000D02*
X17012500Y-30025000D01*
G75*
G02*
X16775000Y-29787500I0J237500D01*
G01*
X16775000Y-29212500D01*
G75*
G02*
X17012500Y-28975000I237500J0D01*
G01*
X17487500Y-28975000D01*
G75*
G02*
X17725000Y-29212500I0J-237500D01*
G01*
X17725000Y-29787500D01*
G75*
G02*
X17487500Y-30025000I-237500J0D01*
G01*
G37*
%TD*%
%TO.C,C4*%
G36*
G01*
X17012500Y-25475000D02*
X17487500Y-25475000D01*
G75*
G02*
X17725000Y-25712500I0J-237500D01*
G01*
X17725000Y-26287500D01*
G75*
G02*
X17487500Y-26525000I-237500J0D01*
G01*
X17012500Y-26525000D01*
G75*
G02*
X16775000Y-26287500I0J237500D01*
G01*
X16775000Y-25712500D01*
G75*
G02*
X17012500Y-25475000I237500J0D01*
G01*
G37*
G36*
G01*
X17012500Y-23725000D02*
X17487500Y-23725000D01*
G75*
G02*
X17725000Y-23962500I0J-237500D01*
G01*
X17725000Y-24537500D01*
G75*
G02*
X17487500Y-24775000I-237500J0D01*
G01*
X17012500Y-24775000D01*
G75*
G02*
X16775000Y-24537500I0J237500D01*
G01*
X16775000Y-23962500D01*
G75*
G02*
X17012500Y-23725000I237500J0D01*
G01*
G37*
%TD*%
%TO.C,C3*%
G36*
G01*
X23237500Y-34525000D02*
X22762500Y-34525000D01*
G75*
G02*
X22525000Y-34287500I0J237500D01*
G01*
X22525000Y-33712500D01*
G75*
G02*
X22762500Y-33475000I237500J0D01*
G01*
X23237500Y-33475000D01*
G75*
G02*
X23475000Y-33712500I0J-237500D01*
G01*
X23475000Y-34287500D01*
G75*
G02*
X23237500Y-34525000I-237500J0D01*
G01*
G37*
G36*
G01*
X23237500Y-36275000D02*
X22762500Y-36275000D01*
G75*
G02*
X22525000Y-36037500I0J237500D01*
G01*
X22525000Y-35462500D01*
G75*
G02*
X22762500Y-35225000I237500J0D01*
G01*
X23237500Y-35225000D01*
G75*
G02*
X23475000Y-35462500I0J-237500D01*
G01*
X23475000Y-36037500D01*
G75*
G02*
X23237500Y-36275000I-237500J0D01*
G01*
G37*
%TD*%
%TO.C,C2*%
G36*
G01*
X26512500Y-32225000D02*
X26987500Y-32225000D01*
G75*
G02*
X27225000Y-32462500I0J-237500D01*
G01*
X27225000Y-33037500D01*
G75*
G02*
X26987500Y-33275000I-237500J0D01*
G01*
X26512500Y-33275000D01*
G75*
G02*
X26275000Y-33037500I0J237500D01*
G01*
X26275000Y-32462500D01*
G75*
G02*
X26512500Y-32225000I237500J0D01*
G01*
G37*
G36*
G01*
X26512500Y-30475000D02*
X26987500Y-30475000D01*
G75*
G02*
X27225000Y-30712500I0J-237500D01*
G01*
X27225000Y-31287500D01*
G75*
G02*
X26987500Y-31525000I-237500J0D01*
G01*
X26512500Y-31525000D01*
G75*
G02*
X26275000Y-31287500I0J237500D01*
G01*
X26275000Y-30712500D01*
G75*
G02*
X26512500Y-30475000I237500J0D01*
G01*
G37*
%TD*%
%TO.C,C1*%
G36*
G01*
X28512500Y-32225000D02*
X28987500Y-32225000D01*
G75*
G02*
X29225000Y-32462500I0J-237500D01*
G01*
X29225000Y-33037500D01*
G75*
G02*
X28987500Y-33275000I-237500J0D01*
G01*
X28512500Y-33275000D01*
G75*
G02*
X28275000Y-33037500I0J237500D01*
G01*
X28275000Y-32462500D01*
G75*
G02*
X28512500Y-32225000I237500J0D01*
G01*
G37*
G36*
G01*
X28512500Y-30475000D02*
X28987500Y-30475000D01*
G75*
G02*
X29225000Y-30712500I0J-237500D01*
G01*
X29225000Y-31287500D01*
G75*
G02*
X28987500Y-31525000I-237500J0D01*
G01*
X28512500Y-31525000D01*
G75*
G02*
X28275000Y-31287500I0J237500D01*
G01*
X28275000Y-30712500D01*
G75*
G02*
X28512500Y-30475000I237500J0D01*
G01*
G37*
%TD*%
M02*
