%TF.GenerationSoftware,KiCad,Pcbnew,(5.99.0-2309-gaf729d578)*%
%TF.CreationDate,2020-07-18T18:02:01-04:00*%
%TF.ProjectId,mk2,6d6b322e-6b69-4636-9164-5f7063625858,rev?*%
%TF.SameCoordinates,Original*%
%TF.FileFunction,Copper,L1,Top*%
%TF.FilePolarity,Positive*%
%FSLAX46Y46*%
G04 Gerber Fmt 4.6, Leading zero omitted, Abs format (unit mm)*
G04 Created by KiCad (PCBNEW (5.99.0-2309-gaf729d578)) date 2020-07-18 18:02:01*
%MOMM*%
%LPD*%
G01*
G04 APERTURE LIST*
%TA.AperFunction,ComponentPad*%
%ADD10O,1.200000X1.750000*%
%TD*%
%TA.AperFunction,ComponentPad*%
%ADD11O,0.850000X0.850000*%
%TD*%
%TA.AperFunction,ComponentPad*%
%ADD12R,0.850000X0.850000*%
%TD*%
%TA.AperFunction,SMDPad,CuDef*%
%ADD13R,0.700000X0.450000*%
%TD*%
%TA.AperFunction,ComponentPad*%
%ADD14O,0.900000X1.700000*%
%TD*%
%TA.AperFunction,ComponentPad*%
%ADD15O,0.900000X2.000000*%
%TD*%
%TA.AperFunction,SMDPad,CuDef*%
%ADD16R,0.800000X1.450000*%
%TD*%
%TA.AperFunction,SMDPad,CuDef*%
%ADD17R,1.270000X0.900000*%
%TD*%
%TA.AperFunction,SMDPad,CuDef*%
%ADD18R,0.450000X0.700000*%
%TD*%
%TA.AperFunction,ComponentPad*%
%ADD19O,1.700000X1.700000*%
%TD*%
%TA.AperFunction,ComponentPad*%
%ADD20R,1.700000X1.700000*%
%TD*%
%TA.AperFunction,SMDPad,CuDef*%
%ADD21R,1.050000X1.100000*%
%TD*%
%TA.AperFunction,SMDPad,CuDef*%
%ADD22R,1.060000X0.650000*%
%TD*%
%TA.AperFunction,SMDPad,CuDef*%
%ADD23R,0.650000X1.560000*%
%TD*%
%TA.AperFunction,SMDPad,CuDef*%
%ADD24R,0.300000X1.300000*%
%TD*%
%TA.AperFunction,SMDPad,CuDef*%
%ADD25R,1.800000X2.200000*%
%TD*%
%TA.AperFunction,SMDPad,CuDef*%
%ADD26R,0.400000X0.420000*%
%TD*%
%TA.AperFunction,SMDPad,CuDef*%
%ADD27R,0.600000X0.400000*%
%TD*%
%TA.AperFunction,SMDPad,CuDef*%
%ADD28R,0.400000X0.600000*%
%TD*%
%TA.AperFunction,SMDPad,CuDef*%
%ADD29R,1.200000X0.900000*%
%TD*%
%TA.AperFunction,ViaPad*%
%ADD30C,0.500000*%
%TD*%
%TA.AperFunction,Conductor*%
%ADD31C,0.180000*%
%TD*%
%TA.AperFunction,Conductor*%
%ADD32C,0.254000*%
%TD*%
G04 APERTURE END LIST*
D10*
%TO.P,BT1,2,-*%
%TO.N,GND*%
X15250000Y-20500000D03*
%TO.P,BT1,1,+*%
%TO.N,+BATT*%
%TA.AperFunction,ComponentPad*%
G36*
G01*
X12650000Y-21125000D02*
X12650000Y-19875000D01*
G75*
G02*
X12900000Y-19625000I250000J0D01*
G01*
X13600000Y-19625000D01*
G75*
G02*
X13850000Y-19875000I0J-250000D01*
G01*
X13850000Y-21125000D01*
G75*
G02*
X13600000Y-21375000I-250000J0D01*
G01*
X12900000Y-21375000D01*
G75*
G02*
X12650000Y-21125000I0J250000D01*
G01*
G37*
%TD.AperFunction*%
%TD*%
D11*
%TO.P,J3,2,Pin_2*%
%TO.N,Net-(J3-Pad2)*%
X38250000Y-51750000D03*
D12*
%TO.P,J3,1,Pin_1*%
%TO.N,Net-(J3-Pad1)*%
X38250000Y-52750000D03*
%TD*%
%TO.P,R16,2*%
%TO.N,Net-(J3-Pad1)*%
%TA.AperFunction,SMDPad,CuDef*%
G36*
G01*
X35487500Y-42525000D02*
X35012500Y-42525000D01*
G75*
G02*
X34775000Y-42287500I0J237500D01*
G01*
X34775000Y-41712500D01*
G75*
G02*
X35012500Y-41475000I237500J0D01*
G01*
X35487500Y-41475000D01*
G75*
G02*
X35725000Y-41712500I0J-237500D01*
G01*
X35725000Y-42287500D01*
G75*
G02*
X35487500Y-42525000I-237500J0D01*
G01*
G37*
%TD.AperFunction*%
%TO.P,R16,1*%
%TO.N,VCC*%
%TA.AperFunction,SMDPad,CuDef*%
G36*
G01*
X35487500Y-44275000D02*
X35012500Y-44275000D01*
G75*
G02*
X34775000Y-44037500I0J237500D01*
G01*
X34775000Y-43462500D01*
G75*
G02*
X35012500Y-43225000I237500J0D01*
G01*
X35487500Y-43225000D01*
G75*
G02*
X35725000Y-43462500I0J-237500D01*
G01*
X35725000Y-44037500D01*
G75*
G02*
X35487500Y-44275000I-237500J0D01*
G01*
G37*
%TD.AperFunction*%
%TD*%
%TO.P,R15,2*%
%TO.N,GND*%
%TA.AperFunction,SMDPad,CuDef*%
G36*
G01*
X37762500Y-49600000D02*
X38237500Y-49600000D01*
G75*
G02*
X38475000Y-49837500I0J-237500D01*
G01*
X38475000Y-50412500D01*
G75*
G02*
X38237500Y-50650000I-237500J0D01*
G01*
X37762500Y-50650000D01*
G75*
G02*
X37525000Y-50412500I0J237500D01*
G01*
X37525000Y-49837500D01*
G75*
G02*
X37762500Y-49600000I237500J0D01*
G01*
G37*
%TD.AperFunction*%
%TO.P,R15,1*%
%TO.N,BUZZER*%
%TA.AperFunction,SMDPad,CuDef*%
G36*
G01*
X37762500Y-47850000D02*
X38237500Y-47850000D01*
G75*
G02*
X38475000Y-48087500I0J-237500D01*
G01*
X38475000Y-48662500D01*
G75*
G02*
X38237500Y-48900000I-237500J0D01*
G01*
X37762500Y-48900000D01*
G75*
G02*
X37525000Y-48662500I0J237500D01*
G01*
X37525000Y-48087500D01*
G75*
G02*
X37762500Y-47850000I237500J0D01*
G01*
G37*
%TD.AperFunction*%
%TD*%
D13*
%TO.P,Q4,3,D*%
%TO.N,Net-(J3-Pad2)*%
X38750000Y-46000000D03*
%TO.P,Q4,2,S*%
%TO.N,GND*%
X36750000Y-46650000D03*
%TO.P,Q4,1,G*%
%TO.N,BUZZER*%
X36750000Y-45350000D03*
%TD*%
D14*
%TO.P,J2,S1,SHIELD*%
%TO.N,GND*%
X29320000Y-12010000D03*
X20680000Y-12010000D03*
D15*
X29320000Y-16180000D03*
X20680000Y-16180000D03*
%TD*%
D16*
%TO.P,SW5,4*%
%TO.N,N/C*%
X11250000Y-63375000D03*
%TO.P,SW5,3*%
X11250000Y-56625000D03*
D17*
%TO.P,SW5,2,2*%
%TO.N,BUTTON4*%
X13135000Y-62100000D03*
%TO.P,SW5,1,1*%
%TO.N,GND*%
X13135000Y-57900000D03*
%TD*%
D16*
%TO.P,SW4,4*%
%TO.N,N/C*%
X11250000Y-43375000D03*
%TO.P,SW4,3*%
X11250000Y-36625000D03*
D17*
%TO.P,SW4,2,2*%
%TO.N,BUTTON3*%
X13135000Y-42100000D03*
%TO.P,SW4,1,1*%
%TO.N,GND*%
X13135000Y-37900000D03*
%TD*%
D16*
%TO.P,SW3,4*%
%TO.N,N/C*%
X38750000Y-56625000D03*
%TO.P,SW3,3*%
X38750000Y-63375000D03*
D17*
%TO.P,SW3,2,2*%
%TO.N,BUTTON2*%
X36865000Y-57900000D03*
%TO.P,SW3,1,1*%
%TO.N,GND*%
X36865000Y-62100000D03*
%TD*%
D16*
%TO.P,SW2,4*%
%TO.N,N/C*%
X38750000Y-36625000D03*
%TO.P,SW2,3*%
X38750000Y-43375000D03*
D17*
%TO.P,SW2,2,2*%
%TO.N,BUTTON1*%
X36865000Y-37900000D03*
%TO.P,SW2,1,1*%
%TO.N,GND*%
X36865000Y-42100000D03*
%TD*%
D16*
%TO.P,SW1,4*%
%TO.N,N/C*%
X38750000Y-16625000D03*
%TO.P,SW1,3*%
X38750000Y-23375000D03*
D17*
%TO.P,SW1,2,2*%
%TO.N,BUTTON5*%
X36865000Y-17900000D03*
%TO.P,SW1,1,1*%
%TO.N,GND*%
X36865000Y-22100000D03*
%TD*%
%TO.P,R14,2*%
%TO.N,Net-(D8-Pad2)*%
%TA.AperFunction,SMDPad,CuDef*%
G36*
G01*
X33225000Y-20737500D02*
X33225000Y-20262500D01*
G75*
G02*
X33462500Y-20025000I237500J0D01*
G01*
X34037500Y-20025000D01*
G75*
G02*
X34275000Y-20262500I0J-237500D01*
G01*
X34275000Y-20737500D01*
G75*
G02*
X34037500Y-20975000I-237500J0D01*
G01*
X33462500Y-20975000D01*
G75*
G02*
X33225000Y-20737500I0J237500D01*
G01*
G37*
%TD.AperFunction*%
%TO.P,R14,1*%
%TO.N,VIN*%
%TA.AperFunction,SMDPad,CuDef*%
G36*
G01*
X31475000Y-20737500D02*
X31475000Y-20262500D01*
G75*
G02*
X31712500Y-20025000I237500J0D01*
G01*
X32287500Y-20025000D01*
G75*
G02*
X32525000Y-20262500I0J-237500D01*
G01*
X32525000Y-20737500D01*
G75*
G02*
X32287500Y-20975000I-237500J0D01*
G01*
X31712500Y-20975000D01*
G75*
G02*
X31475000Y-20737500I0J237500D01*
G01*
G37*
%TD.AperFunction*%
%TD*%
%TO.P,R13,2*%
%TO.N,GND*%
%TA.AperFunction,SMDPad,CuDef*%
G36*
G01*
X31487500Y-17525000D02*
X31012500Y-17525000D01*
G75*
G02*
X30775000Y-17287500I0J237500D01*
G01*
X30775000Y-16712500D01*
G75*
G02*
X31012500Y-16475000I237500J0D01*
G01*
X31487500Y-16475000D01*
G75*
G02*
X31725000Y-16712500I0J-237500D01*
G01*
X31725000Y-17287500D01*
G75*
G02*
X31487500Y-17525000I-237500J0D01*
G01*
G37*
%TD.AperFunction*%
%TO.P,R13,1*%
%TO.N,BACKLIGHT*%
%TA.AperFunction,SMDPad,CuDef*%
G36*
G01*
X31487500Y-19275000D02*
X31012500Y-19275000D01*
G75*
G02*
X30775000Y-19037500I0J237500D01*
G01*
X30775000Y-18462500D01*
G75*
G02*
X31012500Y-18225000I237500J0D01*
G01*
X31487500Y-18225000D01*
G75*
G02*
X31725000Y-18462500I0J-237500D01*
G01*
X31725000Y-19037500D01*
G75*
G02*
X31487500Y-19275000I-237500J0D01*
G01*
G37*
%TD.AperFunction*%
%TD*%
%TO.P,R2,2*%
%TO.N,Net-(D7-Pad2)*%
%TA.AperFunction,SMDPad,CuDef*%
G36*
G01*
X14762500Y-26475000D02*
X15237500Y-26475000D01*
G75*
G02*
X15475000Y-26712500I0J-237500D01*
G01*
X15475000Y-27287500D01*
G75*
G02*
X15237500Y-27525000I-237500J0D01*
G01*
X14762500Y-27525000D01*
G75*
G02*
X14525000Y-27287500I0J237500D01*
G01*
X14525000Y-26712500D01*
G75*
G02*
X14762500Y-26475000I237500J0D01*
G01*
G37*
%TD.AperFunction*%
%TO.P,R2,1*%
%TO.N,VIN*%
%TA.AperFunction,SMDPad,CuDef*%
G36*
G01*
X14762500Y-24725000D02*
X15237500Y-24725000D01*
G75*
G02*
X15475000Y-24962500I0J-237500D01*
G01*
X15475000Y-25537500D01*
G75*
G02*
X15237500Y-25775000I-237500J0D01*
G01*
X14762500Y-25775000D01*
G75*
G02*
X14525000Y-25537500I0J237500D01*
G01*
X14525000Y-24962500D01*
G75*
G02*
X14762500Y-24725000I237500J0D01*
G01*
G37*
%TD.AperFunction*%
%TD*%
%TO.P,R1,2*%
%TO.N,GND*%
%TA.AperFunction,SMDPad,CuDef*%
G36*
G01*
X12650000Y-34512500D02*
X12650000Y-34987500D01*
G75*
G02*
X12412500Y-35225000I-237500J0D01*
G01*
X11837500Y-35225000D01*
G75*
G02*
X11600000Y-34987500I0J237500D01*
G01*
X11600000Y-34512500D01*
G75*
G02*
X11837500Y-34275000I237500J0D01*
G01*
X12412500Y-34275000D01*
G75*
G02*
X12650000Y-34512500I0J-237500D01*
G01*
G37*
%TD.AperFunction*%
%TO.P,R1,1*%
%TO.N,FLASHLIGHT*%
%TA.AperFunction,SMDPad,CuDef*%
G36*
G01*
X14400000Y-34512500D02*
X14400000Y-34987500D01*
G75*
G02*
X14162500Y-35225000I-237500J0D01*
G01*
X13587500Y-35225000D01*
G75*
G02*
X13350000Y-34987500I0J237500D01*
G01*
X13350000Y-34512500D01*
G75*
G02*
X13587500Y-34275000I237500J0D01*
G01*
X14162500Y-34275000D01*
G75*
G02*
X14400000Y-34512500I0J-237500D01*
G01*
G37*
%TD.AperFunction*%
%TD*%
D18*
%TO.P,Q3,3,D*%
%TO.N,Net-(D8-Pad1)*%
X33500000Y-16750000D03*
%TO.P,Q3,2,S*%
%TO.N,GND*%
X34150000Y-18750000D03*
%TO.P,Q3,1,G*%
%TO.N,BACKLIGHT*%
X32850000Y-18750000D03*
%TD*%
D13*
%TO.P,Q2,3,D*%
%TO.N,Net-(D7-Pad1)*%
X12000000Y-32500000D03*
%TO.P,Q2,2,S*%
%TO.N,GND*%
X14000000Y-31850000D03*
%TO.P,Q2,1,G*%
%TO.N,FLASHLIGHT*%
X14000000Y-33150000D03*
%TD*%
D19*
%TO.P,D8,2,A*%
%TO.N,Net-(D8-Pad2)*%
X33960000Y-14000000D03*
D20*
%TO.P,D8,1,K*%
%TO.N,Net-(D8-Pad1)*%
X36500000Y-14000000D03*
%TD*%
D19*
%TO.P,D7,2,A*%
%TO.N,Net-(D7-Pad2)*%
X12250000Y-28790000D03*
D20*
%TO.P,D7,1,K*%
%TO.N,Net-(D7-Pad1)*%
X12250000Y-26250000D03*
%TD*%
%TO.P,C5,2*%
%TO.N,GND*%
%TA.AperFunction,SMDPad,CuDef*%
G36*
G01*
X36525000Y-30074999D02*
X36525000Y-27925001D01*
G75*
G02*
X36775001Y-27675000I250001J0D01*
G01*
X37699999Y-27675000D01*
G75*
G02*
X37950000Y-27925001I0J-250001D01*
G01*
X37950000Y-30074999D01*
G75*
G02*
X37699999Y-30325000I-250001J0D01*
G01*
X36775001Y-30325000D01*
G75*
G02*
X36525000Y-30074999I0J250001D01*
G01*
G37*
%TD.AperFunction*%
%TO.P,C5,1*%
%TO.N,Net-(C5-Pad1)*%
%TA.AperFunction,SMDPad,CuDef*%
G36*
G01*
X33550000Y-30074999D02*
X33550000Y-27925001D01*
G75*
G02*
X33800001Y-27675000I250001J0D01*
G01*
X34724999Y-27675000D01*
G75*
G02*
X34975000Y-27925001I0J-250001D01*
G01*
X34975000Y-30074999D01*
G75*
G02*
X34724999Y-30325000I-250001J0D01*
G01*
X33800001Y-30325000D01*
G75*
G02*
X33550000Y-30074999I0J250001D01*
G01*
G37*
%TD.AperFunction*%
%TD*%
D21*
%TO.P,Y1,2,2*%
%TO.N,/XL1*%
X28675000Y-34500000D03*
%TO.P,Y1,1,1*%
%TO.N,/XL2*%
X26825000Y-34500000D03*
%TD*%
D22*
%TO.P,U3,5,PROG*%
%TO.N,Net-(R9-Pad1)*%
X21100000Y-20550000D03*
%TO.P,U3,4,VDD*%
%TO.N,VUSB*%
X21100000Y-22450000D03*
%TO.P,U3,3,VBAT*%
%TO.N,+BATT*%
X18900000Y-22450000D03*
%TO.P,U3,2,VSS*%
%TO.N,GND*%
X18900000Y-21500000D03*
%TO.P,U3,1,STAT*%
%TO.N,Net-(R10-Pad1)*%
X18900000Y-20550000D03*
%TD*%
D23*
%TO.P,U2,5,SW*%
%TO.N,Net-(L1-Pad1)*%
X20950000Y-27350000D03*
%TO.P,U2,4,FB*%
%TO.N,VCC*%
X19050000Y-27350000D03*
%TO.P,U2,3,EN*%
%TO.N,VIN*%
X19050000Y-24650000D03*
%TO.P,U2,2,GND*%
%TO.N,GND*%
X20000000Y-24650000D03*
%TO.P,U2,1,VIN*%
%TO.N,VIN*%
X20950000Y-24650000D03*
%TD*%
%TO.P,U1,8,VCC*%
%TO.N,VCC*%
%TA.AperFunction,SMDPad,CuDef*%
G36*
G01*
X27375000Y-25375000D02*
X27375000Y-25575000D01*
G75*
G02*
X27275000Y-25675000I-100000J0D01*
G01*
X26000000Y-25675000D01*
G75*
G02*
X25900000Y-25575000I0J100000D01*
G01*
X25900000Y-25375000D01*
G75*
G02*
X26000000Y-25275000I100000J0D01*
G01*
X27275000Y-25275000D01*
G75*
G02*
X27375000Y-25375000I0J-100000D01*
G01*
G37*
%TD.AperFunction*%
%TO.P,U1,7,~HOLD~/IO3*%
%TA.AperFunction,SMDPad,CuDef*%
G36*
G01*
X27375000Y-24725000D02*
X27375000Y-24925000D01*
G75*
G02*
X27275000Y-25025000I-100000J0D01*
G01*
X26000000Y-25025000D01*
G75*
G02*
X25900000Y-24925000I0J100000D01*
G01*
X25900000Y-24725000D01*
G75*
G02*
X26000000Y-24625000I100000J0D01*
G01*
X27275000Y-24625000D01*
G75*
G02*
X27375000Y-24725000I0J-100000D01*
G01*
G37*
%TD.AperFunction*%
%TO.P,U1,6,SCK*%
%TO.N,FLASH_CLK*%
%TA.AperFunction,SMDPad,CuDef*%
G36*
G01*
X27375000Y-24075000D02*
X27375000Y-24275000D01*
G75*
G02*
X27275000Y-24375000I-100000J0D01*
G01*
X26000000Y-24375000D01*
G75*
G02*
X25900000Y-24275000I0J100000D01*
G01*
X25900000Y-24075000D01*
G75*
G02*
X26000000Y-23975000I100000J0D01*
G01*
X27275000Y-23975000D01*
G75*
G02*
X27375000Y-24075000I0J-100000D01*
G01*
G37*
%TD.AperFunction*%
%TO.P,U1,5,SI/IO0*%
%TO.N,FLASH_DI*%
%TA.AperFunction,SMDPad,CuDef*%
G36*
G01*
X27375000Y-23425000D02*
X27375000Y-23625000D01*
G75*
G02*
X27275000Y-23725000I-100000J0D01*
G01*
X26000000Y-23725000D01*
G75*
G02*
X25900000Y-23625000I0J100000D01*
G01*
X25900000Y-23425000D01*
G75*
G02*
X26000000Y-23325000I100000J0D01*
G01*
X27275000Y-23325000D01*
G75*
G02*
X27375000Y-23425000I0J-100000D01*
G01*
G37*
%TD.AperFunction*%
%TO.P,U1,4,GND*%
%TO.N,GND*%
%TA.AperFunction,SMDPad,CuDef*%
G36*
G01*
X33100000Y-23425000D02*
X33100000Y-23625000D01*
G75*
G02*
X33000000Y-23725000I-100000J0D01*
G01*
X31725000Y-23725000D01*
G75*
G02*
X31625000Y-23625000I0J100000D01*
G01*
X31625000Y-23425000D01*
G75*
G02*
X31725000Y-23325000I100000J0D01*
G01*
X33000000Y-23325000D01*
G75*
G02*
X33100000Y-23425000I0J-100000D01*
G01*
G37*
%TD.AperFunction*%
%TO.P,U1,3,~WP~/IO2*%
%TO.N,VCC*%
%TA.AperFunction,SMDPad,CuDef*%
G36*
G01*
X33100000Y-24075000D02*
X33100000Y-24275000D01*
G75*
G02*
X33000000Y-24375000I-100000J0D01*
G01*
X31725000Y-24375000D01*
G75*
G02*
X31625000Y-24275000I0J100000D01*
G01*
X31625000Y-24075000D01*
G75*
G02*
X31725000Y-23975000I100000J0D01*
G01*
X33000000Y-23975000D01*
G75*
G02*
X33100000Y-24075000I0J-100000D01*
G01*
G37*
%TD.AperFunction*%
%TO.P,U1,2,SO/IO1*%
%TO.N,FLASH_DO*%
%TA.AperFunction,SMDPad,CuDef*%
G36*
G01*
X33100000Y-24725000D02*
X33100000Y-24925000D01*
G75*
G02*
X33000000Y-25025000I-100000J0D01*
G01*
X31725000Y-25025000D01*
G75*
G02*
X31625000Y-24925000I0J100000D01*
G01*
X31625000Y-24725000D01*
G75*
G02*
X31725000Y-24625000I100000J0D01*
G01*
X33000000Y-24625000D01*
G75*
G02*
X33100000Y-24725000I0J-100000D01*
G01*
G37*
%TD.AperFunction*%
%TO.P,U1,1,~CS*%
%TO.N,FLASH_CS*%
%TA.AperFunction,SMDPad,CuDef*%
G36*
G01*
X33100000Y-25375000D02*
X33100000Y-25575000D01*
G75*
G02*
X33000000Y-25675000I-100000J0D01*
G01*
X31725000Y-25675000D01*
G75*
G02*
X31625000Y-25575000I0J100000D01*
G01*
X31625000Y-25375000D01*
G75*
G02*
X31725000Y-25275000I100000J0D01*
G01*
X33000000Y-25275000D01*
G75*
G02*
X33100000Y-25375000I0J-100000D01*
G01*
G37*
%TD.AperFunction*%
%TD*%
%TO.P,R12,2*%
%TO.N,GND*%
%TA.AperFunction,SMDPad,CuDef*%
G36*
G01*
X26987500Y-13525000D02*
X26512500Y-13525000D01*
G75*
G02*
X26275000Y-13287500I0J237500D01*
G01*
X26275000Y-12712500D01*
G75*
G02*
X26512500Y-12475000I237500J0D01*
G01*
X26987500Y-12475000D01*
G75*
G02*
X27225000Y-12712500I0J-237500D01*
G01*
X27225000Y-13287500D01*
G75*
G02*
X26987500Y-13525000I-237500J0D01*
G01*
G37*
%TD.AperFunction*%
%TO.P,R12,1*%
%TO.N,Net-(J2-PadB5)*%
%TA.AperFunction,SMDPad,CuDef*%
G36*
G01*
X26987500Y-15275000D02*
X26512500Y-15275000D01*
G75*
G02*
X26275000Y-15037500I0J237500D01*
G01*
X26275000Y-14462500D01*
G75*
G02*
X26512500Y-14225000I237500J0D01*
G01*
X26987500Y-14225000D01*
G75*
G02*
X27225000Y-14462500I0J-237500D01*
G01*
X27225000Y-15037500D01*
G75*
G02*
X26987500Y-15275000I-237500J0D01*
G01*
G37*
%TD.AperFunction*%
%TD*%
%TO.P,R11,2*%
%TO.N,GND*%
%TA.AperFunction,SMDPad,CuDef*%
G36*
G01*
X24237500Y-13400000D02*
X23762500Y-13400000D01*
G75*
G02*
X23525000Y-13162500I0J237500D01*
G01*
X23525000Y-12587500D01*
G75*
G02*
X23762500Y-12350000I237500J0D01*
G01*
X24237500Y-12350000D01*
G75*
G02*
X24475000Y-12587500I0J-237500D01*
G01*
X24475000Y-13162500D01*
G75*
G02*
X24237500Y-13400000I-237500J0D01*
G01*
G37*
%TD.AperFunction*%
%TO.P,R11,1*%
%TO.N,Net-(J2-PadA5)*%
%TA.AperFunction,SMDPad,CuDef*%
G36*
G01*
X24237500Y-15150000D02*
X23762500Y-15150000D01*
G75*
G02*
X23525000Y-14912500I0J237500D01*
G01*
X23525000Y-14337500D01*
G75*
G02*
X23762500Y-14100000I237500J0D01*
G01*
X24237500Y-14100000D01*
G75*
G02*
X24475000Y-14337500I0J-237500D01*
G01*
X24475000Y-14912500D01*
G75*
G02*
X24237500Y-15150000I-237500J0D01*
G01*
G37*
%TD.AperFunction*%
%TD*%
%TO.P,R10,2*%
%TO.N,Net-(D6-Pad1)*%
%TA.AperFunction,SMDPad,CuDef*%
G36*
G01*
X26775000Y-10512500D02*
X26775000Y-10987500D01*
G75*
G02*
X26537500Y-11225000I-237500J0D01*
G01*
X25962500Y-11225000D01*
G75*
G02*
X25725000Y-10987500I0J237500D01*
G01*
X25725000Y-10512500D01*
G75*
G02*
X25962500Y-10275000I237500J0D01*
G01*
X26537500Y-10275000D01*
G75*
G02*
X26775000Y-10512500I0J-237500D01*
G01*
G37*
%TD.AperFunction*%
%TO.P,R10,1*%
%TO.N,Net-(R10-Pad1)*%
%TA.AperFunction,SMDPad,CuDef*%
G36*
G01*
X28525000Y-10512500D02*
X28525000Y-10987500D01*
G75*
G02*
X28287500Y-11225000I-237500J0D01*
G01*
X27712500Y-11225000D01*
G75*
G02*
X27475000Y-10987500I0J237500D01*
G01*
X27475000Y-10512500D01*
G75*
G02*
X27712500Y-10275000I237500J0D01*
G01*
X28287500Y-10275000D01*
G75*
G02*
X28525000Y-10512500I0J-237500D01*
G01*
G37*
%TD.AperFunction*%
%TD*%
%TO.P,R9,2*%
%TO.N,GND*%
%TA.AperFunction,SMDPad,CuDef*%
G36*
G01*
X22762500Y-21850000D02*
X23237500Y-21850000D01*
G75*
G02*
X23475000Y-22087500I0J-237500D01*
G01*
X23475000Y-22662500D01*
G75*
G02*
X23237500Y-22900000I-237500J0D01*
G01*
X22762500Y-22900000D01*
G75*
G02*
X22525000Y-22662500I0J237500D01*
G01*
X22525000Y-22087500D01*
G75*
G02*
X22762500Y-21850000I237500J0D01*
G01*
G37*
%TD.AperFunction*%
%TO.P,R9,1*%
%TO.N,Net-(R9-Pad1)*%
%TA.AperFunction,SMDPad,CuDef*%
G36*
G01*
X22762500Y-20100000D02*
X23237500Y-20100000D01*
G75*
G02*
X23475000Y-20337500I0J-237500D01*
G01*
X23475000Y-20912500D01*
G75*
G02*
X23237500Y-21150000I-237500J0D01*
G01*
X22762500Y-21150000D01*
G75*
G02*
X22525000Y-20912500I0J237500D01*
G01*
X22525000Y-20337500D01*
G75*
G02*
X22762500Y-20100000I237500J0D01*
G01*
G37*
%TD.AperFunction*%
%TD*%
%TO.P,R5,2*%
%TO.N,BOOTLOAD*%
%TA.AperFunction,SMDPad,CuDef*%
G36*
G01*
X32025000Y-46012500D02*
X32025000Y-46487500D01*
G75*
G02*
X31787500Y-46725000I-237500J0D01*
G01*
X31212500Y-46725000D01*
G75*
G02*
X30975000Y-46487500I0J237500D01*
G01*
X30975000Y-46012500D01*
G75*
G02*
X31212500Y-45775000I237500J0D01*
G01*
X31787500Y-45775000D01*
G75*
G02*
X32025000Y-46012500I0J-237500D01*
G01*
G37*
%TD.AperFunction*%
%TO.P,R5,1*%
%TO.N,VCC*%
%TA.AperFunction,SMDPad,CuDef*%
G36*
G01*
X33775000Y-46012500D02*
X33775000Y-46487500D01*
G75*
G02*
X33537500Y-46725000I-237500J0D01*
G01*
X32962500Y-46725000D01*
G75*
G02*
X32725000Y-46487500I0J237500D01*
G01*
X32725000Y-46012500D01*
G75*
G02*
X32962500Y-45775000I237500J0D01*
G01*
X33537500Y-45775000D01*
G75*
G02*
X33775000Y-46012500I0J-237500D01*
G01*
G37*
%TD.AperFunction*%
%TD*%
%TO.P,R4,2*%
%TO.N,USB_DP*%
%TA.AperFunction,SMDPad,CuDef*%
G36*
G01*
X26987500Y-19025000D02*
X26512500Y-19025000D01*
G75*
G02*
X26275000Y-18787500I0J237500D01*
G01*
X26275000Y-18212500D01*
G75*
G02*
X26512500Y-17975000I237500J0D01*
G01*
X26987500Y-17975000D01*
G75*
G02*
X27225000Y-18212500I0J-237500D01*
G01*
X27225000Y-18787500D01*
G75*
G02*
X26987500Y-19025000I-237500J0D01*
G01*
G37*
%TD.AperFunction*%
%TO.P,R4,1*%
%TO.N,Net-(IC1-Pad35)*%
%TA.AperFunction,SMDPad,CuDef*%
G36*
G01*
X26987500Y-20775000D02*
X26512500Y-20775000D01*
G75*
G02*
X26275000Y-20537500I0J237500D01*
G01*
X26275000Y-19962500D01*
G75*
G02*
X26512500Y-19725000I237500J0D01*
G01*
X26987500Y-19725000D01*
G75*
G02*
X27225000Y-19962500I0J-237500D01*
G01*
X27225000Y-20537500D01*
G75*
G02*
X26987500Y-20775000I-237500J0D01*
G01*
G37*
%TD.AperFunction*%
%TD*%
%TO.P,R3,2*%
%TO.N,USB_DN*%
%TA.AperFunction,SMDPad,CuDef*%
G36*
G01*
X25487500Y-19025000D02*
X25012500Y-19025000D01*
G75*
G02*
X24775000Y-18787500I0J237500D01*
G01*
X24775000Y-18212500D01*
G75*
G02*
X25012500Y-17975000I237500J0D01*
G01*
X25487500Y-17975000D01*
G75*
G02*
X25725000Y-18212500I0J-237500D01*
G01*
X25725000Y-18787500D01*
G75*
G02*
X25487500Y-19025000I-237500J0D01*
G01*
G37*
%TD.AperFunction*%
%TO.P,R3,1*%
%TO.N,Net-(IC1-Pad34)*%
%TA.AperFunction,SMDPad,CuDef*%
G36*
G01*
X25487500Y-20775000D02*
X25012500Y-20775000D01*
G75*
G02*
X24775000Y-20537500I0J237500D01*
G01*
X24775000Y-19962500D01*
G75*
G02*
X25012500Y-19725000I237500J0D01*
G01*
X25487500Y-19725000D01*
G75*
G02*
X25725000Y-19962500I0J-237500D01*
G01*
X25725000Y-20537500D01*
G75*
G02*
X25487500Y-20775000I-237500J0D01*
G01*
G37*
%TD.AperFunction*%
%TD*%
D18*
%TO.P,Q1,3,D*%
%TO.N,Net-(C8-Pad1)*%
X16250000Y-59000000D03*
%TO.P,Q1,2,S*%
%TO.N,/EPRESE*%
X16900000Y-61000000D03*
%TO.P,Q1,1,G*%
%TO.N,/EPGDR*%
X15600000Y-61000000D03*
%TD*%
%TO.P,L2,2,2*%
%TO.N,Net-(C8-Pad1)*%
%TA.AperFunction,SMDPad,CuDef*%
G36*
G01*
X35262500Y-49475000D02*
X35737500Y-49475000D01*
G75*
G02*
X35975000Y-49712500I0J-237500D01*
G01*
X35975000Y-50287500D01*
G75*
G02*
X35737500Y-50525000I-237500J0D01*
G01*
X35262500Y-50525000D01*
G75*
G02*
X35025000Y-50287500I0J237500D01*
G01*
X35025000Y-49712500D01*
G75*
G02*
X35262500Y-49475000I237500J0D01*
G01*
G37*
%TD.AperFunction*%
%TO.P,L2,1,1*%
%TO.N,VCC*%
%TA.AperFunction,SMDPad,CuDef*%
G36*
G01*
X35262500Y-47725000D02*
X35737500Y-47725000D01*
G75*
G02*
X35975000Y-47962500I0J-237500D01*
G01*
X35975000Y-48537500D01*
G75*
G02*
X35737500Y-48775000I-237500J0D01*
G01*
X35262500Y-48775000D01*
G75*
G02*
X35025000Y-48537500I0J237500D01*
G01*
X35025000Y-47962500D01*
G75*
G02*
X35262500Y-47725000I237500J0D01*
G01*
G37*
%TD.AperFunction*%
%TD*%
%TO.P,L1,2,2*%
%TO.N,VCC*%
%TA.AperFunction,SMDPad,CuDef*%
G36*
G01*
X19525000Y-29262500D02*
X19525000Y-29737500D01*
G75*
G02*
X19287500Y-29975000I-237500J0D01*
G01*
X18712500Y-29975000D01*
G75*
G02*
X18475000Y-29737500I0J237500D01*
G01*
X18475000Y-29262500D01*
G75*
G02*
X18712500Y-29025000I237500J0D01*
G01*
X19287500Y-29025000D01*
G75*
G02*
X19525000Y-29262500I0J-237500D01*
G01*
G37*
%TD.AperFunction*%
%TO.P,L1,1,1*%
%TO.N,Net-(L1-Pad1)*%
%TA.AperFunction,SMDPad,CuDef*%
G36*
G01*
X21275000Y-29262500D02*
X21275000Y-29737500D01*
G75*
G02*
X21037500Y-29975000I-237500J0D01*
G01*
X20462500Y-29975000D01*
G75*
G02*
X20225000Y-29737500I0J237500D01*
G01*
X20225000Y-29262500D01*
G75*
G02*
X20462500Y-29025000I237500J0D01*
G01*
X21037500Y-29025000D01*
G75*
G02*
X21275000Y-29262500I0J-237500D01*
G01*
G37*
%TD.AperFunction*%
%TD*%
D24*
%TO.P,J1,24,Pin_24*%
%TO.N,/EPVCOM*%
X30750000Y-63400000D03*
%TO.P,J1,23,Pin_23*%
%TO.N,/EPPREVGL*%
X30250000Y-63400000D03*
%TO.P,J1,22,Pin_22*%
%TO.N,/EPVSL*%
X29750000Y-63400000D03*
%TO.P,J1,21,Pin_21*%
%TO.N,/EPPREVGH*%
X29250000Y-63400000D03*
%TO.P,J1,20,Pin_20*%
%TO.N,/EPVSH*%
X28750000Y-63400000D03*
%TO.P,J1,19,Pin_19*%
%TO.N,/EPVPP*%
X28250000Y-63400000D03*
%TO.P,J1,18,Pin_18*%
%TO.N,/EPVDD*%
X27750000Y-63400000D03*
%TO.P,J1,17,Pin_17*%
%TO.N,GND*%
X27250000Y-63400000D03*
%TO.P,J1,16,Pin_16*%
%TO.N,VCC*%
X26750000Y-63400000D03*
%TO.P,J1,15,Pin_15*%
X26250000Y-63400000D03*
%TO.P,J1,14,Pin_14*%
%TO.N,EPSDIN*%
X25750000Y-63400000D03*
%TO.P,J1,13,Pin_13*%
%TO.N,EPSCLK*%
X25250000Y-63400000D03*
%TO.P,J1,12,Pin_12*%
%TO.N,EPCS*%
X24750000Y-63400000D03*
%TO.P,J1,11,Pin_11*%
%TO.N,EPDC*%
X24250000Y-63400000D03*
%TO.P,J1,10,Pin_10*%
%TO.N,EPRES*%
X23750000Y-63400000D03*
%TO.P,J1,9,Pin_9*%
%TO.N,EPBUSY*%
X23250000Y-63400000D03*
%TO.P,J1,8,Pin_8*%
%TO.N,GND*%
X22750000Y-63400000D03*
%TO.P,J1,7,Pin_7*%
%TO.N,N/C*%
X22250000Y-63400000D03*
%TO.P,J1,6,Pin_6*%
X21750000Y-63400000D03*
%TO.P,J1,5,Pin_5*%
%TO.N,/EPVGH*%
X21250000Y-63400000D03*
%TO.P,J1,4,Pin_4*%
%TO.N,/EPVGL*%
X20750000Y-63400000D03*
%TO.P,J1,3,Pin_3*%
%TO.N,/EPRESE*%
X20250000Y-63400000D03*
%TO.P,J1,2,Pin_2*%
%TO.N,/EPGDR*%
X19750000Y-63400000D03*
%TO.P,J1,1,Pin_1*%
%TO.N,N/C*%
X19250000Y-63400000D03*
D25*
%TO.P,J1,MP*%
X17350000Y-66650000D03*
X32650000Y-66650000D03*
%TD*%
D26*
%TO.P,IC2,4*%
%TO.N,N/C*%
X35600000Y-32700000D03*
%TO.P,IC2,3,VSS*%
%TO.N,GND*%
X34700000Y-32700000D03*
%TO.P,IC2,2,SQW*%
%TO.N,SQW*%
X33800000Y-32700000D03*
%TO.P,IC2,1,SDA*%
%TO.N,SDA*%
X32900000Y-32700000D03*
%TO.P,IC2,5,VCC*%
%TO.N,Net-(C5-Pad1)*%
X35600000Y-31800000D03*
%TO.P,IC2,6,~IRQ/OUT~*%
%TO.N,RTCIRQ*%
X34700000Y-31800000D03*
%TO.P,IC2,7*%
%TO.N,N/C*%
X33800000Y-31800000D03*
%TO.P,IC2,8,SCL*%
%TO.N,SCL*%
X32900000Y-31800000D03*
%TD*%
D27*
%TO.P,IC1,1,GND_1*%
%TO.N,GND*%
X29650000Y-48250000D03*
%TO.P,IC1,2,GND_2*%
X29650000Y-47150000D03*
%TO.P,IC1,3,P1.10*%
%TO.N,BOOTLOAD*%
X29650000Y-46350000D03*
%TO.P,IC1,4,P1.11*%
%TO.N,N/C*%
X29650000Y-44750000D03*
%TO.P,IC1,5,P1.12*%
X28750000Y-44350000D03*
%TO.P,IC1,6,P1.13*%
%TO.N,BUZZER*%
X29650000Y-43950000D03*
%TO.P,IC1,7,P1.14*%
%TO.N,N/C*%
X28750000Y-43550000D03*
%TO.P,IC1,8,P1.15*%
%TO.N,BUTTON2*%
X29650000Y-43150000D03*
%TO.P,IC1,9,P0.03*%
%TO.N,N/C*%
X28750000Y-42750000D03*
%TO.P,IC1,10,P0.29*%
%TO.N,BUTTON1*%
X29650000Y-42350000D03*
%TO.P,IC1,11,P0.02*%
%TO.N,N/C*%
X28750000Y-41950000D03*
%TO.P,IC1,12,P0.31*%
%TO.N,BUTTON5*%
X29650000Y-41550000D03*
%TO.P,IC1,13,P0.28*%
%TO.N,SQW*%
X28750000Y-41150000D03*
%TO.P,IC1,14,P0.30*%
%TO.N,RTCIRQ*%
X29650000Y-40750000D03*
D28*
%TO.P,IC1,15,GND_3*%
%TO.N,GND*%
X29800000Y-37350000D03*
%TO.P,IC1,16,P0.27*%
%TO.N,SCL*%
X29000000Y-37350000D03*
%TO.P,IC1,17,P0.00/XL1*%
%TO.N,/XL1*%
X28200000Y-37350000D03*
%TO.P,IC1,18,P0.01/XL2*%
%TO.N,/XL2*%
X27400000Y-37350000D03*
%TO.P,IC1,19,P0.26*%
%TO.N,SDA*%
X27000000Y-38250000D03*
%TO.P,IC1,20,P0.04*%
%TO.N,FLASH_CS*%
X26600000Y-37350000D03*
%TO.P,IC1,21,P0.05*%
%TO.N,BACKLIGHT*%
X26200000Y-38250000D03*
%TO.P,IC1,22,P0.06*%
%TO.N,FLASH_DO*%
X25800000Y-37350000D03*
%TO.P,IC1,23,P0.07*%
%TO.N,N/C*%
X25400000Y-38250000D03*
%TO.P,IC1,24,P0.08*%
%TO.N,FLASH_CLK*%
X25000000Y-37350000D03*
%TO.P,IC1,25,P1.08*%
%TO.N,N/C*%
X24600000Y-38250000D03*
%TO.P,IC1,26,P1.09*%
%TO.N,FLASH_DI*%
X24200000Y-37350000D03*
%TO.P,IC1,27,P0.11*%
%TO.N,N/C*%
X23800000Y-38250000D03*
%TO.P,IC1,28,VDD*%
%TO.N,VCC*%
X23400000Y-37350000D03*
%TO.P,IC1,29,P0.12*%
%TO.N,N/C*%
X23000000Y-38250000D03*
%TO.P,IC1,30,VDDH*%
%TO.N,VCC*%
X22600000Y-37350000D03*
%TO.P,IC1,31,DCCH*%
%TO.N,N/C*%
X21800000Y-37350000D03*
%TO.P,IC1,32,VBUS*%
%TO.N,VUSB*%
X21000000Y-37350000D03*
%TO.P,IC1,33,GND_4*%
%TO.N,GND*%
X20200000Y-37350000D03*
D27*
%TO.P,IC1,34,D-*%
%TO.N,Net-(IC1-Pad34)*%
X20350000Y-38350000D03*
%TO.P,IC1,35,D+*%
%TO.N,Net-(IC1-Pad35)*%
X20350000Y-39150000D03*
%TO.P,IC1,36,P0.14*%
%TO.N,FLASHLIGHT*%
X21250000Y-39550000D03*
%TO.P,IC1,37,P0.13*%
%TO.N,N/C*%
X20350000Y-39950000D03*
%TO.P,IC1,38,P0.16*%
X21250000Y-40350000D03*
%TO.P,IC1,39,P0.15*%
X20350000Y-40750000D03*
%TO.P,IC1,40,P0.18/RESET*%
%TO.N,RST*%
X21250000Y-41150000D03*
%TO.P,IC1,41,P0.17*%
%TO.N,N/C*%
X20350000Y-41550000D03*
%TO.P,IC1,42,P0.19*%
X21250000Y-41950000D03*
%TO.P,IC1,43,P0.21*%
%TO.N,EPSDIN*%
X21250000Y-42750000D03*
%TO.P,IC1,44,P0.20*%
%TO.N,EPSCLK*%
X20350000Y-43150000D03*
%TO.P,IC1,45,P0.23*%
%TO.N,EPCS*%
X21250000Y-43550000D03*
%TO.P,IC1,46,P0.22*%
%TO.N,EPDC*%
X20350000Y-43950000D03*
%TO.P,IC1,47,P1.00*%
%TO.N,EPRES*%
X21250000Y-44350000D03*
%TO.P,IC1,48,P0.24*%
%TO.N,EPBUSY*%
X20350000Y-44750000D03*
%TO.P,IC1,49,P0.25*%
%TO.N,N/C*%
X21250000Y-45150000D03*
%TO.P,IC1,50,P1.02*%
X21250000Y-45950000D03*
%TO.P,IC1,51,SWDIO*%
%TO.N,SWDIO*%
X20350000Y-46350000D03*
%TO.P,IC1,52,P0.09/NFC1*%
%TO.N,BUTTON3*%
X21250000Y-46750000D03*
%TO.P,IC1,53,SWDCLK*%
%TO.N,SWDCLK*%
X20350000Y-47150000D03*
%TO.P,IC1,54,P0.10/NFC2*%
%TO.N,BUTTON4*%
X21250000Y-47550000D03*
%TO.P,IC1,55,GND_5*%
%TO.N,GND*%
X20350000Y-48250000D03*
D28*
%TO.P,IC1,56,P1.04*%
%TO.N,N/C*%
X27000000Y-43950000D03*
%TO.P,IC1,57,P1.06*%
X26200000Y-43950000D03*
%TO.P,IC1,58,P1.07*%
X25400000Y-43950000D03*
%TO.P,IC1,59,P1.05*%
X24600000Y-43950000D03*
%TO.P,IC1,60,P1.03*%
X23800000Y-43950000D03*
%TO.P,IC1,61,P1.01*%
X23000000Y-43950000D03*
%TD*%
%TO.P,D6,2,A*%
%TO.N,VUSB*%
%TA.AperFunction,SMDPad,CuDef*%
G36*
G01*
X23025000Y-10512500D02*
X23025000Y-10987500D01*
G75*
G02*
X22787500Y-11225000I-237500J0D01*
G01*
X22212500Y-11225000D01*
G75*
G02*
X21975000Y-10987500I0J237500D01*
G01*
X21975000Y-10512500D01*
G75*
G02*
X22212500Y-10275000I237500J0D01*
G01*
X22787500Y-10275000D01*
G75*
G02*
X23025000Y-10512500I0J-237500D01*
G01*
G37*
%TD.AperFunction*%
%TO.P,D6,1,K*%
%TO.N,Net-(D6-Pad1)*%
%TA.AperFunction,SMDPad,CuDef*%
G36*
G01*
X24775000Y-10512500D02*
X24775000Y-10987500D01*
G75*
G02*
X24537500Y-11225000I-237500J0D01*
G01*
X23962500Y-11225000D01*
G75*
G02*
X23725000Y-10987500I0J237500D01*
G01*
X23725000Y-10512500D01*
G75*
G02*
X23962500Y-10275000I237500J0D01*
G01*
X24537500Y-10275000D01*
G75*
G02*
X24775000Y-10512500I0J-237500D01*
G01*
G37*
%TD.AperFunction*%
%TD*%
D29*
%TO.P,D5,2,A*%
%TO.N,Net-(C8-Pad2)*%
X35500000Y-54900000D03*
%TO.P,D5,1,K*%
%TO.N,GND*%
X35500000Y-51600000D03*
%TD*%
%TO.P,D4,2,A*%
%TO.N,/EPPREVGL*%
X33500000Y-61500000D03*
%TO.P,D4,1,K*%
%TO.N,Net-(C8-Pad2)*%
X33500000Y-58200000D03*
%TD*%
%TO.P,D2,2,A*%
%TO.N,VCC*%
%TA.AperFunction,SMDPad,CuDef*%
G36*
G01*
X38350000Y-32487500D02*
X38350000Y-32012500D01*
G75*
G02*
X38587500Y-31775000I237500J0D01*
G01*
X39162500Y-31775000D01*
G75*
G02*
X39400000Y-32012500I0J-237500D01*
G01*
X39400000Y-32487500D01*
G75*
G02*
X39162500Y-32725000I-237500J0D01*
G01*
X38587500Y-32725000D01*
G75*
G02*
X38350000Y-32487500I0J237500D01*
G01*
G37*
%TD.AperFunction*%
%TO.P,D2,1,K*%
%TO.N,Net-(C5-Pad1)*%
%TA.AperFunction,SMDPad,CuDef*%
G36*
G01*
X36600000Y-32487500D02*
X36600000Y-32012500D01*
G75*
G02*
X36837500Y-31775000I237500J0D01*
G01*
X37412500Y-31775000D01*
G75*
G02*
X37650000Y-32012500I0J-237500D01*
G01*
X37650000Y-32487500D01*
G75*
G02*
X37412500Y-32725000I-237500J0D01*
G01*
X36837500Y-32725000D01*
G75*
G02*
X36600000Y-32487500I0J237500D01*
G01*
G37*
%TD.AperFunction*%
%TD*%
%TO.P,C19,2*%
%TO.N,/EPVCOM*%
%TA.AperFunction,SMDPad,CuDef*%
G36*
G01*
X31012500Y-59725000D02*
X31487500Y-59725000D01*
G75*
G02*
X31725000Y-59962500I0J-237500D01*
G01*
X31725000Y-60537500D01*
G75*
G02*
X31487500Y-60775000I-237500J0D01*
G01*
X31012500Y-60775000D01*
G75*
G02*
X30775000Y-60537500I0J237500D01*
G01*
X30775000Y-59962500D01*
G75*
G02*
X31012500Y-59725000I237500J0D01*
G01*
G37*
%TD.AperFunction*%
%TO.P,C19,1*%
%TO.N,GND*%
%TA.AperFunction,SMDPad,CuDef*%
G36*
G01*
X31012500Y-57975000D02*
X31487500Y-57975000D01*
G75*
G02*
X31725000Y-58212500I0J-237500D01*
G01*
X31725000Y-58787500D01*
G75*
G02*
X31487500Y-59025000I-237500J0D01*
G01*
X31012500Y-59025000D01*
G75*
G02*
X30775000Y-58787500I0J237500D01*
G01*
X30775000Y-58212500D01*
G75*
G02*
X31012500Y-57975000I237500J0D01*
G01*
G37*
%TD.AperFunction*%
%TD*%
%TO.P,C18,2*%
%TO.N,/EPVSL*%
%TA.AperFunction,SMDPad,CuDef*%
G36*
G01*
X29512500Y-59725000D02*
X29987500Y-59725000D01*
G75*
G02*
X30225000Y-59962500I0J-237500D01*
G01*
X30225000Y-60537500D01*
G75*
G02*
X29987500Y-60775000I-237500J0D01*
G01*
X29512500Y-60775000D01*
G75*
G02*
X29275000Y-60537500I0J237500D01*
G01*
X29275000Y-59962500D01*
G75*
G02*
X29512500Y-59725000I237500J0D01*
G01*
G37*
%TD.AperFunction*%
%TO.P,C18,1*%
%TO.N,GND*%
%TA.AperFunction,SMDPad,CuDef*%
G36*
G01*
X29512500Y-57975000D02*
X29987500Y-57975000D01*
G75*
G02*
X30225000Y-58212500I0J-237500D01*
G01*
X30225000Y-58787500D01*
G75*
G02*
X29987500Y-59025000I-237500J0D01*
G01*
X29512500Y-59025000D01*
G75*
G02*
X29275000Y-58787500I0J237500D01*
G01*
X29275000Y-58212500D01*
G75*
G02*
X29512500Y-57975000I237500J0D01*
G01*
G37*
%TD.AperFunction*%
%TD*%
%TO.P,C17,2*%
%TO.N,/EPVSH*%
%TA.AperFunction,SMDPad,CuDef*%
G36*
G01*
X28012500Y-59725000D02*
X28487500Y-59725000D01*
G75*
G02*
X28725000Y-59962500I0J-237500D01*
G01*
X28725000Y-60537500D01*
G75*
G02*
X28487500Y-60775000I-237500J0D01*
G01*
X28012500Y-60775000D01*
G75*
G02*
X27775000Y-60537500I0J237500D01*
G01*
X27775000Y-59962500D01*
G75*
G02*
X28012500Y-59725000I237500J0D01*
G01*
G37*
%TD.AperFunction*%
%TO.P,C17,1*%
%TO.N,GND*%
%TA.AperFunction,SMDPad,CuDef*%
G36*
G01*
X28012500Y-57975000D02*
X28487500Y-57975000D01*
G75*
G02*
X28725000Y-58212500I0J-237500D01*
G01*
X28725000Y-58787500D01*
G75*
G02*
X28487500Y-59025000I-237500J0D01*
G01*
X28012500Y-59025000D01*
G75*
G02*
X27775000Y-58787500I0J237500D01*
G01*
X27775000Y-58212500D01*
G75*
G02*
X28012500Y-57975000I237500J0D01*
G01*
G37*
%TD.AperFunction*%
%TD*%
%TO.P,C16,2*%
%TO.N,/EPVGH*%
%TA.AperFunction,SMDPad,CuDef*%
G36*
G01*
X19762500Y-60225000D02*
X20237500Y-60225000D01*
G75*
G02*
X20475000Y-60462500I0J-237500D01*
G01*
X20475000Y-61037500D01*
G75*
G02*
X20237500Y-61275000I-237500J0D01*
G01*
X19762500Y-61275000D01*
G75*
G02*
X19525000Y-61037500I0J237500D01*
G01*
X19525000Y-60462500D01*
G75*
G02*
X19762500Y-60225000I237500J0D01*
G01*
G37*
%TD.AperFunction*%
%TO.P,C16,1*%
%TO.N,GND*%
%TA.AperFunction,SMDPad,CuDef*%
G36*
G01*
X19762500Y-58475000D02*
X20237500Y-58475000D01*
G75*
G02*
X20475000Y-58712500I0J-237500D01*
G01*
X20475000Y-59287500D01*
G75*
G02*
X20237500Y-59525000I-237500J0D01*
G01*
X19762500Y-59525000D01*
G75*
G02*
X19525000Y-59287500I0J237500D01*
G01*
X19525000Y-58712500D01*
G75*
G02*
X19762500Y-58475000I237500J0D01*
G01*
G37*
%TD.AperFunction*%
%TD*%
%TO.P,C14,2*%
%TO.N,/EPVGL*%
%TA.AperFunction,SMDPad,CuDef*%
G36*
G01*
X18262500Y-60225000D02*
X18737500Y-60225000D01*
G75*
G02*
X18975000Y-60462500I0J-237500D01*
G01*
X18975000Y-61037500D01*
G75*
G02*
X18737500Y-61275000I-237500J0D01*
G01*
X18262500Y-61275000D01*
G75*
G02*
X18025000Y-61037500I0J237500D01*
G01*
X18025000Y-60462500D01*
G75*
G02*
X18262500Y-60225000I237500J0D01*
G01*
G37*
%TD.AperFunction*%
%TO.P,C14,1*%
%TO.N,GND*%
%TA.AperFunction,SMDPad,CuDef*%
G36*
G01*
X18262500Y-58475000D02*
X18737500Y-58475000D01*
G75*
G02*
X18975000Y-58712500I0J-237500D01*
G01*
X18975000Y-59287500D01*
G75*
G02*
X18737500Y-59525000I-237500J0D01*
G01*
X18262500Y-59525000D01*
G75*
G02*
X18025000Y-59287500I0J237500D01*
G01*
X18025000Y-58712500D01*
G75*
G02*
X18262500Y-58475000I237500J0D01*
G01*
G37*
%TD.AperFunction*%
%TD*%
%TO.P,C13,2*%
%TO.N,VCC*%
%TA.AperFunction,SMDPad,CuDef*%
G36*
G01*
X26512500Y-59725000D02*
X26987500Y-59725000D01*
G75*
G02*
X27225000Y-59962500I0J-237500D01*
G01*
X27225000Y-60537500D01*
G75*
G02*
X26987500Y-60775000I-237500J0D01*
G01*
X26512500Y-60775000D01*
G75*
G02*
X26275000Y-60537500I0J237500D01*
G01*
X26275000Y-59962500D01*
G75*
G02*
X26512500Y-59725000I237500J0D01*
G01*
G37*
%TD.AperFunction*%
%TO.P,C13,1*%
%TO.N,GND*%
%TA.AperFunction,SMDPad,CuDef*%
G36*
G01*
X26512500Y-57975000D02*
X26987500Y-57975000D01*
G75*
G02*
X27225000Y-58212500I0J-237500D01*
G01*
X27225000Y-58787500D01*
G75*
G02*
X26987500Y-59025000I-237500J0D01*
G01*
X26512500Y-59025000D01*
G75*
G02*
X26275000Y-58787500I0J237500D01*
G01*
X26275000Y-58212500D01*
G75*
G02*
X26512500Y-57975000I237500J0D01*
G01*
G37*
%TD.AperFunction*%
%TD*%
%TO.P,C8,2*%
%TO.N,Net-(C8-Pad2)*%
%TA.AperFunction,SMDPad,CuDef*%
G36*
G01*
X34725000Y-56737500D02*
X34725000Y-56262500D01*
G75*
G02*
X34962500Y-56025000I237500J0D01*
G01*
X35537500Y-56025000D01*
G75*
G02*
X35775000Y-56262500I0J-237500D01*
G01*
X35775000Y-56737500D01*
G75*
G02*
X35537500Y-56975000I-237500J0D01*
G01*
X34962500Y-56975000D01*
G75*
G02*
X34725000Y-56737500I0J237500D01*
G01*
G37*
%TD.AperFunction*%
%TO.P,C8,1*%
%TO.N,Net-(C8-Pad1)*%
%TA.AperFunction,SMDPad,CuDef*%
G36*
G01*
X32975000Y-56737500D02*
X32975000Y-56262500D01*
G75*
G02*
X33212500Y-56025000I237500J0D01*
G01*
X33787500Y-56025000D01*
G75*
G02*
X34025000Y-56262500I0J-237500D01*
G01*
X34025000Y-56737500D01*
G75*
G02*
X33787500Y-56975000I-237500J0D01*
G01*
X33212500Y-56975000D01*
G75*
G02*
X32975000Y-56737500I0J237500D01*
G01*
G37*
%TD.AperFunction*%
%TD*%
%TO.P,C7,2*%
%TO.N,GND*%
%TA.AperFunction,SMDPad,CuDef*%
G36*
G01*
X17487500Y-28275000D02*
X17012500Y-28275000D01*
G75*
G02*
X16775000Y-28037500I0J237500D01*
G01*
X16775000Y-27462500D01*
G75*
G02*
X17012500Y-27225000I237500J0D01*
G01*
X17487500Y-27225000D01*
G75*
G02*
X17725000Y-27462500I0J-237500D01*
G01*
X17725000Y-28037500D01*
G75*
G02*
X17487500Y-28275000I-237500J0D01*
G01*
G37*
%TD.AperFunction*%
%TO.P,C7,1*%
%TO.N,VCC*%
%TA.AperFunction,SMDPad,CuDef*%
G36*
G01*
X17487500Y-30025000D02*
X17012500Y-30025000D01*
G75*
G02*
X16775000Y-29787500I0J237500D01*
G01*
X16775000Y-29212500D01*
G75*
G02*
X17012500Y-28975000I237500J0D01*
G01*
X17487500Y-28975000D01*
G75*
G02*
X17725000Y-29212500I0J-237500D01*
G01*
X17725000Y-29787500D01*
G75*
G02*
X17487500Y-30025000I-237500J0D01*
G01*
G37*
%TD.AperFunction*%
%TD*%
%TO.P,C4,2*%
%TO.N,GND*%
%TA.AperFunction,SMDPad,CuDef*%
G36*
G01*
X17012500Y-25475000D02*
X17487500Y-25475000D01*
G75*
G02*
X17725000Y-25712500I0J-237500D01*
G01*
X17725000Y-26287500D01*
G75*
G02*
X17487500Y-26525000I-237500J0D01*
G01*
X17012500Y-26525000D01*
G75*
G02*
X16775000Y-26287500I0J237500D01*
G01*
X16775000Y-25712500D01*
G75*
G02*
X17012500Y-25475000I237500J0D01*
G01*
G37*
%TD.AperFunction*%
%TO.P,C4,1*%
%TO.N,VIN*%
%TA.AperFunction,SMDPad,CuDef*%
G36*
G01*
X17012500Y-23725000D02*
X17487500Y-23725000D01*
G75*
G02*
X17725000Y-23962500I0J-237500D01*
G01*
X17725000Y-24537500D01*
G75*
G02*
X17487500Y-24775000I-237500J0D01*
G01*
X17012500Y-24775000D01*
G75*
G02*
X16775000Y-24537500I0J237500D01*
G01*
X16775000Y-23962500D01*
G75*
G02*
X17012500Y-23725000I237500J0D01*
G01*
G37*
%TD.AperFunction*%
%TD*%
%TO.P,C3,2*%
%TO.N,GND*%
%TA.AperFunction,SMDPad,CuDef*%
G36*
G01*
X23237500Y-34525000D02*
X22762500Y-34525000D01*
G75*
G02*
X22525000Y-34287500I0J237500D01*
G01*
X22525000Y-33712500D01*
G75*
G02*
X22762500Y-33475000I237500J0D01*
G01*
X23237500Y-33475000D01*
G75*
G02*
X23475000Y-33712500I0J-237500D01*
G01*
X23475000Y-34287500D01*
G75*
G02*
X23237500Y-34525000I-237500J0D01*
G01*
G37*
%TD.AperFunction*%
%TO.P,C3,1*%
%TO.N,VCC*%
%TA.AperFunction,SMDPad,CuDef*%
G36*
G01*
X23237500Y-36275000D02*
X22762500Y-36275000D01*
G75*
G02*
X22525000Y-36037500I0J237500D01*
G01*
X22525000Y-35462500D01*
G75*
G02*
X22762500Y-35225000I237500J0D01*
G01*
X23237500Y-35225000D01*
G75*
G02*
X23475000Y-35462500I0J-237500D01*
G01*
X23475000Y-36037500D01*
G75*
G02*
X23237500Y-36275000I-237500J0D01*
G01*
G37*
%TD.AperFunction*%
%TD*%
%TO.P,C2,2*%
%TO.N,/XL2*%
%TA.AperFunction,SMDPad,CuDef*%
G36*
G01*
X26512500Y-32225000D02*
X26987500Y-32225000D01*
G75*
G02*
X27225000Y-32462500I0J-237500D01*
G01*
X27225000Y-33037500D01*
G75*
G02*
X26987500Y-33275000I-237500J0D01*
G01*
X26512500Y-33275000D01*
G75*
G02*
X26275000Y-33037500I0J237500D01*
G01*
X26275000Y-32462500D01*
G75*
G02*
X26512500Y-32225000I237500J0D01*
G01*
G37*
%TD.AperFunction*%
%TO.P,C2,1*%
%TO.N,GND*%
%TA.AperFunction,SMDPad,CuDef*%
G36*
G01*
X26512500Y-30475000D02*
X26987500Y-30475000D01*
G75*
G02*
X27225000Y-30712500I0J-237500D01*
G01*
X27225000Y-31287500D01*
G75*
G02*
X26987500Y-31525000I-237500J0D01*
G01*
X26512500Y-31525000D01*
G75*
G02*
X26275000Y-31287500I0J237500D01*
G01*
X26275000Y-30712500D01*
G75*
G02*
X26512500Y-30475000I237500J0D01*
G01*
G37*
%TD.AperFunction*%
%TD*%
%TO.P,C1,2*%
%TO.N,/XL1*%
%TA.AperFunction,SMDPad,CuDef*%
G36*
G01*
X28512500Y-32225000D02*
X28987500Y-32225000D01*
G75*
G02*
X29225000Y-32462500I0J-237500D01*
G01*
X29225000Y-33037500D01*
G75*
G02*
X28987500Y-33275000I-237500J0D01*
G01*
X28512500Y-33275000D01*
G75*
G02*
X28275000Y-33037500I0J237500D01*
G01*
X28275000Y-32462500D01*
G75*
G02*
X28512500Y-32225000I237500J0D01*
G01*
G37*
%TD.AperFunction*%
%TO.P,C1,1*%
%TO.N,GND*%
%TA.AperFunction,SMDPad,CuDef*%
G36*
G01*
X28512500Y-30475000D02*
X28987500Y-30475000D01*
G75*
G02*
X29225000Y-30712500I0J-237500D01*
G01*
X29225000Y-31287500D01*
G75*
G02*
X28987500Y-31525000I-237500J0D01*
G01*
X28512500Y-31525000D01*
G75*
G02*
X28275000Y-31287500I0J237500D01*
G01*
X28275000Y-30712500D01*
G75*
G02*
X28512500Y-30475000I237500J0D01*
G01*
G37*
%TD.AperFunction*%
%TD*%
D30*
%TO.N,GND*%
X37250000Y-29000000D03*
X38000000Y-50000000D03*
X36750000Y-46750000D03*
%TO.N,Net-(J3-Pad1)*%
X35821258Y-44615120D03*
X35750000Y-45750000D03*
%TO.N,GND*%
X34007297Y-47492703D03*
%TO.N,VCC*%
X34000000Y-41750000D03*
%TO.N,BUZZER*%
X29650000Y-43950000D03*
X30750000Y-42750000D03*
%TO.N,VCC*%
X26750000Y-55500000D03*
X13000000Y-45750000D03*
%TO.N,SWDIO*%
X17250000Y-46250000D03*
%TO.N,SWDCLK*%
X15500000Y-47500000D03*
%TO.N,VCC*%
X22226482Y-41703095D03*
X16000000Y-44750000D03*
X24625000Y-42500000D03*
%TO.N,GND*%
X29650000Y-48250000D03*
X30750000Y-47750000D03*
X19250000Y-50500000D03*
%TO.N,EPBUSY*%
X17912048Y-48405015D03*
%TO.N,EPRES*%
X18374063Y-48903973D03*
%TO.N,GND*%
X35500000Y-51750000D03*
X13250000Y-58000000D03*
X20000000Y-59000000D03*
X27440302Y-62350754D03*
X22500000Y-61500000D03*
X37000000Y-62250000D03*
X31500000Y-58750000D03*
%TO.N,VCC*%
X26750000Y-57250000D03*
X31500000Y-44250000D03*
%TO.N,GND*%
X37000000Y-42000000D03*
X23000000Y-34000000D03*
X20500000Y-36250000D03*
%TO.N,VCC*%
X22000000Y-32750000D03*
X19000000Y-33750000D03*
%TO.N,GND*%
X23000000Y-22250000D03*
X20000000Y-24750000D03*
X17250000Y-26000000D03*
X14000000Y-31850000D03*
X36750000Y-22000000D03*
X34250000Y-18750000D03*
X31250000Y-17000000D03*
X35500000Y-33500000D03*
X30250000Y-36750000D03*
%TO.N,EPSDIN*%
X26000000Y-43020010D03*
%TO.N,VCC*%
X32000000Y-40750000D03*
X38750000Y-26500000D03*
X36500000Y-26000000D03*
%TO.N,GND*%
X27750000Y-30500000D03*
%TO.N,BACKLIGHT*%
X29000000Y-39000000D03*
X31250000Y-18750000D03*
%TO.N,Net-(IC1-Pad35)*%
X26750000Y-20250000D03*
X21250000Y-38500000D03*
%TO.N,Net-(IC1-Pad34)*%
X25250000Y-20250000D03*
X20250000Y-32250000D03*
%TO.N,FLASHLIGHT*%
X19250000Y-40000000D03*
X22250000Y-38750000D03*
%TO.N,VCC*%
X35500000Y-48250000D03*
%TO.N,Net-(C8-Pad1)*%
X25000000Y-57500000D03*
%TO.N,EPBUSY*%
X18750000Y-44979990D03*
%TO.N,BUTTON3*%
X23000000Y-45500000D03*
%TO.N,EPRES*%
X22000000Y-46020010D03*
%TO.N,BUTTON3*%
X20500000Y-45500000D03*
%TO.N,BUTTON4*%
X17250000Y-49750000D03*
X21250000Y-48250000D03*
%TO.N,Net-(C8-Pad1)*%
X16250000Y-58850000D03*
%TO.N,EPDC*%
X19250000Y-44229990D03*
X19250000Y-47750000D03*
%TO.N,EPCS*%
X24770010Y-61841467D03*
%TO.N,EPSDIN*%
X26054111Y-62108222D03*
%TO.N,EPSCLK*%
X20250000Y-42250000D03*
X25750000Y-61500000D03*
%TO.N,EPCS*%
X22250000Y-44250000D03*
%TO.N,RTCIRQ*%
X34500000Y-33500000D03*
X34500000Y-31000000D03*
%TO.N,VIN*%
X20476720Y-21705239D03*
X20950000Y-24650000D03*
%TO.N,VUSB*%
X21252463Y-22466632D03*
%TO.N,Net-(R10-Pad1)*%
X23250000Y-11750000D03*
X22000000Y-12000000D03*
%TO.N,VUSB*%
X27162216Y-15756858D03*
%TO.N,USB_DP*%
X24501891Y-17757755D03*
X26750000Y-18500000D03*
%TO.N,USB_DN*%
X25250000Y-18500000D03*
%TO.N,VUSB*%
X22600000Y-16760000D03*
%TO.N,Net-(J2-PadB5)*%
X26750000Y-14750000D03*
%TO.N,Net-(J2-PadA5)*%
X24000000Y-14625000D03*
%TO.N,RST*%
X22625000Y-40500000D03*
%TO.N,BOOTLOAD*%
X27875000Y-46500000D03*
%TO.N,/EPGDR*%
X19500000Y-66125000D03*
%TO.N,/EPRESE*%
X21000000Y-66125000D03*
%TO.N,/EPPREVGL*%
X30500000Y-66125000D03*
%TO.N,/EPPREVGH*%
X29000000Y-66125000D03*
%TO.N,/EPVPP*%
X27500000Y-66125000D03*
%TO.N,/EPVDD*%
X26000000Y-66125000D03*
%TD*%
D31*
%TO.N,GND*%
X37237500Y-29000000D02*
X37250000Y-29000000D01*
%TO.N,Net-(C5-Pad1)*%
X35600000Y-31800000D02*
X35600000Y-30850000D01*
X35600000Y-30850000D02*
X35600000Y-30637500D01*
X34262500Y-29000000D02*
X35600000Y-30337500D01*
X35600000Y-30337500D02*
X35600000Y-30850000D01*
%TO.N,GND*%
X38000000Y-50125000D02*
X38000000Y-50000000D01*
X36750000Y-46650000D02*
X36750000Y-46750000D01*
%TO.N,Net-(J3-Pad1)*%
X38250000Y-52750000D02*
X37000000Y-51500000D01*
%TO.N,BUZZER*%
X33890967Y-45135121D02*
X31505846Y-42750000D01*
%TO.N,Net-(J3-Pad1)*%
X37225010Y-48219165D02*
X37014120Y-48008276D01*
%TO.N,BUTTON2*%
X36639990Y-57674990D02*
X36639990Y-49110010D01*
%TO.N,Net-(J3-Pad1)*%
X37000000Y-49259130D02*
X37225010Y-49034121D01*
X36071257Y-42821257D02*
X35250000Y-42000000D01*
%TO.N,BUZZER*%
X31505846Y-42750000D02*
X30750000Y-42750000D01*
%TO.N,Net-(J3-Pad1)*%
X35750000Y-46744156D02*
X35750000Y-45750000D01*
%TO.N,BUZZER*%
X36750000Y-45350000D02*
X36535121Y-45135121D01*
%TO.N,BUTTON2*%
X36639990Y-49110010D02*
X36865000Y-48885000D01*
%TO.N,Net-(J3-Pad1)*%
X37000000Y-51500000D02*
X37000000Y-49259130D01*
%TO.N,BUTTON2*%
X36865000Y-57900000D02*
X36639990Y-57674990D01*
%TO.N,Net-(J3-Pad1)*%
X37014120Y-48008276D02*
X35750000Y-46744156D01*
X35821258Y-44615120D02*
X36071257Y-44365121D01*
X37225010Y-49034121D02*
X37225010Y-48219165D01*
%TO.N,BUZZER*%
X36535121Y-45135121D02*
X33890967Y-45135121D01*
%TO.N,Net-(J3-Pad1)*%
X36071257Y-44365121D02*
X36071257Y-42821257D01*
%TO.N,Net-(J3-Pad2)*%
X38745010Y-46004990D02*
X38750000Y-46000000D01*
X38745010Y-51254990D02*
X38745010Y-46004990D01*
X38250000Y-51750000D02*
X38745010Y-51254990D01*
%TO.N,GND*%
X30750000Y-47750000D02*
X33750000Y-47750000D01*
X33750000Y-47750000D02*
X34007297Y-47492703D01*
%TO.N,BUTTON2*%
X31596713Y-43349999D02*
X33956725Y-45710011D01*
%TO.N,BUTTON1*%
X32614999Y-42150001D02*
X36865000Y-37900000D01*
%TO.N,BUTTON2*%
X36865000Y-48368286D02*
X36865000Y-48885000D01*
X34206725Y-45710011D02*
X36865000Y-48368286D01*
X29849999Y-43349999D02*
X31596713Y-43349999D01*
%TO.N,BUTTON1*%
X29650000Y-42350000D02*
X29849999Y-42150001D01*
%TO.N,BUTTON2*%
X33956725Y-45710011D02*
X34206725Y-45710011D01*
X29650000Y-43150000D02*
X29849999Y-43349999D01*
%TO.N,BUTTON1*%
X29849999Y-42150001D02*
X32614999Y-42150001D01*
%TO.N,BUZZER*%
X36750000Y-45350000D02*
X38000000Y-46600000D01*
X38000000Y-46600000D02*
X38000000Y-48375000D01*
%TO.N,Net-(C8-Pad2)*%
X35500000Y-54900000D02*
X35500000Y-56250000D01*
X35500000Y-56250000D02*
X35250000Y-56500000D01*
%TO.N,EPSDIN*%
X21520010Y-43020010D02*
X26000000Y-43020010D01*
X21250000Y-42750000D02*
X21520010Y-43020010D01*
%TO.N,VCC*%
X15000000Y-45750000D02*
X16000000Y-44750000D01*
X13000000Y-45750000D02*
X15000000Y-45750000D01*
X22226482Y-41703095D02*
X23828095Y-41703095D01*
X23828095Y-41703095D02*
X24625000Y-42500000D01*
%TO.N,BUTTON3*%
X14239602Y-42100000D02*
X13135000Y-42100000D01*
X17639602Y-45500000D02*
X14239602Y-42100000D01*
X20500000Y-45500000D02*
X17639602Y-45500000D01*
%TO.N,VCC*%
X33250000Y-46250000D02*
X33500000Y-46250000D01*
X33500000Y-46250000D02*
X35500000Y-48250000D01*
%TO.N,EPRES*%
X23750000Y-63400000D02*
X23750000Y-57500000D01*
X18369988Y-48908048D02*
X18374063Y-48903973D01*
%TO.N,EPBUSY*%
X23250000Y-57750000D02*
X17854062Y-52354062D01*
%TO.N,EPRES*%
X18369988Y-52119988D02*
X18369988Y-48908048D01*
%TO.N,EPDC*%
X24250000Y-63400000D02*
X24250000Y-57250000D01*
%TO.N,EPBUSY*%
X17854062Y-48463001D02*
X17912048Y-48405015D01*
%TO.N,EPDC*%
X18889989Y-50090407D02*
X18889989Y-48969025D01*
%TO.N,GND*%
X20118146Y-48250000D02*
X19250000Y-49118146D01*
X20350000Y-48250000D02*
X20118146Y-48250000D01*
%TO.N,EPDC*%
X18729998Y-51729998D02*
X18729998Y-50250398D01*
%TO.N,GND*%
X19250000Y-49118146D02*
X19250000Y-50500000D01*
%TO.N,EPRES*%
X23750000Y-57500000D02*
X18369988Y-52119988D01*
%TO.N,EPDC*%
X18889989Y-48969025D02*
X19250000Y-48609014D01*
%TO.N,EPBUSY*%
X17854062Y-52354062D02*
X17854062Y-48463001D01*
%TO.N,EPDC*%
X19250000Y-48609014D02*
X19250000Y-47750000D01*
%TO.N,EPBUSY*%
X23250000Y-63400000D02*
X23250000Y-57750000D01*
%TO.N,EPDC*%
X18729998Y-50250398D02*
X18889989Y-50090407D01*
X24250000Y-57250000D02*
X18729998Y-51729998D01*
%TO.N,GND*%
X35500000Y-51850000D02*
X35500000Y-51750000D01*
X13150000Y-57900000D02*
X13250000Y-58000000D01*
X13135000Y-57900000D02*
X13150000Y-57900000D01*
X27250000Y-62541056D02*
X27440302Y-62350754D01*
X27250000Y-63400000D02*
X27250000Y-62541056D01*
%TO.N,VCC*%
X26750000Y-63400000D02*
X26250000Y-63400000D01*
%TO.N,GND*%
X22750000Y-61750000D02*
X22500000Y-61500000D01*
X22750000Y-63400000D02*
X22750000Y-61750000D01*
X36865000Y-62100000D02*
X36865000Y-62115000D01*
X36865000Y-62115000D02*
X37000000Y-62250000D01*
X31250000Y-58500000D02*
X31500000Y-58750000D01*
X26750000Y-58500000D02*
X28250000Y-58500000D01*
X29750000Y-58500000D02*
X28250000Y-58500000D01*
X31250000Y-58500000D02*
X29750000Y-58500000D01*
%TO.N,VCC*%
X26004990Y-57995010D02*
X26750000Y-57250000D01*
X26004990Y-59504990D02*
X26004990Y-57995010D01*
X26750000Y-60250000D02*
X26004990Y-59504990D01*
X33250000Y-46250000D02*
X33250000Y-46000000D01*
X33250000Y-46000000D02*
X31500000Y-44250000D01*
%TO.N,GND*%
X36865000Y-42100000D02*
X36900000Y-42100000D01*
X36900000Y-42100000D02*
X37000000Y-42000000D01*
%TO.N,VUSB*%
X21545010Y-22759179D02*
X21252463Y-22466632D01*
X21545010Y-29951704D02*
X21545010Y-22759179D01*
X21020002Y-30476712D02*
X21545010Y-29951704D01*
X21020002Y-37329998D02*
X21020002Y-30476712D01*
X21000000Y-37350000D02*
X21020002Y-37329998D01*
%TO.N,GND*%
X20200000Y-36550000D02*
X20500000Y-36250000D01*
X20200000Y-37350000D02*
X20200000Y-36550000D01*
%TO.N,VCC*%
X19000000Y-29500000D02*
X19000000Y-33750000D01*
%TO.N,GND*%
X23000000Y-22375000D02*
X23000000Y-22250000D01*
X20000000Y-24650000D02*
X20000000Y-24750000D01*
X17250000Y-27750000D02*
X17250000Y-26000000D01*
X36865000Y-22100000D02*
X36850000Y-22100000D01*
X36850000Y-22100000D02*
X36750000Y-22000000D01*
X34150000Y-18750000D02*
X34250000Y-18750000D01*
X34700000Y-32700000D02*
X35500000Y-33500000D01*
X29800000Y-37200000D02*
X30250000Y-36750000D01*
X29800000Y-37350000D02*
X29800000Y-37200000D01*
%TO.N,VCC*%
X38875000Y-32250000D02*
X38875000Y-26625000D01*
X38875000Y-26625000D02*
X38750000Y-26500000D01*
X36500000Y-26000000D02*
X34675000Y-24175000D01*
X34675000Y-24175000D02*
X32362500Y-24175000D01*
X30325000Y-24175000D02*
X30000000Y-24500000D01*
X32362500Y-24175000D02*
X30325000Y-24175000D01*
%TO.N,GND*%
X28750000Y-31000000D02*
X28250000Y-31000000D01*
X28250000Y-31000000D02*
X27750000Y-30500000D01*
X26750000Y-31000000D02*
X28750000Y-31000000D01*
X32362500Y-23525000D02*
X35440000Y-23525000D01*
X35440000Y-23525000D02*
X36865000Y-22100000D01*
%TO.N,VCC*%
X26637500Y-24825000D02*
X28925000Y-24825000D01*
%TO.N,BACKLIGHT*%
X26200000Y-38250000D02*
X26200000Y-38350000D01*
X26200000Y-38350000D02*
X26850000Y-39000000D01*
X26850000Y-39000000D02*
X29000000Y-39000000D01*
%TO.N,Net-(IC1-Pad35)*%
X20350000Y-39150000D02*
X20600000Y-39150000D01*
X20600000Y-39150000D02*
X21250000Y-38500000D01*
%TO.N,Net-(IC1-Pad34)*%
X20350000Y-38350000D02*
X20050001Y-38350000D01*
X19729999Y-38029998D02*
X19729999Y-32770001D01*
X20050001Y-38350000D02*
X19729999Y-38029998D01*
X19729999Y-32770001D02*
X20250000Y-32250000D01*
%TO.N,FLASHLIGHT*%
X13875000Y-34750000D02*
X14000000Y-34750000D01*
X14000000Y-34750000D02*
X19250000Y-40000000D01*
X22250000Y-38750000D02*
X22050000Y-38750000D01*
X22050000Y-38750000D02*
X21250000Y-39550000D01*
%TO.N,GND*%
X12125000Y-34750000D02*
X12125000Y-33963998D01*
X12125000Y-33963998D02*
X14000000Y-32088998D01*
X14000000Y-32088998D02*
X14000000Y-31850000D01*
X13135000Y-37900000D02*
X13135000Y-35760000D01*
X13135000Y-35760000D02*
X12125000Y-34750000D01*
X20000000Y-24650000D02*
X20000000Y-22208998D01*
X20000000Y-22208998D02*
X19291002Y-21500000D01*
X19291002Y-21500000D02*
X18900000Y-21500000D01*
X18500000Y-59000000D02*
X20000000Y-59000000D01*
%TO.N,Net-(C8-Pad1)*%
X33500000Y-56500000D02*
X26000000Y-56500000D01*
X26000000Y-56500000D02*
X25000000Y-57500000D01*
%TO.N,BUTTON3*%
X22103553Y-46750000D02*
X23000000Y-45853553D01*
%TO.N,SWDIO*%
X17250000Y-46250000D02*
X17549999Y-46549999D01*
%TO.N,EPBUSY*%
X20350000Y-44750000D02*
X18979990Y-44750000D01*
%TO.N,SWDIO*%
X17549999Y-46549999D02*
X20150001Y-46549999D01*
%TO.N,EPRES*%
X22000000Y-44800001D02*
X22000000Y-46020010D01*
%TO.N,SWDIO*%
X20150001Y-46549999D02*
X20350000Y-46350000D01*
%TO.N,BUTTON3*%
X21250000Y-46750000D02*
X22103553Y-46750000D01*
%TO.N,EPBUSY*%
X18979990Y-44750000D02*
X18750000Y-44979990D01*
%TO.N,BUTTON3*%
X23000000Y-45853553D02*
X23000000Y-45500000D01*
%TO.N,EPRES*%
X21250000Y-44350000D02*
X21549999Y-44350000D01*
X21549999Y-44350000D02*
X22000000Y-44800001D01*
%TO.N,BUTTON4*%
X17250000Y-55251852D02*
X13135000Y-59366852D01*
X13135000Y-59366852D02*
X13135000Y-62100000D01*
X21250000Y-47550000D02*
X21250000Y-48250000D01*
X17250000Y-49750000D02*
X17250000Y-55251852D01*
%TO.N,Net-(C8-Pad1)*%
X16250000Y-59000000D02*
X16250000Y-58850000D01*
X16250000Y-59000000D02*
X16375000Y-58875000D01*
%TO.N,EPDC*%
X20350000Y-43950000D02*
X19529990Y-43950000D01*
X19529990Y-43950000D02*
X19250000Y-44229990D01*
%TO.N,SWDCLK*%
X15850000Y-47150000D02*
X15500000Y-47500000D01*
X20350000Y-47150000D02*
X15850000Y-47150000D01*
%TO.N,EPSCLK*%
X25290011Y-63359989D02*
X25290011Y-61959989D01*
X25290011Y-61959989D02*
X25750000Y-61500000D01*
%TO.N,EPCS*%
X24750000Y-63400000D02*
X24750000Y-61861477D01*
%TO.N,EPSCLK*%
X25250000Y-63400000D02*
X25290011Y-63359989D01*
%TO.N,EPCS*%
X24750000Y-61861477D02*
X24770010Y-61841467D01*
%TO.N,EPSCLK*%
X20250000Y-42250000D02*
X20250000Y-43050000D01*
%TO.N,EPSDIN*%
X25750000Y-62412333D02*
X26054111Y-62108222D01*
X25750000Y-63400000D02*
X25750000Y-62412333D01*
%TO.N,EPSCLK*%
X20250000Y-43050000D02*
X20350000Y-43150000D01*
%TO.N,EPCS*%
X21250000Y-43550000D02*
X21550000Y-43550000D01*
X21550000Y-43550000D02*
X22250000Y-44250000D01*
%TO.N,VCC*%
X26750000Y-63400000D02*
X26750000Y-60250000D01*
%TO.N,Net-(C8-Pad1)*%
X33500000Y-56500000D02*
X33500000Y-52000000D01*
X33500000Y-52000000D02*
X35500000Y-50000000D01*
%TO.N,Net-(C8-Pad2)*%
X33500000Y-58200000D02*
X33550000Y-58200000D01*
X33550000Y-58200000D02*
X35250000Y-56500000D01*
%TO.N,BUTTON2*%
X36865000Y-48885000D02*
X36865000Y-48618286D01*
%TO.N,BUTTON5*%
X29650000Y-41550000D02*
X29949999Y-41550000D01*
X29949999Y-41550000D02*
X38000000Y-33499999D01*
X38000000Y-33499999D02*
X38000000Y-19035000D01*
X38000000Y-19035000D02*
X36865000Y-17900000D01*
%TO.N,RTCIRQ*%
X29650000Y-40750000D02*
X34500000Y-35900000D01*
X34500000Y-35900000D02*
X34500000Y-33500000D01*
X34500000Y-31000000D02*
X34500000Y-31600000D01*
X34500000Y-31600000D02*
X34700000Y-31800000D01*
%TO.N,SQW*%
X33800000Y-32700000D02*
X33800000Y-35718148D01*
X33800000Y-35718148D02*
X28750000Y-40768148D01*
X28750000Y-40768148D02*
X28750000Y-41150000D01*
%TO.N,Net-(C5-Pad1)*%
X37125000Y-32250000D02*
X36050000Y-32250000D01*
X36050000Y-32250000D02*
X35600000Y-31800000D01*
%TO.N,SDA*%
X32900000Y-32700000D02*
X32900000Y-35236002D01*
X32900000Y-35236002D02*
X29886002Y-38250000D01*
X29886002Y-38250000D02*
X27000000Y-38250000D01*
%TO.N,SCL*%
X29000000Y-37350000D02*
X29000000Y-35703998D01*
X29000000Y-35703998D02*
X32900000Y-31803998D01*
X32900000Y-31803998D02*
X32900000Y-31800000D01*
%TO.N,FLASH_DO*%
X25644979Y-30349175D02*
X31169154Y-24825000D01*
X25644979Y-37194979D02*
X25644979Y-30349175D01*
X31169154Y-24825000D02*
X32362500Y-24825000D01*
X25800000Y-37350000D02*
X25644979Y-37194979D01*
%TO.N,FLASH_CS*%
X31028286Y-25475000D02*
X26004990Y-30498296D01*
X32362500Y-25475000D02*
X31028286Y-25475000D01*
X26004990Y-30498296D02*
X26004990Y-36568988D01*
X26004990Y-36568988D02*
X26600000Y-37163998D01*
X26600000Y-37163998D02*
X26600000Y-37350000D01*
%TO.N,FLASH_CLK*%
X26637500Y-24175000D02*
X25900000Y-24175000D01*
X25000000Y-25075000D02*
X25000000Y-37350000D01*
X25900000Y-24175000D02*
X25000000Y-25075000D01*
%TO.N,FLASH_DI*%
X24200000Y-37350000D02*
X24200000Y-25225000D01*
X24200000Y-25225000D02*
X25900000Y-23525000D01*
X25900000Y-23525000D02*
X26637500Y-23525000D01*
%TO.N,VIN*%
X32000000Y-20500000D02*
X28246714Y-20500000D01*
X27201704Y-19454990D02*
X20854008Y-19454990D01*
X28246714Y-20500000D02*
X27201704Y-19454990D01*
X20854008Y-19454990D02*
X20299999Y-20008999D01*
X20299999Y-20008999D02*
X20299999Y-21528518D01*
X20299999Y-21528518D02*
X20476720Y-21705239D01*
%TO.N,Net-(D7-Pad1)*%
X12000000Y-32500000D02*
X12000000Y-31250000D01*
X12000000Y-31250000D02*
X10750000Y-30000000D01*
X10750000Y-27750000D02*
X12250000Y-26250000D01*
X10750000Y-30000000D02*
X10750000Y-27750000D01*
%TO.N,FLASHLIGHT*%
X14000000Y-33150000D02*
X14000000Y-34625000D01*
X14000000Y-34625000D02*
X13875000Y-34750000D01*
%TO.N,Net-(L1-Pad1)*%
X20750000Y-29500000D02*
X20750000Y-27550000D01*
X20750000Y-27550000D02*
X20950000Y-27350000D01*
%TO.N,Net-(D8-Pad2)*%
X33750000Y-20500000D02*
X33654999Y-20404999D01*
X33654999Y-20404999D02*
X33654999Y-17966001D01*
X33654999Y-17966001D02*
X33004999Y-17316001D01*
X33004999Y-17316001D02*
X33004999Y-14955001D01*
X33004999Y-14955001D02*
X33960000Y-14000000D01*
%TO.N,BACKLIGHT*%
X31250000Y-18750000D02*
X32850000Y-18750000D01*
%TO.N,Net-(D8-Pad1)*%
X33500000Y-16750000D02*
X33750000Y-16750000D01*
X33750000Y-16750000D02*
X36500000Y-14000000D01*
%TO.N,Net-(R10-Pad1)*%
X28000000Y-10750000D02*
X27000000Y-11750000D01*
X27000000Y-11750000D02*
X23250000Y-11750000D01*
X22000000Y-12000000D02*
X22000000Y-12353553D01*
X22000000Y-12353553D02*
X19320010Y-15033543D01*
X19320010Y-15033543D02*
X19320010Y-20129990D01*
X19320010Y-20129990D02*
X18900000Y-20550000D01*
%TO.N,GND*%
X24000000Y-12875000D02*
X26625000Y-12875000D01*
X26625000Y-12875000D02*
X26750000Y-13000000D01*
X26750000Y-13000000D02*
X28330000Y-13000000D01*
X28330000Y-13000000D02*
X29320000Y-12010000D01*
%TO.N,VUSB*%
X27162216Y-15756858D02*
X23603142Y-15756858D01*
X23603142Y-15756858D02*
X22600000Y-16760000D01*
%TO.N,USB_DP*%
X24501891Y-17757755D02*
X24751890Y-17507756D01*
X24751890Y-17507756D02*
X25757756Y-17507756D01*
X25757756Y-17507756D02*
X26750000Y-18500000D01*
%TO.N,VUSB*%
X22680001Y-16679999D02*
X22600000Y-16760000D01*
X22680001Y-10930001D02*
X22680001Y-16679999D01*
X22500000Y-10750000D02*
X22680001Y-10930001D01*
%TO.N,+BATT*%
X18900000Y-22450000D02*
X15200000Y-22450000D01*
X15200000Y-22450000D02*
X13250000Y-20500000D01*
%TO.N,Net-(R9-Pad1)*%
X21100000Y-20550000D02*
X22925000Y-20550000D01*
X22925000Y-20550000D02*
X23000000Y-20625000D01*
%TO.N,VIN*%
X19050000Y-24650000D02*
X19050000Y-25429999D01*
X20950000Y-25429999D02*
X20950000Y-24650000D01*
X19050000Y-25429999D02*
X19320011Y-25700010D01*
X19320011Y-25700010D02*
X20679989Y-25700010D01*
X20679989Y-25700010D02*
X20950000Y-25429999D01*
X17250000Y-24250000D02*
X18650000Y-24250000D01*
X18650000Y-24250000D02*
X19050000Y-24650000D01*
X15000000Y-25250000D02*
X16250000Y-25250000D01*
X16250000Y-25250000D02*
X17250000Y-24250000D01*
%TO.N,Net-(D7-Pad2)*%
X15000000Y-27000000D02*
X14040000Y-27000000D01*
X14040000Y-27000000D02*
X12250000Y-28790000D01*
%TO.N,RST*%
X21250000Y-41150000D02*
X21975000Y-41150000D01*
X21975000Y-41150000D02*
X22625000Y-40500000D01*
%TO.N,GND*%
X29650000Y-47150000D02*
X29650000Y-48250000D01*
%TO.N,BOOTLOAD*%
X29650000Y-46350000D02*
X28025000Y-46350000D01*
X28025000Y-46350000D02*
X27875000Y-46500000D01*
X31500000Y-46250000D02*
X29750000Y-46250000D01*
X29750000Y-46250000D02*
X29650000Y-46350000D01*
%TO.N,/EPPREVGL*%
X33500000Y-61500000D02*
X33500000Y-63125000D01*
X33500000Y-63125000D02*
X30500000Y-66125000D01*
%TO.N,/EPVCOM*%
X30750000Y-63400000D02*
X30750000Y-60750000D01*
X30750000Y-60750000D02*
X31250000Y-60250000D01*
%TO.N,/EPVSL*%
X29750000Y-60250000D02*
X29750000Y-63400000D01*
%TO.N,/EPVSH*%
X28250000Y-60250000D02*
X28750000Y-60750000D01*
X28750000Y-60750000D02*
X28750000Y-63400000D01*
%TO.N,/EPVGH*%
X20000000Y-60750000D02*
X21250000Y-62000000D01*
X21250000Y-62000000D02*
X21250000Y-63400000D01*
%TO.N,/EPVGL*%
X18500000Y-60750000D02*
X18500000Y-61275000D01*
X18500000Y-61275000D02*
X18984978Y-61759978D01*
X18984978Y-61759978D02*
X19939979Y-61759979D01*
X19939979Y-61759979D02*
X20750000Y-62570000D01*
X20750000Y-62570000D02*
X20750000Y-63400000D01*
%TO.N,/EPGDR*%
X19750000Y-62613999D02*
X19750000Y-63400000D01*
X19616000Y-62479999D02*
X19750000Y-62613999D01*
X17079999Y-62479999D02*
X19616000Y-62479999D01*
%TO.N,/EPRESE*%
X20250000Y-62604867D02*
X20250000Y-63400000D01*
%TO.N,/EPGDR*%
X15600000Y-61000000D02*
X17079999Y-62479999D01*
%TO.N,/EPRESE*%
X16900000Y-61000000D02*
X18019989Y-62119989D01*
X19765122Y-62119989D02*
X20250000Y-62604867D01*
X18019989Y-62119989D02*
X19765122Y-62119989D01*
%TO.N,/EPGDR*%
X19750000Y-63400000D02*
X19750000Y-65875000D01*
X19750000Y-65875000D02*
X19500000Y-66125000D01*
%TO.N,/EPRESE*%
X20250000Y-63400000D02*
X20250000Y-65375000D01*
X20250000Y-65375000D02*
X21000000Y-66125000D01*
%TO.N,/EPPREVGL*%
X30250000Y-63400000D02*
X30250000Y-65875000D01*
X30250000Y-65875000D02*
X30500000Y-66125000D01*
%TO.N,/EPPREVGH*%
X29250000Y-63400000D02*
X29250000Y-65875000D01*
X29250000Y-65875000D02*
X29000000Y-66125000D01*
%TO.N,/EPVPP*%
X28250000Y-63400000D02*
X28250000Y-65375000D01*
X28250000Y-65375000D02*
X27500000Y-66125000D01*
%TO.N,/EPVDD*%
X27750000Y-63400000D02*
X27750000Y-64230000D01*
X27750000Y-64230000D02*
X26000000Y-65980000D01*
X26000000Y-65980000D02*
X26000000Y-66125000D01*
%TO.N,VCC*%
X22600000Y-37350000D02*
X23400000Y-37350000D01*
X23000000Y-35750000D02*
X23000000Y-36950000D01*
X23000000Y-36950000D02*
X22600000Y-37350000D01*
%TO.N,/XL2*%
X26825000Y-34500000D02*
X27400000Y-35075000D01*
X27400000Y-35075000D02*
X27400000Y-37350000D01*
X26750000Y-32750000D02*
X26750000Y-34425000D01*
X26750000Y-34425000D02*
X26825000Y-34500000D01*
%TO.N,/XL1*%
X28750000Y-32750000D02*
X28750000Y-34425000D01*
X28750000Y-34425000D02*
X28675000Y-34500000D01*
X28200000Y-37350000D02*
X28200000Y-34975000D01*
X28200000Y-34975000D02*
X28675000Y-34500000D01*
%TO.N,Net-(D6-Pad1)*%
X24250000Y-10750000D02*
X26250000Y-10750000D01*
%TD*%
%TO.N,VCC*%
D32*
X25636418Y-58147604D02*
X25635776Y-58156581D01*
X25635776Y-58827411D01*
X25637220Y-58840841D01*
X25702070Y-59138952D01*
X25710700Y-59159786D01*
X25838759Y-59359050D01*
X25850562Y-59372671D01*
X25858720Y-59379740D01*
X25773698Y-59477861D01*
X25763954Y-59493023D01*
X25666497Y-59706424D01*
X25661419Y-59723717D01*
X25636418Y-59897604D01*
X25635776Y-59906581D01*
X25635776Y-60048191D01*
X25709585Y-60122000D01*
X26548192Y-60122001D01*
X26548193Y-60122000D01*
X26878000Y-60122001D01*
X26877999Y-61340415D01*
X26951808Y-61414224D01*
X27027411Y-61414224D01*
X27040841Y-61412780D01*
X27338952Y-61347930D01*
X27359786Y-61339300D01*
X27498032Y-61250455D01*
X27527861Y-61276302D01*
X27543023Y-61286046D01*
X27756424Y-61383503D01*
X27773717Y-61388581D01*
X27947604Y-61413582D01*
X27956581Y-61414224D01*
X28024000Y-61414224D01*
X28024000Y-61684118D01*
X27933987Y-61605595D01*
X27918922Y-61595830D01*
X27705002Y-61496986D01*
X27687802Y-61491842D01*
X27454738Y-61457010D01*
X27436785Y-61456901D01*
X27203314Y-61488882D01*
X27186052Y-61493815D01*
X26970941Y-61590039D01*
X26955758Y-61599619D01*
X26842340Y-61696145D01*
X26737094Y-61531575D01*
X26725375Y-61517975D01*
X26635478Y-61439554D01*
X26636165Y-61383328D01*
X26633624Y-61364775D01*
X26622000Y-61325023D01*
X26622001Y-60451809D01*
X26548192Y-60378000D01*
X25709585Y-60377999D01*
X25635776Y-60451808D01*
X25635776Y-60577411D01*
X25637220Y-60590841D01*
X25643615Y-60620238D01*
X25513012Y-60638128D01*
X25495750Y-60643061D01*
X25280639Y-60739285D01*
X25265456Y-60748865D01*
X25085998Y-60901596D01*
X25074113Y-60915053D01*
X25027759Y-60985620D01*
X25017510Y-60982555D01*
X24976000Y-60976351D01*
X24976000Y-58393525D01*
X24992596Y-58393829D01*
X25226440Y-58364702D01*
X25243761Y-58359980D01*
X25460032Y-58266392D01*
X25475331Y-58256998D01*
X25640392Y-58119962D01*
X25636418Y-58147604D01*
%TA.AperFunction,Conductor*%
G36*
X25636418Y-58147604D02*
G01*
X25635776Y-58156581D01*
X25635776Y-58827411D01*
X25637220Y-58840841D01*
X25702070Y-59138952D01*
X25710700Y-59159786D01*
X25838759Y-59359050D01*
X25850562Y-59372671D01*
X25858720Y-59379740D01*
X25773698Y-59477861D01*
X25763954Y-59493023D01*
X25666497Y-59706424D01*
X25661419Y-59723717D01*
X25636418Y-59897604D01*
X25635776Y-59906581D01*
X25635776Y-60048191D01*
X25709585Y-60122000D01*
X26548192Y-60122001D01*
X26548193Y-60122000D01*
X26878000Y-60122001D01*
X26877999Y-61340415D01*
X26951808Y-61414224D01*
X27027411Y-61414224D01*
X27040841Y-61412780D01*
X27338952Y-61347930D01*
X27359786Y-61339300D01*
X27498032Y-61250455D01*
X27527861Y-61276302D01*
X27543023Y-61286046D01*
X27756424Y-61383503D01*
X27773717Y-61388581D01*
X27947604Y-61413582D01*
X27956581Y-61414224D01*
X28024000Y-61414224D01*
X28024000Y-61684118D01*
X27933987Y-61605595D01*
X27918922Y-61595830D01*
X27705002Y-61496986D01*
X27687802Y-61491842D01*
X27454738Y-61457010D01*
X27436785Y-61456901D01*
X27203314Y-61488882D01*
X27186052Y-61493815D01*
X26970941Y-61590039D01*
X26955758Y-61599619D01*
X26842340Y-61696145D01*
X26737094Y-61531575D01*
X26725375Y-61517975D01*
X26635478Y-61439554D01*
X26636165Y-61383328D01*
X26633624Y-61364775D01*
X26622000Y-61325023D01*
X26622001Y-60451809D01*
X26548192Y-60378000D01*
X25709585Y-60377999D01*
X25635776Y-60451808D01*
X25635776Y-60577411D01*
X25637220Y-60590841D01*
X25643615Y-60620238D01*
X25513012Y-60638128D01*
X25495750Y-60643061D01*
X25280639Y-60739285D01*
X25265456Y-60748865D01*
X25085998Y-60901596D01*
X25074113Y-60915053D01*
X25027759Y-60985620D01*
X25017510Y-60982555D01*
X24976000Y-60976351D01*
X24976000Y-58393525D01*
X24992596Y-58393829D01*
X25226440Y-58364702D01*
X25243761Y-58359980D01*
X25460032Y-58266392D01*
X25475331Y-58256998D01*
X25640392Y-58119962D01*
X25636418Y-58147604D01*
G37*
%TD.AperFunction*%
X32503871Y-57254763D02*
X32415410Y-57328990D01*
X32401239Y-57345879D01*
X32300641Y-57520120D01*
X32293100Y-57540837D01*
X32259122Y-57733538D01*
X32258163Y-57744499D01*
X32258163Y-57791764D01*
X32161241Y-57640950D01*
X32149438Y-57627329D01*
X31972139Y-57473698D01*
X31956977Y-57463954D01*
X31743576Y-57366497D01*
X31726283Y-57361419D01*
X31552396Y-57336418D01*
X31543419Y-57335776D01*
X30972589Y-57335776D01*
X30959159Y-57337220D01*
X30661048Y-57402070D01*
X30640214Y-57410700D01*
X30501968Y-57499545D01*
X30472139Y-57473698D01*
X30456977Y-57463954D01*
X30243576Y-57366497D01*
X30226283Y-57361419D01*
X30052396Y-57336418D01*
X30043419Y-57335776D01*
X29472589Y-57335776D01*
X29459159Y-57337220D01*
X29161048Y-57402070D01*
X29140214Y-57410700D01*
X29001968Y-57499545D01*
X28972139Y-57473698D01*
X28956977Y-57463954D01*
X28743576Y-57366497D01*
X28726283Y-57361419D01*
X28552396Y-57336418D01*
X28543419Y-57335776D01*
X27972589Y-57335776D01*
X27959159Y-57337220D01*
X27661048Y-57402070D01*
X27640214Y-57410700D01*
X27501968Y-57499545D01*
X27472139Y-57473698D01*
X27456977Y-57463954D01*
X27243576Y-57366497D01*
X27226283Y-57361419D01*
X27052396Y-57336418D01*
X27043419Y-57335776D01*
X26472589Y-57335776D01*
X26459159Y-57337220D01*
X26161048Y-57402070D01*
X26140214Y-57410700D01*
X26072503Y-57454215D01*
X26300718Y-57226000D01*
X32485386Y-57226000D01*
X32503871Y-57254763D01*
%TA.AperFunction,Conductor*%
G36*
X32503871Y-57254763D02*
G01*
X32415410Y-57328990D01*
X32401239Y-57345879D01*
X32300641Y-57520120D01*
X32293100Y-57540837D01*
X32259122Y-57733538D01*
X32258163Y-57744499D01*
X32258163Y-57791764D01*
X32161241Y-57640950D01*
X32149438Y-57627329D01*
X31972139Y-57473698D01*
X31956977Y-57463954D01*
X31743576Y-57366497D01*
X31726283Y-57361419D01*
X31552396Y-57336418D01*
X31543419Y-57335776D01*
X30972589Y-57335776D01*
X30959159Y-57337220D01*
X30661048Y-57402070D01*
X30640214Y-57410700D01*
X30501968Y-57499545D01*
X30472139Y-57473698D01*
X30456977Y-57463954D01*
X30243576Y-57366497D01*
X30226283Y-57361419D01*
X30052396Y-57336418D01*
X30043419Y-57335776D01*
X29472589Y-57335776D01*
X29459159Y-57337220D01*
X29161048Y-57402070D01*
X29140214Y-57410700D01*
X29001968Y-57499545D01*
X28972139Y-57473698D01*
X28956977Y-57463954D01*
X28743576Y-57366497D01*
X28726283Y-57361419D01*
X28552396Y-57336418D01*
X28543419Y-57335776D01*
X27972589Y-57335776D01*
X27959159Y-57337220D01*
X27661048Y-57402070D01*
X27640214Y-57410700D01*
X27501968Y-57499545D01*
X27472139Y-57473698D01*
X27456977Y-57463954D01*
X27243576Y-57366497D01*
X27226283Y-57361419D01*
X27052396Y-57336418D01*
X27043419Y-57335776D01*
X26472589Y-57335776D01*
X26459159Y-57337220D01*
X26161048Y-57402070D01*
X26140214Y-57410700D01*
X26072503Y-57454215D01*
X26300718Y-57226000D01*
X32485386Y-57226000D01*
X32503871Y-57254763D01*
G37*
%TD.AperFunction*%
X16682419Y-45569535D02*
X16585998Y-45651596D01*
X16574114Y-45665053D01*
X16444735Y-45862013D01*
X16437105Y-45878264D01*
X16368207Y-46103618D01*
X16365445Y-46121358D01*
X16362567Y-46356993D01*
X16364895Y-46374794D01*
X16378634Y-46424000D01*
X15745052Y-46424000D01*
X15725464Y-46427103D01*
X15679997Y-46441876D01*
X15632774Y-46449355D01*
X15613912Y-46455484D01*
X15571312Y-46477190D01*
X15525842Y-46491965D01*
X15508171Y-46500968D01*
X15469498Y-46529066D01*
X15426894Y-46550774D01*
X15410849Y-46562432D01*
X15346604Y-46626678D01*
X15263012Y-46638128D01*
X15245751Y-46643061D01*
X15030639Y-46739285D01*
X15015456Y-46748865D01*
X14835998Y-46901596D01*
X14824114Y-46915053D01*
X14694735Y-47112013D01*
X14687105Y-47128264D01*
X14618207Y-47353618D01*
X14615445Y-47371358D01*
X14612567Y-47606993D01*
X14614895Y-47624794D01*
X14678265Y-47851765D01*
X14685496Y-47868198D01*
X14810024Y-48068259D01*
X14821576Y-48082002D01*
X14997249Y-48239071D01*
X15012193Y-48249019D01*
X15224888Y-48350470D01*
X15242025Y-48355824D01*
X15474646Y-48393500D01*
X15492596Y-48393829D01*
X15726440Y-48364702D01*
X15743761Y-48359980D01*
X15960032Y-48266392D01*
X15975331Y-48256998D01*
X16156642Y-48106471D01*
X16168690Y-48093161D01*
X16300464Y-47897796D01*
X16308292Y-47881640D01*
X16310092Y-47876000D01*
X17199421Y-47876000D01*
X17106783Y-48017028D01*
X17099153Y-48033279D01*
X17030255Y-48258633D01*
X17027493Y-48276373D01*
X17024615Y-48512008D01*
X17026943Y-48529809D01*
X17090313Y-48756780D01*
X17097544Y-48773212D01*
X17128063Y-48822242D01*
X17128063Y-48872368D01*
X17013012Y-48888128D01*
X16995751Y-48893061D01*
X16780639Y-48989285D01*
X16765456Y-48998865D01*
X16585998Y-49151596D01*
X16574114Y-49165053D01*
X16444735Y-49362013D01*
X16437105Y-49378264D01*
X16368207Y-49603618D01*
X16365445Y-49621358D01*
X16362567Y-49856993D01*
X16364895Y-49874794D01*
X16428265Y-50101765D01*
X16435496Y-50118198D01*
X16524000Y-50260384D01*
X16524001Y-54951133D01*
X14332853Y-57142282D01*
X14322120Y-57121662D01*
X14191010Y-56965410D01*
X14174121Y-56951239D01*
X13999880Y-56850641D01*
X13979163Y-56843100D01*
X13786462Y-56809122D01*
X13775501Y-56808163D01*
X12491742Y-56808163D01*
X12475366Y-56810319D01*
X12291837Y-56859496D01*
X12291837Y-55891742D01*
X12289681Y-55875366D01*
X12214863Y-55596142D01*
X12202120Y-55571662D01*
X12071010Y-55415410D01*
X12054121Y-55401239D01*
X11879880Y-55300641D01*
X11859163Y-55293100D01*
X11666462Y-55259122D01*
X11655501Y-55258163D01*
X10841742Y-55258163D01*
X10825366Y-55260319D01*
X10634000Y-55311595D01*
X10634000Y-44704411D01*
X10640837Y-44706900D01*
X10833538Y-44740878D01*
X10844499Y-44741837D01*
X11658258Y-44741837D01*
X11674634Y-44739681D01*
X11953859Y-44664863D01*
X11978339Y-44652120D01*
X12134590Y-44521010D01*
X12148761Y-44504121D01*
X12249359Y-44329880D01*
X12256900Y-44309163D01*
X12290878Y-44116462D01*
X12291837Y-44105501D01*
X12291837Y-43157076D01*
X12483538Y-43190878D01*
X12494499Y-43191837D01*
X13778258Y-43191837D01*
X13794634Y-43189681D01*
X14073859Y-43114863D01*
X14098339Y-43102120D01*
X14161775Y-43048890D01*
X16682419Y-45569535D01*
%TA.AperFunction,Conductor*%
G36*
X16682419Y-45569535D02*
G01*
X16585998Y-45651596D01*
X16574114Y-45665053D01*
X16444735Y-45862013D01*
X16437105Y-45878264D01*
X16368207Y-46103618D01*
X16365445Y-46121358D01*
X16362567Y-46356993D01*
X16364895Y-46374794D01*
X16378634Y-46424000D01*
X15745052Y-46424000D01*
X15725464Y-46427103D01*
X15679997Y-46441876D01*
X15632774Y-46449355D01*
X15613912Y-46455484D01*
X15571312Y-46477190D01*
X15525842Y-46491965D01*
X15508171Y-46500968D01*
X15469498Y-46529066D01*
X15426894Y-46550774D01*
X15410849Y-46562432D01*
X15346604Y-46626678D01*
X15263012Y-46638128D01*
X15245751Y-46643061D01*
X15030639Y-46739285D01*
X15015456Y-46748865D01*
X14835998Y-46901596D01*
X14824114Y-46915053D01*
X14694735Y-47112013D01*
X14687105Y-47128264D01*
X14618207Y-47353618D01*
X14615445Y-47371358D01*
X14612567Y-47606993D01*
X14614895Y-47624794D01*
X14678265Y-47851765D01*
X14685496Y-47868198D01*
X14810024Y-48068259D01*
X14821576Y-48082002D01*
X14997249Y-48239071D01*
X15012193Y-48249019D01*
X15224888Y-48350470D01*
X15242025Y-48355824D01*
X15474646Y-48393500D01*
X15492596Y-48393829D01*
X15726440Y-48364702D01*
X15743761Y-48359980D01*
X15960032Y-48266392D01*
X15975331Y-48256998D01*
X16156642Y-48106471D01*
X16168690Y-48093161D01*
X16300464Y-47897796D01*
X16308292Y-47881640D01*
X16310092Y-47876000D01*
X17199421Y-47876000D01*
X17106783Y-48017028D01*
X17099153Y-48033279D01*
X17030255Y-48258633D01*
X17027493Y-48276373D01*
X17024615Y-48512008D01*
X17026943Y-48529809D01*
X17090313Y-48756780D01*
X17097544Y-48773212D01*
X17128063Y-48822242D01*
X17128063Y-48872368D01*
X17013012Y-48888128D01*
X16995751Y-48893061D01*
X16780639Y-48989285D01*
X16765456Y-48998865D01*
X16585998Y-49151596D01*
X16574114Y-49165053D01*
X16444735Y-49362013D01*
X16437105Y-49378264D01*
X16368207Y-49603618D01*
X16365445Y-49621358D01*
X16362567Y-49856993D01*
X16364895Y-49874794D01*
X16428265Y-50101765D01*
X16435496Y-50118198D01*
X16524000Y-50260384D01*
X16524001Y-54951133D01*
X14332853Y-57142282D01*
X14322120Y-57121662D01*
X14191010Y-56965410D01*
X14174121Y-56951239D01*
X13999880Y-56850641D01*
X13979163Y-56843100D01*
X13786462Y-56809122D01*
X13775501Y-56808163D01*
X12491742Y-56808163D01*
X12475366Y-56810319D01*
X12291837Y-56859496D01*
X12291837Y-55891742D01*
X12289681Y-55875366D01*
X12214863Y-55596142D01*
X12202120Y-55571662D01*
X12071010Y-55415410D01*
X12054121Y-55401239D01*
X11879880Y-55300641D01*
X11859163Y-55293100D01*
X11666462Y-55259122D01*
X11655501Y-55258163D01*
X10841742Y-55258163D01*
X10825366Y-55260319D01*
X10634000Y-55311595D01*
X10634000Y-44704411D01*
X10640837Y-44706900D01*
X10833538Y-44740878D01*
X10844499Y-44741837D01*
X11658258Y-44741837D01*
X11674634Y-44739681D01*
X11953859Y-44664863D01*
X11978339Y-44652120D01*
X12134590Y-44521010D01*
X12148761Y-44504121D01*
X12249359Y-44329880D01*
X12256900Y-44309163D01*
X12290878Y-44116462D01*
X12291837Y-44105501D01*
X12291837Y-43157076D01*
X12483538Y-43190878D01*
X12494499Y-43191837D01*
X13778258Y-43191837D01*
X13794634Y-43189681D01*
X14073859Y-43114863D01*
X14098339Y-43102120D01*
X14161775Y-43048890D01*
X16682419Y-45569535D01*
G37*
%TD.AperFunction*%
X35591997Y-48122001D02*
X35628000Y-48158004D01*
X35627999Y-48378000D01*
X34459585Y-48377999D01*
X34385776Y-48451808D01*
X34385776Y-48577411D01*
X34387220Y-48590841D01*
X34452070Y-48888952D01*
X34460700Y-48909786D01*
X34588759Y-49109050D01*
X34600562Y-49122671D01*
X34608720Y-49129740D01*
X34523698Y-49227861D01*
X34513954Y-49243023D01*
X34416497Y-49456424D01*
X34411419Y-49473717D01*
X34386418Y-49647604D01*
X34385776Y-49656581D01*
X34385776Y-50087506D01*
X33053839Y-51419444D01*
X32912432Y-51560850D01*
X32900775Y-51576895D01*
X32879073Y-51619488D01*
X32850968Y-51658171D01*
X32841964Y-51675843D01*
X32827192Y-51721310D01*
X32805485Y-51763911D01*
X32799357Y-51782774D01*
X32791877Y-51829996D01*
X32777103Y-51875465D01*
X32774001Y-51895054D01*
X32774001Y-51952779D01*
X32774000Y-55503253D01*
X32640950Y-55588759D01*
X32627329Y-55600562D01*
X32477044Y-55774000D01*
X25895052Y-55774000D01*
X25875464Y-55777103D01*
X25829997Y-55791876D01*
X25782774Y-55799355D01*
X25763912Y-55805484D01*
X25721312Y-55827190D01*
X25675842Y-55841965D01*
X25658172Y-55850968D01*
X25619496Y-55879067D01*
X25576894Y-55900774D01*
X25560849Y-55912432D01*
X25520031Y-55953251D01*
X24846605Y-56626678D01*
X24763013Y-56638128D01*
X24745751Y-56643061D01*
X24693260Y-56666542D01*
X20402717Y-52376000D01*
X30302191Y-52376000D01*
X30376000Y-52302191D01*
X30376000Y-48947809D01*
X30360973Y-48932782D01*
X30434590Y-48871010D01*
X30448761Y-48854121D01*
X30549359Y-48679880D01*
X30556900Y-48659163D01*
X30564243Y-48617521D01*
X30724646Y-48643500D01*
X30742596Y-48643829D01*
X30976440Y-48614702D01*
X30993761Y-48609980D01*
X31210032Y-48516392D01*
X31225331Y-48506998D01*
X31262669Y-48476000D01*
X33802426Y-48476000D01*
X33802438Y-48475999D01*
X33854946Y-48475999D01*
X33874535Y-48472897D01*
X33919997Y-48458125D01*
X33967226Y-48450645D01*
X33986088Y-48444516D01*
X34028689Y-48422810D01*
X34074158Y-48408036D01*
X34091828Y-48399032D01*
X34130502Y-48370934D01*
X34132241Y-48370048D01*
X34233738Y-48357405D01*
X34251058Y-48352683D01*
X34467329Y-48259095D01*
X34482628Y-48249701D01*
X34636446Y-48122000D01*
X35591997Y-48122001D01*
%TA.AperFunction,Conductor*%
G36*
X35591997Y-48122001D02*
G01*
X35628000Y-48158004D01*
X35627999Y-48378000D01*
X34459585Y-48377999D01*
X34385776Y-48451808D01*
X34385776Y-48577411D01*
X34387220Y-48590841D01*
X34452070Y-48888952D01*
X34460700Y-48909786D01*
X34588759Y-49109050D01*
X34600562Y-49122671D01*
X34608720Y-49129740D01*
X34523698Y-49227861D01*
X34513954Y-49243023D01*
X34416497Y-49456424D01*
X34411419Y-49473717D01*
X34386418Y-49647604D01*
X34385776Y-49656581D01*
X34385776Y-50087506D01*
X33053839Y-51419444D01*
X32912432Y-51560850D01*
X32900775Y-51576895D01*
X32879073Y-51619488D01*
X32850968Y-51658171D01*
X32841964Y-51675843D01*
X32827192Y-51721310D01*
X32805485Y-51763911D01*
X32799357Y-51782774D01*
X32791877Y-51829996D01*
X32777103Y-51875465D01*
X32774001Y-51895054D01*
X32774001Y-51952779D01*
X32774000Y-55503253D01*
X32640950Y-55588759D01*
X32627329Y-55600562D01*
X32477044Y-55774000D01*
X25895052Y-55774000D01*
X25875464Y-55777103D01*
X25829997Y-55791876D01*
X25782774Y-55799355D01*
X25763912Y-55805484D01*
X25721312Y-55827190D01*
X25675842Y-55841965D01*
X25658172Y-55850968D01*
X25619496Y-55879067D01*
X25576894Y-55900774D01*
X25560849Y-55912432D01*
X25520031Y-55953251D01*
X24846605Y-56626678D01*
X24763013Y-56638128D01*
X24745751Y-56643061D01*
X24693260Y-56666542D01*
X20402717Y-52376000D01*
X30302191Y-52376000D01*
X30376000Y-52302191D01*
X30376000Y-48947809D01*
X30360973Y-48932782D01*
X30434590Y-48871010D01*
X30448761Y-48854121D01*
X30549359Y-48679880D01*
X30556900Y-48659163D01*
X30564243Y-48617521D01*
X30724646Y-48643500D01*
X30742596Y-48643829D01*
X30976440Y-48614702D01*
X30993761Y-48609980D01*
X31210032Y-48516392D01*
X31225331Y-48506998D01*
X31262669Y-48476000D01*
X33802426Y-48476000D01*
X33802438Y-48475999D01*
X33854946Y-48475999D01*
X33874535Y-48472897D01*
X33919997Y-48458125D01*
X33967226Y-48450645D01*
X33986088Y-48444516D01*
X34028689Y-48422810D01*
X34074158Y-48408036D01*
X34091828Y-48399032D01*
X34130502Y-48370934D01*
X34132241Y-48370048D01*
X34233738Y-48357405D01*
X34251058Y-48352683D01*
X34467329Y-48259095D01*
X34482628Y-48249701D01*
X34636446Y-48122000D01*
X35591997Y-48122001D01*
G37*
%TD.AperFunction*%
X32493105Y-45273108D02*
X32390950Y-45338759D01*
X32377329Y-45350562D01*
X32370260Y-45358720D01*
X32272139Y-45273698D01*
X32256977Y-45263954D01*
X32043576Y-45166497D01*
X32026283Y-45161419D01*
X31852396Y-45136418D01*
X31843419Y-45135776D01*
X31172589Y-45135776D01*
X31159159Y-45137220D01*
X30861048Y-45202070D01*
X30840214Y-45210700D01*
X30640950Y-45338759D01*
X30627329Y-45350562D01*
X30477044Y-45524000D01*
X30219759Y-45524000D01*
X30253859Y-45514863D01*
X30278339Y-45502120D01*
X30434590Y-45371010D01*
X30448761Y-45354121D01*
X30549359Y-45179880D01*
X30556900Y-45159163D01*
X30590878Y-44966462D01*
X30591837Y-44955501D01*
X30591837Y-44541741D01*
X30589681Y-44525366D01*
X30550130Y-44377761D01*
X30556900Y-44359163D01*
X30590878Y-44166462D01*
X30591837Y-44155501D01*
X30591837Y-44075999D01*
X31295996Y-44075999D01*
X32493105Y-45273108D01*
%TA.AperFunction,Conductor*%
G36*
X32493105Y-45273108D02*
G01*
X32390950Y-45338759D01*
X32377329Y-45350562D01*
X32370260Y-45358720D01*
X32272139Y-45273698D01*
X32256977Y-45263954D01*
X32043576Y-45166497D01*
X32026283Y-45161419D01*
X31852396Y-45136418D01*
X31843419Y-45135776D01*
X31172589Y-45135776D01*
X31159159Y-45137220D01*
X30861048Y-45202070D01*
X30840214Y-45210700D01*
X30640950Y-45338759D01*
X30627329Y-45350562D01*
X30477044Y-45524000D01*
X30219759Y-45524000D01*
X30253859Y-45514863D01*
X30278339Y-45502120D01*
X30434590Y-45371010D01*
X30448761Y-45354121D01*
X30549359Y-45179880D01*
X30556900Y-45159163D01*
X30590878Y-44966462D01*
X30591837Y-44955501D01*
X30591837Y-44541741D01*
X30589681Y-44525366D01*
X30550130Y-44377761D01*
X30556900Y-44359163D01*
X30590878Y-44166462D01*
X30591837Y-44155501D01*
X30591837Y-44075999D01*
X31295996Y-44075999D01*
X32493105Y-45273108D01*
G37*
%TD.AperFunction*%
X34135776Y-41656581D02*
X34135776Y-42327411D01*
X34137220Y-42340841D01*
X34202070Y-42638952D01*
X34210700Y-42659786D01*
X34338759Y-42859050D01*
X34350562Y-42872671D01*
X34358720Y-42879740D01*
X34273698Y-42977861D01*
X34263954Y-42993023D01*
X34166497Y-43206424D01*
X34161419Y-43223717D01*
X34136418Y-43397604D01*
X34135776Y-43406581D01*
X34135776Y-43548191D01*
X34209585Y-43622000D01*
X35345258Y-43622001D01*
X35345257Y-43858595D01*
X35336714Y-43863985D01*
X35320247Y-43878000D01*
X34209585Y-43877999D01*
X34135776Y-43951808D01*
X34135776Y-44077411D01*
X34137220Y-44090841D01*
X34202070Y-44388952D01*
X34210425Y-44409121D01*
X34191687Y-44409121D01*
X32658565Y-42876001D01*
X32667425Y-42876001D01*
X32667437Y-42876000D01*
X32719945Y-42876000D01*
X32739534Y-42872898D01*
X32784996Y-42858126D01*
X32832225Y-42850646D01*
X32851087Y-42844517D01*
X32893688Y-42822811D01*
X32939157Y-42808037D01*
X32956827Y-42799033D01*
X32995501Y-42770935D01*
X33038105Y-42749227D01*
X33054150Y-42737569D01*
X33202738Y-42588981D01*
X33202743Y-42588974D01*
X34135825Y-41655892D01*
X34135776Y-41656581D01*
%TA.AperFunction,Conductor*%
G36*
X34135776Y-41656581D02*
G01*
X34135776Y-42327411D01*
X34137220Y-42340841D01*
X34202070Y-42638952D01*
X34210700Y-42659786D01*
X34338759Y-42859050D01*
X34350562Y-42872671D01*
X34358720Y-42879740D01*
X34273698Y-42977861D01*
X34263954Y-42993023D01*
X34166497Y-43206424D01*
X34161419Y-43223717D01*
X34136418Y-43397604D01*
X34135776Y-43406581D01*
X34135776Y-43548191D01*
X34209585Y-43622000D01*
X35345258Y-43622001D01*
X35345257Y-43858595D01*
X35336714Y-43863985D01*
X35320247Y-43878000D01*
X34209585Y-43877999D01*
X34135776Y-43951808D01*
X34135776Y-44077411D01*
X34137220Y-44090841D01*
X34202070Y-44388952D01*
X34210425Y-44409121D01*
X34191687Y-44409121D01*
X32658565Y-42876001D01*
X32667425Y-42876001D01*
X32667437Y-42876000D01*
X32719945Y-42876000D01*
X32739534Y-42872898D01*
X32784996Y-42858126D01*
X32832225Y-42850646D01*
X32851087Y-42844517D01*
X32893688Y-42822811D01*
X32939157Y-42808037D01*
X32956827Y-42799033D01*
X32995501Y-42770935D01*
X33038105Y-42749227D01*
X33054150Y-42737569D01*
X33202738Y-42588981D01*
X33202743Y-42588974D01*
X34135825Y-41655892D01*
X34135776Y-41656581D01*
G37*
%TD.AperFunction*%
X25790837Y-39156899D02*
X25983538Y-39190878D01*
X25994499Y-39191837D01*
X26015119Y-39191837D01*
X26269443Y-39446162D01*
X26410849Y-39587568D01*
X26426894Y-39599226D01*
X26469496Y-39620933D01*
X26508172Y-39649032D01*
X26525842Y-39658035D01*
X26571312Y-39672810D01*
X26613912Y-39694516D01*
X26632774Y-39700645D01*
X26679997Y-39708124D01*
X26725464Y-39722897D01*
X26745052Y-39726000D01*
X28482630Y-39726000D01*
X28497249Y-39739071D01*
X28512193Y-39749019D01*
X28668065Y-39823366D01*
X28311026Y-40180405D01*
X28311019Y-40180410D01*
X28162431Y-40328999D01*
X28150774Y-40345043D01*
X28129068Y-40387644D01*
X28121582Y-40397947D01*
X27965410Y-40528990D01*
X27951239Y-40545879D01*
X27850641Y-40720120D01*
X27843100Y-40740837D01*
X27809122Y-40933538D01*
X27808163Y-40944499D01*
X27808163Y-41358258D01*
X27810319Y-41374634D01*
X27849869Y-41522239D01*
X27843101Y-41540837D01*
X27809122Y-41733538D01*
X27808163Y-41744499D01*
X27808163Y-42158258D01*
X27810319Y-42174634D01*
X27849869Y-42322239D01*
X27843101Y-42340837D01*
X27809122Y-42533538D01*
X27808163Y-42544499D01*
X27808163Y-42958258D01*
X27810319Y-42974634D01*
X27849869Y-43122239D01*
X27843101Y-43140837D01*
X27809122Y-43333538D01*
X27808163Y-43344499D01*
X27808163Y-43507739D01*
X27764863Y-43346142D01*
X27752120Y-43321662D01*
X27621010Y-43165410D01*
X27604121Y-43151239D01*
X27429880Y-43050641D01*
X27409163Y-43043100D01*
X27216462Y-43009122D01*
X27205501Y-43008163D01*
X26884885Y-43008163D01*
X26886165Y-42903337D01*
X26883624Y-42884784D01*
X26817376Y-42658233D01*
X26809945Y-42641889D01*
X26682983Y-42443364D01*
X26671264Y-42429763D01*
X26493685Y-42274851D01*
X26478620Y-42265086D01*
X26264700Y-42166242D01*
X26247500Y-42161098D01*
X26014436Y-42126266D01*
X25996483Y-42126157D01*
X25763012Y-42158138D01*
X25745750Y-42163071D01*
X25530639Y-42259295D01*
X25515456Y-42268875D01*
X25485923Y-42294010D01*
X22168388Y-42294010D01*
X22190878Y-42166462D01*
X22191837Y-42155501D01*
X22191837Y-41850707D01*
X22192226Y-41850645D01*
X22211088Y-41844516D01*
X22253689Y-41822810D01*
X22299158Y-41808036D01*
X22316828Y-41799032D01*
X22355502Y-41770934D01*
X22398106Y-41749226D01*
X22414151Y-41737568D01*
X22562739Y-41588980D01*
X22562744Y-41588973D01*
X22777848Y-41373869D01*
X22851440Y-41364702D01*
X22868761Y-41359980D01*
X23085032Y-41266392D01*
X23100331Y-41256998D01*
X23281642Y-41106471D01*
X23293690Y-41093161D01*
X23425464Y-40897796D01*
X23433292Y-40881640D01*
X23505056Y-40656775D01*
X23508050Y-40638289D01*
X23511165Y-40383328D01*
X23508624Y-40364774D01*
X23442376Y-40138223D01*
X23434945Y-40121879D01*
X23307983Y-39923354D01*
X23296264Y-39909753D01*
X23118685Y-39754841D01*
X23103620Y-39745076D01*
X22889700Y-39646232D01*
X22872500Y-39641088D01*
X22639436Y-39606256D01*
X22621483Y-39606147D01*
X22388012Y-39638128D01*
X22370750Y-39643061D01*
X22191837Y-39723093D01*
X22191837Y-39638186D01*
X22224646Y-39643500D01*
X22242596Y-39643829D01*
X22476440Y-39614702D01*
X22493761Y-39609980D01*
X22710032Y-39516392D01*
X22725331Y-39506998D01*
X22906642Y-39356471D01*
X22918690Y-39343161D01*
X23020759Y-39191837D01*
X23208258Y-39191837D01*
X23224634Y-39189681D01*
X23372239Y-39150131D01*
X23390837Y-39156899D01*
X23583538Y-39190878D01*
X23594499Y-39191837D01*
X24008258Y-39191837D01*
X24024634Y-39189681D01*
X24172239Y-39150131D01*
X24190837Y-39156899D01*
X24383538Y-39190878D01*
X24394499Y-39191837D01*
X24808258Y-39191837D01*
X24824634Y-39189681D01*
X24972239Y-39150131D01*
X24990837Y-39156899D01*
X25183538Y-39190878D01*
X25194499Y-39191837D01*
X25608258Y-39191837D01*
X25624634Y-39189681D01*
X25772239Y-39150131D01*
X25790837Y-39156899D01*
%TA.AperFunction,Conductor*%
G36*
X25790837Y-39156899D02*
G01*
X25983538Y-39190878D01*
X25994499Y-39191837D01*
X26015119Y-39191837D01*
X26269443Y-39446162D01*
X26410849Y-39587568D01*
X26426894Y-39599226D01*
X26469496Y-39620933D01*
X26508172Y-39649032D01*
X26525842Y-39658035D01*
X26571312Y-39672810D01*
X26613912Y-39694516D01*
X26632774Y-39700645D01*
X26679997Y-39708124D01*
X26725464Y-39722897D01*
X26745052Y-39726000D01*
X28482630Y-39726000D01*
X28497249Y-39739071D01*
X28512193Y-39749019D01*
X28668065Y-39823366D01*
X28311026Y-40180405D01*
X28311019Y-40180410D01*
X28162431Y-40328999D01*
X28150774Y-40345043D01*
X28129068Y-40387644D01*
X28121582Y-40397947D01*
X27965410Y-40528990D01*
X27951239Y-40545879D01*
X27850641Y-40720120D01*
X27843100Y-40740837D01*
X27809122Y-40933538D01*
X27808163Y-40944499D01*
X27808163Y-41358258D01*
X27810319Y-41374634D01*
X27849869Y-41522239D01*
X27843101Y-41540837D01*
X27809122Y-41733538D01*
X27808163Y-41744499D01*
X27808163Y-42158258D01*
X27810319Y-42174634D01*
X27849869Y-42322239D01*
X27843101Y-42340837D01*
X27809122Y-42533538D01*
X27808163Y-42544499D01*
X27808163Y-42958258D01*
X27810319Y-42974634D01*
X27849869Y-43122239D01*
X27843101Y-43140837D01*
X27809122Y-43333538D01*
X27808163Y-43344499D01*
X27808163Y-43507739D01*
X27764863Y-43346142D01*
X27752120Y-43321662D01*
X27621010Y-43165410D01*
X27604121Y-43151239D01*
X27429880Y-43050641D01*
X27409163Y-43043100D01*
X27216462Y-43009122D01*
X27205501Y-43008163D01*
X26884885Y-43008163D01*
X26886165Y-42903337D01*
X26883624Y-42884784D01*
X26817376Y-42658233D01*
X26809945Y-42641889D01*
X26682983Y-42443364D01*
X26671264Y-42429763D01*
X26493685Y-42274851D01*
X26478620Y-42265086D01*
X26264700Y-42166242D01*
X26247500Y-42161098D01*
X26014436Y-42126266D01*
X25996483Y-42126157D01*
X25763012Y-42158138D01*
X25745750Y-42163071D01*
X25530639Y-42259295D01*
X25515456Y-42268875D01*
X25485923Y-42294010D01*
X22168388Y-42294010D01*
X22190878Y-42166462D01*
X22191837Y-42155501D01*
X22191837Y-41850707D01*
X22192226Y-41850645D01*
X22211088Y-41844516D01*
X22253689Y-41822810D01*
X22299158Y-41808036D01*
X22316828Y-41799032D01*
X22355502Y-41770934D01*
X22398106Y-41749226D01*
X22414151Y-41737568D01*
X22562739Y-41588980D01*
X22562744Y-41588973D01*
X22777848Y-41373869D01*
X22851440Y-41364702D01*
X22868761Y-41359980D01*
X23085032Y-41266392D01*
X23100331Y-41256998D01*
X23281642Y-41106471D01*
X23293690Y-41093161D01*
X23425464Y-40897796D01*
X23433292Y-40881640D01*
X23505056Y-40656775D01*
X23508050Y-40638289D01*
X23511165Y-40383328D01*
X23508624Y-40364774D01*
X23442376Y-40138223D01*
X23434945Y-40121879D01*
X23307983Y-39923354D01*
X23296264Y-39909753D01*
X23118685Y-39754841D01*
X23103620Y-39745076D01*
X22889700Y-39646232D01*
X22872500Y-39641088D01*
X22639436Y-39606256D01*
X22621483Y-39606147D01*
X22388012Y-39638128D01*
X22370750Y-39643061D01*
X22191837Y-39723093D01*
X22191837Y-39638186D01*
X22224646Y-39643500D01*
X22242596Y-39643829D01*
X22476440Y-39614702D01*
X22493761Y-39609980D01*
X22710032Y-39516392D01*
X22725331Y-39506998D01*
X22906642Y-39356471D01*
X22918690Y-39343161D01*
X23020759Y-39191837D01*
X23208258Y-39191837D01*
X23224634Y-39189681D01*
X23372239Y-39150131D01*
X23390837Y-39156899D01*
X23583538Y-39190878D01*
X23594499Y-39191837D01*
X24008258Y-39191837D01*
X24024634Y-39189681D01*
X24172239Y-39150131D01*
X24190837Y-39156899D01*
X24383538Y-39190878D01*
X24394499Y-39191837D01*
X24808258Y-39191837D01*
X24824634Y-39189681D01*
X24972239Y-39150131D01*
X24990837Y-39156899D01*
X25183538Y-39190878D01*
X25194499Y-39191837D01*
X25608258Y-39191837D01*
X25624634Y-39189681D01*
X25772239Y-39150131D01*
X25790837Y-39156899D01*
G37*
%TD.AperFunction*%
X39366000Y-31156346D02*
X39227396Y-31136418D01*
X39218419Y-31135776D01*
X39076809Y-31135776D01*
X39003000Y-31209585D01*
X39003000Y-33290415D01*
X39076809Y-33364224D01*
X39202411Y-33364224D01*
X39215841Y-33362780D01*
X39366000Y-33330115D01*
X39366000Y-35295589D01*
X39359163Y-35293100D01*
X39166462Y-35259122D01*
X39155501Y-35258163D01*
X38341742Y-35258163D01*
X38325366Y-35260319D01*
X38046142Y-35335137D01*
X38021662Y-35347880D01*
X37865410Y-35478990D01*
X37851239Y-35495879D01*
X37750641Y-35670120D01*
X37743100Y-35690837D01*
X37709122Y-35883538D01*
X37708163Y-35894499D01*
X37708163Y-36842924D01*
X37516462Y-36809122D01*
X37505501Y-36808163D01*
X36221742Y-36808163D01*
X36205366Y-36810319D01*
X35926142Y-36885137D01*
X35901662Y-36897880D01*
X35745410Y-37028990D01*
X35731239Y-37045879D01*
X35630641Y-37220120D01*
X35623100Y-37240837D01*
X35589122Y-37433538D01*
X35588163Y-37444499D01*
X35588163Y-38150119D01*
X32314282Y-41424001D01*
X31102715Y-41424001D01*
X38546749Y-33979968D01*
X38587568Y-33939150D01*
X38599226Y-33923105D01*
X38620933Y-33880503D01*
X38649032Y-33841827D01*
X38658035Y-33824157D01*
X38672810Y-33778687D01*
X38694516Y-33736087D01*
X38700645Y-33717225D01*
X38708124Y-33670002D01*
X38722897Y-33624535D01*
X38726000Y-33604947D01*
X38726000Y-33311415D01*
X38747000Y-33290415D01*
X38747000Y-31209585D01*
X38726000Y-31188585D01*
X38726000Y-24741837D01*
X39158258Y-24741837D01*
X39174634Y-24739681D01*
X39366000Y-24688405D01*
X39366000Y-31156346D01*
%TA.AperFunction,Conductor*%
G36*
X39366000Y-31156346D02*
G01*
X39227396Y-31136418D01*
X39218419Y-31135776D01*
X39076809Y-31135776D01*
X39003000Y-31209585D01*
X39003000Y-33290415D01*
X39076809Y-33364224D01*
X39202411Y-33364224D01*
X39215841Y-33362780D01*
X39366000Y-33330115D01*
X39366000Y-35295589D01*
X39359163Y-35293100D01*
X39166462Y-35259122D01*
X39155501Y-35258163D01*
X38341742Y-35258163D01*
X38325366Y-35260319D01*
X38046142Y-35335137D01*
X38021662Y-35347880D01*
X37865410Y-35478990D01*
X37851239Y-35495879D01*
X37750641Y-35670120D01*
X37743100Y-35690837D01*
X37709122Y-35883538D01*
X37708163Y-35894499D01*
X37708163Y-36842924D01*
X37516462Y-36809122D01*
X37505501Y-36808163D01*
X36221742Y-36808163D01*
X36205366Y-36810319D01*
X35926142Y-36885137D01*
X35901662Y-36897880D01*
X35745410Y-37028990D01*
X35731239Y-37045879D01*
X35630641Y-37220120D01*
X35623100Y-37240837D01*
X35589122Y-37433538D01*
X35588163Y-37444499D01*
X35588163Y-38150119D01*
X32314282Y-41424001D01*
X31102715Y-41424001D01*
X38546749Y-33979968D01*
X38587568Y-33939150D01*
X38599226Y-33923105D01*
X38620933Y-33880503D01*
X38649032Y-33841827D01*
X38658035Y-33824157D01*
X38672810Y-33778687D01*
X38694516Y-33736087D01*
X38700645Y-33717225D01*
X38708124Y-33670002D01*
X38722897Y-33624535D01*
X38726000Y-33604947D01*
X38726000Y-33311415D01*
X38747000Y-33290415D01*
X38747000Y-31209585D01*
X38726000Y-31188585D01*
X38726000Y-24741837D01*
X39158258Y-24741837D01*
X39174634Y-24739681D01*
X39366000Y-24688405D01*
X39366000Y-31156346D01*
G37*
%TD.AperFunction*%
X16135776Y-26327411D02*
X16137220Y-26340841D01*
X16202070Y-26638952D01*
X16210700Y-26659786D01*
X16338759Y-26859050D01*
X16350562Y-26872671D01*
X16358720Y-26879740D01*
X16273698Y-26977861D01*
X16263954Y-26993023D01*
X16166497Y-27206424D01*
X16161419Y-27223717D01*
X16136418Y-27397604D01*
X16135776Y-27406581D01*
X16135776Y-28077411D01*
X16137220Y-28090841D01*
X16202070Y-28388952D01*
X16210700Y-28409786D01*
X16338759Y-28609050D01*
X16350562Y-28622671D01*
X16358720Y-28629740D01*
X16273698Y-28727861D01*
X16263954Y-28743023D01*
X16166497Y-28956424D01*
X16161419Y-28973717D01*
X16136418Y-29147604D01*
X16135776Y-29156581D01*
X16135776Y-29298191D01*
X16209585Y-29372000D01*
X17048192Y-29372001D01*
X17048193Y-29372000D01*
X17979191Y-29372001D01*
X17979192Y-29372000D01*
X18798191Y-29372001D01*
X18872000Y-29298192D01*
X18872001Y-28579190D01*
X18922000Y-28529191D01*
X18922001Y-27222000D01*
X19178000Y-27222001D01*
X19177999Y-28575810D01*
X19128000Y-28625809D01*
X19127999Y-29298192D01*
X19128000Y-29298193D01*
X19127999Y-30540415D01*
X19201808Y-30614224D01*
X19327411Y-30614224D01*
X19340841Y-30612780D01*
X19638952Y-30547930D01*
X19659786Y-30539300D01*
X19859050Y-30411241D01*
X19872671Y-30399438D01*
X19879740Y-30391280D01*
X19977861Y-30476302D01*
X19993023Y-30486046D01*
X20206424Y-30583503D01*
X20223717Y-30588581D01*
X20294003Y-30598687D01*
X20294003Y-31360675D01*
X20264436Y-31356256D01*
X20246483Y-31356147D01*
X20013012Y-31388128D01*
X19995750Y-31393061D01*
X19780639Y-31489285D01*
X19765456Y-31498865D01*
X19585998Y-31651596D01*
X19574114Y-31665053D01*
X19444735Y-31862013D01*
X19437105Y-31878264D01*
X19368207Y-32103618D01*
X19367938Y-32105343D01*
X19224305Y-32248976D01*
X19224305Y-32248977D01*
X19142431Y-32330851D01*
X19130774Y-32346896D01*
X19109072Y-32389489D01*
X19080967Y-32428172D01*
X19071963Y-32445844D01*
X19057191Y-32491311D01*
X19035484Y-32533912D01*
X19029356Y-32552775D01*
X19021876Y-32599997D01*
X19007102Y-32645466D01*
X19004000Y-32665055D01*
X19004000Y-32722780D01*
X19003999Y-38082423D01*
X19004000Y-38082435D01*
X19004000Y-38134944D01*
X19007102Y-38154532D01*
X19021874Y-38199994D01*
X19029355Y-38247223D01*
X19035483Y-38266085D01*
X19057189Y-38308684D01*
X19071963Y-38354155D01*
X19080967Y-38371826D01*
X19109067Y-38410503D01*
X19130773Y-38453103D01*
X19142430Y-38469147D01*
X19291018Y-38617736D01*
X19291025Y-38617741D01*
X19438757Y-38765473D01*
X19409122Y-38933538D01*
X19408163Y-38944499D01*
X19408163Y-39127737D01*
X19403802Y-39127085D01*
X15039224Y-34762507D01*
X15039224Y-34472589D01*
X15037780Y-34459159D01*
X14972930Y-34161048D01*
X14964300Y-34140214D01*
X14836241Y-33940950D01*
X14824438Y-33927329D01*
X14752440Y-33864942D01*
X14834590Y-33796010D01*
X14848761Y-33779121D01*
X14949359Y-33604880D01*
X14956900Y-33584163D01*
X14990878Y-33391462D01*
X14991837Y-33380501D01*
X14991837Y-32916742D01*
X14989681Y-32900366D01*
X14914863Y-32621142D01*
X14902120Y-32596662D01*
X14824657Y-32504345D01*
X14834590Y-32496010D01*
X14848762Y-32479121D01*
X14949359Y-32304880D01*
X14956900Y-32284163D01*
X14990878Y-32091462D01*
X14991837Y-32080501D01*
X14991837Y-31616742D01*
X14989681Y-31600366D01*
X14914863Y-31321142D01*
X14902120Y-31296662D01*
X14771010Y-31140410D01*
X14754121Y-31126239D01*
X14579880Y-31025641D01*
X14559163Y-31018100D01*
X14366462Y-30984122D01*
X14355501Y-30983163D01*
X14194474Y-30983163D01*
X14014436Y-30956256D01*
X13996483Y-30956147D01*
X13799260Y-30983163D01*
X13641742Y-30983163D01*
X13625366Y-30985319D01*
X13346142Y-31060137D01*
X13321662Y-31072880D01*
X13165410Y-31203990D01*
X13151239Y-31220879D01*
X13050641Y-31395120D01*
X13043100Y-31415837D01*
X13009122Y-31608538D01*
X13008163Y-31619499D01*
X13008163Y-32054117D01*
X12952114Y-32110166D01*
X12914863Y-31971142D01*
X12902120Y-31946662D01*
X12771010Y-31790410D01*
X12754121Y-31776239D01*
X12726000Y-31760003D01*
X12726000Y-31197574D01*
X12725999Y-31197562D01*
X12725999Y-31145053D01*
X12722897Y-31125464D01*
X12708125Y-31080001D01*
X12700644Y-31032774D01*
X12694516Y-31013912D01*
X12672810Y-30971311D01*
X12658036Y-30925843D01*
X12649032Y-30908172D01*
X12620933Y-30869496D01*
X12599226Y-30826894D01*
X12587568Y-30810849D01*
X12035120Y-30258402D01*
X12160262Y-30276212D01*
X12170917Y-30276817D01*
X12411956Y-30270084D01*
X12422561Y-30268885D01*
X12659019Y-30221636D01*
X12669270Y-30218667D01*
X12894387Y-30132253D01*
X12903991Y-30127600D01*
X13111330Y-30004491D01*
X13120012Y-29998286D01*
X13303645Y-29842004D01*
X13311158Y-29834424D01*
X13422042Y-29701808D01*
X16135776Y-29701808D01*
X16135776Y-29827411D01*
X16137220Y-29840841D01*
X16202070Y-30138952D01*
X16210700Y-30159786D01*
X16338759Y-30359050D01*
X16350562Y-30372671D01*
X16527861Y-30526302D01*
X16543023Y-30536046D01*
X16756424Y-30633503D01*
X16773717Y-30638581D01*
X16947604Y-30663582D01*
X16956581Y-30664224D01*
X17048191Y-30664224D01*
X17122000Y-30590415D01*
X17377999Y-30590415D01*
X17451808Y-30664224D01*
X17527411Y-30664224D01*
X17540841Y-30662780D01*
X17838952Y-30597930D01*
X17859786Y-30589300D01*
X18059050Y-30461241D01*
X18072671Y-30449438D01*
X18125928Y-30387976D01*
X18227861Y-30476302D01*
X18243023Y-30486046D01*
X18456424Y-30583503D01*
X18473717Y-30588581D01*
X18647604Y-30613582D01*
X18656581Y-30614224D01*
X18798191Y-30614224D01*
X18872000Y-30540415D01*
X18872001Y-29701809D01*
X18798192Y-29628000D01*
X18220809Y-29627999D01*
X18220808Y-29628000D01*
X17451809Y-29627999D01*
X17378000Y-29701808D01*
X17377999Y-30590415D01*
X17122000Y-30590415D01*
X17122001Y-29701809D01*
X17048192Y-29628000D01*
X16209585Y-29627999D01*
X16135776Y-29701808D01*
X13422042Y-29701808D01*
X13465833Y-29649435D01*
X13471962Y-29640698D01*
X13593256Y-29432294D01*
X13597825Y-29422650D01*
X13682272Y-29196787D01*
X13685151Y-29186511D01*
X13730392Y-28949351D01*
X13731507Y-28938128D01*
X13734077Y-28670341D01*
X13733178Y-28659099D01*
X13692499Y-28421114D01*
X13689817Y-28410784D01*
X13680993Y-28385725D01*
X14150648Y-27916071D01*
X14277861Y-28026302D01*
X14293023Y-28036046D01*
X14506424Y-28133503D01*
X14523717Y-28138581D01*
X14697604Y-28163582D01*
X14706581Y-28164224D01*
X15277411Y-28164224D01*
X15290841Y-28162780D01*
X15588952Y-28097930D01*
X15609786Y-28089300D01*
X15809050Y-27961241D01*
X15822671Y-27949438D01*
X15976302Y-27772139D01*
X15986046Y-27756977D01*
X16083503Y-27543576D01*
X16088581Y-27526283D01*
X16113582Y-27352396D01*
X16114224Y-27343419D01*
X16114224Y-26672589D01*
X16112780Y-26659159D01*
X16047930Y-26361048D01*
X16039300Y-26340214D01*
X15911241Y-26140950D01*
X15899438Y-26127329D01*
X15891280Y-26120260D01*
X15976302Y-26022139D01*
X15986046Y-26006976D01*
X16000192Y-25976000D01*
X16135776Y-25976000D01*
X16135776Y-26327411D01*
%TA.AperFunction,Conductor*%
G36*
X16135776Y-26327411D02*
G01*
X16137220Y-26340841D01*
X16202070Y-26638952D01*
X16210700Y-26659786D01*
X16338759Y-26859050D01*
X16350562Y-26872671D01*
X16358720Y-26879740D01*
X16273698Y-26977861D01*
X16263954Y-26993023D01*
X16166497Y-27206424D01*
X16161419Y-27223717D01*
X16136418Y-27397604D01*
X16135776Y-27406581D01*
X16135776Y-28077411D01*
X16137220Y-28090841D01*
X16202070Y-28388952D01*
X16210700Y-28409786D01*
X16338759Y-28609050D01*
X16350562Y-28622671D01*
X16358720Y-28629740D01*
X16273698Y-28727861D01*
X16263954Y-28743023D01*
X16166497Y-28956424D01*
X16161419Y-28973717D01*
X16136418Y-29147604D01*
X16135776Y-29156581D01*
X16135776Y-29298191D01*
X16209585Y-29372000D01*
X17048192Y-29372001D01*
X17048193Y-29372000D01*
X17979191Y-29372001D01*
X17979192Y-29372000D01*
X18798191Y-29372001D01*
X18872000Y-29298192D01*
X18872001Y-28579190D01*
X18922000Y-28529191D01*
X18922001Y-27222000D01*
X19178000Y-27222001D01*
X19177999Y-28575810D01*
X19128000Y-28625809D01*
X19127999Y-29298192D01*
X19128000Y-29298193D01*
X19127999Y-30540415D01*
X19201808Y-30614224D01*
X19327411Y-30614224D01*
X19340841Y-30612780D01*
X19638952Y-30547930D01*
X19659786Y-30539300D01*
X19859050Y-30411241D01*
X19872671Y-30399438D01*
X19879740Y-30391280D01*
X19977861Y-30476302D01*
X19993023Y-30486046D01*
X20206424Y-30583503D01*
X20223717Y-30588581D01*
X20294003Y-30598687D01*
X20294003Y-31360675D01*
X20264436Y-31356256D01*
X20246483Y-31356147D01*
X20013012Y-31388128D01*
X19995750Y-31393061D01*
X19780639Y-31489285D01*
X19765456Y-31498865D01*
X19585998Y-31651596D01*
X19574114Y-31665053D01*
X19444735Y-31862013D01*
X19437105Y-31878264D01*
X19368207Y-32103618D01*
X19367938Y-32105343D01*
X19224305Y-32248976D01*
X19224305Y-32248977D01*
X19142431Y-32330851D01*
X19130774Y-32346896D01*
X19109072Y-32389489D01*
X19080967Y-32428172D01*
X19071963Y-32445844D01*
X19057191Y-32491311D01*
X19035484Y-32533912D01*
X19029356Y-32552775D01*
X19021876Y-32599997D01*
X19007102Y-32645466D01*
X19004000Y-32665055D01*
X19004000Y-32722780D01*
X19003999Y-38082423D01*
X19004000Y-38082435D01*
X19004000Y-38134944D01*
X19007102Y-38154532D01*
X19021874Y-38199994D01*
X19029355Y-38247223D01*
X19035483Y-38266085D01*
X19057189Y-38308684D01*
X19071963Y-38354155D01*
X19080967Y-38371826D01*
X19109067Y-38410503D01*
X19130773Y-38453103D01*
X19142430Y-38469147D01*
X19291018Y-38617736D01*
X19291025Y-38617741D01*
X19438757Y-38765473D01*
X19409122Y-38933538D01*
X19408163Y-38944499D01*
X19408163Y-39127737D01*
X19403802Y-39127085D01*
X15039224Y-34762507D01*
X15039224Y-34472589D01*
X15037780Y-34459159D01*
X14972930Y-34161048D01*
X14964300Y-34140214D01*
X14836241Y-33940950D01*
X14824438Y-33927329D01*
X14752440Y-33864942D01*
X14834590Y-33796010D01*
X14848761Y-33779121D01*
X14949359Y-33604880D01*
X14956900Y-33584163D01*
X14990878Y-33391462D01*
X14991837Y-33380501D01*
X14991837Y-32916742D01*
X14989681Y-32900366D01*
X14914863Y-32621142D01*
X14902120Y-32596662D01*
X14824657Y-32504345D01*
X14834590Y-32496010D01*
X14848762Y-32479121D01*
X14949359Y-32304880D01*
X14956900Y-32284163D01*
X14990878Y-32091462D01*
X14991837Y-32080501D01*
X14991837Y-31616742D01*
X14989681Y-31600366D01*
X14914863Y-31321142D01*
X14902120Y-31296662D01*
X14771010Y-31140410D01*
X14754121Y-31126239D01*
X14579880Y-31025641D01*
X14559163Y-31018100D01*
X14366462Y-30984122D01*
X14355501Y-30983163D01*
X14194474Y-30983163D01*
X14014436Y-30956256D01*
X13996483Y-30956147D01*
X13799260Y-30983163D01*
X13641742Y-30983163D01*
X13625366Y-30985319D01*
X13346142Y-31060137D01*
X13321662Y-31072880D01*
X13165410Y-31203990D01*
X13151239Y-31220879D01*
X13050641Y-31395120D01*
X13043100Y-31415837D01*
X13009122Y-31608538D01*
X13008163Y-31619499D01*
X13008163Y-32054117D01*
X12952114Y-32110166D01*
X12914863Y-31971142D01*
X12902120Y-31946662D01*
X12771010Y-31790410D01*
X12754121Y-31776239D01*
X12726000Y-31760003D01*
X12726000Y-31197574D01*
X12725999Y-31197562D01*
X12725999Y-31145053D01*
X12722897Y-31125464D01*
X12708125Y-31080001D01*
X12700644Y-31032774D01*
X12694516Y-31013912D01*
X12672810Y-30971311D01*
X12658036Y-30925843D01*
X12649032Y-30908172D01*
X12620933Y-30869496D01*
X12599226Y-30826894D01*
X12587568Y-30810849D01*
X12035120Y-30258402D01*
X12160262Y-30276212D01*
X12170917Y-30276817D01*
X12411956Y-30270084D01*
X12422561Y-30268885D01*
X12659019Y-30221636D01*
X12669270Y-30218667D01*
X12894387Y-30132253D01*
X12903991Y-30127600D01*
X13111330Y-30004491D01*
X13120012Y-29998286D01*
X13303645Y-29842004D01*
X13311158Y-29834424D01*
X13422042Y-29701808D01*
X16135776Y-29701808D01*
X16135776Y-29827411D01*
X16137220Y-29840841D01*
X16202070Y-30138952D01*
X16210700Y-30159786D01*
X16338759Y-30359050D01*
X16350562Y-30372671D01*
X16527861Y-30526302D01*
X16543023Y-30536046D01*
X16756424Y-30633503D01*
X16773717Y-30638581D01*
X16947604Y-30663582D01*
X16956581Y-30664224D01*
X17048191Y-30664224D01*
X17122000Y-30590415D01*
X17377999Y-30590415D01*
X17451808Y-30664224D01*
X17527411Y-30664224D01*
X17540841Y-30662780D01*
X17838952Y-30597930D01*
X17859786Y-30589300D01*
X18059050Y-30461241D01*
X18072671Y-30449438D01*
X18125928Y-30387976D01*
X18227861Y-30476302D01*
X18243023Y-30486046D01*
X18456424Y-30583503D01*
X18473717Y-30588581D01*
X18647604Y-30613582D01*
X18656581Y-30614224D01*
X18798191Y-30614224D01*
X18872000Y-30540415D01*
X18872001Y-29701809D01*
X18798192Y-29628000D01*
X18220809Y-29627999D01*
X18220808Y-29628000D01*
X17451809Y-29627999D01*
X17378000Y-29701808D01*
X17377999Y-30590415D01*
X17122000Y-30590415D01*
X17122001Y-29701809D01*
X17048192Y-29628000D01*
X16209585Y-29627999D01*
X16135776Y-29701808D01*
X13422042Y-29701808D01*
X13465833Y-29649435D01*
X13471962Y-29640698D01*
X13593256Y-29432294D01*
X13597825Y-29422650D01*
X13682272Y-29196787D01*
X13685151Y-29186511D01*
X13730392Y-28949351D01*
X13731507Y-28938128D01*
X13734077Y-28670341D01*
X13733178Y-28659099D01*
X13692499Y-28421114D01*
X13689817Y-28410784D01*
X13680993Y-28385725D01*
X14150648Y-27916071D01*
X14277861Y-28026302D01*
X14293023Y-28036046D01*
X14506424Y-28133503D01*
X14523717Y-28138581D01*
X14697604Y-28163582D01*
X14706581Y-28164224D01*
X15277411Y-28164224D01*
X15290841Y-28162780D01*
X15588952Y-28097930D01*
X15609786Y-28089300D01*
X15809050Y-27961241D01*
X15822671Y-27949438D01*
X15976302Y-27772139D01*
X15986046Y-27756977D01*
X16083503Y-27543576D01*
X16088581Y-27526283D01*
X16113582Y-27352396D01*
X16114224Y-27343419D01*
X16114224Y-26672589D01*
X16112780Y-26659159D01*
X16047930Y-26361048D01*
X16039300Y-26340214D01*
X15911241Y-26140950D01*
X15899438Y-26127329D01*
X15891280Y-26120260D01*
X15976302Y-26022139D01*
X15986046Y-26006976D01*
X16000192Y-25976000D01*
X16135776Y-25976000D01*
X16135776Y-26327411D01*
G37*
%TD.AperFunction*%
X23358163Y-37276001D02*
X23358163Y-37334107D01*
X23216462Y-37309122D01*
X23205501Y-37308163D01*
X22791742Y-37308163D01*
X22775366Y-37310319D01*
X22641837Y-37346098D01*
X22641837Y-37276000D01*
X22652000Y-37276000D01*
X23358163Y-37276001D01*
%TA.AperFunction,Conductor*%
G36*
X23358163Y-37276001D02*
G01*
X23358163Y-37334107D01*
X23216462Y-37309122D01*
X23205501Y-37308163D01*
X22791742Y-37308163D01*
X22775366Y-37310319D01*
X22641837Y-37346098D01*
X22641837Y-37276000D01*
X22652000Y-37276000D01*
X23358163Y-37276001D01*
G37*
%TD.AperFunction*%
X39366001Y-15295589D02*
X39359163Y-15293100D01*
X39166462Y-15259122D01*
X39155501Y-15258163D01*
X38341742Y-15258163D01*
X38325366Y-15260319D01*
X38046142Y-15335137D01*
X38021662Y-15347880D01*
X37865410Y-15478990D01*
X37851239Y-15495879D01*
X37750641Y-15670120D01*
X37743100Y-15690837D01*
X37709122Y-15883538D01*
X37708163Y-15894499D01*
X37708163Y-16842924D01*
X37516462Y-16809122D01*
X37505501Y-16808163D01*
X36221742Y-16808163D01*
X36205366Y-16810319D01*
X35926142Y-16885137D01*
X35901662Y-16897880D01*
X35745410Y-17028990D01*
X35731239Y-17045879D01*
X35630641Y-17220120D01*
X35623100Y-17240837D01*
X35589122Y-17433538D01*
X35588163Y-17444499D01*
X35588163Y-18358258D01*
X35590319Y-18374634D01*
X35665137Y-18653859D01*
X35677880Y-18678339D01*
X35808990Y-18834590D01*
X35825879Y-18848761D01*
X36000120Y-18949359D01*
X36020837Y-18956900D01*
X36213538Y-18990878D01*
X36224499Y-18991837D01*
X36930118Y-18991837D01*
X37274001Y-19335721D01*
X37274001Y-21008163D01*
X36221742Y-21008163D01*
X36205366Y-21010319D01*
X35926142Y-21085137D01*
X35901662Y-21097880D01*
X35745410Y-21228990D01*
X35731239Y-21245879D01*
X35630641Y-21420120D01*
X35623100Y-21440837D01*
X35589122Y-21633538D01*
X35588163Y-21644499D01*
X35588163Y-22350118D01*
X35139282Y-22799000D01*
X33401179Y-22799000D01*
X33239715Y-22716730D01*
X33220853Y-22710602D01*
X33062019Y-22685445D01*
X33052149Y-22684668D01*
X31672851Y-22684668D01*
X31662981Y-22685445D01*
X31504147Y-22710602D01*
X31485285Y-22716730D01*
X31293870Y-22814261D01*
X31277825Y-22825919D01*
X31125919Y-22977825D01*
X31114261Y-22993870D01*
X31016730Y-23185285D01*
X31010602Y-23204147D01*
X30985445Y-23362981D01*
X30984668Y-23372851D01*
X30984668Y-23677149D01*
X30985445Y-23687019D01*
X31010602Y-23845853D01*
X31011949Y-23850000D01*
X31010602Y-23854147D01*
X30985496Y-24012661D01*
X31059829Y-24099694D01*
X31044618Y-24102103D01*
X30999156Y-24116875D01*
X30951927Y-24124356D01*
X30933066Y-24130484D01*
X30890467Y-24152190D01*
X30844996Y-24166964D01*
X30827325Y-24175968D01*
X30788648Y-24204068D01*
X30746048Y-24225774D01*
X30730003Y-24237432D01*
X30689185Y-24278251D01*
X25726000Y-29241437D01*
X25726000Y-26265801D01*
X25760285Y-26283270D01*
X25779147Y-26289398D01*
X25937981Y-26314555D01*
X25947851Y-26315332D01*
X26489691Y-26315332D01*
X26563500Y-26241523D01*
X26711499Y-26241523D01*
X26785308Y-26315332D01*
X27327149Y-26315332D01*
X27337019Y-26314555D01*
X27495853Y-26289398D01*
X27514715Y-26283270D01*
X27706130Y-26185739D01*
X27722175Y-26174081D01*
X27874081Y-26022175D01*
X27885739Y-26006130D01*
X27983270Y-25814715D01*
X27989398Y-25795853D01*
X28014504Y-25637339D01*
X27939056Y-25549000D01*
X26785309Y-25548999D01*
X26711500Y-25622808D01*
X26711499Y-26241523D01*
X26563500Y-26241523D01*
X26563501Y-25622808D01*
X26563500Y-25622807D01*
X26563500Y-25275000D01*
X26563501Y-25015332D01*
X26711500Y-25015332D01*
X26711500Y-25183651D01*
X26711498Y-25327190D01*
X26785308Y-25401000D01*
X27939056Y-25401001D01*
X28014504Y-25312662D01*
X27989398Y-25154147D01*
X27988051Y-25150000D01*
X27989398Y-25145853D01*
X28014504Y-24987339D01*
X27939056Y-24899000D01*
X27680104Y-24899000D01*
X27706130Y-24885739D01*
X27722175Y-24874081D01*
X27845255Y-24751001D01*
X27939056Y-24751001D01*
X28014504Y-24662662D01*
X27989398Y-24504147D01*
X27988051Y-24500000D01*
X27989398Y-24495853D01*
X28014555Y-24337019D01*
X28015332Y-24327149D01*
X28015332Y-24022851D01*
X28014555Y-24012981D01*
X27989398Y-23854147D01*
X27988051Y-23850000D01*
X27989398Y-23845853D01*
X28014555Y-23687019D01*
X28015332Y-23677149D01*
X28015332Y-23372851D01*
X28014555Y-23362981D01*
X27989398Y-23204147D01*
X27983270Y-23185285D01*
X27885739Y-22993870D01*
X27874081Y-22977825D01*
X27722175Y-22825919D01*
X27706130Y-22814261D01*
X27514715Y-22716730D01*
X27495853Y-22710602D01*
X27337019Y-22685445D01*
X27327149Y-22684668D01*
X25947851Y-22684668D01*
X25937981Y-22685445D01*
X25779147Y-22710602D01*
X25760285Y-22716730D01*
X25568870Y-22814261D01*
X25552825Y-22825919D01*
X25400919Y-22977825D01*
X25389261Y-22993870D01*
X25373522Y-23024760D01*
X23753839Y-24644444D01*
X23612432Y-24785850D01*
X23600775Y-24801895D01*
X23579073Y-24844488D01*
X23550968Y-24883171D01*
X23541964Y-24900843D01*
X23527192Y-24946310D01*
X23505485Y-24988911D01*
X23499357Y-25007774D01*
X23491877Y-25054996D01*
X23477103Y-25100465D01*
X23474001Y-25120054D01*
X23474001Y-25177779D01*
X23474000Y-32861091D01*
X23302396Y-32836418D01*
X23293419Y-32835776D01*
X22722589Y-32835776D01*
X22709159Y-32837220D01*
X22411048Y-32902070D01*
X22390214Y-32910700D01*
X22190950Y-33038759D01*
X22177329Y-33050562D01*
X22023698Y-33227861D01*
X22013954Y-33243023D01*
X21916497Y-33456424D01*
X21911419Y-33473717D01*
X21886418Y-33647604D01*
X21885776Y-33656581D01*
X21885776Y-34327411D01*
X21887220Y-34340841D01*
X21952070Y-34638952D01*
X21960700Y-34659786D01*
X22088759Y-34859050D01*
X22100562Y-34872671D01*
X22108720Y-34879740D01*
X22023698Y-34977861D01*
X22013954Y-34993023D01*
X21916497Y-35206424D01*
X21911419Y-35223717D01*
X21886418Y-35397604D01*
X21885776Y-35406581D01*
X21885776Y-35548191D01*
X21959585Y-35622000D01*
X23128000Y-35622001D01*
X23127999Y-35878000D01*
X21959585Y-35877999D01*
X21885776Y-35951808D01*
X21885776Y-36077411D01*
X21887220Y-36090841D01*
X21952070Y-36388952D01*
X21960028Y-36408163D01*
X21746002Y-36408163D01*
X21746002Y-30777431D01*
X22097223Y-30426211D01*
X22097230Y-30426202D01*
X22132578Y-30390855D01*
X22144236Y-30374809D01*
X22165939Y-30332213D01*
X22194042Y-30293534D01*
X22203046Y-30275863D01*
X22217821Y-30230391D01*
X22239526Y-30187792D01*
X22245654Y-30168931D01*
X22253135Y-30121702D01*
X22267907Y-30076240D01*
X22271009Y-30056652D01*
X22271009Y-30004142D01*
X22271010Y-30004130D01*
X22271010Y-23395366D01*
X22277861Y-23401302D01*
X22293023Y-23411046D01*
X22506424Y-23508503D01*
X22523717Y-23513581D01*
X22697604Y-23538582D01*
X22706581Y-23539224D01*
X23277411Y-23539224D01*
X23290841Y-23537780D01*
X23588952Y-23472930D01*
X23609786Y-23464300D01*
X23809050Y-23336241D01*
X23822671Y-23324438D01*
X23976302Y-23147139D01*
X23986046Y-23131977D01*
X24083503Y-22918576D01*
X24088581Y-22901283D01*
X24113582Y-22727396D01*
X24114224Y-22718419D01*
X24114224Y-22047589D01*
X24112780Y-22034159D01*
X24047930Y-21736048D01*
X24039300Y-21715214D01*
X23911241Y-21515950D01*
X23899438Y-21502329D01*
X23891280Y-21495260D01*
X23976302Y-21397139D01*
X23986046Y-21381977D01*
X24083503Y-21168576D01*
X24088581Y-21151283D01*
X24113582Y-20977396D01*
X24114224Y-20968419D01*
X24114224Y-20297589D01*
X24112780Y-20284159D01*
X24090337Y-20180990D01*
X24135776Y-20180990D01*
X24135776Y-20577411D01*
X24137220Y-20590841D01*
X24202070Y-20888952D01*
X24210700Y-20909786D01*
X24338759Y-21109050D01*
X24350562Y-21122671D01*
X24527861Y-21276302D01*
X24543023Y-21286046D01*
X24756424Y-21383503D01*
X24773717Y-21388581D01*
X24947604Y-21413582D01*
X24956581Y-21414224D01*
X25527411Y-21414224D01*
X25540841Y-21412780D01*
X25838952Y-21347930D01*
X25859786Y-21339300D01*
X25998032Y-21250455D01*
X26027861Y-21276302D01*
X26043023Y-21286046D01*
X26256424Y-21383503D01*
X26273717Y-21388581D01*
X26447604Y-21413582D01*
X26456581Y-21414224D01*
X27027411Y-21414224D01*
X27040841Y-21412780D01*
X27338952Y-21347930D01*
X27359786Y-21339300D01*
X27559050Y-21211241D01*
X27572671Y-21199438D01*
X27726302Y-21022139D01*
X27732496Y-21012501D01*
X27769905Y-21049911D01*
X27769919Y-21049924D01*
X27807564Y-21087569D01*
X27823609Y-21099226D01*
X27866205Y-21120929D01*
X27904884Y-21149032D01*
X27922555Y-21158036D01*
X27968027Y-21172811D01*
X28010626Y-21194516D01*
X28029487Y-21200644D01*
X28076716Y-21208125D01*
X28122178Y-21222897D01*
X28141766Y-21225999D01*
X28194276Y-21225999D01*
X28194288Y-21226000D01*
X30985386Y-21226000D01*
X31038759Y-21309050D01*
X31050562Y-21322671D01*
X31227861Y-21476302D01*
X31243023Y-21486046D01*
X31456424Y-21583503D01*
X31473717Y-21588581D01*
X31647604Y-21613582D01*
X31656581Y-21614224D01*
X32327411Y-21614224D01*
X32340841Y-21612780D01*
X32638952Y-21547930D01*
X32659786Y-21539300D01*
X32859050Y-21411241D01*
X32872671Y-21399438D01*
X32879740Y-21391280D01*
X32977861Y-21476302D01*
X32993023Y-21486046D01*
X33206424Y-21583503D01*
X33223717Y-21588581D01*
X33397604Y-21613582D01*
X33406581Y-21614224D01*
X34077411Y-21614224D01*
X34090841Y-21612780D01*
X34388952Y-21547930D01*
X34409786Y-21539300D01*
X34609050Y-21411241D01*
X34622671Y-21399438D01*
X34776302Y-21222139D01*
X34786046Y-21206977D01*
X34883503Y-20993576D01*
X34888581Y-20976283D01*
X34913582Y-20802396D01*
X34914224Y-20793419D01*
X34914224Y-20222589D01*
X34912780Y-20209159D01*
X34847930Y-19911048D01*
X34839300Y-19890214D01*
X34711241Y-19690950D01*
X34699438Y-19677329D01*
X34682728Y-19662849D01*
X34703339Y-19652120D01*
X34859590Y-19521010D01*
X34873761Y-19504121D01*
X34974359Y-19329880D01*
X34981900Y-19309162D01*
X34996155Y-19228313D01*
X35050464Y-19147797D01*
X35058292Y-19131640D01*
X35130056Y-18906775D01*
X35133050Y-18888289D01*
X35136165Y-18633328D01*
X35133624Y-18614774D01*
X35067376Y-18388223D01*
X35059945Y-18371879D01*
X34980433Y-18247549D01*
X34939863Y-18096142D01*
X34927120Y-18071662D01*
X34796010Y-17915410D01*
X34779121Y-17901239D01*
X34604880Y-17800641D01*
X34584163Y-17793100D01*
X34391462Y-17759122D01*
X34380501Y-17758163D01*
X34357131Y-17758163D01*
X34355644Y-17748775D01*
X34349515Y-17729913D01*
X34327809Y-17687313D01*
X34313034Y-17641843D01*
X34304031Y-17624173D01*
X34275932Y-17585497D01*
X34254225Y-17542895D01*
X34242567Y-17526850D01*
X34221971Y-17506254D01*
X34223761Y-17504121D01*
X34324359Y-17329880D01*
X34331899Y-17309163D01*
X34356379Y-17170338D01*
X36034881Y-15491837D01*
X37358258Y-15491837D01*
X37374634Y-15489681D01*
X37653859Y-15414863D01*
X37678339Y-15402120D01*
X37834590Y-15271010D01*
X37848761Y-15254121D01*
X37949359Y-15079880D01*
X37956900Y-15059163D01*
X37990878Y-14866462D01*
X37991837Y-14855501D01*
X37991837Y-13141742D01*
X37989681Y-13125366D01*
X37914863Y-12846142D01*
X37902120Y-12821662D01*
X37771010Y-12665410D01*
X37754121Y-12651239D01*
X37724262Y-12634000D01*
X39366000Y-12634000D01*
X39366001Y-15295589D01*
%TA.AperFunction,Conductor*%
G36*
X39366001Y-15295589D02*
G01*
X39359163Y-15293100D01*
X39166462Y-15259122D01*
X39155501Y-15258163D01*
X38341742Y-15258163D01*
X38325366Y-15260319D01*
X38046142Y-15335137D01*
X38021662Y-15347880D01*
X37865410Y-15478990D01*
X37851239Y-15495879D01*
X37750641Y-15670120D01*
X37743100Y-15690837D01*
X37709122Y-15883538D01*
X37708163Y-15894499D01*
X37708163Y-16842924D01*
X37516462Y-16809122D01*
X37505501Y-16808163D01*
X36221742Y-16808163D01*
X36205366Y-16810319D01*
X35926142Y-16885137D01*
X35901662Y-16897880D01*
X35745410Y-17028990D01*
X35731239Y-17045879D01*
X35630641Y-17220120D01*
X35623100Y-17240837D01*
X35589122Y-17433538D01*
X35588163Y-17444499D01*
X35588163Y-18358258D01*
X35590319Y-18374634D01*
X35665137Y-18653859D01*
X35677880Y-18678339D01*
X35808990Y-18834590D01*
X35825879Y-18848761D01*
X36000120Y-18949359D01*
X36020837Y-18956900D01*
X36213538Y-18990878D01*
X36224499Y-18991837D01*
X36930118Y-18991837D01*
X37274001Y-19335721D01*
X37274001Y-21008163D01*
X36221742Y-21008163D01*
X36205366Y-21010319D01*
X35926142Y-21085137D01*
X35901662Y-21097880D01*
X35745410Y-21228990D01*
X35731239Y-21245879D01*
X35630641Y-21420120D01*
X35623100Y-21440837D01*
X35589122Y-21633538D01*
X35588163Y-21644499D01*
X35588163Y-22350118D01*
X35139282Y-22799000D01*
X33401179Y-22799000D01*
X33239715Y-22716730D01*
X33220853Y-22710602D01*
X33062019Y-22685445D01*
X33052149Y-22684668D01*
X31672851Y-22684668D01*
X31662981Y-22685445D01*
X31504147Y-22710602D01*
X31485285Y-22716730D01*
X31293870Y-22814261D01*
X31277825Y-22825919D01*
X31125919Y-22977825D01*
X31114261Y-22993870D01*
X31016730Y-23185285D01*
X31010602Y-23204147D01*
X30985445Y-23362981D01*
X30984668Y-23372851D01*
X30984668Y-23677149D01*
X30985445Y-23687019D01*
X31010602Y-23845853D01*
X31011949Y-23850000D01*
X31010602Y-23854147D01*
X30985496Y-24012661D01*
X31059829Y-24099694D01*
X31044618Y-24102103D01*
X30999156Y-24116875D01*
X30951927Y-24124356D01*
X30933066Y-24130484D01*
X30890467Y-24152190D01*
X30844996Y-24166964D01*
X30827325Y-24175968D01*
X30788648Y-24204068D01*
X30746048Y-24225774D01*
X30730003Y-24237432D01*
X30689185Y-24278251D01*
X25726000Y-29241437D01*
X25726000Y-26265801D01*
X25760285Y-26283270D01*
X25779147Y-26289398D01*
X25937981Y-26314555D01*
X25947851Y-26315332D01*
X26489691Y-26315332D01*
X26563500Y-26241523D01*
X26711499Y-26241523D01*
X26785308Y-26315332D01*
X27327149Y-26315332D01*
X27337019Y-26314555D01*
X27495853Y-26289398D01*
X27514715Y-26283270D01*
X27706130Y-26185739D01*
X27722175Y-26174081D01*
X27874081Y-26022175D01*
X27885739Y-26006130D01*
X27983270Y-25814715D01*
X27989398Y-25795853D01*
X28014504Y-25637339D01*
X27939056Y-25549000D01*
X26785309Y-25548999D01*
X26711500Y-25622808D01*
X26711499Y-26241523D01*
X26563500Y-26241523D01*
X26563501Y-25622808D01*
X26563500Y-25622807D01*
X26563500Y-25275000D01*
X26563501Y-25015332D01*
X26711500Y-25015332D01*
X26711500Y-25183651D01*
X26711498Y-25327190D01*
X26785308Y-25401000D01*
X27939056Y-25401001D01*
X28014504Y-25312662D01*
X27989398Y-25154147D01*
X27988051Y-25150000D01*
X27989398Y-25145853D01*
X28014504Y-24987339D01*
X27939056Y-24899000D01*
X27680104Y-24899000D01*
X27706130Y-24885739D01*
X27722175Y-24874081D01*
X27845255Y-24751001D01*
X27939056Y-24751001D01*
X28014504Y-24662662D01*
X27989398Y-24504147D01*
X27988051Y-24500000D01*
X27989398Y-24495853D01*
X28014555Y-24337019D01*
X28015332Y-24327149D01*
X28015332Y-24022851D01*
X28014555Y-24012981D01*
X27989398Y-23854147D01*
X27988051Y-23850000D01*
X27989398Y-23845853D01*
X28014555Y-23687019D01*
X28015332Y-23677149D01*
X28015332Y-23372851D01*
X28014555Y-23362981D01*
X27989398Y-23204147D01*
X27983270Y-23185285D01*
X27885739Y-22993870D01*
X27874081Y-22977825D01*
X27722175Y-22825919D01*
X27706130Y-22814261D01*
X27514715Y-22716730D01*
X27495853Y-22710602D01*
X27337019Y-22685445D01*
X27327149Y-22684668D01*
X25947851Y-22684668D01*
X25937981Y-22685445D01*
X25779147Y-22710602D01*
X25760285Y-22716730D01*
X25568870Y-22814261D01*
X25552825Y-22825919D01*
X25400919Y-22977825D01*
X25389261Y-22993870D01*
X25373522Y-23024760D01*
X23753839Y-24644444D01*
X23612432Y-24785850D01*
X23600775Y-24801895D01*
X23579073Y-24844488D01*
X23550968Y-24883171D01*
X23541964Y-24900843D01*
X23527192Y-24946310D01*
X23505485Y-24988911D01*
X23499357Y-25007774D01*
X23491877Y-25054996D01*
X23477103Y-25100465D01*
X23474001Y-25120054D01*
X23474001Y-25177779D01*
X23474000Y-32861091D01*
X23302396Y-32836418D01*
X23293419Y-32835776D01*
X22722589Y-32835776D01*
X22709159Y-32837220D01*
X22411048Y-32902070D01*
X22390214Y-32910700D01*
X22190950Y-33038759D01*
X22177329Y-33050562D01*
X22023698Y-33227861D01*
X22013954Y-33243023D01*
X21916497Y-33456424D01*
X21911419Y-33473717D01*
X21886418Y-33647604D01*
X21885776Y-33656581D01*
X21885776Y-34327411D01*
X21887220Y-34340841D01*
X21952070Y-34638952D01*
X21960700Y-34659786D01*
X22088759Y-34859050D01*
X22100562Y-34872671D01*
X22108720Y-34879740D01*
X22023698Y-34977861D01*
X22013954Y-34993023D01*
X21916497Y-35206424D01*
X21911419Y-35223717D01*
X21886418Y-35397604D01*
X21885776Y-35406581D01*
X21885776Y-35548191D01*
X21959585Y-35622000D01*
X23128000Y-35622001D01*
X23127999Y-35878000D01*
X21959585Y-35877999D01*
X21885776Y-35951808D01*
X21885776Y-36077411D01*
X21887220Y-36090841D01*
X21952070Y-36388952D01*
X21960028Y-36408163D01*
X21746002Y-36408163D01*
X21746002Y-30777431D01*
X22097223Y-30426211D01*
X22097230Y-30426202D01*
X22132578Y-30390855D01*
X22144236Y-30374809D01*
X22165939Y-30332213D01*
X22194042Y-30293534D01*
X22203046Y-30275863D01*
X22217821Y-30230391D01*
X22239526Y-30187792D01*
X22245654Y-30168931D01*
X22253135Y-30121702D01*
X22267907Y-30076240D01*
X22271009Y-30056652D01*
X22271009Y-30004142D01*
X22271010Y-30004130D01*
X22271010Y-23395366D01*
X22277861Y-23401302D01*
X22293023Y-23411046D01*
X22506424Y-23508503D01*
X22523717Y-23513581D01*
X22697604Y-23538582D01*
X22706581Y-23539224D01*
X23277411Y-23539224D01*
X23290841Y-23537780D01*
X23588952Y-23472930D01*
X23609786Y-23464300D01*
X23809050Y-23336241D01*
X23822671Y-23324438D01*
X23976302Y-23147139D01*
X23986046Y-23131977D01*
X24083503Y-22918576D01*
X24088581Y-22901283D01*
X24113582Y-22727396D01*
X24114224Y-22718419D01*
X24114224Y-22047589D01*
X24112780Y-22034159D01*
X24047930Y-21736048D01*
X24039300Y-21715214D01*
X23911241Y-21515950D01*
X23899438Y-21502329D01*
X23891280Y-21495260D01*
X23976302Y-21397139D01*
X23986046Y-21381977D01*
X24083503Y-21168576D01*
X24088581Y-21151283D01*
X24113582Y-20977396D01*
X24114224Y-20968419D01*
X24114224Y-20297589D01*
X24112780Y-20284159D01*
X24090337Y-20180990D01*
X24135776Y-20180990D01*
X24135776Y-20577411D01*
X24137220Y-20590841D01*
X24202070Y-20888952D01*
X24210700Y-20909786D01*
X24338759Y-21109050D01*
X24350562Y-21122671D01*
X24527861Y-21276302D01*
X24543023Y-21286046D01*
X24756424Y-21383503D01*
X24773717Y-21388581D01*
X24947604Y-21413582D01*
X24956581Y-21414224D01*
X25527411Y-21414224D01*
X25540841Y-21412780D01*
X25838952Y-21347930D01*
X25859786Y-21339300D01*
X25998032Y-21250455D01*
X26027861Y-21276302D01*
X26043023Y-21286046D01*
X26256424Y-21383503D01*
X26273717Y-21388581D01*
X26447604Y-21413582D01*
X26456581Y-21414224D01*
X27027411Y-21414224D01*
X27040841Y-21412780D01*
X27338952Y-21347930D01*
X27359786Y-21339300D01*
X27559050Y-21211241D01*
X27572671Y-21199438D01*
X27726302Y-21022139D01*
X27732496Y-21012501D01*
X27769905Y-21049911D01*
X27769919Y-21049924D01*
X27807564Y-21087569D01*
X27823609Y-21099226D01*
X27866205Y-21120929D01*
X27904884Y-21149032D01*
X27922555Y-21158036D01*
X27968027Y-21172811D01*
X28010626Y-21194516D01*
X28029487Y-21200644D01*
X28076716Y-21208125D01*
X28122178Y-21222897D01*
X28141766Y-21225999D01*
X28194276Y-21225999D01*
X28194288Y-21226000D01*
X30985386Y-21226000D01*
X31038759Y-21309050D01*
X31050562Y-21322671D01*
X31227861Y-21476302D01*
X31243023Y-21486046D01*
X31456424Y-21583503D01*
X31473717Y-21588581D01*
X31647604Y-21613582D01*
X31656581Y-21614224D01*
X32327411Y-21614224D01*
X32340841Y-21612780D01*
X32638952Y-21547930D01*
X32659786Y-21539300D01*
X32859050Y-21411241D01*
X32872671Y-21399438D01*
X32879740Y-21391280D01*
X32977861Y-21476302D01*
X32993023Y-21486046D01*
X33206424Y-21583503D01*
X33223717Y-21588581D01*
X33397604Y-21613582D01*
X33406581Y-21614224D01*
X34077411Y-21614224D01*
X34090841Y-21612780D01*
X34388952Y-21547930D01*
X34409786Y-21539300D01*
X34609050Y-21411241D01*
X34622671Y-21399438D01*
X34776302Y-21222139D01*
X34786046Y-21206977D01*
X34883503Y-20993576D01*
X34888581Y-20976283D01*
X34913582Y-20802396D01*
X34914224Y-20793419D01*
X34914224Y-20222589D01*
X34912780Y-20209159D01*
X34847930Y-19911048D01*
X34839300Y-19890214D01*
X34711241Y-19690950D01*
X34699438Y-19677329D01*
X34682728Y-19662849D01*
X34703339Y-19652120D01*
X34859590Y-19521010D01*
X34873761Y-19504121D01*
X34974359Y-19329880D01*
X34981900Y-19309162D01*
X34996155Y-19228313D01*
X35050464Y-19147797D01*
X35058292Y-19131640D01*
X35130056Y-18906775D01*
X35133050Y-18888289D01*
X35136165Y-18633328D01*
X35133624Y-18614774D01*
X35067376Y-18388223D01*
X35059945Y-18371879D01*
X34980433Y-18247549D01*
X34939863Y-18096142D01*
X34927120Y-18071662D01*
X34796010Y-17915410D01*
X34779121Y-17901239D01*
X34604880Y-17800641D01*
X34584163Y-17793100D01*
X34391462Y-17759122D01*
X34380501Y-17758163D01*
X34357131Y-17758163D01*
X34355644Y-17748775D01*
X34349515Y-17729913D01*
X34327809Y-17687313D01*
X34313034Y-17641843D01*
X34304031Y-17624173D01*
X34275932Y-17585497D01*
X34254225Y-17542895D01*
X34242567Y-17526850D01*
X34221971Y-17506254D01*
X34223761Y-17504121D01*
X34324359Y-17329880D01*
X34331899Y-17309163D01*
X34356379Y-17170338D01*
X36034881Y-15491837D01*
X37358258Y-15491837D01*
X37374634Y-15489681D01*
X37653859Y-15414863D01*
X37678339Y-15402120D01*
X37834590Y-15271010D01*
X37848761Y-15254121D01*
X37949359Y-15079880D01*
X37956900Y-15059163D01*
X37990878Y-14866462D01*
X37991837Y-14855501D01*
X37991837Y-13141742D01*
X37989681Y-13125366D01*
X37914863Y-12846142D01*
X37902120Y-12821662D01*
X37771010Y-12665410D01*
X37754121Y-12651239D01*
X37724262Y-12634000D01*
X39366000Y-12634000D01*
X39366001Y-15295589D01*
G37*
%TD.AperFunction*%
X37274000Y-27035776D02*
X36734622Y-27035776D01*
X36721192Y-27037220D01*
X36418377Y-27103093D01*
X36397543Y-27111723D01*
X36195224Y-27241745D01*
X36181603Y-27253548D01*
X36025593Y-27433592D01*
X36015849Y-27448754D01*
X35916884Y-27665459D01*
X35911806Y-27682752D01*
X35886418Y-27859330D01*
X35885776Y-27868307D01*
X35885776Y-29596558D01*
X35614224Y-29325006D01*
X35614224Y-27884622D01*
X35612780Y-27871192D01*
X35546907Y-27568377D01*
X35538277Y-27547543D01*
X35408255Y-27345224D01*
X35396452Y-27331603D01*
X35216408Y-27175593D01*
X35201246Y-27165849D01*
X34984541Y-27066884D01*
X34967248Y-27061806D01*
X34790670Y-27036418D01*
X34781693Y-27035776D01*
X33759622Y-27035776D01*
X33746192Y-27037220D01*
X33443377Y-27103093D01*
X33422543Y-27111723D01*
X33220224Y-27241745D01*
X33206603Y-27253548D01*
X33050593Y-27433592D01*
X33040849Y-27448754D01*
X32941884Y-27665459D01*
X32936806Y-27682752D01*
X32911418Y-27859330D01*
X32910776Y-27868307D01*
X32910776Y-30115378D01*
X32912220Y-30128808D01*
X32978093Y-30431623D01*
X32986723Y-30452457D01*
X33116745Y-30654776D01*
X33128548Y-30668397D01*
X33308592Y-30824407D01*
X33323754Y-30834151D01*
X33540459Y-30933116D01*
X33557752Y-30938194D01*
X33614529Y-30946357D01*
X33614507Y-30948163D01*
X33591742Y-30948163D01*
X33575366Y-30950319D01*
X33359994Y-31008027D01*
X33329880Y-30990641D01*
X33309163Y-30983100D01*
X33116462Y-30949122D01*
X33105501Y-30948163D01*
X32691742Y-30948163D01*
X32675366Y-30950319D01*
X32396142Y-31025137D01*
X32371662Y-31037880D01*
X32215410Y-31168990D01*
X32201239Y-31185879D01*
X32100641Y-31360120D01*
X32093100Y-31380837D01*
X32059122Y-31573538D01*
X32058163Y-31584499D01*
X32058163Y-31619117D01*
X29821134Y-33856147D01*
X29764863Y-33646142D01*
X29752120Y-33621662D01*
X29696993Y-33555964D01*
X29726302Y-33522139D01*
X29736046Y-33506977D01*
X29833503Y-33293576D01*
X29838581Y-33276283D01*
X29863582Y-33102396D01*
X29864224Y-33093419D01*
X29864224Y-32422589D01*
X29862780Y-32409159D01*
X29797930Y-32111048D01*
X29789300Y-32090214D01*
X29661241Y-31890950D01*
X29649438Y-31877329D01*
X29641280Y-31870260D01*
X29726302Y-31772139D01*
X29736046Y-31756977D01*
X29833503Y-31543576D01*
X29838581Y-31526283D01*
X29863582Y-31352396D01*
X29864224Y-31343419D01*
X29864224Y-30672589D01*
X29862780Y-30659159D01*
X29797930Y-30361048D01*
X29789300Y-30340214D01*
X29661241Y-30140950D01*
X29649438Y-30127329D01*
X29472139Y-29973698D01*
X29456977Y-29963954D01*
X29243576Y-29866497D01*
X29226283Y-29861419D01*
X29052396Y-29836418D01*
X29043419Y-29835776D01*
X28472589Y-29835776D01*
X28459159Y-29837220D01*
X28362277Y-29858296D01*
X28243685Y-29754841D01*
X28228620Y-29745076D01*
X28014700Y-29646232D01*
X27997500Y-29641088D01*
X27903034Y-29626970D01*
X31327255Y-26202750D01*
X31485285Y-26283270D01*
X31504147Y-26289398D01*
X31662981Y-26314555D01*
X31672851Y-26315332D01*
X33052149Y-26315332D01*
X33062019Y-26314555D01*
X33220853Y-26289398D01*
X33239715Y-26283270D01*
X33431130Y-26185739D01*
X33447175Y-26174081D01*
X33599081Y-26022175D01*
X33610739Y-26006130D01*
X33708270Y-25814715D01*
X33714398Y-25795853D01*
X33739555Y-25637019D01*
X33740332Y-25627149D01*
X33740332Y-25322851D01*
X33739555Y-25312981D01*
X33714398Y-25154147D01*
X33713051Y-25150000D01*
X33714398Y-25145853D01*
X33739555Y-24987019D01*
X33740332Y-24977149D01*
X33740332Y-24672851D01*
X33739555Y-24662981D01*
X33714398Y-24504147D01*
X33713051Y-24500000D01*
X33714398Y-24495853D01*
X33739504Y-24337339D01*
X33665764Y-24251000D01*
X35492426Y-24251000D01*
X35492438Y-24250999D01*
X35544946Y-24250999D01*
X35564535Y-24247897D01*
X35609997Y-24233125D01*
X35657226Y-24225645D01*
X35676088Y-24219516D01*
X35718689Y-24197810D01*
X35764158Y-24183036D01*
X35781828Y-24174032D01*
X35820502Y-24145934D01*
X35863106Y-24124226D01*
X35879151Y-24112568D01*
X36027739Y-23963980D01*
X36027742Y-23963976D01*
X36799882Y-23191837D01*
X37274001Y-23191837D01*
X37274000Y-27035776D01*
%TA.AperFunction,Conductor*%
G36*
X37274000Y-27035776D02*
G01*
X36734622Y-27035776D01*
X36721192Y-27037220D01*
X36418377Y-27103093D01*
X36397543Y-27111723D01*
X36195224Y-27241745D01*
X36181603Y-27253548D01*
X36025593Y-27433592D01*
X36015849Y-27448754D01*
X35916884Y-27665459D01*
X35911806Y-27682752D01*
X35886418Y-27859330D01*
X35885776Y-27868307D01*
X35885776Y-29596558D01*
X35614224Y-29325006D01*
X35614224Y-27884622D01*
X35612780Y-27871192D01*
X35546907Y-27568377D01*
X35538277Y-27547543D01*
X35408255Y-27345224D01*
X35396452Y-27331603D01*
X35216408Y-27175593D01*
X35201246Y-27165849D01*
X34984541Y-27066884D01*
X34967248Y-27061806D01*
X34790670Y-27036418D01*
X34781693Y-27035776D01*
X33759622Y-27035776D01*
X33746192Y-27037220D01*
X33443377Y-27103093D01*
X33422543Y-27111723D01*
X33220224Y-27241745D01*
X33206603Y-27253548D01*
X33050593Y-27433592D01*
X33040849Y-27448754D01*
X32941884Y-27665459D01*
X32936806Y-27682752D01*
X32911418Y-27859330D01*
X32910776Y-27868307D01*
X32910776Y-30115378D01*
X32912220Y-30128808D01*
X32978093Y-30431623D01*
X32986723Y-30452457D01*
X33116745Y-30654776D01*
X33128548Y-30668397D01*
X33308592Y-30824407D01*
X33323754Y-30834151D01*
X33540459Y-30933116D01*
X33557752Y-30938194D01*
X33614529Y-30946357D01*
X33614507Y-30948163D01*
X33591742Y-30948163D01*
X33575366Y-30950319D01*
X33359994Y-31008027D01*
X33329880Y-30990641D01*
X33309163Y-30983100D01*
X33116462Y-30949122D01*
X33105501Y-30948163D01*
X32691742Y-30948163D01*
X32675366Y-30950319D01*
X32396142Y-31025137D01*
X32371662Y-31037880D01*
X32215410Y-31168990D01*
X32201239Y-31185879D01*
X32100641Y-31360120D01*
X32093100Y-31380837D01*
X32059122Y-31573538D01*
X32058163Y-31584499D01*
X32058163Y-31619117D01*
X29821134Y-33856147D01*
X29764863Y-33646142D01*
X29752120Y-33621662D01*
X29696993Y-33555964D01*
X29726302Y-33522139D01*
X29736046Y-33506977D01*
X29833503Y-33293576D01*
X29838581Y-33276283D01*
X29863582Y-33102396D01*
X29864224Y-33093419D01*
X29864224Y-32422589D01*
X29862780Y-32409159D01*
X29797930Y-32111048D01*
X29789300Y-32090214D01*
X29661241Y-31890950D01*
X29649438Y-31877329D01*
X29641280Y-31870260D01*
X29726302Y-31772139D01*
X29736046Y-31756977D01*
X29833503Y-31543576D01*
X29838581Y-31526283D01*
X29863582Y-31352396D01*
X29864224Y-31343419D01*
X29864224Y-30672589D01*
X29862780Y-30659159D01*
X29797930Y-30361048D01*
X29789300Y-30340214D01*
X29661241Y-30140950D01*
X29649438Y-30127329D01*
X29472139Y-29973698D01*
X29456977Y-29963954D01*
X29243576Y-29866497D01*
X29226283Y-29861419D01*
X29052396Y-29836418D01*
X29043419Y-29835776D01*
X28472589Y-29835776D01*
X28459159Y-29837220D01*
X28362277Y-29858296D01*
X28243685Y-29754841D01*
X28228620Y-29745076D01*
X28014700Y-29646232D01*
X27997500Y-29641088D01*
X27903034Y-29626970D01*
X31327255Y-26202750D01*
X31485285Y-26283270D01*
X31504147Y-26289398D01*
X31662981Y-26314555D01*
X31672851Y-26315332D01*
X33052149Y-26315332D01*
X33062019Y-26314555D01*
X33220853Y-26289398D01*
X33239715Y-26283270D01*
X33431130Y-26185739D01*
X33447175Y-26174081D01*
X33599081Y-26022175D01*
X33610739Y-26006130D01*
X33708270Y-25814715D01*
X33714398Y-25795853D01*
X33739555Y-25637019D01*
X33740332Y-25627149D01*
X33740332Y-25322851D01*
X33739555Y-25312981D01*
X33714398Y-25154147D01*
X33713051Y-25150000D01*
X33714398Y-25145853D01*
X33739555Y-24987019D01*
X33740332Y-24977149D01*
X33740332Y-24672851D01*
X33739555Y-24662981D01*
X33714398Y-24504147D01*
X33713051Y-24500000D01*
X33714398Y-24495853D01*
X33739504Y-24337339D01*
X33665764Y-24251000D01*
X35492426Y-24251000D01*
X35492438Y-24250999D01*
X35544946Y-24250999D01*
X35564535Y-24247897D01*
X35609997Y-24233125D01*
X35657226Y-24225645D01*
X35676088Y-24219516D01*
X35718689Y-24197810D01*
X35764158Y-24183036D01*
X35781828Y-24174032D01*
X35820502Y-24145934D01*
X35863106Y-24124226D01*
X35879151Y-24112568D01*
X36027739Y-23963980D01*
X36027742Y-23963976D01*
X36799882Y-23191837D01*
X37274001Y-23191837D01*
X37274000Y-27035776D01*
G37*
%TD.AperFunction*%
%TD*%
M02*
