M48
; DRILL file {KiCad (5.99.0-2309-gaf729d578)} date Sat Jul 18 18:02:07 2020
; FORMAT={-:-/ absolute / inch / decimal}
; #@! TF.CreationDate,2020-07-18T18:02:07-04:00
; #@! TF.GenerationSoftware,Kicad,Pcbnew,(5.99.0-2309-gaf729d578)
; #@! TF.FileFunction,Plated,1,2,PTH
FMAT,2
INCH
T1C0.0118
T2C0.0197
T3C0.0236
T4C0.0295
T5C0.0394
%
G90
G05
T1
X0.5118Y-1.8012
X0.5217Y-2.2835
X0.5512Y-1.2539
X0.6102Y-1.8701
X0.6299Y-1.7618
X0.6398Y-2.3169
X0.6791Y-1.0236
X0.6791Y-1.8209
X0.6791Y-1.9587
X0.7052Y-1.9057
X0.7234Y-1.9254
X0.7382Y-1.7709
X0.748Y-1.3287
X0.7579Y-1.5748
X0.7579Y-1.7413
X0.7579Y-1.8799
X0.7579Y-1.9882
X0.7677Y-2.6033
X0.7874Y-0.9744
X0.7874Y-2.3228
X0.7972Y-1.2697
X0.7972Y-1.6634
X0.8062Y-0.8545
X0.8071Y-1.4272
X0.8071Y-1.7913
X0.8248Y-0.9705
X0.8268Y-2.6033
X0.8366Y-1.5157
X0.8366Y-1.8996
X0.8367Y-0.8845
X0.8661Y-0.4724
X0.8661Y-1.2894
X0.8661Y-1.8118
X0.8751Y-1.6419
X0.876Y-1.5256
X0.876Y-1.7421
X0.8858Y-2.4213
X0.8898Y-0.6598
X0.8907Y-1.5945
X0.9055Y-0.876
X0.9055Y-1.3386
X0.9055Y-1.7913
X0.9154Y-0.4626
X0.9449Y-0.5758
X0.9646Y-0.6991
X0.9695Y-1.6732
X0.9752Y-2.4347
X0.9843Y-2.2638
X0.9941Y-0.7283
X0.9941Y-0.7972
X1.0138Y-2.4213
X1.0236Y-1.6937
X1.0236Y-2.6033
X1.0258Y-2.4452
X1.0531Y-0.5807
X1.0531Y-0.7283
X1.0531Y-0.7972
X1.0531Y-2.185
X1.0531Y-2.2539
X1.0694Y-0.6203
X1.0803Y-2.4548
X1.0827Y-2.6033
X1.0925Y-1.2008
X1.0974Y-1.8307
X1.1417Y-1.5354
X1.1417Y-2.6033
X1.1673Y-1.7303
X1.1673Y-1.8996
X1.1909Y-1.4469
X1.2008Y-2.6033
X1.2106Y-1.6831
X1.2106Y-1.8799
X1.2303Y-0.6693
X1.2303Y-0.7382
X1.2402Y-1.7421
X1.2402Y-2.313
X1.2598Y-1.6043
X1.3386Y-1.6437
X1.3389Y-1.8698
X1.3484Y-0.7382
X1.3583Y-1.2205
X1.3583Y-1.3189
X1.3976Y-1.3189
X1.3976Y-1.8996
X1.3976Y-2.0374
X1.4075Y-1.8012
X1.4103Y-1.7565
X1.437Y-1.0236
X1.4469Y-0.8661
X1.4469Y-1.8406
X1.4567Y-1.6535
X1.4567Y-2.4508
X1.4665Y-1.1417
X1.4961Y-1.9685
X1.5256Y-1.0433
T2
X1.5059Y-2.0374
X1.5059Y-2.0768
T4
X0.5217Y-0.8071
X0.6004Y-0.8071
T5
X1.337Y-0.5512
X1.437Y-0.5512
X0.4823Y-1.0335
X0.4823Y-1.1335
T3
G00X0.8142Y-0.4571
M15
G01X0.8142Y-0.4886
M16
G05
G00X0.8142Y-0.6154
M15
G01X0.8142Y-0.6587
M16
G05
G00X1.1543Y-0.4571
M15
G01X1.1543Y-0.4886
M16
G05
G00X1.1543Y-0.6154
M15
G01X1.1543Y-0.6587
M16
G05
T0
M30
