%TF.GenerationSoftware,KiCad,Pcbnew,(5.99.0-2309-gaf729d578)*%
%TF.CreationDate,2020-07-18T18:02:02-04:00*%
%TF.ProjectId,mk2,6d6b322e-6b69-4636-9164-5f7063625858,rev?*%
%TF.SameCoordinates,Original*%
%TF.FileFunction,Legend,Bot*%
%TF.FilePolarity,Positive*%
%FSLAX46Y46*%
G04 Gerber Fmt 4.6, Leading zero omitted, Abs format (unit mm)*
G04 Created by KiCad (PCBNEW (5.99.0-2309-gaf729d578)) date 2020-07-18 18:02:02*
%MOMM*%
%LPD*%
G01*
G04 APERTURE LIST*
%ADD10C,0.125000*%
%ADD11C,0.187500*%
%ADD12C,0.200000*%
%ADD13C,0.150000*%
%ADD14C,0.120000*%
G04 APERTURE END LIST*
D10*
X39107142Y-54476190D02*
X39107142Y-53976190D01*
X39107142Y-54166666D02*
X39059523Y-54142857D01*
X38964285Y-54142857D01*
X38916666Y-54166666D01*
X38892857Y-54190476D01*
X38869047Y-54238095D01*
X38869047Y-54380952D01*
X38892857Y-54428571D01*
X38916666Y-54452380D01*
X38964285Y-54476190D01*
X39059523Y-54476190D01*
X39107142Y-54452380D01*
X38440476Y-54142857D02*
X38440476Y-54476190D01*
X38654761Y-54142857D02*
X38654761Y-54404761D01*
X38630952Y-54452380D01*
X38583333Y-54476190D01*
X38511904Y-54476190D01*
X38464285Y-54452380D01*
X38440476Y-54428571D01*
X38250000Y-54142857D02*
X37988095Y-54142857D01*
X38250000Y-54476190D01*
X37988095Y-54476190D01*
X37845238Y-54142857D02*
X37583333Y-54142857D01*
X37845238Y-54476190D01*
X37583333Y-54476190D01*
X37202380Y-54452380D02*
X37250000Y-54476190D01*
X37345238Y-54476190D01*
X37392857Y-54452380D01*
X37416666Y-54404761D01*
X37416666Y-54214285D01*
X37392857Y-54166666D01*
X37345238Y-54142857D01*
X37250000Y-54142857D01*
X37202380Y-54166666D01*
X37178571Y-54214285D01*
X37178571Y-54261904D01*
X37416666Y-54309523D01*
X36964285Y-54476190D02*
X36964285Y-54142857D01*
X36964285Y-54238095D02*
X36940476Y-54190476D01*
X36916666Y-54166666D01*
X36869047Y-54142857D01*
X36821428Y-54142857D01*
D11*
X38699553Y-65985535D02*
X38699553Y-66485535D01*
X38699553Y-66056964D02*
X38663839Y-66021250D01*
X38592410Y-65985535D01*
X38485267Y-65985535D01*
X38413839Y-66021250D01*
X38378125Y-66092678D01*
X38378125Y-66485535D01*
X38020982Y-66485535D02*
X38020982Y-65985535D01*
X38020982Y-66128392D02*
X37985267Y-66056964D01*
X37949553Y-66021250D01*
X37878125Y-65985535D01*
X37806696Y-65985535D01*
X37663839Y-65985535D02*
X37378125Y-65985535D01*
X37556696Y-66485535D02*
X37556696Y-65842678D01*
X37520982Y-65771250D01*
X37449553Y-65735535D01*
X37378125Y-65735535D01*
X36770982Y-65735535D02*
X37128125Y-65735535D01*
X37163839Y-66092678D01*
X37128125Y-66056964D01*
X37056696Y-66021250D01*
X36878125Y-66021250D01*
X36806696Y-66056964D01*
X36770982Y-66092678D01*
X36735267Y-66164107D01*
X36735267Y-66342678D01*
X36770982Y-66414107D01*
X36806696Y-66449821D01*
X36878125Y-66485535D01*
X37056696Y-66485535D01*
X37128125Y-66449821D01*
X37163839Y-66414107D01*
X36449553Y-65806964D02*
X36413839Y-65771250D01*
X36342410Y-65735535D01*
X36163839Y-65735535D01*
X36092410Y-65771250D01*
X36056696Y-65806964D01*
X36020982Y-65878392D01*
X36020982Y-65949821D01*
X36056696Y-66056964D01*
X36485267Y-66485535D01*
X36020982Y-66485535D01*
X35699553Y-66199821D02*
X35128125Y-66199821D01*
X34842410Y-65985535D02*
X34699553Y-66485535D01*
X34556696Y-66128392D01*
X34413839Y-66485535D01*
X34270982Y-65985535D01*
X33663839Y-66485535D02*
X33663839Y-66092678D01*
X33699553Y-66021250D01*
X33770982Y-65985535D01*
X33913839Y-65985535D01*
X33985267Y-66021250D01*
X33663839Y-66449821D02*
X33735267Y-66485535D01*
X33913839Y-66485535D01*
X33985267Y-66449821D01*
X34020982Y-66378392D01*
X34020982Y-66306964D01*
X33985267Y-66235535D01*
X33913839Y-66199821D01*
X33735267Y-66199821D01*
X33663839Y-66164107D01*
X33413839Y-65985535D02*
X33128125Y-65985535D01*
X33306696Y-65735535D02*
X33306696Y-66378392D01*
X33270982Y-66449821D01*
X33199553Y-66485535D01*
X33128125Y-66485535D01*
X32556696Y-66449821D02*
X32628125Y-66485535D01*
X32770982Y-66485535D01*
X32842410Y-66449821D01*
X32878125Y-66414107D01*
X32913839Y-66342678D01*
X32913839Y-66128392D01*
X32878125Y-66056964D01*
X32842410Y-66021250D01*
X32770982Y-65985535D01*
X32628125Y-65985535D01*
X32556696Y-66021250D01*
X32235267Y-66485535D02*
X32235267Y-65735535D01*
X31913839Y-66485535D02*
X31913839Y-66092678D01*
X31949553Y-66021250D01*
X32020982Y-65985535D01*
X32128125Y-65985535D01*
X32199553Y-66021250D01*
X32235267Y-66056964D01*
X38699553Y-67693035D02*
X38699553Y-67193035D01*
X38699553Y-67264464D02*
X38663839Y-67228750D01*
X38592410Y-67193035D01*
X38485267Y-67193035D01*
X38413839Y-67228750D01*
X38378125Y-67300178D01*
X38378125Y-67693035D01*
X38378125Y-67300178D02*
X38342410Y-67228750D01*
X38270982Y-67193035D01*
X38163839Y-67193035D01*
X38092410Y-67228750D01*
X38056696Y-67300178D01*
X38056696Y-67693035D01*
X37699553Y-67693035D02*
X37699553Y-66943035D01*
X37628125Y-67407321D02*
X37413839Y-67693035D01*
X37413839Y-67193035D02*
X37699553Y-67478750D01*
X37128125Y-67014464D02*
X37092410Y-66978750D01*
X37020982Y-66943035D01*
X36842410Y-66943035D01*
X36770982Y-66978750D01*
X36735267Y-67014464D01*
X36699553Y-67085892D01*
X36699553Y-67157321D01*
X36735267Y-67264464D01*
X37163839Y-67693035D01*
X36699553Y-67693035D01*
X35806696Y-67407321D02*
X35235267Y-67407321D01*
X34306696Y-67693035D02*
X34306696Y-67193035D01*
X34306696Y-67335892D02*
X34270982Y-67264464D01*
X34235267Y-67228750D01*
X34163839Y-67193035D01*
X34092410Y-67193035D01*
X33556696Y-67657321D02*
X33628125Y-67693035D01*
X33770982Y-67693035D01*
X33842410Y-67657321D01*
X33878125Y-67585892D01*
X33878125Y-67300178D01*
X33842410Y-67228750D01*
X33770982Y-67193035D01*
X33628125Y-67193035D01*
X33556696Y-67228750D01*
X33520982Y-67300178D01*
X33520982Y-67371607D01*
X33878125Y-67443035D01*
X33270982Y-67193035D02*
X33092410Y-67693035D01*
X32913839Y-67193035D01*
X32628125Y-67621607D02*
X32592410Y-67657321D01*
X32628125Y-67693035D01*
X32663839Y-67657321D01*
X32628125Y-67621607D01*
X32628125Y-67693035D01*
X31878125Y-67693035D02*
X32306696Y-67693035D01*
X32092410Y-67693035D02*
X32092410Y-66943035D01*
X32163839Y-67050178D01*
X32235267Y-67121607D01*
X32306696Y-67157321D01*
X21382589Y-54235535D02*
X21476339Y-54985535D01*
X21387053Y-54271250D02*
X21311160Y-54235535D01*
X21168303Y-54235535D01*
X21101339Y-54271250D01*
X21070089Y-54306964D01*
X21043303Y-54378392D01*
X21070089Y-54592678D01*
X21114732Y-54664107D01*
X21154910Y-54699821D01*
X21230803Y-54735535D01*
X21373660Y-54735535D01*
X21440625Y-54699821D01*
X20766517Y-54735535D02*
X20704017Y-54235535D01*
X20721875Y-54378392D02*
X20677232Y-54306964D01*
X20637053Y-54271250D01*
X20561160Y-54235535D01*
X20489732Y-54235535D01*
X20195089Y-54735535D02*
X20262053Y-54699821D01*
X20293303Y-54664107D01*
X20320089Y-54592678D01*
X20293303Y-54378392D01*
X20248660Y-54306964D01*
X20208482Y-54271250D01*
X20132589Y-54235535D01*
X20025446Y-54235535D01*
X19958482Y-54271250D01*
X19927232Y-54306964D01*
X19900446Y-54378392D01*
X19927232Y-54592678D01*
X19971875Y-54664107D01*
X20012053Y-54699821D01*
X20087946Y-54735535D01*
X20195089Y-54735535D01*
X19239732Y-54235535D02*
X19302232Y-54735535D01*
X19561160Y-54235535D02*
X19610267Y-54628392D01*
X19583482Y-54699821D01*
X19516517Y-54735535D01*
X19409375Y-54735535D01*
X19333482Y-54699821D01*
X19293303Y-54664107D01*
X18623660Y-54735535D02*
X18529910Y-53985535D01*
X18619196Y-54699821D02*
X18695089Y-54735535D01*
X18837946Y-54735535D01*
X18904910Y-54699821D01*
X18936160Y-54664107D01*
X18962946Y-54592678D01*
X18936160Y-54378392D01*
X18891517Y-54306964D01*
X18851339Y-54271250D01*
X18775446Y-54235535D01*
X18632589Y-54235535D01*
X18565625Y-54271250D01*
X18159375Y-54735535D02*
X18226339Y-54699821D01*
X18253125Y-54628392D01*
X18172767Y-53985535D01*
X17882589Y-54235535D02*
X17766517Y-54735535D01*
X17525446Y-54235535D02*
X17766517Y-54735535D01*
X17860267Y-54914107D01*
X17900446Y-54949821D01*
X17976339Y-54985535D01*
X16409375Y-54735535D02*
X16315625Y-53985535D01*
X16404910Y-54699821D02*
X16480803Y-54735535D01*
X16623660Y-54735535D01*
X16690625Y-54699821D01*
X16721875Y-54664107D01*
X16748660Y-54592678D01*
X16721875Y-54378392D01*
X16677232Y-54306964D01*
X16637053Y-54271250D01*
X16561160Y-54235535D01*
X16418303Y-54235535D01*
X16351339Y-54271250D01*
X15762053Y-54699821D02*
X15837946Y-54735535D01*
X15980803Y-54735535D01*
X16047767Y-54699821D01*
X16074553Y-54628392D01*
X16038839Y-54342678D01*
X15994196Y-54271250D01*
X15918303Y-54235535D01*
X15775446Y-54235535D01*
X15708482Y-54271250D01*
X15681696Y-54342678D01*
X15690625Y-54414107D01*
X16056696Y-54485535D01*
X15440625Y-54699821D02*
X15373660Y-54735535D01*
X15230803Y-54735535D01*
X15154910Y-54699821D01*
X15110267Y-54628392D01*
X15105803Y-54592678D01*
X15132589Y-54521250D01*
X15199553Y-54485535D01*
X15306696Y-54485535D01*
X15373660Y-54449821D01*
X15400446Y-54378392D01*
X15395982Y-54342678D01*
X15351339Y-54271250D01*
X15275446Y-54235535D01*
X15168303Y-54235535D01*
X15101339Y-54271250D01*
X14802232Y-54735535D02*
X14739732Y-54235535D01*
X14708482Y-53985535D02*
X14748660Y-54021250D01*
X14717410Y-54056964D01*
X14677232Y-54021250D01*
X14708482Y-53985535D01*
X14717410Y-54056964D01*
X14061160Y-54235535D02*
X14137053Y-54842678D01*
X14181696Y-54914107D01*
X14221875Y-54949821D01*
X14297767Y-54985535D01*
X14404910Y-54985535D01*
X14471875Y-54949821D01*
X14119196Y-54699821D02*
X14195089Y-54735535D01*
X14337946Y-54735535D01*
X14404910Y-54699821D01*
X14436160Y-54664107D01*
X14462946Y-54592678D01*
X14436160Y-54378392D01*
X14391517Y-54306964D01*
X14351339Y-54271250D01*
X14275446Y-54235535D01*
X14132589Y-54235535D01*
X14065625Y-54271250D01*
X13704017Y-54235535D02*
X13766517Y-54735535D01*
X13712946Y-54306964D02*
X13672767Y-54271250D01*
X13596875Y-54235535D01*
X13489732Y-54235535D01*
X13422767Y-54271250D01*
X13395982Y-54342678D01*
X13445089Y-54735535D01*
X12797767Y-54699821D02*
X12873660Y-54735535D01*
X13016517Y-54735535D01*
X13083482Y-54699821D01*
X13110267Y-54628392D01*
X13074553Y-54342678D01*
X13029910Y-54271250D01*
X12954017Y-54235535D01*
X12811160Y-54235535D01*
X12744196Y-54271250D01*
X12717410Y-54342678D01*
X12726339Y-54414107D01*
X13092410Y-54485535D01*
X12123660Y-54735535D02*
X12029910Y-53985535D01*
X12119196Y-54699821D02*
X12195089Y-54735535D01*
X12337946Y-54735535D01*
X12404910Y-54699821D01*
X12436160Y-54664107D01*
X12462946Y-54592678D01*
X12436160Y-54378392D01*
X12391517Y-54306964D01*
X12351339Y-54271250D01*
X12275446Y-54235535D01*
X12132589Y-54235535D01*
X12065625Y-54271250D01*
X21445089Y-55943035D02*
X21382589Y-55443035D01*
X21351339Y-55193035D02*
X21391517Y-55228750D01*
X21360267Y-55264464D01*
X21320089Y-55228750D01*
X21351339Y-55193035D01*
X21360267Y-55264464D01*
X21025446Y-55443035D02*
X21087946Y-55943035D01*
X21034375Y-55514464D02*
X20994196Y-55478750D01*
X20918303Y-55443035D01*
X20811160Y-55443035D01*
X20744196Y-55478750D01*
X20717410Y-55550178D01*
X20766517Y-55943035D01*
X19837946Y-55943035D02*
X19744196Y-55193035D01*
X19458482Y-55193035D01*
X19391517Y-55228750D01*
X19360267Y-55264464D01*
X19333482Y-55335892D01*
X19346875Y-55443035D01*
X19391517Y-55514464D01*
X19431696Y-55550178D01*
X19507589Y-55585892D01*
X19793303Y-55585892D01*
X19087946Y-55943035D02*
X19025446Y-55443035D01*
X18994196Y-55193035D02*
X19034375Y-55228750D01*
X19003125Y-55264464D01*
X18962946Y-55228750D01*
X18994196Y-55193035D01*
X19003125Y-55264464D01*
X18775446Y-55443035D02*
X18489732Y-55443035D01*
X18637053Y-55193035D02*
X18717410Y-55835892D01*
X18690625Y-55907321D01*
X18623660Y-55943035D01*
X18552232Y-55943035D01*
X18346875Y-55443035D02*
X18061160Y-55443035D01*
X18208482Y-55193035D02*
X18288839Y-55835892D01*
X18262053Y-55907321D01*
X18195089Y-55943035D01*
X18123660Y-55943035D01*
X17904910Y-55907321D02*
X17837946Y-55943035D01*
X17695089Y-55943035D01*
X17619196Y-55907321D01*
X17574553Y-55835892D01*
X17570089Y-55800178D01*
X17596875Y-55728750D01*
X17663839Y-55693035D01*
X17770982Y-55693035D01*
X17837946Y-55657321D01*
X17864732Y-55585892D01*
X17860267Y-55550178D01*
X17815625Y-55478750D01*
X17739732Y-55443035D01*
X17632589Y-55443035D01*
X17565625Y-55478750D01*
X17266517Y-55943035D02*
X17172767Y-55193035D01*
X17208482Y-55478750D02*
X17132589Y-55443035D01*
X16989732Y-55443035D01*
X16922767Y-55478750D01*
X16891517Y-55514464D01*
X16864732Y-55585892D01*
X16891517Y-55800178D01*
X16936160Y-55871607D01*
X16976339Y-55907321D01*
X17052232Y-55943035D01*
X17195089Y-55943035D01*
X17262053Y-55907321D01*
X16204017Y-55443035D02*
X16266517Y-55943035D01*
X16525446Y-55443035D02*
X16574553Y-55835892D01*
X16547767Y-55907321D01*
X16480803Y-55943035D01*
X16373660Y-55943035D01*
X16297767Y-55907321D01*
X16257589Y-55871607D01*
X15909375Y-55943035D02*
X15846875Y-55443035D01*
X15864732Y-55585892D02*
X15820089Y-55514464D01*
X15779910Y-55478750D01*
X15704017Y-55443035D01*
X15632589Y-55443035D01*
X15061160Y-55443035D02*
X15137053Y-56050178D01*
X15181696Y-56121607D01*
X15221875Y-56157321D01*
X15297767Y-56193035D01*
X15404910Y-56193035D01*
X15471875Y-56157321D01*
X15119196Y-55907321D02*
X15195089Y-55943035D01*
X15337946Y-55943035D01*
X15404910Y-55907321D01*
X15436160Y-55871607D01*
X15462946Y-55800178D01*
X15436160Y-55585892D01*
X15391517Y-55514464D01*
X15351339Y-55478750D01*
X15275446Y-55443035D01*
X15132589Y-55443035D01*
X15065625Y-55478750D01*
X14766517Y-55943035D02*
X14672767Y-55193035D01*
X14445089Y-55943035D02*
X14395982Y-55550178D01*
X14422767Y-55478750D01*
X14489732Y-55443035D01*
X14596875Y-55443035D01*
X14672767Y-55478750D01*
X14712946Y-55514464D01*
X14047767Y-55907321D02*
X14052232Y-55943035D01*
X14096875Y-56014464D01*
X14137053Y-56050178D01*
X13159375Y-55943035D02*
X13065625Y-55193035D01*
X12779910Y-55193035D01*
X12712946Y-55228750D01*
X12681696Y-55264464D01*
X12654910Y-55335892D01*
X12668303Y-55443035D01*
X12712946Y-55514464D01*
X12753125Y-55550178D01*
X12829017Y-55585892D01*
X13114732Y-55585892D01*
X12418303Y-55728750D02*
X12061160Y-55728750D01*
X12516517Y-55943035D02*
X12172767Y-55193035D01*
X12016517Y-55943035D01*
D12*
X25849028Y-24281634D02*
X26701344Y-24944546D01*
X26922315Y-25026621D01*
X27136972Y-25013994D01*
X27345316Y-24906666D01*
X27446331Y-24805650D01*
X26076312Y-26074655D02*
X26234148Y-26017834D01*
X26436179Y-25815803D01*
X26480373Y-25670594D01*
X26417239Y-25531698D01*
X25962670Y-25178144D01*
X25798520Y-25140264D01*
X25640684Y-25197085D01*
X25438653Y-25399115D01*
X25394459Y-25544325D01*
X25457594Y-25683220D01*
X25571236Y-25771609D01*
X26189954Y-25354921D01*
X24984085Y-25853684D02*
X24580024Y-26257745D01*
X25628057Y-26623925D02*
X24605277Y-25828430D01*
X24441128Y-25790549D01*
X24283291Y-25847370D01*
X24182276Y-25948386D01*
X24377993Y-26459775D02*
X23973932Y-26863836D01*
X25021965Y-27230017D02*
X23999186Y-26434521D01*
X23835036Y-26396641D01*
X23677200Y-26453462D01*
X23576185Y-26554477D01*
X22888018Y-29161933D02*
X22995347Y-29155620D01*
X23203691Y-29048291D01*
X23304706Y-28947276D01*
X23399408Y-28751559D01*
X23386781Y-28562155D01*
X23323646Y-28423259D01*
X23146870Y-28195975D01*
X22976406Y-28063392D01*
X22698614Y-27937123D01*
X22534465Y-27899243D01*
X22319807Y-27911870D01*
X22111463Y-28019198D01*
X22010448Y-28120214D01*
X21915746Y-28315931D01*
X21922060Y-28410632D01*
X22395569Y-29856413D02*
X22439763Y-29711204D01*
X22433449Y-29616502D01*
X22370315Y-29477606D01*
X22029388Y-29212441D01*
X21865239Y-29174560D01*
X21757910Y-29180874D01*
X21600074Y-29237695D01*
X21448551Y-29389218D01*
X21404357Y-29534427D01*
X21410670Y-29629129D01*
X21473805Y-29768025D01*
X21814731Y-30033190D01*
X21978881Y-30071071D01*
X22086210Y-30064757D01*
X22244046Y-30007936D01*
X22395569Y-29856413D01*
X21435924Y-30816058D02*
X21480118Y-30670849D01*
X21473805Y-30576147D01*
X21410670Y-30437251D01*
X21069744Y-30172086D01*
X20905594Y-30134205D01*
X20798265Y-30140519D01*
X20640429Y-30197340D01*
X20488906Y-30348863D01*
X20444712Y-30494072D01*
X20451025Y-30588774D01*
X20514160Y-30727670D01*
X20855086Y-30992835D01*
X21019236Y-31030716D01*
X21126565Y-31024402D01*
X21284401Y-30967581D01*
X21435924Y-30816058D01*
X19832307Y-31005462D02*
X21025549Y-31933539D01*
X19889128Y-31049656D02*
X19731291Y-31106477D01*
X19529261Y-31308507D01*
X19485067Y-31453717D01*
X19491380Y-31548419D01*
X19554515Y-31687315D01*
X19895441Y-31952480D01*
X20059591Y-31990360D01*
X20166920Y-31984047D01*
X20324756Y-31927226D01*
X20526787Y-31725195D01*
X20570981Y-31579986D01*
X19207275Y-32943692D02*
X19365111Y-32886871D01*
X19567142Y-32684840D01*
X19611336Y-32539631D01*
X19548201Y-32400735D01*
X19093633Y-32047182D01*
X18929483Y-32009301D01*
X18771646Y-32066122D01*
X18569616Y-32268152D01*
X18525422Y-32413362D01*
X18588556Y-32552258D01*
X18702198Y-32640646D01*
X19320917Y-32223958D01*
X18759020Y-33492962D02*
X17963524Y-32874244D01*
X18190809Y-33051021D02*
X18026659Y-33013140D01*
X17919330Y-33019453D01*
X17761494Y-33076274D01*
X17660479Y-33177290D01*
X32752663Y-21500431D02*
X33775442Y-22295927D01*
X33939592Y-22333807D01*
X34097428Y-22276986D01*
X34147936Y-22226479D01*
X32354915Y-21191072D02*
X32462244Y-21184759D01*
X32468557Y-21279461D01*
X32361229Y-21285774D01*
X32354915Y-21191072D01*
X32468557Y-21279461D01*
X32582200Y-22984093D02*
X32740036Y-22927272D01*
X32942066Y-22725241D01*
X32986261Y-22580032D01*
X32923126Y-22441136D01*
X32468557Y-22087583D01*
X32304408Y-22049702D01*
X32146571Y-22106523D01*
X31944541Y-22308554D01*
X31900347Y-22453763D01*
X31963481Y-22592659D01*
X32077123Y-22681047D01*
X32695842Y-22264359D01*
X31489972Y-22763122D02*
X31085911Y-23167183D01*
X32133944Y-23533363D02*
X31111165Y-22737868D01*
X30947015Y-22699988D01*
X30789179Y-22756809D01*
X30688164Y-22857824D01*
X30883881Y-23369214D02*
X30479820Y-23773275D01*
X31527853Y-24139455D02*
X30505073Y-23343960D01*
X30340924Y-23306079D01*
X30183087Y-23362900D01*
X30082072Y-23463915D01*
X29696951Y-24960204D02*
X29690638Y-24865502D01*
X29734832Y-24720293D01*
X29835847Y-24619277D01*
X29993684Y-24562456D01*
X30101012Y-24556143D01*
X30265162Y-24594024D01*
X30378804Y-24682412D01*
X30441939Y-24821308D01*
X30448252Y-24916010D01*
X30404058Y-25061219D01*
X30303043Y-25162234D01*
X30145207Y-25219056D01*
X30037878Y-25225369D01*
X29583309Y-24871816D02*
X30037878Y-25225369D01*
X30044191Y-25320071D01*
X29993684Y-25370578D01*
X29835847Y-25427399D01*
X29671698Y-25389519D01*
X29387592Y-25168548D01*
X29318144Y-24934950D01*
X29356025Y-24695039D01*
X29501234Y-24448814D01*
X29760086Y-24290978D01*
X30025251Y-24227843D01*
X30296730Y-24259411D01*
X30574521Y-24385680D01*
X30751298Y-24612964D01*
X30820746Y-24846562D01*
X30782865Y-25086473D01*
X30637656Y-25332698D01*
X30378804Y-25490534D01*
X30113639Y-25553669D01*
X28914083Y-25339011D02*
X28510022Y-25743072D01*
X28364813Y-25181175D02*
X29387592Y-25976670D01*
X29450727Y-26115566D01*
X29406533Y-26260775D01*
X29305517Y-26361791D01*
X28951964Y-26715344D02*
X27758721Y-25787266D01*
X28497395Y-27169913D02*
X27872363Y-26683777D01*
X27809229Y-26544881D01*
X27853423Y-26399671D01*
X28004946Y-26248148D01*
X28162782Y-26191327D01*
X28270111Y-26185014D01*
X27531437Y-28034856D02*
X27689273Y-27978035D01*
X27891304Y-27776004D01*
X27935498Y-27630795D01*
X27872363Y-27491899D01*
X27417795Y-27138345D01*
X27253645Y-27100465D01*
X27095809Y-27157286D01*
X26893778Y-27359316D01*
X26849584Y-27504526D01*
X26912718Y-27643422D01*
X27026361Y-27731810D01*
X27645079Y-27315122D01*
X26287687Y-27965408D02*
X27310466Y-28760903D01*
X27474616Y-28798784D01*
X27632452Y-28741963D01*
X27682960Y-28691455D01*
X25889939Y-27656049D02*
X25997268Y-27649735D01*
X26003581Y-27744437D01*
X25896252Y-27750750D01*
X25889939Y-27656049D01*
X26003581Y-27744437D01*
X26117223Y-29449069D02*
X26275060Y-29392248D01*
X26477090Y-29190218D01*
X26521284Y-29045008D01*
X26458150Y-28906112D01*
X26003581Y-28552559D01*
X25839431Y-28514678D01*
X25681595Y-28571499D01*
X25479565Y-28773530D01*
X25435370Y-28918739D01*
X25498505Y-29057635D01*
X25612147Y-29146024D01*
X26230866Y-28729336D01*
X25024996Y-29228098D02*
X24620935Y-29632159D01*
X25668968Y-29998340D02*
X24646189Y-29202845D01*
X24482039Y-29164964D01*
X24324203Y-29221785D01*
X24223187Y-29322800D01*
X24418904Y-29834190D02*
X24014843Y-30238251D01*
X25062877Y-30604431D02*
X24040097Y-29808936D01*
X23875947Y-29771055D01*
X23718111Y-29827877D01*
X23617096Y-29928892D01*
X23945395Y-31620897D02*
X24103232Y-31564076D01*
X24305262Y-31362046D01*
X24349456Y-31216836D01*
X24343143Y-31122134D01*
X24280008Y-30983238D01*
X23939082Y-30718073D01*
X23774932Y-30680193D01*
X23667603Y-30686506D01*
X23509767Y-30743327D01*
X23307737Y-30945358D01*
X23263542Y-31090567D01*
X23396125Y-32271183D02*
X23440319Y-32125974D01*
X23434006Y-32031272D01*
X23370871Y-31892376D01*
X23029945Y-31627211D01*
X22865795Y-31589330D01*
X22758466Y-31595643D01*
X22600630Y-31652465D01*
X22449107Y-31803987D01*
X22404913Y-31949197D01*
X22411226Y-32043899D01*
X22474361Y-32182795D01*
X22815287Y-32447960D01*
X22979437Y-32485840D01*
X23086766Y-32479527D01*
X23244602Y-32422706D01*
X23396125Y-32271183D01*
X22436480Y-33230828D02*
X22480674Y-33085618D01*
X22474361Y-32990917D01*
X22411226Y-32852021D01*
X22070300Y-32586856D01*
X21906150Y-32548975D01*
X21798821Y-32555288D01*
X21640985Y-32612109D01*
X21489462Y-32763632D01*
X21445268Y-32908842D01*
X21451581Y-33003544D01*
X21514716Y-33142440D01*
X21855642Y-33407605D01*
X22019792Y-33445485D01*
X22127121Y-33439172D01*
X22284957Y-33382351D01*
X22436480Y-33230828D01*
X20832863Y-33420231D02*
X22026106Y-34348309D01*
X20889684Y-33464426D02*
X20731848Y-33521247D01*
X20529817Y-33723277D01*
X20485623Y-33868487D01*
X20491936Y-33963188D01*
X20555071Y-34102084D01*
X20895997Y-34367250D01*
X21060147Y-34405130D01*
X21167476Y-34398817D01*
X21325312Y-34341996D01*
X21527343Y-34139965D01*
X21571537Y-33994756D01*
X20207831Y-35358462D02*
X20365667Y-35301641D01*
X20567698Y-35099610D01*
X20611892Y-34954401D01*
X20548757Y-34815505D01*
X20094189Y-34461951D01*
X19930039Y-34424071D01*
X19772203Y-34480892D01*
X19570172Y-34682922D01*
X19525978Y-34828132D01*
X19589113Y-34967028D01*
X19702755Y-35055416D01*
X20321473Y-34638728D01*
X19759576Y-35907732D02*
X18964081Y-35289014D01*
X19191365Y-35465790D02*
X19027215Y-35427910D01*
X18919886Y-35434223D01*
X18762050Y-35491044D01*
X18661035Y-35592059D01*
X18989334Y-36475943D02*
X18995648Y-36570645D01*
X19102977Y-36564331D01*
X19096663Y-36469629D01*
X18989334Y-36475943D01*
X19102977Y-36564331D01*
X18086511Y-37479782D02*
X18244347Y-37422961D01*
X18446377Y-37220930D01*
X18490572Y-37075721D01*
X18484258Y-36981019D01*
X18421124Y-36842123D01*
X18080197Y-36576958D01*
X17916047Y-36539077D01*
X17808719Y-36545391D01*
X17650882Y-36602212D01*
X17448852Y-36804243D01*
X17404658Y-36949452D01*
X17537240Y-38130068D02*
X17581434Y-37984858D01*
X17575121Y-37890157D01*
X17511986Y-37751261D01*
X17171060Y-37486095D01*
X17006910Y-37448215D01*
X16899581Y-37454528D01*
X16741745Y-37511349D01*
X16590222Y-37662872D01*
X16546028Y-37808082D01*
X16552341Y-37902783D01*
X16615476Y-38041679D01*
X16956402Y-38306844D01*
X17120552Y-38344725D01*
X17227881Y-38338412D01*
X17385717Y-38281591D01*
X17537240Y-38130068D01*
X16729118Y-38938190D02*
X15933623Y-38319471D01*
X16047265Y-38407860D02*
X15939936Y-38414173D01*
X15782100Y-38470994D01*
X15630577Y-38622517D01*
X15586383Y-38767727D01*
X15649518Y-38906623D01*
X16274550Y-39392758D01*
X15649518Y-38906623D02*
X15485368Y-38868742D01*
X15327531Y-38925563D01*
X15176009Y-39077086D01*
X15131814Y-39222295D01*
X15194949Y-39361191D01*
X15819981Y-39847327D01*
D10*
X36452380Y-16964285D02*
X36380952Y-16988095D01*
X36357142Y-17011904D01*
X36333333Y-17059523D01*
X36333333Y-17130952D01*
X36357142Y-17178571D01*
X36380952Y-17202380D01*
X36428571Y-17226190D01*
X36619047Y-17226190D01*
X36619047Y-16726190D01*
X36452380Y-16726190D01*
X36404761Y-16750000D01*
X36380952Y-16773809D01*
X36357142Y-16821428D01*
X36357142Y-16869047D01*
X36380952Y-16916666D01*
X36404761Y-16940476D01*
X36452380Y-16964285D01*
X36619047Y-16964285D01*
X35904761Y-17226190D02*
X35904761Y-16964285D01*
X35928571Y-16916666D01*
X35976190Y-16892857D01*
X36071428Y-16892857D01*
X36119047Y-16916666D01*
X35904761Y-17202380D02*
X35952380Y-17226190D01*
X36071428Y-17226190D01*
X36119047Y-17202380D01*
X36142857Y-17154761D01*
X36142857Y-17107142D01*
X36119047Y-17059523D01*
X36071428Y-17035714D01*
X35952380Y-17035714D01*
X35904761Y-17011904D01*
X35452380Y-17202380D02*
X35500000Y-17226190D01*
X35595238Y-17226190D01*
X35642857Y-17202380D01*
X35666666Y-17178571D01*
X35690476Y-17130952D01*
X35690476Y-16988095D01*
X35666666Y-16940476D01*
X35642857Y-16916666D01*
X35595238Y-16892857D01*
X35500000Y-16892857D01*
X35452380Y-16916666D01*
X35238095Y-17226190D02*
X35238095Y-16726190D01*
X35190476Y-17035714D02*
X35047619Y-17226190D01*
X35047619Y-16892857D02*
X35238095Y-17083333D01*
X34761904Y-17226190D02*
X34809523Y-17202380D01*
X34833333Y-17154761D01*
X34833333Y-16726190D01*
X34571428Y-17226190D02*
X34571428Y-16892857D01*
X34571428Y-16726190D02*
X34595238Y-16750000D01*
X34571428Y-16773809D01*
X34547619Y-16750000D01*
X34571428Y-16726190D01*
X34571428Y-16773809D01*
X34119047Y-16892857D02*
X34119047Y-17297619D01*
X34142857Y-17345238D01*
X34166666Y-17369047D01*
X34214285Y-17392857D01*
X34285714Y-17392857D01*
X34333333Y-17369047D01*
X34119047Y-17202380D02*
X34166666Y-17226190D01*
X34261904Y-17226190D01*
X34309523Y-17202380D01*
X34333333Y-17178571D01*
X34357142Y-17130952D01*
X34357142Y-16988095D01*
X34333333Y-16940476D01*
X34309523Y-16916666D01*
X34261904Y-16892857D01*
X34166666Y-16892857D01*
X34119047Y-16916666D01*
X33880952Y-17226190D02*
X33880952Y-16726190D01*
X33666666Y-17226190D02*
X33666666Y-16964285D01*
X33690476Y-16916666D01*
X33738095Y-16892857D01*
X33809523Y-16892857D01*
X33857142Y-16916666D01*
X33880952Y-16940476D01*
X33500000Y-16892857D02*
X33309523Y-16892857D01*
X33428571Y-16726190D02*
X33428571Y-17154761D01*
X33404761Y-17202380D01*
X33357142Y-17226190D01*
X33309523Y-17226190D01*
D13*
X33619047Y-15678571D02*
X34380952Y-15678571D01*
X34000000Y-15297619D02*
X34000000Y-16059523D01*
X35619047Y-15678571D02*
X36380952Y-15678571D01*
D10*
X18309523Y-44952380D02*
X18238095Y-44976190D01*
X18119047Y-44976190D01*
X18071428Y-44952380D01*
X18047619Y-44928571D01*
X18023809Y-44880952D01*
X18023809Y-44833333D01*
X18047619Y-44785714D01*
X18071428Y-44761904D01*
X18119047Y-44738095D01*
X18214285Y-44714285D01*
X18261904Y-44690476D01*
X18285714Y-44666666D01*
X18309523Y-44619047D01*
X18309523Y-44571428D01*
X18285714Y-44523809D01*
X18261904Y-44500000D01*
X18214285Y-44476190D01*
X18095238Y-44476190D01*
X18023809Y-44500000D01*
X17857142Y-44476190D02*
X17738095Y-44976190D01*
X17642857Y-44619047D01*
X17547619Y-44976190D01*
X17428571Y-44476190D01*
X17238095Y-44976190D02*
X17238095Y-44476190D01*
X17119047Y-44476190D01*
X17047619Y-44500000D01*
X17000000Y-44547619D01*
X16976190Y-44595238D01*
X16952380Y-44690476D01*
X16952380Y-44761904D01*
X16976190Y-44857142D01*
X17000000Y-44904761D01*
X17047619Y-44952380D01*
X17119047Y-44976190D01*
X17238095Y-44976190D01*
X16738095Y-44976190D02*
X16738095Y-44476190D01*
X16404761Y-44476190D02*
X16309523Y-44476190D01*
X16261904Y-44500000D01*
X16214285Y-44547619D01*
X16190476Y-44642857D01*
X16190476Y-44809523D01*
X16214285Y-44904761D01*
X16261904Y-44952380D01*
X16309523Y-44976190D01*
X16404761Y-44976190D01*
X16452380Y-44952380D01*
X16500000Y-44904761D01*
X16523809Y-44809523D01*
X16523809Y-44642857D01*
X16500000Y-44547619D01*
X16452380Y-44500000D01*
X16404761Y-44476190D01*
X16880952Y-49202380D02*
X16809523Y-49226190D01*
X16690476Y-49226190D01*
X16642857Y-49202380D01*
X16619047Y-49178571D01*
X16595238Y-49130952D01*
X16595238Y-49083333D01*
X16619047Y-49035714D01*
X16642857Y-49011904D01*
X16690476Y-48988095D01*
X16785714Y-48964285D01*
X16833333Y-48940476D01*
X16857142Y-48916666D01*
X16880952Y-48869047D01*
X16880952Y-48821428D01*
X16857142Y-48773809D01*
X16833333Y-48750000D01*
X16785714Y-48726190D01*
X16666666Y-48726190D01*
X16595238Y-48750000D01*
X16428571Y-48726190D02*
X16309523Y-49226190D01*
X16214285Y-48869047D01*
X16119047Y-49226190D01*
X16000000Y-48726190D01*
X15809523Y-49226190D02*
X15809523Y-48726190D01*
X15690476Y-48726190D01*
X15619047Y-48750000D01*
X15571428Y-48797619D01*
X15547619Y-48845238D01*
X15523809Y-48940476D01*
X15523809Y-49011904D01*
X15547619Y-49107142D01*
X15571428Y-49154761D01*
X15619047Y-49202380D01*
X15690476Y-49226190D01*
X15809523Y-49226190D01*
X15023809Y-49178571D02*
X15047619Y-49202380D01*
X15119047Y-49226190D01*
X15166666Y-49226190D01*
X15238095Y-49202380D01*
X15285714Y-49154761D01*
X15309523Y-49107142D01*
X15333333Y-49011904D01*
X15333333Y-48940476D01*
X15309523Y-48845238D01*
X15285714Y-48797619D01*
X15238095Y-48750000D01*
X15166666Y-48726190D01*
X15119047Y-48726190D01*
X15047619Y-48750000D01*
X15023809Y-48773809D01*
X14571428Y-49226190D02*
X14809523Y-49226190D01*
X14809523Y-48726190D01*
X14404761Y-49226190D02*
X14404761Y-48726190D01*
X14119047Y-49226190D02*
X14333333Y-48940476D01*
X14119047Y-48726190D02*
X14404761Y-49011904D01*
X12880952Y-49750000D02*
X12928571Y-49726190D01*
X13000000Y-49726190D01*
X13071428Y-49750000D01*
X13119047Y-49797619D01*
X13142857Y-49845238D01*
X13166666Y-49940476D01*
X13166666Y-50011904D01*
X13142857Y-50107142D01*
X13119047Y-50154761D01*
X13071428Y-50202380D01*
X13000000Y-50226190D01*
X12952380Y-50226190D01*
X12880952Y-50202380D01*
X12857142Y-50178571D01*
X12857142Y-50011904D01*
X12952380Y-50011904D01*
X12642857Y-50226190D02*
X12642857Y-49726190D01*
X12357142Y-50226190D01*
X12357142Y-49726190D01*
X12119047Y-50226190D02*
X12119047Y-49726190D01*
X12000000Y-49726190D01*
X11928571Y-49750000D01*
X11880952Y-49797619D01*
X11857142Y-49845238D01*
X11833333Y-49940476D01*
X11833333Y-50011904D01*
X11857142Y-50107142D01*
X11880952Y-50154761D01*
X11928571Y-50202380D01*
X12000000Y-50226190D01*
X12119047Y-50226190D01*
X14000000Y-44285714D02*
X13619047Y-44285714D01*
X13809523Y-44476190D02*
X13809523Y-44095238D01*
X13404761Y-44023809D02*
X13380952Y-44000000D01*
X13333333Y-43976190D01*
X13214285Y-43976190D01*
X13166666Y-44000000D01*
X13142857Y-44023809D01*
X13119047Y-44071428D01*
X13119047Y-44119047D01*
X13142857Y-44190476D01*
X13428571Y-44476190D01*
X13119047Y-44476190D01*
X12904761Y-44428571D02*
X12880952Y-44452380D01*
X12904761Y-44476190D01*
X12928571Y-44452380D01*
X12904761Y-44428571D01*
X12904761Y-44476190D01*
X12595238Y-44190476D02*
X12642857Y-44166666D01*
X12666666Y-44142857D01*
X12690476Y-44095238D01*
X12690476Y-44071428D01*
X12666666Y-44023809D01*
X12642857Y-44000000D01*
X12595238Y-43976190D01*
X12500000Y-43976190D01*
X12452380Y-44000000D01*
X12428571Y-44023809D01*
X12404761Y-44071428D01*
X12404761Y-44095238D01*
X12428571Y-44142857D01*
X12452380Y-44166666D01*
X12500000Y-44190476D01*
X12595238Y-44190476D01*
X12642857Y-44214285D01*
X12666666Y-44238095D01*
X12690476Y-44285714D01*
X12690476Y-44380952D01*
X12666666Y-44428571D01*
X12642857Y-44452380D01*
X12595238Y-44476190D01*
X12500000Y-44476190D01*
X12452380Y-44452380D01*
X12428571Y-44428571D01*
X12404761Y-44380952D01*
X12404761Y-44285714D01*
X12428571Y-44238095D01*
X12452380Y-44214285D01*
X12500000Y-44190476D01*
X12261904Y-43976190D02*
X12095238Y-44476190D01*
X11928571Y-43976190D01*
D13*
X14428571Y-27380952D02*
X14428571Y-26619047D01*
D10*
X15714285Y-25940476D02*
X15714285Y-25773809D01*
X15976190Y-25773809D02*
X15476190Y-25773809D01*
X15476190Y-26011904D01*
X15976190Y-26273809D02*
X15952380Y-26226190D01*
X15904761Y-26202380D01*
X15476190Y-26202380D01*
X15976190Y-26678571D02*
X15714285Y-26678571D01*
X15666666Y-26654761D01*
X15642857Y-26607142D01*
X15642857Y-26511904D01*
X15666666Y-26464285D01*
X15952380Y-26678571D02*
X15976190Y-26630952D01*
X15976190Y-26511904D01*
X15952380Y-26464285D01*
X15904761Y-26440476D01*
X15857142Y-26440476D01*
X15809523Y-26464285D01*
X15785714Y-26511904D01*
X15785714Y-26630952D01*
X15761904Y-26678571D01*
X15952380Y-26892857D02*
X15976190Y-26940476D01*
X15976190Y-27035714D01*
X15952380Y-27083333D01*
X15904761Y-27107142D01*
X15880952Y-27107142D01*
X15833333Y-27083333D01*
X15809523Y-27035714D01*
X15809523Y-26964285D01*
X15785714Y-26916666D01*
X15738095Y-26892857D01*
X15714285Y-26892857D01*
X15666666Y-26916666D01*
X15642857Y-26964285D01*
X15642857Y-27035714D01*
X15666666Y-27083333D01*
X15976190Y-27321428D02*
X15476190Y-27321428D01*
X15976190Y-27535714D02*
X15714285Y-27535714D01*
X15666666Y-27511904D01*
X15642857Y-27464285D01*
X15642857Y-27392857D01*
X15666666Y-27345238D01*
X15690476Y-27321428D01*
X15976190Y-27845238D02*
X15952380Y-27797619D01*
X15904761Y-27773809D01*
X15476190Y-27773809D01*
X15976190Y-28035714D02*
X15642857Y-28035714D01*
X15476190Y-28035714D02*
X15500000Y-28011904D01*
X15523809Y-28035714D01*
X15500000Y-28059523D01*
X15476190Y-28035714D01*
X15523809Y-28035714D01*
X15642857Y-28488095D02*
X16047619Y-28488095D01*
X16095238Y-28464285D01*
X16119047Y-28440476D01*
X16142857Y-28392857D01*
X16142857Y-28321428D01*
X16119047Y-28273809D01*
X15952380Y-28488095D02*
X15976190Y-28440476D01*
X15976190Y-28345238D01*
X15952380Y-28297619D01*
X15928571Y-28273809D01*
X15880952Y-28250000D01*
X15738095Y-28250000D01*
X15690476Y-28273809D01*
X15666666Y-28297619D01*
X15642857Y-28345238D01*
X15642857Y-28440476D01*
X15666666Y-28488095D01*
X15976190Y-28726190D02*
X15476190Y-28726190D01*
X15976190Y-28940476D02*
X15714285Y-28940476D01*
X15666666Y-28916666D01*
X15642857Y-28869047D01*
X15642857Y-28797619D01*
X15666666Y-28750000D01*
X15690476Y-28726190D01*
X15642857Y-29107142D02*
X15642857Y-29297619D01*
X15476190Y-29178571D02*
X15904761Y-29178571D01*
X15952380Y-29202380D01*
X15976190Y-29250000D01*
X15976190Y-29297619D01*
D13*
X14119047Y-29178571D02*
X14880952Y-29178571D01*
X14500000Y-28797619D02*
X14500000Y-29559523D01*
X12869047Y-18928571D02*
X13630952Y-18928571D01*
X13250000Y-18547619D02*
X13250000Y-19309523D01*
X14869047Y-18928571D02*
X15630952Y-18928571D01*
D10*
%TO.C,SW_BOOT1*%
X32321428Y-46702380D02*
X32250000Y-46726190D01*
X32130952Y-46726190D01*
X32083333Y-46702380D01*
X32059523Y-46678571D01*
X32035714Y-46630952D01*
X32035714Y-46583333D01*
X32059523Y-46535714D01*
X32083333Y-46511904D01*
X32130952Y-46488095D01*
X32226190Y-46464285D01*
X32273809Y-46440476D01*
X32297619Y-46416666D01*
X32321428Y-46369047D01*
X32321428Y-46321428D01*
X32297619Y-46273809D01*
X32273809Y-46250000D01*
X32226190Y-46226190D01*
X32107142Y-46226190D01*
X32035714Y-46250000D01*
X31869047Y-46226190D02*
X31750000Y-46726190D01*
X31654761Y-46369047D01*
X31559523Y-46726190D01*
X31440476Y-46226190D01*
X31369047Y-46773809D02*
X30988095Y-46773809D01*
X30702380Y-46464285D02*
X30630952Y-46488095D01*
X30607142Y-46511904D01*
X30583333Y-46559523D01*
X30583333Y-46630952D01*
X30607142Y-46678571D01*
X30630952Y-46702380D01*
X30678571Y-46726190D01*
X30869047Y-46726190D01*
X30869047Y-46226190D01*
X30702380Y-46226190D01*
X30654761Y-46250000D01*
X30630952Y-46273809D01*
X30607142Y-46321428D01*
X30607142Y-46369047D01*
X30630952Y-46416666D01*
X30654761Y-46440476D01*
X30702380Y-46464285D01*
X30869047Y-46464285D01*
X30273809Y-46226190D02*
X30178571Y-46226190D01*
X30130952Y-46250000D01*
X30083333Y-46297619D01*
X30059523Y-46392857D01*
X30059523Y-46559523D01*
X30083333Y-46654761D01*
X30130952Y-46702380D01*
X30178571Y-46726190D01*
X30273809Y-46726190D01*
X30321428Y-46702380D01*
X30369047Y-46654761D01*
X30392857Y-46559523D01*
X30392857Y-46392857D01*
X30369047Y-46297619D01*
X30321428Y-46250000D01*
X30273809Y-46226190D01*
X29750000Y-46226190D02*
X29654761Y-46226190D01*
X29607142Y-46250000D01*
X29559523Y-46297619D01*
X29535714Y-46392857D01*
X29535714Y-46559523D01*
X29559523Y-46654761D01*
X29607142Y-46702380D01*
X29654761Y-46726190D01*
X29750000Y-46726190D01*
X29797619Y-46702380D01*
X29845238Y-46654761D01*
X29869047Y-46559523D01*
X29869047Y-46392857D01*
X29845238Y-46297619D01*
X29797619Y-46250000D01*
X29750000Y-46226190D01*
X29392857Y-46226190D02*
X29107142Y-46226190D01*
X29250000Y-46726190D02*
X29250000Y-46226190D01*
X28678571Y-46726190D02*
X28964285Y-46726190D01*
X28821428Y-46726190D02*
X28821428Y-46226190D01*
X28869047Y-46297619D01*
X28916666Y-46345238D01*
X28964285Y-46369047D01*
%TO.C,SW_RESET1*%
X30488095Y-40702380D02*
X30416666Y-40726190D01*
X30297619Y-40726190D01*
X30250000Y-40702380D01*
X30226190Y-40678571D01*
X30202380Y-40630952D01*
X30202380Y-40583333D01*
X30226190Y-40535714D01*
X30250000Y-40511904D01*
X30297619Y-40488095D01*
X30392857Y-40464285D01*
X30440476Y-40440476D01*
X30464285Y-40416666D01*
X30488095Y-40369047D01*
X30488095Y-40321428D01*
X30464285Y-40273809D01*
X30440476Y-40250000D01*
X30392857Y-40226190D01*
X30273809Y-40226190D01*
X30202380Y-40250000D01*
X30035714Y-40226190D02*
X29916666Y-40726190D01*
X29821428Y-40369047D01*
X29726190Y-40726190D01*
X29607142Y-40226190D01*
X29535714Y-40773809D02*
X29154761Y-40773809D01*
X28750000Y-40726190D02*
X28916666Y-40488095D01*
X29035714Y-40726190D02*
X29035714Y-40226190D01*
X28845238Y-40226190D01*
X28797619Y-40250000D01*
X28773809Y-40273809D01*
X28750000Y-40321428D01*
X28750000Y-40392857D01*
X28773809Y-40440476D01*
X28797619Y-40464285D01*
X28845238Y-40488095D01*
X29035714Y-40488095D01*
X28535714Y-40464285D02*
X28369047Y-40464285D01*
X28297619Y-40726190D02*
X28535714Y-40726190D01*
X28535714Y-40226190D01*
X28297619Y-40226190D01*
X28107142Y-40702380D02*
X28035714Y-40726190D01*
X27916666Y-40726190D01*
X27869047Y-40702380D01*
X27845238Y-40678571D01*
X27821428Y-40630952D01*
X27821428Y-40583333D01*
X27845238Y-40535714D01*
X27869047Y-40511904D01*
X27916666Y-40488095D01*
X28011904Y-40464285D01*
X28059523Y-40440476D01*
X28083333Y-40416666D01*
X28107142Y-40369047D01*
X28107142Y-40321428D01*
X28083333Y-40273809D01*
X28059523Y-40250000D01*
X28011904Y-40226190D01*
X27892857Y-40226190D01*
X27821428Y-40250000D01*
X27607142Y-40464285D02*
X27440476Y-40464285D01*
X27369047Y-40726190D02*
X27607142Y-40726190D01*
X27607142Y-40226190D01*
X27369047Y-40226190D01*
X27226190Y-40226190D02*
X26940476Y-40226190D01*
X27083333Y-40726190D02*
X27083333Y-40226190D01*
X26511904Y-40726190D02*
X26797619Y-40726190D01*
X26654761Y-40726190D02*
X26654761Y-40226190D01*
X26702380Y-40297619D01*
X26750000Y-40345238D01*
X26797619Y-40369047D01*
%TO.C,R8*%
X21166666Y-64726190D02*
X20857142Y-64726190D01*
X21023809Y-64916666D01*
X20952380Y-64916666D01*
X20904761Y-64940476D01*
X20880952Y-64964285D01*
X20857142Y-65011904D01*
X20857142Y-65130952D01*
X20880952Y-65178571D01*
X20904761Y-65202380D01*
X20952380Y-65226190D01*
X21095238Y-65226190D01*
X21142857Y-65202380D01*
X21166666Y-65178571D01*
%TO.C,R7*%
X19797619Y-65226190D02*
X20083333Y-65226190D01*
X19940476Y-65226190D02*
X19940476Y-64726190D01*
X19988095Y-64797619D01*
X20035714Y-64845238D01*
X20083333Y-64869047D01*
X19488095Y-64726190D02*
X19440476Y-64726190D01*
X19392857Y-64750000D01*
X19369047Y-64773809D01*
X19345238Y-64821428D01*
X19321428Y-64916666D01*
X19321428Y-65035714D01*
X19345238Y-65130952D01*
X19369047Y-65178571D01*
X19392857Y-65202380D01*
X19440476Y-65226190D01*
X19488095Y-65226190D01*
X19535714Y-65202380D01*
X19559523Y-65178571D01*
X19583333Y-65130952D01*
X19607142Y-65035714D01*
X19607142Y-64916666D01*
X19583333Y-64821428D01*
X19559523Y-64773809D01*
X19535714Y-64750000D01*
X19488095Y-64726190D01*
X19107142Y-65226190D02*
X19107142Y-64726190D01*
X19059523Y-65035714D02*
X18916666Y-65226190D01*
X18916666Y-64892857D02*
X19107142Y-65083333D01*
%TO.C,R6*%
X21547619Y-42726190D02*
X21833333Y-42726190D01*
X21690476Y-42726190D02*
X21690476Y-42226190D01*
X21738095Y-42297619D01*
X21785714Y-42345238D01*
X21833333Y-42369047D01*
X21238095Y-42226190D02*
X21190476Y-42226190D01*
X21142857Y-42250000D01*
X21119047Y-42273809D01*
X21095238Y-42321428D01*
X21071428Y-42416666D01*
X21071428Y-42535714D01*
X21095238Y-42630952D01*
X21119047Y-42678571D01*
X21142857Y-42702380D01*
X21190476Y-42726190D01*
X21238095Y-42726190D01*
X21285714Y-42702380D01*
X21309523Y-42678571D01*
X21333333Y-42630952D01*
X21357142Y-42535714D01*
X21357142Y-42416666D01*
X21333333Y-42321428D01*
X21309523Y-42273809D01*
X21285714Y-42250000D01*
X21238095Y-42226190D01*
X20857142Y-42726190D02*
X20857142Y-42226190D01*
X20809523Y-42535714D02*
X20666666Y-42726190D01*
X20666666Y-42392857D02*
X20857142Y-42583333D01*
%TO.C,D3*%
X16476190Y-60130952D02*
X15976190Y-60130952D01*
X15976190Y-60250000D01*
X16000000Y-60321428D01*
X16047619Y-60369047D01*
X16095238Y-60392857D01*
X16190476Y-60416666D01*
X16261904Y-60416666D01*
X16357142Y-60392857D01*
X16404761Y-60369047D01*
X16452380Y-60321428D01*
X16476190Y-60250000D01*
X16476190Y-60130952D01*
X15976190Y-60583333D02*
X15976190Y-60892857D01*
X16166666Y-60726190D01*
X16166666Y-60797619D01*
X16190476Y-60845238D01*
X16214285Y-60869047D01*
X16261904Y-60892857D01*
X16380952Y-60892857D01*
X16428571Y-60869047D01*
X16452380Y-60845238D01*
X16476190Y-60797619D01*
X16476190Y-60654761D01*
X16452380Y-60607142D01*
X16428571Y-60583333D01*
%TO.C,D1*%
X20869047Y-20726190D02*
X20869047Y-20226190D01*
X20750000Y-20226190D01*
X20678571Y-20250000D01*
X20630952Y-20297619D01*
X20607142Y-20345238D01*
X20583333Y-20440476D01*
X20583333Y-20511904D01*
X20607142Y-20607142D01*
X20630952Y-20654761D01*
X20678571Y-20702380D01*
X20750000Y-20726190D01*
X20869047Y-20726190D01*
X20107142Y-20726190D02*
X20392857Y-20726190D01*
X20250000Y-20726190D02*
X20250000Y-20226190D01*
X20297619Y-20297619D01*
X20345238Y-20345238D01*
X20392857Y-20369047D01*
%TO.C,C20*%
X14952380Y-24392857D02*
X14952380Y-24726190D01*
X15071428Y-24202380D02*
X15190476Y-24559523D01*
X14880952Y-24559523D01*
X14690476Y-24678571D02*
X14666666Y-24702380D01*
X14690476Y-24726190D01*
X14714285Y-24702380D01*
X14690476Y-24678571D01*
X14690476Y-24726190D01*
X14500000Y-24226190D02*
X14166666Y-24226190D01*
X14380952Y-24726190D01*
X13761904Y-24392857D02*
X13761904Y-24726190D01*
X13976190Y-24392857D02*
X13976190Y-24654761D01*
X13952380Y-24702380D01*
X13904761Y-24726190D01*
X13833333Y-24726190D01*
X13785714Y-24702380D01*
X13761904Y-24678571D01*
X13357142Y-24464285D02*
X13523809Y-24464285D01*
X13523809Y-24726190D02*
X13523809Y-24226190D01*
X13285714Y-24226190D01*
%TO.C,C15*%
X26297619Y-65226190D02*
X26583333Y-65226190D01*
X26440476Y-65226190D02*
X26440476Y-64726190D01*
X26488095Y-64797619D01*
X26535714Y-64845238D01*
X26583333Y-64869047D01*
X25869047Y-64892857D02*
X25869047Y-65226190D01*
X26083333Y-64892857D02*
X26083333Y-65154761D01*
X26059523Y-65202380D01*
X26011904Y-65226190D01*
X25940476Y-65226190D01*
X25892857Y-65202380D01*
X25869047Y-65178571D01*
X25464285Y-64964285D02*
X25630952Y-64964285D01*
X25630952Y-65226190D02*
X25630952Y-64726190D01*
X25392857Y-64726190D01*
%TO.C,C12*%
X30797619Y-65226190D02*
X31083333Y-65226190D01*
X30940476Y-65226190D02*
X30940476Y-64726190D01*
X30988095Y-64797619D01*
X31035714Y-64845238D01*
X31083333Y-64869047D01*
X30369047Y-64892857D02*
X30369047Y-65226190D01*
X30583333Y-64892857D02*
X30583333Y-65154761D01*
X30559523Y-65202380D01*
X30511904Y-65226190D01*
X30440476Y-65226190D01*
X30392857Y-65202380D01*
X30369047Y-65178571D01*
X29964285Y-64964285D02*
X30130952Y-64964285D01*
X30130952Y-65226190D02*
X30130952Y-64726190D01*
X29892857Y-64726190D01*
%TO.C,C11*%
X29297619Y-65226190D02*
X29583333Y-65226190D01*
X29440476Y-65226190D02*
X29440476Y-64726190D01*
X29488095Y-64797619D01*
X29535714Y-64845238D01*
X29583333Y-64869047D01*
X28869047Y-64892857D02*
X28869047Y-65226190D01*
X29083333Y-64892857D02*
X29083333Y-65154761D01*
X29059523Y-65202380D01*
X29011904Y-65226190D01*
X28940476Y-65226190D01*
X28892857Y-65202380D01*
X28869047Y-65178571D01*
X28464285Y-64964285D02*
X28630952Y-64964285D01*
X28630952Y-65226190D02*
X28630952Y-64726190D01*
X28392857Y-64726190D01*
%TO.C,C10*%
X27797619Y-65226190D02*
X28083333Y-65226190D01*
X27940476Y-65226190D02*
X27940476Y-64726190D01*
X27988095Y-64797619D01*
X28035714Y-64845238D01*
X28083333Y-64869047D01*
X27369047Y-64892857D02*
X27369047Y-65226190D01*
X27583333Y-64892857D02*
X27583333Y-65154761D01*
X27559523Y-65202380D01*
X27511904Y-65226190D01*
X27440476Y-65226190D01*
X27392857Y-65202380D01*
X27369047Y-65178571D01*
X26964285Y-64964285D02*
X27130952Y-64964285D01*
X27130952Y-65226190D02*
X27130952Y-64726190D01*
X26892857Y-64726190D01*
%TO.C,C9*%
X24797619Y-65226190D02*
X25083333Y-65226190D01*
X24940476Y-65226190D02*
X24940476Y-64726190D01*
X24988095Y-64797619D01*
X25035714Y-64845238D01*
X25083333Y-64869047D01*
X24369047Y-64892857D02*
X24369047Y-65226190D01*
X24583333Y-64892857D02*
X24583333Y-65154761D01*
X24559523Y-65202380D01*
X24511904Y-65226190D01*
X24440476Y-65226190D01*
X24392857Y-65202380D01*
X24369047Y-65178571D01*
X23964285Y-64964285D02*
X24130952Y-64964285D01*
X24130952Y-65226190D02*
X24130952Y-64726190D01*
X23892857Y-64726190D01*
%TO.C,C6*%
X33962857Y-48422619D02*
X34296190Y-48422619D01*
X33772380Y-48303571D02*
X34129523Y-48184523D01*
X34129523Y-48494047D01*
X34248571Y-48684523D02*
X34272380Y-48708333D01*
X34296190Y-48684523D01*
X34272380Y-48660714D01*
X34248571Y-48684523D01*
X34296190Y-48684523D01*
X33796190Y-48875000D02*
X33796190Y-49208333D01*
X34296190Y-48994047D01*
X33962857Y-49613095D02*
X34296190Y-49613095D01*
X33962857Y-49398809D02*
X34224761Y-49398809D01*
X34272380Y-49422619D01*
X34296190Y-49470238D01*
X34296190Y-49541666D01*
X34272380Y-49589285D01*
X34248571Y-49613095D01*
X34034285Y-50017857D02*
X34034285Y-49851190D01*
X34296190Y-49851190D02*
X33796190Y-49851190D01*
X33796190Y-50089285D01*
D14*
%TO.C,BT1*%
X10890000Y-22610000D02*
X10890000Y-21360000D01*
X12140000Y-22610000D02*
X10890000Y-22610000D01*
X14250000Y-18200000D02*
X14250000Y-18700000D01*
X14350000Y-18700000D02*
X14350000Y-18200000D01*
X14150000Y-18700000D02*
X14350000Y-18700000D01*
X14150000Y-18200000D02*
X14150000Y-18700000D01*
X17310000Y-19700000D02*
X16700000Y-19700000D01*
X17310000Y-21000000D02*
X16700000Y-21000000D01*
X11190000Y-19700000D02*
X11800000Y-19700000D01*
X11190000Y-21000000D02*
X11800000Y-21000000D01*
X14750000Y-21700000D02*
X14750000Y-22310000D01*
X16700000Y-21700000D02*
X14750000Y-21700000D01*
X16700000Y-18200000D02*
X16700000Y-21700000D01*
X11800000Y-18200000D02*
X16700000Y-18200000D01*
X11800000Y-21700000D02*
X11800000Y-18200000D01*
X13750000Y-21700000D02*
X11800000Y-21700000D01*
X13750000Y-22310000D02*
X13750000Y-21700000D01*
X12950000Y-22410000D02*
X12650000Y-22410000D01*
X12650000Y-22510000D02*
X12650000Y-22310000D01*
X12950000Y-22510000D02*
X12650000Y-22510000D01*
X12950000Y-22310000D02*
X12950000Y-22510000D01*
X17310000Y-22310000D02*
X11190000Y-22310000D01*
X17310000Y-17590000D02*
X17310000Y-22310000D01*
X11190000Y-17590000D02*
X17310000Y-17590000D01*
X11190000Y-22310000D02*
X11190000Y-17590000D01*
%TO.C,J2*%
X20530000Y-14920000D02*
X20530000Y-13120000D01*
X20530000Y-9410000D02*
X20530000Y-10870000D01*
X29470000Y-9410000D02*
X29470000Y-10870000D01*
X29470000Y-14920000D02*
X29470000Y-13120000D01*
X29470000Y-9410000D02*
X20530000Y-9410000D01*
%TO.C,TP4*%
X13200000Y-48500000D02*
G75*
G03*
X13200000Y-48500000I-700000J0D01*
G01*
%TO.C,TP3*%
X13700000Y-45750000D02*
G75*
G03*
X13700000Y-45750000I-700000J0D01*
G01*
%TO.C,TP2*%
X16200000Y-47500000D02*
G75*
G03*
X16200000Y-47500000I-700000J0D01*
G01*
%TO.C,TP1*%
X17950000Y-46250000D02*
G75*
G03*
X17950000Y-46250000I-700000J0D01*
G01*
%TO.C,SW_BOOT1*%
X27870000Y-47520000D02*
X27870000Y-47620000D01*
X24630000Y-47520000D02*
X24630000Y-47620000D01*
X27870000Y-47620000D02*
X24630000Y-47620000D01*
X27870000Y-45380000D02*
X27870000Y-45480000D01*
X24630000Y-45380000D02*
X24630000Y-45480000D01*
X27870000Y-45380000D02*
X24630000Y-45380000D01*
%TO.C,SW_RESET1*%
X22630000Y-39480000D02*
X22630000Y-39380000D01*
X25870000Y-39480000D02*
X25870000Y-39380000D01*
X22630000Y-39380000D02*
X25870000Y-39380000D01*
X22630000Y-41620000D02*
X22630000Y-41520000D01*
X25870000Y-41620000D02*
X25870000Y-41520000D01*
X22630000Y-41620000D02*
X25870000Y-41620000D01*
%TO.C,R8*%
X21510000Y-66828733D02*
X21510000Y-67171267D01*
X20490000Y-66828733D02*
X20490000Y-67171267D01*
%TO.C,R7*%
X20010000Y-66828733D02*
X20010000Y-67171267D01*
X18990000Y-66828733D02*
X18990000Y-67171267D01*
%TO.C,R6*%
X23921267Y-43010000D02*
X23578733Y-43010000D01*
X23921267Y-41990000D02*
X23578733Y-41990000D01*
%TO.C,D3*%
X17250000Y-62750000D02*
X17250000Y-58850000D01*
X15250000Y-62750000D02*
X15250000Y-58850000D01*
X17250000Y-62750000D02*
X15250000Y-62750000D01*
%TO.C,D1*%
X18990000Y-21430000D02*
X18990000Y-19000000D01*
X19000000Y-21450000D02*
X20000000Y-21450000D01*
X22050000Y-21450000D02*
X22050000Y-19600000D01*
X21000000Y-21450000D02*
X22050000Y-21450000D01*
%TO.C,C20*%
X14203733Y-22740000D02*
X14546267Y-22740000D01*
X14203733Y-23760000D02*
X14546267Y-23760000D01*
%TO.C,C15*%
X25490000Y-67171267D02*
X25490000Y-66828733D01*
X26510000Y-67171267D02*
X26510000Y-66828733D01*
%TO.C,C12*%
X29990000Y-67171267D02*
X29990000Y-66828733D01*
X31010000Y-67171267D02*
X31010000Y-66828733D01*
%TO.C,C11*%
X28490000Y-67171267D02*
X28490000Y-66828733D01*
X29510000Y-67171267D02*
X29510000Y-66828733D01*
%TO.C,C10*%
X26990000Y-67171267D02*
X26990000Y-66828733D01*
X28010000Y-67171267D02*
X28010000Y-66828733D01*
%TO.C,C9*%
X25010000Y-66828733D02*
X25010000Y-67171267D01*
X23990000Y-66828733D02*
X23990000Y-67171267D01*
%TO.C,C6*%
X34990000Y-49296267D02*
X34990000Y-48953733D01*
X36010000Y-49296267D02*
X36010000Y-48953733D01*
%TD*%
M02*
