%TF.GenerationSoftware,KiCad,Pcbnew,(5.99.0-2309-gaf729d578)*%
%TF.CreationDate,2020-07-18T18:02:02-04:00*%
%TF.ProjectId,mk2,6d6b322e-6b69-4636-9164-5f7063625858,rev?*%
%TF.SameCoordinates,Original*%
%TF.FileFunction,Soldermask,Bot*%
%TF.FilePolarity,Negative*%
%FSLAX46Y46*%
G04 Gerber Fmt 4.6, Leading zero omitted, Abs format (unit mm)*
G04 Created by KiCad (PCBNEW (5.99.0-2309-gaf729d578)) date 2020-07-18 18:02:02*
%MOMM*%
%LPD*%
G01*
G04 APERTURE LIST*
%ADD10O,1.200000X1.750000*%
%ADD11O,0.850000X0.850000*%
%ADD12R,0.850000X0.850000*%
%ADD13R,0.600000X1.160000*%
%ADD14C,0.600000*%
%ADD15R,0.300000X1.160000*%
%ADD16O,0.900000X1.700000*%
%ADD17O,0.900000X2.000000*%
%ADD18C,1.000000*%
%ADD19O,1.700000X1.700000*%
%ADD20R,1.700000X1.700000*%
%ADD21R,0.550000X1.500000*%
%ADD22R,1.200000X0.900000*%
%ADD23R,0.650000X1.220000*%
G04 APERTURE END LIST*
D10*
%TO.C,BT1*%
X15250000Y-20500000D03*
G36*
G01*
X12650000Y-21125000D02*
X12650000Y-19875000D01*
G75*
G02*
X12900000Y-19625000I250000J0D01*
G01*
X13600000Y-19625000D01*
G75*
G02*
X13850000Y-19875000I0J-250000D01*
G01*
X13850000Y-21125000D01*
G75*
G02*
X13600000Y-21375000I-250000J0D01*
G01*
X12900000Y-21375000D01*
G75*
G02*
X12650000Y-21125000I0J250000D01*
G01*
G37*
%TD*%
D11*
%TO.C,J3*%
X38250000Y-51750000D03*
D12*
X38250000Y-52750000D03*
%TD*%
D13*
%TO.C,J2*%
X28200000Y-16760000D03*
X27400000Y-16760000D03*
X21800000Y-16760000D03*
X22600000Y-16760000D03*
D14*
X22110000Y-15700000D03*
X27890000Y-15700000D03*
D15*
X26750000Y-16760000D03*
X25750000Y-16760000D03*
X26250000Y-16760000D03*
X23750000Y-16760000D03*
X23250000Y-16760000D03*
X25250000Y-16760000D03*
X24750000Y-16760000D03*
X24250000Y-16760000D03*
D16*
X29320000Y-12010000D03*
X20680000Y-12010000D03*
D17*
X29320000Y-16180000D03*
X20680000Y-16180000D03*
%TD*%
D18*
%TO.C,TP4*%
X12500000Y-48500000D03*
%TD*%
%TO.C,TP3*%
X13000000Y-45750000D03*
%TD*%
%TO.C,TP2*%
X15500000Y-47500000D03*
%TD*%
%TO.C,TP1*%
X17250000Y-46250000D03*
%TD*%
D19*
%TO.C,D8*%
X33960000Y-14000000D03*
D20*
X36500000Y-14000000D03*
%TD*%
D19*
%TO.C,D7*%
X12250000Y-28790000D03*
D20*
X12250000Y-26250000D03*
%TD*%
D21*
%TO.C,SW_BOOT1*%
X24625000Y-46500000D03*
X27875000Y-46500000D03*
%TD*%
%TO.C,SW_RESET1*%
X25875000Y-40500000D03*
X22625000Y-40500000D03*
%TD*%
%TO.C,R8*%
G36*
G01*
X20762500Y-67350000D02*
X21237500Y-67350000D01*
G75*
G02*
X21475000Y-67587500I0J-237500D01*
G01*
X21475000Y-68162500D01*
G75*
G02*
X21237500Y-68400000I-237500J0D01*
G01*
X20762500Y-68400000D01*
G75*
G02*
X20525000Y-68162500I0J237500D01*
G01*
X20525000Y-67587500D01*
G75*
G02*
X20762500Y-67350000I237500J0D01*
G01*
G37*
G36*
G01*
X20762500Y-65600000D02*
X21237500Y-65600000D01*
G75*
G02*
X21475000Y-65837500I0J-237500D01*
G01*
X21475000Y-66412500D01*
G75*
G02*
X21237500Y-66650000I-237500J0D01*
G01*
X20762500Y-66650000D01*
G75*
G02*
X20525000Y-66412500I0J237500D01*
G01*
X20525000Y-65837500D01*
G75*
G02*
X20762500Y-65600000I237500J0D01*
G01*
G37*
%TD*%
%TO.C,R7*%
G36*
G01*
X19262500Y-67350000D02*
X19737500Y-67350000D01*
G75*
G02*
X19975000Y-67587500I0J-237500D01*
G01*
X19975000Y-68162500D01*
G75*
G02*
X19737500Y-68400000I-237500J0D01*
G01*
X19262500Y-68400000D01*
G75*
G02*
X19025000Y-68162500I0J237500D01*
G01*
X19025000Y-67587500D01*
G75*
G02*
X19262500Y-67350000I237500J0D01*
G01*
G37*
G36*
G01*
X19262500Y-65600000D02*
X19737500Y-65600000D01*
G75*
G02*
X19975000Y-65837500I0J-237500D01*
G01*
X19975000Y-66412500D01*
G75*
G02*
X19737500Y-66650000I-237500J0D01*
G01*
X19262500Y-66650000D01*
G75*
G02*
X19025000Y-66412500I0J237500D01*
G01*
X19025000Y-65837500D01*
G75*
G02*
X19262500Y-65600000I237500J0D01*
G01*
G37*
%TD*%
%TO.C,R6*%
G36*
G01*
X23400000Y-42262500D02*
X23400000Y-42737500D01*
G75*
G02*
X23162500Y-42975000I-237500J0D01*
G01*
X22587500Y-42975000D01*
G75*
G02*
X22350000Y-42737500I0J237500D01*
G01*
X22350000Y-42262500D01*
G75*
G02*
X22587500Y-42025000I237500J0D01*
G01*
X23162500Y-42025000D01*
G75*
G02*
X23400000Y-42262500I0J-237500D01*
G01*
G37*
G36*
G01*
X25150000Y-42262500D02*
X25150000Y-42737500D01*
G75*
G02*
X24912500Y-42975000I-237500J0D01*
G01*
X24337500Y-42975000D01*
G75*
G02*
X24100000Y-42737500I0J237500D01*
G01*
X24100000Y-42262500D01*
G75*
G02*
X24337500Y-42025000I237500J0D01*
G01*
X24912500Y-42025000D01*
G75*
G02*
X25150000Y-42262500I0J-237500D01*
G01*
G37*
%TD*%
D22*
%TO.C,D3*%
X16250000Y-58850000D03*
X16250000Y-62150000D03*
%TD*%
D23*
%TO.C,D1*%
X20500000Y-21810000D03*
X21450000Y-19190000D03*
X19550000Y-19190000D03*
%TD*%
%TO.C,C20*%
G36*
G01*
X14725000Y-23487500D02*
X14725000Y-23012500D01*
G75*
G02*
X14962500Y-22775000I237500J0D01*
G01*
X15537500Y-22775000D01*
G75*
G02*
X15775000Y-23012500I0J-237500D01*
G01*
X15775000Y-23487500D01*
G75*
G02*
X15537500Y-23725000I-237500J0D01*
G01*
X14962500Y-23725000D01*
G75*
G02*
X14725000Y-23487500I0J237500D01*
G01*
G37*
G36*
G01*
X12975000Y-23487500D02*
X12975000Y-23012500D01*
G75*
G02*
X13212500Y-22775000I237500J0D01*
G01*
X13787500Y-22775000D01*
G75*
G02*
X14025000Y-23012500I0J-237500D01*
G01*
X14025000Y-23487500D01*
G75*
G02*
X13787500Y-23725000I-237500J0D01*
G01*
X13212500Y-23725000D01*
G75*
G02*
X12975000Y-23487500I0J237500D01*
G01*
G37*
%TD*%
%TO.C,C15*%
G36*
G01*
X26237500Y-66650000D02*
X25762500Y-66650000D01*
G75*
G02*
X25525000Y-66412500I0J237500D01*
G01*
X25525000Y-65837500D01*
G75*
G02*
X25762500Y-65600000I237500J0D01*
G01*
X26237500Y-65600000D01*
G75*
G02*
X26475000Y-65837500I0J-237500D01*
G01*
X26475000Y-66412500D01*
G75*
G02*
X26237500Y-66650000I-237500J0D01*
G01*
G37*
G36*
G01*
X26237500Y-68400000D02*
X25762500Y-68400000D01*
G75*
G02*
X25525000Y-68162500I0J237500D01*
G01*
X25525000Y-67587500D01*
G75*
G02*
X25762500Y-67350000I237500J0D01*
G01*
X26237500Y-67350000D01*
G75*
G02*
X26475000Y-67587500I0J-237500D01*
G01*
X26475000Y-68162500D01*
G75*
G02*
X26237500Y-68400000I-237500J0D01*
G01*
G37*
%TD*%
%TO.C,C12*%
G36*
G01*
X30737500Y-66650000D02*
X30262500Y-66650000D01*
G75*
G02*
X30025000Y-66412500I0J237500D01*
G01*
X30025000Y-65837500D01*
G75*
G02*
X30262500Y-65600000I237500J0D01*
G01*
X30737500Y-65600000D01*
G75*
G02*
X30975000Y-65837500I0J-237500D01*
G01*
X30975000Y-66412500D01*
G75*
G02*
X30737500Y-66650000I-237500J0D01*
G01*
G37*
G36*
G01*
X30737500Y-68400000D02*
X30262500Y-68400000D01*
G75*
G02*
X30025000Y-68162500I0J237500D01*
G01*
X30025000Y-67587500D01*
G75*
G02*
X30262500Y-67350000I237500J0D01*
G01*
X30737500Y-67350000D01*
G75*
G02*
X30975000Y-67587500I0J-237500D01*
G01*
X30975000Y-68162500D01*
G75*
G02*
X30737500Y-68400000I-237500J0D01*
G01*
G37*
%TD*%
%TO.C,C11*%
G36*
G01*
X29237500Y-66650000D02*
X28762500Y-66650000D01*
G75*
G02*
X28525000Y-66412500I0J237500D01*
G01*
X28525000Y-65837500D01*
G75*
G02*
X28762500Y-65600000I237500J0D01*
G01*
X29237500Y-65600000D01*
G75*
G02*
X29475000Y-65837500I0J-237500D01*
G01*
X29475000Y-66412500D01*
G75*
G02*
X29237500Y-66650000I-237500J0D01*
G01*
G37*
G36*
G01*
X29237500Y-68400000D02*
X28762500Y-68400000D01*
G75*
G02*
X28525000Y-68162500I0J237500D01*
G01*
X28525000Y-67587500D01*
G75*
G02*
X28762500Y-67350000I237500J0D01*
G01*
X29237500Y-67350000D01*
G75*
G02*
X29475000Y-67587500I0J-237500D01*
G01*
X29475000Y-68162500D01*
G75*
G02*
X29237500Y-68400000I-237500J0D01*
G01*
G37*
%TD*%
%TO.C,C10*%
G36*
G01*
X27737500Y-66650000D02*
X27262500Y-66650000D01*
G75*
G02*
X27025000Y-66412500I0J237500D01*
G01*
X27025000Y-65837500D01*
G75*
G02*
X27262500Y-65600000I237500J0D01*
G01*
X27737500Y-65600000D01*
G75*
G02*
X27975000Y-65837500I0J-237500D01*
G01*
X27975000Y-66412500D01*
G75*
G02*
X27737500Y-66650000I-237500J0D01*
G01*
G37*
G36*
G01*
X27737500Y-68400000D02*
X27262500Y-68400000D01*
G75*
G02*
X27025000Y-68162500I0J237500D01*
G01*
X27025000Y-67587500D01*
G75*
G02*
X27262500Y-67350000I237500J0D01*
G01*
X27737500Y-67350000D01*
G75*
G02*
X27975000Y-67587500I0J-237500D01*
G01*
X27975000Y-68162500D01*
G75*
G02*
X27737500Y-68400000I-237500J0D01*
G01*
G37*
%TD*%
%TO.C,C9*%
G36*
G01*
X24262500Y-67350000D02*
X24737500Y-67350000D01*
G75*
G02*
X24975000Y-67587500I0J-237500D01*
G01*
X24975000Y-68162500D01*
G75*
G02*
X24737500Y-68400000I-237500J0D01*
G01*
X24262500Y-68400000D01*
G75*
G02*
X24025000Y-68162500I0J237500D01*
G01*
X24025000Y-67587500D01*
G75*
G02*
X24262500Y-67350000I237500J0D01*
G01*
G37*
G36*
G01*
X24262500Y-65600000D02*
X24737500Y-65600000D01*
G75*
G02*
X24975000Y-65837500I0J-237500D01*
G01*
X24975000Y-66412500D01*
G75*
G02*
X24737500Y-66650000I-237500J0D01*
G01*
X24262500Y-66650000D01*
G75*
G02*
X24025000Y-66412500I0J237500D01*
G01*
X24025000Y-65837500D01*
G75*
G02*
X24262500Y-65600000I237500J0D01*
G01*
G37*
%TD*%
%TO.C,C6*%
G36*
G01*
X35737500Y-48775000D02*
X35262500Y-48775000D01*
G75*
G02*
X35025000Y-48537500I0J237500D01*
G01*
X35025000Y-47962500D01*
G75*
G02*
X35262500Y-47725000I237500J0D01*
G01*
X35737500Y-47725000D01*
G75*
G02*
X35975000Y-47962500I0J-237500D01*
G01*
X35975000Y-48537500D01*
G75*
G02*
X35737500Y-48775000I-237500J0D01*
G01*
G37*
G36*
G01*
X35737500Y-50525000D02*
X35262500Y-50525000D01*
G75*
G02*
X35025000Y-50287500I0J237500D01*
G01*
X35025000Y-49712500D01*
G75*
G02*
X35262500Y-49475000I237500J0D01*
G01*
X35737500Y-49475000D01*
G75*
G02*
X35975000Y-49712500I0J-237500D01*
G01*
X35975000Y-50287500D01*
G75*
G02*
X35737500Y-50525000I-237500J0D01*
G01*
G37*
%TD*%
M02*
