%TF.GenerationSoftware,KiCad,Pcbnew,(5.99.0-2309-gaf729d578)*%
%TF.CreationDate,2020-07-18T18:02:02-04:00*%
%TF.ProjectId,mk2,6d6b322e-6b69-4636-9164-5f7063625858,rev?*%
%TF.SameCoordinates,Original*%
%TF.FileFunction,Copper,L2,Bot*%
%TF.FilePolarity,Positive*%
%FSLAX46Y46*%
G04 Gerber Fmt 4.6, Leading zero omitted, Abs format (unit mm)*
G04 Created by KiCad (PCBNEW (5.99.0-2309-gaf729d578)) date 2020-07-18 18:02:02*
%MOMM*%
%LPD*%
G01*
G04 APERTURE LIST*
%TA.AperFunction,ComponentPad*%
%ADD10O,1.200000X1.750000*%
%TD*%
%TA.AperFunction,ComponentPad*%
%ADD11O,0.850000X0.850000*%
%TD*%
%TA.AperFunction,ComponentPad*%
%ADD12R,0.850000X0.850000*%
%TD*%
%TA.AperFunction,SMDPad,CuDef*%
%ADD13R,0.600000X1.160000*%
%TD*%
%TA.AperFunction,SMDPad,CuDef*%
%ADD14R,0.300000X1.160000*%
%TD*%
%TA.AperFunction,ComponentPad*%
%ADD15O,0.900000X1.700000*%
%TD*%
%TA.AperFunction,ComponentPad*%
%ADD16O,0.900000X2.000000*%
%TD*%
%TA.AperFunction,SMDPad,CuDef*%
%ADD17C,1.000000*%
%TD*%
%TA.AperFunction,ComponentPad*%
%ADD18O,1.700000X1.700000*%
%TD*%
%TA.AperFunction,ComponentPad*%
%ADD19R,1.700000X1.700000*%
%TD*%
%TA.AperFunction,SMDPad,CuDef*%
%ADD20R,0.550000X1.500000*%
%TD*%
%TA.AperFunction,SMDPad,CuDef*%
%ADD21R,1.200000X0.900000*%
%TD*%
%TA.AperFunction,SMDPad,CuDef*%
%ADD22R,0.650000X1.220000*%
%TD*%
%TA.AperFunction,ViaPad*%
%ADD23C,0.500000*%
%TD*%
%TA.AperFunction,Conductor*%
%ADD24C,0.180000*%
%TD*%
%TA.AperFunction,Conductor*%
%ADD25C,0.254000*%
%TD*%
G04 APERTURE END LIST*
D10*
%TO.P,BT1,2,-*%
%TO.N,GND*%
X15250000Y-20500000D03*
%TO.P,BT1,1,+*%
%TO.N,+BATT*%
%TA.AperFunction,ComponentPad*%
G36*
G01*
X12650000Y-21125000D02*
X12650000Y-19875000D01*
G75*
G02*
X12900000Y-19625000I250000J0D01*
G01*
X13600000Y-19625000D01*
G75*
G02*
X13850000Y-19875000I0J-250000D01*
G01*
X13850000Y-21125000D01*
G75*
G02*
X13600000Y-21375000I-250000J0D01*
G01*
X12900000Y-21375000D01*
G75*
G02*
X12650000Y-21125000I0J250000D01*
G01*
G37*
%TD.AperFunction*%
%TD*%
D11*
%TO.P,J3,2,Pin_2*%
%TO.N,Net-(J3-Pad2)*%
X38250000Y-51750000D03*
D12*
%TO.P,J3,1,Pin_1*%
%TO.N,Net-(J3-Pad1)*%
X38250000Y-52750000D03*
%TD*%
D13*
%TO.P,J2,A12,GND*%
%TO.N,GND*%
X28200000Y-16760000D03*
%TO.P,J2,A9,VBUS*%
%TO.N,VUSB*%
X27400000Y-16760000D03*
%TO.P,J2,A1,GND*%
%TO.N,GND*%
X21800000Y-16760000D03*
%TO.P,J2,A4,VBUS*%
%TO.N,VUSB*%
X22600000Y-16760000D03*
D14*
%TO.P,J2,B5,CC2*%
%TO.N,Net-(J2-PadB5)*%
X26750000Y-16760000D03*
%TO.P,J2,B6,D+*%
%TO.N,USB_DP*%
X25750000Y-16760000D03*
%TO.P,J2,A8,SBU1*%
%TO.N,N/C*%
X26250000Y-16760000D03*
%TO.P,J2,A5,CC1*%
%TO.N,Net-(J2-PadA5)*%
X23750000Y-16760000D03*
%TO.P,J2,B8,SBU2*%
%TO.N,N/C*%
X23250000Y-16760000D03*
%TO.P,J2,A7,D-*%
%TO.N,USB_DN*%
X25250000Y-16760000D03*
%TO.P,J2,A6,D+*%
%TO.N,USB_DP*%
X24750000Y-16760000D03*
%TO.P,J2,B7,D-*%
%TO.N,USB_DN*%
X24250000Y-16760000D03*
D15*
%TO.P,J2,S1,SHIELD*%
%TO.N,GND*%
X29320000Y-12010000D03*
X20680000Y-12010000D03*
D16*
X29320000Y-16180000D03*
X20680000Y-16180000D03*
%TD*%
D17*
%TO.P,TP4,1,1*%
%TO.N,GND*%
X12500000Y-48500000D03*
%TD*%
%TO.P,TP3,1,1*%
%TO.N,VCC*%
X13000000Y-45750000D03*
%TD*%
%TO.P,TP2,1,1*%
%TO.N,SWDCLK*%
X15500000Y-47500000D03*
%TD*%
%TO.P,TP1,1,1*%
%TO.N,SWDIO*%
X17250000Y-46250000D03*
%TD*%
D18*
%TO.P,D8,2,A*%
%TO.N,Net-(D8-Pad2)*%
X33960000Y-14000000D03*
D19*
%TO.P,D8,1,K*%
%TO.N,Net-(D8-Pad1)*%
X36500000Y-14000000D03*
%TD*%
D18*
%TO.P,D7,2,A*%
%TO.N,Net-(D7-Pad2)*%
X12250000Y-28790000D03*
D19*
%TO.P,D7,1,K*%
%TO.N,Net-(D7-Pad1)*%
X12250000Y-26250000D03*
%TD*%
D20*
%TO.P,SW_BOOT1,2,2*%
%TO.N,GND*%
X24625000Y-46500000D03*
%TO.P,SW_BOOT1,1,1*%
%TO.N,BOOTLOAD*%
X27875000Y-46500000D03*
%TD*%
%TO.P,SW_RESET1,2,2*%
%TO.N,GND*%
X25875000Y-40500000D03*
%TO.P,SW_RESET1,1,1*%
%TO.N,RST*%
X22625000Y-40500000D03*
%TD*%
%TO.P,R8,2*%
%TO.N,GND*%
%TA.AperFunction,SMDPad,CuDef*%
G36*
G01*
X20762500Y-67350000D02*
X21237500Y-67350000D01*
G75*
G02*
X21475000Y-67587500I0J-237500D01*
G01*
X21475000Y-68162500D01*
G75*
G02*
X21237500Y-68400000I-237500J0D01*
G01*
X20762500Y-68400000D01*
G75*
G02*
X20525000Y-68162500I0J237500D01*
G01*
X20525000Y-67587500D01*
G75*
G02*
X20762500Y-67350000I237500J0D01*
G01*
G37*
%TD.AperFunction*%
%TO.P,R8,1*%
%TO.N,/EPRESE*%
%TA.AperFunction,SMDPad,CuDef*%
G36*
G01*
X20762500Y-65600000D02*
X21237500Y-65600000D01*
G75*
G02*
X21475000Y-65837500I0J-237500D01*
G01*
X21475000Y-66412500D01*
G75*
G02*
X21237500Y-66650000I-237500J0D01*
G01*
X20762500Y-66650000D01*
G75*
G02*
X20525000Y-66412500I0J237500D01*
G01*
X20525000Y-65837500D01*
G75*
G02*
X20762500Y-65600000I237500J0D01*
G01*
G37*
%TD.AperFunction*%
%TD*%
%TO.P,R7,2*%
%TO.N,GND*%
%TA.AperFunction,SMDPad,CuDef*%
G36*
G01*
X19262500Y-67350000D02*
X19737500Y-67350000D01*
G75*
G02*
X19975000Y-67587500I0J-237500D01*
G01*
X19975000Y-68162500D01*
G75*
G02*
X19737500Y-68400000I-237500J0D01*
G01*
X19262500Y-68400000D01*
G75*
G02*
X19025000Y-68162500I0J237500D01*
G01*
X19025000Y-67587500D01*
G75*
G02*
X19262500Y-67350000I237500J0D01*
G01*
G37*
%TD.AperFunction*%
%TO.P,R7,1*%
%TO.N,/EPGDR*%
%TA.AperFunction,SMDPad,CuDef*%
G36*
G01*
X19262500Y-65600000D02*
X19737500Y-65600000D01*
G75*
G02*
X19975000Y-65837500I0J-237500D01*
G01*
X19975000Y-66412500D01*
G75*
G02*
X19737500Y-66650000I-237500J0D01*
G01*
X19262500Y-66650000D01*
G75*
G02*
X19025000Y-66412500I0J237500D01*
G01*
X19025000Y-65837500D01*
G75*
G02*
X19262500Y-65600000I237500J0D01*
G01*
G37*
%TD.AperFunction*%
%TD*%
%TO.P,R6,2*%
%TO.N,RST*%
%TA.AperFunction,SMDPad,CuDef*%
G36*
G01*
X23400000Y-42262500D02*
X23400000Y-42737500D01*
G75*
G02*
X23162500Y-42975000I-237500J0D01*
G01*
X22587500Y-42975000D01*
G75*
G02*
X22350000Y-42737500I0J237500D01*
G01*
X22350000Y-42262500D01*
G75*
G02*
X22587500Y-42025000I237500J0D01*
G01*
X23162500Y-42025000D01*
G75*
G02*
X23400000Y-42262500I0J-237500D01*
G01*
G37*
%TD.AperFunction*%
%TO.P,R6,1*%
%TO.N,VCC*%
%TA.AperFunction,SMDPad,CuDef*%
G36*
G01*
X25150000Y-42262500D02*
X25150000Y-42737500D01*
G75*
G02*
X24912500Y-42975000I-237500J0D01*
G01*
X24337500Y-42975000D01*
G75*
G02*
X24100000Y-42737500I0J237500D01*
G01*
X24100000Y-42262500D01*
G75*
G02*
X24337500Y-42025000I237500J0D01*
G01*
X24912500Y-42025000D01*
G75*
G02*
X25150000Y-42262500I0J-237500D01*
G01*
G37*
%TD.AperFunction*%
%TD*%
D21*
%TO.P,D3,2,A*%
%TO.N,Net-(C8-Pad1)*%
X16250000Y-58850000D03*
%TO.P,D3,1,K*%
%TO.N,/EPPREVGH*%
X16250000Y-62150000D03*
%TD*%
D22*
%TO.P,D1,3,K*%
%TO.N,VIN*%
X20500000Y-21810000D03*
%TO.P,D1,2,A*%
%TO.N,VUSB*%
X21450000Y-19190000D03*
%TO.P,D1,1,A*%
%TO.N,+BATT*%
X19550000Y-19190000D03*
%TD*%
%TO.P,C20,2*%
%TO.N,GND*%
%TA.AperFunction,SMDPad,CuDef*%
G36*
G01*
X14725000Y-23487500D02*
X14725000Y-23012500D01*
G75*
G02*
X14962500Y-22775000I237500J0D01*
G01*
X15537500Y-22775000D01*
G75*
G02*
X15775000Y-23012500I0J-237500D01*
G01*
X15775000Y-23487500D01*
G75*
G02*
X15537500Y-23725000I-237500J0D01*
G01*
X14962500Y-23725000D01*
G75*
G02*
X14725000Y-23487500I0J237500D01*
G01*
G37*
%TD.AperFunction*%
%TO.P,C20,1*%
%TO.N,+BATT*%
%TA.AperFunction,SMDPad,CuDef*%
G36*
G01*
X12975000Y-23487500D02*
X12975000Y-23012500D01*
G75*
G02*
X13212500Y-22775000I237500J0D01*
G01*
X13787500Y-22775000D01*
G75*
G02*
X14025000Y-23012500I0J-237500D01*
G01*
X14025000Y-23487500D01*
G75*
G02*
X13787500Y-23725000I-237500J0D01*
G01*
X13212500Y-23725000D01*
G75*
G02*
X12975000Y-23487500I0J237500D01*
G01*
G37*
%TD.AperFunction*%
%TD*%
%TO.P,C15,2*%
%TO.N,/EPVDD*%
%TA.AperFunction,SMDPad,CuDef*%
G36*
G01*
X26237500Y-66650000D02*
X25762500Y-66650000D01*
G75*
G02*
X25525000Y-66412500I0J237500D01*
G01*
X25525000Y-65837500D01*
G75*
G02*
X25762500Y-65600000I237500J0D01*
G01*
X26237500Y-65600000D01*
G75*
G02*
X26475000Y-65837500I0J-237500D01*
G01*
X26475000Y-66412500D01*
G75*
G02*
X26237500Y-66650000I-237500J0D01*
G01*
G37*
%TD.AperFunction*%
%TO.P,C15,1*%
%TO.N,GND*%
%TA.AperFunction,SMDPad,CuDef*%
G36*
G01*
X26237500Y-68400000D02*
X25762500Y-68400000D01*
G75*
G02*
X25525000Y-68162500I0J237500D01*
G01*
X25525000Y-67587500D01*
G75*
G02*
X25762500Y-67350000I237500J0D01*
G01*
X26237500Y-67350000D01*
G75*
G02*
X26475000Y-67587500I0J-237500D01*
G01*
X26475000Y-68162500D01*
G75*
G02*
X26237500Y-68400000I-237500J0D01*
G01*
G37*
%TD.AperFunction*%
%TD*%
%TO.P,C12,2*%
%TO.N,/EPPREVGL*%
%TA.AperFunction,SMDPad,CuDef*%
G36*
G01*
X30737500Y-66650000D02*
X30262500Y-66650000D01*
G75*
G02*
X30025000Y-66412500I0J237500D01*
G01*
X30025000Y-65837500D01*
G75*
G02*
X30262500Y-65600000I237500J0D01*
G01*
X30737500Y-65600000D01*
G75*
G02*
X30975000Y-65837500I0J-237500D01*
G01*
X30975000Y-66412500D01*
G75*
G02*
X30737500Y-66650000I-237500J0D01*
G01*
G37*
%TD.AperFunction*%
%TO.P,C12,1*%
%TO.N,GND*%
%TA.AperFunction,SMDPad,CuDef*%
G36*
G01*
X30737500Y-68400000D02*
X30262500Y-68400000D01*
G75*
G02*
X30025000Y-68162500I0J237500D01*
G01*
X30025000Y-67587500D01*
G75*
G02*
X30262500Y-67350000I237500J0D01*
G01*
X30737500Y-67350000D01*
G75*
G02*
X30975000Y-67587500I0J-237500D01*
G01*
X30975000Y-68162500D01*
G75*
G02*
X30737500Y-68400000I-237500J0D01*
G01*
G37*
%TD.AperFunction*%
%TD*%
%TO.P,C11,2*%
%TO.N,/EPPREVGH*%
%TA.AperFunction,SMDPad,CuDef*%
G36*
G01*
X29237500Y-66650000D02*
X28762500Y-66650000D01*
G75*
G02*
X28525000Y-66412500I0J237500D01*
G01*
X28525000Y-65837500D01*
G75*
G02*
X28762500Y-65600000I237500J0D01*
G01*
X29237500Y-65600000D01*
G75*
G02*
X29475000Y-65837500I0J-237500D01*
G01*
X29475000Y-66412500D01*
G75*
G02*
X29237500Y-66650000I-237500J0D01*
G01*
G37*
%TD.AperFunction*%
%TO.P,C11,1*%
%TO.N,GND*%
%TA.AperFunction,SMDPad,CuDef*%
G36*
G01*
X29237500Y-68400000D02*
X28762500Y-68400000D01*
G75*
G02*
X28525000Y-68162500I0J237500D01*
G01*
X28525000Y-67587500D01*
G75*
G02*
X28762500Y-67350000I237500J0D01*
G01*
X29237500Y-67350000D01*
G75*
G02*
X29475000Y-67587500I0J-237500D01*
G01*
X29475000Y-68162500D01*
G75*
G02*
X29237500Y-68400000I-237500J0D01*
G01*
G37*
%TD.AperFunction*%
%TD*%
%TO.P,C10,2*%
%TO.N,/EPVPP*%
%TA.AperFunction,SMDPad,CuDef*%
G36*
G01*
X27737500Y-66650000D02*
X27262500Y-66650000D01*
G75*
G02*
X27025000Y-66412500I0J237500D01*
G01*
X27025000Y-65837500D01*
G75*
G02*
X27262500Y-65600000I237500J0D01*
G01*
X27737500Y-65600000D01*
G75*
G02*
X27975000Y-65837500I0J-237500D01*
G01*
X27975000Y-66412500D01*
G75*
G02*
X27737500Y-66650000I-237500J0D01*
G01*
G37*
%TD.AperFunction*%
%TO.P,C10,1*%
%TO.N,GND*%
%TA.AperFunction,SMDPad,CuDef*%
G36*
G01*
X27737500Y-68400000D02*
X27262500Y-68400000D01*
G75*
G02*
X27025000Y-68162500I0J237500D01*
G01*
X27025000Y-67587500D01*
G75*
G02*
X27262500Y-67350000I237500J0D01*
G01*
X27737500Y-67350000D01*
G75*
G02*
X27975000Y-67587500I0J-237500D01*
G01*
X27975000Y-68162500D01*
G75*
G02*
X27737500Y-68400000I-237500J0D01*
G01*
G37*
%TD.AperFunction*%
%TD*%
%TO.P,C9,2*%
%TO.N,GND*%
%TA.AperFunction,SMDPad,CuDef*%
G36*
G01*
X24262500Y-67350000D02*
X24737500Y-67350000D01*
G75*
G02*
X24975000Y-67587500I0J-237500D01*
G01*
X24975000Y-68162500D01*
G75*
G02*
X24737500Y-68400000I-237500J0D01*
G01*
X24262500Y-68400000D01*
G75*
G02*
X24025000Y-68162500I0J237500D01*
G01*
X24025000Y-67587500D01*
G75*
G02*
X24262500Y-67350000I237500J0D01*
G01*
G37*
%TD.AperFunction*%
%TO.P,C9,1*%
%TO.N,/EPPREVGH*%
%TA.AperFunction,SMDPad,CuDef*%
G36*
G01*
X24262500Y-65600000D02*
X24737500Y-65600000D01*
G75*
G02*
X24975000Y-65837500I0J-237500D01*
G01*
X24975000Y-66412500D01*
G75*
G02*
X24737500Y-66650000I-237500J0D01*
G01*
X24262500Y-66650000D01*
G75*
G02*
X24025000Y-66412500I0J237500D01*
G01*
X24025000Y-65837500D01*
G75*
G02*
X24262500Y-65600000I237500J0D01*
G01*
G37*
%TD.AperFunction*%
%TD*%
%TO.P,C6,2*%
%TO.N,VCC*%
%TA.AperFunction,SMDPad,CuDef*%
G36*
G01*
X35737500Y-48775000D02*
X35262500Y-48775000D01*
G75*
G02*
X35025000Y-48537500I0J237500D01*
G01*
X35025000Y-47962500D01*
G75*
G02*
X35262500Y-47725000I237500J0D01*
G01*
X35737500Y-47725000D01*
G75*
G02*
X35975000Y-47962500I0J-237500D01*
G01*
X35975000Y-48537500D01*
G75*
G02*
X35737500Y-48775000I-237500J0D01*
G01*
G37*
%TD.AperFunction*%
%TO.P,C6,1*%
%TO.N,GND*%
%TA.AperFunction,SMDPad,CuDef*%
G36*
G01*
X35737500Y-50525000D02*
X35262500Y-50525000D01*
G75*
G02*
X35025000Y-50287500I0J237500D01*
G01*
X35025000Y-49712500D01*
G75*
G02*
X35262500Y-49475000I237500J0D01*
G01*
X35737500Y-49475000D01*
G75*
G02*
X35975000Y-49712500I0J-237500D01*
G01*
X35975000Y-50287500D01*
G75*
G02*
X35737500Y-50525000I-237500J0D01*
G01*
G37*
%TD.AperFunction*%
%TD*%
D23*
%TO.N,GND*%
X37250000Y-29000000D03*
X38000000Y-50000000D03*
X36750000Y-46750000D03*
%TO.N,Net-(J3-Pad1)*%
X35821258Y-44615120D03*
X35750000Y-45750000D03*
%TO.N,GND*%
X34007297Y-47492703D03*
%TO.N,VCC*%
X34000000Y-41750000D03*
%TO.N,BUZZER*%
X29650000Y-43950000D03*
X30750000Y-42750000D03*
%TO.N,VCC*%
X26750000Y-55500000D03*
X13000000Y-45750000D03*
%TO.N,SWDIO*%
X17250000Y-46250000D03*
%TO.N,SWDCLK*%
X15500000Y-47500000D03*
%TO.N,VCC*%
X22226482Y-41703095D03*
X16000000Y-44750000D03*
X24625000Y-42500000D03*
%TO.N,GND*%
X29650000Y-48250000D03*
X30750000Y-47750000D03*
X19250000Y-50500000D03*
%TO.N,EPBUSY*%
X17912048Y-48405015D03*
%TO.N,EPRES*%
X18374063Y-48903973D03*
%TO.N,GND*%
X35500000Y-51750000D03*
X13250000Y-58000000D03*
X20000000Y-59000000D03*
X27440302Y-62350754D03*
X22500000Y-61500000D03*
X37000000Y-62250000D03*
X31500000Y-58750000D03*
%TO.N,VCC*%
X26750000Y-57250000D03*
X31500000Y-44250000D03*
%TO.N,GND*%
X37000000Y-42000000D03*
X23000000Y-34000000D03*
X20500000Y-36250000D03*
%TO.N,VCC*%
X22000000Y-32750000D03*
X19000000Y-33750000D03*
%TO.N,GND*%
X23000000Y-22250000D03*
X20000000Y-24750000D03*
X17250000Y-26000000D03*
X14000000Y-31850000D03*
X36750000Y-22000000D03*
X34250000Y-18750000D03*
X31250000Y-17000000D03*
X35500000Y-33500000D03*
X30250000Y-36750000D03*
%TO.N,EPSDIN*%
X26000000Y-43020010D03*
%TO.N,VCC*%
X32000000Y-40750000D03*
X38750000Y-26500000D03*
X36500000Y-26000000D03*
%TO.N,GND*%
X27750000Y-30500000D03*
%TO.N,BACKLIGHT*%
X29000000Y-39000000D03*
X31250000Y-18750000D03*
%TO.N,Net-(IC1-Pad35)*%
X26750000Y-20250000D03*
X21250000Y-38500000D03*
%TO.N,Net-(IC1-Pad34)*%
X25250000Y-20250000D03*
X20250000Y-32250000D03*
%TO.N,FLASHLIGHT*%
X19250000Y-40000000D03*
X22250000Y-38750000D03*
%TO.N,VCC*%
X35500000Y-48250000D03*
%TO.N,Net-(C8-Pad1)*%
X25000000Y-57500000D03*
%TO.N,EPBUSY*%
X18750000Y-44979990D03*
%TO.N,BUTTON3*%
X23000000Y-45500000D03*
%TO.N,EPRES*%
X22000000Y-46020010D03*
%TO.N,BUTTON3*%
X20500000Y-45500000D03*
%TO.N,BUTTON4*%
X17250000Y-49750000D03*
X21250000Y-48250000D03*
%TO.N,Net-(C8-Pad1)*%
X16250000Y-58850000D03*
%TO.N,EPDC*%
X19250000Y-44229990D03*
X19250000Y-47750000D03*
%TO.N,EPCS*%
X24770010Y-61841467D03*
%TO.N,EPSDIN*%
X26054111Y-62108222D03*
%TO.N,EPSCLK*%
X20250000Y-42250000D03*
X25750000Y-61500000D03*
%TO.N,EPCS*%
X22250000Y-44250000D03*
%TO.N,RTCIRQ*%
X34500000Y-33500000D03*
X34500000Y-31000000D03*
%TO.N,VIN*%
X20476720Y-21705239D03*
X20950000Y-24650000D03*
%TO.N,VUSB*%
X21252463Y-22466632D03*
%TO.N,Net-(R10-Pad1)*%
X23250000Y-11750000D03*
X22000000Y-12000000D03*
%TO.N,VUSB*%
X27162216Y-15756858D03*
%TO.N,USB_DP*%
X24501891Y-17757755D03*
X26750000Y-18500000D03*
%TO.N,USB_DN*%
X25250000Y-18500000D03*
%TO.N,VUSB*%
X22600000Y-16760000D03*
%TO.N,Net-(J2-PadB5)*%
X26750000Y-14750000D03*
%TO.N,Net-(J2-PadA5)*%
X24000000Y-14625000D03*
%TO.N,RST*%
X22625000Y-40500000D03*
%TO.N,BOOTLOAD*%
X27875000Y-46500000D03*
%TO.N,/EPGDR*%
X19500000Y-66125000D03*
%TO.N,/EPRESE*%
X21000000Y-66125000D03*
%TO.N,/EPPREVGL*%
X30500000Y-66125000D03*
%TO.N,/EPPREVGH*%
X29000000Y-66125000D03*
%TO.N,/EPVPP*%
X27500000Y-66125000D03*
%TO.N,/EPVDD*%
X26000000Y-66125000D03*
%TD*%
D24*
%TO.N,Net-(J3-Pad1)*%
X35750000Y-45750000D02*
X35750000Y-44686378D01*
X35750000Y-44686378D02*
X35821258Y-44615120D01*
%TO.N,EPCS*%
X24770010Y-61487914D02*
X24770010Y-61841467D01*
X28019604Y-44250000D02*
X31270002Y-47500398D01*
%TO.N,EPSCLK*%
X27961275Y-43540011D02*
X21540011Y-43540011D01*
X31750000Y-55500000D02*
X31750000Y-47328736D01*
%TO.N,EPSDIN*%
X32110011Y-56052322D02*
X32110011Y-47179615D01*
%TO.N,EPCS*%
X31270002Y-47500398D02*
X31270002Y-54987922D01*
%TO.N,EPSCLK*%
X21540011Y-43540011D02*
X20250000Y-42250000D01*
%TO.N,EPSDIN*%
X32110011Y-47179615D02*
X27950406Y-43020010D01*
%TO.N,EPCS*%
X31270002Y-54987922D02*
X24770010Y-61487914D01*
%TO.N,EPSCLK*%
X31750000Y-47328736D02*
X27961275Y-43540011D01*
%TO.N,EPSDIN*%
X26054111Y-62108222D02*
X32110011Y-56052322D01*
X27950406Y-43020010D02*
X26000000Y-43020010D01*
%TO.N,EPSCLK*%
X25750000Y-61500000D02*
X31750000Y-55500000D01*
%TO.N,EPCS*%
X22250000Y-44250000D02*
X28019604Y-44250000D01*
%TO.N,VCC*%
X32000000Y-40750000D02*
X33000000Y-40750000D01*
X33000000Y-40750000D02*
X34000000Y-41750000D01*
%TO.N,BUZZER*%
X30750000Y-42750000D02*
X30750000Y-42850000D01*
X30750000Y-42850000D02*
X29650000Y-43950000D01*
%TO.N,VCC*%
X26750000Y-57250000D02*
X26750000Y-55500000D01*
X16000000Y-44750000D02*
X19046905Y-41703095D01*
X19046905Y-41703095D02*
X22226482Y-41703095D01*
%TO.N,GND*%
X24625000Y-46975000D02*
X25400000Y-47750000D01*
X24625000Y-46500000D02*
X24625000Y-46975000D01*
X25400000Y-47750000D02*
X30750000Y-47750000D01*
%TO.N,EPBUSY*%
X18750000Y-44979990D02*
X18750000Y-47567063D01*
%TO.N,EPRES*%
X22000000Y-46020010D02*
X21750000Y-46020010D01*
X21750000Y-46020010D02*
X18866037Y-48903973D01*
%TO.N,EPBUSY*%
X18750000Y-47567063D02*
X17912048Y-48405015D01*
%TO.N,EPRES*%
X18866037Y-48903973D02*
X18374063Y-48903973D01*
%TO.N,VCC*%
X31500000Y-44250000D02*
X31500000Y-41250000D01*
X31500000Y-41250000D02*
X32000000Y-40750000D01*
X21000000Y-33750000D02*
X22000000Y-32750000D01*
X19000000Y-33750000D02*
X21000000Y-33750000D01*
X24625000Y-42500000D02*
X24500000Y-42500000D01*
X24500000Y-42500000D02*
X30250000Y-42500000D01*
X30250000Y-42500000D02*
X32000000Y-40750000D01*
X38750000Y-26500000D02*
X37000000Y-26500000D01*
X37000000Y-26500000D02*
X36500000Y-26000000D01*
%TO.N,/EPPREVGH*%
X24500000Y-66125000D02*
X25295010Y-66920010D01*
X25295010Y-66920010D02*
X28204990Y-66920010D01*
X28204990Y-66920010D02*
X29000000Y-66125000D01*
%TO.N,BACKLIGHT*%
X29000000Y-39000000D02*
X29000000Y-21000000D01*
X29000000Y-21000000D02*
X31250000Y-18750000D01*
%TO.N,Net-(IC1-Pad35)*%
X26750000Y-33000000D02*
X26750000Y-20250000D01*
X21250000Y-38500000D02*
X26750000Y-33000000D01*
%TO.N,Net-(IC1-Pad34)*%
X20250000Y-32250000D02*
X25250000Y-27250000D01*
X25250000Y-27250000D02*
X25250000Y-20250000D01*
%TO.N,FLASHLIGHT*%
X19250000Y-40000000D02*
X21000000Y-40000000D01*
X21000000Y-40000000D02*
X22250000Y-38750000D01*
%TO.N,Net-(C8-Pad1)*%
X25000000Y-57500000D02*
X17600000Y-57500000D01*
X17600000Y-57500000D02*
X16250000Y-58850000D01*
%TO.N,BUTTON3*%
X23000000Y-45500000D02*
X20500000Y-45500000D01*
%TO.N,BUTTON4*%
X21250000Y-48250000D02*
X20118146Y-48250000D01*
X18618146Y-49750000D02*
X17250000Y-49750000D01*
X20118146Y-48250000D02*
X18618146Y-49750000D01*
%TO.N,EPDC*%
X19250000Y-47750000D02*
X19499999Y-47500001D01*
X19499999Y-47500001D02*
X19499999Y-44479989D01*
X19499999Y-44479989D02*
X19250000Y-44229990D01*
%TO.N,RTCIRQ*%
X34500000Y-33500000D02*
X34500000Y-31000000D01*
%TO.N,VIN*%
X20500000Y-21810000D02*
X20500000Y-24200000D01*
X20500000Y-24200000D02*
X20950000Y-24650000D01*
%TO.N,VUSB*%
X21450000Y-19190000D02*
X21450000Y-22269095D01*
X21450000Y-22269095D02*
X21252463Y-22466632D01*
%TO.N,Net-(R10-Pad1)*%
X23250000Y-11750000D02*
X22250000Y-11750000D01*
X22250000Y-11750000D02*
X22000000Y-12000000D01*
%TO.N,GND*%
X20680000Y-12010000D02*
X20680000Y-16180000D01*
X29320000Y-16180000D02*
X29320000Y-12010000D01*
X21800000Y-16760000D02*
X21260000Y-16760000D01*
X21260000Y-16760000D02*
X20680000Y-16180000D01*
X28200000Y-16760000D02*
X28740000Y-16760000D01*
X28740000Y-16760000D02*
X29320000Y-16180000D01*
%TO.N,Net-(J2-PadB5)*%
X26642214Y-14857786D02*
X26750000Y-14750000D01*
X26642214Y-16006460D02*
X26642214Y-14857786D01*
X26750000Y-16114246D02*
X26642214Y-16006460D01*
X26750000Y-16760000D02*
X26750000Y-16114246D01*
%TO.N,VUSB*%
X27400000Y-16760000D02*
X27400000Y-15994642D01*
X27400000Y-15994642D02*
X27162216Y-15756858D01*
%TO.N,USB_DP*%
X24750000Y-16760000D02*
X24750000Y-17509646D01*
X24750000Y-17509646D02*
X24501891Y-17757755D01*
%TO.N,USB_DN*%
X25250000Y-16760000D02*
X25250000Y-16000000D01*
X25250000Y-16000000D02*
X25159999Y-15909999D01*
X25159999Y-15909999D02*
X24383999Y-15909999D01*
X24383999Y-15909999D02*
X24250000Y-16043998D01*
X24250000Y-16043998D02*
X24250000Y-16760000D01*
%TO.N,USB_DP*%
X25750000Y-16760000D02*
X25750000Y-17520000D01*
X25750000Y-17520000D02*
X26730000Y-18500000D01*
X26730000Y-18500000D02*
X26750000Y-18500000D01*
%TO.N,USB_DN*%
X25250000Y-16760000D02*
X25250000Y-18500000D01*
%TO.N,Net-(J2-PadA5)*%
X23750000Y-16760000D02*
X23750000Y-14875000D01*
X23750000Y-14875000D02*
X24000000Y-14625000D01*
%TO.N,VUSB*%
X21450000Y-19190000D02*
X22600000Y-18040000D01*
X22600000Y-18040000D02*
X22600000Y-16760000D01*
%TO.N,+BATT*%
X19550000Y-19190000D02*
X15054621Y-19190000D01*
X15054621Y-19190000D02*
X13744621Y-20500000D01*
X13744621Y-20500000D02*
X13250000Y-20500000D01*
X13250000Y-20500000D02*
X13250000Y-23000000D01*
X13250000Y-23000000D02*
X13500000Y-23250000D01*
%TO.N,RST*%
X22875000Y-42500000D02*
X22875000Y-40750000D01*
X22875000Y-40750000D02*
X22625000Y-40500000D01*
%TO.N,/EPPREVGH*%
X16250000Y-62150000D02*
X16250000Y-64250000D01*
X16250000Y-64250000D02*
X27125000Y-64250000D01*
X27125000Y-64250000D02*
X29000000Y-66125000D01*
%TD*%
%TO.N,GND*%
D25*
X28729060Y-10695694D02*
X28718746Y-10702443D01*
X28562725Y-10827889D01*
X28553920Y-10836512D01*
X28425234Y-10989872D01*
X28418271Y-11000042D01*
X28321824Y-11175478D01*
X28316969Y-11186807D01*
X28256369Y-11377844D01*
X28253758Y-11390339D01*
X28236345Y-11556013D01*
X28236000Y-11562603D01*
X28236000Y-11808191D01*
X28309809Y-11882000D01*
X29118192Y-11882001D01*
X29118193Y-11882000D01*
X29448000Y-11882001D01*
X29447999Y-13397013D01*
X29549045Y-13472605D01*
X29722096Y-13421674D01*
X29733523Y-13417057D01*
X29910940Y-13324306D01*
X29921254Y-13317557D01*
X30077275Y-13192111D01*
X30086080Y-13183488D01*
X30214766Y-13030128D01*
X30221729Y-13019958D01*
X30318175Y-12844523D01*
X30323031Y-12833195D01*
X30383631Y-12642157D01*
X30386242Y-12629661D01*
X30403655Y-12463987D01*
X30404000Y-12457397D01*
X30404000Y-12221922D01*
X30412831Y-12252821D01*
X30420162Y-12269210D01*
X30440714Y-12301782D01*
X30456649Y-12336832D01*
X30466322Y-12351957D01*
X30488916Y-12378178D01*
X30507389Y-12407457D01*
X30519025Y-12421129D01*
X30547894Y-12446624D01*
X30573027Y-12475794D01*
X30586556Y-12487596D01*
X30615599Y-12506421D01*
X30641550Y-12529340D01*
X30656554Y-12539196D01*
X30691426Y-12555569D01*
X30723730Y-12576507D01*
X30740027Y-12584037D01*
X30773182Y-12593952D01*
X30804700Y-12608750D01*
X30822255Y-12614059D01*
X30858545Y-12619482D01*
X30896640Y-12630875D01*
X30914396Y-12633529D01*
X30957593Y-12633793D01*
X30960379Y-12634000D01*
X30991463Y-12634000D01*
X31077859Y-12634527D01*
X31081707Y-12634000D01*
X33374157Y-12634000D01*
X33192155Y-12724346D01*
X33183032Y-12729882D01*
X32988199Y-12871957D01*
X32980138Y-12878952D01*
X32812029Y-13051822D01*
X32805263Y-13060074D01*
X32668683Y-13258798D01*
X32663403Y-13268073D01*
X32562260Y-13486968D01*
X32558618Y-13497000D01*
X32495802Y-13729807D01*
X32493903Y-13740309D01*
X32471211Y-13980372D01*
X32471109Y-13991043D01*
X32489188Y-14231497D01*
X32490885Y-14242034D01*
X32549221Y-14476005D01*
X32552669Y-14486104D01*
X32649591Y-14706900D01*
X32654692Y-14716275D01*
X32787430Y-14917584D01*
X32794038Y-14925965D01*
X32958798Y-15102032D01*
X32966722Y-15109180D01*
X33158792Y-15254968D01*
X33167808Y-15260679D01*
X33381696Y-15372021D01*
X33391545Y-15376131D01*
X33621134Y-15449844D01*
X33631535Y-15452236D01*
X33870262Y-15486212D01*
X33880917Y-15486817D01*
X34121956Y-15480084D01*
X34132561Y-15478885D01*
X34369019Y-15431636D01*
X34379270Y-15428667D01*
X34604387Y-15342253D01*
X34613991Y-15337600D01*
X34821330Y-15214491D01*
X34830012Y-15208286D01*
X35013645Y-15052004D01*
X35021158Y-15044424D01*
X35047403Y-15013035D01*
X35085137Y-15153859D01*
X35097880Y-15178339D01*
X35228990Y-15334590D01*
X35245879Y-15348761D01*
X35420120Y-15449359D01*
X35440837Y-15456900D01*
X35633538Y-15490878D01*
X35644499Y-15491837D01*
X37358258Y-15491837D01*
X37374634Y-15489681D01*
X37653859Y-15414863D01*
X37678339Y-15402120D01*
X37834590Y-15271010D01*
X37848761Y-15254121D01*
X37949359Y-15079880D01*
X37956900Y-15059163D01*
X37990878Y-14866462D01*
X37991837Y-14855501D01*
X37991837Y-13141742D01*
X37989681Y-13125366D01*
X37914863Y-12846142D01*
X37902120Y-12821662D01*
X37771010Y-12665410D01*
X37754121Y-12651239D01*
X37724262Y-12634000D01*
X39366000Y-12634000D01*
X39366001Y-17960566D01*
X39366000Y-17960580D01*
X39366000Y-25861543D01*
X39243685Y-25754841D01*
X39228620Y-25745076D01*
X39014700Y-25646232D01*
X38997500Y-25641088D01*
X38764436Y-25606256D01*
X38746483Y-25606147D01*
X38513012Y-25638128D01*
X38495750Y-25643061D01*
X38280639Y-25739285D01*
X38265456Y-25748865D01*
X38235923Y-25774000D01*
X37357079Y-25774000D01*
X37317376Y-25638223D01*
X37309945Y-25621879D01*
X37182983Y-25423354D01*
X37171264Y-25409753D01*
X36993685Y-25254841D01*
X36978620Y-25245076D01*
X36764700Y-25146232D01*
X36747500Y-25141088D01*
X36514436Y-25106256D01*
X36496483Y-25106147D01*
X36263012Y-25138128D01*
X36245750Y-25143061D01*
X36030639Y-25239285D01*
X36015456Y-25248865D01*
X35835998Y-25401596D01*
X35824114Y-25415053D01*
X35694735Y-25612013D01*
X35687105Y-25628264D01*
X35618207Y-25853618D01*
X35615445Y-25871358D01*
X35612567Y-26106993D01*
X35614895Y-26124794D01*
X35678265Y-26351765D01*
X35685496Y-26368198D01*
X35810024Y-26568259D01*
X35821576Y-26582002D01*
X35997249Y-26739071D01*
X36012193Y-26749019D01*
X36224889Y-26850470D01*
X36242025Y-26855824D01*
X36345935Y-26872653D01*
X36419443Y-26946162D01*
X36560849Y-27087568D01*
X36576894Y-27099226D01*
X36619496Y-27120933D01*
X36658172Y-27149032D01*
X36675842Y-27158035D01*
X36721312Y-27172810D01*
X36763912Y-27194516D01*
X36782774Y-27200645D01*
X36829997Y-27208124D01*
X36875464Y-27222897D01*
X36895052Y-27226000D01*
X38232630Y-27226000D01*
X38247249Y-27239071D01*
X38262193Y-27249019D01*
X38474888Y-27350470D01*
X38492025Y-27355824D01*
X38724646Y-27393500D01*
X38742596Y-27393829D01*
X38976440Y-27364702D01*
X38993761Y-27359980D01*
X39210032Y-27266392D01*
X39225331Y-27256998D01*
X39366000Y-27140213D01*
X39366001Y-68366000D01*
X39008538Y-68366000D01*
X38922143Y-68365473D01*
X38904356Y-68367909D01*
X38867323Y-68378492D01*
X38829206Y-68383951D01*
X38811975Y-68388990D01*
X38780458Y-68403320D01*
X38747180Y-68412831D01*
X38730793Y-68420161D01*
X38698230Y-68440706D01*
X38663167Y-68456649D01*
X38648042Y-68466321D01*
X38621816Y-68488919D01*
X38592544Y-68507389D01*
X38578872Y-68519025D01*
X38553383Y-68547885D01*
X38524206Y-68573026D01*
X38512404Y-68586555D01*
X38493576Y-68615604D01*
X38470661Y-68641550D01*
X38460805Y-68656555D01*
X38444440Y-68691410D01*
X38423493Y-68723728D01*
X38415963Y-68740025D01*
X38406043Y-68773194D01*
X38391251Y-68804700D01*
X38385943Y-68822254D01*
X38380519Y-68858539D01*
X38369125Y-68896640D01*
X38366471Y-68914395D01*
X38366207Y-68957605D01*
X38366001Y-68960378D01*
X38366001Y-68991302D01*
X38365472Y-69077861D01*
X38366001Y-69081722D01*
X38366001Y-69366000D01*
X11634000Y-69366000D01*
X11634000Y-69008503D01*
X11634527Y-68922141D01*
X11632091Y-68904353D01*
X11621508Y-68867327D01*
X11616049Y-68829208D01*
X11611011Y-68811977D01*
X11596684Y-68780466D01*
X11587169Y-68747178D01*
X11579839Y-68730791D01*
X11559293Y-68698228D01*
X11543351Y-68663167D01*
X11533678Y-68648041D01*
X11511079Y-68621815D01*
X11492611Y-68592544D01*
X11480976Y-68578872D01*
X11452111Y-68553379D01*
X11426973Y-68524205D01*
X11413443Y-68512403D01*
X11384400Y-68493579D01*
X11358451Y-68470661D01*
X11343445Y-68460804D01*
X11308579Y-68444435D01*
X11276271Y-68423493D01*
X11259973Y-68415963D01*
X11226818Y-68406048D01*
X11195300Y-68391250D01*
X11177745Y-68385941D01*
X11141455Y-68380518D01*
X11103360Y-68369125D01*
X11085604Y-68366471D01*
X11042407Y-68366207D01*
X11039621Y-68366000D01*
X11008537Y-68366000D01*
X10922141Y-68365473D01*
X10918293Y-68366000D01*
X10634000Y-68366000D01*
X10634000Y-68076808D01*
X18385776Y-68076808D01*
X18385776Y-68202411D01*
X18387220Y-68215841D01*
X18452070Y-68513952D01*
X18460700Y-68534786D01*
X18588759Y-68734050D01*
X18600562Y-68747671D01*
X18777861Y-68901302D01*
X18793023Y-68911046D01*
X19006424Y-69008503D01*
X19023717Y-69013581D01*
X19197604Y-69038582D01*
X19206581Y-69039224D01*
X19298191Y-69039224D01*
X19372000Y-68965415D01*
X19627999Y-68965415D01*
X19701808Y-69039224D01*
X19777411Y-69039224D01*
X19790841Y-69037780D01*
X20088952Y-68972930D01*
X20109786Y-68964300D01*
X20248032Y-68875455D01*
X20277861Y-68901302D01*
X20293023Y-68911046D01*
X20506424Y-69008503D01*
X20523717Y-69013581D01*
X20697604Y-69038582D01*
X20706581Y-69039224D01*
X20798191Y-69039224D01*
X20872000Y-68965415D01*
X21127999Y-68965415D01*
X21201808Y-69039224D01*
X21277411Y-69039224D01*
X21290841Y-69037780D01*
X21588952Y-68972930D01*
X21609786Y-68964300D01*
X21809050Y-68836241D01*
X21822671Y-68824438D01*
X21976302Y-68647139D01*
X21986046Y-68631977D01*
X22083503Y-68418576D01*
X22088581Y-68401283D01*
X22113582Y-68227396D01*
X22114224Y-68218419D01*
X22114224Y-68076809D01*
X22114223Y-68076808D01*
X23385776Y-68076808D01*
X23385776Y-68202411D01*
X23387220Y-68215841D01*
X23452070Y-68513952D01*
X23460700Y-68534786D01*
X23588759Y-68734050D01*
X23600562Y-68747671D01*
X23777861Y-68901302D01*
X23793023Y-68911046D01*
X24006424Y-69008503D01*
X24023717Y-69013581D01*
X24197604Y-69038582D01*
X24206581Y-69039224D01*
X24298191Y-69039224D01*
X24372000Y-68965415D01*
X24627999Y-68965415D01*
X24701808Y-69039224D01*
X24777411Y-69039224D01*
X24790841Y-69037780D01*
X25088952Y-68972930D01*
X25109786Y-68964300D01*
X25248032Y-68875455D01*
X25277861Y-68901302D01*
X25293023Y-68911046D01*
X25506424Y-69008503D01*
X25523717Y-69013581D01*
X25697604Y-69038582D01*
X25706581Y-69039224D01*
X25798191Y-69039224D01*
X25872000Y-68965415D01*
X26127999Y-68965415D01*
X26201808Y-69039224D01*
X26277411Y-69039224D01*
X26290841Y-69037780D01*
X26588952Y-68972930D01*
X26609786Y-68964300D01*
X26748032Y-68875455D01*
X26777861Y-68901302D01*
X26793023Y-68911046D01*
X27006424Y-69008503D01*
X27023717Y-69013581D01*
X27197604Y-69038582D01*
X27206581Y-69039224D01*
X27298191Y-69039224D01*
X27372000Y-68965415D01*
X27627999Y-68965415D01*
X27701808Y-69039224D01*
X27777411Y-69039224D01*
X27790841Y-69037780D01*
X28088952Y-68972930D01*
X28109786Y-68964300D01*
X28248032Y-68875455D01*
X28277861Y-68901302D01*
X28293023Y-68911046D01*
X28506424Y-69008503D01*
X28523717Y-69013581D01*
X28697604Y-69038582D01*
X28706581Y-69039224D01*
X28798191Y-69039224D01*
X28872000Y-68965415D01*
X29127999Y-68965415D01*
X29201808Y-69039224D01*
X29277411Y-69039224D01*
X29290841Y-69037780D01*
X29588952Y-68972930D01*
X29609786Y-68964300D01*
X29748032Y-68875455D01*
X29777861Y-68901302D01*
X29793023Y-68911046D01*
X30006424Y-69008503D01*
X30023717Y-69013581D01*
X30197604Y-69038582D01*
X30206581Y-69039224D01*
X30298191Y-69039224D01*
X30372000Y-68965415D01*
X30627999Y-68965415D01*
X30701808Y-69039224D01*
X30777411Y-69039224D01*
X30790841Y-69037780D01*
X31088952Y-68972930D01*
X31109786Y-68964300D01*
X31309050Y-68836241D01*
X31322671Y-68824438D01*
X31476302Y-68647139D01*
X31486046Y-68631977D01*
X31583503Y-68418576D01*
X31588581Y-68401283D01*
X31613582Y-68227396D01*
X31614224Y-68218419D01*
X31614224Y-68076809D01*
X31540415Y-68003000D01*
X30701809Y-68002999D01*
X30628000Y-68076808D01*
X30627999Y-68965415D01*
X30372000Y-68965415D01*
X30372001Y-68076809D01*
X30298192Y-68003000D01*
X29970809Y-68002999D01*
X29970808Y-68003000D01*
X29201809Y-68002999D01*
X29128000Y-68076808D01*
X29127999Y-68965415D01*
X28872000Y-68965415D01*
X28872001Y-68076809D01*
X28798192Y-68003000D01*
X28470809Y-68002999D01*
X28470808Y-68003000D01*
X27701809Y-68002999D01*
X27628000Y-68076808D01*
X27627999Y-68965415D01*
X27372000Y-68965415D01*
X27372001Y-68076809D01*
X27298192Y-68003000D01*
X26970809Y-68002999D01*
X26970808Y-68003000D01*
X26201809Y-68002999D01*
X26128000Y-68076808D01*
X26127999Y-68965415D01*
X25872000Y-68965415D01*
X25872001Y-68076809D01*
X25798192Y-68003000D01*
X25470809Y-68002999D01*
X25470808Y-68003000D01*
X24701809Y-68002999D01*
X24628000Y-68076808D01*
X24627999Y-68965415D01*
X24372000Y-68965415D01*
X24372001Y-68076809D01*
X24298192Y-68003000D01*
X23459585Y-68002999D01*
X23385776Y-68076808D01*
X22114223Y-68076808D01*
X22040415Y-68003000D01*
X21201809Y-68002999D01*
X21128000Y-68076808D01*
X21127999Y-68965415D01*
X20872000Y-68965415D01*
X20872001Y-68076809D01*
X20798192Y-68003000D01*
X20470809Y-68002999D01*
X20470808Y-68003000D01*
X19701809Y-68002999D01*
X19628000Y-68076808D01*
X19627999Y-68965415D01*
X19372000Y-68965415D01*
X19372001Y-68076809D01*
X19298192Y-68003000D01*
X18459585Y-68002999D01*
X18385776Y-68076808D01*
X10634000Y-68076808D01*
X10634000Y-61694499D01*
X15008163Y-61694499D01*
X15008163Y-62608258D01*
X15010319Y-62624634D01*
X15085137Y-62903859D01*
X15097880Y-62928339D01*
X15228990Y-63084590D01*
X15245879Y-63098761D01*
X15420120Y-63199359D01*
X15440837Y-63206900D01*
X15524000Y-63221564D01*
X15524001Y-64192855D01*
X15516521Y-64240084D01*
X15516521Y-64259916D01*
X15549356Y-64467226D01*
X15555484Y-64486088D01*
X15650774Y-64673105D01*
X15662432Y-64689150D01*
X15810850Y-64837568D01*
X15826895Y-64849226D01*
X16013912Y-64944516D01*
X16032774Y-64950644D01*
X16183069Y-64974449D01*
X16240083Y-64983479D01*
X16259916Y-64983479D01*
X16307139Y-64976000D01*
X19145813Y-64976000D01*
X18911048Y-65027070D01*
X18890214Y-65035700D01*
X18690950Y-65163759D01*
X18677329Y-65175562D01*
X18523698Y-65352861D01*
X18513954Y-65368023D01*
X18416497Y-65581424D01*
X18411419Y-65598717D01*
X18386418Y-65772604D01*
X18385776Y-65781581D01*
X18385776Y-66452411D01*
X18387220Y-66465841D01*
X18452070Y-66763952D01*
X18460700Y-66784786D01*
X18588759Y-66984050D01*
X18600562Y-66997671D01*
X18608720Y-67004740D01*
X18523698Y-67102861D01*
X18513954Y-67118023D01*
X18416497Y-67331424D01*
X18411419Y-67348717D01*
X18386418Y-67522604D01*
X18385776Y-67531581D01*
X18385776Y-67673191D01*
X18459585Y-67747000D01*
X19298192Y-67747001D01*
X19298193Y-67747000D01*
X20029191Y-67747001D01*
X20029192Y-67747000D01*
X20798192Y-67747001D01*
X20798193Y-67747000D01*
X22040415Y-67747001D01*
X22114224Y-67673192D01*
X22114224Y-67547589D01*
X22112780Y-67534159D01*
X22047930Y-67236048D01*
X22039300Y-67215214D01*
X21911241Y-67015950D01*
X21899438Y-67002329D01*
X21891280Y-66995260D01*
X21976302Y-66897139D01*
X21986046Y-66881977D01*
X22083503Y-66668576D01*
X22088581Y-66651283D01*
X22113582Y-66477396D01*
X22114224Y-66468419D01*
X22114224Y-65797589D01*
X22112780Y-65784159D01*
X22047930Y-65486048D01*
X22039300Y-65465214D01*
X21911241Y-65265950D01*
X21899438Y-65252329D01*
X21722139Y-65098698D01*
X21706977Y-65088954D01*
X21493576Y-64991497D01*
X21476283Y-64986419D01*
X21403817Y-64976000D01*
X24145813Y-64976000D01*
X23911048Y-65027070D01*
X23890214Y-65035700D01*
X23690950Y-65163759D01*
X23677329Y-65175562D01*
X23523698Y-65352861D01*
X23513954Y-65368023D01*
X23416497Y-65581424D01*
X23411419Y-65598717D01*
X23386418Y-65772604D01*
X23385776Y-65781581D01*
X23385776Y-66452411D01*
X23387220Y-66465841D01*
X23452070Y-66763952D01*
X23460700Y-66784786D01*
X23588759Y-66984050D01*
X23600562Y-66997671D01*
X23608720Y-67004740D01*
X23523698Y-67102861D01*
X23513954Y-67118023D01*
X23416497Y-67331424D01*
X23411419Y-67348717D01*
X23386418Y-67522604D01*
X23385776Y-67531581D01*
X23385776Y-67673191D01*
X23459585Y-67747000D01*
X24298192Y-67747001D01*
X24298193Y-67747000D01*
X25029191Y-67747001D01*
X25029192Y-67747000D01*
X25798192Y-67747001D01*
X25798193Y-67747000D01*
X26529191Y-67747001D01*
X26529192Y-67747000D01*
X27298192Y-67747001D01*
X27298193Y-67747000D01*
X28029191Y-67747001D01*
X28029192Y-67747000D01*
X28798192Y-67747001D01*
X28798193Y-67747000D01*
X29529191Y-67747001D01*
X29529192Y-67747000D01*
X30298192Y-67747001D01*
X30298193Y-67747000D01*
X31540415Y-67747001D01*
X31614224Y-67673192D01*
X31614224Y-67547589D01*
X31612780Y-67534159D01*
X31547930Y-67236048D01*
X31539300Y-67215214D01*
X31411241Y-67015950D01*
X31399438Y-67002329D01*
X31391280Y-66995260D01*
X31476302Y-66897139D01*
X31486046Y-66881977D01*
X31583503Y-66668576D01*
X31588581Y-66651283D01*
X31613582Y-66477396D01*
X31614224Y-66468419D01*
X31614224Y-65797589D01*
X31612780Y-65784159D01*
X31547930Y-65486048D01*
X31539300Y-65465214D01*
X31411241Y-65265950D01*
X31399438Y-65252329D01*
X31222139Y-65098698D01*
X31206977Y-65088954D01*
X30993576Y-64991497D01*
X30976283Y-64986419D01*
X30802396Y-64961418D01*
X30793419Y-64960776D01*
X30222589Y-64960776D01*
X30209159Y-64962220D01*
X29911048Y-65027070D01*
X29890214Y-65035700D01*
X29751968Y-65124545D01*
X29722139Y-65098698D01*
X29706977Y-65088954D01*
X29493576Y-64991497D01*
X29476283Y-64986419D01*
X29302396Y-64961418D01*
X29293419Y-64960776D01*
X28862494Y-64960776D01*
X27712744Y-63811027D01*
X27712739Y-63811020D01*
X27564151Y-63662432D01*
X27548106Y-63650774D01*
X27505502Y-63629066D01*
X27466828Y-63600968D01*
X27449158Y-63591964D01*
X27403689Y-63577190D01*
X27361088Y-63555484D01*
X27342226Y-63549355D01*
X27294997Y-63541875D01*
X27249535Y-63527103D01*
X27229946Y-63524001D01*
X27177438Y-63524001D01*
X27177426Y-63524000D01*
X16976000Y-63524000D01*
X16976000Y-63212520D01*
X17153859Y-63164863D01*
X17178339Y-63152120D01*
X17334590Y-63021010D01*
X17348761Y-63004121D01*
X17449359Y-62829880D01*
X17456900Y-62809163D01*
X17490878Y-62616462D01*
X17491837Y-62605501D01*
X17491837Y-61691742D01*
X17489681Y-61675366D01*
X17414863Y-61396142D01*
X17402120Y-61371662D01*
X17271010Y-61215410D01*
X17254121Y-61201239D01*
X17079880Y-61100641D01*
X17059163Y-61093100D01*
X16866462Y-61059122D01*
X16855501Y-61058163D01*
X15641742Y-61058163D01*
X15625366Y-61060319D01*
X15346142Y-61135137D01*
X15321662Y-61147880D01*
X15165410Y-61278990D01*
X15151239Y-61295879D01*
X15050641Y-61470120D01*
X15043100Y-61490837D01*
X15009122Y-61683538D01*
X15008163Y-61694499D01*
X10634000Y-61694499D01*
X10634000Y-49324076D01*
X11856945Y-49324076D01*
X11867415Y-49441388D01*
X11939009Y-49491145D01*
X11949768Y-49497158D01*
X12142207Y-49581232D01*
X12153929Y-49585040D01*
X12359033Y-49630136D01*
X12371271Y-49631595D01*
X12581229Y-49635993D01*
X12593518Y-49635048D01*
X12800332Y-49598581D01*
X12812202Y-49595266D01*
X13007993Y-49519324D01*
X13018994Y-49513767D01*
X13129232Y-49443809D01*
X13142511Y-49323531D01*
X12552191Y-48733210D01*
X12447809Y-48733210D01*
X11856945Y-49324076D01*
X10634000Y-49324076D01*
X10634000Y-48589158D01*
X11364601Y-48589158D01*
X11365633Y-48601439D01*
X11403542Y-48807994D01*
X11406940Y-48819841D01*
X11484248Y-49015098D01*
X11489881Y-49026059D01*
X11556681Y-49129712D01*
X11676466Y-49142513D01*
X12266790Y-48552191D01*
X12266790Y-48447809D01*
X12733210Y-48447809D01*
X12733210Y-48552191D01*
X13324287Y-49143267D01*
X13441100Y-49133252D01*
X13487203Y-49067897D01*
X13493291Y-49057181D01*
X13578708Y-48865334D01*
X13582599Y-48853638D01*
X13629222Y-48648423D01*
X13630786Y-48635309D01*
X13634123Y-48396318D01*
X13632926Y-48383165D01*
X13592050Y-48176727D01*
X13588488Y-48164928D01*
X13508461Y-47970770D01*
X13502675Y-47959888D01*
X13442443Y-47869233D01*
X13323645Y-47857375D01*
X12733210Y-48447809D01*
X12266790Y-48447809D01*
X11676103Y-47857123D01*
X11558295Y-47868052D01*
X11504963Y-47945942D01*
X11499026Y-47956742D01*
X11416296Y-48149763D01*
X11412570Y-48161511D01*
X11368907Y-48366927D01*
X11367533Y-48379175D01*
X11364601Y-48589158D01*
X10634000Y-48589158D01*
X10634000Y-47676429D01*
X11857449Y-47676429D01*
X12447809Y-48266790D01*
X12552191Y-48266790D01*
X13142734Y-47676246D01*
X13131342Y-47557943D01*
X13047099Y-47501119D01*
X13036257Y-47495257D01*
X12842662Y-47413878D01*
X12830888Y-47410234D01*
X12625173Y-47368006D01*
X12612916Y-47366718D01*
X12402917Y-47365252D01*
X12390643Y-47366369D01*
X12184360Y-47405720D01*
X12172536Y-47409199D01*
X11977824Y-47487868D01*
X11966901Y-47493579D01*
X11869776Y-47557136D01*
X11857449Y-47676429D01*
X10634000Y-47676429D01*
X10634000Y-45839158D01*
X11864601Y-45839158D01*
X11865633Y-45851439D01*
X11903542Y-46057994D01*
X11906940Y-46069841D01*
X11984248Y-46265098D01*
X11989881Y-46276059D01*
X12103642Y-46452581D01*
X12111297Y-46462240D01*
X12257178Y-46613305D01*
X12266564Y-46621293D01*
X12439008Y-46741145D01*
X12449767Y-46747158D01*
X12642207Y-46831232D01*
X12653929Y-46835040D01*
X12859033Y-46880136D01*
X12871271Y-46881595D01*
X13081229Y-46885993D01*
X13093518Y-46885048D01*
X13300332Y-46848581D01*
X13312202Y-46845266D01*
X13507993Y-46769324D01*
X13518994Y-46763767D01*
X13696306Y-46651241D01*
X13706018Y-46643654D01*
X13858098Y-46498831D01*
X13866151Y-46489501D01*
X13987204Y-46317897D01*
X13993291Y-46307181D01*
X14078708Y-46115334D01*
X14082599Y-46103638D01*
X14129222Y-45898423D01*
X14130786Y-45885309D01*
X14134123Y-45646318D01*
X14132926Y-45633165D01*
X14092050Y-45426727D01*
X14088488Y-45414928D01*
X14008461Y-45220770D01*
X14002675Y-45209888D01*
X13886461Y-45034972D01*
X13878671Y-45025421D01*
X13730696Y-44876408D01*
X13721199Y-44868552D01*
X13547099Y-44751119D01*
X13536257Y-44745257D01*
X13342662Y-44663878D01*
X13330888Y-44660234D01*
X13125173Y-44618006D01*
X13112916Y-44616718D01*
X12902917Y-44615252D01*
X12890643Y-44616369D01*
X12684360Y-44655720D01*
X12672536Y-44659199D01*
X12477824Y-44737868D01*
X12466902Y-44743578D01*
X12291178Y-44858569D01*
X12281572Y-44866292D01*
X12131531Y-45013223D01*
X12123608Y-45022665D01*
X12004963Y-45195942D01*
X11999026Y-45206742D01*
X11916296Y-45399763D01*
X11912570Y-45411511D01*
X11868907Y-45616927D01*
X11867533Y-45629175D01*
X11864601Y-45839158D01*
X10634000Y-45839158D01*
X10634000Y-25394499D01*
X10758163Y-25394499D01*
X10758163Y-27108258D01*
X10760319Y-27124634D01*
X10835137Y-27403859D01*
X10847880Y-27428339D01*
X10978990Y-27584590D01*
X10995879Y-27598761D01*
X11170120Y-27699359D01*
X11190837Y-27706900D01*
X11227029Y-27713282D01*
X11102029Y-27841822D01*
X11095263Y-27850074D01*
X10958683Y-28048798D01*
X10953403Y-28058073D01*
X10852260Y-28276968D01*
X10848618Y-28287000D01*
X10785802Y-28519807D01*
X10783903Y-28530309D01*
X10761211Y-28770372D01*
X10761109Y-28781043D01*
X10779188Y-29021497D01*
X10780885Y-29032034D01*
X10839221Y-29266005D01*
X10842669Y-29276104D01*
X10939591Y-29496900D01*
X10944692Y-29506275D01*
X11077430Y-29707584D01*
X11084038Y-29715965D01*
X11248798Y-29892032D01*
X11256722Y-29899180D01*
X11448792Y-30044968D01*
X11457808Y-30050679D01*
X11671696Y-30162021D01*
X11681545Y-30166131D01*
X11911134Y-30239844D01*
X11921535Y-30242236D01*
X12160262Y-30276212D01*
X12170917Y-30276817D01*
X12411956Y-30270084D01*
X12422561Y-30268885D01*
X12659019Y-30221636D01*
X12669270Y-30218667D01*
X12894387Y-30132253D01*
X12903991Y-30127600D01*
X13111330Y-30004491D01*
X13120012Y-29998286D01*
X13303645Y-29842004D01*
X13311158Y-29834424D01*
X13465833Y-29649435D01*
X13471962Y-29640698D01*
X13593256Y-29432294D01*
X13597825Y-29422650D01*
X13682272Y-29196787D01*
X13685151Y-29186511D01*
X13730392Y-28949351D01*
X13731507Y-28938128D01*
X13734077Y-28670341D01*
X13733178Y-28659099D01*
X13692499Y-28421114D01*
X13689817Y-28410784D01*
X13609723Y-28183343D01*
X13605339Y-28173612D01*
X13488067Y-27962916D01*
X13482107Y-27954064D01*
X13331013Y-27766140D01*
X13323647Y-27758417D01*
X13261130Y-27703107D01*
X13403859Y-27664863D01*
X13428339Y-27652120D01*
X13584590Y-27521010D01*
X13598761Y-27504121D01*
X13699359Y-27329880D01*
X13706900Y-27309163D01*
X13740878Y-27116462D01*
X13741837Y-27105501D01*
X13741837Y-25391742D01*
X13739681Y-25375366D01*
X13664863Y-25096142D01*
X13652120Y-25071662D01*
X13521010Y-24915410D01*
X13504121Y-24901239D01*
X13329880Y-24800641D01*
X13309163Y-24793100D01*
X13116462Y-24759122D01*
X13105501Y-24758163D01*
X11391742Y-24758163D01*
X11375366Y-24760319D01*
X11096142Y-24835137D01*
X11071662Y-24847880D01*
X10915410Y-24978990D01*
X10901239Y-24995879D01*
X10800641Y-25170120D01*
X10793100Y-25190837D01*
X10759122Y-25383538D01*
X10758163Y-25394499D01*
X10634000Y-25394499D01*
X10634000Y-18634000D01*
X14583902Y-18634000D01*
X14091891Y-19126012D01*
X14091408Y-19125593D01*
X14076246Y-19115849D01*
X13859542Y-19016884D01*
X13842249Y-19011806D01*
X13665671Y-18986418D01*
X13656694Y-18985776D01*
X12859621Y-18985776D01*
X12846191Y-18987220D01*
X12543376Y-19053093D01*
X12522542Y-19061723D01*
X12320224Y-19191745D01*
X12306603Y-19203548D01*
X12150593Y-19383592D01*
X12140849Y-19398754D01*
X12041884Y-19615458D01*
X12036806Y-19632751D01*
X12011418Y-19809329D01*
X12010776Y-19818306D01*
X12010776Y-21165379D01*
X12012220Y-21178809D01*
X12078093Y-21481624D01*
X12086723Y-21502458D01*
X12216745Y-21704776D01*
X12228548Y-21718397D01*
X12408592Y-21874407D01*
X12423754Y-21884151D01*
X12524001Y-21929932D01*
X12524001Y-22469808D01*
X12473698Y-22527861D01*
X12463954Y-22543023D01*
X12366497Y-22756424D01*
X12361419Y-22773717D01*
X12336418Y-22947604D01*
X12335776Y-22956581D01*
X12335776Y-23527411D01*
X12337220Y-23540841D01*
X12402070Y-23838952D01*
X12410700Y-23859786D01*
X12538759Y-24059050D01*
X12550562Y-24072671D01*
X12727861Y-24226302D01*
X12743023Y-24236046D01*
X12956424Y-24333503D01*
X12973717Y-24338581D01*
X13147604Y-24363582D01*
X13156581Y-24364224D01*
X13827411Y-24364224D01*
X13840841Y-24362780D01*
X14138952Y-24297930D01*
X14159786Y-24289300D01*
X14359050Y-24161241D01*
X14372671Y-24149438D01*
X14379740Y-24141280D01*
X14477861Y-24226302D01*
X14493023Y-24236046D01*
X14706424Y-24333503D01*
X14723717Y-24338581D01*
X14897604Y-24363582D01*
X14906581Y-24364224D01*
X15048191Y-24364224D01*
X15122000Y-24290415D01*
X15122000Y-23451809D01*
X15378000Y-23451809D01*
X15378000Y-24290415D01*
X15451809Y-24364224D01*
X15577411Y-24364224D01*
X15590841Y-24362780D01*
X15888952Y-24297930D01*
X15909786Y-24289300D01*
X16109050Y-24161241D01*
X16122671Y-24149438D01*
X16276302Y-23972139D01*
X16286046Y-23956977D01*
X16383503Y-23743576D01*
X16388581Y-23726283D01*
X16413582Y-23552396D01*
X16414224Y-23543419D01*
X16414224Y-23451809D01*
X16340415Y-23378000D01*
X15451809Y-23378000D01*
X15378000Y-23451809D01*
X15122000Y-23451809D01*
X15122000Y-22209585D01*
X15378000Y-22209585D01*
X15378000Y-23048191D01*
X15451809Y-23122000D01*
X16340415Y-23122000D01*
X16414224Y-23048191D01*
X16414224Y-22972589D01*
X16412780Y-22959159D01*
X16347930Y-22661048D01*
X16339300Y-22640214D01*
X16211241Y-22440950D01*
X16199438Y-22427329D01*
X16022139Y-22273698D01*
X16006977Y-22263954D01*
X15793576Y-22166497D01*
X15776283Y-22161419D01*
X15602396Y-22136418D01*
X15593419Y-22135776D01*
X15451809Y-22135776D01*
X15378000Y-22209585D01*
X15122000Y-22209585D01*
X15048191Y-22135776D01*
X14922589Y-22135776D01*
X14909159Y-22137220D01*
X14611048Y-22202070D01*
X14590214Y-22210700D01*
X14390950Y-22338759D01*
X14377329Y-22350562D01*
X14370260Y-22358720D01*
X14272139Y-22273698D01*
X14256977Y-22263954D01*
X14043576Y-22166497D01*
X14026283Y-22161419D01*
X13976000Y-22154190D01*
X13976000Y-21938881D01*
X13977459Y-21938277D01*
X14179776Y-21808255D01*
X14193397Y-21796452D01*
X14346204Y-21620104D01*
X14491317Y-21754247D01*
X14500483Y-21761280D01*
X14682475Y-21876108D01*
X14692769Y-21881353D01*
X14892639Y-21961094D01*
X14903716Y-21964375D01*
X15029867Y-21989468D01*
X15122000Y-21913857D01*
X15122000Y-20701809D01*
X15378000Y-20701809D01*
X15378000Y-21914259D01*
X15467596Y-21989774D01*
X15565031Y-21973032D01*
X15576191Y-21970042D01*
X15778080Y-21895561D01*
X15788509Y-21890587D01*
X15973444Y-21780562D01*
X15982790Y-21773771D01*
X16144578Y-21631887D01*
X16152531Y-21623506D01*
X16285753Y-21454514D01*
X16292046Y-21444824D01*
X16392241Y-21254383D01*
X16396662Y-21243709D01*
X16460598Y-21037805D01*
X16463093Y-21025679D01*
X16483655Y-20830044D01*
X16484000Y-20823454D01*
X16484000Y-20701809D01*
X16410191Y-20628000D01*
X15451809Y-20628000D01*
X15378000Y-20701809D01*
X15122000Y-20701809D01*
X15122000Y-20372000D01*
X16410191Y-20372000D01*
X16484000Y-20298191D01*
X16484000Y-20170463D01*
X16483736Y-20164696D01*
X16469056Y-20004936D01*
X16466950Y-19993576D01*
X16445071Y-19916000D01*
X18609800Y-19916000D01*
X18660137Y-20103859D01*
X18672880Y-20128339D01*
X18803990Y-20284590D01*
X18820879Y-20298761D01*
X18995120Y-20399359D01*
X19015837Y-20406900D01*
X19208538Y-20440878D01*
X19219499Y-20441837D01*
X19883258Y-20441837D01*
X19899634Y-20439681D01*
X20178859Y-20364863D01*
X20203339Y-20352120D01*
X20359590Y-20221010D01*
X20373761Y-20204121D01*
X20474359Y-20029880D01*
X20481900Y-20009163D01*
X20502881Y-19890175D01*
X20560137Y-20103859D01*
X20572880Y-20128339D01*
X20703990Y-20284590D01*
X20720879Y-20298761D01*
X20724000Y-20300563D01*
X20724000Y-20558163D01*
X20166742Y-20558163D01*
X20150366Y-20560319D01*
X19871142Y-20635137D01*
X19846662Y-20647880D01*
X19690410Y-20778990D01*
X19676239Y-20795879D01*
X19575641Y-20970120D01*
X19568100Y-20990837D01*
X19534122Y-21183538D01*
X19533163Y-21194499D01*
X19533163Y-22428258D01*
X19535319Y-22444634D01*
X19610137Y-22723859D01*
X19622880Y-22748339D01*
X19753990Y-22904590D01*
X19770879Y-22918761D01*
X19774000Y-22920563D01*
X19774001Y-24104970D01*
X19774001Y-24304946D01*
X19777104Y-24324535D01*
X19791877Y-24370003D01*
X19799357Y-24417226D01*
X19805485Y-24436089D01*
X19827192Y-24478690D01*
X19841964Y-24524157D01*
X19850968Y-24541829D01*
X19879073Y-24580512D01*
X19900775Y-24623105D01*
X19912432Y-24639150D01*
X20071409Y-24798127D01*
X20128265Y-25001765D01*
X20135496Y-25018198D01*
X20260024Y-25218259D01*
X20271576Y-25232002D01*
X20447249Y-25389071D01*
X20462193Y-25399019D01*
X20674888Y-25500470D01*
X20692025Y-25505824D01*
X20924646Y-25543500D01*
X20942596Y-25543829D01*
X21176440Y-25514702D01*
X21193761Y-25509980D01*
X21410032Y-25416392D01*
X21425331Y-25406998D01*
X21606642Y-25256471D01*
X21618690Y-25243161D01*
X21750464Y-25047796D01*
X21758292Y-25031640D01*
X21830056Y-24806775D01*
X21833050Y-24788289D01*
X21836165Y-24533328D01*
X21833624Y-24514774D01*
X21767376Y-24288223D01*
X21759945Y-24271879D01*
X21632983Y-24073354D01*
X21621264Y-24059753D01*
X21443685Y-23904841D01*
X21428620Y-23895076D01*
X21226000Y-23801453D01*
X21226000Y-23359952D01*
X21227109Y-23360132D01*
X21245059Y-23360461D01*
X21478903Y-23331334D01*
X21496224Y-23326612D01*
X21712495Y-23233024D01*
X21727794Y-23223630D01*
X21909105Y-23073103D01*
X21921153Y-23059793D01*
X22052927Y-22864428D01*
X22060755Y-22848272D01*
X22132519Y-22623407D01*
X22135513Y-22604921D01*
X22136540Y-22520837D01*
X22144516Y-22505184D01*
X22150645Y-22486321D01*
X22158124Y-22439099D01*
X22172897Y-22393632D01*
X22176000Y-22374043D01*
X22176000Y-20291150D01*
X22259590Y-20221010D01*
X22273761Y-20204121D01*
X22374359Y-20029880D01*
X22381900Y-20009163D01*
X22415878Y-19816462D01*
X22416837Y-19805501D01*
X22416837Y-19249881D01*
X23146749Y-18519970D01*
X23187568Y-18479151D01*
X23199226Y-18463106D01*
X23220933Y-18420504D01*
X23249032Y-18381828D01*
X23258035Y-18364158D01*
X23272810Y-18318688D01*
X23294516Y-18276088D01*
X23300645Y-18257226D01*
X23308124Y-18210003D01*
X23322897Y-18164536D01*
X23326000Y-18144948D01*
X23326000Y-17981837D01*
X23408258Y-17981837D01*
X23424634Y-17979681D01*
X23485007Y-17963505D01*
X23583538Y-17980878D01*
X23594499Y-17981837D01*
X23644507Y-17981837D01*
X23680156Y-18109520D01*
X23687387Y-18125953D01*
X23811915Y-18326014D01*
X23823467Y-18339757D01*
X23999140Y-18496826D01*
X24014084Y-18506774D01*
X24226779Y-18608225D01*
X24243916Y-18613579D01*
X24367345Y-18633570D01*
X24428265Y-18851765D01*
X24435496Y-18868198D01*
X24560024Y-19068259D01*
X24571576Y-19082002D01*
X24747249Y-19239071D01*
X24762193Y-19249019D01*
X24974888Y-19350470D01*
X24992025Y-19355824D01*
X25109702Y-19374883D01*
X25013012Y-19388128D01*
X24995750Y-19393061D01*
X24780639Y-19489285D01*
X24765456Y-19498865D01*
X24585998Y-19651596D01*
X24574114Y-19665053D01*
X24444735Y-19862013D01*
X24437105Y-19878264D01*
X24368207Y-20103618D01*
X24365445Y-20121358D01*
X24362567Y-20356993D01*
X24364895Y-20374794D01*
X24428265Y-20601765D01*
X24435496Y-20618198D01*
X24524001Y-20760385D01*
X24524000Y-26949282D01*
X20096605Y-31376678D01*
X20013013Y-31388128D01*
X19995751Y-31393061D01*
X19780639Y-31489285D01*
X19765456Y-31498865D01*
X19585998Y-31651596D01*
X19574114Y-31665053D01*
X19444735Y-31862013D01*
X19437105Y-31878264D01*
X19368207Y-32103618D01*
X19365445Y-32121358D01*
X19362567Y-32356993D01*
X19364895Y-32374794D01*
X19428265Y-32601765D01*
X19435496Y-32618198D01*
X19560024Y-32818259D01*
X19571576Y-32832002D01*
X19747249Y-32989071D01*
X19762193Y-32999019D01*
X19814566Y-33024000D01*
X19515647Y-33024000D01*
X19493685Y-33004841D01*
X19478620Y-32995076D01*
X19264700Y-32896232D01*
X19247500Y-32891088D01*
X19014436Y-32856256D01*
X18996483Y-32856147D01*
X18763012Y-32888128D01*
X18745750Y-32893061D01*
X18530639Y-32989285D01*
X18515456Y-32998865D01*
X18335998Y-33151596D01*
X18324114Y-33165053D01*
X18194735Y-33362013D01*
X18187105Y-33378264D01*
X18118207Y-33603618D01*
X18115445Y-33621358D01*
X18112567Y-33856993D01*
X18114895Y-33874794D01*
X18178265Y-34101765D01*
X18185496Y-34118198D01*
X18310024Y-34318259D01*
X18321576Y-34332002D01*
X18497249Y-34489071D01*
X18512193Y-34499019D01*
X18724888Y-34600470D01*
X18742025Y-34605824D01*
X18974646Y-34643500D01*
X18992596Y-34643829D01*
X19226440Y-34614702D01*
X19243761Y-34609980D01*
X19460032Y-34516392D01*
X19475331Y-34506998D01*
X19512669Y-34476000D01*
X21052426Y-34476000D01*
X21052438Y-34475999D01*
X21104946Y-34475999D01*
X21124535Y-34472897D01*
X21169997Y-34458125D01*
X21217226Y-34450645D01*
X21236088Y-34444516D01*
X21278689Y-34422810D01*
X21324158Y-34408036D01*
X21341828Y-34399032D01*
X21380502Y-34370934D01*
X21423106Y-34349226D01*
X21439151Y-34337568D01*
X21587739Y-34188980D01*
X21587742Y-34188976D01*
X22152850Y-33623868D01*
X22226440Y-33614702D01*
X22243761Y-33609980D01*
X22460032Y-33516392D01*
X22475331Y-33506998D01*
X22656642Y-33356471D01*
X22668690Y-33343161D01*
X22800464Y-33147796D01*
X22808292Y-33131640D01*
X22880056Y-32906775D01*
X22883050Y-32888289D01*
X22886165Y-32633328D01*
X22883624Y-32614774D01*
X22817376Y-32388223D01*
X22809945Y-32371879D01*
X22682983Y-32173354D01*
X22671264Y-32159753D01*
X22493685Y-32004841D01*
X22478620Y-31995076D01*
X22264700Y-31896232D01*
X22247500Y-31891088D01*
X22014436Y-31856256D01*
X21996483Y-31856147D01*
X21763012Y-31888128D01*
X21745750Y-31893061D01*
X21542930Y-31983787D01*
X25796749Y-27729969D01*
X25837568Y-27689151D01*
X25849226Y-27673106D01*
X25870933Y-27630504D01*
X25899032Y-27591828D01*
X25908035Y-27574158D01*
X25922810Y-27528688D01*
X25944516Y-27486088D01*
X25950645Y-27467226D01*
X25958124Y-27420003D01*
X25972897Y-27374536D01*
X25976000Y-27354948D01*
X25976000Y-20758195D01*
X26000254Y-20722236D01*
X26024001Y-20760385D01*
X26024000Y-32699282D01*
X21096605Y-37626678D01*
X21013013Y-37638128D01*
X20995751Y-37643061D01*
X20780639Y-37739285D01*
X20765456Y-37748865D01*
X20585998Y-37901596D01*
X20574114Y-37915053D01*
X20444735Y-38112013D01*
X20437105Y-38128264D01*
X20368207Y-38353618D01*
X20365445Y-38371358D01*
X20362567Y-38606993D01*
X20364895Y-38624794D01*
X20428265Y-38851765D01*
X20435496Y-38868198D01*
X20560024Y-39068259D01*
X20571576Y-39082002D01*
X20740365Y-39232916D01*
X20699282Y-39274000D01*
X19765647Y-39274000D01*
X19743685Y-39254841D01*
X19728620Y-39245076D01*
X19514700Y-39146232D01*
X19497500Y-39141088D01*
X19264436Y-39106256D01*
X19246483Y-39106147D01*
X19013012Y-39138128D01*
X18995750Y-39143061D01*
X18780639Y-39239285D01*
X18765456Y-39248865D01*
X18585998Y-39401596D01*
X18574114Y-39415053D01*
X18444735Y-39612013D01*
X18437105Y-39628264D01*
X18368207Y-39853618D01*
X18365445Y-39871358D01*
X18362567Y-40106993D01*
X18364895Y-40124794D01*
X18428265Y-40351765D01*
X18435496Y-40368198D01*
X18560024Y-40568259D01*
X18571576Y-40582002D01*
X18747249Y-40739071D01*
X18762193Y-40749019D01*
X18974888Y-40850470D01*
X18992025Y-40855824D01*
X19224646Y-40893500D01*
X19242596Y-40893829D01*
X19476440Y-40864702D01*
X19493761Y-40859980D01*
X19710032Y-40766392D01*
X19725331Y-40756998D01*
X19762669Y-40726000D01*
X21052426Y-40726000D01*
X21052438Y-40725999D01*
X21104946Y-40725999D01*
X21124535Y-40722897D01*
X21169997Y-40708125D01*
X21217226Y-40700645D01*
X21236088Y-40694516D01*
X21278689Y-40672810D01*
X21324158Y-40658036D01*
X21341828Y-40649032D01*
X21380502Y-40620934D01*
X21423106Y-40599226D01*
X21439151Y-40587568D01*
X21587739Y-40438980D01*
X21587744Y-40438973D01*
X21708163Y-40318554D01*
X21708163Y-40977095D01*
X18994479Y-40977095D01*
X18994467Y-40977096D01*
X18941957Y-40977096D01*
X18922369Y-40980198D01*
X18876907Y-40994970D01*
X18829678Y-41002451D01*
X18810817Y-41008579D01*
X18768218Y-41030284D01*
X18722746Y-41045059D01*
X18705075Y-41054063D01*
X18666396Y-41082166D01*
X18623800Y-41103869D01*
X18607755Y-41115526D01*
X18570110Y-41153171D01*
X18570096Y-41153184D01*
X15846605Y-43876678D01*
X15763013Y-43888128D01*
X15745751Y-43893061D01*
X15530639Y-43989285D01*
X15515456Y-43998865D01*
X15335998Y-44151596D01*
X15324114Y-44165053D01*
X15194735Y-44362013D01*
X15187105Y-44378264D01*
X15118207Y-44603618D01*
X15115445Y-44621358D01*
X15112567Y-44856993D01*
X15114895Y-44874794D01*
X15178265Y-45101765D01*
X15185496Y-45118198D01*
X15310024Y-45318259D01*
X15321576Y-45332002D01*
X15497249Y-45489071D01*
X15512193Y-45499019D01*
X15724888Y-45600470D01*
X15742025Y-45605824D01*
X15974646Y-45643500D01*
X15992596Y-45643829D01*
X16226440Y-45614702D01*
X16243761Y-45609980D01*
X16343322Y-45566896D01*
X16254963Y-45695942D01*
X16249026Y-45706742D01*
X16166296Y-45899763D01*
X16162570Y-45911511D01*
X16118907Y-46116927D01*
X16117533Y-46129175D01*
X16114601Y-46339158D01*
X16115633Y-46351439D01*
X16153542Y-46557994D01*
X16156940Y-46569841D01*
X16159839Y-46577164D01*
X16047099Y-46501119D01*
X16036257Y-46495257D01*
X15842662Y-46413878D01*
X15830888Y-46410234D01*
X15625173Y-46368006D01*
X15612916Y-46366718D01*
X15402917Y-46365252D01*
X15390643Y-46366369D01*
X15184360Y-46405720D01*
X15172536Y-46409199D01*
X14977824Y-46487868D01*
X14966902Y-46493578D01*
X14791178Y-46608569D01*
X14781572Y-46616292D01*
X14631531Y-46763223D01*
X14623608Y-46772665D01*
X14504963Y-46945942D01*
X14499026Y-46956742D01*
X14416296Y-47149763D01*
X14412570Y-47161511D01*
X14368907Y-47366927D01*
X14367533Y-47379175D01*
X14364601Y-47589158D01*
X14365633Y-47601439D01*
X14403542Y-47807994D01*
X14406940Y-47819841D01*
X14484248Y-48015098D01*
X14489881Y-48026059D01*
X14603642Y-48202581D01*
X14611297Y-48212240D01*
X14757178Y-48363305D01*
X14766564Y-48371293D01*
X14939008Y-48491145D01*
X14949767Y-48497158D01*
X15142207Y-48581232D01*
X15153929Y-48585040D01*
X15359033Y-48630136D01*
X15371271Y-48631595D01*
X15581229Y-48635993D01*
X15593518Y-48635048D01*
X15800332Y-48598581D01*
X15812202Y-48595266D01*
X16007993Y-48519324D01*
X16018994Y-48513767D01*
X16196306Y-48401241D01*
X16206018Y-48393654D01*
X16358098Y-48248831D01*
X16366151Y-48239501D01*
X16487204Y-48067897D01*
X16493291Y-48057181D01*
X16578708Y-47865334D01*
X16582599Y-47853638D01*
X16629222Y-47648423D01*
X16630786Y-47635309D01*
X16634123Y-47396318D01*
X16632926Y-47383165D01*
X16592050Y-47176727D01*
X16590915Y-47172969D01*
X16689008Y-47241145D01*
X16699767Y-47247158D01*
X16892207Y-47331232D01*
X16903929Y-47335040D01*
X17109033Y-47380136D01*
X17121271Y-47381595D01*
X17331229Y-47385993D01*
X17343518Y-47385048D01*
X17550332Y-47348581D01*
X17562202Y-47345266D01*
X17757993Y-47269324D01*
X17768994Y-47263767D01*
X17946306Y-47151241D01*
X17956018Y-47143654D01*
X18024001Y-47078915D01*
X18024001Y-47266343D01*
X17758652Y-47531693D01*
X17675061Y-47543143D01*
X17657799Y-47548076D01*
X17442687Y-47644300D01*
X17427504Y-47653880D01*
X17248046Y-47806611D01*
X17236162Y-47820068D01*
X17106783Y-48017028D01*
X17099153Y-48033279D01*
X17030255Y-48258633D01*
X17027493Y-48276373D01*
X17024615Y-48512008D01*
X17026943Y-48529809D01*
X17090313Y-48756780D01*
X17097544Y-48773213D01*
X17156812Y-48868430D01*
X17013012Y-48888128D01*
X16995750Y-48893061D01*
X16780639Y-48989285D01*
X16765456Y-48998865D01*
X16585998Y-49151596D01*
X16574114Y-49165053D01*
X16444735Y-49362013D01*
X16437105Y-49378264D01*
X16368207Y-49603618D01*
X16365445Y-49621358D01*
X16362567Y-49856993D01*
X16364895Y-49874794D01*
X16428265Y-50101765D01*
X16435496Y-50118198D01*
X16560024Y-50318259D01*
X16571576Y-50332002D01*
X16747249Y-50489071D01*
X16762193Y-50499019D01*
X16974888Y-50600470D01*
X16992025Y-50605824D01*
X17224646Y-50643500D01*
X17242596Y-50643829D01*
X17476440Y-50614702D01*
X17493761Y-50609980D01*
X17710032Y-50516392D01*
X17725331Y-50506998D01*
X17762669Y-50476000D01*
X18670572Y-50476000D01*
X18670584Y-50475999D01*
X18723092Y-50475999D01*
X18742681Y-50472897D01*
X18788143Y-50458125D01*
X18835372Y-50450645D01*
X18854234Y-50444516D01*
X18896835Y-50422810D01*
X18942304Y-50408036D01*
X18959974Y-50399032D01*
X18998648Y-50370934D01*
X19041252Y-50349226D01*
X19057297Y-50337568D01*
X19205885Y-50188980D01*
X19205888Y-50188976D01*
X19624000Y-49770865D01*
X19624000Y-52302191D01*
X19697809Y-52376000D01*
X30302191Y-52376000D01*
X30376000Y-52302191D01*
X30376000Y-48947809D01*
X30302191Y-48874000D01*
X21885528Y-48874000D01*
X21906642Y-48856471D01*
X21918690Y-48843161D01*
X22050464Y-48647796D01*
X22058292Y-48631640D01*
X22130056Y-48406775D01*
X22133050Y-48388289D01*
X22136165Y-48133328D01*
X22133624Y-48114774D01*
X22067376Y-47888223D01*
X22059945Y-47871879D01*
X21932983Y-47673354D01*
X21921264Y-47659753D01*
X21743685Y-47504841D01*
X21728620Y-47495076D01*
X21514700Y-47396232D01*
X21497500Y-47391088D01*
X21417584Y-47379144D01*
X21895963Y-46900766D01*
X21974646Y-46913510D01*
X21992596Y-46913839D01*
X22226440Y-46884712D01*
X22243761Y-46879990D01*
X22460032Y-46786402D01*
X22475331Y-46777008D01*
X22565910Y-46701808D01*
X23708163Y-46701808D01*
X23708163Y-47258258D01*
X23710319Y-47274634D01*
X23785137Y-47553859D01*
X23797880Y-47578339D01*
X23928990Y-47734590D01*
X23945879Y-47748761D01*
X24120120Y-47849359D01*
X24140837Y-47856900D01*
X24333538Y-47890878D01*
X24344499Y-47891837D01*
X24423191Y-47891837D01*
X24497000Y-47818028D01*
X24752999Y-47818028D01*
X24826808Y-47891837D01*
X24908258Y-47891837D01*
X24924634Y-47889681D01*
X25203859Y-47814863D01*
X25228339Y-47802120D01*
X25384590Y-47671010D01*
X25398761Y-47654121D01*
X25499359Y-47479880D01*
X25506900Y-47459163D01*
X25540878Y-47266462D01*
X25541837Y-47255501D01*
X25541837Y-46701809D01*
X25468028Y-46628000D01*
X24826809Y-46627999D01*
X24753000Y-46701808D01*
X24752999Y-47818028D01*
X24497000Y-47818028D01*
X24497001Y-46701809D01*
X24423192Y-46628000D01*
X23781972Y-46627999D01*
X23708163Y-46701808D01*
X22565910Y-46701808D01*
X22656642Y-46626481D01*
X22668690Y-46613171D01*
X22800464Y-46417806D01*
X22808292Y-46401650D01*
X22818941Y-46368282D01*
X22974646Y-46393500D01*
X22992596Y-46393829D01*
X23226440Y-46364702D01*
X23243761Y-46359980D01*
X23460032Y-46266392D01*
X23475331Y-46256998D01*
X23656642Y-46106471D01*
X23668690Y-46093161D01*
X23708163Y-46034639D01*
X23708163Y-46298191D01*
X23781972Y-46372000D01*
X24423191Y-46372001D01*
X24497000Y-46298192D01*
X24497000Y-46298191D01*
X24752999Y-46298191D01*
X24826808Y-46372000D01*
X25468028Y-46372001D01*
X25541837Y-46298192D01*
X25541837Y-45741742D01*
X25539681Y-45725366D01*
X25464863Y-45446142D01*
X25452120Y-45421662D01*
X25321010Y-45265410D01*
X25304121Y-45251239D01*
X25129880Y-45150641D01*
X25109163Y-45143100D01*
X24916462Y-45109122D01*
X24905501Y-45108163D01*
X24826809Y-45108163D01*
X24753000Y-45181972D01*
X24752999Y-46298191D01*
X24497000Y-46298191D01*
X24497001Y-45181972D01*
X24423192Y-45108163D01*
X24341742Y-45108163D01*
X24325366Y-45110319D01*
X24046142Y-45185137D01*
X24021662Y-45197880D01*
X23871633Y-45323768D01*
X23817376Y-45138223D01*
X23809945Y-45121879D01*
X23716652Y-44976000D01*
X27718887Y-44976000D01*
X27851050Y-45108163D01*
X27591742Y-45108163D01*
X27575366Y-45110319D01*
X27296142Y-45185137D01*
X27271662Y-45197880D01*
X27115410Y-45328990D01*
X27101239Y-45345879D01*
X27000641Y-45520120D01*
X26993100Y-45540837D01*
X26959122Y-45733538D01*
X26958163Y-45744499D01*
X26958163Y-47258258D01*
X26960319Y-47274634D01*
X27035137Y-47553859D01*
X27047880Y-47578339D01*
X27178990Y-47734590D01*
X27195879Y-47748761D01*
X27370120Y-47849359D01*
X27390837Y-47856900D01*
X27583538Y-47890878D01*
X27594499Y-47891837D01*
X28158258Y-47891837D01*
X28174634Y-47889681D01*
X28453859Y-47814863D01*
X28478339Y-47802120D01*
X28634590Y-47671010D01*
X28648761Y-47654121D01*
X28749359Y-47479880D01*
X28756900Y-47459163D01*
X28790878Y-47266462D01*
X28791837Y-47255501D01*
X28791837Y-46048950D01*
X30544002Y-47801116D01*
X30544003Y-54687203D01*
X27482192Y-57749015D01*
X27550464Y-57647796D01*
X27558292Y-57631640D01*
X27630056Y-57406775D01*
X27633050Y-57388289D01*
X27636165Y-57133328D01*
X27633624Y-57114774D01*
X27567376Y-56888223D01*
X27559945Y-56871879D01*
X27476000Y-56740618D01*
X27476000Y-56008195D01*
X27550464Y-55897796D01*
X27558292Y-55881640D01*
X27630056Y-55656775D01*
X27633050Y-55638289D01*
X27636165Y-55383328D01*
X27633624Y-55364774D01*
X27567376Y-55138223D01*
X27559945Y-55121879D01*
X27432983Y-54923354D01*
X27421264Y-54909753D01*
X27243685Y-54754841D01*
X27228620Y-54745076D01*
X27014700Y-54646232D01*
X26997500Y-54641088D01*
X26764436Y-54606256D01*
X26746483Y-54606147D01*
X26513012Y-54638128D01*
X26495750Y-54643061D01*
X26280639Y-54739285D01*
X26265456Y-54748865D01*
X26085998Y-54901596D01*
X26074114Y-54915053D01*
X25944735Y-55112013D01*
X25937105Y-55128264D01*
X25868207Y-55353618D01*
X25865445Y-55371358D01*
X25862567Y-55606993D01*
X25864895Y-55624794D01*
X25928265Y-55851765D01*
X25935496Y-55868198D01*
X26024001Y-56010385D01*
X26024000Y-56741343D01*
X25944735Y-56862013D01*
X25937105Y-56878264D01*
X25868207Y-57103618D01*
X25865445Y-57121358D01*
X25863320Y-57295340D01*
X25817376Y-57138223D01*
X25809945Y-57121879D01*
X25682983Y-56923354D01*
X25671264Y-56909753D01*
X25493685Y-56754841D01*
X25478620Y-56745076D01*
X25264700Y-56646232D01*
X25247500Y-56641088D01*
X25014436Y-56606256D01*
X24996483Y-56606147D01*
X24763012Y-56638128D01*
X24745750Y-56643061D01*
X24530639Y-56739285D01*
X24515456Y-56748865D01*
X24485923Y-56774000D01*
X17547574Y-56774000D01*
X17547562Y-56774001D01*
X17495052Y-56774001D01*
X17475464Y-56777103D01*
X17430002Y-56791875D01*
X17382773Y-56799356D01*
X17363912Y-56805484D01*
X17321313Y-56827190D01*
X17275842Y-56841964D01*
X17258171Y-56850968D01*
X17219494Y-56879068D01*
X17176894Y-56900774D01*
X17160849Y-56912432D01*
X17120031Y-56953251D01*
X16315120Y-57758163D01*
X15641742Y-57758163D01*
X15625366Y-57760319D01*
X15346142Y-57835137D01*
X15321662Y-57847880D01*
X15165410Y-57978990D01*
X15151239Y-57995879D01*
X15050641Y-58170120D01*
X15043100Y-58190837D01*
X15009122Y-58383538D01*
X15008163Y-58394499D01*
X15008163Y-59308258D01*
X15010319Y-59324634D01*
X15085137Y-59603859D01*
X15097880Y-59628339D01*
X15228990Y-59784590D01*
X15245879Y-59798761D01*
X15420120Y-59899359D01*
X15440837Y-59906900D01*
X15633538Y-59940878D01*
X15644499Y-59941837D01*
X16858258Y-59941837D01*
X16874634Y-59939681D01*
X17153859Y-59864863D01*
X17178339Y-59852120D01*
X17334590Y-59721010D01*
X17348761Y-59704121D01*
X17449359Y-59529880D01*
X17456900Y-59509163D01*
X17490878Y-59316462D01*
X17491837Y-59305501D01*
X17491837Y-58634881D01*
X17900718Y-58226000D01*
X24482630Y-58226000D01*
X24497249Y-58239071D01*
X24512193Y-58249019D01*
X24724888Y-58350470D01*
X24742025Y-58355824D01*
X24974646Y-58393500D01*
X24992596Y-58393829D01*
X25226440Y-58364702D01*
X25243761Y-58359980D01*
X25460032Y-58266392D01*
X25475331Y-58256998D01*
X25656642Y-58106471D01*
X25668690Y-58093161D01*
X25800464Y-57897796D01*
X25808292Y-57881640D01*
X25880056Y-57656775D01*
X25883050Y-57638289D01*
X25885373Y-57448140D01*
X25928265Y-57601765D01*
X25935496Y-57618198D01*
X26060024Y-57818259D01*
X26071576Y-57832002D01*
X26247249Y-57989071D01*
X26262193Y-57999019D01*
X26474888Y-58100470D01*
X26492025Y-58105824D01*
X26724646Y-58143500D01*
X26742596Y-58143829D01*
X26976440Y-58114702D01*
X26993761Y-58109980D01*
X27210032Y-58016392D01*
X27222423Y-58008784D01*
X24331036Y-60900171D01*
X24331029Y-60900176D01*
X24182441Y-61048765D01*
X24170784Y-61064809D01*
X24149078Y-61107409D01*
X24120978Y-61146086D01*
X24111974Y-61163757D01*
X24097200Y-61209228D01*
X24075494Y-61251827D01*
X24069366Y-61270689D01*
X24064456Y-61301683D01*
X23964745Y-61453480D01*
X23957115Y-61469731D01*
X23888217Y-61695085D01*
X23885455Y-61712825D01*
X23882577Y-61948460D01*
X23884905Y-61966261D01*
X23948275Y-62193232D01*
X23955506Y-62209665D01*
X24080034Y-62409726D01*
X24091586Y-62423469D01*
X24267259Y-62580538D01*
X24282203Y-62590486D01*
X24494898Y-62691937D01*
X24512035Y-62697291D01*
X24744656Y-62734967D01*
X24762606Y-62735296D01*
X24996450Y-62706169D01*
X25013771Y-62701447D01*
X25230042Y-62607859D01*
X25245341Y-62598466D01*
X25291646Y-62560023D01*
X25364135Y-62676481D01*
X25375687Y-62690224D01*
X25551360Y-62847293D01*
X25566304Y-62857241D01*
X25778999Y-62958692D01*
X25796136Y-62964046D01*
X26028757Y-63001722D01*
X26046707Y-63002051D01*
X26280551Y-62972924D01*
X26297872Y-62968202D01*
X26514143Y-62874614D01*
X26529442Y-62865220D01*
X26710753Y-62714693D01*
X26722801Y-62701383D01*
X26854575Y-62506018D01*
X26862403Y-62489862D01*
X26934167Y-62264997D01*
X26936122Y-62252928D01*
X32656760Y-56532291D01*
X32697579Y-56491473D01*
X32709237Y-56475428D01*
X32730944Y-56432826D01*
X32759043Y-56394150D01*
X32768047Y-56376479D01*
X32782821Y-56331011D01*
X32804527Y-56288410D01*
X32810655Y-56269548D01*
X32818136Y-56222321D01*
X32832908Y-56176858D01*
X32836010Y-56157269D01*
X32836010Y-56104760D01*
X32836011Y-56104748D01*
X32836011Y-52319499D01*
X37183163Y-52319499D01*
X37183163Y-53183258D01*
X37185319Y-53199634D01*
X37260137Y-53478859D01*
X37272880Y-53503339D01*
X37403990Y-53659590D01*
X37420879Y-53673761D01*
X37595120Y-53774359D01*
X37615837Y-53781900D01*
X37808538Y-53815878D01*
X37819499Y-53816837D01*
X38683258Y-53816837D01*
X38699634Y-53814681D01*
X38978859Y-53739863D01*
X39003339Y-53727120D01*
X39159590Y-53596010D01*
X39173761Y-53579121D01*
X39274359Y-53404880D01*
X39281900Y-53384163D01*
X39315878Y-53191462D01*
X39316837Y-53180501D01*
X39316837Y-52316741D01*
X39314681Y-52300366D01*
X39258136Y-52089338D01*
X39260015Y-52085118D01*
X39264097Y-52072557D01*
X39307619Y-51867800D01*
X39309000Y-51854665D01*
X39309000Y-51645335D01*
X39307619Y-51632200D01*
X39264097Y-51427443D01*
X39260016Y-51414883D01*
X39174873Y-51223650D01*
X39168270Y-51212213D01*
X39045228Y-51042859D01*
X39036391Y-51033044D01*
X38880827Y-50892975D01*
X38870143Y-50885213D01*
X38688858Y-50780546D01*
X38676792Y-50775174D01*
X38477706Y-50710488D01*
X38464788Y-50707743D01*
X38256604Y-50685861D01*
X38243396Y-50685861D01*
X38035212Y-50707743D01*
X38022294Y-50710488D01*
X37823208Y-50775174D01*
X37811142Y-50780546D01*
X37629857Y-50885213D01*
X37619173Y-50892975D01*
X37463609Y-51033044D01*
X37454772Y-51042859D01*
X37331730Y-51212213D01*
X37325127Y-51223650D01*
X37239984Y-51414883D01*
X37235903Y-51427443D01*
X37192381Y-51632200D01*
X37191000Y-51645335D01*
X37191000Y-51854665D01*
X37192381Y-51867800D01*
X37235903Y-52072557D01*
X37236899Y-52075621D01*
X37225641Y-52095120D01*
X37218100Y-52115837D01*
X37184122Y-52308538D01*
X37183163Y-52319499D01*
X32836011Y-52319499D01*
X32836011Y-50201808D01*
X34385776Y-50201808D01*
X34385776Y-50327411D01*
X34387220Y-50340841D01*
X34452070Y-50638952D01*
X34460700Y-50659786D01*
X34588759Y-50859050D01*
X34600562Y-50872671D01*
X34777861Y-51026302D01*
X34793023Y-51036046D01*
X35006424Y-51133503D01*
X35023717Y-51138581D01*
X35197604Y-51163582D01*
X35206581Y-51164224D01*
X35298191Y-51164224D01*
X35372000Y-51090415D01*
X35627999Y-51090415D01*
X35701808Y-51164224D01*
X35777411Y-51164224D01*
X35790841Y-51162780D01*
X36088952Y-51097930D01*
X36109786Y-51089300D01*
X36309050Y-50961241D01*
X36322671Y-50949438D01*
X36476302Y-50772139D01*
X36486046Y-50756977D01*
X36583503Y-50543576D01*
X36588581Y-50526283D01*
X36613582Y-50352396D01*
X36614224Y-50343419D01*
X36614224Y-50201809D01*
X36540415Y-50128000D01*
X35701809Y-50127999D01*
X35628000Y-50201808D01*
X35627999Y-51090415D01*
X35372000Y-51090415D01*
X35372001Y-50201809D01*
X35298192Y-50128000D01*
X34459585Y-50127999D01*
X34385776Y-50201808D01*
X32836011Y-50201808D01*
X32836011Y-47906581D01*
X34385776Y-47906581D01*
X34385776Y-48577411D01*
X34387220Y-48590841D01*
X34452070Y-48888952D01*
X34460700Y-48909786D01*
X34588759Y-49109050D01*
X34600562Y-49122671D01*
X34608720Y-49129740D01*
X34523698Y-49227861D01*
X34513954Y-49243023D01*
X34416497Y-49456424D01*
X34411419Y-49473717D01*
X34386418Y-49647604D01*
X34385776Y-49656581D01*
X34385776Y-49798191D01*
X34459585Y-49872000D01*
X35298192Y-49872001D01*
X35298193Y-49872000D01*
X36540415Y-49872001D01*
X36614224Y-49798192D01*
X36614224Y-49672589D01*
X36612780Y-49659159D01*
X36547930Y-49361048D01*
X36539300Y-49340214D01*
X36411241Y-49140950D01*
X36399438Y-49127329D01*
X36391280Y-49120260D01*
X36476302Y-49022139D01*
X36486046Y-49006977D01*
X36583503Y-48793576D01*
X36588581Y-48776283D01*
X36613582Y-48602396D01*
X36614224Y-48593419D01*
X36614224Y-47922589D01*
X36612780Y-47909159D01*
X36547930Y-47611048D01*
X36539300Y-47590214D01*
X36411241Y-47390950D01*
X36399438Y-47377329D01*
X36222139Y-47223698D01*
X36206977Y-47213954D01*
X35993576Y-47116497D01*
X35976283Y-47111419D01*
X35802396Y-47086418D01*
X35793419Y-47085776D01*
X35222589Y-47085776D01*
X35209159Y-47087220D01*
X34911048Y-47152070D01*
X34890214Y-47160700D01*
X34690950Y-47288759D01*
X34677329Y-47300562D01*
X34523698Y-47477861D01*
X34513954Y-47493023D01*
X34416497Y-47706424D01*
X34411419Y-47723717D01*
X34386418Y-47897604D01*
X34385776Y-47906581D01*
X32836011Y-47906581D01*
X32836011Y-47074667D01*
X32832908Y-47055079D01*
X32818135Y-47009612D01*
X32810656Y-46962389D01*
X32804527Y-46943527D01*
X32782821Y-46900927D01*
X32768046Y-46855457D01*
X32759043Y-46837787D01*
X32730944Y-46799111D01*
X32709237Y-46756509D01*
X32697579Y-46740464D01*
X32556173Y-46599059D01*
X31814107Y-45856993D01*
X34862567Y-45856993D01*
X34864895Y-45874794D01*
X34928265Y-46101765D01*
X34935496Y-46118198D01*
X35060024Y-46318259D01*
X35071576Y-46332002D01*
X35247249Y-46489071D01*
X35262193Y-46499019D01*
X35474888Y-46600470D01*
X35492025Y-46605824D01*
X35724646Y-46643500D01*
X35742596Y-46643829D01*
X35976440Y-46614702D01*
X35993761Y-46609980D01*
X36210032Y-46516392D01*
X36225331Y-46506998D01*
X36406642Y-46356471D01*
X36418690Y-46343161D01*
X36550464Y-46147796D01*
X36558292Y-46131640D01*
X36630056Y-45906775D01*
X36633050Y-45888289D01*
X36636165Y-45633328D01*
X36633624Y-45614774D01*
X36567376Y-45388223D01*
X36559945Y-45371879D01*
X36476000Y-45240618D01*
X36476000Y-45223169D01*
X36477900Y-45221592D01*
X36489948Y-45208281D01*
X36621722Y-45012916D01*
X36629550Y-44996760D01*
X36701314Y-44771895D01*
X36704308Y-44753409D01*
X36707423Y-44498448D01*
X36704882Y-44479894D01*
X36638634Y-44253343D01*
X36631203Y-44236999D01*
X36504241Y-44038474D01*
X36492522Y-44024873D01*
X36314943Y-43869961D01*
X36299878Y-43860196D01*
X36085958Y-43761352D01*
X36068758Y-43756208D01*
X35835694Y-43721376D01*
X35817741Y-43721267D01*
X35584270Y-43753248D01*
X35567008Y-43758181D01*
X35351897Y-43854405D01*
X35336714Y-43863985D01*
X35157256Y-44016716D01*
X35145372Y-44030173D01*
X35015993Y-44227133D01*
X35008363Y-44243384D01*
X34939465Y-44468738D01*
X34936703Y-44486478D01*
X34933825Y-44722113D01*
X34936153Y-44739914D01*
X34999523Y-44966885D01*
X35006754Y-44983318D01*
X35024001Y-45011026D01*
X35024000Y-45241343D01*
X34944735Y-45362013D01*
X34937105Y-45378264D01*
X34868207Y-45603618D01*
X34865445Y-45621358D01*
X34862567Y-45856993D01*
X31814107Y-45856993D01*
X30391833Y-44434720D01*
X30450464Y-44347796D01*
X30458292Y-44331640D01*
X30530056Y-44106775D01*
X30532010Y-44094709D01*
X30660089Y-43966630D01*
X30618207Y-44103618D01*
X30615445Y-44121358D01*
X30612567Y-44356993D01*
X30614895Y-44374794D01*
X30678265Y-44601765D01*
X30685496Y-44618198D01*
X30810024Y-44818259D01*
X30821576Y-44832002D01*
X30997249Y-44989071D01*
X31012193Y-44999019D01*
X31224888Y-45100470D01*
X31242025Y-45105824D01*
X31474646Y-45143500D01*
X31492596Y-45143829D01*
X31726440Y-45114702D01*
X31743761Y-45109980D01*
X31960032Y-45016392D01*
X31975331Y-45006998D01*
X32156642Y-44856471D01*
X32168690Y-44843161D01*
X32300464Y-44647796D01*
X32308292Y-44631640D01*
X32380056Y-44406775D01*
X32383050Y-44388289D01*
X32386165Y-44133328D01*
X32383624Y-44114774D01*
X32317376Y-43888223D01*
X32309945Y-43871879D01*
X32226000Y-43740618D01*
X32226000Y-41614757D01*
X32226441Y-41614702D01*
X32243761Y-41609980D01*
X32460032Y-41516392D01*
X32475331Y-41506998D01*
X32512669Y-41476000D01*
X32699282Y-41476000D01*
X33121410Y-41898129D01*
X33178265Y-42101765D01*
X33185496Y-42118198D01*
X33310024Y-42318259D01*
X33321576Y-42332002D01*
X33497249Y-42489071D01*
X33512193Y-42499019D01*
X33724888Y-42600470D01*
X33742025Y-42605824D01*
X33974646Y-42643500D01*
X33992596Y-42643829D01*
X34226440Y-42614702D01*
X34243761Y-42609980D01*
X34460032Y-42516392D01*
X34475331Y-42506998D01*
X34656642Y-42356471D01*
X34668690Y-42343161D01*
X34800464Y-42147796D01*
X34808292Y-42131640D01*
X34880056Y-41906775D01*
X34883050Y-41888289D01*
X34886165Y-41633328D01*
X34883624Y-41614774D01*
X34817376Y-41388223D01*
X34809945Y-41371879D01*
X34682983Y-41173354D01*
X34671264Y-41159753D01*
X34493685Y-41004841D01*
X34478620Y-40995076D01*
X34264700Y-40896232D01*
X34247500Y-40891088D01*
X34153803Y-40877085D01*
X33587742Y-40311024D01*
X33587739Y-40311020D01*
X33439151Y-40162432D01*
X33423106Y-40150774D01*
X33380502Y-40129066D01*
X33341828Y-40100968D01*
X33324158Y-40091964D01*
X33278689Y-40077190D01*
X33236088Y-40055484D01*
X33217226Y-40049355D01*
X33169997Y-40041875D01*
X33124535Y-40027103D01*
X33104946Y-40024001D01*
X33052438Y-40024001D01*
X33052426Y-40024000D01*
X32515647Y-40024000D01*
X32493685Y-40004841D01*
X32478620Y-39995076D01*
X32264700Y-39896232D01*
X32247500Y-39891088D01*
X32014436Y-39856256D01*
X31996483Y-39856147D01*
X31763012Y-39888128D01*
X31745750Y-39893061D01*
X31530639Y-39989285D01*
X31515456Y-39998865D01*
X31335998Y-40151596D01*
X31324114Y-40165053D01*
X31194735Y-40362013D01*
X31187105Y-40378264D01*
X31118207Y-40603618D01*
X31117938Y-40605344D01*
X29949283Y-41774000D01*
X26511851Y-41774000D01*
X26634590Y-41671010D01*
X26648761Y-41654121D01*
X26749359Y-41479880D01*
X26756900Y-41459163D01*
X26790878Y-41266462D01*
X26791837Y-41255501D01*
X26791837Y-40701809D01*
X26718028Y-40628000D01*
X25031972Y-40628000D01*
X24958163Y-40701809D01*
X24958163Y-41258258D01*
X24960319Y-41274634D01*
X24990787Y-41388343D01*
X24977396Y-41386418D01*
X24968419Y-41385776D01*
X24297589Y-41385776D01*
X24284159Y-41387220D01*
X23986048Y-41452070D01*
X23965214Y-41460700D01*
X23765950Y-41588759D01*
X23752329Y-41600562D01*
X23745260Y-41608720D01*
X23647139Y-41523698D01*
X23631976Y-41513954D01*
X23601000Y-41499808D01*
X23601000Y-40697574D01*
X23600999Y-40697562D01*
X23600999Y-40645052D01*
X23597897Y-40625464D01*
X23583125Y-40580002D01*
X23575644Y-40532773D01*
X23569516Y-40513911D01*
X23547808Y-40471307D01*
X23541837Y-40452931D01*
X23541837Y-39744499D01*
X24958163Y-39744499D01*
X24958163Y-40298191D01*
X25031972Y-40372000D01*
X25673191Y-40372000D01*
X25747000Y-40298191D01*
X25747000Y-39181972D01*
X26003000Y-39181972D01*
X26003000Y-40298191D01*
X26076809Y-40372000D01*
X26718028Y-40372000D01*
X26791837Y-40298191D01*
X26791837Y-39741742D01*
X26789681Y-39725366D01*
X26714863Y-39446142D01*
X26702120Y-39421662D01*
X26571010Y-39265410D01*
X26554121Y-39251239D01*
X26379880Y-39150641D01*
X26359163Y-39143100D01*
X26166462Y-39109122D01*
X26155501Y-39108163D01*
X26076809Y-39108163D01*
X26003000Y-39181972D01*
X25747000Y-39181972D01*
X25673191Y-39108163D01*
X25591742Y-39108163D01*
X25575366Y-39110319D01*
X25296142Y-39185137D01*
X25271662Y-39197880D01*
X25115410Y-39328990D01*
X25101239Y-39345879D01*
X25000641Y-39520120D01*
X24993100Y-39540837D01*
X24959122Y-39733538D01*
X24958163Y-39744499D01*
X23541837Y-39744499D01*
X23541837Y-39741742D01*
X23539681Y-39725366D01*
X23464863Y-39446142D01*
X23452120Y-39421662D01*
X23321010Y-39265410D01*
X23304121Y-39251239D01*
X23129880Y-39150641D01*
X23109163Y-39143100D01*
X23057181Y-39133934D01*
X23058292Y-39131640D01*
X23066157Y-39106993D01*
X28112567Y-39106993D01*
X28114895Y-39124794D01*
X28178265Y-39351765D01*
X28185496Y-39368198D01*
X28310024Y-39568259D01*
X28321576Y-39582002D01*
X28497249Y-39739071D01*
X28512193Y-39749019D01*
X28724888Y-39850470D01*
X28742025Y-39855824D01*
X28974646Y-39893500D01*
X28992596Y-39893829D01*
X29226440Y-39864702D01*
X29243761Y-39859980D01*
X29460032Y-39766392D01*
X29475331Y-39756998D01*
X29656642Y-39606471D01*
X29668690Y-39593161D01*
X29800464Y-39397796D01*
X29808292Y-39381640D01*
X29880056Y-39156775D01*
X29883050Y-39138289D01*
X29886165Y-38883328D01*
X29883624Y-38864774D01*
X29817376Y-38638223D01*
X29809945Y-38621879D01*
X29726000Y-38490618D01*
X29726000Y-31106993D01*
X33612567Y-31106993D01*
X33614895Y-31124794D01*
X33678265Y-31351765D01*
X33685496Y-31368198D01*
X33774001Y-31510385D01*
X33774000Y-32991343D01*
X33694735Y-33112013D01*
X33687105Y-33128264D01*
X33618207Y-33353618D01*
X33615445Y-33371358D01*
X33612567Y-33606993D01*
X33614895Y-33624794D01*
X33678265Y-33851765D01*
X33685496Y-33868198D01*
X33810024Y-34068259D01*
X33821576Y-34082002D01*
X33997249Y-34239071D01*
X34012193Y-34249019D01*
X34224888Y-34350470D01*
X34242025Y-34355824D01*
X34474646Y-34393500D01*
X34492596Y-34393829D01*
X34726440Y-34364702D01*
X34743761Y-34359980D01*
X34960032Y-34266392D01*
X34975331Y-34256998D01*
X35156642Y-34106471D01*
X35168690Y-34093161D01*
X35300464Y-33897796D01*
X35308292Y-33881640D01*
X35380056Y-33656775D01*
X35383050Y-33638289D01*
X35386165Y-33383328D01*
X35383624Y-33364774D01*
X35317376Y-33138223D01*
X35309945Y-33121879D01*
X35226000Y-32990618D01*
X35226000Y-31508195D01*
X35300464Y-31397796D01*
X35308292Y-31381640D01*
X35380056Y-31156775D01*
X35383050Y-31138289D01*
X35386165Y-30883328D01*
X35383624Y-30864774D01*
X35317376Y-30638223D01*
X35309945Y-30621879D01*
X35182983Y-30423354D01*
X35171264Y-30409753D01*
X34993685Y-30254841D01*
X34978620Y-30245076D01*
X34764700Y-30146232D01*
X34747500Y-30141088D01*
X34514436Y-30106256D01*
X34496483Y-30106147D01*
X34263012Y-30138128D01*
X34245750Y-30143061D01*
X34030639Y-30239285D01*
X34015456Y-30248865D01*
X33835998Y-30401596D01*
X33824114Y-30415053D01*
X33694735Y-30612013D01*
X33687105Y-30628264D01*
X33618207Y-30853618D01*
X33615445Y-30871358D01*
X33612567Y-31106993D01*
X29726000Y-31106993D01*
X29726000Y-21300717D01*
X31402849Y-19623869D01*
X31476440Y-19614702D01*
X31493761Y-19609980D01*
X31710032Y-19516392D01*
X31725331Y-19506998D01*
X31906642Y-19356471D01*
X31918690Y-19343161D01*
X32050464Y-19147796D01*
X32058292Y-19131640D01*
X32130056Y-18906775D01*
X32133050Y-18888289D01*
X32136165Y-18633328D01*
X32133624Y-18614774D01*
X32067376Y-18388223D01*
X32059945Y-18371879D01*
X31932983Y-18173354D01*
X31921264Y-18159753D01*
X31743685Y-18004841D01*
X31728620Y-17995076D01*
X31514700Y-17896232D01*
X31497500Y-17891088D01*
X31264436Y-17856256D01*
X31246483Y-17856147D01*
X31013012Y-17888128D01*
X30995750Y-17893061D01*
X30780639Y-17989285D01*
X30765456Y-17998865D01*
X30585998Y-18151596D01*
X30574114Y-18165053D01*
X30444735Y-18362013D01*
X30437105Y-18378264D01*
X30368207Y-18603618D01*
X30367938Y-18605344D01*
X28553839Y-20419444D01*
X28412432Y-20560850D01*
X28400775Y-20576895D01*
X28379073Y-20619488D01*
X28350968Y-20658171D01*
X28341964Y-20675843D01*
X28327192Y-20721310D01*
X28305485Y-20763911D01*
X28299357Y-20782774D01*
X28291877Y-20829996D01*
X28277103Y-20875465D01*
X28274001Y-20895054D01*
X28274001Y-20952779D01*
X28274000Y-38491343D01*
X28194735Y-38612013D01*
X28187105Y-38628264D01*
X28118207Y-38853618D01*
X28115445Y-38871358D01*
X28112567Y-39106993D01*
X23066157Y-39106993D01*
X23130056Y-38906775D01*
X23133050Y-38888289D01*
X23136165Y-38633328D01*
X23133624Y-38614774D01*
X23067376Y-38388223D01*
X23059945Y-38371879D01*
X22932983Y-38173354D01*
X22921264Y-38159753D01*
X22758741Y-38017976D01*
X27296749Y-33479969D01*
X27337568Y-33439151D01*
X27349226Y-33423106D01*
X27370933Y-33380504D01*
X27399032Y-33341828D01*
X27408035Y-33324158D01*
X27422810Y-33278688D01*
X27444516Y-33236088D01*
X27450645Y-33217226D01*
X27458124Y-33170003D01*
X27472897Y-33124536D01*
X27476000Y-33104948D01*
X27476000Y-20758195D01*
X27550464Y-20647796D01*
X27558292Y-20631640D01*
X27630056Y-20406775D01*
X27633050Y-20388289D01*
X27636165Y-20133328D01*
X27633624Y-20114774D01*
X27567376Y-19888223D01*
X27559945Y-19871879D01*
X27432983Y-19673354D01*
X27421264Y-19659753D01*
X27243685Y-19504841D01*
X27228620Y-19495076D01*
X27014700Y-19396232D01*
X26997500Y-19391088D01*
X26891631Y-19375266D01*
X26976440Y-19364702D01*
X26993761Y-19359980D01*
X27210032Y-19266392D01*
X27225331Y-19256998D01*
X27406642Y-19106471D01*
X27418690Y-19093161D01*
X27550464Y-18897796D01*
X27558292Y-18881640D01*
X27630056Y-18656775D01*
X27633050Y-18638289D01*
X27636165Y-18383328D01*
X27633624Y-18364774D01*
X27567376Y-18138223D01*
X27559945Y-18121879D01*
X27470384Y-17981837D01*
X27708258Y-17981837D01*
X27724634Y-17979681D01*
X27785007Y-17963505D01*
X27883538Y-17980878D01*
X27894499Y-17981837D01*
X27998191Y-17981837D01*
X28072000Y-17908028D01*
X28072000Y-17855484D01*
X28184590Y-17761010D01*
X28198761Y-17744121D01*
X28299359Y-17569880D01*
X28306900Y-17549163D01*
X28328000Y-17429498D01*
X28328000Y-17908028D01*
X28401809Y-17981837D01*
X28508258Y-17981837D01*
X28524634Y-17979681D01*
X28803859Y-17904863D01*
X28828339Y-17892120D01*
X28984590Y-17761010D01*
X28984621Y-17760973D01*
X29089542Y-17793451D01*
X29192000Y-17717912D01*
X29192000Y-17717013D01*
X29447999Y-17717013D01*
X29549045Y-17792605D01*
X29722096Y-17741674D01*
X29733523Y-17737057D01*
X29910940Y-17644306D01*
X29921254Y-17637557D01*
X30077275Y-17512111D01*
X30086080Y-17503488D01*
X30214766Y-17350128D01*
X30221729Y-17339958D01*
X30318175Y-17164523D01*
X30323031Y-17153195D01*
X30383631Y-16962157D01*
X30386242Y-16949662D01*
X30403655Y-16783988D01*
X30404000Y-16777398D01*
X30404000Y-16381809D01*
X30330191Y-16308000D01*
X29521809Y-16307999D01*
X29448000Y-16381808D01*
X29447999Y-17717013D01*
X29192000Y-17717013D01*
X29192001Y-16381809D01*
X29118192Y-16308000D01*
X28599137Y-16307999D01*
X28668308Y-16225564D01*
X28676104Y-16213829D01*
X28759273Y-16052000D01*
X29118191Y-16052001D01*
X29192000Y-15978192D01*
X29192000Y-15978191D01*
X29447999Y-15978191D01*
X29521808Y-16052000D01*
X30330191Y-16052001D01*
X30404000Y-15978192D01*
X30404000Y-15579649D01*
X30403699Y-15573497D01*
X30389099Y-15424595D01*
X30386705Y-15412504D01*
X30328841Y-15220850D01*
X30324144Y-15209456D01*
X30230157Y-15032692D01*
X30223337Y-15022426D01*
X30096806Y-14867283D01*
X30088122Y-14858537D01*
X29933866Y-14730926D01*
X29923648Y-14724034D01*
X29747542Y-14628815D01*
X29736181Y-14624039D01*
X29550458Y-14566549D01*
X29448000Y-14642088D01*
X29447999Y-15978191D01*
X29192000Y-15978191D01*
X29192001Y-14642987D01*
X29090955Y-14567395D01*
X28917904Y-14618326D01*
X28906477Y-14622943D01*
X28729060Y-14715694D01*
X28718746Y-14722443D01*
X28562725Y-14847889D01*
X28553920Y-14856512D01*
X28464339Y-14963270D01*
X28399149Y-14910856D01*
X28387253Y-14903307D01*
X28211663Y-14817666D01*
X28198391Y-14812940D01*
X28008190Y-14768328D01*
X27994200Y-14766660D01*
X27798843Y-14765296D01*
X27784831Y-14766769D01*
X27634130Y-14799902D01*
X27636165Y-14633328D01*
X27633624Y-14614774D01*
X27567376Y-14388223D01*
X27559945Y-14371879D01*
X27432983Y-14173354D01*
X27421264Y-14159753D01*
X27243685Y-14004841D01*
X27228620Y-13995076D01*
X27014700Y-13896232D01*
X26997500Y-13891088D01*
X26764436Y-13856256D01*
X26746483Y-13856147D01*
X26513012Y-13888128D01*
X26495750Y-13893061D01*
X26280639Y-13989285D01*
X26265456Y-13998865D01*
X26085998Y-14151596D01*
X26074114Y-14165053D01*
X25944735Y-14362013D01*
X25937105Y-14378264D01*
X25868207Y-14603618D01*
X25865445Y-14621358D01*
X25862567Y-14856993D01*
X25864895Y-14874794D01*
X25916215Y-15058605D01*
X25916214Y-15539100D01*
X25905501Y-15538163D01*
X25814882Y-15538163D01*
X25599150Y-15322431D01*
X25583105Y-15310773D01*
X25540501Y-15289065D01*
X25501827Y-15260967D01*
X25484157Y-15251963D01*
X25438688Y-15237189D01*
X25396087Y-15215483D01*
X25377225Y-15209354D01*
X25329996Y-15201874D01*
X25284534Y-15187102D01*
X25264945Y-15184000D01*
X25212437Y-15184000D01*
X25212425Y-15183999D01*
X24691732Y-15183999D01*
X24800464Y-15022796D01*
X24808292Y-15006640D01*
X24880056Y-14781775D01*
X24883050Y-14763289D01*
X24886165Y-14508328D01*
X24883624Y-14489774D01*
X24817376Y-14263223D01*
X24809945Y-14246879D01*
X24682983Y-14048354D01*
X24671264Y-14034753D01*
X24493685Y-13879841D01*
X24478620Y-13870076D01*
X24264700Y-13771232D01*
X24247500Y-13766088D01*
X24014436Y-13731256D01*
X23996483Y-13731147D01*
X23763012Y-13763128D01*
X23745750Y-13768061D01*
X23530639Y-13864285D01*
X23515456Y-13873865D01*
X23335998Y-14026596D01*
X23324114Y-14040053D01*
X23194735Y-14237013D01*
X23187105Y-14253264D01*
X23118207Y-14478619D01*
X23115445Y-14496359D01*
X23115235Y-14513534D01*
X23100968Y-14533171D01*
X23091964Y-14550843D01*
X23077192Y-14596310D01*
X23055485Y-14638911D01*
X23049357Y-14657774D01*
X23041877Y-14704996D01*
X23027103Y-14750465D01*
X23024001Y-14770054D01*
X23024001Y-15507007D01*
X22999192Y-15397810D01*
X22994559Y-15384505D01*
X22910145Y-15208320D01*
X22902679Y-15196372D01*
X22781330Y-15043268D01*
X22771402Y-15033270D01*
X22619149Y-14910856D01*
X22607253Y-14903307D01*
X22431663Y-14817666D01*
X22418391Y-14812940D01*
X22228190Y-14768328D01*
X22214200Y-14766660D01*
X22018843Y-14765296D01*
X22004831Y-14766769D01*
X21814025Y-14808720D01*
X21800688Y-14813260D01*
X21623919Y-14896442D01*
X21611919Y-14903825D01*
X21535379Y-14963624D01*
X21456806Y-14867283D01*
X21448122Y-14858537D01*
X21293866Y-14730926D01*
X21283648Y-14724034D01*
X21107542Y-14628815D01*
X21096181Y-14624039D01*
X20910458Y-14566549D01*
X20808000Y-14642088D01*
X20807999Y-15978191D01*
X20881808Y-16052000D01*
X21243712Y-16052001D01*
X21303068Y-16180460D01*
X21310366Y-16192511D01*
X21399304Y-16308000D01*
X20881809Y-16307999D01*
X20808000Y-16381808D01*
X20807999Y-17717013D01*
X20909045Y-17792605D01*
X21023810Y-17758828D01*
X21078990Y-17824590D01*
X21095879Y-17838761D01*
X21268048Y-17938163D01*
X21116742Y-17938163D01*
X21100366Y-17940319D01*
X20821142Y-18015137D01*
X20796662Y-18027880D01*
X20640410Y-18158990D01*
X20626239Y-18175879D01*
X20525641Y-18350120D01*
X20518100Y-18370837D01*
X20497119Y-18489825D01*
X20439863Y-18276142D01*
X20427120Y-18251662D01*
X20296010Y-18095410D01*
X20279121Y-18081239D01*
X20104880Y-17980641D01*
X20084163Y-17973100D01*
X19891462Y-17939122D01*
X19880501Y-17938163D01*
X19634429Y-17938163D01*
X19634527Y-17922141D01*
X19634000Y-17918293D01*
X19634000Y-17016071D01*
X19671160Y-17139150D01*
X19675857Y-17150544D01*
X19769844Y-17327308D01*
X19776664Y-17337574D01*
X19903195Y-17492717D01*
X19911879Y-17501463D01*
X20066135Y-17629074D01*
X20076353Y-17635966D01*
X20252457Y-17731185D01*
X20263819Y-17735961D01*
X20449542Y-17793451D01*
X20552000Y-17717912D01*
X20552001Y-16381808D01*
X20552000Y-16381807D01*
X20552001Y-14642987D01*
X20450955Y-14567395D01*
X20277904Y-14618326D01*
X20266477Y-14622943D01*
X20089060Y-14715694D01*
X20078746Y-14722443D01*
X19922725Y-14847889D01*
X19913920Y-14856512D01*
X19785234Y-15009872D01*
X19778271Y-15020042D01*
X19681824Y-15195478D01*
X19676969Y-15206807D01*
X19634000Y-15342264D01*
X19634000Y-12696071D01*
X19671160Y-12819150D01*
X19675857Y-12830544D01*
X19769844Y-13007308D01*
X19776664Y-13017574D01*
X19903195Y-13172717D01*
X19911879Y-13181463D01*
X20066135Y-13309074D01*
X20076353Y-13315966D01*
X20252457Y-13411185D01*
X20263819Y-13415961D01*
X20449542Y-13473451D01*
X20552000Y-13397912D01*
X20552001Y-11882000D01*
X20808000Y-11882001D01*
X20807999Y-13397013D01*
X20909045Y-13472605D01*
X21082096Y-13421674D01*
X21093523Y-13417057D01*
X21270940Y-13324306D01*
X21281254Y-13317557D01*
X21437275Y-13192111D01*
X21446080Y-13183488D01*
X21574766Y-13030128D01*
X21581729Y-13019958D01*
X21678175Y-12844523D01*
X21683031Y-12833194D01*
X21683772Y-12830859D01*
X21724888Y-12850470D01*
X21742025Y-12855824D01*
X21974646Y-12893500D01*
X21992596Y-12893829D01*
X22226440Y-12864702D01*
X22243761Y-12859980D01*
X22460032Y-12766392D01*
X22475331Y-12756998D01*
X22656642Y-12606471D01*
X22668690Y-12593161D01*
X22742040Y-12484414D01*
X22747249Y-12489071D01*
X22762193Y-12499019D01*
X22974888Y-12600470D01*
X22992025Y-12605824D01*
X23224646Y-12643500D01*
X23242596Y-12643829D01*
X23476440Y-12614702D01*
X23493761Y-12609980D01*
X23710032Y-12516392D01*
X23725331Y-12506998D01*
X23906642Y-12356471D01*
X23918690Y-12343161D01*
X24007287Y-12211808D01*
X28236000Y-12211808D01*
X28236000Y-12460352D01*
X28236301Y-12466503D01*
X28250902Y-12615406D01*
X28253296Y-12627496D01*
X28311160Y-12819150D01*
X28315857Y-12830544D01*
X28409844Y-13007308D01*
X28416664Y-13017574D01*
X28543195Y-13172717D01*
X28551879Y-13181463D01*
X28706135Y-13309074D01*
X28716353Y-13315966D01*
X28892457Y-13411185D01*
X28903819Y-13415961D01*
X29089542Y-13473451D01*
X29192000Y-13397912D01*
X29192001Y-12211809D01*
X29118192Y-12138000D01*
X28309809Y-12137999D01*
X28236000Y-12211808D01*
X24007287Y-12211808D01*
X24050464Y-12147796D01*
X24058292Y-12131640D01*
X24130056Y-11906775D01*
X24133050Y-11888289D01*
X24136165Y-11633328D01*
X24133624Y-11614774D01*
X24067376Y-11388223D01*
X24059945Y-11371879D01*
X23932983Y-11173354D01*
X23921264Y-11159753D01*
X23743685Y-11004841D01*
X23728620Y-10995076D01*
X23514700Y-10896232D01*
X23497500Y-10891088D01*
X23264436Y-10856256D01*
X23246483Y-10856147D01*
X23013012Y-10888128D01*
X22995750Y-10893061D01*
X22780639Y-10989285D01*
X22765456Y-10998865D01*
X22735923Y-11024000D01*
X22197574Y-11024000D01*
X22197562Y-11024001D01*
X22145052Y-11024001D01*
X22125464Y-11027103D01*
X22080002Y-11041875D01*
X22032773Y-11049356D01*
X22013911Y-11055484D01*
X21971307Y-11077192D01*
X21925843Y-11091964D01*
X21908172Y-11100968D01*
X21878868Y-11122258D01*
X21763013Y-11138128D01*
X21745751Y-11143061D01*
X21676053Y-11174239D01*
X21590157Y-11012692D01*
X21583337Y-11002426D01*
X21456806Y-10847283D01*
X21448122Y-10838537D01*
X21293866Y-10710926D01*
X21283648Y-10704034D01*
X21154121Y-10634000D01*
X28847070Y-10634000D01*
X28729060Y-10695694D01*
%TA.AperFunction,Conductor*%
G36*
X28729060Y-10695694D02*
G01*
X28718746Y-10702443D01*
X28562725Y-10827889D01*
X28553920Y-10836512D01*
X28425234Y-10989872D01*
X28418271Y-11000042D01*
X28321824Y-11175478D01*
X28316969Y-11186807D01*
X28256369Y-11377844D01*
X28253758Y-11390339D01*
X28236345Y-11556013D01*
X28236000Y-11562603D01*
X28236000Y-11808191D01*
X28309809Y-11882000D01*
X29118192Y-11882001D01*
X29118193Y-11882000D01*
X29448000Y-11882001D01*
X29447999Y-13397013D01*
X29549045Y-13472605D01*
X29722096Y-13421674D01*
X29733523Y-13417057D01*
X29910940Y-13324306D01*
X29921254Y-13317557D01*
X30077275Y-13192111D01*
X30086080Y-13183488D01*
X30214766Y-13030128D01*
X30221729Y-13019958D01*
X30318175Y-12844523D01*
X30323031Y-12833195D01*
X30383631Y-12642157D01*
X30386242Y-12629661D01*
X30403655Y-12463987D01*
X30404000Y-12457397D01*
X30404000Y-12221922D01*
X30412831Y-12252821D01*
X30420162Y-12269210D01*
X30440714Y-12301782D01*
X30456649Y-12336832D01*
X30466322Y-12351957D01*
X30488916Y-12378178D01*
X30507389Y-12407457D01*
X30519025Y-12421129D01*
X30547894Y-12446624D01*
X30573027Y-12475794D01*
X30586556Y-12487596D01*
X30615599Y-12506421D01*
X30641550Y-12529340D01*
X30656554Y-12539196D01*
X30691426Y-12555569D01*
X30723730Y-12576507D01*
X30740027Y-12584037D01*
X30773182Y-12593952D01*
X30804700Y-12608750D01*
X30822255Y-12614059D01*
X30858545Y-12619482D01*
X30896640Y-12630875D01*
X30914396Y-12633529D01*
X30957593Y-12633793D01*
X30960379Y-12634000D01*
X30991463Y-12634000D01*
X31077859Y-12634527D01*
X31081707Y-12634000D01*
X33374157Y-12634000D01*
X33192155Y-12724346D01*
X33183032Y-12729882D01*
X32988199Y-12871957D01*
X32980138Y-12878952D01*
X32812029Y-13051822D01*
X32805263Y-13060074D01*
X32668683Y-13258798D01*
X32663403Y-13268073D01*
X32562260Y-13486968D01*
X32558618Y-13497000D01*
X32495802Y-13729807D01*
X32493903Y-13740309D01*
X32471211Y-13980372D01*
X32471109Y-13991043D01*
X32489188Y-14231497D01*
X32490885Y-14242034D01*
X32549221Y-14476005D01*
X32552669Y-14486104D01*
X32649591Y-14706900D01*
X32654692Y-14716275D01*
X32787430Y-14917584D01*
X32794038Y-14925965D01*
X32958798Y-15102032D01*
X32966722Y-15109180D01*
X33158792Y-15254968D01*
X33167808Y-15260679D01*
X33381696Y-15372021D01*
X33391545Y-15376131D01*
X33621134Y-15449844D01*
X33631535Y-15452236D01*
X33870262Y-15486212D01*
X33880917Y-15486817D01*
X34121956Y-15480084D01*
X34132561Y-15478885D01*
X34369019Y-15431636D01*
X34379270Y-15428667D01*
X34604387Y-15342253D01*
X34613991Y-15337600D01*
X34821330Y-15214491D01*
X34830012Y-15208286D01*
X35013645Y-15052004D01*
X35021158Y-15044424D01*
X35047403Y-15013035D01*
X35085137Y-15153859D01*
X35097880Y-15178339D01*
X35228990Y-15334590D01*
X35245879Y-15348761D01*
X35420120Y-15449359D01*
X35440837Y-15456900D01*
X35633538Y-15490878D01*
X35644499Y-15491837D01*
X37358258Y-15491837D01*
X37374634Y-15489681D01*
X37653859Y-15414863D01*
X37678339Y-15402120D01*
X37834590Y-15271010D01*
X37848761Y-15254121D01*
X37949359Y-15079880D01*
X37956900Y-15059163D01*
X37990878Y-14866462D01*
X37991837Y-14855501D01*
X37991837Y-13141742D01*
X37989681Y-13125366D01*
X37914863Y-12846142D01*
X37902120Y-12821662D01*
X37771010Y-12665410D01*
X37754121Y-12651239D01*
X37724262Y-12634000D01*
X39366000Y-12634000D01*
X39366001Y-17960566D01*
X39366000Y-17960580D01*
X39366000Y-25861543D01*
X39243685Y-25754841D01*
X39228620Y-25745076D01*
X39014700Y-25646232D01*
X38997500Y-25641088D01*
X38764436Y-25606256D01*
X38746483Y-25606147D01*
X38513012Y-25638128D01*
X38495750Y-25643061D01*
X38280639Y-25739285D01*
X38265456Y-25748865D01*
X38235923Y-25774000D01*
X37357079Y-25774000D01*
X37317376Y-25638223D01*
X37309945Y-25621879D01*
X37182983Y-25423354D01*
X37171264Y-25409753D01*
X36993685Y-25254841D01*
X36978620Y-25245076D01*
X36764700Y-25146232D01*
X36747500Y-25141088D01*
X36514436Y-25106256D01*
X36496483Y-25106147D01*
X36263012Y-25138128D01*
X36245750Y-25143061D01*
X36030639Y-25239285D01*
X36015456Y-25248865D01*
X35835998Y-25401596D01*
X35824114Y-25415053D01*
X35694735Y-25612013D01*
X35687105Y-25628264D01*
X35618207Y-25853618D01*
X35615445Y-25871358D01*
X35612567Y-26106993D01*
X35614895Y-26124794D01*
X35678265Y-26351765D01*
X35685496Y-26368198D01*
X35810024Y-26568259D01*
X35821576Y-26582002D01*
X35997249Y-26739071D01*
X36012193Y-26749019D01*
X36224889Y-26850470D01*
X36242025Y-26855824D01*
X36345935Y-26872653D01*
X36419443Y-26946162D01*
X36560849Y-27087568D01*
X36576894Y-27099226D01*
X36619496Y-27120933D01*
X36658172Y-27149032D01*
X36675842Y-27158035D01*
X36721312Y-27172810D01*
X36763912Y-27194516D01*
X36782774Y-27200645D01*
X36829997Y-27208124D01*
X36875464Y-27222897D01*
X36895052Y-27226000D01*
X38232630Y-27226000D01*
X38247249Y-27239071D01*
X38262193Y-27249019D01*
X38474888Y-27350470D01*
X38492025Y-27355824D01*
X38724646Y-27393500D01*
X38742596Y-27393829D01*
X38976440Y-27364702D01*
X38993761Y-27359980D01*
X39210032Y-27266392D01*
X39225331Y-27256998D01*
X39366000Y-27140213D01*
X39366001Y-68366000D01*
X39008538Y-68366000D01*
X38922143Y-68365473D01*
X38904356Y-68367909D01*
X38867323Y-68378492D01*
X38829206Y-68383951D01*
X38811975Y-68388990D01*
X38780458Y-68403320D01*
X38747180Y-68412831D01*
X38730793Y-68420161D01*
X38698230Y-68440706D01*
X38663167Y-68456649D01*
X38648042Y-68466321D01*
X38621816Y-68488919D01*
X38592544Y-68507389D01*
X38578872Y-68519025D01*
X38553383Y-68547885D01*
X38524206Y-68573026D01*
X38512404Y-68586555D01*
X38493576Y-68615604D01*
X38470661Y-68641550D01*
X38460805Y-68656555D01*
X38444440Y-68691410D01*
X38423493Y-68723728D01*
X38415963Y-68740025D01*
X38406043Y-68773194D01*
X38391251Y-68804700D01*
X38385943Y-68822254D01*
X38380519Y-68858539D01*
X38369125Y-68896640D01*
X38366471Y-68914395D01*
X38366207Y-68957605D01*
X38366001Y-68960378D01*
X38366001Y-68991302D01*
X38365472Y-69077861D01*
X38366001Y-69081722D01*
X38366001Y-69366000D01*
X11634000Y-69366000D01*
X11634000Y-69008503D01*
X11634527Y-68922141D01*
X11632091Y-68904353D01*
X11621508Y-68867327D01*
X11616049Y-68829208D01*
X11611011Y-68811977D01*
X11596684Y-68780466D01*
X11587169Y-68747178D01*
X11579839Y-68730791D01*
X11559293Y-68698228D01*
X11543351Y-68663167D01*
X11533678Y-68648041D01*
X11511079Y-68621815D01*
X11492611Y-68592544D01*
X11480976Y-68578872D01*
X11452111Y-68553379D01*
X11426973Y-68524205D01*
X11413443Y-68512403D01*
X11384400Y-68493579D01*
X11358451Y-68470661D01*
X11343445Y-68460804D01*
X11308579Y-68444435D01*
X11276271Y-68423493D01*
X11259973Y-68415963D01*
X11226818Y-68406048D01*
X11195300Y-68391250D01*
X11177745Y-68385941D01*
X11141455Y-68380518D01*
X11103360Y-68369125D01*
X11085604Y-68366471D01*
X11042407Y-68366207D01*
X11039621Y-68366000D01*
X11008537Y-68366000D01*
X10922141Y-68365473D01*
X10918293Y-68366000D01*
X10634000Y-68366000D01*
X10634000Y-68076808D01*
X18385776Y-68076808D01*
X18385776Y-68202411D01*
X18387220Y-68215841D01*
X18452070Y-68513952D01*
X18460700Y-68534786D01*
X18588759Y-68734050D01*
X18600562Y-68747671D01*
X18777861Y-68901302D01*
X18793023Y-68911046D01*
X19006424Y-69008503D01*
X19023717Y-69013581D01*
X19197604Y-69038582D01*
X19206581Y-69039224D01*
X19298191Y-69039224D01*
X19372000Y-68965415D01*
X19627999Y-68965415D01*
X19701808Y-69039224D01*
X19777411Y-69039224D01*
X19790841Y-69037780D01*
X20088952Y-68972930D01*
X20109786Y-68964300D01*
X20248032Y-68875455D01*
X20277861Y-68901302D01*
X20293023Y-68911046D01*
X20506424Y-69008503D01*
X20523717Y-69013581D01*
X20697604Y-69038582D01*
X20706581Y-69039224D01*
X20798191Y-69039224D01*
X20872000Y-68965415D01*
X21127999Y-68965415D01*
X21201808Y-69039224D01*
X21277411Y-69039224D01*
X21290841Y-69037780D01*
X21588952Y-68972930D01*
X21609786Y-68964300D01*
X21809050Y-68836241D01*
X21822671Y-68824438D01*
X21976302Y-68647139D01*
X21986046Y-68631977D01*
X22083503Y-68418576D01*
X22088581Y-68401283D01*
X22113582Y-68227396D01*
X22114224Y-68218419D01*
X22114224Y-68076809D01*
X22114223Y-68076808D01*
X23385776Y-68076808D01*
X23385776Y-68202411D01*
X23387220Y-68215841D01*
X23452070Y-68513952D01*
X23460700Y-68534786D01*
X23588759Y-68734050D01*
X23600562Y-68747671D01*
X23777861Y-68901302D01*
X23793023Y-68911046D01*
X24006424Y-69008503D01*
X24023717Y-69013581D01*
X24197604Y-69038582D01*
X24206581Y-69039224D01*
X24298191Y-69039224D01*
X24372000Y-68965415D01*
X24627999Y-68965415D01*
X24701808Y-69039224D01*
X24777411Y-69039224D01*
X24790841Y-69037780D01*
X25088952Y-68972930D01*
X25109786Y-68964300D01*
X25248032Y-68875455D01*
X25277861Y-68901302D01*
X25293023Y-68911046D01*
X25506424Y-69008503D01*
X25523717Y-69013581D01*
X25697604Y-69038582D01*
X25706581Y-69039224D01*
X25798191Y-69039224D01*
X25872000Y-68965415D01*
X26127999Y-68965415D01*
X26201808Y-69039224D01*
X26277411Y-69039224D01*
X26290841Y-69037780D01*
X26588952Y-68972930D01*
X26609786Y-68964300D01*
X26748032Y-68875455D01*
X26777861Y-68901302D01*
X26793023Y-68911046D01*
X27006424Y-69008503D01*
X27023717Y-69013581D01*
X27197604Y-69038582D01*
X27206581Y-69039224D01*
X27298191Y-69039224D01*
X27372000Y-68965415D01*
X27627999Y-68965415D01*
X27701808Y-69039224D01*
X27777411Y-69039224D01*
X27790841Y-69037780D01*
X28088952Y-68972930D01*
X28109786Y-68964300D01*
X28248032Y-68875455D01*
X28277861Y-68901302D01*
X28293023Y-68911046D01*
X28506424Y-69008503D01*
X28523717Y-69013581D01*
X28697604Y-69038582D01*
X28706581Y-69039224D01*
X28798191Y-69039224D01*
X28872000Y-68965415D01*
X29127999Y-68965415D01*
X29201808Y-69039224D01*
X29277411Y-69039224D01*
X29290841Y-69037780D01*
X29588952Y-68972930D01*
X29609786Y-68964300D01*
X29748032Y-68875455D01*
X29777861Y-68901302D01*
X29793023Y-68911046D01*
X30006424Y-69008503D01*
X30023717Y-69013581D01*
X30197604Y-69038582D01*
X30206581Y-69039224D01*
X30298191Y-69039224D01*
X30372000Y-68965415D01*
X30627999Y-68965415D01*
X30701808Y-69039224D01*
X30777411Y-69039224D01*
X30790841Y-69037780D01*
X31088952Y-68972930D01*
X31109786Y-68964300D01*
X31309050Y-68836241D01*
X31322671Y-68824438D01*
X31476302Y-68647139D01*
X31486046Y-68631977D01*
X31583503Y-68418576D01*
X31588581Y-68401283D01*
X31613582Y-68227396D01*
X31614224Y-68218419D01*
X31614224Y-68076809D01*
X31540415Y-68003000D01*
X30701809Y-68002999D01*
X30628000Y-68076808D01*
X30627999Y-68965415D01*
X30372000Y-68965415D01*
X30372001Y-68076809D01*
X30298192Y-68003000D01*
X29970809Y-68002999D01*
X29970808Y-68003000D01*
X29201809Y-68002999D01*
X29128000Y-68076808D01*
X29127999Y-68965415D01*
X28872000Y-68965415D01*
X28872001Y-68076809D01*
X28798192Y-68003000D01*
X28470809Y-68002999D01*
X28470808Y-68003000D01*
X27701809Y-68002999D01*
X27628000Y-68076808D01*
X27627999Y-68965415D01*
X27372000Y-68965415D01*
X27372001Y-68076809D01*
X27298192Y-68003000D01*
X26970809Y-68002999D01*
X26970808Y-68003000D01*
X26201809Y-68002999D01*
X26128000Y-68076808D01*
X26127999Y-68965415D01*
X25872000Y-68965415D01*
X25872001Y-68076809D01*
X25798192Y-68003000D01*
X25470809Y-68002999D01*
X25470808Y-68003000D01*
X24701809Y-68002999D01*
X24628000Y-68076808D01*
X24627999Y-68965415D01*
X24372000Y-68965415D01*
X24372001Y-68076809D01*
X24298192Y-68003000D01*
X23459585Y-68002999D01*
X23385776Y-68076808D01*
X22114223Y-68076808D01*
X22040415Y-68003000D01*
X21201809Y-68002999D01*
X21128000Y-68076808D01*
X21127999Y-68965415D01*
X20872000Y-68965415D01*
X20872001Y-68076809D01*
X20798192Y-68003000D01*
X20470809Y-68002999D01*
X20470808Y-68003000D01*
X19701809Y-68002999D01*
X19628000Y-68076808D01*
X19627999Y-68965415D01*
X19372000Y-68965415D01*
X19372001Y-68076809D01*
X19298192Y-68003000D01*
X18459585Y-68002999D01*
X18385776Y-68076808D01*
X10634000Y-68076808D01*
X10634000Y-61694499D01*
X15008163Y-61694499D01*
X15008163Y-62608258D01*
X15010319Y-62624634D01*
X15085137Y-62903859D01*
X15097880Y-62928339D01*
X15228990Y-63084590D01*
X15245879Y-63098761D01*
X15420120Y-63199359D01*
X15440837Y-63206900D01*
X15524000Y-63221564D01*
X15524001Y-64192855D01*
X15516521Y-64240084D01*
X15516521Y-64259916D01*
X15549356Y-64467226D01*
X15555484Y-64486088D01*
X15650774Y-64673105D01*
X15662432Y-64689150D01*
X15810850Y-64837568D01*
X15826895Y-64849226D01*
X16013912Y-64944516D01*
X16032774Y-64950644D01*
X16183069Y-64974449D01*
X16240083Y-64983479D01*
X16259916Y-64983479D01*
X16307139Y-64976000D01*
X19145813Y-64976000D01*
X18911048Y-65027070D01*
X18890214Y-65035700D01*
X18690950Y-65163759D01*
X18677329Y-65175562D01*
X18523698Y-65352861D01*
X18513954Y-65368023D01*
X18416497Y-65581424D01*
X18411419Y-65598717D01*
X18386418Y-65772604D01*
X18385776Y-65781581D01*
X18385776Y-66452411D01*
X18387220Y-66465841D01*
X18452070Y-66763952D01*
X18460700Y-66784786D01*
X18588759Y-66984050D01*
X18600562Y-66997671D01*
X18608720Y-67004740D01*
X18523698Y-67102861D01*
X18513954Y-67118023D01*
X18416497Y-67331424D01*
X18411419Y-67348717D01*
X18386418Y-67522604D01*
X18385776Y-67531581D01*
X18385776Y-67673191D01*
X18459585Y-67747000D01*
X19298192Y-67747001D01*
X19298193Y-67747000D01*
X20029191Y-67747001D01*
X20029192Y-67747000D01*
X20798192Y-67747001D01*
X20798193Y-67747000D01*
X22040415Y-67747001D01*
X22114224Y-67673192D01*
X22114224Y-67547589D01*
X22112780Y-67534159D01*
X22047930Y-67236048D01*
X22039300Y-67215214D01*
X21911241Y-67015950D01*
X21899438Y-67002329D01*
X21891280Y-66995260D01*
X21976302Y-66897139D01*
X21986046Y-66881977D01*
X22083503Y-66668576D01*
X22088581Y-66651283D01*
X22113582Y-66477396D01*
X22114224Y-66468419D01*
X22114224Y-65797589D01*
X22112780Y-65784159D01*
X22047930Y-65486048D01*
X22039300Y-65465214D01*
X21911241Y-65265950D01*
X21899438Y-65252329D01*
X21722139Y-65098698D01*
X21706977Y-65088954D01*
X21493576Y-64991497D01*
X21476283Y-64986419D01*
X21403817Y-64976000D01*
X24145813Y-64976000D01*
X23911048Y-65027070D01*
X23890214Y-65035700D01*
X23690950Y-65163759D01*
X23677329Y-65175562D01*
X23523698Y-65352861D01*
X23513954Y-65368023D01*
X23416497Y-65581424D01*
X23411419Y-65598717D01*
X23386418Y-65772604D01*
X23385776Y-65781581D01*
X23385776Y-66452411D01*
X23387220Y-66465841D01*
X23452070Y-66763952D01*
X23460700Y-66784786D01*
X23588759Y-66984050D01*
X23600562Y-66997671D01*
X23608720Y-67004740D01*
X23523698Y-67102861D01*
X23513954Y-67118023D01*
X23416497Y-67331424D01*
X23411419Y-67348717D01*
X23386418Y-67522604D01*
X23385776Y-67531581D01*
X23385776Y-67673191D01*
X23459585Y-67747000D01*
X24298192Y-67747001D01*
X24298193Y-67747000D01*
X25029191Y-67747001D01*
X25029192Y-67747000D01*
X25798192Y-67747001D01*
X25798193Y-67747000D01*
X26529191Y-67747001D01*
X26529192Y-67747000D01*
X27298192Y-67747001D01*
X27298193Y-67747000D01*
X28029191Y-67747001D01*
X28029192Y-67747000D01*
X28798192Y-67747001D01*
X28798193Y-67747000D01*
X29529191Y-67747001D01*
X29529192Y-67747000D01*
X30298192Y-67747001D01*
X30298193Y-67747000D01*
X31540415Y-67747001D01*
X31614224Y-67673192D01*
X31614224Y-67547589D01*
X31612780Y-67534159D01*
X31547930Y-67236048D01*
X31539300Y-67215214D01*
X31411241Y-67015950D01*
X31399438Y-67002329D01*
X31391280Y-66995260D01*
X31476302Y-66897139D01*
X31486046Y-66881977D01*
X31583503Y-66668576D01*
X31588581Y-66651283D01*
X31613582Y-66477396D01*
X31614224Y-66468419D01*
X31614224Y-65797589D01*
X31612780Y-65784159D01*
X31547930Y-65486048D01*
X31539300Y-65465214D01*
X31411241Y-65265950D01*
X31399438Y-65252329D01*
X31222139Y-65098698D01*
X31206977Y-65088954D01*
X30993576Y-64991497D01*
X30976283Y-64986419D01*
X30802396Y-64961418D01*
X30793419Y-64960776D01*
X30222589Y-64960776D01*
X30209159Y-64962220D01*
X29911048Y-65027070D01*
X29890214Y-65035700D01*
X29751968Y-65124545D01*
X29722139Y-65098698D01*
X29706977Y-65088954D01*
X29493576Y-64991497D01*
X29476283Y-64986419D01*
X29302396Y-64961418D01*
X29293419Y-64960776D01*
X28862494Y-64960776D01*
X27712744Y-63811027D01*
X27712739Y-63811020D01*
X27564151Y-63662432D01*
X27548106Y-63650774D01*
X27505502Y-63629066D01*
X27466828Y-63600968D01*
X27449158Y-63591964D01*
X27403689Y-63577190D01*
X27361088Y-63555484D01*
X27342226Y-63549355D01*
X27294997Y-63541875D01*
X27249535Y-63527103D01*
X27229946Y-63524001D01*
X27177438Y-63524001D01*
X27177426Y-63524000D01*
X16976000Y-63524000D01*
X16976000Y-63212520D01*
X17153859Y-63164863D01*
X17178339Y-63152120D01*
X17334590Y-63021010D01*
X17348761Y-63004121D01*
X17449359Y-62829880D01*
X17456900Y-62809163D01*
X17490878Y-62616462D01*
X17491837Y-62605501D01*
X17491837Y-61691742D01*
X17489681Y-61675366D01*
X17414863Y-61396142D01*
X17402120Y-61371662D01*
X17271010Y-61215410D01*
X17254121Y-61201239D01*
X17079880Y-61100641D01*
X17059163Y-61093100D01*
X16866462Y-61059122D01*
X16855501Y-61058163D01*
X15641742Y-61058163D01*
X15625366Y-61060319D01*
X15346142Y-61135137D01*
X15321662Y-61147880D01*
X15165410Y-61278990D01*
X15151239Y-61295879D01*
X15050641Y-61470120D01*
X15043100Y-61490837D01*
X15009122Y-61683538D01*
X15008163Y-61694499D01*
X10634000Y-61694499D01*
X10634000Y-49324076D01*
X11856945Y-49324076D01*
X11867415Y-49441388D01*
X11939009Y-49491145D01*
X11949768Y-49497158D01*
X12142207Y-49581232D01*
X12153929Y-49585040D01*
X12359033Y-49630136D01*
X12371271Y-49631595D01*
X12581229Y-49635993D01*
X12593518Y-49635048D01*
X12800332Y-49598581D01*
X12812202Y-49595266D01*
X13007993Y-49519324D01*
X13018994Y-49513767D01*
X13129232Y-49443809D01*
X13142511Y-49323531D01*
X12552191Y-48733210D01*
X12447809Y-48733210D01*
X11856945Y-49324076D01*
X10634000Y-49324076D01*
X10634000Y-48589158D01*
X11364601Y-48589158D01*
X11365633Y-48601439D01*
X11403542Y-48807994D01*
X11406940Y-48819841D01*
X11484248Y-49015098D01*
X11489881Y-49026059D01*
X11556681Y-49129712D01*
X11676466Y-49142513D01*
X12266790Y-48552191D01*
X12266790Y-48447809D01*
X12733210Y-48447809D01*
X12733210Y-48552191D01*
X13324287Y-49143267D01*
X13441100Y-49133252D01*
X13487203Y-49067897D01*
X13493291Y-49057181D01*
X13578708Y-48865334D01*
X13582599Y-48853638D01*
X13629222Y-48648423D01*
X13630786Y-48635309D01*
X13634123Y-48396318D01*
X13632926Y-48383165D01*
X13592050Y-48176727D01*
X13588488Y-48164928D01*
X13508461Y-47970770D01*
X13502675Y-47959888D01*
X13442443Y-47869233D01*
X13323645Y-47857375D01*
X12733210Y-48447809D01*
X12266790Y-48447809D01*
X11676103Y-47857123D01*
X11558295Y-47868052D01*
X11504963Y-47945942D01*
X11499026Y-47956742D01*
X11416296Y-48149763D01*
X11412570Y-48161511D01*
X11368907Y-48366927D01*
X11367533Y-48379175D01*
X11364601Y-48589158D01*
X10634000Y-48589158D01*
X10634000Y-47676429D01*
X11857449Y-47676429D01*
X12447809Y-48266790D01*
X12552191Y-48266790D01*
X13142734Y-47676246D01*
X13131342Y-47557943D01*
X13047099Y-47501119D01*
X13036257Y-47495257D01*
X12842662Y-47413878D01*
X12830888Y-47410234D01*
X12625173Y-47368006D01*
X12612916Y-47366718D01*
X12402917Y-47365252D01*
X12390643Y-47366369D01*
X12184360Y-47405720D01*
X12172536Y-47409199D01*
X11977824Y-47487868D01*
X11966901Y-47493579D01*
X11869776Y-47557136D01*
X11857449Y-47676429D01*
X10634000Y-47676429D01*
X10634000Y-45839158D01*
X11864601Y-45839158D01*
X11865633Y-45851439D01*
X11903542Y-46057994D01*
X11906940Y-46069841D01*
X11984248Y-46265098D01*
X11989881Y-46276059D01*
X12103642Y-46452581D01*
X12111297Y-46462240D01*
X12257178Y-46613305D01*
X12266564Y-46621293D01*
X12439008Y-46741145D01*
X12449767Y-46747158D01*
X12642207Y-46831232D01*
X12653929Y-46835040D01*
X12859033Y-46880136D01*
X12871271Y-46881595D01*
X13081229Y-46885993D01*
X13093518Y-46885048D01*
X13300332Y-46848581D01*
X13312202Y-46845266D01*
X13507993Y-46769324D01*
X13518994Y-46763767D01*
X13696306Y-46651241D01*
X13706018Y-46643654D01*
X13858098Y-46498831D01*
X13866151Y-46489501D01*
X13987204Y-46317897D01*
X13993291Y-46307181D01*
X14078708Y-46115334D01*
X14082599Y-46103638D01*
X14129222Y-45898423D01*
X14130786Y-45885309D01*
X14134123Y-45646318D01*
X14132926Y-45633165D01*
X14092050Y-45426727D01*
X14088488Y-45414928D01*
X14008461Y-45220770D01*
X14002675Y-45209888D01*
X13886461Y-45034972D01*
X13878671Y-45025421D01*
X13730696Y-44876408D01*
X13721199Y-44868552D01*
X13547099Y-44751119D01*
X13536257Y-44745257D01*
X13342662Y-44663878D01*
X13330888Y-44660234D01*
X13125173Y-44618006D01*
X13112916Y-44616718D01*
X12902917Y-44615252D01*
X12890643Y-44616369D01*
X12684360Y-44655720D01*
X12672536Y-44659199D01*
X12477824Y-44737868D01*
X12466902Y-44743578D01*
X12291178Y-44858569D01*
X12281572Y-44866292D01*
X12131531Y-45013223D01*
X12123608Y-45022665D01*
X12004963Y-45195942D01*
X11999026Y-45206742D01*
X11916296Y-45399763D01*
X11912570Y-45411511D01*
X11868907Y-45616927D01*
X11867533Y-45629175D01*
X11864601Y-45839158D01*
X10634000Y-45839158D01*
X10634000Y-25394499D01*
X10758163Y-25394499D01*
X10758163Y-27108258D01*
X10760319Y-27124634D01*
X10835137Y-27403859D01*
X10847880Y-27428339D01*
X10978990Y-27584590D01*
X10995879Y-27598761D01*
X11170120Y-27699359D01*
X11190837Y-27706900D01*
X11227029Y-27713282D01*
X11102029Y-27841822D01*
X11095263Y-27850074D01*
X10958683Y-28048798D01*
X10953403Y-28058073D01*
X10852260Y-28276968D01*
X10848618Y-28287000D01*
X10785802Y-28519807D01*
X10783903Y-28530309D01*
X10761211Y-28770372D01*
X10761109Y-28781043D01*
X10779188Y-29021497D01*
X10780885Y-29032034D01*
X10839221Y-29266005D01*
X10842669Y-29276104D01*
X10939591Y-29496900D01*
X10944692Y-29506275D01*
X11077430Y-29707584D01*
X11084038Y-29715965D01*
X11248798Y-29892032D01*
X11256722Y-29899180D01*
X11448792Y-30044968D01*
X11457808Y-30050679D01*
X11671696Y-30162021D01*
X11681545Y-30166131D01*
X11911134Y-30239844D01*
X11921535Y-30242236D01*
X12160262Y-30276212D01*
X12170917Y-30276817D01*
X12411956Y-30270084D01*
X12422561Y-30268885D01*
X12659019Y-30221636D01*
X12669270Y-30218667D01*
X12894387Y-30132253D01*
X12903991Y-30127600D01*
X13111330Y-30004491D01*
X13120012Y-29998286D01*
X13303645Y-29842004D01*
X13311158Y-29834424D01*
X13465833Y-29649435D01*
X13471962Y-29640698D01*
X13593256Y-29432294D01*
X13597825Y-29422650D01*
X13682272Y-29196787D01*
X13685151Y-29186511D01*
X13730392Y-28949351D01*
X13731507Y-28938128D01*
X13734077Y-28670341D01*
X13733178Y-28659099D01*
X13692499Y-28421114D01*
X13689817Y-28410784D01*
X13609723Y-28183343D01*
X13605339Y-28173612D01*
X13488067Y-27962916D01*
X13482107Y-27954064D01*
X13331013Y-27766140D01*
X13323647Y-27758417D01*
X13261130Y-27703107D01*
X13403859Y-27664863D01*
X13428339Y-27652120D01*
X13584590Y-27521010D01*
X13598761Y-27504121D01*
X13699359Y-27329880D01*
X13706900Y-27309163D01*
X13740878Y-27116462D01*
X13741837Y-27105501D01*
X13741837Y-25391742D01*
X13739681Y-25375366D01*
X13664863Y-25096142D01*
X13652120Y-25071662D01*
X13521010Y-24915410D01*
X13504121Y-24901239D01*
X13329880Y-24800641D01*
X13309163Y-24793100D01*
X13116462Y-24759122D01*
X13105501Y-24758163D01*
X11391742Y-24758163D01*
X11375366Y-24760319D01*
X11096142Y-24835137D01*
X11071662Y-24847880D01*
X10915410Y-24978990D01*
X10901239Y-24995879D01*
X10800641Y-25170120D01*
X10793100Y-25190837D01*
X10759122Y-25383538D01*
X10758163Y-25394499D01*
X10634000Y-25394499D01*
X10634000Y-18634000D01*
X14583902Y-18634000D01*
X14091891Y-19126012D01*
X14091408Y-19125593D01*
X14076246Y-19115849D01*
X13859542Y-19016884D01*
X13842249Y-19011806D01*
X13665671Y-18986418D01*
X13656694Y-18985776D01*
X12859621Y-18985776D01*
X12846191Y-18987220D01*
X12543376Y-19053093D01*
X12522542Y-19061723D01*
X12320224Y-19191745D01*
X12306603Y-19203548D01*
X12150593Y-19383592D01*
X12140849Y-19398754D01*
X12041884Y-19615458D01*
X12036806Y-19632751D01*
X12011418Y-19809329D01*
X12010776Y-19818306D01*
X12010776Y-21165379D01*
X12012220Y-21178809D01*
X12078093Y-21481624D01*
X12086723Y-21502458D01*
X12216745Y-21704776D01*
X12228548Y-21718397D01*
X12408592Y-21874407D01*
X12423754Y-21884151D01*
X12524001Y-21929932D01*
X12524001Y-22469808D01*
X12473698Y-22527861D01*
X12463954Y-22543023D01*
X12366497Y-22756424D01*
X12361419Y-22773717D01*
X12336418Y-22947604D01*
X12335776Y-22956581D01*
X12335776Y-23527411D01*
X12337220Y-23540841D01*
X12402070Y-23838952D01*
X12410700Y-23859786D01*
X12538759Y-24059050D01*
X12550562Y-24072671D01*
X12727861Y-24226302D01*
X12743023Y-24236046D01*
X12956424Y-24333503D01*
X12973717Y-24338581D01*
X13147604Y-24363582D01*
X13156581Y-24364224D01*
X13827411Y-24364224D01*
X13840841Y-24362780D01*
X14138952Y-24297930D01*
X14159786Y-24289300D01*
X14359050Y-24161241D01*
X14372671Y-24149438D01*
X14379740Y-24141280D01*
X14477861Y-24226302D01*
X14493023Y-24236046D01*
X14706424Y-24333503D01*
X14723717Y-24338581D01*
X14897604Y-24363582D01*
X14906581Y-24364224D01*
X15048191Y-24364224D01*
X15122000Y-24290415D01*
X15122000Y-23451809D01*
X15378000Y-23451809D01*
X15378000Y-24290415D01*
X15451809Y-24364224D01*
X15577411Y-24364224D01*
X15590841Y-24362780D01*
X15888952Y-24297930D01*
X15909786Y-24289300D01*
X16109050Y-24161241D01*
X16122671Y-24149438D01*
X16276302Y-23972139D01*
X16286046Y-23956977D01*
X16383503Y-23743576D01*
X16388581Y-23726283D01*
X16413582Y-23552396D01*
X16414224Y-23543419D01*
X16414224Y-23451809D01*
X16340415Y-23378000D01*
X15451809Y-23378000D01*
X15378000Y-23451809D01*
X15122000Y-23451809D01*
X15122000Y-22209585D01*
X15378000Y-22209585D01*
X15378000Y-23048191D01*
X15451809Y-23122000D01*
X16340415Y-23122000D01*
X16414224Y-23048191D01*
X16414224Y-22972589D01*
X16412780Y-22959159D01*
X16347930Y-22661048D01*
X16339300Y-22640214D01*
X16211241Y-22440950D01*
X16199438Y-22427329D01*
X16022139Y-22273698D01*
X16006977Y-22263954D01*
X15793576Y-22166497D01*
X15776283Y-22161419D01*
X15602396Y-22136418D01*
X15593419Y-22135776D01*
X15451809Y-22135776D01*
X15378000Y-22209585D01*
X15122000Y-22209585D01*
X15048191Y-22135776D01*
X14922589Y-22135776D01*
X14909159Y-22137220D01*
X14611048Y-22202070D01*
X14590214Y-22210700D01*
X14390950Y-22338759D01*
X14377329Y-22350562D01*
X14370260Y-22358720D01*
X14272139Y-22273698D01*
X14256977Y-22263954D01*
X14043576Y-22166497D01*
X14026283Y-22161419D01*
X13976000Y-22154190D01*
X13976000Y-21938881D01*
X13977459Y-21938277D01*
X14179776Y-21808255D01*
X14193397Y-21796452D01*
X14346204Y-21620104D01*
X14491317Y-21754247D01*
X14500483Y-21761280D01*
X14682475Y-21876108D01*
X14692769Y-21881353D01*
X14892639Y-21961094D01*
X14903716Y-21964375D01*
X15029867Y-21989468D01*
X15122000Y-21913857D01*
X15122000Y-20701809D01*
X15378000Y-20701809D01*
X15378000Y-21914259D01*
X15467596Y-21989774D01*
X15565031Y-21973032D01*
X15576191Y-21970042D01*
X15778080Y-21895561D01*
X15788509Y-21890587D01*
X15973444Y-21780562D01*
X15982790Y-21773771D01*
X16144578Y-21631887D01*
X16152531Y-21623506D01*
X16285753Y-21454514D01*
X16292046Y-21444824D01*
X16392241Y-21254383D01*
X16396662Y-21243709D01*
X16460598Y-21037805D01*
X16463093Y-21025679D01*
X16483655Y-20830044D01*
X16484000Y-20823454D01*
X16484000Y-20701809D01*
X16410191Y-20628000D01*
X15451809Y-20628000D01*
X15378000Y-20701809D01*
X15122000Y-20701809D01*
X15122000Y-20372000D01*
X16410191Y-20372000D01*
X16484000Y-20298191D01*
X16484000Y-20170463D01*
X16483736Y-20164696D01*
X16469056Y-20004936D01*
X16466950Y-19993576D01*
X16445071Y-19916000D01*
X18609800Y-19916000D01*
X18660137Y-20103859D01*
X18672880Y-20128339D01*
X18803990Y-20284590D01*
X18820879Y-20298761D01*
X18995120Y-20399359D01*
X19015837Y-20406900D01*
X19208538Y-20440878D01*
X19219499Y-20441837D01*
X19883258Y-20441837D01*
X19899634Y-20439681D01*
X20178859Y-20364863D01*
X20203339Y-20352120D01*
X20359590Y-20221010D01*
X20373761Y-20204121D01*
X20474359Y-20029880D01*
X20481900Y-20009163D01*
X20502881Y-19890175D01*
X20560137Y-20103859D01*
X20572880Y-20128339D01*
X20703990Y-20284590D01*
X20720879Y-20298761D01*
X20724000Y-20300563D01*
X20724000Y-20558163D01*
X20166742Y-20558163D01*
X20150366Y-20560319D01*
X19871142Y-20635137D01*
X19846662Y-20647880D01*
X19690410Y-20778990D01*
X19676239Y-20795879D01*
X19575641Y-20970120D01*
X19568100Y-20990837D01*
X19534122Y-21183538D01*
X19533163Y-21194499D01*
X19533163Y-22428258D01*
X19535319Y-22444634D01*
X19610137Y-22723859D01*
X19622880Y-22748339D01*
X19753990Y-22904590D01*
X19770879Y-22918761D01*
X19774000Y-22920563D01*
X19774001Y-24104970D01*
X19774001Y-24304946D01*
X19777104Y-24324535D01*
X19791877Y-24370003D01*
X19799357Y-24417226D01*
X19805485Y-24436089D01*
X19827192Y-24478690D01*
X19841964Y-24524157D01*
X19850968Y-24541829D01*
X19879073Y-24580512D01*
X19900775Y-24623105D01*
X19912432Y-24639150D01*
X20071409Y-24798127D01*
X20128265Y-25001765D01*
X20135496Y-25018198D01*
X20260024Y-25218259D01*
X20271576Y-25232002D01*
X20447249Y-25389071D01*
X20462193Y-25399019D01*
X20674888Y-25500470D01*
X20692025Y-25505824D01*
X20924646Y-25543500D01*
X20942596Y-25543829D01*
X21176440Y-25514702D01*
X21193761Y-25509980D01*
X21410032Y-25416392D01*
X21425331Y-25406998D01*
X21606642Y-25256471D01*
X21618690Y-25243161D01*
X21750464Y-25047796D01*
X21758292Y-25031640D01*
X21830056Y-24806775D01*
X21833050Y-24788289D01*
X21836165Y-24533328D01*
X21833624Y-24514774D01*
X21767376Y-24288223D01*
X21759945Y-24271879D01*
X21632983Y-24073354D01*
X21621264Y-24059753D01*
X21443685Y-23904841D01*
X21428620Y-23895076D01*
X21226000Y-23801453D01*
X21226000Y-23359952D01*
X21227109Y-23360132D01*
X21245059Y-23360461D01*
X21478903Y-23331334D01*
X21496224Y-23326612D01*
X21712495Y-23233024D01*
X21727794Y-23223630D01*
X21909105Y-23073103D01*
X21921153Y-23059793D01*
X22052927Y-22864428D01*
X22060755Y-22848272D01*
X22132519Y-22623407D01*
X22135513Y-22604921D01*
X22136540Y-22520837D01*
X22144516Y-22505184D01*
X22150645Y-22486321D01*
X22158124Y-22439099D01*
X22172897Y-22393632D01*
X22176000Y-22374043D01*
X22176000Y-20291150D01*
X22259590Y-20221010D01*
X22273761Y-20204121D01*
X22374359Y-20029880D01*
X22381900Y-20009163D01*
X22415878Y-19816462D01*
X22416837Y-19805501D01*
X22416837Y-19249881D01*
X23146749Y-18519970D01*
X23187568Y-18479151D01*
X23199226Y-18463106D01*
X23220933Y-18420504D01*
X23249032Y-18381828D01*
X23258035Y-18364158D01*
X23272810Y-18318688D01*
X23294516Y-18276088D01*
X23300645Y-18257226D01*
X23308124Y-18210003D01*
X23322897Y-18164536D01*
X23326000Y-18144948D01*
X23326000Y-17981837D01*
X23408258Y-17981837D01*
X23424634Y-17979681D01*
X23485007Y-17963505D01*
X23583538Y-17980878D01*
X23594499Y-17981837D01*
X23644507Y-17981837D01*
X23680156Y-18109520D01*
X23687387Y-18125953D01*
X23811915Y-18326014D01*
X23823467Y-18339757D01*
X23999140Y-18496826D01*
X24014084Y-18506774D01*
X24226779Y-18608225D01*
X24243916Y-18613579D01*
X24367345Y-18633570D01*
X24428265Y-18851765D01*
X24435496Y-18868198D01*
X24560024Y-19068259D01*
X24571576Y-19082002D01*
X24747249Y-19239071D01*
X24762193Y-19249019D01*
X24974888Y-19350470D01*
X24992025Y-19355824D01*
X25109702Y-19374883D01*
X25013012Y-19388128D01*
X24995750Y-19393061D01*
X24780639Y-19489285D01*
X24765456Y-19498865D01*
X24585998Y-19651596D01*
X24574114Y-19665053D01*
X24444735Y-19862013D01*
X24437105Y-19878264D01*
X24368207Y-20103618D01*
X24365445Y-20121358D01*
X24362567Y-20356993D01*
X24364895Y-20374794D01*
X24428265Y-20601765D01*
X24435496Y-20618198D01*
X24524001Y-20760385D01*
X24524000Y-26949282D01*
X20096605Y-31376678D01*
X20013013Y-31388128D01*
X19995751Y-31393061D01*
X19780639Y-31489285D01*
X19765456Y-31498865D01*
X19585998Y-31651596D01*
X19574114Y-31665053D01*
X19444735Y-31862013D01*
X19437105Y-31878264D01*
X19368207Y-32103618D01*
X19365445Y-32121358D01*
X19362567Y-32356993D01*
X19364895Y-32374794D01*
X19428265Y-32601765D01*
X19435496Y-32618198D01*
X19560024Y-32818259D01*
X19571576Y-32832002D01*
X19747249Y-32989071D01*
X19762193Y-32999019D01*
X19814566Y-33024000D01*
X19515647Y-33024000D01*
X19493685Y-33004841D01*
X19478620Y-32995076D01*
X19264700Y-32896232D01*
X19247500Y-32891088D01*
X19014436Y-32856256D01*
X18996483Y-32856147D01*
X18763012Y-32888128D01*
X18745750Y-32893061D01*
X18530639Y-32989285D01*
X18515456Y-32998865D01*
X18335998Y-33151596D01*
X18324114Y-33165053D01*
X18194735Y-33362013D01*
X18187105Y-33378264D01*
X18118207Y-33603618D01*
X18115445Y-33621358D01*
X18112567Y-33856993D01*
X18114895Y-33874794D01*
X18178265Y-34101765D01*
X18185496Y-34118198D01*
X18310024Y-34318259D01*
X18321576Y-34332002D01*
X18497249Y-34489071D01*
X18512193Y-34499019D01*
X18724888Y-34600470D01*
X18742025Y-34605824D01*
X18974646Y-34643500D01*
X18992596Y-34643829D01*
X19226440Y-34614702D01*
X19243761Y-34609980D01*
X19460032Y-34516392D01*
X19475331Y-34506998D01*
X19512669Y-34476000D01*
X21052426Y-34476000D01*
X21052438Y-34475999D01*
X21104946Y-34475999D01*
X21124535Y-34472897D01*
X21169997Y-34458125D01*
X21217226Y-34450645D01*
X21236088Y-34444516D01*
X21278689Y-34422810D01*
X21324158Y-34408036D01*
X21341828Y-34399032D01*
X21380502Y-34370934D01*
X21423106Y-34349226D01*
X21439151Y-34337568D01*
X21587739Y-34188980D01*
X21587742Y-34188976D01*
X22152850Y-33623868D01*
X22226440Y-33614702D01*
X22243761Y-33609980D01*
X22460032Y-33516392D01*
X22475331Y-33506998D01*
X22656642Y-33356471D01*
X22668690Y-33343161D01*
X22800464Y-33147796D01*
X22808292Y-33131640D01*
X22880056Y-32906775D01*
X22883050Y-32888289D01*
X22886165Y-32633328D01*
X22883624Y-32614774D01*
X22817376Y-32388223D01*
X22809945Y-32371879D01*
X22682983Y-32173354D01*
X22671264Y-32159753D01*
X22493685Y-32004841D01*
X22478620Y-31995076D01*
X22264700Y-31896232D01*
X22247500Y-31891088D01*
X22014436Y-31856256D01*
X21996483Y-31856147D01*
X21763012Y-31888128D01*
X21745750Y-31893061D01*
X21542930Y-31983787D01*
X25796749Y-27729969D01*
X25837568Y-27689151D01*
X25849226Y-27673106D01*
X25870933Y-27630504D01*
X25899032Y-27591828D01*
X25908035Y-27574158D01*
X25922810Y-27528688D01*
X25944516Y-27486088D01*
X25950645Y-27467226D01*
X25958124Y-27420003D01*
X25972897Y-27374536D01*
X25976000Y-27354948D01*
X25976000Y-20758195D01*
X26000254Y-20722236D01*
X26024001Y-20760385D01*
X26024000Y-32699282D01*
X21096605Y-37626678D01*
X21013013Y-37638128D01*
X20995751Y-37643061D01*
X20780639Y-37739285D01*
X20765456Y-37748865D01*
X20585998Y-37901596D01*
X20574114Y-37915053D01*
X20444735Y-38112013D01*
X20437105Y-38128264D01*
X20368207Y-38353618D01*
X20365445Y-38371358D01*
X20362567Y-38606993D01*
X20364895Y-38624794D01*
X20428265Y-38851765D01*
X20435496Y-38868198D01*
X20560024Y-39068259D01*
X20571576Y-39082002D01*
X20740365Y-39232916D01*
X20699282Y-39274000D01*
X19765647Y-39274000D01*
X19743685Y-39254841D01*
X19728620Y-39245076D01*
X19514700Y-39146232D01*
X19497500Y-39141088D01*
X19264436Y-39106256D01*
X19246483Y-39106147D01*
X19013012Y-39138128D01*
X18995750Y-39143061D01*
X18780639Y-39239285D01*
X18765456Y-39248865D01*
X18585998Y-39401596D01*
X18574114Y-39415053D01*
X18444735Y-39612013D01*
X18437105Y-39628264D01*
X18368207Y-39853618D01*
X18365445Y-39871358D01*
X18362567Y-40106993D01*
X18364895Y-40124794D01*
X18428265Y-40351765D01*
X18435496Y-40368198D01*
X18560024Y-40568259D01*
X18571576Y-40582002D01*
X18747249Y-40739071D01*
X18762193Y-40749019D01*
X18974888Y-40850470D01*
X18992025Y-40855824D01*
X19224646Y-40893500D01*
X19242596Y-40893829D01*
X19476440Y-40864702D01*
X19493761Y-40859980D01*
X19710032Y-40766392D01*
X19725331Y-40756998D01*
X19762669Y-40726000D01*
X21052426Y-40726000D01*
X21052438Y-40725999D01*
X21104946Y-40725999D01*
X21124535Y-40722897D01*
X21169997Y-40708125D01*
X21217226Y-40700645D01*
X21236088Y-40694516D01*
X21278689Y-40672810D01*
X21324158Y-40658036D01*
X21341828Y-40649032D01*
X21380502Y-40620934D01*
X21423106Y-40599226D01*
X21439151Y-40587568D01*
X21587739Y-40438980D01*
X21587744Y-40438973D01*
X21708163Y-40318554D01*
X21708163Y-40977095D01*
X18994479Y-40977095D01*
X18994467Y-40977096D01*
X18941957Y-40977096D01*
X18922369Y-40980198D01*
X18876907Y-40994970D01*
X18829678Y-41002451D01*
X18810817Y-41008579D01*
X18768218Y-41030284D01*
X18722746Y-41045059D01*
X18705075Y-41054063D01*
X18666396Y-41082166D01*
X18623800Y-41103869D01*
X18607755Y-41115526D01*
X18570110Y-41153171D01*
X18570096Y-41153184D01*
X15846605Y-43876678D01*
X15763013Y-43888128D01*
X15745751Y-43893061D01*
X15530639Y-43989285D01*
X15515456Y-43998865D01*
X15335998Y-44151596D01*
X15324114Y-44165053D01*
X15194735Y-44362013D01*
X15187105Y-44378264D01*
X15118207Y-44603618D01*
X15115445Y-44621358D01*
X15112567Y-44856993D01*
X15114895Y-44874794D01*
X15178265Y-45101765D01*
X15185496Y-45118198D01*
X15310024Y-45318259D01*
X15321576Y-45332002D01*
X15497249Y-45489071D01*
X15512193Y-45499019D01*
X15724888Y-45600470D01*
X15742025Y-45605824D01*
X15974646Y-45643500D01*
X15992596Y-45643829D01*
X16226440Y-45614702D01*
X16243761Y-45609980D01*
X16343322Y-45566896D01*
X16254963Y-45695942D01*
X16249026Y-45706742D01*
X16166296Y-45899763D01*
X16162570Y-45911511D01*
X16118907Y-46116927D01*
X16117533Y-46129175D01*
X16114601Y-46339158D01*
X16115633Y-46351439D01*
X16153542Y-46557994D01*
X16156940Y-46569841D01*
X16159839Y-46577164D01*
X16047099Y-46501119D01*
X16036257Y-46495257D01*
X15842662Y-46413878D01*
X15830888Y-46410234D01*
X15625173Y-46368006D01*
X15612916Y-46366718D01*
X15402917Y-46365252D01*
X15390643Y-46366369D01*
X15184360Y-46405720D01*
X15172536Y-46409199D01*
X14977824Y-46487868D01*
X14966902Y-46493578D01*
X14791178Y-46608569D01*
X14781572Y-46616292D01*
X14631531Y-46763223D01*
X14623608Y-46772665D01*
X14504963Y-46945942D01*
X14499026Y-46956742D01*
X14416296Y-47149763D01*
X14412570Y-47161511D01*
X14368907Y-47366927D01*
X14367533Y-47379175D01*
X14364601Y-47589158D01*
X14365633Y-47601439D01*
X14403542Y-47807994D01*
X14406940Y-47819841D01*
X14484248Y-48015098D01*
X14489881Y-48026059D01*
X14603642Y-48202581D01*
X14611297Y-48212240D01*
X14757178Y-48363305D01*
X14766564Y-48371293D01*
X14939008Y-48491145D01*
X14949767Y-48497158D01*
X15142207Y-48581232D01*
X15153929Y-48585040D01*
X15359033Y-48630136D01*
X15371271Y-48631595D01*
X15581229Y-48635993D01*
X15593518Y-48635048D01*
X15800332Y-48598581D01*
X15812202Y-48595266D01*
X16007993Y-48519324D01*
X16018994Y-48513767D01*
X16196306Y-48401241D01*
X16206018Y-48393654D01*
X16358098Y-48248831D01*
X16366151Y-48239501D01*
X16487204Y-48067897D01*
X16493291Y-48057181D01*
X16578708Y-47865334D01*
X16582599Y-47853638D01*
X16629222Y-47648423D01*
X16630786Y-47635309D01*
X16634123Y-47396318D01*
X16632926Y-47383165D01*
X16592050Y-47176727D01*
X16590915Y-47172969D01*
X16689008Y-47241145D01*
X16699767Y-47247158D01*
X16892207Y-47331232D01*
X16903929Y-47335040D01*
X17109033Y-47380136D01*
X17121271Y-47381595D01*
X17331229Y-47385993D01*
X17343518Y-47385048D01*
X17550332Y-47348581D01*
X17562202Y-47345266D01*
X17757993Y-47269324D01*
X17768994Y-47263767D01*
X17946306Y-47151241D01*
X17956018Y-47143654D01*
X18024001Y-47078915D01*
X18024001Y-47266343D01*
X17758652Y-47531693D01*
X17675061Y-47543143D01*
X17657799Y-47548076D01*
X17442687Y-47644300D01*
X17427504Y-47653880D01*
X17248046Y-47806611D01*
X17236162Y-47820068D01*
X17106783Y-48017028D01*
X17099153Y-48033279D01*
X17030255Y-48258633D01*
X17027493Y-48276373D01*
X17024615Y-48512008D01*
X17026943Y-48529809D01*
X17090313Y-48756780D01*
X17097544Y-48773213D01*
X17156812Y-48868430D01*
X17013012Y-48888128D01*
X16995750Y-48893061D01*
X16780639Y-48989285D01*
X16765456Y-48998865D01*
X16585998Y-49151596D01*
X16574114Y-49165053D01*
X16444735Y-49362013D01*
X16437105Y-49378264D01*
X16368207Y-49603618D01*
X16365445Y-49621358D01*
X16362567Y-49856993D01*
X16364895Y-49874794D01*
X16428265Y-50101765D01*
X16435496Y-50118198D01*
X16560024Y-50318259D01*
X16571576Y-50332002D01*
X16747249Y-50489071D01*
X16762193Y-50499019D01*
X16974888Y-50600470D01*
X16992025Y-50605824D01*
X17224646Y-50643500D01*
X17242596Y-50643829D01*
X17476440Y-50614702D01*
X17493761Y-50609980D01*
X17710032Y-50516392D01*
X17725331Y-50506998D01*
X17762669Y-50476000D01*
X18670572Y-50476000D01*
X18670584Y-50475999D01*
X18723092Y-50475999D01*
X18742681Y-50472897D01*
X18788143Y-50458125D01*
X18835372Y-50450645D01*
X18854234Y-50444516D01*
X18896835Y-50422810D01*
X18942304Y-50408036D01*
X18959974Y-50399032D01*
X18998648Y-50370934D01*
X19041252Y-50349226D01*
X19057297Y-50337568D01*
X19205885Y-50188980D01*
X19205888Y-50188976D01*
X19624000Y-49770865D01*
X19624000Y-52302191D01*
X19697809Y-52376000D01*
X30302191Y-52376000D01*
X30376000Y-52302191D01*
X30376000Y-48947809D01*
X30302191Y-48874000D01*
X21885528Y-48874000D01*
X21906642Y-48856471D01*
X21918690Y-48843161D01*
X22050464Y-48647796D01*
X22058292Y-48631640D01*
X22130056Y-48406775D01*
X22133050Y-48388289D01*
X22136165Y-48133328D01*
X22133624Y-48114774D01*
X22067376Y-47888223D01*
X22059945Y-47871879D01*
X21932983Y-47673354D01*
X21921264Y-47659753D01*
X21743685Y-47504841D01*
X21728620Y-47495076D01*
X21514700Y-47396232D01*
X21497500Y-47391088D01*
X21417584Y-47379144D01*
X21895963Y-46900766D01*
X21974646Y-46913510D01*
X21992596Y-46913839D01*
X22226440Y-46884712D01*
X22243761Y-46879990D01*
X22460032Y-46786402D01*
X22475331Y-46777008D01*
X22565910Y-46701808D01*
X23708163Y-46701808D01*
X23708163Y-47258258D01*
X23710319Y-47274634D01*
X23785137Y-47553859D01*
X23797880Y-47578339D01*
X23928990Y-47734590D01*
X23945879Y-47748761D01*
X24120120Y-47849359D01*
X24140837Y-47856900D01*
X24333538Y-47890878D01*
X24344499Y-47891837D01*
X24423191Y-47891837D01*
X24497000Y-47818028D01*
X24752999Y-47818028D01*
X24826808Y-47891837D01*
X24908258Y-47891837D01*
X24924634Y-47889681D01*
X25203859Y-47814863D01*
X25228339Y-47802120D01*
X25384590Y-47671010D01*
X25398761Y-47654121D01*
X25499359Y-47479880D01*
X25506900Y-47459163D01*
X25540878Y-47266462D01*
X25541837Y-47255501D01*
X25541837Y-46701809D01*
X25468028Y-46628000D01*
X24826809Y-46627999D01*
X24753000Y-46701808D01*
X24752999Y-47818028D01*
X24497000Y-47818028D01*
X24497001Y-46701809D01*
X24423192Y-46628000D01*
X23781972Y-46627999D01*
X23708163Y-46701808D01*
X22565910Y-46701808D01*
X22656642Y-46626481D01*
X22668690Y-46613171D01*
X22800464Y-46417806D01*
X22808292Y-46401650D01*
X22818941Y-46368282D01*
X22974646Y-46393500D01*
X22992596Y-46393829D01*
X23226440Y-46364702D01*
X23243761Y-46359980D01*
X23460032Y-46266392D01*
X23475331Y-46256998D01*
X23656642Y-46106471D01*
X23668690Y-46093161D01*
X23708163Y-46034639D01*
X23708163Y-46298191D01*
X23781972Y-46372000D01*
X24423191Y-46372001D01*
X24497000Y-46298192D01*
X24497000Y-46298191D01*
X24752999Y-46298191D01*
X24826808Y-46372000D01*
X25468028Y-46372001D01*
X25541837Y-46298192D01*
X25541837Y-45741742D01*
X25539681Y-45725366D01*
X25464863Y-45446142D01*
X25452120Y-45421662D01*
X25321010Y-45265410D01*
X25304121Y-45251239D01*
X25129880Y-45150641D01*
X25109163Y-45143100D01*
X24916462Y-45109122D01*
X24905501Y-45108163D01*
X24826809Y-45108163D01*
X24753000Y-45181972D01*
X24752999Y-46298191D01*
X24497000Y-46298191D01*
X24497001Y-45181972D01*
X24423192Y-45108163D01*
X24341742Y-45108163D01*
X24325366Y-45110319D01*
X24046142Y-45185137D01*
X24021662Y-45197880D01*
X23871633Y-45323768D01*
X23817376Y-45138223D01*
X23809945Y-45121879D01*
X23716652Y-44976000D01*
X27718887Y-44976000D01*
X27851050Y-45108163D01*
X27591742Y-45108163D01*
X27575366Y-45110319D01*
X27296142Y-45185137D01*
X27271662Y-45197880D01*
X27115410Y-45328990D01*
X27101239Y-45345879D01*
X27000641Y-45520120D01*
X26993100Y-45540837D01*
X26959122Y-45733538D01*
X26958163Y-45744499D01*
X26958163Y-47258258D01*
X26960319Y-47274634D01*
X27035137Y-47553859D01*
X27047880Y-47578339D01*
X27178990Y-47734590D01*
X27195879Y-47748761D01*
X27370120Y-47849359D01*
X27390837Y-47856900D01*
X27583538Y-47890878D01*
X27594499Y-47891837D01*
X28158258Y-47891837D01*
X28174634Y-47889681D01*
X28453859Y-47814863D01*
X28478339Y-47802120D01*
X28634590Y-47671010D01*
X28648761Y-47654121D01*
X28749359Y-47479880D01*
X28756900Y-47459163D01*
X28790878Y-47266462D01*
X28791837Y-47255501D01*
X28791837Y-46048950D01*
X30544002Y-47801116D01*
X30544003Y-54687203D01*
X27482192Y-57749015D01*
X27550464Y-57647796D01*
X27558292Y-57631640D01*
X27630056Y-57406775D01*
X27633050Y-57388289D01*
X27636165Y-57133328D01*
X27633624Y-57114774D01*
X27567376Y-56888223D01*
X27559945Y-56871879D01*
X27476000Y-56740618D01*
X27476000Y-56008195D01*
X27550464Y-55897796D01*
X27558292Y-55881640D01*
X27630056Y-55656775D01*
X27633050Y-55638289D01*
X27636165Y-55383328D01*
X27633624Y-55364774D01*
X27567376Y-55138223D01*
X27559945Y-55121879D01*
X27432983Y-54923354D01*
X27421264Y-54909753D01*
X27243685Y-54754841D01*
X27228620Y-54745076D01*
X27014700Y-54646232D01*
X26997500Y-54641088D01*
X26764436Y-54606256D01*
X26746483Y-54606147D01*
X26513012Y-54638128D01*
X26495750Y-54643061D01*
X26280639Y-54739285D01*
X26265456Y-54748865D01*
X26085998Y-54901596D01*
X26074114Y-54915053D01*
X25944735Y-55112013D01*
X25937105Y-55128264D01*
X25868207Y-55353618D01*
X25865445Y-55371358D01*
X25862567Y-55606993D01*
X25864895Y-55624794D01*
X25928265Y-55851765D01*
X25935496Y-55868198D01*
X26024001Y-56010385D01*
X26024000Y-56741343D01*
X25944735Y-56862013D01*
X25937105Y-56878264D01*
X25868207Y-57103618D01*
X25865445Y-57121358D01*
X25863320Y-57295340D01*
X25817376Y-57138223D01*
X25809945Y-57121879D01*
X25682983Y-56923354D01*
X25671264Y-56909753D01*
X25493685Y-56754841D01*
X25478620Y-56745076D01*
X25264700Y-56646232D01*
X25247500Y-56641088D01*
X25014436Y-56606256D01*
X24996483Y-56606147D01*
X24763012Y-56638128D01*
X24745750Y-56643061D01*
X24530639Y-56739285D01*
X24515456Y-56748865D01*
X24485923Y-56774000D01*
X17547574Y-56774000D01*
X17547562Y-56774001D01*
X17495052Y-56774001D01*
X17475464Y-56777103D01*
X17430002Y-56791875D01*
X17382773Y-56799356D01*
X17363912Y-56805484D01*
X17321313Y-56827190D01*
X17275842Y-56841964D01*
X17258171Y-56850968D01*
X17219494Y-56879068D01*
X17176894Y-56900774D01*
X17160849Y-56912432D01*
X17120031Y-56953251D01*
X16315120Y-57758163D01*
X15641742Y-57758163D01*
X15625366Y-57760319D01*
X15346142Y-57835137D01*
X15321662Y-57847880D01*
X15165410Y-57978990D01*
X15151239Y-57995879D01*
X15050641Y-58170120D01*
X15043100Y-58190837D01*
X15009122Y-58383538D01*
X15008163Y-58394499D01*
X15008163Y-59308258D01*
X15010319Y-59324634D01*
X15085137Y-59603859D01*
X15097880Y-59628339D01*
X15228990Y-59784590D01*
X15245879Y-59798761D01*
X15420120Y-59899359D01*
X15440837Y-59906900D01*
X15633538Y-59940878D01*
X15644499Y-59941837D01*
X16858258Y-59941837D01*
X16874634Y-59939681D01*
X17153859Y-59864863D01*
X17178339Y-59852120D01*
X17334590Y-59721010D01*
X17348761Y-59704121D01*
X17449359Y-59529880D01*
X17456900Y-59509163D01*
X17490878Y-59316462D01*
X17491837Y-59305501D01*
X17491837Y-58634881D01*
X17900718Y-58226000D01*
X24482630Y-58226000D01*
X24497249Y-58239071D01*
X24512193Y-58249019D01*
X24724888Y-58350470D01*
X24742025Y-58355824D01*
X24974646Y-58393500D01*
X24992596Y-58393829D01*
X25226440Y-58364702D01*
X25243761Y-58359980D01*
X25460032Y-58266392D01*
X25475331Y-58256998D01*
X25656642Y-58106471D01*
X25668690Y-58093161D01*
X25800464Y-57897796D01*
X25808292Y-57881640D01*
X25880056Y-57656775D01*
X25883050Y-57638289D01*
X25885373Y-57448140D01*
X25928265Y-57601765D01*
X25935496Y-57618198D01*
X26060024Y-57818259D01*
X26071576Y-57832002D01*
X26247249Y-57989071D01*
X26262193Y-57999019D01*
X26474888Y-58100470D01*
X26492025Y-58105824D01*
X26724646Y-58143500D01*
X26742596Y-58143829D01*
X26976440Y-58114702D01*
X26993761Y-58109980D01*
X27210032Y-58016392D01*
X27222423Y-58008784D01*
X24331036Y-60900171D01*
X24331029Y-60900176D01*
X24182441Y-61048765D01*
X24170784Y-61064809D01*
X24149078Y-61107409D01*
X24120978Y-61146086D01*
X24111974Y-61163757D01*
X24097200Y-61209228D01*
X24075494Y-61251827D01*
X24069366Y-61270689D01*
X24064456Y-61301683D01*
X23964745Y-61453480D01*
X23957115Y-61469731D01*
X23888217Y-61695085D01*
X23885455Y-61712825D01*
X23882577Y-61948460D01*
X23884905Y-61966261D01*
X23948275Y-62193232D01*
X23955506Y-62209665D01*
X24080034Y-62409726D01*
X24091586Y-62423469D01*
X24267259Y-62580538D01*
X24282203Y-62590486D01*
X24494898Y-62691937D01*
X24512035Y-62697291D01*
X24744656Y-62734967D01*
X24762606Y-62735296D01*
X24996450Y-62706169D01*
X25013771Y-62701447D01*
X25230042Y-62607859D01*
X25245341Y-62598466D01*
X25291646Y-62560023D01*
X25364135Y-62676481D01*
X25375687Y-62690224D01*
X25551360Y-62847293D01*
X25566304Y-62857241D01*
X25778999Y-62958692D01*
X25796136Y-62964046D01*
X26028757Y-63001722D01*
X26046707Y-63002051D01*
X26280551Y-62972924D01*
X26297872Y-62968202D01*
X26514143Y-62874614D01*
X26529442Y-62865220D01*
X26710753Y-62714693D01*
X26722801Y-62701383D01*
X26854575Y-62506018D01*
X26862403Y-62489862D01*
X26934167Y-62264997D01*
X26936122Y-62252928D01*
X32656760Y-56532291D01*
X32697579Y-56491473D01*
X32709237Y-56475428D01*
X32730944Y-56432826D01*
X32759043Y-56394150D01*
X32768047Y-56376479D01*
X32782821Y-56331011D01*
X32804527Y-56288410D01*
X32810655Y-56269548D01*
X32818136Y-56222321D01*
X32832908Y-56176858D01*
X32836010Y-56157269D01*
X32836010Y-56104760D01*
X32836011Y-56104748D01*
X32836011Y-52319499D01*
X37183163Y-52319499D01*
X37183163Y-53183258D01*
X37185319Y-53199634D01*
X37260137Y-53478859D01*
X37272880Y-53503339D01*
X37403990Y-53659590D01*
X37420879Y-53673761D01*
X37595120Y-53774359D01*
X37615837Y-53781900D01*
X37808538Y-53815878D01*
X37819499Y-53816837D01*
X38683258Y-53816837D01*
X38699634Y-53814681D01*
X38978859Y-53739863D01*
X39003339Y-53727120D01*
X39159590Y-53596010D01*
X39173761Y-53579121D01*
X39274359Y-53404880D01*
X39281900Y-53384163D01*
X39315878Y-53191462D01*
X39316837Y-53180501D01*
X39316837Y-52316741D01*
X39314681Y-52300366D01*
X39258136Y-52089338D01*
X39260015Y-52085118D01*
X39264097Y-52072557D01*
X39307619Y-51867800D01*
X39309000Y-51854665D01*
X39309000Y-51645335D01*
X39307619Y-51632200D01*
X39264097Y-51427443D01*
X39260016Y-51414883D01*
X39174873Y-51223650D01*
X39168270Y-51212213D01*
X39045228Y-51042859D01*
X39036391Y-51033044D01*
X38880827Y-50892975D01*
X38870143Y-50885213D01*
X38688858Y-50780546D01*
X38676792Y-50775174D01*
X38477706Y-50710488D01*
X38464788Y-50707743D01*
X38256604Y-50685861D01*
X38243396Y-50685861D01*
X38035212Y-50707743D01*
X38022294Y-50710488D01*
X37823208Y-50775174D01*
X37811142Y-50780546D01*
X37629857Y-50885213D01*
X37619173Y-50892975D01*
X37463609Y-51033044D01*
X37454772Y-51042859D01*
X37331730Y-51212213D01*
X37325127Y-51223650D01*
X37239984Y-51414883D01*
X37235903Y-51427443D01*
X37192381Y-51632200D01*
X37191000Y-51645335D01*
X37191000Y-51854665D01*
X37192381Y-51867800D01*
X37235903Y-52072557D01*
X37236899Y-52075621D01*
X37225641Y-52095120D01*
X37218100Y-52115837D01*
X37184122Y-52308538D01*
X37183163Y-52319499D01*
X32836011Y-52319499D01*
X32836011Y-50201808D01*
X34385776Y-50201808D01*
X34385776Y-50327411D01*
X34387220Y-50340841D01*
X34452070Y-50638952D01*
X34460700Y-50659786D01*
X34588759Y-50859050D01*
X34600562Y-50872671D01*
X34777861Y-51026302D01*
X34793023Y-51036046D01*
X35006424Y-51133503D01*
X35023717Y-51138581D01*
X35197604Y-51163582D01*
X35206581Y-51164224D01*
X35298191Y-51164224D01*
X35372000Y-51090415D01*
X35627999Y-51090415D01*
X35701808Y-51164224D01*
X35777411Y-51164224D01*
X35790841Y-51162780D01*
X36088952Y-51097930D01*
X36109786Y-51089300D01*
X36309050Y-50961241D01*
X36322671Y-50949438D01*
X36476302Y-50772139D01*
X36486046Y-50756977D01*
X36583503Y-50543576D01*
X36588581Y-50526283D01*
X36613582Y-50352396D01*
X36614224Y-50343419D01*
X36614224Y-50201809D01*
X36540415Y-50128000D01*
X35701809Y-50127999D01*
X35628000Y-50201808D01*
X35627999Y-51090415D01*
X35372000Y-51090415D01*
X35372001Y-50201809D01*
X35298192Y-50128000D01*
X34459585Y-50127999D01*
X34385776Y-50201808D01*
X32836011Y-50201808D01*
X32836011Y-47906581D01*
X34385776Y-47906581D01*
X34385776Y-48577411D01*
X34387220Y-48590841D01*
X34452070Y-48888952D01*
X34460700Y-48909786D01*
X34588759Y-49109050D01*
X34600562Y-49122671D01*
X34608720Y-49129740D01*
X34523698Y-49227861D01*
X34513954Y-49243023D01*
X34416497Y-49456424D01*
X34411419Y-49473717D01*
X34386418Y-49647604D01*
X34385776Y-49656581D01*
X34385776Y-49798191D01*
X34459585Y-49872000D01*
X35298192Y-49872001D01*
X35298193Y-49872000D01*
X36540415Y-49872001D01*
X36614224Y-49798192D01*
X36614224Y-49672589D01*
X36612780Y-49659159D01*
X36547930Y-49361048D01*
X36539300Y-49340214D01*
X36411241Y-49140950D01*
X36399438Y-49127329D01*
X36391280Y-49120260D01*
X36476302Y-49022139D01*
X36486046Y-49006977D01*
X36583503Y-48793576D01*
X36588581Y-48776283D01*
X36613582Y-48602396D01*
X36614224Y-48593419D01*
X36614224Y-47922589D01*
X36612780Y-47909159D01*
X36547930Y-47611048D01*
X36539300Y-47590214D01*
X36411241Y-47390950D01*
X36399438Y-47377329D01*
X36222139Y-47223698D01*
X36206977Y-47213954D01*
X35993576Y-47116497D01*
X35976283Y-47111419D01*
X35802396Y-47086418D01*
X35793419Y-47085776D01*
X35222589Y-47085776D01*
X35209159Y-47087220D01*
X34911048Y-47152070D01*
X34890214Y-47160700D01*
X34690950Y-47288759D01*
X34677329Y-47300562D01*
X34523698Y-47477861D01*
X34513954Y-47493023D01*
X34416497Y-47706424D01*
X34411419Y-47723717D01*
X34386418Y-47897604D01*
X34385776Y-47906581D01*
X32836011Y-47906581D01*
X32836011Y-47074667D01*
X32832908Y-47055079D01*
X32818135Y-47009612D01*
X32810656Y-46962389D01*
X32804527Y-46943527D01*
X32782821Y-46900927D01*
X32768046Y-46855457D01*
X32759043Y-46837787D01*
X32730944Y-46799111D01*
X32709237Y-46756509D01*
X32697579Y-46740464D01*
X32556173Y-46599059D01*
X31814107Y-45856993D01*
X34862567Y-45856993D01*
X34864895Y-45874794D01*
X34928265Y-46101765D01*
X34935496Y-46118198D01*
X35060024Y-46318259D01*
X35071576Y-46332002D01*
X35247249Y-46489071D01*
X35262193Y-46499019D01*
X35474888Y-46600470D01*
X35492025Y-46605824D01*
X35724646Y-46643500D01*
X35742596Y-46643829D01*
X35976440Y-46614702D01*
X35993761Y-46609980D01*
X36210032Y-46516392D01*
X36225331Y-46506998D01*
X36406642Y-46356471D01*
X36418690Y-46343161D01*
X36550464Y-46147796D01*
X36558292Y-46131640D01*
X36630056Y-45906775D01*
X36633050Y-45888289D01*
X36636165Y-45633328D01*
X36633624Y-45614774D01*
X36567376Y-45388223D01*
X36559945Y-45371879D01*
X36476000Y-45240618D01*
X36476000Y-45223169D01*
X36477900Y-45221592D01*
X36489948Y-45208281D01*
X36621722Y-45012916D01*
X36629550Y-44996760D01*
X36701314Y-44771895D01*
X36704308Y-44753409D01*
X36707423Y-44498448D01*
X36704882Y-44479894D01*
X36638634Y-44253343D01*
X36631203Y-44236999D01*
X36504241Y-44038474D01*
X36492522Y-44024873D01*
X36314943Y-43869961D01*
X36299878Y-43860196D01*
X36085958Y-43761352D01*
X36068758Y-43756208D01*
X35835694Y-43721376D01*
X35817741Y-43721267D01*
X35584270Y-43753248D01*
X35567008Y-43758181D01*
X35351897Y-43854405D01*
X35336714Y-43863985D01*
X35157256Y-44016716D01*
X35145372Y-44030173D01*
X35015993Y-44227133D01*
X35008363Y-44243384D01*
X34939465Y-44468738D01*
X34936703Y-44486478D01*
X34933825Y-44722113D01*
X34936153Y-44739914D01*
X34999523Y-44966885D01*
X35006754Y-44983318D01*
X35024001Y-45011026D01*
X35024000Y-45241343D01*
X34944735Y-45362013D01*
X34937105Y-45378264D01*
X34868207Y-45603618D01*
X34865445Y-45621358D01*
X34862567Y-45856993D01*
X31814107Y-45856993D01*
X30391833Y-44434720D01*
X30450464Y-44347796D01*
X30458292Y-44331640D01*
X30530056Y-44106775D01*
X30532010Y-44094709D01*
X30660089Y-43966630D01*
X30618207Y-44103618D01*
X30615445Y-44121358D01*
X30612567Y-44356993D01*
X30614895Y-44374794D01*
X30678265Y-44601765D01*
X30685496Y-44618198D01*
X30810024Y-44818259D01*
X30821576Y-44832002D01*
X30997249Y-44989071D01*
X31012193Y-44999019D01*
X31224888Y-45100470D01*
X31242025Y-45105824D01*
X31474646Y-45143500D01*
X31492596Y-45143829D01*
X31726440Y-45114702D01*
X31743761Y-45109980D01*
X31960032Y-45016392D01*
X31975331Y-45006998D01*
X32156642Y-44856471D01*
X32168690Y-44843161D01*
X32300464Y-44647796D01*
X32308292Y-44631640D01*
X32380056Y-44406775D01*
X32383050Y-44388289D01*
X32386165Y-44133328D01*
X32383624Y-44114774D01*
X32317376Y-43888223D01*
X32309945Y-43871879D01*
X32226000Y-43740618D01*
X32226000Y-41614757D01*
X32226441Y-41614702D01*
X32243761Y-41609980D01*
X32460032Y-41516392D01*
X32475331Y-41506998D01*
X32512669Y-41476000D01*
X32699282Y-41476000D01*
X33121410Y-41898129D01*
X33178265Y-42101765D01*
X33185496Y-42118198D01*
X33310024Y-42318259D01*
X33321576Y-42332002D01*
X33497249Y-42489071D01*
X33512193Y-42499019D01*
X33724888Y-42600470D01*
X33742025Y-42605824D01*
X33974646Y-42643500D01*
X33992596Y-42643829D01*
X34226440Y-42614702D01*
X34243761Y-42609980D01*
X34460032Y-42516392D01*
X34475331Y-42506998D01*
X34656642Y-42356471D01*
X34668690Y-42343161D01*
X34800464Y-42147796D01*
X34808292Y-42131640D01*
X34880056Y-41906775D01*
X34883050Y-41888289D01*
X34886165Y-41633328D01*
X34883624Y-41614774D01*
X34817376Y-41388223D01*
X34809945Y-41371879D01*
X34682983Y-41173354D01*
X34671264Y-41159753D01*
X34493685Y-41004841D01*
X34478620Y-40995076D01*
X34264700Y-40896232D01*
X34247500Y-40891088D01*
X34153803Y-40877085D01*
X33587742Y-40311024D01*
X33587739Y-40311020D01*
X33439151Y-40162432D01*
X33423106Y-40150774D01*
X33380502Y-40129066D01*
X33341828Y-40100968D01*
X33324158Y-40091964D01*
X33278689Y-40077190D01*
X33236088Y-40055484D01*
X33217226Y-40049355D01*
X33169997Y-40041875D01*
X33124535Y-40027103D01*
X33104946Y-40024001D01*
X33052438Y-40024001D01*
X33052426Y-40024000D01*
X32515647Y-40024000D01*
X32493685Y-40004841D01*
X32478620Y-39995076D01*
X32264700Y-39896232D01*
X32247500Y-39891088D01*
X32014436Y-39856256D01*
X31996483Y-39856147D01*
X31763012Y-39888128D01*
X31745750Y-39893061D01*
X31530639Y-39989285D01*
X31515456Y-39998865D01*
X31335998Y-40151596D01*
X31324114Y-40165053D01*
X31194735Y-40362013D01*
X31187105Y-40378264D01*
X31118207Y-40603618D01*
X31117938Y-40605344D01*
X29949283Y-41774000D01*
X26511851Y-41774000D01*
X26634590Y-41671010D01*
X26648761Y-41654121D01*
X26749359Y-41479880D01*
X26756900Y-41459163D01*
X26790878Y-41266462D01*
X26791837Y-41255501D01*
X26791837Y-40701809D01*
X26718028Y-40628000D01*
X25031972Y-40628000D01*
X24958163Y-40701809D01*
X24958163Y-41258258D01*
X24960319Y-41274634D01*
X24990787Y-41388343D01*
X24977396Y-41386418D01*
X24968419Y-41385776D01*
X24297589Y-41385776D01*
X24284159Y-41387220D01*
X23986048Y-41452070D01*
X23965214Y-41460700D01*
X23765950Y-41588759D01*
X23752329Y-41600562D01*
X23745260Y-41608720D01*
X23647139Y-41523698D01*
X23631976Y-41513954D01*
X23601000Y-41499808D01*
X23601000Y-40697574D01*
X23600999Y-40697562D01*
X23600999Y-40645052D01*
X23597897Y-40625464D01*
X23583125Y-40580002D01*
X23575644Y-40532773D01*
X23569516Y-40513911D01*
X23547808Y-40471307D01*
X23541837Y-40452931D01*
X23541837Y-39744499D01*
X24958163Y-39744499D01*
X24958163Y-40298191D01*
X25031972Y-40372000D01*
X25673191Y-40372000D01*
X25747000Y-40298191D01*
X25747000Y-39181972D01*
X26003000Y-39181972D01*
X26003000Y-40298191D01*
X26076809Y-40372000D01*
X26718028Y-40372000D01*
X26791837Y-40298191D01*
X26791837Y-39741742D01*
X26789681Y-39725366D01*
X26714863Y-39446142D01*
X26702120Y-39421662D01*
X26571010Y-39265410D01*
X26554121Y-39251239D01*
X26379880Y-39150641D01*
X26359163Y-39143100D01*
X26166462Y-39109122D01*
X26155501Y-39108163D01*
X26076809Y-39108163D01*
X26003000Y-39181972D01*
X25747000Y-39181972D01*
X25673191Y-39108163D01*
X25591742Y-39108163D01*
X25575366Y-39110319D01*
X25296142Y-39185137D01*
X25271662Y-39197880D01*
X25115410Y-39328990D01*
X25101239Y-39345879D01*
X25000641Y-39520120D01*
X24993100Y-39540837D01*
X24959122Y-39733538D01*
X24958163Y-39744499D01*
X23541837Y-39744499D01*
X23541837Y-39741742D01*
X23539681Y-39725366D01*
X23464863Y-39446142D01*
X23452120Y-39421662D01*
X23321010Y-39265410D01*
X23304121Y-39251239D01*
X23129880Y-39150641D01*
X23109163Y-39143100D01*
X23057181Y-39133934D01*
X23058292Y-39131640D01*
X23066157Y-39106993D01*
X28112567Y-39106993D01*
X28114895Y-39124794D01*
X28178265Y-39351765D01*
X28185496Y-39368198D01*
X28310024Y-39568259D01*
X28321576Y-39582002D01*
X28497249Y-39739071D01*
X28512193Y-39749019D01*
X28724888Y-39850470D01*
X28742025Y-39855824D01*
X28974646Y-39893500D01*
X28992596Y-39893829D01*
X29226440Y-39864702D01*
X29243761Y-39859980D01*
X29460032Y-39766392D01*
X29475331Y-39756998D01*
X29656642Y-39606471D01*
X29668690Y-39593161D01*
X29800464Y-39397796D01*
X29808292Y-39381640D01*
X29880056Y-39156775D01*
X29883050Y-39138289D01*
X29886165Y-38883328D01*
X29883624Y-38864774D01*
X29817376Y-38638223D01*
X29809945Y-38621879D01*
X29726000Y-38490618D01*
X29726000Y-31106993D01*
X33612567Y-31106993D01*
X33614895Y-31124794D01*
X33678265Y-31351765D01*
X33685496Y-31368198D01*
X33774001Y-31510385D01*
X33774000Y-32991343D01*
X33694735Y-33112013D01*
X33687105Y-33128264D01*
X33618207Y-33353618D01*
X33615445Y-33371358D01*
X33612567Y-33606993D01*
X33614895Y-33624794D01*
X33678265Y-33851765D01*
X33685496Y-33868198D01*
X33810024Y-34068259D01*
X33821576Y-34082002D01*
X33997249Y-34239071D01*
X34012193Y-34249019D01*
X34224888Y-34350470D01*
X34242025Y-34355824D01*
X34474646Y-34393500D01*
X34492596Y-34393829D01*
X34726440Y-34364702D01*
X34743761Y-34359980D01*
X34960032Y-34266392D01*
X34975331Y-34256998D01*
X35156642Y-34106471D01*
X35168690Y-34093161D01*
X35300464Y-33897796D01*
X35308292Y-33881640D01*
X35380056Y-33656775D01*
X35383050Y-33638289D01*
X35386165Y-33383328D01*
X35383624Y-33364774D01*
X35317376Y-33138223D01*
X35309945Y-33121879D01*
X35226000Y-32990618D01*
X35226000Y-31508195D01*
X35300464Y-31397796D01*
X35308292Y-31381640D01*
X35380056Y-31156775D01*
X35383050Y-31138289D01*
X35386165Y-30883328D01*
X35383624Y-30864774D01*
X35317376Y-30638223D01*
X35309945Y-30621879D01*
X35182983Y-30423354D01*
X35171264Y-30409753D01*
X34993685Y-30254841D01*
X34978620Y-30245076D01*
X34764700Y-30146232D01*
X34747500Y-30141088D01*
X34514436Y-30106256D01*
X34496483Y-30106147D01*
X34263012Y-30138128D01*
X34245750Y-30143061D01*
X34030639Y-30239285D01*
X34015456Y-30248865D01*
X33835998Y-30401596D01*
X33824114Y-30415053D01*
X33694735Y-30612013D01*
X33687105Y-30628264D01*
X33618207Y-30853618D01*
X33615445Y-30871358D01*
X33612567Y-31106993D01*
X29726000Y-31106993D01*
X29726000Y-21300717D01*
X31402849Y-19623869D01*
X31476440Y-19614702D01*
X31493761Y-19609980D01*
X31710032Y-19516392D01*
X31725331Y-19506998D01*
X31906642Y-19356471D01*
X31918690Y-19343161D01*
X32050464Y-19147796D01*
X32058292Y-19131640D01*
X32130056Y-18906775D01*
X32133050Y-18888289D01*
X32136165Y-18633328D01*
X32133624Y-18614774D01*
X32067376Y-18388223D01*
X32059945Y-18371879D01*
X31932983Y-18173354D01*
X31921264Y-18159753D01*
X31743685Y-18004841D01*
X31728620Y-17995076D01*
X31514700Y-17896232D01*
X31497500Y-17891088D01*
X31264436Y-17856256D01*
X31246483Y-17856147D01*
X31013012Y-17888128D01*
X30995750Y-17893061D01*
X30780639Y-17989285D01*
X30765456Y-17998865D01*
X30585998Y-18151596D01*
X30574114Y-18165053D01*
X30444735Y-18362013D01*
X30437105Y-18378264D01*
X30368207Y-18603618D01*
X30367938Y-18605344D01*
X28553839Y-20419444D01*
X28412432Y-20560850D01*
X28400775Y-20576895D01*
X28379073Y-20619488D01*
X28350968Y-20658171D01*
X28341964Y-20675843D01*
X28327192Y-20721310D01*
X28305485Y-20763911D01*
X28299357Y-20782774D01*
X28291877Y-20829996D01*
X28277103Y-20875465D01*
X28274001Y-20895054D01*
X28274001Y-20952779D01*
X28274000Y-38491343D01*
X28194735Y-38612013D01*
X28187105Y-38628264D01*
X28118207Y-38853618D01*
X28115445Y-38871358D01*
X28112567Y-39106993D01*
X23066157Y-39106993D01*
X23130056Y-38906775D01*
X23133050Y-38888289D01*
X23136165Y-38633328D01*
X23133624Y-38614774D01*
X23067376Y-38388223D01*
X23059945Y-38371879D01*
X22932983Y-38173354D01*
X22921264Y-38159753D01*
X22758741Y-38017976D01*
X27296749Y-33479969D01*
X27337568Y-33439151D01*
X27349226Y-33423106D01*
X27370933Y-33380504D01*
X27399032Y-33341828D01*
X27408035Y-33324158D01*
X27422810Y-33278688D01*
X27444516Y-33236088D01*
X27450645Y-33217226D01*
X27458124Y-33170003D01*
X27472897Y-33124536D01*
X27476000Y-33104948D01*
X27476000Y-20758195D01*
X27550464Y-20647796D01*
X27558292Y-20631640D01*
X27630056Y-20406775D01*
X27633050Y-20388289D01*
X27636165Y-20133328D01*
X27633624Y-20114774D01*
X27567376Y-19888223D01*
X27559945Y-19871879D01*
X27432983Y-19673354D01*
X27421264Y-19659753D01*
X27243685Y-19504841D01*
X27228620Y-19495076D01*
X27014700Y-19396232D01*
X26997500Y-19391088D01*
X26891631Y-19375266D01*
X26976440Y-19364702D01*
X26993761Y-19359980D01*
X27210032Y-19266392D01*
X27225331Y-19256998D01*
X27406642Y-19106471D01*
X27418690Y-19093161D01*
X27550464Y-18897796D01*
X27558292Y-18881640D01*
X27630056Y-18656775D01*
X27633050Y-18638289D01*
X27636165Y-18383328D01*
X27633624Y-18364774D01*
X27567376Y-18138223D01*
X27559945Y-18121879D01*
X27470384Y-17981837D01*
X27708258Y-17981837D01*
X27724634Y-17979681D01*
X27785007Y-17963505D01*
X27883538Y-17980878D01*
X27894499Y-17981837D01*
X27998191Y-17981837D01*
X28072000Y-17908028D01*
X28072000Y-17855484D01*
X28184590Y-17761010D01*
X28198761Y-17744121D01*
X28299359Y-17569880D01*
X28306900Y-17549163D01*
X28328000Y-17429498D01*
X28328000Y-17908028D01*
X28401809Y-17981837D01*
X28508258Y-17981837D01*
X28524634Y-17979681D01*
X28803859Y-17904863D01*
X28828339Y-17892120D01*
X28984590Y-17761010D01*
X28984621Y-17760973D01*
X29089542Y-17793451D01*
X29192000Y-17717912D01*
X29192000Y-17717013D01*
X29447999Y-17717013D01*
X29549045Y-17792605D01*
X29722096Y-17741674D01*
X29733523Y-17737057D01*
X29910940Y-17644306D01*
X29921254Y-17637557D01*
X30077275Y-17512111D01*
X30086080Y-17503488D01*
X30214766Y-17350128D01*
X30221729Y-17339958D01*
X30318175Y-17164523D01*
X30323031Y-17153195D01*
X30383631Y-16962157D01*
X30386242Y-16949662D01*
X30403655Y-16783988D01*
X30404000Y-16777398D01*
X30404000Y-16381809D01*
X30330191Y-16308000D01*
X29521809Y-16307999D01*
X29448000Y-16381808D01*
X29447999Y-17717013D01*
X29192000Y-17717013D01*
X29192001Y-16381809D01*
X29118192Y-16308000D01*
X28599137Y-16307999D01*
X28668308Y-16225564D01*
X28676104Y-16213829D01*
X28759273Y-16052000D01*
X29118191Y-16052001D01*
X29192000Y-15978192D01*
X29192000Y-15978191D01*
X29447999Y-15978191D01*
X29521808Y-16052000D01*
X30330191Y-16052001D01*
X30404000Y-15978192D01*
X30404000Y-15579649D01*
X30403699Y-15573497D01*
X30389099Y-15424595D01*
X30386705Y-15412504D01*
X30328841Y-15220850D01*
X30324144Y-15209456D01*
X30230157Y-15032692D01*
X30223337Y-15022426D01*
X30096806Y-14867283D01*
X30088122Y-14858537D01*
X29933866Y-14730926D01*
X29923648Y-14724034D01*
X29747542Y-14628815D01*
X29736181Y-14624039D01*
X29550458Y-14566549D01*
X29448000Y-14642088D01*
X29447999Y-15978191D01*
X29192000Y-15978191D01*
X29192001Y-14642987D01*
X29090955Y-14567395D01*
X28917904Y-14618326D01*
X28906477Y-14622943D01*
X28729060Y-14715694D01*
X28718746Y-14722443D01*
X28562725Y-14847889D01*
X28553920Y-14856512D01*
X28464339Y-14963270D01*
X28399149Y-14910856D01*
X28387253Y-14903307D01*
X28211663Y-14817666D01*
X28198391Y-14812940D01*
X28008190Y-14768328D01*
X27994200Y-14766660D01*
X27798843Y-14765296D01*
X27784831Y-14766769D01*
X27634130Y-14799902D01*
X27636165Y-14633328D01*
X27633624Y-14614774D01*
X27567376Y-14388223D01*
X27559945Y-14371879D01*
X27432983Y-14173354D01*
X27421264Y-14159753D01*
X27243685Y-14004841D01*
X27228620Y-13995076D01*
X27014700Y-13896232D01*
X26997500Y-13891088D01*
X26764436Y-13856256D01*
X26746483Y-13856147D01*
X26513012Y-13888128D01*
X26495750Y-13893061D01*
X26280639Y-13989285D01*
X26265456Y-13998865D01*
X26085998Y-14151596D01*
X26074114Y-14165053D01*
X25944735Y-14362013D01*
X25937105Y-14378264D01*
X25868207Y-14603618D01*
X25865445Y-14621358D01*
X25862567Y-14856993D01*
X25864895Y-14874794D01*
X25916215Y-15058605D01*
X25916214Y-15539100D01*
X25905501Y-15538163D01*
X25814882Y-15538163D01*
X25599150Y-15322431D01*
X25583105Y-15310773D01*
X25540501Y-15289065D01*
X25501827Y-15260967D01*
X25484157Y-15251963D01*
X25438688Y-15237189D01*
X25396087Y-15215483D01*
X25377225Y-15209354D01*
X25329996Y-15201874D01*
X25284534Y-15187102D01*
X25264945Y-15184000D01*
X25212437Y-15184000D01*
X25212425Y-15183999D01*
X24691732Y-15183999D01*
X24800464Y-15022796D01*
X24808292Y-15006640D01*
X24880056Y-14781775D01*
X24883050Y-14763289D01*
X24886165Y-14508328D01*
X24883624Y-14489774D01*
X24817376Y-14263223D01*
X24809945Y-14246879D01*
X24682983Y-14048354D01*
X24671264Y-14034753D01*
X24493685Y-13879841D01*
X24478620Y-13870076D01*
X24264700Y-13771232D01*
X24247500Y-13766088D01*
X24014436Y-13731256D01*
X23996483Y-13731147D01*
X23763012Y-13763128D01*
X23745750Y-13768061D01*
X23530639Y-13864285D01*
X23515456Y-13873865D01*
X23335998Y-14026596D01*
X23324114Y-14040053D01*
X23194735Y-14237013D01*
X23187105Y-14253264D01*
X23118207Y-14478619D01*
X23115445Y-14496359D01*
X23115235Y-14513534D01*
X23100968Y-14533171D01*
X23091964Y-14550843D01*
X23077192Y-14596310D01*
X23055485Y-14638911D01*
X23049357Y-14657774D01*
X23041877Y-14704996D01*
X23027103Y-14750465D01*
X23024001Y-14770054D01*
X23024001Y-15507007D01*
X22999192Y-15397810D01*
X22994559Y-15384505D01*
X22910145Y-15208320D01*
X22902679Y-15196372D01*
X22781330Y-15043268D01*
X22771402Y-15033270D01*
X22619149Y-14910856D01*
X22607253Y-14903307D01*
X22431663Y-14817666D01*
X22418391Y-14812940D01*
X22228190Y-14768328D01*
X22214200Y-14766660D01*
X22018843Y-14765296D01*
X22004831Y-14766769D01*
X21814025Y-14808720D01*
X21800688Y-14813260D01*
X21623919Y-14896442D01*
X21611919Y-14903825D01*
X21535379Y-14963624D01*
X21456806Y-14867283D01*
X21448122Y-14858537D01*
X21293866Y-14730926D01*
X21283648Y-14724034D01*
X21107542Y-14628815D01*
X21096181Y-14624039D01*
X20910458Y-14566549D01*
X20808000Y-14642088D01*
X20807999Y-15978191D01*
X20881808Y-16052000D01*
X21243712Y-16052001D01*
X21303068Y-16180460D01*
X21310366Y-16192511D01*
X21399304Y-16308000D01*
X20881809Y-16307999D01*
X20808000Y-16381808D01*
X20807999Y-17717013D01*
X20909045Y-17792605D01*
X21023810Y-17758828D01*
X21078990Y-17824590D01*
X21095879Y-17838761D01*
X21268048Y-17938163D01*
X21116742Y-17938163D01*
X21100366Y-17940319D01*
X20821142Y-18015137D01*
X20796662Y-18027880D01*
X20640410Y-18158990D01*
X20626239Y-18175879D01*
X20525641Y-18350120D01*
X20518100Y-18370837D01*
X20497119Y-18489825D01*
X20439863Y-18276142D01*
X20427120Y-18251662D01*
X20296010Y-18095410D01*
X20279121Y-18081239D01*
X20104880Y-17980641D01*
X20084163Y-17973100D01*
X19891462Y-17939122D01*
X19880501Y-17938163D01*
X19634429Y-17938163D01*
X19634527Y-17922141D01*
X19634000Y-17918293D01*
X19634000Y-17016071D01*
X19671160Y-17139150D01*
X19675857Y-17150544D01*
X19769844Y-17327308D01*
X19776664Y-17337574D01*
X19903195Y-17492717D01*
X19911879Y-17501463D01*
X20066135Y-17629074D01*
X20076353Y-17635966D01*
X20252457Y-17731185D01*
X20263819Y-17735961D01*
X20449542Y-17793451D01*
X20552000Y-17717912D01*
X20552001Y-16381808D01*
X20552000Y-16381807D01*
X20552001Y-14642987D01*
X20450955Y-14567395D01*
X20277904Y-14618326D01*
X20266477Y-14622943D01*
X20089060Y-14715694D01*
X20078746Y-14722443D01*
X19922725Y-14847889D01*
X19913920Y-14856512D01*
X19785234Y-15009872D01*
X19778271Y-15020042D01*
X19681824Y-15195478D01*
X19676969Y-15206807D01*
X19634000Y-15342264D01*
X19634000Y-12696071D01*
X19671160Y-12819150D01*
X19675857Y-12830544D01*
X19769844Y-13007308D01*
X19776664Y-13017574D01*
X19903195Y-13172717D01*
X19911879Y-13181463D01*
X20066135Y-13309074D01*
X20076353Y-13315966D01*
X20252457Y-13411185D01*
X20263819Y-13415961D01*
X20449542Y-13473451D01*
X20552000Y-13397912D01*
X20552001Y-11882000D01*
X20808000Y-11882001D01*
X20807999Y-13397013D01*
X20909045Y-13472605D01*
X21082096Y-13421674D01*
X21093523Y-13417057D01*
X21270940Y-13324306D01*
X21281254Y-13317557D01*
X21437275Y-13192111D01*
X21446080Y-13183488D01*
X21574766Y-13030128D01*
X21581729Y-13019958D01*
X21678175Y-12844523D01*
X21683031Y-12833194D01*
X21683772Y-12830859D01*
X21724888Y-12850470D01*
X21742025Y-12855824D01*
X21974646Y-12893500D01*
X21992596Y-12893829D01*
X22226440Y-12864702D01*
X22243761Y-12859980D01*
X22460032Y-12766392D01*
X22475331Y-12756998D01*
X22656642Y-12606471D01*
X22668690Y-12593161D01*
X22742040Y-12484414D01*
X22747249Y-12489071D01*
X22762193Y-12499019D01*
X22974888Y-12600470D01*
X22992025Y-12605824D01*
X23224646Y-12643500D01*
X23242596Y-12643829D01*
X23476440Y-12614702D01*
X23493761Y-12609980D01*
X23710032Y-12516392D01*
X23725331Y-12506998D01*
X23906642Y-12356471D01*
X23918690Y-12343161D01*
X24007287Y-12211808D01*
X28236000Y-12211808D01*
X28236000Y-12460352D01*
X28236301Y-12466503D01*
X28250902Y-12615406D01*
X28253296Y-12627496D01*
X28311160Y-12819150D01*
X28315857Y-12830544D01*
X28409844Y-13007308D01*
X28416664Y-13017574D01*
X28543195Y-13172717D01*
X28551879Y-13181463D01*
X28706135Y-13309074D01*
X28716353Y-13315966D01*
X28892457Y-13411185D01*
X28903819Y-13415961D01*
X29089542Y-13473451D01*
X29192000Y-13397912D01*
X29192001Y-12211809D01*
X29118192Y-12138000D01*
X28309809Y-12137999D01*
X28236000Y-12211808D01*
X24007287Y-12211808D01*
X24050464Y-12147796D01*
X24058292Y-12131640D01*
X24130056Y-11906775D01*
X24133050Y-11888289D01*
X24136165Y-11633328D01*
X24133624Y-11614774D01*
X24067376Y-11388223D01*
X24059945Y-11371879D01*
X23932983Y-11173354D01*
X23921264Y-11159753D01*
X23743685Y-11004841D01*
X23728620Y-10995076D01*
X23514700Y-10896232D01*
X23497500Y-10891088D01*
X23264436Y-10856256D01*
X23246483Y-10856147D01*
X23013012Y-10888128D01*
X22995750Y-10893061D01*
X22780639Y-10989285D01*
X22765456Y-10998865D01*
X22735923Y-11024000D01*
X22197574Y-11024000D01*
X22197562Y-11024001D01*
X22145052Y-11024001D01*
X22125464Y-11027103D01*
X22080002Y-11041875D01*
X22032773Y-11049356D01*
X22013911Y-11055484D01*
X21971307Y-11077192D01*
X21925843Y-11091964D01*
X21908172Y-11100968D01*
X21878868Y-11122258D01*
X21763013Y-11138128D01*
X21745751Y-11143061D01*
X21676053Y-11174239D01*
X21590157Y-11012692D01*
X21583337Y-11002426D01*
X21456806Y-10847283D01*
X21448122Y-10838537D01*
X21293866Y-10710926D01*
X21283648Y-10704034D01*
X21154121Y-10634000D01*
X28847070Y-10634000D01*
X28729060Y-10695694D01*
G37*
%TD.AperFunction*%
%TD*%
M02*
