%TF.GenerationSoftware,KiCad,Pcbnew,(5.99.0-2309-gaf729d578)*%
%TF.CreationDate,2020-07-18T18:02:02-04:00*%
%TF.ProjectId,mk2,6d6b322e-6b69-4636-9164-5f7063625858,rev?*%
%TF.SameCoordinates,Original*%
%TF.FileFunction,Legend,Top*%
%TF.FilePolarity,Positive*%
%FSLAX46Y46*%
G04 Gerber Fmt 4.6, Leading zero omitted, Abs format (unit mm)*
G04 Created by KiCad (PCBNEW (5.99.0-2309-gaf729d578)) date 2020-07-18 18:02:02*
%MOMM*%
%LPD*%
G01*
G04 APERTURE LIST*
%ADD10C,0.150000*%
%ADD11C,0.125000*%
%ADD12C,0.120000*%
%ADD13C,0.250000*%
%ADD14C,0.100000*%
G04 APERTURE END LIST*
D10*
X14119047Y-29321428D02*
X14880952Y-29321428D01*
X14500000Y-29702380D02*
X14500000Y-28940476D01*
X12869047Y-18821428D02*
X13630952Y-18821428D01*
X13250000Y-19202380D02*
X13250000Y-18440476D01*
X14869047Y-18821428D02*
X15630952Y-18821428D01*
D11*
%TO.C,R16*%
X34046190Y-43196428D02*
X33808095Y-43363095D01*
X34046190Y-43482142D02*
X33546190Y-43482142D01*
X33546190Y-43291666D01*
X33570000Y-43244047D01*
X33593809Y-43220238D01*
X33641428Y-43196428D01*
X33712857Y-43196428D01*
X33760476Y-43220238D01*
X33784285Y-43244047D01*
X33808095Y-43291666D01*
X33808095Y-43482142D01*
X34046190Y-42720238D02*
X34046190Y-43005952D01*
X34046190Y-42863095D02*
X33546190Y-42863095D01*
X33617619Y-42910714D01*
X33665238Y-42958333D01*
X33689047Y-43005952D01*
X33546190Y-42291666D02*
X33546190Y-42386904D01*
X33570000Y-42434523D01*
X33593809Y-42458333D01*
X33665238Y-42505952D01*
X33760476Y-42529761D01*
X33950952Y-42529761D01*
X33998571Y-42505952D01*
X34022380Y-42482142D01*
X34046190Y-42434523D01*
X34046190Y-42339285D01*
X34022380Y-42291666D01*
X33998571Y-42267857D01*
X33950952Y-42244047D01*
X33831904Y-42244047D01*
X33784285Y-42267857D01*
X33760476Y-42291666D01*
X33736666Y-42339285D01*
X33736666Y-42434523D01*
X33760476Y-42482142D01*
X33784285Y-42505952D01*
X33831904Y-42529761D01*
%TO.C,R15*%
X39656190Y-49571428D02*
X39418095Y-49738095D01*
X39656190Y-49857142D02*
X39156190Y-49857142D01*
X39156190Y-49666666D01*
X39180000Y-49619047D01*
X39203809Y-49595238D01*
X39251428Y-49571428D01*
X39322857Y-49571428D01*
X39370476Y-49595238D01*
X39394285Y-49619047D01*
X39418095Y-49666666D01*
X39418095Y-49857142D01*
X39656190Y-49095238D02*
X39656190Y-49380952D01*
X39656190Y-49238095D02*
X39156190Y-49238095D01*
X39227619Y-49285714D01*
X39275238Y-49333333D01*
X39299047Y-49380952D01*
X39156190Y-48642857D02*
X39156190Y-48880952D01*
X39394285Y-48904761D01*
X39370476Y-48880952D01*
X39346666Y-48833333D01*
X39346666Y-48714285D01*
X39370476Y-48666666D01*
X39394285Y-48642857D01*
X39441904Y-48619047D01*
X39560952Y-48619047D01*
X39608571Y-48642857D01*
X39632380Y-48666666D01*
X39656190Y-48714285D01*
X39656190Y-48833333D01*
X39632380Y-48880952D01*
X39608571Y-48904761D01*
%TO.C,Q4*%
X37652380Y-44323809D02*
X37604761Y-44300000D01*
X37557142Y-44252380D01*
X37485714Y-44180952D01*
X37438095Y-44157142D01*
X37390476Y-44157142D01*
X37414285Y-44276190D02*
X37366666Y-44252380D01*
X37319047Y-44204761D01*
X37295238Y-44109523D01*
X37295238Y-43942857D01*
X37319047Y-43847619D01*
X37366666Y-43800000D01*
X37414285Y-43776190D01*
X37509523Y-43776190D01*
X37557142Y-43800000D01*
X37604761Y-43847619D01*
X37628571Y-43942857D01*
X37628571Y-44109523D01*
X37604761Y-44204761D01*
X37557142Y-44252380D01*
X37509523Y-44276190D01*
X37414285Y-44276190D01*
X38057142Y-43942857D02*
X38057142Y-44276190D01*
X37938095Y-43752380D02*
X37819047Y-44109523D01*
X38128571Y-44109523D01*
%TO.C,SW5*%
X11714285Y-60202380D02*
X11738095Y-60130952D01*
X11761904Y-60107142D01*
X11809523Y-60083333D01*
X11880952Y-60083333D01*
X11928571Y-60107142D01*
X11952380Y-60130952D01*
X11976190Y-60178571D01*
X11976190Y-60369047D01*
X11476190Y-60369047D01*
X11476190Y-60202380D01*
X11500000Y-60154761D01*
X11523809Y-60130952D01*
X11571428Y-60107142D01*
X11619047Y-60107142D01*
X11666666Y-60130952D01*
X11690476Y-60154761D01*
X11714285Y-60202380D01*
X11714285Y-60369047D01*
X11642857Y-59654761D02*
X11976190Y-59654761D01*
X11452380Y-59773809D02*
X11809523Y-59892857D01*
X11809523Y-59583333D01*
%TO.C,SW4*%
X11714285Y-40202380D02*
X11738095Y-40130952D01*
X11761904Y-40107142D01*
X11809523Y-40083333D01*
X11880952Y-40083333D01*
X11928571Y-40107142D01*
X11952380Y-40130952D01*
X11976190Y-40178571D01*
X11976190Y-40369047D01*
X11476190Y-40369047D01*
X11476190Y-40202380D01*
X11500000Y-40154761D01*
X11523809Y-40130952D01*
X11571428Y-40107142D01*
X11619047Y-40107142D01*
X11666666Y-40130952D01*
X11690476Y-40154761D01*
X11714285Y-40202380D01*
X11714285Y-40369047D01*
X11476190Y-39916666D02*
X11476190Y-39607142D01*
X11666666Y-39773809D01*
X11666666Y-39702380D01*
X11690476Y-39654761D01*
X11714285Y-39630952D01*
X11761904Y-39607142D01*
X11880952Y-39607142D01*
X11928571Y-39630952D01*
X11952380Y-39654761D01*
X11976190Y-39702380D01*
X11976190Y-39845238D01*
X11952380Y-39892857D01*
X11928571Y-39916666D01*
%TO.C,SW3*%
X38214285Y-60202380D02*
X38238095Y-60130952D01*
X38261904Y-60107142D01*
X38309523Y-60083333D01*
X38380952Y-60083333D01*
X38428571Y-60107142D01*
X38452380Y-60130952D01*
X38476190Y-60178571D01*
X38476190Y-60369047D01*
X37976190Y-60369047D01*
X37976190Y-60202380D01*
X38000000Y-60154761D01*
X38023809Y-60130952D01*
X38071428Y-60107142D01*
X38119047Y-60107142D01*
X38166666Y-60130952D01*
X38190476Y-60154761D01*
X38214285Y-60202380D01*
X38214285Y-60369047D01*
X38023809Y-59892857D02*
X38000000Y-59869047D01*
X37976190Y-59821428D01*
X37976190Y-59702380D01*
X38000000Y-59654761D01*
X38023809Y-59630952D01*
X38071428Y-59607142D01*
X38119047Y-59607142D01*
X38190476Y-59630952D01*
X38476190Y-59916666D01*
X38476190Y-59607142D01*
%TO.C,SW2*%
X38214285Y-40202380D02*
X38238095Y-40130952D01*
X38261904Y-40107142D01*
X38309523Y-40083333D01*
X38380952Y-40083333D01*
X38428571Y-40107142D01*
X38452380Y-40130952D01*
X38476190Y-40178571D01*
X38476190Y-40369047D01*
X37976190Y-40369047D01*
X37976190Y-40202380D01*
X38000000Y-40154761D01*
X38023809Y-40130952D01*
X38071428Y-40107142D01*
X38119047Y-40107142D01*
X38166666Y-40130952D01*
X38190476Y-40154761D01*
X38214285Y-40202380D01*
X38214285Y-40369047D01*
X38476190Y-39607142D02*
X38476190Y-39892857D01*
X38476190Y-39750000D02*
X37976190Y-39750000D01*
X38047619Y-39797619D01*
X38095238Y-39845238D01*
X38119047Y-39892857D01*
%TO.C,SW1*%
X38214285Y-20202380D02*
X38238095Y-20130952D01*
X38261904Y-20107142D01*
X38309523Y-20083333D01*
X38380952Y-20083333D01*
X38428571Y-20107142D01*
X38452380Y-20130952D01*
X38476190Y-20178571D01*
X38476190Y-20369047D01*
X37976190Y-20369047D01*
X37976190Y-20202380D01*
X38000000Y-20154761D01*
X38023809Y-20130952D01*
X38071428Y-20107142D01*
X38119047Y-20107142D01*
X38166666Y-20130952D01*
X38190476Y-20154761D01*
X38214285Y-20202380D01*
X38214285Y-20369047D01*
X37976190Y-19630952D02*
X37976190Y-19869047D01*
X38214285Y-19892857D01*
X38190476Y-19869047D01*
X38166666Y-19821428D01*
X38166666Y-19702380D01*
X38190476Y-19654761D01*
X38214285Y-19630952D01*
X38261904Y-19607142D01*
X38380952Y-19607142D01*
X38428571Y-19630952D01*
X38452380Y-19654761D01*
X38476190Y-19702380D01*
X38476190Y-19821428D01*
X38452380Y-19869047D01*
X38428571Y-19892857D01*
%TO.C,R14*%
X35226190Y-20821428D02*
X34988095Y-20988095D01*
X35226190Y-21107142D02*
X34726190Y-21107142D01*
X34726190Y-20916666D01*
X34750000Y-20869047D01*
X34773809Y-20845238D01*
X34821428Y-20821428D01*
X34892857Y-20821428D01*
X34940476Y-20845238D01*
X34964285Y-20869047D01*
X34988095Y-20916666D01*
X34988095Y-21107142D01*
X35226190Y-20345238D02*
X35226190Y-20630952D01*
X35226190Y-20488095D02*
X34726190Y-20488095D01*
X34797619Y-20535714D01*
X34845238Y-20583333D01*
X34869047Y-20630952D01*
X34892857Y-19916666D02*
X35226190Y-19916666D01*
X34702380Y-20035714D02*
X35059523Y-20154761D01*
X35059523Y-19845238D01*
%TO.C,R13*%
X30928571Y-15976190D02*
X30761904Y-15738095D01*
X30642857Y-15976190D02*
X30642857Y-15476190D01*
X30833333Y-15476190D01*
X30880952Y-15500000D01*
X30904761Y-15523809D01*
X30928571Y-15571428D01*
X30928571Y-15642857D01*
X30904761Y-15690476D01*
X30880952Y-15714285D01*
X30833333Y-15738095D01*
X30642857Y-15738095D01*
X31404761Y-15976190D02*
X31119047Y-15976190D01*
X31261904Y-15976190D02*
X31261904Y-15476190D01*
X31214285Y-15547619D01*
X31166666Y-15595238D01*
X31119047Y-15619047D01*
X31571428Y-15476190D02*
X31880952Y-15476190D01*
X31714285Y-15666666D01*
X31785714Y-15666666D01*
X31833333Y-15690476D01*
X31857142Y-15714285D01*
X31880952Y-15761904D01*
X31880952Y-15880952D01*
X31857142Y-15928571D01*
X31833333Y-15952380D01*
X31785714Y-15976190D01*
X31642857Y-15976190D01*
X31595238Y-15952380D01*
X31571428Y-15928571D01*
%TO.C,R2*%
X14916666Y-28476190D02*
X14750000Y-28238095D01*
X14630952Y-28476190D02*
X14630952Y-27976190D01*
X14821428Y-27976190D01*
X14869047Y-28000000D01*
X14892857Y-28023809D01*
X14916666Y-28071428D01*
X14916666Y-28142857D01*
X14892857Y-28190476D01*
X14869047Y-28214285D01*
X14821428Y-28238095D01*
X14630952Y-28238095D01*
X15107142Y-28023809D02*
X15130952Y-28000000D01*
X15178571Y-27976190D01*
X15297619Y-27976190D01*
X15345238Y-28000000D01*
X15369047Y-28023809D01*
X15392857Y-28071428D01*
X15392857Y-28119047D01*
X15369047Y-28190476D01*
X15083333Y-28476190D01*
X15392857Y-28476190D01*
%TO.C,R1*%
X15476190Y-34833333D02*
X15238095Y-35000000D01*
X15476190Y-35119047D02*
X14976190Y-35119047D01*
X14976190Y-34928571D01*
X15000000Y-34880952D01*
X15023809Y-34857142D01*
X15071428Y-34833333D01*
X15142857Y-34833333D01*
X15190476Y-34857142D01*
X15214285Y-34880952D01*
X15238095Y-34928571D01*
X15238095Y-35119047D01*
X15476190Y-34357142D02*
X15476190Y-34642857D01*
X15476190Y-34500000D02*
X14976190Y-34500000D01*
X15047619Y-34547619D01*
X15095238Y-34595238D01*
X15119047Y-34642857D01*
%TO.C,Q3*%
X33452380Y-18073809D02*
X33404761Y-18050000D01*
X33357142Y-18002380D01*
X33285714Y-17930952D01*
X33238095Y-17907142D01*
X33190476Y-17907142D01*
X33214285Y-18026190D02*
X33166666Y-18002380D01*
X33119047Y-17954761D01*
X33095238Y-17859523D01*
X33095238Y-17692857D01*
X33119047Y-17597619D01*
X33166666Y-17550000D01*
X33214285Y-17526190D01*
X33309523Y-17526190D01*
X33357142Y-17550000D01*
X33404761Y-17597619D01*
X33428571Y-17692857D01*
X33428571Y-17859523D01*
X33404761Y-17954761D01*
X33357142Y-18002380D01*
X33309523Y-18026190D01*
X33214285Y-18026190D01*
X33595238Y-17526190D02*
X33904761Y-17526190D01*
X33738095Y-17716666D01*
X33809523Y-17716666D01*
X33857142Y-17740476D01*
X33880952Y-17764285D01*
X33904761Y-17811904D01*
X33904761Y-17930952D01*
X33880952Y-17978571D01*
X33857142Y-18002380D01*
X33809523Y-18026190D01*
X33666666Y-18026190D01*
X33619047Y-18002380D01*
X33595238Y-17978571D01*
%TO.C,Q2*%
X13773809Y-32547619D02*
X13750000Y-32595238D01*
X13702380Y-32642857D01*
X13630952Y-32714285D01*
X13607142Y-32761904D01*
X13607142Y-32809523D01*
X13726190Y-32785714D02*
X13702380Y-32833333D01*
X13654761Y-32880952D01*
X13559523Y-32904761D01*
X13392857Y-32904761D01*
X13297619Y-32880952D01*
X13250000Y-32833333D01*
X13226190Y-32785714D01*
X13226190Y-32690476D01*
X13250000Y-32642857D01*
X13297619Y-32595238D01*
X13392857Y-32571428D01*
X13559523Y-32571428D01*
X13654761Y-32595238D01*
X13702380Y-32642857D01*
X13726190Y-32690476D01*
X13726190Y-32785714D01*
X13273809Y-32380952D02*
X13250000Y-32357142D01*
X13226190Y-32309523D01*
X13226190Y-32190476D01*
X13250000Y-32142857D01*
X13273809Y-32119047D01*
X13321428Y-32095238D01*
X13369047Y-32095238D01*
X13440476Y-32119047D01*
X13726190Y-32404761D01*
X13726190Y-32095238D01*
%TO.C,C5*%
X35976190Y-29642857D02*
X35976190Y-29928571D01*
X35976190Y-29785714D02*
X35476190Y-29785714D01*
X35547619Y-29833333D01*
X35595238Y-29880952D01*
X35619047Y-29928571D01*
X35976190Y-29166666D02*
X35976190Y-29452380D01*
X35976190Y-29309523D02*
X35476190Y-29309523D01*
X35547619Y-29357142D01*
X35595238Y-29404761D01*
X35619047Y-29452380D01*
X35976190Y-28952380D02*
X35642857Y-28952380D01*
X35690476Y-28952380D02*
X35666666Y-28928571D01*
X35642857Y-28880952D01*
X35642857Y-28809523D01*
X35666666Y-28761904D01*
X35714285Y-28738095D01*
X35976190Y-28738095D01*
X35714285Y-28738095D02*
X35666666Y-28714285D01*
X35642857Y-28666666D01*
X35642857Y-28595238D01*
X35666666Y-28547619D01*
X35714285Y-28523809D01*
X35976190Y-28523809D01*
X35714285Y-28119047D02*
X35714285Y-28285714D01*
X35976190Y-28285714D02*
X35476190Y-28285714D01*
X35476190Y-28047619D01*
%TO.C,Y1*%
X25845238Y-35726190D02*
X26154761Y-35726190D01*
X25988095Y-35916666D01*
X26059523Y-35916666D01*
X26107142Y-35940476D01*
X26130952Y-35964285D01*
X26154761Y-36011904D01*
X26154761Y-36130952D01*
X26130952Y-36178571D01*
X26107142Y-36202380D01*
X26059523Y-36226190D01*
X25916666Y-36226190D01*
X25869047Y-36202380D01*
X25845238Y-36178571D01*
X26345238Y-35773809D02*
X26369047Y-35750000D01*
X26416666Y-35726190D01*
X26535714Y-35726190D01*
X26583333Y-35750000D01*
X26607142Y-35773809D01*
X26630952Y-35821428D01*
X26630952Y-35869047D01*
X26607142Y-35940476D01*
X26321428Y-36226190D01*
X26630952Y-36226190D01*
X26845238Y-36178571D02*
X26869047Y-36202380D01*
X26845238Y-36226190D01*
X26821428Y-36202380D01*
X26845238Y-36178571D01*
X26845238Y-36226190D01*
X27035714Y-35726190D02*
X27369047Y-35726190D01*
X27154761Y-36226190D01*
X27773809Y-35726190D02*
X27678571Y-35726190D01*
X27630952Y-35750000D01*
X27607142Y-35773809D01*
X27559523Y-35845238D01*
X27535714Y-35940476D01*
X27535714Y-36130952D01*
X27559523Y-36178571D01*
X27583333Y-36202380D01*
X27630952Y-36226190D01*
X27726190Y-36226190D01*
X27773809Y-36202380D01*
X27797619Y-36178571D01*
X27821428Y-36130952D01*
X27821428Y-36011904D01*
X27797619Y-35964285D01*
X27773809Y-35940476D01*
X27726190Y-35916666D01*
X27630952Y-35916666D01*
X27583333Y-35940476D01*
X27559523Y-35964285D01*
X27535714Y-36011904D01*
X28107142Y-35940476D02*
X28059523Y-35916666D01*
X28035714Y-35892857D01*
X28011904Y-35845238D01*
X28011904Y-35821428D01*
X28035714Y-35773809D01*
X28059523Y-35750000D01*
X28107142Y-35726190D01*
X28202380Y-35726190D01*
X28250000Y-35750000D01*
X28273809Y-35773809D01*
X28297619Y-35821428D01*
X28297619Y-35845238D01*
X28273809Y-35892857D01*
X28250000Y-35916666D01*
X28202380Y-35940476D01*
X28107142Y-35940476D01*
X28059523Y-35964285D01*
X28035714Y-35988095D01*
X28011904Y-36035714D01*
X28011904Y-36130952D01*
X28035714Y-36178571D01*
X28059523Y-36202380D01*
X28107142Y-36226190D01*
X28202380Y-36226190D01*
X28250000Y-36202380D01*
X28273809Y-36178571D01*
X28297619Y-36130952D01*
X28297619Y-36035714D01*
X28273809Y-35988095D01*
X28250000Y-35964285D01*
X28202380Y-35940476D01*
X28511904Y-36226190D02*
X28511904Y-35726190D01*
X28559523Y-36035714D02*
X28702380Y-36226190D01*
X28702380Y-35892857D02*
X28511904Y-36083333D01*
X28916666Y-36226190D02*
X28916666Y-35726190D01*
X28916666Y-35964285D02*
X29202380Y-35964285D01*
X29202380Y-36226190D02*
X29202380Y-35726190D01*
X29392857Y-35892857D02*
X29654761Y-35892857D01*
X29392857Y-36226190D01*
X29654761Y-36226190D01*
%TO.C,U3*%
X19726190Y-21880952D02*
X20130952Y-21880952D01*
X20178571Y-21857142D01*
X20202380Y-21833333D01*
X20226190Y-21785714D01*
X20226190Y-21690476D01*
X20202380Y-21642857D01*
X20178571Y-21619047D01*
X20130952Y-21595238D01*
X19726190Y-21595238D01*
X19726190Y-21404761D02*
X19726190Y-21095238D01*
X19916666Y-21261904D01*
X19916666Y-21190476D01*
X19940476Y-21142857D01*
X19964285Y-21119047D01*
X20011904Y-21095238D01*
X20130952Y-21095238D01*
X20178571Y-21119047D01*
X20202380Y-21142857D01*
X20226190Y-21190476D01*
X20226190Y-21333333D01*
X20202380Y-21380952D01*
X20178571Y-21404761D01*
%TO.C,U2*%
X19726190Y-26380952D02*
X20130952Y-26380952D01*
X20178571Y-26357142D01*
X20202380Y-26333333D01*
X20226190Y-26285714D01*
X20226190Y-26190476D01*
X20202380Y-26142857D01*
X20178571Y-26119047D01*
X20130952Y-26095238D01*
X19726190Y-26095238D01*
X19773809Y-25880952D02*
X19750000Y-25857142D01*
X19726190Y-25809523D01*
X19726190Y-25690476D01*
X19750000Y-25642857D01*
X19773809Y-25619047D01*
X19821428Y-25595238D01*
X19869047Y-25595238D01*
X19940476Y-25619047D01*
X20226190Y-25904761D01*
X20226190Y-25595238D01*
%TO.C,U1*%
X29119047Y-24226190D02*
X29119047Y-24630952D01*
X29142857Y-24678571D01*
X29166666Y-24702380D01*
X29214285Y-24726190D01*
X29309523Y-24726190D01*
X29357142Y-24702380D01*
X29380952Y-24678571D01*
X29404761Y-24630952D01*
X29404761Y-24226190D01*
X29904761Y-24726190D02*
X29619047Y-24726190D01*
X29761904Y-24726190D02*
X29761904Y-24226190D01*
X29714285Y-24297619D01*
X29666666Y-24345238D01*
X29619047Y-24369047D01*
%TO.C,R12*%
X27726190Y-14190476D02*
X27726190Y-14428571D01*
X27964285Y-14452380D01*
X27940476Y-14428571D01*
X27916666Y-14380952D01*
X27916666Y-14261904D01*
X27940476Y-14214285D01*
X27964285Y-14190476D01*
X28011904Y-14166666D01*
X28130952Y-14166666D01*
X28178571Y-14190476D01*
X28202380Y-14214285D01*
X28226190Y-14261904D01*
X28226190Y-14380952D01*
X28202380Y-14428571D01*
X28178571Y-14452380D01*
X28178571Y-13952380D02*
X28202380Y-13928571D01*
X28226190Y-13952380D01*
X28202380Y-13976190D01*
X28178571Y-13952380D01*
X28226190Y-13952380D01*
X28226190Y-13452380D02*
X28226190Y-13738095D01*
X28226190Y-13595238D02*
X27726190Y-13595238D01*
X27797619Y-13642857D01*
X27845238Y-13690476D01*
X27869047Y-13738095D01*
X28226190Y-13238095D02*
X27726190Y-13238095D01*
X28035714Y-13190476D02*
X28226190Y-13047619D01*
X27892857Y-13047619D02*
X28083333Y-13238095D01*
%TO.C,R11*%
X22476190Y-14190476D02*
X22476190Y-14428571D01*
X22714285Y-14452380D01*
X22690476Y-14428571D01*
X22666666Y-14380952D01*
X22666666Y-14261904D01*
X22690476Y-14214285D01*
X22714285Y-14190476D01*
X22761904Y-14166666D01*
X22880952Y-14166666D01*
X22928571Y-14190476D01*
X22952380Y-14214285D01*
X22976190Y-14261904D01*
X22976190Y-14380952D01*
X22952380Y-14428571D01*
X22928571Y-14452380D01*
X22928571Y-13952380D02*
X22952380Y-13928571D01*
X22976190Y-13952380D01*
X22952380Y-13976190D01*
X22928571Y-13952380D01*
X22976190Y-13952380D01*
X22976190Y-13452380D02*
X22976190Y-13738095D01*
X22976190Y-13595238D02*
X22476190Y-13595238D01*
X22547619Y-13642857D01*
X22595238Y-13690476D01*
X22619047Y-13738095D01*
X22976190Y-13238095D02*
X22476190Y-13238095D01*
X22785714Y-13190476D02*
X22976190Y-13047619D01*
X22642857Y-13047619D02*
X22833333Y-13238095D01*
%TO.C,R10*%
X29369047Y-10392857D02*
X29369047Y-10726190D01*
X29250000Y-10202380D02*
X29130952Y-10559523D01*
X29440476Y-10559523D01*
X29583333Y-10226190D02*
X29916666Y-10226190D01*
X29702380Y-10726190D01*
X30202380Y-10226190D02*
X30250000Y-10226190D01*
X30297619Y-10250000D01*
X30321428Y-10273809D01*
X30345238Y-10321428D01*
X30369047Y-10416666D01*
X30369047Y-10535714D01*
X30345238Y-10630952D01*
X30321428Y-10678571D01*
X30297619Y-10702380D01*
X30250000Y-10726190D01*
X30202380Y-10726190D01*
X30154761Y-10702380D01*
X30130952Y-10678571D01*
X30107142Y-10630952D01*
X30083333Y-10535714D01*
X30083333Y-10416666D01*
X30107142Y-10321428D01*
X30130952Y-10273809D01*
X30154761Y-10250000D01*
X30202380Y-10226190D01*
%TO.C,R9*%
X22654761Y-23523809D02*
X22678571Y-23500000D01*
X22726190Y-23476190D01*
X22845238Y-23476190D01*
X22892857Y-23500000D01*
X22916666Y-23523809D01*
X22940476Y-23571428D01*
X22940476Y-23619047D01*
X22916666Y-23690476D01*
X22630952Y-23976190D01*
X22940476Y-23976190D01*
X23154761Y-23976190D02*
X23154761Y-23476190D01*
X23202380Y-23785714D02*
X23345238Y-23976190D01*
X23345238Y-23642857D02*
X23154761Y-23833333D01*
%TO.C,R5*%
X32077380Y-45046190D02*
X31791666Y-45046190D01*
X31934523Y-45046190D02*
X31934523Y-44546190D01*
X31886904Y-44617619D01*
X31839285Y-44665238D01*
X31791666Y-44689047D01*
X32386904Y-44546190D02*
X32434523Y-44546190D01*
X32482142Y-44570000D01*
X32505952Y-44593809D01*
X32529761Y-44641428D01*
X32553571Y-44736666D01*
X32553571Y-44855714D01*
X32529761Y-44950952D01*
X32505952Y-44998571D01*
X32482142Y-45022380D01*
X32434523Y-45046190D01*
X32386904Y-45046190D01*
X32339285Y-45022380D01*
X32315476Y-44998571D01*
X32291666Y-44950952D01*
X32267857Y-44855714D01*
X32267857Y-44736666D01*
X32291666Y-44641428D01*
X32315476Y-44593809D01*
X32339285Y-44570000D01*
X32386904Y-44546190D01*
X32767857Y-45046190D02*
X32767857Y-44546190D01*
X32815476Y-44855714D02*
X32958333Y-45046190D01*
X32958333Y-44712857D02*
X32767857Y-44903333D01*
%TO.C,R4*%
X26523809Y-21880952D02*
X26500000Y-21857142D01*
X26476190Y-21809523D01*
X26476190Y-21690476D01*
X26500000Y-21642857D01*
X26523809Y-21619047D01*
X26571428Y-21595238D01*
X26619047Y-21595238D01*
X26690476Y-21619047D01*
X26976190Y-21904761D01*
X26976190Y-21595238D01*
X26476190Y-21428571D02*
X26476190Y-21095238D01*
X26976190Y-21309523D01*
%TO.C,R3*%
X25023809Y-21880952D02*
X25000000Y-21857142D01*
X24976190Y-21809523D01*
X24976190Y-21690476D01*
X25000000Y-21642857D01*
X25023809Y-21619047D01*
X25071428Y-21595238D01*
X25119047Y-21595238D01*
X25190476Y-21619047D01*
X25476190Y-21904761D01*
X25476190Y-21595238D01*
X24976190Y-21428571D02*
X24976190Y-21095238D01*
X25476190Y-21309523D01*
%TO.C,Q1*%
X16202380Y-60523809D02*
X16154761Y-60500000D01*
X16107142Y-60452380D01*
X16035714Y-60380952D01*
X15988095Y-60357142D01*
X15940476Y-60357142D01*
X15964285Y-60476190D02*
X15916666Y-60452380D01*
X15869047Y-60404761D01*
X15845238Y-60309523D01*
X15845238Y-60142857D01*
X15869047Y-60047619D01*
X15916666Y-60000000D01*
X15964285Y-59976190D01*
X16059523Y-59976190D01*
X16107142Y-60000000D01*
X16154761Y-60047619D01*
X16178571Y-60142857D01*
X16178571Y-60309523D01*
X16154761Y-60404761D01*
X16107142Y-60452380D01*
X16059523Y-60476190D01*
X15964285Y-60476190D01*
X16654761Y-60476190D02*
X16369047Y-60476190D01*
X16511904Y-60476190D02*
X16511904Y-59976190D01*
X16464285Y-60047619D01*
X16416666Y-60095238D01*
X16369047Y-60119047D01*
%TO.C,L2*%
X37156190Y-49208333D02*
X37156190Y-49446428D01*
X36656190Y-49446428D01*
X36703809Y-49065476D02*
X36680000Y-49041666D01*
X36656190Y-48994047D01*
X36656190Y-48875000D01*
X36680000Y-48827380D01*
X36703809Y-48803571D01*
X36751428Y-48779761D01*
X36799047Y-48779761D01*
X36870476Y-48803571D01*
X37156190Y-49089285D01*
X37156190Y-48779761D01*
X34296190Y-49708333D02*
X34296190Y-49994047D01*
X34296190Y-49851190D02*
X33796190Y-49851190D01*
X33867619Y-49898809D01*
X33915238Y-49946428D01*
X33939047Y-49994047D01*
X33796190Y-49398809D02*
X33796190Y-49351190D01*
X33820000Y-49303571D01*
X33843809Y-49279761D01*
X33891428Y-49255952D01*
X33986666Y-49232142D01*
X34105714Y-49232142D01*
X34200952Y-49255952D01*
X34248571Y-49279761D01*
X34272380Y-49303571D01*
X34296190Y-49351190D01*
X34296190Y-49398809D01*
X34272380Y-49446428D01*
X34248571Y-49470238D01*
X34200952Y-49494047D01*
X34105714Y-49517857D01*
X33986666Y-49517857D01*
X33891428Y-49494047D01*
X33843809Y-49470238D01*
X33820000Y-49446428D01*
X33796190Y-49398809D01*
X33962857Y-48803571D02*
X34296190Y-48803571D01*
X33962857Y-49017857D02*
X34224761Y-49017857D01*
X34272380Y-48994047D01*
X34296190Y-48946428D01*
X34296190Y-48875000D01*
X34272380Y-48827380D01*
X34248571Y-48803571D01*
X34296190Y-48565476D02*
X33796190Y-48565476D01*
X34034285Y-48565476D02*
X34034285Y-48279761D01*
X34296190Y-48279761D02*
X33796190Y-48279761D01*
%TO.C,L1*%
X21761904Y-29273809D02*
X21785714Y-29250000D01*
X21833333Y-29226190D01*
X21952380Y-29226190D01*
X22000000Y-29250000D01*
X22023809Y-29273809D01*
X22047619Y-29321428D01*
X22047619Y-29369047D01*
X22023809Y-29440476D01*
X21738095Y-29726190D01*
X22047619Y-29726190D01*
X22261904Y-29678571D02*
X22285714Y-29702380D01*
X22261904Y-29726190D01*
X22238095Y-29702380D01*
X22261904Y-29678571D01*
X22261904Y-29726190D01*
X22476190Y-29273809D02*
X22500000Y-29250000D01*
X22547619Y-29226190D01*
X22666666Y-29226190D01*
X22714285Y-29250000D01*
X22738095Y-29273809D01*
X22761904Y-29321428D01*
X22761904Y-29369047D01*
X22738095Y-29440476D01*
X22452380Y-29726190D01*
X22761904Y-29726190D01*
X23190476Y-29392857D02*
X23190476Y-29726190D01*
X22976190Y-29392857D02*
X22976190Y-29654761D01*
X23000000Y-29702380D01*
X23047619Y-29726190D01*
X23119047Y-29726190D01*
X23166666Y-29702380D01*
X23190476Y-29678571D01*
X23428571Y-29726190D02*
X23428571Y-29226190D01*
X23428571Y-29464285D02*
X23714285Y-29464285D01*
X23714285Y-29726190D02*
X23714285Y-29226190D01*
%TO.C,IC1*%
X24511904Y-46226190D02*
X24511904Y-45726190D01*
X25035714Y-46178571D02*
X25011904Y-46202380D01*
X24940476Y-46226190D01*
X24892857Y-46226190D01*
X24821428Y-46202380D01*
X24773809Y-46154761D01*
X24750000Y-46107142D01*
X24726190Y-46011904D01*
X24726190Y-45940476D01*
X24750000Y-45845238D01*
X24773809Y-45797619D01*
X24821428Y-45750000D01*
X24892857Y-45726190D01*
X24940476Y-45726190D01*
X25011904Y-45750000D01*
X25035714Y-45773809D01*
X25511904Y-46226190D02*
X25226190Y-46226190D01*
X25369047Y-46226190D02*
X25369047Y-45726190D01*
X25321428Y-45797619D01*
X25273809Y-45845238D01*
X25226190Y-45869047D01*
%TO.C,D6*%
X19678571Y-13476190D02*
X19702380Y-13500000D01*
X19726190Y-13571428D01*
X19726190Y-13619047D01*
X19702380Y-13690476D01*
X19654761Y-13738095D01*
X19607142Y-13761904D01*
X19511904Y-13785714D01*
X19440476Y-13785714D01*
X19345238Y-13761904D01*
X19297619Y-13738095D01*
X19250000Y-13690476D01*
X19226190Y-13619047D01*
X19226190Y-13571428D01*
X19250000Y-13500000D01*
X19273809Y-13476190D01*
X19726190Y-13261904D02*
X19226190Y-13261904D01*
X19464285Y-13261904D02*
X19464285Y-12976190D01*
X19726190Y-12976190D02*
X19226190Y-12976190D01*
X19726190Y-12452380D02*
X19488095Y-12619047D01*
X19726190Y-12738095D02*
X19226190Y-12738095D01*
X19226190Y-12547619D01*
X19250000Y-12500000D01*
X19273809Y-12476190D01*
X19321428Y-12452380D01*
X19392857Y-12452380D01*
X19440476Y-12476190D01*
X19464285Y-12500000D01*
X19488095Y-12547619D01*
X19488095Y-12738095D01*
X19250000Y-11976190D02*
X19226190Y-12023809D01*
X19226190Y-12095238D01*
X19250000Y-12166666D01*
X19297619Y-12214285D01*
X19345238Y-12238095D01*
X19440476Y-12261904D01*
X19511904Y-12261904D01*
X19607142Y-12238095D01*
X19654761Y-12214285D01*
X19702380Y-12166666D01*
X19726190Y-12095238D01*
X19726190Y-12047619D01*
X19702380Y-11976190D01*
X19678571Y-11952380D01*
X19511904Y-11952380D01*
X19511904Y-12047619D01*
X19773809Y-11857142D02*
X19773809Y-11476190D01*
X19726190Y-11119047D02*
X19726190Y-11357142D01*
X19226190Y-11357142D01*
X19464285Y-10952380D02*
X19464285Y-10785714D01*
X19726190Y-10714285D02*
X19726190Y-10952380D01*
X19226190Y-10952380D01*
X19226190Y-10714285D01*
X19726190Y-10500000D02*
X19226190Y-10500000D01*
X19226190Y-10380952D01*
X19250000Y-10309523D01*
X19297619Y-10261904D01*
X19345238Y-10238095D01*
X19440476Y-10214285D01*
X19511904Y-10214285D01*
X19607142Y-10238095D01*
X19654761Y-10261904D01*
X19702380Y-10309523D01*
X19726190Y-10380952D01*
X19726190Y-10500000D01*
%TO.C,D5*%
X35726190Y-53619047D02*
X35226190Y-53619047D01*
X35226190Y-53500000D01*
X35250000Y-53428571D01*
X35297619Y-53380952D01*
X35345238Y-53357142D01*
X35440476Y-53333333D01*
X35511904Y-53333333D01*
X35607142Y-53357142D01*
X35654761Y-53380952D01*
X35702380Y-53428571D01*
X35726190Y-53500000D01*
X35726190Y-53619047D01*
X35226190Y-52880952D02*
X35226190Y-53119047D01*
X35464285Y-53142857D01*
X35440476Y-53119047D01*
X35416666Y-53071428D01*
X35416666Y-52952380D01*
X35440476Y-52904761D01*
X35464285Y-52880952D01*
X35511904Y-52857142D01*
X35630952Y-52857142D01*
X35678571Y-52880952D01*
X35702380Y-52904761D01*
X35726190Y-52952380D01*
X35726190Y-53071428D01*
X35702380Y-53119047D01*
X35678571Y-53142857D01*
%TO.C,D4*%
X35726190Y-60219047D02*
X35226190Y-60219047D01*
X35226190Y-60100000D01*
X35250000Y-60028571D01*
X35297619Y-59980952D01*
X35345238Y-59957142D01*
X35440476Y-59933333D01*
X35511904Y-59933333D01*
X35607142Y-59957142D01*
X35654761Y-59980952D01*
X35702380Y-60028571D01*
X35726190Y-60100000D01*
X35726190Y-60219047D01*
X35392857Y-59504761D02*
X35726190Y-59504761D01*
X35202380Y-59623809D02*
X35559523Y-59742857D01*
X35559523Y-59433333D01*
%TO.C,D2*%
X37630952Y-33726190D02*
X37630952Y-33226190D01*
X37750000Y-33226190D01*
X37821428Y-33250000D01*
X37869047Y-33297619D01*
X37892857Y-33345238D01*
X37916666Y-33440476D01*
X37916666Y-33511904D01*
X37892857Y-33607142D01*
X37869047Y-33654761D01*
X37821428Y-33702380D01*
X37750000Y-33726190D01*
X37630952Y-33726190D01*
X38107142Y-33273809D02*
X38130952Y-33250000D01*
X38178571Y-33226190D01*
X38297619Y-33226190D01*
X38345238Y-33250000D01*
X38369047Y-33273809D01*
X38392857Y-33321428D01*
X38392857Y-33369047D01*
X38369047Y-33440476D01*
X38083333Y-33726190D01*
X38392857Y-33726190D01*
%TO.C,C19*%
X30952380Y-57476190D02*
X30666666Y-57476190D01*
X30809523Y-57476190D02*
X30809523Y-56976190D01*
X30761904Y-57047619D01*
X30714285Y-57095238D01*
X30666666Y-57119047D01*
X31380952Y-57142857D02*
X31380952Y-57476190D01*
X31166666Y-57142857D02*
X31166666Y-57404761D01*
X31190476Y-57452380D01*
X31238095Y-57476190D01*
X31309523Y-57476190D01*
X31357142Y-57452380D01*
X31380952Y-57428571D01*
X31785714Y-57214285D02*
X31619047Y-57214285D01*
X31619047Y-57476190D02*
X31619047Y-56976190D01*
X31857142Y-56976190D01*
%TO.C,C18*%
X29452380Y-57476190D02*
X29166666Y-57476190D01*
X29309523Y-57476190D02*
X29309523Y-56976190D01*
X29261904Y-57047619D01*
X29214285Y-57095238D01*
X29166666Y-57119047D01*
X29880952Y-57142857D02*
X29880952Y-57476190D01*
X29666666Y-57142857D02*
X29666666Y-57404761D01*
X29690476Y-57452380D01*
X29738095Y-57476190D01*
X29809523Y-57476190D01*
X29857142Y-57452380D01*
X29880952Y-57428571D01*
X30285714Y-57214285D02*
X30119047Y-57214285D01*
X30119047Y-57476190D02*
X30119047Y-56976190D01*
X30357142Y-56976190D01*
%TO.C,C17*%
X27952380Y-57476190D02*
X27666666Y-57476190D01*
X27809523Y-57476190D02*
X27809523Y-56976190D01*
X27761904Y-57047619D01*
X27714285Y-57095238D01*
X27666666Y-57119047D01*
X28380952Y-57142857D02*
X28380952Y-57476190D01*
X28166666Y-57142857D02*
X28166666Y-57404761D01*
X28190476Y-57452380D01*
X28238095Y-57476190D01*
X28309523Y-57476190D01*
X28357142Y-57452380D01*
X28380952Y-57428571D01*
X28785714Y-57214285D02*
X28619047Y-57214285D01*
X28619047Y-57476190D02*
X28619047Y-56976190D01*
X28857142Y-56976190D01*
%TO.C,C16*%
X19702380Y-57976190D02*
X19416666Y-57976190D01*
X19559523Y-57976190D02*
X19559523Y-57476190D01*
X19511904Y-57547619D01*
X19464285Y-57595238D01*
X19416666Y-57619047D01*
X20130952Y-57642857D02*
X20130952Y-57976190D01*
X19916666Y-57642857D02*
X19916666Y-57904761D01*
X19940476Y-57952380D01*
X19988095Y-57976190D01*
X20059523Y-57976190D01*
X20107142Y-57952380D01*
X20130952Y-57928571D01*
X20535714Y-57714285D02*
X20369047Y-57714285D01*
X20369047Y-57976190D02*
X20369047Y-57476190D01*
X20607142Y-57476190D01*
%TO.C,C14*%
X18202380Y-57976190D02*
X17916666Y-57976190D01*
X18059523Y-57976190D02*
X18059523Y-57476190D01*
X18011904Y-57547619D01*
X17964285Y-57595238D01*
X17916666Y-57619047D01*
X18630952Y-57642857D02*
X18630952Y-57976190D01*
X18416666Y-57642857D02*
X18416666Y-57904761D01*
X18440476Y-57952380D01*
X18488095Y-57976190D01*
X18559523Y-57976190D01*
X18607142Y-57952380D01*
X18630952Y-57928571D01*
X19035714Y-57714285D02*
X18869047Y-57714285D01*
X18869047Y-57976190D02*
X18869047Y-57476190D01*
X19107142Y-57476190D01*
%TO.C,C13*%
X26452380Y-56726190D02*
X26166666Y-56726190D01*
X26309523Y-56726190D02*
X26309523Y-56226190D01*
X26261904Y-56297619D01*
X26214285Y-56345238D01*
X26166666Y-56369047D01*
X26880952Y-56392857D02*
X26880952Y-56726190D01*
X26666666Y-56392857D02*
X26666666Y-56654761D01*
X26690476Y-56702380D01*
X26738095Y-56726190D01*
X26809523Y-56726190D01*
X26857142Y-56702380D01*
X26880952Y-56678571D01*
X27285714Y-56464285D02*
X27119047Y-56464285D01*
X27119047Y-56726190D02*
X27119047Y-56226190D01*
X27357142Y-56226190D01*
%TO.C,C8*%
X32297619Y-55392857D02*
X32297619Y-55726190D01*
X32178571Y-55202380D02*
X32059523Y-55559523D01*
X32369047Y-55559523D01*
X32559523Y-55678571D02*
X32583333Y-55702380D01*
X32559523Y-55726190D01*
X32535714Y-55702380D01*
X32559523Y-55678571D01*
X32559523Y-55726190D01*
X32750000Y-55226190D02*
X33083333Y-55226190D01*
X32869047Y-55726190D01*
X33488095Y-55392857D02*
X33488095Y-55726190D01*
X33273809Y-55392857D02*
X33273809Y-55654761D01*
X33297619Y-55702380D01*
X33345238Y-55726190D01*
X33416666Y-55726190D01*
X33464285Y-55702380D01*
X33488095Y-55678571D01*
X33892857Y-55464285D02*
X33726190Y-55464285D01*
X33726190Y-55726190D02*
X33726190Y-55226190D01*
X33964285Y-55226190D01*
%TO.C,C7*%
X16714285Y-30976190D02*
X16428571Y-30976190D01*
X16571428Y-30976190D02*
X16571428Y-30476190D01*
X16523809Y-30547619D01*
X16476190Y-30595238D01*
X16428571Y-30619047D01*
X17023809Y-30476190D02*
X17071428Y-30476190D01*
X17119047Y-30500000D01*
X17142857Y-30523809D01*
X17166666Y-30571428D01*
X17190476Y-30666666D01*
X17190476Y-30785714D01*
X17166666Y-30880952D01*
X17142857Y-30928571D01*
X17119047Y-30952380D01*
X17071428Y-30976190D01*
X17023809Y-30976190D01*
X16976190Y-30952380D01*
X16952380Y-30928571D01*
X16928571Y-30880952D01*
X16904761Y-30785714D01*
X16904761Y-30666666D01*
X16928571Y-30571428D01*
X16952380Y-30523809D01*
X16976190Y-30500000D01*
X17023809Y-30476190D01*
X17619047Y-30642857D02*
X17619047Y-30976190D01*
X17404761Y-30642857D02*
X17404761Y-30904761D01*
X17428571Y-30952380D01*
X17476190Y-30976190D01*
X17547619Y-30976190D01*
X17595238Y-30952380D01*
X17619047Y-30928571D01*
X18023809Y-30714285D02*
X17857142Y-30714285D01*
X17857142Y-30976190D02*
X17857142Y-30476190D01*
X18095238Y-30476190D01*
%TO.C,C4*%
X17142857Y-22952380D02*
X17476190Y-22952380D01*
X16952380Y-23071428D02*
X17309523Y-23190476D01*
X17309523Y-22880952D01*
X17428571Y-22690476D02*
X17452380Y-22666666D01*
X17476190Y-22690476D01*
X17452380Y-22714285D01*
X17428571Y-22690476D01*
X17476190Y-22690476D01*
X16976190Y-22500000D02*
X16976190Y-22166666D01*
X17476190Y-22380952D01*
X17142857Y-21761904D02*
X17476190Y-21761904D01*
X17142857Y-21976190D02*
X17404761Y-21976190D01*
X17452380Y-21952380D01*
X17476190Y-21904761D01*
X17476190Y-21833333D01*
X17452380Y-21785714D01*
X17428571Y-21761904D01*
X17214285Y-21357142D02*
X17214285Y-21523809D01*
X17476190Y-21523809D02*
X16976190Y-21523809D01*
X16976190Y-21285714D01*
%TO.C,C3*%
X22714285Y-32976190D02*
X22428571Y-32976190D01*
X22571428Y-32976190D02*
X22571428Y-32476190D01*
X22523809Y-32547619D01*
X22476190Y-32595238D01*
X22428571Y-32619047D01*
X23023809Y-32476190D02*
X23071428Y-32476190D01*
X23119047Y-32500000D01*
X23142857Y-32523809D01*
X23166666Y-32571428D01*
X23190476Y-32666666D01*
X23190476Y-32785714D01*
X23166666Y-32880952D01*
X23142857Y-32928571D01*
X23119047Y-32952380D01*
X23071428Y-32976190D01*
X23023809Y-32976190D01*
X22976190Y-32952380D01*
X22952380Y-32928571D01*
X22928571Y-32880952D01*
X22904761Y-32785714D01*
X22904761Y-32666666D01*
X22928571Y-32571428D01*
X22952380Y-32523809D01*
X22976190Y-32500000D01*
X23023809Y-32476190D01*
X23619047Y-32642857D02*
X23619047Y-32976190D01*
X23404761Y-32642857D02*
X23404761Y-32904761D01*
X23428571Y-32952380D01*
X23476190Y-32976190D01*
X23547619Y-32976190D01*
X23595238Y-32952380D01*
X23619047Y-32928571D01*
X24023809Y-32714285D02*
X23857142Y-32714285D01*
X23857142Y-32976190D02*
X23857142Y-32476190D01*
X24095238Y-32476190D01*
%TO.C,C2*%
X26976190Y-29785714D02*
X26976190Y-30071428D01*
X26976190Y-29928571D02*
X26476190Y-29928571D01*
X26547619Y-29976190D01*
X26595238Y-30023809D01*
X26619047Y-30071428D01*
X26523809Y-29595238D02*
X26500000Y-29571428D01*
X26476190Y-29523809D01*
X26476190Y-29404761D01*
X26500000Y-29357142D01*
X26523809Y-29333333D01*
X26571428Y-29309523D01*
X26619047Y-29309523D01*
X26690476Y-29333333D01*
X26976190Y-29619047D01*
X26976190Y-29309523D01*
X26642857Y-29095238D02*
X27142857Y-29095238D01*
X26666666Y-29095238D02*
X26642857Y-29047619D01*
X26642857Y-28952380D01*
X26666666Y-28904761D01*
X26690476Y-28880952D01*
X26738095Y-28857142D01*
X26880952Y-28857142D01*
X26928571Y-28880952D01*
X26952380Y-28904761D01*
X26976190Y-28952380D01*
X26976190Y-29047619D01*
X26952380Y-29095238D01*
X26714285Y-28476190D02*
X26714285Y-28642857D01*
X26976190Y-28642857D02*
X26476190Y-28642857D01*
X26476190Y-28404761D01*
%TO.C,C1*%
X28976190Y-29785714D02*
X28976190Y-30071428D01*
X28976190Y-29928571D02*
X28476190Y-29928571D01*
X28547619Y-29976190D01*
X28595238Y-30023809D01*
X28619047Y-30071428D01*
X28523809Y-29595238D02*
X28500000Y-29571428D01*
X28476190Y-29523809D01*
X28476190Y-29404761D01*
X28500000Y-29357142D01*
X28523809Y-29333333D01*
X28571428Y-29309523D01*
X28619047Y-29309523D01*
X28690476Y-29333333D01*
X28976190Y-29619047D01*
X28976190Y-29309523D01*
X28642857Y-29095238D02*
X29142857Y-29095238D01*
X28666666Y-29095238D02*
X28642857Y-29047619D01*
X28642857Y-28952380D01*
X28666666Y-28904761D01*
X28690476Y-28880952D01*
X28738095Y-28857142D01*
X28880952Y-28857142D01*
X28928571Y-28880952D01*
X28952380Y-28904761D01*
X28976190Y-28952380D01*
X28976190Y-29047619D01*
X28952380Y-29095238D01*
X28714285Y-28476190D02*
X28714285Y-28642857D01*
X28976190Y-28642857D02*
X28476190Y-28642857D01*
X28476190Y-28404761D01*
D12*
%TO.C,J3*%
X38945000Y-53435000D02*
X38250000Y-53435000D01*
X38945000Y-52750000D02*
X38945000Y-53435000D01*
X37641724Y-52065000D02*
X37555000Y-52065000D01*
X38945000Y-52065000D02*
X38858276Y-52065000D01*
X37555000Y-52065000D02*
X37555000Y-51190000D01*
X38945000Y-52065000D02*
X38945000Y-51190000D01*
X37855507Y-51190000D02*
X37555000Y-51190000D01*
X38945000Y-51190000D02*
X38644493Y-51190000D01*
%TO.C,R16*%
X35760000Y-43046267D02*
X35760000Y-42703733D01*
X34740000Y-43046267D02*
X34740000Y-42703733D01*
%TO.C,R15*%
X37490000Y-49078733D02*
X37490000Y-49421267D01*
X38510000Y-49078733D02*
X38510000Y-49421267D01*
%TO.C,Q4*%
X37070000Y-47160000D02*
X38480000Y-47160000D01*
X38480000Y-44840000D02*
X36450000Y-44840000D01*
X38480000Y-44840000D02*
X38480000Y-45500000D01*
X38480000Y-46500000D02*
X38480000Y-47160000D01*
D10*
%TO.C,SW5*%
X12025000Y-56425000D02*
X13625000Y-56425000D01*
X12025000Y-63575000D02*
X13625000Y-63575000D01*
X13625000Y-62925000D02*
X13625000Y-63575000D01*
X13625000Y-58725000D02*
X13625000Y-61275000D01*
X13625000Y-56425000D02*
X13625000Y-57075000D01*
D13*
X14470000Y-57900000D02*
G75*
G03*
X14470000Y-57900000I-125000J0D01*
G01*
D10*
%TO.C,SW4*%
X12025000Y-36425000D02*
X13625000Y-36425000D01*
X12025000Y-43575000D02*
X13625000Y-43575000D01*
X13625000Y-42925000D02*
X13625000Y-43575000D01*
X13625000Y-38725000D02*
X13625000Y-41275000D01*
X13625000Y-36425000D02*
X13625000Y-37075000D01*
D13*
X14470000Y-37900000D02*
G75*
G03*
X14470000Y-37900000I-125000J0D01*
G01*
D10*
%TO.C,SW3*%
X37975000Y-63575000D02*
X36375000Y-63575000D01*
X37975000Y-56425000D02*
X36375000Y-56425000D01*
X36375000Y-57075000D02*
X36375000Y-56425000D01*
X36375000Y-61275000D02*
X36375000Y-58725000D01*
X36375000Y-63575000D02*
X36375000Y-62925000D01*
D13*
X35780000Y-62100000D02*
G75*
G03*
X35780000Y-62100000I-125000J0D01*
G01*
D10*
%TO.C,SW2*%
X37975000Y-43575000D02*
X36375000Y-43575000D01*
X37975000Y-36425000D02*
X36375000Y-36425000D01*
X36375000Y-37075000D02*
X36375000Y-36425000D01*
X36375000Y-41275000D02*
X36375000Y-38725000D01*
X36375000Y-43575000D02*
X36375000Y-42925000D01*
D13*
X35780000Y-42100000D02*
G75*
G03*
X35780000Y-42100000I-125000J0D01*
G01*
D10*
%TO.C,SW1*%
X37975000Y-23575000D02*
X36375000Y-23575000D01*
X37975000Y-16425000D02*
X36375000Y-16425000D01*
X36375000Y-17075000D02*
X36375000Y-16425000D01*
X36375000Y-21275000D02*
X36375000Y-18725000D01*
X36375000Y-23575000D02*
X36375000Y-22925000D01*
D13*
X35780000Y-22100000D02*
G75*
G03*
X35780000Y-22100000I-125000J0D01*
G01*
D12*
%TO.C,R14*%
X32703733Y-21010000D02*
X33046267Y-21010000D01*
X32703733Y-19990000D02*
X33046267Y-19990000D01*
%TO.C,R13*%
X31760000Y-18046267D02*
X31760000Y-17703733D01*
X30740000Y-18046267D02*
X30740000Y-17703733D01*
%TO.C,R2*%
X14490000Y-25953733D02*
X14490000Y-26296267D01*
X15510000Y-25953733D02*
X15510000Y-26296267D01*
%TO.C,R1*%
X13171267Y-34240000D02*
X12828733Y-34240000D01*
X13171267Y-35260000D02*
X12828733Y-35260000D01*
%TO.C,Q3*%
X34660000Y-18430000D02*
X34660000Y-17020000D01*
X32340000Y-17020000D02*
X32340000Y-19050000D01*
X32340000Y-17020000D02*
X33000000Y-17020000D01*
X34000000Y-17020000D02*
X34660000Y-17020000D01*
%TO.C,Q2*%
X13680000Y-31340000D02*
X12270000Y-31340000D01*
X12270000Y-33660000D02*
X14300000Y-33660000D01*
X12270000Y-33660000D02*
X12270000Y-33000000D01*
X12270000Y-32000000D02*
X12270000Y-31340000D01*
%TO.C,D8*%
X37830000Y-12670000D02*
X37830000Y-14000000D01*
X36500000Y-12670000D02*
X37830000Y-12670000D01*
X35230000Y-12670000D02*
X35230000Y-15330000D01*
X35230000Y-15330000D02*
X32630000Y-15330000D01*
X35230000Y-12670000D02*
X32630000Y-12670000D01*
X32630000Y-12670000D02*
X32630000Y-15330000D01*
%TO.C,D7*%
X10920000Y-24920000D02*
X12250000Y-24920000D01*
X10920000Y-26250000D02*
X10920000Y-24920000D01*
X10920000Y-27520000D02*
X13580000Y-27520000D01*
X13580000Y-27520000D02*
X13580000Y-30120000D01*
X10920000Y-27520000D02*
X10920000Y-30120000D01*
X10920000Y-30120000D02*
X13580000Y-30120000D01*
%TO.C,C5*%
X35147936Y-30360000D02*
X36352064Y-30360000D01*
X35147936Y-27640000D02*
X36352064Y-27640000D01*
%TO.C,Y1*%
X26100000Y-35300000D02*
X28950000Y-35300000D01*
X26100000Y-33700000D02*
X26100000Y-35300000D01*
X28950000Y-33700000D02*
X26100000Y-33700000D01*
%TO.C,U3*%
X20900000Y-19890000D02*
X18450000Y-19890000D01*
X19100000Y-23110000D02*
X20900000Y-23110000D01*
%TO.C,U2*%
X21610000Y-26900000D02*
X21610000Y-24450000D01*
X18390000Y-25100000D02*
X18390000Y-26900000D01*
%TO.C,U1*%
X29500000Y-26110000D02*
X33100000Y-26110000D01*
X29500000Y-26110000D02*
X27300000Y-26110000D01*
X29500000Y-22890000D02*
X31700000Y-22890000D01*
X29500000Y-22890000D02*
X27300000Y-22890000D01*
%TO.C,R12*%
X27260000Y-14046267D02*
X27260000Y-13703733D01*
X26240000Y-14046267D02*
X26240000Y-13703733D01*
%TO.C,R11*%
X24510000Y-13921267D02*
X24510000Y-13578733D01*
X23490000Y-13921267D02*
X23490000Y-13578733D01*
%TO.C,R10*%
X27296267Y-10240000D02*
X26953733Y-10240000D01*
X27296267Y-11260000D02*
X26953733Y-11260000D01*
%TO.C,R9*%
X22490000Y-21328733D02*
X22490000Y-21671267D01*
X23510000Y-21328733D02*
X23510000Y-21671267D01*
%TO.C,R5*%
X32546267Y-45740000D02*
X32203733Y-45740000D01*
X32546267Y-46760000D02*
X32203733Y-46760000D01*
%TO.C,R4*%
X27260000Y-19546267D02*
X27260000Y-19203733D01*
X26240000Y-19546267D02*
X26240000Y-19203733D01*
%TO.C,R3*%
X25760000Y-19546267D02*
X25760000Y-19203733D01*
X24740000Y-19546267D02*
X24740000Y-19203733D01*
%TO.C,Q1*%
X17410000Y-60680000D02*
X17410000Y-59270000D01*
X15090000Y-59270000D02*
X15090000Y-61300000D01*
X15090000Y-59270000D02*
X15750000Y-59270000D01*
X16750000Y-59270000D02*
X17410000Y-59270000D01*
%TO.C,L2*%
X34990000Y-48953733D02*
X34990000Y-49296267D01*
X36010000Y-48953733D02*
X36010000Y-49296267D01*
%TO.C,L1*%
X20046267Y-28990000D02*
X19703733Y-28990000D01*
X20046267Y-30010000D02*
X19703733Y-30010000D01*
%TO.C,J1*%
X18840000Y-63950000D02*
X18840000Y-62750000D01*
X32650000Y-69750000D02*
X32650000Y-68010000D01*
X17350000Y-69750000D02*
X32650000Y-69750000D01*
X17350000Y-68010000D02*
X17350000Y-69750000D01*
X32650000Y-63950000D02*
X32650000Y-65290000D01*
X31160000Y-63950000D02*
X32650000Y-63950000D01*
X17350000Y-63950000D02*
X17350000Y-65290000D01*
X18840000Y-63950000D02*
X17350000Y-63950000D01*
D14*
%TO.C,IC1*%
X30250000Y-52250000D02*
X19750000Y-52250000D01*
X19750000Y-52250000D02*
X19750000Y-36750000D01*
X19750000Y-36750000D02*
X30250000Y-36750000D01*
X30250000Y-36750000D02*
X30250000Y-52250000D01*
X30600000Y-48300000D02*
X30600000Y-48300000D01*
X30600000Y-48200000D02*
X30600000Y-48200000D01*
X30600000Y-48200000D02*
G75*
G02*
X30600000Y-48300000I0J-50000D01*
G01*
X30600000Y-48300000D02*
G75*
G02*
X30600000Y-48200000I0J50000D01*
G01*
D12*
%TO.C,D6*%
X25035000Y-10015000D02*
X22575000Y-10015000D01*
X25035000Y-11485000D02*
X25035000Y-10015000D01*
X22575000Y-11485000D02*
X25035000Y-11485000D01*
%TO.C,D5*%
X36500000Y-51000000D02*
X36500000Y-54900000D01*
X34500000Y-51000000D02*
X34500000Y-54900000D01*
X36500000Y-51000000D02*
X34500000Y-51000000D01*
%TO.C,D4*%
X34500000Y-57600000D02*
X34500000Y-61500000D01*
X32500000Y-57600000D02*
X32500000Y-61500000D01*
X34500000Y-57600000D02*
X32500000Y-57600000D01*
%TO.C,D2*%
X36340000Y-32985000D02*
X38800000Y-32985000D01*
X36340000Y-31515000D02*
X36340000Y-32985000D01*
X38800000Y-31515000D02*
X36340000Y-31515000D01*
%TO.C,C19*%
X30740000Y-59203733D02*
X30740000Y-59546267D01*
X31760000Y-59203733D02*
X31760000Y-59546267D01*
%TO.C,C18*%
X29240000Y-59203733D02*
X29240000Y-59546267D01*
X30260000Y-59203733D02*
X30260000Y-59546267D01*
%TO.C,C17*%
X27740000Y-59203733D02*
X27740000Y-59546267D01*
X28760000Y-59203733D02*
X28760000Y-59546267D01*
%TO.C,C16*%
X19490000Y-59703733D02*
X19490000Y-60046267D01*
X20510000Y-59703733D02*
X20510000Y-60046267D01*
%TO.C,C14*%
X17990000Y-59703733D02*
X17990000Y-60046267D01*
X19010000Y-59703733D02*
X19010000Y-60046267D01*
%TO.C,C13*%
X26240000Y-59203733D02*
X26240000Y-59546267D01*
X27260000Y-59203733D02*
X27260000Y-59546267D01*
%TO.C,C8*%
X34203733Y-57010000D02*
X34546267Y-57010000D01*
X34203733Y-55990000D02*
X34546267Y-55990000D01*
%TO.C,C7*%
X17760000Y-28796267D02*
X17760000Y-28453733D01*
X16740000Y-28796267D02*
X16740000Y-28453733D01*
%TO.C,C4*%
X16740000Y-24953733D02*
X16740000Y-25296267D01*
X17760000Y-24953733D02*
X17760000Y-25296267D01*
%TO.C,C3*%
X23510000Y-35046267D02*
X23510000Y-34703733D01*
X22490000Y-35046267D02*
X22490000Y-34703733D01*
%TO.C,C2*%
X26240000Y-31703733D02*
X26240000Y-32046267D01*
X27260000Y-31703733D02*
X27260000Y-32046267D01*
%TO.C,C1*%
X28240000Y-31703733D02*
X28240000Y-32046267D01*
X29260000Y-31703733D02*
X29260000Y-32046267D01*
%TD*%
M02*
