%TF.GenerationSoftware,KiCad,Pcbnew,(5.99.0-2309-gaf729d578)*%
%TF.CreationDate,2020-08-23T01:34:43-04:00*%
%TF.ProjectId,usbpower,75736270-6f77-4657-922e-6b696361645f,rev?*%
%TF.SameCoordinates,Original*%
%TF.FileFunction,Copper,L1,Top*%
%TF.FilePolarity,Positive*%
%FSLAX46Y46*%
G04 Gerber Fmt 4.6, Leading zero omitted, Abs format (unit mm)*
G04 Created by KiCad (PCBNEW (5.99.0-2309-gaf729d578)) date 2020-08-23 01:34:43*
%MOMM*%
%LPD*%
G01*
G04 APERTURE LIST*
%TA.AperFunction,SMDPad,CuDef*%
%ADD10C,4.000000*%
%TD*%
%TA.AperFunction,SMDPad,CuDef*%
%ADD11R,1.160000X0.600000*%
%TD*%
%TA.AperFunction,SMDPad,CuDef*%
%ADD12R,1.160000X0.300000*%
%TD*%
%TA.AperFunction,ComponentPad*%
%ADD13O,1.700000X0.900000*%
%TD*%
%TA.AperFunction,ComponentPad*%
%ADD14O,2.000000X0.900000*%
%TD*%
%TA.AperFunction,ViaPad*%
%ADD15C,0.800000*%
%TD*%
%TA.AperFunction,Conductor*%
%ADD16C,0.250000*%
%TD*%
G04 APERTURE END LIST*
D10*
%TO.P,TP2,1,1*%
%TO.N,Net-(P2-PadA4)*%
X26500000Y-15000000D03*
%TD*%
%TO.P,TP1,1,1*%
%TO.N,Net-(P1-PadA4)*%
X33000000Y-15000000D03*
%TD*%
D11*
%TO.P,P2,A12,GND*%
%TO.N,Net-(P1-PadA1)*%
X25510000Y-26200000D03*
%TO.P,P2,A9,VBUS*%
%TO.N,Net-(P2-PadA4)*%
X25510000Y-25400000D03*
%TO.P,P2,B1,GND*%
%TO.N,Net-(P1-PadA1)*%
X25510000Y-26200000D03*
%TO.P,P2,B4,VBUS*%
%TO.N,Net-(P2-PadA4)*%
X25510000Y-25400000D03*
%TO.P,P2,B12,GND*%
%TO.N,Net-(P1-PadA1)*%
X25510000Y-19800000D03*
%TO.P,P2,A1,GND*%
X25510000Y-19800000D03*
%TO.P,P2,B9,VBUS*%
%TO.N,Net-(P2-PadA4)*%
X25510000Y-20600000D03*
%TO.P,P2,A4,VBUS*%
X25510000Y-20600000D03*
D12*
%TO.P,P2,B5,CC2*%
%TO.N,Net-(P1-PadB5)*%
X25510000Y-24750000D03*
%TO.P,P2,B6,D+*%
%TO.N,Net-(P1-PadB6)*%
X25510000Y-23750000D03*
%TO.P,P2,A8,SBU1*%
%TO.N,Net-(P1-PadA8)*%
X25510000Y-24250000D03*
%TO.P,P2,A5,CC1*%
%TO.N,Net-(P1-PadA5)*%
X25510000Y-21750000D03*
%TO.P,P2,B8,SBU2*%
%TO.N,Net-(P1-PadB8)*%
X25510000Y-21250000D03*
%TO.P,P2,A7,D-*%
%TO.N,Net-(P1-PadA7)*%
X25510000Y-23250000D03*
%TO.P,P2,A6,D+*%
%TO.N,Net-(P1-PadA6)*%
X25510000Y-22750000D03*
%TO.P,P2,B7,D-*%
%TO.N,Net-(P1-PadB7)*%
X25510000Y-22250000D03*
D13*
%TO.P,P2,S1,SHIELD*%
%TO.N,Net-(P1-PadS1)*%
X20760000Y-27320000D03*
X20760000Y-18680000D03*
D14*
X24930000Y-27320000D03*
X24930000Y-18680000D03*
%TD*%
D11*
%TO.P,P1,A12,GND*%
%TO.N,Net-(P1-PadA1)*%
X33990000Y-19800000D03*
%TO.P,P1,A9,VBUS*%
%TO.N,Net-(P1-PadA4)*%
X33990000Y-20600000D03*
%TO.P,P1,B1,GND*%
%TO.N,Net-(P1-PadA1)*%
X33990000Y-19800000D03*
%TO.P,P1,B4,VBUS*%
%TO.N,Net-(P1-PadA4)*%
X33990000Y-20600000D03*
%TO.P,P1,B12,GND*%
%TO.N,Net-(P1-PadA1)*%
X33990000Y-26200000D03*
%TO.P,P1,A1,GND*%
X33990000Y-26200000D03*
%TO.P,P1,B9,VBUS*%
%TO.N,Net-(P1-PadA4)*%
X33990000Y-25400000D03*
%TO.P,P1,A4,VBUS*%
X33990000Y-25400000D03*
D12*
%TO.P,P1,B5,CC2*%
%TO.N,Net-(P1-PadB5)*%
X33990000Y-21250000D03*
%TO.P,P1,B6,D+*%
%TO.N,Net-(P1-PadB6)*%
X33990000Y-22250000D03*
%TO.P,P1,A8,SBU1*%
%TO.N,Net-(P1-PadA8)*%
X33990000Y-21750000D03*
%TO.P,P1,A5,CC1*%
%TO.N,Net-(P1-PadA5)*%
X33990000Y-24250000D03*
%TO.P,P1,B8,SBU2*%
%TO.N,Net-(P1-PadB8)*%
X33990000Y-24750000D03*
%TO.P,P1,A7,D-*%
%TO.N,Net-(P1-PadA7)*%
X33990000Y-22750000D03*
%TO.P,P1,A6,D+*%
%TO.N,Net-(P1-PadA6)*%
X33990000Y-23250000D03*
%TO.P,P1,B7,D-*%
%TO.N,Net-(P1-PadB7)*%
X33990000Y-23750000D03*
D13*
%TO.P,P1,S1,SHIELD*%
%TO.N,Net-(P1-PadS1)*%
X38740000Y-18680000D03*
X38740000Y-27320000D03*
D14*
X34570000Y-18680000D03*
X34570000Y-27320000D03*
%TD*%
D15*
%TO.N,Net-(P1-PadB8)*%
X35154405Y-24535908D03*
X27000000Y-20750000D03*
%TO.N,Net-(P1-PadA5)*%
X23250000Y-21500000D03*
%TO.N,Net-(P1-PadB7)*%
X24225010Y-22475010D03*
%TO.N,Net-(P1-PadA5)*%
X32750000Y-24500000D03*
%TO.N,Net-(P1-PadA7)*%
X31484642Y-22977228D03*
%TO.N,Net-(P1-PadA6)*%
X30881948Y-23935385D03*
%TO.N,Net-(P1-PadB7)*%
X31752638Y-24427240D03*
%TO.N,Net-(P1-PadA6)*%
X27762660Y-22237340D03*
%TO.N,Net-(P1-PadA8)*%
X30315216Y-20938256D03*
%TO.N,Net-(P1-PadB6)*%
X31497096Y-21971593D03*
%TO.N,Net-(P1-PadA7)*%
X28928210Y-22377570D03*
%TO.N,Net-(P1-PadB6)*%
X29597074Y-21634169D03*
%TO.N,Net-(P1-PadA8)*%
X32439833Y-21574979D03*
%TD*%
D16*
%TO.N,Net-(P1-PadA1)*%
X33990000Y-26200000D02*
X25510000Y-26200000D01*
%TO.N,Net-(P1-PadA4)*%
X33990000Y-20600000D02*
X33160000Y-20600000D01*
X33160000Y-20600000D02*
X33000000Y-20440000D01*
X33000000Y-20440000D02*
X33000000Y-15000000D01*
%TO.N,Net-(P2-PadA4)*%
X26500000Y-14750000D02*
X26500000Y-20190000D01*
X26500000Y-20190000D02*
X26090000Y-20600000D01*
X26090000Y-20600000D02*
X25510000Y-20600000D01*
%TO.N,Net-(P1-PadA4)*%
X35975002Y-22045368D02*
X34529634Y-20600000D01*
%TO.N,Net-(P1-PadB8)*%
X33990000Y-24750000D02*
X34940313Y-24750000D01*
%TO.N,Net-(P1-PadA1)*%
X35350001Y-26515001D02*
X34305001Y-26515001D01*
%TO.N,Net-(P1-PadA4)*%
X35562094Y-25260910D02*
X35975002Y-24848002D01*
X34529634Y-20600000D02*
X33990000Y-20600000D01*
%TO.N,Net-(P1-PadA1)*%
X34305001Y-26515001D02*
X33990000Y-26200000D01*
X34305001Y-19484999D02*
X35350001Y-19484999D01*
%TO.N,Net-(P1-PadB8)*%
X26500000Y-21250000D02*
X25510000Y-21250000D01*
%TO.N,Net-(P1-PadA4)*%
X34129090Y-25260910D02*
X35562094Y-25260910D01*
%TO.N,Net-(P1-PadA1)*%
X35350001Y-19484999D02*
X36425013Y-20560011D01*
%TO.N,Net-(P1-PadA4)*%
X33990000Y-25400000D02*
X34129090Y-25260910D01*
%TO.N,Net-(P1-PadB8)*%
X27000000Y-20750000D02*
X26500000Y-21250000D01*
X34940313Y-24750000D02*
X35154405Y-24535908D01*
%TO.N,Net-(P1-PadA1)*%
X36425013Y-25439989D02*
X35350001Y-26515001D01*
X33990000Y-19800000D02*
X34305001Y-19484999D01*
%TO.N,Net-(P1-PadA4)*%
X35975002Y-24848002D02*
X35975002Y-22045368D01*
%TO.N,Net-(P1-PadA1)*%
X36425013Y-20560011D02*
X36425013Y-25439989D01*
X25194999Y-19484999D02*
X25510000Y-19800000D01*
X22074987Y-24439989D02*
X22074987Y-20965598D01*
X24149999Y-26515001D02*
X22074987Y-24439989D01*
X25194999Y-26515001D02*
X24149999Y-26515001D01*
%TO.N,Net-(P1-PadB7)*%
X24450020Y-22250000D02*
X24225010Y-22475010D01*
X25510000Y-22250000D02*
X24450020Y-22250000D01*
%TO.N,Net-(P1-PadA1)*%
X22074987Y-20965598D02*
X23555586Y-19484999D01*
%TO.N,Net-(P1-PadA5)*%
X23500000Y-21750000D02*
X23250000Y-21500000D01*
%TO.N,Net-(P1-PadA1)*%
X23555586Y-19484999D02*
X25194999Y-19484999D01*
%TO.N,Net-(P2-PadA4)*%
X24930000Y-25400000D02*
X25510000Y-25400000D01*
%TO.N,Net-(P1-PadA5)*%
X25510000Y-21750000D02*
X23500000Y-21750000D01*
%TO.N,Net-(P2-PadA4)*%
X25510000Y-20600000D02*
X25335002Y-20774998D01*
X25335002Y-20774998D02*
X22901998Y-20774998D01*
%TO.N,Net-(P1-PadA1)*%
X25510000Y-26200000D02*
X25194999Y-26515001D01*
%TO.N,Net-(P2-PadA4)*%
X22524998Y-21151998D02*
X22524998Y-22994998D01*
X22901998Y-20774998D02*
X22524998Y-21151998D01*
X22524998Y-22994998D02*
X24930000Y-25400000D01*
%TO.N,Net-(P1-PadA5)*%
X32750000Y-24500000D02*
X33000000Y-24250000D01*
%TO.N,Net-(P1-PadA6)*%
X33990000Y-23250000D02*
X32293468Y-23250000D01*
%TO.N,Net-(P1-PadA7)*%
X31711870Y-22750000D02*
X31484642Y-22977228D01*
%TO.N,Net-(P1-PadA6)*%
X32293468Y-23250000D02*
X31841230Y-23702238D01*
%TO.N,Net-(P1-PadA7)*%
X33990000Y-22750000D02*
X31711870Y-22750000D01*
%TO.N,Net-(P1-PadA6)*%
X31841230Y-23702238D02*
X31115095Y-23702238D01*
%TO.N,Net-(P1-PadB7)*%
X33990000Y-23750000D02*
X32429878Y-23750000D01*
X32429878Y-23750000D02*
X31752638Y-24427240D01*
%TO.N,Net-(P1-PadA6)*%
X31115095Y-23702238D02*
X30881948Y-23935385D01*
%TO.N,Net-(P1-PadA5)*%
X33000000Y-24250000D02*
X33990000Y-24250000D01*
%TO.N,Net-(P1-PadB5)*%
X30772086Y-21554390D02*
X31476498Y-20849978D01*
%TO.N,Net-(P1-PadA8)*%
X30322075Y-20945115D02*
X30315216Y-20938256D01*
%TO.N,Net-(P1-PadB6)*%
X33990000Y-22250000D02*
X33113589Y-22250000D01*
%TO.N,Net-(P1-PadB5)*%
X25510000Y-24750000D02*
X28901604Y-24750000D01*
X30653984Y-22286672D02*
X30772086Y-22168570D01*
%TO.N,Net-(P1-PadA8)*%
X28765193Y-24250000D02*
X30203973Y-22811220D01*
%TO.N,Net-(P1-PadA6)*%
X25510000Y-22750000D02*
X27250000Y-22750000D01*
%TO.N,Net-(P1-PadB6)*%
X28628782Y-23750000D02*
X29653211Y-22725571D01*
X29653211Y-21690306D02*
X29597074Y-21634169D01*
X25510000Y-23750000D02*
X28628782Y-23750000D01*
X33063600Y-22299989D02*
X31825492Y-22299989D01*
%TO.N,Net-(P1-PadB5)*%
X32764812Y-20849978D02*
X33164834Y-21250000D01*
%TO.N,Net-(P1-PadA8)*%
X30322075Y-21982170D02*
X30322075Y-20945115D01*
%TO.N,Net-(P1-PadB5)*%
X28901604Y-24750000D02*
X30653984Y-22997620D01*
%TO.N,Net-(P1-PadA8)*%
X25510000Y-24250000D02*
X28765193Y-24250000D01*
%TO.N,Net-(P1-PadB6)*%
X31825492Y-22299989D02*
X31497096Y-21971593D01*
%TO.N,Net-(P1-PadB5)*%
X30772086Y-22168570D02*
X30772086Y-21554390D01*
%TO.N,Net-(P1-PadB6)*%
X33113589Y-22250000D02*
X33063600Y-22299989D01*
%TO.N,Net-(P1-PadB5)*%
X30653984Y-22997620D02*
X30653984Y-22286672D01*
X33164834Y-21250000D02*
X33990000Y-21250000D01*
%TO.N,Net-(P1-PadB6)*%
X29653211Y-22725571D02*
X29653211Y-21690306D01*
%TO.N,Net-(P1-PadA8)*%
X30203973Y-22811220D02*
X30203973Y-22100272D01*
%TO.N,Net-(P1-PadA7)*%
X28055780Y-23250000D02*
X28928210Y-22377570D01*
%TO.N,Net-(P1-PadA8)*%
X30203973Y-22100272D02*
X30322075Y-21982170D01*
%TO.N,Net-(P1-PadA7)*%
X25510000Y-23250000D02*
X28055780Y-23250000D01*
%TO.N,Net-(P1-PadB5)*%
X31476498Y-20849978D02*
X32764812Y-20849978D01*
%TO.N,Net-(P1-PadA6)*%
X27250000Y-22750000D02*
X27762660Y-22237340D01*
%TO.N,Net-(P1-PadA8)*%
X33990000Y-21750000D02*
X32614854Y-21750000D01*
X32614854Y-21750000D02*
X32439833Y-21574979D01*
%TO.N,Net-(P1-PadS1)*%
X20760000Y-18680000D02*
X24930000Y-18680000D01*
X20760000Y-27320000D02*
X20760000Y-18680000D01*
X24930000Y-27320000D02*
X20760000Y-27320000D01*
X34570000Y-27320000D02*
X24930000Y-27320000D01*
X34570000Y-18680000D02*
X38740000Y-18680000D01*
X38740000Y-18680000D02*
X38740000Y-27320000D01*
X34570000Y-27320000D02*
X38740000Y-27320000D01*
%TD*%
M02*
