M48
; DRILL file {KiCad (5.99.0-2309-gaf729d578)} date Sun Aug 23 01:34:49 2020
; FORMAT={-:-/ absolute / inch / decimal}
; #@! TF.CreationDate,2020-08-23T01:34:49-04:00
; #@! TF.GenerationSoftware,Kicad,Pcbnew,(5.99.0-2309-gaf729d578)
; #@! TF.FileFunction,Plated,1,2,PTH
FMAT,2
INCH
T1C0.0157
T2C0.0236
%
G90
G05
T1
X0.9154Y-0.8465
X0.9537Y-0.8848
X1.063Y-0.8169
X1.093Y-0.8755
X1.1389Y-0.881
X1.1652Y-0.8517
X1.1935Y-0.8243
X1.2158Y-0.9423
X1.2396Y-0.9046
X1.24Y-0.865
X1.2501Y-0.9617
X1.2772Y-0.8494
X1.2894Y-0.9646
X1.384Y-0.966
T2
G00X0.8016Y-0.7354
M15
G01X0.8331Y-0.7354
M16
G05
G00X0.8016Y-1.0756
M15
G01X0.8331Y-1.0756
M16
G05
G00X0.9598Y-0.7354
M15
G01X1.0031Y-0.7354
M16
G05
G00X0.9598Y-1.0756
M15
G01X1.0031Y-1.0756
M16
G05
G00X1.3827Y-0.7354
M15
G01X1.3394Y-0.7354
M16
G05
G00X1.3827Y-1.0756
M15
G01X1.3394Y-1.0756
M16
G05
G00X1.5409Y-0.7354
M15
G01X1.5094Y-0.7354
M16
G05
G00X1.5409Y-1.0756
M15
G01X1.5094Y-1.0756
M16
G05
T0
M30
