%TF.GenerationSoftware,KiCad,Pcbnew,(5.99.0-2309-gaf729d578)*%
%TF.CreationDate,2020-08-23T01:34:43-04:00*%
%TF.ProjectId,usbpower,75736270-6f77-4657-922e-6b696361645f,rev?*%
%TF.SameCoordinates,Original*%
%TF.FileFunction,Copper,L2,Bot*%
%TF.FilePolarity,Positive*%
%FSLAX46Y46*%
G04 Gerber Fmt 4.6, Leading zero omitted, Abs format (unit mm)*
G04 Created by KiCad (PCBNEW (5.99.0-2309-gaf729d578)) date 2020-08-23 01:34:43*
%MOMM*%
%LPD*%
G01*
G04 APERTURE LIST*
%TA.AperFunction,ComponentPad*%
%ADD10O,1.700000X0.900000*%
%TD*%
%TA.AperFunction,ComponentPad*%
%ADD11O,2.000000X0.900000*%
%TD*%
%TA.AperFunction,ViaPad*%
%ADD12C,0.800000*%
%TD*%
%TA.AperFunction,Conductor*%
%ADD13C,0.250000*%
%TD*%
G04 APERTURE END LIST*
D10*
%TO.P,P2,S1,SHIELD*%
%TO.N,Net-(P1-PadS1)*%
X20760000Y-27320000D03*
X20760000Y-18680000D03*
D11*
X24930000Y-27320000D03*
X24930000Y-18680000D03*
%TD*%
D10*
%TO.P,P1,S1,SHIELD*%
%TO.N,Net-(P1-PadS1)*%
X38740000Y-18680000D03*
X38740000Y-27320000D03*
D11*
X34570000Y-18680000D03*
X34570000Y-27320000D03*
%TD*%
D12*
%TO.N,Net-(P1-PadB8)*%
X35154405Y-24535908D03*
X27000000Y-20750000D03*
%TO.N,Net-(P1-PadA5)*%
X23250000Y-21500000D03*
%TO.N,Net-(P1-PadB7)*%
X24225010Y-22475010D03*
%TO.N,Net-(P1-PadA5)*%
X32750000Y-24500000D03*
%TO.N,Net-(P1-PadA7)*%
X31484642Y-22977228D03*
%TO.N,Net-(P1-PadA6)*%
X30881948Y-23935385D03*
%TO.N,Net-(P1-PadB7)*%
X31752638Y-24427240D03*
%TO.N,Net-(P1-PadA6)*%
X27762660Y-22237340D03*
%TO.N,Net-(P1-PadA8)*%
X30315216Y-20938256D03*
%TO.N,Net-(P1-PadB6)*%
X31497096Y-21971593D03*
%TO.N,Net-(P1-PadA7)*%
X28928210Y-22377570D03*
%TO.N,Net-(P1-PadB6)*%
X29597074Y-21634169D03*
%TO.N,Net-(P1-PadA8)*%
X32439833Y-21574979D03*
%TD*%
D13*
%TO.N,Net-(P1-PadB8)*%
X25250000Y-25750000D02*
X22250000Y-22750000D01*
X22250000Y-22750000D02*
X22250000Y-21000000D01*
X33940313Y-25750000D02*
X25250000Y-25750000D01*
X22250000Y-21000000D02*
X22500000Y-20750000D01*
X35154405Y-24535908D02*
X33940313Y-25750000D01*
X22500000Y-20750000D02*
X27000000Y-20750000D01*
%TO.N,Net-(P1-PadB7)*%
X26475001Y-24725001D02*
X31454877Y-24725001D01*
%TO.N,Net-(P1-PadA5)*%
X26500000Y-25175010D02*
X32074990Y-25175010D01*
%TO.N,Net-(P1-PadB7)*%
X31454877Y-24725001D02*
X31752638Y-24427240D01*
X24225010Y-22475010D02*
X26475001Y-24725001D01*
%TO.N,Net-(P1-PadA5)*%
X25852008Y-25175010D02*
X26500000Y-25175010D01*
X23500009Y-22823011D02*
X25852008Y-25175010D01*
X23250000Y-21500000D02*
X23500009Y-21750009D01*
X32074990Y-25175010D02*
X32750000Y-24500000D01*
X23500009Y-21750009D02*
X23500009Y-22823011D01*
%TO.N,Net-(P1-PadA6)*%
X29460705Y-23935385D02*
X30881948Y-23935385D01*
X27762660Y-22237340D02*
X29460705Y-23935385D01*
%TO.N,Net-(P1-PadA7)*%
X28928210Y-22377570D02*
X29527868Y-22977228D01*
X29527868Y-22977228D02*
X31484642Y-22977228D01*
%TO.N,Net-(P1-PadA8)*%
X31803110Y-20938256D02*
X30315216Y-20938256D01*
%TO.N,Net-(P1-PadB6)*%
X29597074Y-21634169D02*
X29934498Y-21971593D01*
X29934498Y-21971593D02*
X31497096Y-21971593D01*
%TO.N,Net-(P1-PadA8)*%
X32439833Y-21574979D02*
X31803110Y-20938256D01*
%TD*%
M02*
