%TF.GenerationSoftware,KiCad,Pcbnew,(5.99.0-2309-gaf729d578)*%
%TF.CreationDate,2020-08-23T01:34:44-04:00*%
%TF.ProjectId,usbpower,75736270-6f77-4657-922e-6b696361645f,rev?*%
%TF.SameCoordinates,Original*%
%TF.FileFunction,Legend,Bot*%
%TF.FilePolarity,Positive*%
%FSLAX46Y46*%
G04 Gerber Fmt 4.6, Leading zero omitted, Abs format (unit mm)*
G04 Created by KiCad (PCBNEW (5.99.0-2309-gaf729d578)) date 2020-08-23 01:34:44*
%MOMM*%
%LPD*%
G01*
G04 APERTURE LIST*
%ADD10C,0.187500*%
G04 APERTURE END LIST*
D10*
X32678571Y-15235535D02*
X32678571Y-15878392D01*
X32714285Y-15949821D01*
X32785714Y-15985535D01*
X32821428Y-15985535D01*
X32678571Y-14985535D02*
X32714285Y-15021250D01*
X32678571Y-15056964D01*
X32642857Y-15021250D01*
X32678571Y-14985535D01*
X32678571Y-15056964D01*
X32035714Y-15699821D02*
X32107142Y-15735535D01*
X32250000Y-15735535D01*
X32321428Y-15699821D01*
X32357142Y-15628392D01*
X32357142Y-15342678D01*
X32321428Y-15271250D01*
X32250000Y-15235535D01*
X32107142Y-15235535D01*
X32035714Y-15271250D01*
X32000000Y-15342678D01*
X32000000Y-15414107D01*
X32357142Y-15485535D01*
X31785714Y-15235535D02*
X31500000Y-15235535D01*
X31678571Y-15735535D02*
X31678571Y-15092678D01*
X31642857Y-15021250D01*
X31571428Y-14985535D01*
X31500000Y-14985535D01*
X31357142Y-15235535D02*
X31071428Y-15235535D01*
X31250000Y-15735535D02*
X31250000Y-15092678D01*
X31214285Y-15021250D01*
X31142857Y-14985535D01*
X31071428Y-14985535D01*
X29928571Y-15699821D02*
X30000000Y-15735535D01*
X30142857Y-15735535D01*
X30214285Y-15699821D01*
X30250000Y-15664107D01*
X30285714Y-15592678D01*
X30285714Y-15378392D01*
X30250000Y-15306964D01*
X30214285Y-15271250D01*
X30142857Y-15235535D01*
X30000000Y-15235535D01*
X29928571Y-15271250D01*
X29500000Y-15735535D02*
X29571428Y-15699821D01*
X29607142Y-15664107D01*
X29642857Y-15592678D01*
X29642857Y-15378392D01*
X29607142Y-15306964D01*
X29571428Y-15271250D01*
X29500000Y-15235535D01*
X29392857Y-15235535D01*
X29321428Y-15271250D01*
X29285714Y-15306964D01*
X29250000Y-15378392D01*
X29250000Y-15592678D01*
X29285714Y-15664107D01*
X29321428Y-15699821D01*
X29392857Y-15735535D01*
X29500000Y-15735535D01*
X28821428Y-15735535D02*
X28892857Y-15699821D01*
X28928571Y-15664107D01*
X28964285Y-15592678D01*
X28964285Y-15378392D01*
X28928571Y-15306964D01*
X28892857Y-15271250D01*
X28821428Y-15235535D01*
X28714285Y-15235535D01*
X28642857Y-15271250D01*
X28607142Y-15306964D01*
X28571428Y-15378392D01*
X28571428Y-15592678D01*
X28607142Y-15664107D01*
X28642857Y-15699821D01*
X28714285Y-15735535D01*
X28821428Y-15735535D01*
X28250000Y-15235535D02*
X28250000Y-15985535D01*
X28250000Y-15271250D02*
X28178571Y-15235535D01*
X28035714Y-15235535D01*
X27964285Y-15271250D01*
X27928571Y-15306964D01*
X27892857Y-15378392D01*
X27892857Y-15592678D01*
X27928571Y-15664107D01*
X27964285Y-15699821D01*
X28035714Y-15735535D01*
X28178571Y-15735535D01*
X28250000Y-15699821D01*
X27285714Y-15699821D02*
X27357142Y-15735535D01*
X27500000Y-15735535D01*
X27571428Y-15699821D01*
X27607142Y-15628392D01*
X27607142Y-15342678D01*
X27571428Y-15271250D01*
X27500000Y-15235535D01*
X27357142Y-15235535D01*
X27285714Y-15271250D01*
X27250000Y-15342678D01*
X27250000Y-15414107D01*
X27607142Y-15485535D01*
X26928571Y-15735535D02*
X26928571Y-15235535D01*
X26928571Y-15378392D02*
X26892857Y-15306964D01*
X26857142Y-15271250D01*
X26785714Y-15235535D01*
X26714285Y-15235535D01*
X33553571Y-16443035D02*
X33553571Y-17193035D01*
X33553571Y-16478750D02*
X33482142Y-16443035D01*
X33339285Y-16443035D01*
X33267857Y-16478750D01*
X33232142Y-16514464D01*
X33196428Y-16585892D01*
X33196428Y-16800178D01*
X33232142Y-16871607D01*
X33267857Y-16907321D01*
X33339285Y-16943035D01*
X33482142Y-16943035D01*
X33553571Y-16907321D01*
X32875000Y-16943035D02*
X32875000Y-16443035D01*
X32875000Y-16193035D02*
X32910714Y-16228750D01*
X32875000Y-16264464D01*
X32839285Y-16228750D01*
X32875000Y-16193035D01*
X32875000Y-16264464D01*
X32625000Y-16443035D02*
X32339285Y-16443035D01*
X32517857Y-16193035D02*
X32517857Y-16835892D01*
X32482142Y-16907321D01*
X32410714Y-16943035D01*
X32339285Y-16943035D01*
X32196428Y-16443035D02*
X31910714Y-16443035D01*
X32089285Y-16193035D02*
X32089285Y-16835892D01*
X32053571Y-16907321D01*
X31982142Y-16943035D01*
X31910714Y-16943035D01*
X31696428Y-16907321D02*
X31625000Y-16943035D01*
X31482142Y-16943035D01*
X31410714Y-16907321D01*
X31375000Y-16835892D01*
X31375000Y-16800178D01*
X31410714Y-16728750D01*
X31482142Y-16693035D01*
X31589285Y-16693035D01*
X31660714Y-16657321D01*
X31696428Y-16585892D01*
X31696428Y-16550178D01*
X31660714Y-16478750D01*
X31589285Y-16443035D01*
X31482142Y-16443035D01*
X31410714Y-16478750D01*
X31053571Y-16943035D02*
X31053571Y-16193035D01*
X31053571Y-16478750D02*
X30982142Y-16443035D01*
X30839285Y-16443035D01*
X30767857Y-16478750D01*
X30732142Y-16514464D01*
X30696428Y-16585892D01*
X30696428Y-16800178D01*
X30732142Y-16871607D01*
X30767857Y-16907321D01*
X30839285Y-16943035D01*
X30982142Y-16943035D01*
X31053571Y-16907321D01*
X30053571Y-16443035D02*
X30053571Y-16943035D01*
X30375000Y-16443035D02*
X30375000Y-16835892D01*
X30339285Y-16907321D01*
X30267857Y-16943035D01*
X30160714Y-16943035D01*
X30089285Y-16907321D01*
X30053571Y-16871607D01*
X29696428Y-16943035D02*
X29696428Y-16443035D01*
X29696428Y-16585892D02*
X29660714Y-16514464D01*
X29625000Y-16478750D01*
X29553571Y-16443035D01*
X29482142Y-16443035D01*
X28910714Y-16443035D02*
X28910714Y-17050178D01*
X28946428Y-17121607D01*
X28982142Y-17157321D01*
X29053571Y-17193035D01*
X29160714Y-17193035D01*
X29232142Y-17157321D01*
X28910714Y-16907321D02*
X28982142Y-16943035D01*
X29125000Y-16943035D01*
X29196428Y-16907321D01*
X29232142Y-16871607D01*
X29267857Y-16800178D01*
X29267857Y-16585892D01*
X29232142Y-16514464D01*
X29196428Y-16478750D01*
X29125000Y-16443035D01*
X28982142Y-16443035D01*
X28910714Y-16478750D01*
X28553571Y-16943035D02*
X28553571Y-16193035D01*
X28232142Y-16943035D02*
X28232142Y-16550178D01*
X28267857Y-16478750D01*
X28339285Y-16443035D01*
X28446428Y-16443035D01*
X28517857Y-16478750D01*
X28553571Y-16514464D01*
X27839285Y-16907321D02*
X27839285Y-16943035D01*
X27875000Y-17014464D01*
X27910714Y-17050178D01*
X26946428Y-16443035D02*
X26946428Y-17193035D01*
X26946428Y-16478750D02*
X26875000Y-16443035D01*
X26732142Y-16443035D01*
X26660714Y-16478750D01*
X26625000Y-16514464D01*
X26589285Y-16585892D01*
X26589285Y-16800178D01*
X26625000Y-16871607D01*
X26660714Y-16907321D01*
X26732142Y-16943035D01*
X26875000Y-16943035D01*
X26946428Y-16907321D01*
X25946428Y-16943035D02*
X25946428Y-16550178D01*
X25982142Y-16478750D01*
X26053571Y-16443035D01*
X26196428Y-16443035D01*
X26267857Y-16478750D01*
X25946428Y-16907321D02*
X26017857Y-16943035D01*
X26196428Y-16943035D01*
X26267857Y-16907321D01*
X26303571Y-16835892D01*
X26303571Y-16764464D01*
X26267857Y-16693035D01*
X26196428Y-16657321D01*
X26017857Y-16657321D01*
X25946428Y-16621607D01*
M02*
