%TF.GenerationSoftware,KiCad,Pcbnew,(5.99.0-2309-gaf729d578)*%
%TF.CreationDate,2020-08-23T01:34:44-04:00*%
%TF.ProjectId,usbpower,75736270-6f77-4657-922e-6b696361645f,rev?*%
%TF.SameCoordinates,Original*%
%TF.FileFunction,Legend,Top*%
%TF.FilePolarity,Positive*%
%FSLAX46Y46*%
G04 Gerber Fmt 4.6, Leading zero omitted, Abs format (unit mm)*
G04 Created by KiCad (PCBNEW (5.99.0-2309-gaf729d578)) date 2020-08-23 01:34:44*
%MOMM*%
%LPD*%
G01*
G04 APERTURE LIST*
%ADD10C,0.187500*%
%ADD11C,0.120000*%
G04 APERTURE END LIST*
D10*
X28485535Y-24642857D02*
X29092678Y-24642857D01*
X29164107Y-24607142D01*
X29199821Y-24571428D01*
X29235535Y-24500000D01*
X29235535Y-24357142D01*
X29199821Y-24285714D01*
X29164107Y-24250000D01*
X29092678Y-24214285D01*
X28485535Y-24214285D01*
X29199821Y-23892857D02*
X29235535Y-23785714D01*
X29235535Y-23607142D01*
X29199821Y-23535714D01*
X29164107Y-23500000D01*
X29092678Y-23464285D01*
X29021250Y-23464285D01*
X28949821Y-23500000D01*
X28914107Y-23535714D01*
X28878392Y-23607142D01*
X28842678Y-23750000D01*
X28806964Y-23821428D01*
X28771250Y-23857142D01*
X28699821Y-23892857D01*
X28628392Y-23892857D01*
X28556964Y-23857142D01*
X28521250Y-23821428D01*
X28485535Y-23750000D01*
X28485535Y-23571428D01*
X28521250Y-23464285D01*
X28842678Y-22892857D02*
X28878392Y-22785714D01*
X28914107Y-22750000D01*
X28985535Y-22714285D01*
X29092678Y-22714285D01*
X29164107Y-22750000D01*
X29199821Y-22785714D01*
X29235535Y-22857142D01*
X29235535Y-23142857D01*
X28485535Y-23142857D01*
X28485535Y-22892857D01*
X28521250Y-22821428D01*
X28556964Y-22785714D01*
X28628392Y-22750000D01*
X28699821Y-22750000D01*
X28771250Y-22785714D01*
X28806964Y-22821428D01*
X28842678Y-22892857D01*
X28842678Y-23142857D01*
X29235535Y-21821428D02*
X28485535Y-21821428D01*
X28485535Y-21535714D01*
X28521250Y-21464285D01*
X28556964Y-21428571D01*
X28628392Y-21392857D01*
X28735535Y-21392857D01*
X28806964Y-21428571D01*
X28842678Y-21464285D01*
X28878392Y-21535714D01*
X28878392Y-21821428D01*
X29235535Y-20964285D02*
X29199821Y-21035714D01*
X29164107Y-21071428D01*
X29092678Y-21107142D01*
X28878392Y-21107142D01*
X28806964Y-21071428D01*
X28771250Y-21035714D01*
X28735535Y-20964285D01*
X28735535Y-20857142D01*
X28771250Y-20785714D01*
X28806964Y-20750000D01*
X28878392Y-20714285D01*
X29092678Y-20714285D01*
X29164107Y-20750000D01*
X29199821Y-20785714D01*
X29235535Y-20857142D01*
X29235535Y-20964285D01*
X28735535Y-20464285D02*
X29235535Y-20321428D01*
X28878392Y-20178571D01*
X29235535Y-20035714D01*
X28735535Y-19892857D01*
X29199821Y-19321428D02*
X29235535Y-19392857D01*
X29235535Y-19535714D01*
X29199821Y-19607142D01*
X29128392Y-19642857D01*
X28842678Y-19642857D01*
X28771250Y-19607142D01*
X28735535Y-19535714D01*
X28735535Y-19392857D01*
X28771250Y-19321428D01*
X28842678Y-19285714D01*
X28914107Y-19285714D01*
X28985535Y-19642857D01*
X29235535Y-18964285D02*
X28735535Y-18964285D01*
X28878392Y-18964285D02*
X28806964Y-18928571D01*
X28771250Y-18892857D01*
X28735535Y-18821428D01*
X28735535Y-18750000D01*
X30443035Y-24625000D02*
X29693035Y-24625000D01*
X29943035Y-24267857D02*
X30443035Y-24267857D01*
X30014464Y-24267857D02*
X29978750Y-24232142D01*
X29943035Y-24160714D01*
X29943035Y-24053571D01*
X29978750Y-23982142D01*
X30050178Y-23946428D01*
X30443035Y-23946428D01*
X29943035Y-23696428D02*
X29943035Y-23410714D01*
X29693035Y-23589285D02*
X30335892Y-23589285D01*
X30407321Y-23553571D01*
X30443035Y-23482142D01*
X30443035Y-23410714D01*
X30407321Y-22875000D02*
X30443035Y-22946428D01*
X30443035Y-23089285D01*
X30407321Y-23160714D01*
X30335892Y-23196428D01*
X30050178Y-23196428D01*
X29978750Y-23160714D01*
X29943035Y-23089285D01*
X29943035Y-22946428D01*
X29978750Y-22875000D01*
X30050178Y-22839285D01*
X30121607Y-22839285D01*
X30193035Y-23196428D01*
X30443035Y-22517857D02*
X29943035Y-22517857D01*
X30085892Y-22517857D02*
X30014464Y-22482142D01*
X29978750Y-22446428D01*
X29943035Y-22375000D01*
X29943035Y-22303571D01*
X30407321Y-21732142D02*
X30443035Y-21803571D01*
X30443035Y-21946428D01*
X30407321Y-22017857D01*
X30371607Y-22053571D01*
X30300178Y-22089285D01*
X30085892Y-22089285D01*
X30014464Y-22053571D01*
X29978750Y-22017857D01*
X29943035Y-21946428D01*
X29943035Y-21803571D01*
X29978750Y-21732142D01*
X30407321Y-21125000D02*
X30443035Y-21196428D01*
X30443035Y-21339285D01*
X30407321Y-21410714D01*
X30335892Y-21446428D01*
X30050178Y-21446428D01*
X29978750Y-21410714D01*
X29943035Y-21339285D01*
X29943035Y-21196428D01*
X29978750Y-21125000D01*
X30050178Y-21089285D01*
X30121607Y-21089285D01*
X30193035Y-21446428D01*
X29943035Y-20767857D02*
X30693035Y-20767857D01*
X29978750Y-20767857D02*
X29943035Y-20696428D01*
X29943035Y-20553571D01*
X29978750Y-20482142D01*
X30014464Y-20446428D01*
X30085892Y-20410714D01*
X30300178Y-20410714D01*
X30371607Y-20446428D01*
X30407321Y-20482142D01*
X30443035Y-20553571D01*
X30443035Y-20696428D01*
X30407321Y-20767857D01*
X29943035Y-20196428D02*
X29943035Y-19910714D01*
X29693035Y-20089285D02*
X30335892Y-20089285D01*
X30407321Y-20053571D01*
X30443035Y-19982142D01*
X30443035Y-19910714D01*
X30443035Y-19553571D02*
X30407321Y-19625000D01*
X30371607Y-19660714D01*
X30300178Y-19696428D01*
X30085892Y-19696428D01*
X30014464Y-19660714D01*
X29978750Y-19625000D01*
X29943035Y-19553571D01*
X29943035Y-19446428D01*
X29978750Y-19375000D01*
X30014464Y-19339285D01*
X30085892Y-19303571D01*
X30300178Y-19303571D01*
X30371607Y-19339285D01*
X30407321Y-19375000D01*
X30443035Y-19446428D01*
X30443035Y-19553571D01*
X30443035Y-18982142D02*
X29943035Y-18982142D01*
X30085892Y-18982142D02*
X30014464Y-18946428D01*
X29978750Y-18910714D01*
X29943035Y-18839285D01*
X29943035Y-18767857D01*
D11*
%TO.C,TP2*%
X28750000Y-15000000D02*
G75*
G03*
X28750000Y-15000000I-2250000J0D01*
G01*
%TO.C,TP1*%
X35250000Y-15000000D02*
G75*
G03*
X35250000Y-15000000I-2250000J0D01*
G01*
%TO.C,P2*%
X23670000Y-18530000D02*
X21870000Y-18530000D01*
X18160000Y-18530000D02*
X19620000Y-18530000D01*
X18160000Y-27470000D02*
X19620000Y-27470000D01*
X23670000Y-27470000D02*
X21870000Y-27470000D01*
X18160000Y-27470000D02*
X18160000Y-18530000D01*
%TO.C,P1*%
X35830000Y-27470000D02*
X37630000Y-27470000D01*
X41340000Y-27470000D02*
X39880000Y-27470000D01*
X41340000Y-18530000D02*
X39880000Y-18530000D01*
X35830000Y-18530000D02*
X37630000Y-18530000D01*
X41340000Y-18530000D02*
X41340000Y-27470000D01*
%TD*%
M02*
