G04 #@! TF.GenerationSoftware,KiCad,Pcbnew,(5.0.0-rc2-200-g1f6f76beb)*
G04 #@! TF.CreationDate,2020-02-24T22:29:59-05:00*
G04 #@! TF.ProjectId,watch-power,77617463682D706F7765722E6B696361,rev?*
G04 #@! TF.SameCoordinates,Original*
G04 #@! TF.FileFunction,Copper,L2,Bot,Signal*
G04 #@! TF.FilePolarity,Positive*
%FSLAX46Y46*%
G04 Gerber Fmt 4.6, Leading zero omitted, Abs format (unit mm)*
G04 Created by KiCad (PCBNEW (5.0.0-rc2-200-g1f6f76beb)) date Mon Feb 24 22:29:59 2020*
%MOMM*%
%LPD*%
G01*
G04 APERTURE LIST*
G04 #@! TA.AperFunction,Conductor*
%ADD10C,0.100000*%
G04 #@! TD*
G04 #@! TA.AperFunction,SMDPad,CuDef*
%ADD11C,0.950000*%
G04 #@! TD*
G04 #@! TA.AperFunction,SMDPad,CuDef*
%ADD12R,0.900000X0.800000*%
G04 #@! TD*
G04 #@! TA.AperFunction,SMDPad,CuDef*
%ADD13C,0.600000*%
G04 #@! TD*
G04 #@! TA.AperFunction,SMDPad,CuDef*
%ADD14C,1.200000*%
G04 #@! TD*
G04 #@! TA.AperFunction,BGAPad,CuDef*
%ADD15C,1.000000*%
G04 #@! TD*
G04 #@! TA.AperFunction,SMDPad,CuDef*
%ADD16R,0.600000X0.240000*%
G04 #@! TD*
G04 #@! TA.AperFunction,SMDPad,CuDef*
%ADD17C,1.650000*%
G04 #@! TD*
G04 #@! TA.AperFunction,ViaPad*
%ADD18C,0.500000*%
G04 #@! TD*
G04 #@! TA.AperFunction,SMDPad,CuDef*
%ADD19R,0.400000X0.900000*%
G04 #@! TD*
G04 #@! TA.AperFunction,SMDPad,CuDef*
%ADD20C,1.000000*%
G04 #@! TD*
G04 #@! TA.AperFunction,SMDPad,CuDef*
%ADD21C,1.500000*%
G04 #@! TD*
G04 #@! TA.AperFunction,ViaPad*
%ADD22C,0.800000*%
G04 #@! TD*
G04 #@! TA.AperFunction,Conductor*
%ADD23C,0.150000*%
G04 #@! TD*
G04 #@! TA.AperFunction,Conductor*
%ADD24C,0.254000*%
G04 #@! TD*
G04 APERTURE END LIST*
D10*
G04 #@! TO.N,+3V3*
G04 #@! TO.C,C3*
G36*
X84181579Y-72322544D02*
X84204634Y-72325963D01*
X84227243Y-72331627D01*
X84249187Y-72339479D01*
X84270257Y-72349444D01*
X84290248Y-72361426D01*
X84308968Y-72375310D01*
X84326238Y-72390962D01*
X84341890Y-72408232D01*
X84355774Y-72426952D01*
X84367756Y-72446943D01*
X84377721Y-72468013D01*
X84385573Y-72489957D01*
X84391237Y-72512566D01*
X84394656Y-72535621D01*
X84395800Y-72558900D01*
X84395800Y-73033900D01*
X84394656Y-73057179D01*
X84391237Y-73080234D01*
X84385573Y-73102843D01*
X84377721Y-73124787D01*
X84367756Y-73145857D01*
X84355774Y-73165848D01*
X84341890Y-73184568D01*
X84326238Y-73201838D01*
X84308968Y-73217490D01*
X84290248Y-73231374D01*
X84270257Y-73243356D01*
X84249187Y-73253321D01*
X84227243Y-73261173D01*
X84204634Y-73266837D01*
X84181579Y-73270256D01*
X84158300Y-73271400D01*
X83583300Y-73271400D01*
X83560021Y-73270256D01*
X83536966Y-73266837D01*
X83514357Y-73261173D01*
X83492413Y-73253321D01*
X83471343Y-73243356D01*
X83451352Y-73231374D01*
X83432632Y-73217490D01*
X83415362Y-73201838D01*
X83399710Y-73184568D01*
X83385826Y-73165848D01*
X83373844Y-73145857D01*
X83363879Y-73124787D01*
X83356027Y-73102843D01*
X83350363Y-73080234D01*
X83346944Y-73057179D01*
X83345800Y-73033900D01*
X83345800Y-72558900D01*
X83346944Y-72535621D01*
X83350363Y-72512566D01*
X83356027Y-72489957D01*
X83363879Y-72468013D01*
X83373844Y-72446943D01*
X83385826Y-72426952D01*
X83399710Y-72408232D01*
X83415362Y-72390962D01*
X83432632Y-72375310D01*
X83451352Y-72361426D01*
X83471343Y-72349444D01*
X83492413Y-72339479D01*
X83514357Y-72331627D01*
X83536966Y-72325963D01*
X83560021Y-72322544D01*
X83583300Y-72321400D01*
X84158300Y-72321400D01*
X84181579Y-72322544D01*
X84181579Y-72322544D01*
G37*
D11*
G04 #@! TD*
G04 #@! TO.P,C3,1*
G04 #@! TO.N,+3V3*
X83870800Y-72796400D03*
D10*
G04 #@! TO.N,GND*
G04 #@! TO.C,C3*
G36*
X85931579Y-72322544D02*
X85954634Y-72325963D01*
X85977243Y-72331627D01*
X85999187Y-72339479D01*
X86020257Y-72349444D01*
X86040248Y-72361426D01*
X86058968Y-72375310D01*
X86076238Y-72390962D01*
X86091890Y-72408232D01*
X86105774Y-72426952D01*
X86117756Y-72446943D01*
X86127721Y-72468013D01*
X86135573Y-72489957D01*
X86141237Y-72512566D01*
X86144656Y-72535621D01*
X86145800Y-72558900D01*
X86145800Y-73033900D01*
X86144656Y-73057179D01*
X86141237Y-73080234D01*
X86135573Y-73102843D01*
X86127721Y-73124787D01*
X86117756Y-73145857D01*
X86105774Y-73165848D01*
X86091890Y-73184568D01*
X86076238Y-73201838D01*
X86058968Y-73217490D01*
X86040248Y-73231374D01*
X86020257Y-73243356D01*
X85999187Y-73253321D01*
X85977243Y-73261173D01*
X85954634Y-73266837D01*
X85931579Y-73270256D01*
X85908300Y-73271400D01*
X85333300Y-73271400D01*
X85310021Y-73270256D01*
X85286966Y-73266837D01*
X85264357Y-73261173D01*
X85242413Y-73253321D01*
X85221343Y-73243356D01*
X85201352Y-73231374D01*
X85182632Y-73217490D01*
X85165362Y-73201838D01*
X85149710Y-73184568D01*
X85135826Y-73165848D01*
X85123844Y-73145857D01*
X85113879Y-73124787D01*
X85106027Y-73102843D01*
X85100363Y-73080234D01*
X85096944Y-73057179D01*
X85095800Y-73033900D01*
X85095800Y-72558900D01*
X85096944Y-72535621D01*
X85100363Y-72512566D01*
X85106027Y-72489957D01*
X85113879Y-72468013D01*
X85123844Y-72446943D01*
X85135826Y-72426952D01*
X85149710Y-72408232D01*
X85165362Y-72390962D01*
X85182632Y-72375310D01*
X85201352Y-72361426D01*
X85221343Y-72349444D01*
X85242413Y-72339479D01*
X85264357Y-72331627D01*
X85286966Y-72325963D01*
X85310021Y-72322544D01*
X85333300Y-72321400D01*
X85908300Y-72321400D01*
X85931579Y-72322544D01*
X85931579Y-72322544D01*
G37*
D11*
G04 #@! TD*
G04 #@! TO.P,C3,2*
G04 #@! TO.N,GND*
X85620800Y-72796400D03*
D12*
G04 #@! TO.P,D1,1*
G04 #@! TO.N,VBUS*
X78772000Y-78826400D03*
G04 #@! TO.P,D1,2*
G04 #@! TO.N,BATTPOW*
X78772000Y-76926400D03*
G04 #@! TO.P,D1,3*
G04 #@! TO.N,VIN*
X80772000Y-77876400D03*
G04 #@! TD*
D10*
G04 #@! TO.N,GND*
G04 #@! TO.C,J1*
G36*
X76807703Y-78924722D02*
X76822264Y-78926882D01*
X76836543Y-78930459D01*
X76850403Y-78935418D01*
X76863710Y-78941712D01*
X76876336Y-78949280D01*
X76888159Y-78958048D01*
X76899066Y-78967934D01*
X76908952Y-78978841D01*
X76917720Y-78990664D01*
X76925288Y-79003290D01*
X76931582Y-79016597D01*
X76936541Y-79030457D01*
X76940118Y-79044736D01*
X76942278Y-79059297D01*
X76943000Y-79074000D01*
X76943000Y-79374000D01*
X76942278Y-79388703D01*
X76940118Y-79403264D01*
X76936541Y-79417543D01*
X76931582Y-79431403D01*
X76925288Y-79444710D01*
X76917720Y-79457336D01*
X76908952Y-79469159D01*
X76899066Y-79480066D01*
X76888159Y-79489952D01*
X76876336Y-79498720D01*
X76863710Y-79506288D01*
X76850403Y-79512582D01*
X76836543Y-79517541D01*
X76822264Y-79521118D01*
X76807703Y-79523278D01*
X76793000Y-79524000D01*
X75543000Y-79524000D01*
X75528297Y-79523278D01*
X75513736Y-79521118D01*
X75499457Y-79517541D01*
X75485597Y-79512582D01*
X75472290Y-79506288D01*
X75459664Y-79498720D01*
X75447841Y-79489952D01*
X75436934Y-79480066D01*
X75427048Y-79469159D01*
X75418280Y-79457336D01*
X75410712Y-79444710D01*
X75404418Y-79431403D01*
X75399459Y-79417543D01*
X75395882Y-79403264D01*
X75393722Y-79388703D01*
X75393000Y-79374000D01*
X75393000Y-79074000D01*
X75393722Y-79059297D01*
X75395882Y-79044736D01*
X75399459Y-79030457D01*
X75404418Y-79016597D01*
X75410712Y-79003290D01*
X75418280Y-78990664D01*
X75427048Y-78978841D01*
X75436934Y-78967934D01*
X75447841Y-78958048D01*
X75459664Y-78949280D01*
X75472290Y-78941712D01*
X75485597Y-78935418D01*
X75499457Y-78930459D01*
X75513736Y-78926882D01*
X75528297Y-78924722D01*
X75543000Y-78924000D01*
X76793000Y-78924000D01*
X76807703Y-78924722D01*
X76807703Y-78924722D01*
G37*
D13*
G04 #@! TD*
G04 #@! TO.P,J1,1*
G04 #@! TO.N,GND*
X76168000Y-79224000D03*
D10*
G04 #@! TO.N,USB_DP*
G04 #@! TO.C,J1*
G36*
X76807703Y-77924722D02*
X76822264Y-77926882D01*
X76836543Y-77930459D01*
X76850403Y-77935418D01*
X76863710Y-77941712D01*
X76876336Y-77949280D01*
X76888159Y-77958048D01*
X76899066Y-77967934D01*
X76908952Y-77978841D01*
X76917720Y-77990664D01*
X76925288Y-78003290D01*
X76931582Y-78016597D01*
X76936541Y-78030457D01*
X76940118Y-78044736D01*
X76942278Y-78059297D01*
X76943000Y-78074000D01*
X76943000Y-78374000D01*
X76942278Y-78388703D01*
X76940118Y-78403264D01*
X76936541Y-78417543D01*
X76931582Y-78431403D01*
X76925288Y-78444710D01*
X76917720Y-78457336D01*
X76908952Y-78469159D01*
X76899066Y-78480066D01*
X76888159Y-78489952D01*
X76876336Y-78498720D01*
X76863710Y-78506288D01*
X76850403Y-78512582D01*
X76836543Y-78517541D01*
X76822264Y-78521118D01*
X76807703Y-78523278D01*
X76793000Y-78524000D01*
X75543000Y-78524000D01*
X75528297Y-78523278D01*
X75513736Y-78521118D01*
X75499457Y-78517541D01*
X75485597Y-78512582D01*
X75472290Y-78506288D01*
X75459664Y-78498720D01*
X75447841Y-78489952D01*
X75436934Y-78480066D01*
X75427048Y-78469159D01*
X75418280Y-78457336D01*
X75410712Y-78444710D01*
X75404418Y-78431403D01*
X75399459Y-78417543D01*
X75395882Y-78403264D01*
X75393722Y-78388703D01*
X75393000Y-78374000D01*
X75393000Y-78074000D01*
X75393722Y-78059297D01*
X75395882Y-78044736D01*
X75399459Y-78030457D01*
X75404418Y-78016597D01*
X75410712Y-78003290D01*
X75418280Y-77990664D01*
X75427048Y-77978841D01*
X75436934Y-77967934D01*
X75447841Y-77958048D01*
X75459664Y-77949280D01*
X75472290Y-77941712D01*
X75485597Y-77935418D01*
X75499457Y-77930459D01*
X75513736Y-77926882D01*
X75528297Y-77924722D01*
X75543000Y-77924000D01*
X76793000Y-77924000D01*
X76807703Y-77924722D01*
X76807703Y-77924722D01*
G37*
D13*
G04 #@! TD*
G04 #@! TO.P,J1,2*
G04 #@! TO.N,USB_DP*
X76168000Y-78224000D03*
D10*
G04 #@! TO.N,USB_DN*
G04 #@! TO.C,J1*
G36*
X76807703Y-76924722D02*
X76822264Y-76926882D01*
X76836543Y-76930459D01*
X76850403Y-76935418D01*
X76863710Y-76941712D01*
X76876336Y-76949280D01*
X76888159Y-76958048D01*
X76899066Y-76967934D01*
X76908952Y-76978841D01*
X76917720Y-76990664D01*
X76925288Y-77003290D01*
X76931582Y-77016597D01*
X76936541Y-77030457D01*
X76940118Y-77044736D01*
X76942278Y-77059297D01*
X76943000Y-77074000D01*
X76943000Y-77374000D01*
X76942278Y-77388703D01*
X76940118Y-77403264D01*
X76936541Y-77417543D01*
X76931582Y-77431403D01*
X76925288Y-77444710D01*
X76917720Y-77457336D01*
X76908952Y-77469159D01*
X76899066Y-77480066D01*
X76888159Y-77489952D01*
X76876336Y-77498720D01*
X76863710Y-77506288D01*
X76850403Y-77512582D01*
X76836543Y-77517541D01*
X76822264Y-77521118D01*
X76807703Y-77523278D01*
X76793000Y-77524000D01*
X75543000Y-77524000D01*
X75528297Y-77523278D01*
X75513736Y-77521118D01*
X75499457Y-77517541D01*
X75485597Y-77512582D01*
X75472290Y-77506288D01*
X75459664Y-77498720D01*
X75447841Y-77489952D01*
X75436934Y-77480066D01*
X75427048Y-77469159D01*
X75418280Y-77457336D01*
X75410712Y-77444710D01*
X75404418Y-77431403D01*
X75399459Y-77417543D01*
X75395882Y-77403264D01*
X75393722Y-77388703D01*
X75393000Y-77374000D01*
X75393000Y-77074000D01*
X75393722Y-77059297D01*
X75395882Y-77044736D01*
X75399459Y-77030457D01*
X75404418Y-77016597D01*
X75410712Y-77003290D01*
X75418280Y-76990664D01*
X75427048Y-76978841D01*
X75436934Y-76967934D01*
X75447841Y-76958048D01*
X75459664Y-76949280D01*
X75472290Y-76941712D01*
X75485597Y-76935418D01*
X75499457Y-76930459D01*
X75513736Y-76926882D01*
X75528297Y-76924722D01*
X75543000Y-76924000D01*
X76793000Y-76924000D01*
X76807703Y-76924722D01*
X76807703Y-76924722D01*
G37*
D13*
G04 #@! TD*
G04 #@! TO.P,J1,3*
G04 #@! TO.N,USB_DN*
X76168000Y-77224000D03*
D10*
G04 #@! TO.N,VBUS*
G04 #@! TO.C,J1*
G36*
X76807703Y-75924722D02*
X76822264Y-75926882D01*
X76836543Y-75930459D01*
X76850403Y-75935418D01*
X76863710Y-75941712D01*
X76876336Y-75949280D01*
X76888159Y-75958048D01*
X76899066Y-75967934D01*
X76908952Y-75978841D01*
X76917720Y-75990664D01*
X76925288Y-76003290D01*
X76931582Y-76016597D01*
X76936541Y-76030457D01*
X76940118Y-76044736D01*
X76942278Y-76059297D01*
X76943000Y-76074000D01*
X76943000Y-76374000D01*
X76942278Y-76388703D01*
X76940118Y-76403264D01*
X76936541Y-76417543D01*
X76931582Y-76431403D01*
X76925288Y-76444710D01*
X76917720Y-76457336D01*
X76908952Y-76469159D01*
X76899066Y-76480066D01*
X76888159Y-76489952D01*
X76876336Y-76498720D01*
X76863710Y-76506288D01*
X76850403Y-76512582D01*
X76836543Y-76517541D01*
X76822264Y-76521118D01*
X76807703Y-76523278D01*
X76793000Y-76524000D01*
X75543000Y-76524000D01*
X75528297Y-76523278D01*
X75513736Y-76521118D01*
X75499457Y-76517541D01*
X75485597Y-76512582D01*
X75472290Y-76506288D01*
X75459664Y-76498720D01*
X75447841Y-76489952D01*
X75436934Y-76480066D01*
X75427048Y-76469159D01*
X75418280Y-76457336D01*
X75410712Y-76444710D01*
X75404418Y-76431403D01*
X75399459Y-76417543D01*
X75395882Y-76403264D01*
X75393722Y-76388703D01*
X75393000Y-76374000D01*
X75393000Y-76074000D01*
X75393722Y-76059297D01*
X75395882Y-76044736D01*
X75399459Y-76030457D01*
X75404418Y-76016597D01*
X75410712Y-76003290D01*
X75418280Y-75990664D01*
X75427048Y-75978841D01*
X75436934Y-75967934D01*
X75447841Y-75958048D01*
X75459664Y-75949280D01*
X75472290Y-75941712D01*
X75485597Y-75935418D01*
X75499457Y-75930459D01*
X75513736Y-75926882D01*
X75528297Y-75924722D01*
X75543000Y-75924000D01*
X76793000Y-75924000D01*
X76807703Y-75924722D01*
X76807703Y-75924722D01*
G37*
D13*
G04 #@! TD*
G04 #@! TO.P,J1,4*
G04 #@! TO.N,VBUS*
X76168000Y-76224000D03*
D10*
G04 #@! TO.N,N/C*
G04 #@! TO.C,J1*
G36*
X72967505Y-79925204D02*
X72991773Y-79928804D01*
X73015572Y-79934765D01*
X73038671Y-79943030D01*
X73060850Y-79953520D01*
X73081893Y-79966132D01*
X73101599Y-79980747D01*
X73119777Y-79997223D01*
X73136253Y-80015401D01*
X73150868Y-80035107D01*
X73163480Y-80056150D01*
X73173970Y-80078329D01*
X73182235Y-80101428D01*
X73188196Y-80125227D01*
X73191796Y-80149495D01*
X73193000Y-80173999D01*
X73193000Y-80874001D01*
X73191796Y-80898505D01*
X73188196Y-80922773D01*
X73182235Y-80946572D01*
X73173970Y-80969671D01*
X73163480Y-80991850D01*
X73150868Y-81012893D01*
X73136253Y-81032599D01*
X73119777Y-81050777D01*
X73101599Y-81067253D01*
X73081893Y-81081868D01*
X73060850Y-81094480D01*
X73038671Y-81104970D01*
X73015572Y-81113235D01*
X72991773Y-81119196D01*
X72967505Y-81122796D01*
X72943001Y-81124000D01*
X71642999Y-81124000D01*
X71618495Y-81122796D01*
X71594227Y-81119196D01*
X71570428Y-81113235D01*
X71547329Y-81104970D01*
X71525150Y-81094480D01*
X71504107Y-81081868D01*
X71484401Y-81067253D01*
X71466223Y-81050777D01*
X71449747Y-81032599D01*
X71435132Y-81012893D01*
X71422520Y-80991850D01*
X71412030Y-80969671D01*
X71403765Y-80946572D01*
X71397804Y-80922773D01*
X71394204Y-80898505D01*
X71393000Y-80874001D01*
X71393000Y-80173999D01*
X71394204Y-80149495D01*
X71397804Y-80125227D01*
X71403765Y-80101428D01*
X71412030Y-80078329D01*
X71422520Y-80056150D01*
X71435132Y-80035107D01*
X71449747Y-80015401D01*
X71466223Y-79997223D01*
X71484401Y-79980747D01*
X71504107Y-79966132D01*
X71525150Y-79953520D01*
X71547329Y-79943030D01*
X71570428Y-79934765D01*
X71594227Y-79928804D01*
X71618495Y-79925204D01*
X71642999Y-79924000D01*
X72943001Y-79924000D01*
X72967505Y-79925204D01*
X72967505Y-79925204D01*
G37*
D14*
G04 #@! TD*
G04 #@! TO.P,J1,MP*
G04 #@! TO.N,N/C*
X72293000Y-80524000D03*
D10*
G04 #@! TO.N,N/C*
G04 #@! TO.C,J1*
G36*
X72967505Y-74325204D02*
X72991773Y-74328804D01*
X73015572Y-74334765D01*
X73038671Y-74343030D01*
X73060850Y-74353520D01*
X73081893Y-74366132D01*
X73101599Y-74380747D01*
X73119777Y-74397223D01*
X73136253Y-74415401D01*
X73150868Y-74435107D01*
X73163480Y-74456150D01*
X73173970Y-74478329D01*
X73182235Y-74501428D01*
X73188196Y-74525227D01*
X73191796Y-74549495D01*
X73193000Y-74573999D01*
X73193000Y-75274001D01*
X73191796Y-75298505D01*
X73188196Y-75322773D01*
X73182235Y-75346572D01*
X73173970Y-75369671D01*
X73163480Y-75391850D01*
X73150868Y-75412893D01*
X73136253Y-75432599D01*
X73119777Y-75450777D01*
X73101599Y-75467253D01*
X73081893Y-75481868D01*
X73060850Y-75494480D01*
X73038671Y-75504970D01*
X73015572Y-75513235D01*
X72991773Y-75519196D01*
X72967505Y-75522796D01*
X72943001Y-75524000D01*
X71642999Y-75524000D01*
X71618495Y-75522796D01*
X71594227Y-75519196D01*
X71570428Y-75513235D01*
X71547329Y-75504970D01*
X71525150Y-75494480D01*
X71504107Y-75481868D01*
X71484401Y-75467253D01*
X71466223Y-75450777D01*
X71449747Y-75432599D01*
X71435132Y-75412893D01*
X71422520Y-75391850D01*
X71412030Y-75369671D01*
X71403765Y-75346572D01*
X71397804Y-75322773D01*
X71394204Y-75298505D01*
X71393000Y-75274001D01*
X71393000Y-74573999D01*
X71394204Y-74549495D01*
X71397804Y-74525227D01*
X71403765Y-74501428D01*
X71412030Y-74478329D01*
X71422520Y-74456150D01*
X71435132Y-74435107D01*
X71449747Y-74415401D01*
X71466223Y-74397223D01*
X71484401Y-74380747D01*
X71504107Y-74366132D01*
X71525150Y-74353520D01*
X71547329Y-74343030D01*
X71570428Y-74334765D01*
X71594227Y-74328804D01*
X71618495Y-74325204D01*
X71642999Y-74324000D01*
X72943001Y-74324000D01*
X72967505Y-74325204D01*
X72967505Y-74325204D01*
G37*
D14*
G04 #@! TD*
G04 #@! TO.P,J1,MP*
G04 #@! TO.N,N/C*
X72293000Y-74924000D03*
D10*
G04 #@! TO.N,Net-(L1-Pad1)*
G04 #@! TO.C,L1*
G36*
X82099579Y-74812544D02*
X82122634Y-74815963D01*
X82145243Y-74821627D01*
X82167187Y-74829479D01*
X82188257Y-74839444D01*
X82208248Y-74851426D01*
X82226968Y-74865310D01*
X82244238Y-74880962D01*
X82259890Y-74898232D01*
X82273774Y-74916952D01*
X82285756Y-74936943D01*
X82295721Y-74958013D01*
X82303573Y-74979957D01*
X82309237Y-75002566D01*
X82312656Y-75025621D01*
X82313800Y-75048900D01*
X82313800Y-75623900D01*
X82312656Y-75647179D01*
X82309237Y-75670234D01*
X82303573Y-75692843D01*
X82295721Y-75714787D01*
X82285756Y-75735857D01*
X82273774Y-75755848D01*
X82259890Y-75774568D01*
X82244238Y-75791838D01*
X82226968Y-75807490D01*
X82208248Y-75821374D01*
X82188257Y-75833356D01*
X82167187Y-75843321D01*
X82145243Y-75851173D01*
X82122634Y-75856837D01*
X82099579Y-75860256D01*
X82076300Y-75861400D01*
X81601300Y-75861400D01*
X81578021Y-75860256D01*
X81554966Y-75856837D01*
X81532357Y-75851173D01*
X81510413Y-75843321D01*
X81489343Y-75833356D01*
X81469352Y-75821374D01*
X81450632Y-75807490D01*
X81433362Y-75791838D01*
X81417710Y-75774568D01*
X81403826Y-75755848D01*
X81391844Y-75735857D01*
X81381879Y-75714787D01*
X81374027Y-75692843D01*
X81368363Y-75670234D01*
X81364944Y-75647179D01*
X81363800Y-75623900D01*
X81363800Y-75048900D01*
X81364944Y-75025621D01*
X81368363Y-75002566D01*
X81374027Y-74979957D01*
X81381879Y-74958013D01*
X81391844Y-74936943D01*
X81403826Y-74916952D01*
X81417710Y-74898232D01*
X81433362Y-74880962D01*
X81450632Y-74865310D01*
X81469352Y-74851426D01*
X81489343Y-74839444D01*
X81510413Y-74829479D01*
X81532357Y-74821627D01*
X81554966Y-74815963D01*
X81578021Y-74812544D01*
X81601300Y-74811400D01*
X82076300Y-74811400D01*
X82099579Y-74812544D01*
X82099579Y-74812544D01*
G37*
D11*
G04 #@! TD*
G04 #@! TO.P,L1,1*
G04 #@! TO.N,Net-(L1-Pad1)*
X81838800Y-75336400D03*
D10*
G04 #@! TO.N,Net-(L1-Pad2)*
G04 #@! TO.C,L1*
G36*
X82099579Y-76562544D02*
X82122634Y-76565963D01*
X82145243Y-76571627D01*
X82167187Y-76579479D01*
X82188257Y-76589444D01*
X82208248Y-76601426D01*
X82226968Y-76615310D01*
X82244238Y-76630962D01*
X82259890Y-76648232D01*
X82273774Y-76666952D01*
X82285756Y-76686943D01*
X82295721Y-76708013D01*
X82303573Y-76729957D01*
X82309237Y-76752566D01*
X82312656Y-76775621D01*
X82313800Y-76798900D01*
X82313800Y-77373900D01*
X82312656Y-77397179D01*
X82309237Y-77420234D01*
X82303573Y-77442843D01*
X82295721Y-77464787D01*
X82285756Y-77485857D01*
X82273774Y-77505848D01*
X82259890Y-77524568D01*
X82244238Y-77541838D01*
X82226968Y-77557490D01*
X82208248Y-77571374D01*
X82188257Y-77583356D01*
X82167187Y-77593321D01*
X82145243Y-77601173D01*
X82122634Y-77606837D01*
X82099579Y-77610256D01*
X82076300Y-77611400D01*
X81601300Y-77611400D01*
X81578021Y-77610256D01*
X81554966Y-77606837D01*
X81532357Y-77601173D01*
X81510413Y-77593321D01*
X81489343Y-77583356D01*
X81469352Y-77571374D01*
X81450632Y-77557490D01*
X81433362Y-77541838D01*
X81417710Y-77524568D01*
X81403826Y-77505848D01*
X81391844Y-77485857D01*
X81381879Y-77464787D01*
X81374027Y-77442843D01*
X81368363Y-77420234D01*
X81364944Y-77397179D01*
X81363800Y-77373900D01*
X81363800Y-76798900D01*
X81364944Y-76775621D01*
X81368363Y-76752566D01*
X81374027Y-76729957D01*
X81381879Y-76708013D01*
X81391844Y-76686943D01*
X81403826Y-76666952D01*
X81417710Y-76648232D01*
X81433362Y-76630962D01*
X81450632Y-76615310D01*
X81469352Y-76601426D01*
X81489343Y-76589444D01*
X81510413Y-76579479D01*
X81532357Y-76571627D01*
X81554966Y-76565963D01*
X81578021Y-76562544D01*
X81601300Y-76561400D01*
X82076300Y-76561400D01*
X82099579Y-76562544D01*
X82099579Y-76562544D01*
G37*
D11*
G04 #@! TD*
G04 #@! TO.P,L1,2*
G04 #@! TO.N,Net-(L1-Pad2)*
X81838800Y-77086400D03*
D10*
G04 #@! TO.N,Net-(L2-Pad2)*
G04 #@! TO.C,L2*
G36*
X94798779Y-78774144D02*
X94821834Y-78777563D01*
X94844443Y-78783227D01*
X94866387Y-78791079D01*
X94887457Y-78801044D01*
X94907448Y-78813026D01*
X94926168Y-78826910D01*
X94943438Y-78842562D01*
X94959090Y-78859832D01*
X94972974Y-78878552D01*
X94984956Y-78898543D01*
X94994921Y-78919613D01*
X95002773Y-78941557D01*
X95008437Y-78964166D01*
X95011856Y-78987221D01*
X95013000Y-79010500D01*
X95013000Y-79485500D01*
X95011856Y-79508779D01*
X95008437Y-79531834D01*
X95002773Y-79554443D01*
X94994921Y-79576387D01*
X94984956Y-79597457D01*
X94972974Y-79617448D01*
X94959090Y-79636168D01*
X94943438Y-79653438D01*
X94926168Y-79669090D01*
X94907448Y-79682974D01*
X94887457Y-79694956D01*
X94866387Y-79704921D01*
X94844443Y-79712773D01*
X94821834Y-79718437D01*
X94798779Y-79721856D01*
X94775500Y-79723000D01*
X94200500Y-79723000D01*
X94177221Y-79721856D01*
X94154166Y-79718437D01*
X94131557Y-79712773D01*
X94109613Y-79704921D01*
X94088543Y-79694956D01*
X94068552Y-79682974D01*
X94049832Y-79669090D01*
X94032562Y-79653438D01*
X94016910Y-79636168D01*
X94003026Y-79617448D01*
X93991044Y-79597457D01*
X93981079Y-79576387D01*
X93973227Y-79554443D01*
X93967563Y-79531834D01*
X93964144Y-79508779D01*
X93963000Y-79485500D01*
X93963000Y-79010500D01*
X93964144Y-78987221D01*
X93967563Y-78964166D01*
X93973227Y-78941557D01*
X93981079Y-78919613D01*
X93991044Y-78898543D01*
X94003026Y-78878552D01*
X94016910Y-78859832D01*
X94032562Y-78842562D01*
X94049832Y-78826910D01*
X94068552Y-78813026D01*
X94088543Y-78801044D01*
X94109613Y-78791079D01*
X94131557Y-78783227D01*
X94154166Y-78777563D01*
X94177221Y-78774144D01*
X94200500Y-78773000D01*
X94775500Y-78773000D01*
X94798779Y-78774144D01*
X94798779Y-78774144D01*
G37*
D11*
G04 #@! TD*
G04 #@! TO.P,L2,2*
G04 #@! TO.N,Net-(L2-Pad2)*
X94488000Y-79248000D03*
D10*
G04 #@! TO.N,VIN*
G04 #@! TO.C,L2*
G36*
X93048779Y-78774144D02*
X93071834Y-78777563D01*
X93094443Y-78783227D01*
X93116387Y-78791079D01*
X93137457Y-78801044D01*
X93157448Y-78813026D01*
X93176168Y-78826910D01*
X93193438Y-78842562D01*
X93209090Y-78859832D01*
X93222974Y-78878552D01*
X93234956Y-78898543D01*
X93244921Y-78919613D01*
X93252773Y-78941557D01*
X93258437Y-78964166D01*
X93261856Y-78987221D01*
X93263000Y-79010500D01*
X93263000Y-79485500D01*
X93261856Y-79508779D01*
X93258437Y-79531834D01*
X93252773Y-79554443D01*
X93244921Y-79576387D01*
X93234956Y-79597457D01*
X93222974Y-79617448D01*
X93209090Y-79636168D01*
X93193438Y-79653438D01*
X93176168Y-79669090D01*
X93157448Y-79682974D01*
X93137457Y-79694956D01*
X93116387Y-79704921D01*
X93094443Y-79712773D01*
X93071834Y-79718437D01*
X93048779Y-79721856D01*
X93025500Y-79723000D01*
X92450500Y-79723000D01*
X92427221Y-79721856D01*
X92404166Y-79718437D01*
X92381557Y-79712773D01*
X92359613Y-79704921D01*
X92338543Y-79694956D01*
X92318552Y-79682974D01*
X92299832Y-79669090D01*
X92282562Y-79653438D01*
X92266910Y-79636168D01*
X92253026Y-79617448D01*
X92241044Y-79597457D01*
X92231079Y-79576387D01*
X92223227Y-79554443D01*
X92217563Y-79531834D01*
X92214144Y-79508779D01*
X92213000Y-79485500D01*
X92213000Y-79010500D01*
X92214144Y-78987221D01*
X92217563Y-78964166D01*
X92223227Y-78941557D01*
X92231079Y-78919613D01*
X92241044Y-78898543D01*
X92253026Y-78878552D01*
X92266910Y-78859832D01*
X92282562Y-78842562D01*
X92299832Y-78826910D01*
X92318552Y-78813026D01*
X92338543Y-78801044D01*
X92359613Y-78791079D01*
X92381557Y-78783227D01*
X92404166Y-78777563D01*
X92427221Y-78774144D01*
X92450500Y-78773000D01*
X93025500Y-78773000D01*
X93048779Y-78774144D01*
X93048779Y-78774144D01*
G37*
D11*
G04 #@! TD*
G04 #@! TO.P,L2,1*
G04 #@! TO.N,VIN*
X92738000Y-79248000D03*
D15*
G04 #@! TO.P,TP1,1*
G04 #@! TO.N,VIN*
X83667600Y-80365600D03*
G04 #@! TD*
D16*
G04 #@! TO.P,U3,1*
G04 #@! TO.N,+3V3*
X83486800Y-76844400D03*
G04 #@! TO.P,U3,2*
G04 #@! TO.N,Net-(L1-Pad2)*
X83486800Y-76344400D03*
G04 #@! TO.P,U3,3*
G04 #@! TO.N,GND*
X83486800Y-75844400D03*
G04 #@! TO.P,U3,4*
G04 #@! TO.N,Net-(L1-Pad1)*
X83486800Y-75344400D03*
G04 #@! TO.P,U3,5*
G04 #@! TO.N,VIN*
X83486800Y-74844400D03*
G04 #@! TO.P,U3,6*
G04 #@! TO.N,Net-(R3-Pad2)*
X86286800Y-74844400D03*
G04 #@! TO.P,U3,7*
X86286800Y-75344400D03*
G04 #@! TO.P,U3,8*
X86286800Y-75844400D03*
G04 #@! TO.P,U3,9*
G04 #@! TO.N,GND*
X86286800Y-76344400D03*
G04 #@! TO.P,U3,10*
G04 #@! TO.N,+3V3*
X86286800Y-76844400D03*
D17*
G04 #@! TO.P,U3,11*
G04 #@! TO.N,GND*
X84886800Y-75844400D03*
D10*
G04 #@! TD*
G04 #@! TO.N,GND*
G04 #@! TO.C,U3*
G36*
X84761800Y-74644400D02*
X85011800Y-74644400D01*
X85011800Y-74144400D01*
X85261800Y-74144400D01*
X85261800Y-74644400D01*
X85711800Y-74644400D01*
X85711800Y-77044400D01*
X85261800Y-77044400D01*
X85261800Y-77544400D01*
X85011800Y-77544400D01*
X85011800Y-77044400D01*
X84761800Y-77044400D01*
X84761800Y-77544400D01*
X84511800Y-77544400D01*
X84511800Y-77044400D01*
X84061800Y-77044400D01*
X84061800Y-74644400D01*
X84511800Y-74644400D01*
X84511800Y-74144400D01*
X84761800Y-74144400D01*
X84761800Y-74644400D01*
X84761800Y-74644400D01*
G37*
D18*
G04 #@! TO.N,GND*
G04 #@! TO.C,U3*
X84886800Y-74894400D03*
X84311800Y-75844400D03*
X85461800Y-75844400D03*
X84886800Y-76794400D03*
G04 #@! TD*
D19*
G04 #@! TO.P,U4,1*
G04 #@! TO.N,VIN*
X93330000Y-75100000D03*
G04 #@! TO.P,U4,3*
G04 #@! TO.N,GND*
X94630000Y-75100000D03*
G04 #@! TO.P,U4,5*
G04 #@! TO.N,Net-(L2-Pad2)*
X93980000Y-77300000D03*
G04 #@! TO.P,U4,2*
G04 #@! TO.N,+5V*
X93980000Y-75100000D03*
G04 #@! TO.P,U4,4*
X94630000Y-77300000D03*
G04 #@! TO.P,U4,6*
G04 #@! TO.N,VIN*
X93330000Y-77300000D03*
G04 #@! TD*
D15*
G04 #@! TO.P,TP2,1*
G04 #@! TO.N,+3V3*
X88900000Y-80264000D03*
G04 #@! TD*
G04 #@! TO.P,TP3,1*
G04 #@! TO.N,+5V*
X93980000Y-73152000D03*
G04 #@! TD*
D10*
G04 #@! TO.N,+BATT*
G04 #@! TO.C,BT1*
G36*
X75998504Y-71057204D02*
X76022773Y-71060804D01*
X76046571Y-71066765D01*
X76069671Y-71075030D01*
X76091849Y-71085520D01*
X76112893Y-71098133D01*
X76132598Y-71112747D01*
X76150777Y-71129223D01*
X76167253Y-71147402D01*
X76181867Y-71167107D01*
X76194480Y-71188151D01*
X76204970Y-71210329D01*
X76213235Y-71233429D01*
X76219196Y-71257227D01*
X76222796Y-71281496D01*
X76224000Y-71306000D01*
X76224000Y-74306000D01*
X76222796Y-74330504D01*
X76219196Y-74354773D01*
X76213235Y-74378571D01*
X76204970Y-74401671D01*
X76194480Y-74423849D01*
X76181867Y-74444893D01*
X76167253Y-74464598D01*
X76150777Y-74482777D01*
X76132598Y-74499253D01*
X76112893Y-74513867D01*
X76091849Y-74526480D01*
X76069671Y-74536970D01*
X76046571Y-74545235D01*
X76022773Y-74551196D01*
X75998504Y-74554796D01*
X75974000Y-74556000D01*
X75474000Y-74556000D01*
X75449496Y-74554796D01*
X75425227Y-74551196D01*
X75401429Y-74545235D01*
X75378329Y-74536970D01*
X75356151Y-74526480D01*
X75335107Y-74513867D01*
X75315402Y-74499253D01*
X75297223Y-74482777D01*
X75280747Y-74464598D01*
X75266133Y-74444893D01*
X75253520Y-74423849D01*
X75243030Y-74401671D01*
X75234765Y-74378571D01*
X75228804Y-74354773D01*
X75225204Y-74330504D01*
X75224000Y-74306000D01*
X75224000Y-71306000D01*
X75225204Y-71281496D01*
X75228804Y-71257227D01*
X75234765Y-71233429D01*
X75243030Y-71210329D01*
X75253520Y-71188151D01*
X75266133Y-71167107D01*
X75280747Y-71147402D01*
X75297223Y-71129223D01*
X75315402Y-71112747D01*
X75335107Y-71098133D01*
X75356151Y-71085520D01*
X75378329Y-71075030D01*
X75401429Y-71066765D01*
X75425227Y-71060804D01*
X75449496Y-71057204D01*
X75474000Y-71056000D01*
X75974000Y-71056000D01*
X75998504Y-71057204D01*
X75998504Y-71057204D01*
G37*
D20*
G04 #@! TD*
G04 #@! TO.P,BT1,1*
G04 #@! TO.N,+BATT*
X75724000Y-72806000D03*
D10*
G04 #@! TO.N,GND*
G04 #@! TO.C,BT1*
G36*
X77998504Y-71057204D02*
X78022773Y-71060804D01*
X78046571Y-71066765D01*
X78069671Y-71075030D01*
X78091849Y-71085520D01*
X78112893Y-71098133D01*
X78132598Y-71112747D01*
X78150777Y-71129223D01*
X78167253Y-71147402D01*
X78181867Y-71167107D01*
X78194480Y-71188151D01*
X78204970Y-71210329D01*
X78213235Y-71233429D01*
X78219196Y-71257227D01*
X78222796Y-71281496D01*
X78224000Y-71306000D01*
X78224000Y-74306000D01*
X78222796Y-74330504D01*
X78219196Y-74354773D01*
X78213235Y-74378571D01*
X78204970Y-74401671D01*
X78194480Y-74423849D01*
X78181867Y-74444893D01*
X78167253Y-74464598D01*
X78150777Y-74482777D01*
X78132598Y-74499253D01*
X78112893Y-74513867D01*
X78091849Y-74526480D01*
X78069671Y-74536970D01*
X78046571Y-74545235D01*
X78022773Y-74551196D01*
X77998504Y-74554796D01*
X77974000Y-74556000D01*
X77474000Y-74556000D01*
X77449496Y-74554796D01*
X77425227Y-74551196D01*
X77401429Y-74545235D01*
X77378329Y-74536970D01*
X77356151Y-74526480D01*
X77335107Y-74513867D01*
X77315402Y-74499253D01*
X77297223Y-74482777D01*
X77280747Y-74464598D01*
X77266133Y-74444893D01*
X77253520Y-74423849D01*
X77243030Y-74401671D01*
X77234765Y-74378571D01*
X77228804Y-74354773D01*
X77225204Y-74330504D01*
X77224000Y-74306000D01*
X77224000Y-71306000D01*
X77225204Y-71281496D01*
X77228804Y-71257227D01*
X77234765Y-71233429D01*
X77243030Y-71210329D01*
X77253520Y-71188151D01*
X77266133Y-71167107D01*
X77280747Y-71147402D01*
X77297223Y-71129223D01*
X77315402Y-71112747D01*
X77335107Y-71098133D01*
X77356151Y-71085520D01*
X77378329Y-71075030D01*
X77401429Y-71066765D01*
X77425227Y-71060804D01*
X77449496Y-71057204D01*
X77474000Y-71056000D01*
X77974000Y-71056000D01*
X77998504Y-71057204D01*
X77998504Y-71057204D01*
G37*
D20*
G04 #@! TD*
G04 #@! TO.P,BT1,2*
G04 #@! TO.N,GND*
X77724000Y-72806000D03*
D10*
G04 #@! TO.N,N/C*
G04 #@! TO.C,BT1*
G36*
X73898504Y-65357204D02*
X73922773Y-65360804D01*
X73946571Y-65366765D01*
X73969671Y-65375030D01*
X73991849Y-65385520D01*
X74012893Y-65398133D01*
X74032598Y-65412747D01*
X74050777Y-65429223D01*
X74067253Y-65447402D01*
X74081867Y-65467107D01*
X74094480Y-65488151D01*
X74104970Y-65510329D01*
X74113235Y-65533429D01*
X74119196Y-65557227D01*
X74122796Y-65581496D01*
X74124000Y-65606000D01*
X74124000Y-68506000D01*
X74122796Y-68530504D01*
X74119196Y-68554773D01*
X74113235Y-68578571D01*
X74104970Y-68601671D01*
X74094480Y-68623849D01*
X74081867Y-68644893D01*
X74067253Y-68664598D01*
X74050777Y-68682777D01*
X74032598Y-68699253D01*
X74012893Y-68713867D01*
X73991849Y-68726480D01*
X73969671Y-68736970D01*
X73946571Y-68745235D01*
X73922773Y-68751196D01*
X73898504Y-68754796D01*
X73874000Y-68756000D01*
X72874000Y-68756000D01*
X72849496Y-68754796D01*
X72825227Y-68751196D01*
X72801429Y-68745235D01*
X72778329Y-68736970D01*
X72756151Y-68726480D01*
X72735107Y-68713867D01*
X72715402Y-68699253D01*
X72697223Y-68682777D01*
X72680747Y-68664598D01*
X72666133Y-68644893D01*
X72653520Y-68623849D01*
X72643030Y-68601671D01*
X72634765Y-68578571D01*
X72628804Y-68554773D01*
X72625204Y-68530504D01*
X72624000Y-68506000D01*
X72624000Y-65606000D01*
X72625204Y-65581496D01*
X72628804Y-65557227D01*
X72634765Y-65533429D01*
X72643030Y-65510329D01*
X72653520Y-65488151D01*
X72666133Y-65467107D01*
X72680747Y-65447402D01*
X72697223Y-65429223D01*
X72715402Y-65412747D01*
X72735107Y-65398133D01*
X72756151Y-65385520D01*
X72778329Y-65375030D01*
X72801429Y-65366765D01*
X72825227Y-65360804D01*
X72849496Y-65357204D01*
X72874000Y-65356000D01*
X73874000Y-65356000D01*
X73898504Y-65357204D01*
X73898504Y-65357204D01*
G37*
D21*
G04 #@! TD*
G04 #@! TO.P,BT1,MP*
G04 #@! TO.N,N/C*
X73374000Y-67056000D03*
D10*
G04 #@! TO.N,N/C*
G04 #@! TO.C,BT1*
G36*
X80598504Y-65357204D02*
X80622773Y-65360804D01*
X80646571Y-65366765D01*
X80669671Y-65375030D01*
X80691849Y-65385520D01*
X80712893Y-65398133D01*
X80732598Y-65412747D01*
X80750777Y-65429223D01*
X80767253Y-65447402D01*
X80781867Y-65467107D01*
X80794480Y-65488151D01*
X80804970Y-65510329D01*
X80813235Y-65533429D01*
X80819196Y-65557227D01*
X80822796Y-65581496D01*
X80824000Y-65606000D01*
X80824000Y-68506000D01*
X80822796Y-68530504D01*
X80819196Y-68554773D01*
X80813235Y-68578571D01*
X80804970Y-68601671D01*
X80794480Y-68623849D01*
X80781867Y-68644893D01*
X80767253Y-68664598D01*
X80750777Y-68682777D01*
X80732598Y-68699253D01*
X80712893Y-68713867D01*
X80691849Y-68726480D01*
X80669671Y-68736970D01*
X80646571Y-68745235D01*
X80622773Y-68751196D01*
X80598504Y-68754796D01*
X80574000Y-68756000D01*
X79574000Y-68756000D01*
X79549496Y-68754796D01*
X79525227Y-68751196D01*
X79501429Y-68745235D01*
X79478329Y-68736970D01*
X79456151Y-68726480D01*
X79435107Y-68713867D01*
X79415402Y-68699253D01*
X79397223Y-68682777D01*
X79380747Y-68664598D01*
X79366133Y-68644893D01*
X79353520Y-68623849D01*
X79343030Y-68601671D01*
X79334765Y-68578571D01*
X79328804Y-68554773D01*
X79325204Y-68530504D01*
X79324000Y-68506000D01*
X79324000Y-65606000D01*
X79325204Y-65581496D01*
X79328804Y-65557227D01*
X79334765Y-65533429D01*
X79343030Y-65510329D01*
X79353520Y-65488151D01*
X79366133Y-65467107D01*
X79380747Y-65447402D01*
X79397223Y-65429223D01*
X79415402Y-65412747D01*
X79435107Y-65398133D01*
X79456151Y-65385520D01*
X79478329Y-65375030D01*
X79501429Y-65366765D01*
X79525227Y-65360804D01*
X79549496Y-65357204D01*
X79574000Y-65356000D01*
X80574000Y-65356000D01*
X80598504Y-65357204D01*
X80598504Y-65357204D01*
G37*
D21*
G04 #@! TD*
G04 #@! TO.P,BT1,MP*
G04 #@! TO.N,N/C*
X80074000Y-67056000D03*
D22*
G04 #@! TO.N,+BATT*
X77012800Y-67106800D03*
X74676000Y-77825600D03*
X74218800Y-73253600D03*
X75724000Y-72867228D03*
G04 #@! TO.N,GND*
X73660000Y-78824000D03*
X92354400Y-72440800D03*
X88290400Y-76228000D03*
X77724000Y-73017038D03*
X85620800Y-72796400D03*
X77368400Y-68427600D03*
X93573600Y-80314800D03*
G04 #@! TO.N,VIN*
X90057000Y-73152000D03*
X83091018Y-74085767D03*
X82683936Y-77924425D03*
X80772000Y-77876400D03*
X89713976Y-77063600D03*
X83680801Y-78892400D03*
G04 #@! TO.N,+3V3*
X88900000Y-80264000D03*
X82143600Y-74015600D03*
X83566000Y-77571600D03*
X88290400Y-77978000D03*
G04 #@! TO.N,VBUS*
X78841600Y-80264000D03*
X74843810Y-76624000D03*
X90231962Y-78641010D03*
G04 #@! TO.N,BATTPOW*
X75133200Y-68173600D03*
X73558400Y-70104000D03*
G04 #@! TO.N,USB_DP*
X95895000Y-77927200D03*
X77781815Y-79586766D03*
X87345498Y-80192017D03*
G04 #@! TO.N,USB_DN*
X77771997Y-78517616D03*
X90932000Y-80162400D03*
X87336683Y-79049506D03*
G04 #@! TO.N,Net-(R3-Pad2)*
X87376000Y-75285600D03*
G04 #@! TO.N,+5V*
X93323188Y-76133790D03*
G04 #@! TD*
D23*
G04 #@! TO.N,+BATT*
X74218800Y-77368400D02*
X74218800Y-73253600D01*
X74676000Y-77825600D02*
X74218800Y-77368400D01*
X75724000Y-68395600D02*
X75724000Y-72867130D01*
X75724000Y-68395600D02*
X75724000Y-72867078D01*
X75724000Y-68395600D02*
X75724000Y-72867206D01*
X75724000Y-68395600D02*
X75724000Y-72867036D01*
X75724000Y-68395600D02*
X75724000Y-72867160D01*
X75724000Y-68395600D02*
X75724000Y-72867194D01*
X75724000Y-68395600D02*
X75724000Y-72867128D01*
X75724000Y-68395600D02*
X75724000Y-72867104D01*
X75724000Y-68395600D02*
X75724000Y-72867096D01*
X75724000Y-68395600D02*
X75724000Y-72867026D01*
X75724000Y-68395600D02*
X75724000Y-72867052D01*
X75724000Y-68395600D02*
X75724000Y-72867152D01*
X75724000Y-68395600D02*
X75724000Y-72867034D01*
X75724000Y-68395600D02*
X75724000Y-72867164D01*
X75724000Y-68395600D02*
X75724000Y-72867182D01*
X75724000Y-68395600D02*
X75724000Y-72867070D01*
X75724000Y-68395600D02*
X75724000Y-72867120D01*
X75724000Y-68395600D02*
X75724000Y-72867106D01*
X75724000Y-68395600D02*
X75724000Y-72867072D01*
X75724000Y-68395600D02*
X75724000Y-72867192D01*
X75724000Y-68395600D02*
X75724000Y-72867186D01*
X75724000Y-68395600D02*
X75724000Y-72301337D01*
X75724000Y-68395600D02*
X75724000Y-72867040D01*
X75724000Y-68395600D02*
X75724000Y-72867076D01*
X75724000Y-68395600D02*
X75724000Y-72867208D01*
X75724000Y-68395600D02*
X75724000Y-72867196D01*
X75724000Y-72301337D02*
X75724000Y-72867022D01*
X75724000Y-68395600D02*
X75724000Y-72867056D01*
X75724000Y-68395600D02*
X75724000Y-72867058D01*
X75724000Y-68395600D02*
X75724000Y-72867158D01*
X75724000Y-68395600D02*
X75724000Y-72867222D01*
X75724000Y-68395600D02*
X75724000Y-72867148D01*
X75724000Y-68395600D02*
X75724000Y-72867092D01*
X75724000Y-68395600D02*
X75724000Y-72867100D01*
X75724000Y-68395600D02*
X75724000Y-72867190D01*
X77012800Y-67106800D02*
X75724000Y-68395600D01*
X75724000Y-68395600D02*
X75724000Y-72867114D01*
X75724000Y-68395600D02*
X75724000Y-72867064D01*
X75724000Y-68395600D02*
X75724000Y-72867084D01*
X75724000Y-68395600D02*
X75724000Y-72867138D01*
X75724000Y-68395600D02*
X75724000Y-72867150D01*
X75724000Y-68395600D02*
X75724000Y-72867228D01*
X75724000Y-68395600D02*
X75724000Y-72867198D01*
X75724000Y-68395600D02*
X75724000Y-72867030D01*
X75724000Y-68395600D02*
X75724000Y-72867178D01*
X75724000Y-68395600D02*
X75724000Y-72867216D01*
X75724000Y-68395600D02*
X75724000Y-72867204D01*
X75724000Y-68395600D02*
X75724000Y-72867174D01*
X75724000Y-68395600D02*
X75724000Y-72867088D01*
X75724000Y-68395600D02*
X75724000Y-72867110D01*
X75724000Y-68395600D02*
X75724000Y-72867214D01*
X75724000Y-68395600D02*
X75724000Y-72867108D01*
X75724000Y-68395600D02*
X75724000Y-72867112D01*
X75724000Y-68395600D02*
X75724000Y-72867118D01*
X75724000Y-68395600D02*
X75724000Y-72867220D01*
X75724000Y-68395600D02*
X75724000Y-72867142D01*
X75724000Y-68395600D02*
X75724000Y-72867166D01*
X75724000Y-68395600D02*
X75724000Y-72867116D01*
X75724000Y-72301339D02*
X75724000Y-72867024D01*
X75724000Y-68395600D02*
X75724000Y-72867032D01*
X75724000Y-68395600D02*
X75724000Y-72867154D01*
X75724000Y-68395600D02*
X75724000Y-72867066D01*
X75724000Y-68395600D02*
X75724000Y-72867224D01*
X75724000Y-68395600D02*
X75724000Y-72867200D01*
X75724000Y-68395600D02*
X75724000Y-72867090D01*
X75724000Y-68395600D02*
X75724000Y-72867054D01*
X75724000Y-68395600D02*
X75724000Y-72867212D01*
X75724000Y-68395600D02*
X75724000Y-72867074D01*
X75724000Y-68395600D02*
X75724000Y-72867170D01*
X75724000Y-68395600D02*
X75724000Y-72867062D01*
X75724000Y-68395600D02*
X75724000Y-72867134D01*
X75724000Y-68395600D02*
X75724000Y-72867060D01*
X75724000Y-68395600D02*
X75724000Y-72867068D01*
X75724000Y-68395600D02*
X75724000Y-72867124D01*
X75724000Y-68395600D02*
X75724000Y-72867202D01*
X75724000Y-68395600D02*
X75724000Y-72867050D01*
X75724000Y-68395600D02*
X75724000Y-72301339D01*
X75724000Y-68395600D02*
X75724000Y-72867046D01*
X75724000Y-68395600D02*
X75724000Y-72867126D01*
X75724000Y-68395600D02*
X75724000Y-72867082D01*
X75724000Y-68395600D02*
X75724000Y-72867144D01*
X75724000Y-68395600D02*
X75724000Y-72867042D01*
X75724000Y-68395600D02*
X75724000Y-72867184D01*
G04 #@! TO.N,GND*
X88174000Y-76344400D02*
X88290400Y-76228000D01*
X86286800Y-76344400D02*
X88174000Y-76344400D01*
X85386800Y-76344400D02*
X86286800Y-76344400D01*
X84886800Y-75844400D02*
X85386800Y-76344400D01*
X84886800Y-75844400D02*
X83486800Y-75844400D01*
X84886800Y-73530400D02*
X85620800Y-72796400D01*
X84886800Y-75844400D02*
X84886800Y-73530400D01*
X82267880Y-76086410D02*
X81064810Y-76086410D01*
X83486800Y-75844400D02*
X82509890Y-75844400D01*
X82509890Y-75844400D02*
X82267880Y-76086410D01*
X94600290Y-80314800D02*
X95351600Y-79563490D01*
X93573600Y-80314800D02*
X94600290Y-80314800D01*
X95269999Y-78227201D02*
X95269999Y-76281601D01*
X95351600Y-79563490D02*
X95351600Y-78308802D01*
X95351600Y-78308802D02*
X95269999Y-78227201D01*
G04 #@! TO.N,VIN*
X93330000Y-75100000D02*
X93330000Y-74850000D01*
X93330000Y-78656000D02*
X92738000Y-79248000D01*
X93330000Y-77300000D02*
X93330000Y-78656000D01*
X83667600Y-78963498D02*
X83715097Y-78916001D01*
X83667600Y-80365600D02*
X83667600Y-78963498D01*
X92698187Y-75381813D02*
X92980000Y-75100000D01*
X92980000Y-75100000D02*
X93330000Y-75100000D01*
X83486800Y-74844400D02*
X83486800Y-74481549D01*
X83486800Y-74481549D02*
X83091018Y-74085767D01*
X82635911Y-77876400D02*
X82683936Y-77924425D01*
X80772000Y-77876400D02*
X82635911Y-77876400D01*
X93093600Y-77063600D02*
X93330000Y-77300000D01*
X89713976Y-77063600D02*
X93093600Y-77063600D01*
X93330000Y-77050000D02*
X93330000Y-77300000D01*
X92698187Y-76418187D02*
X93330000Y-77050000D01*
X92698187Y-75381813D02*
X92698187Y-76418187D01*
X89713976Y-73495024D02*
X90057000Y-73152000D01*
X89713976Y-77063600D02*
X89713976Y-73495024D01*
G04 #@! TO.N,+3V3*
X82143600Y-73898600D02*
X82143600Y-74015600D01*
X83245800Y-72796400D02*
X82143600Y-73898600D01*
X83870800Y-72796400D02*
X83245800Y-72796400D01*
X83566000Y-76923600D02*
X83486800Y-76844400D01*
X83566000Y-77571600D02*
X83566000Y-76923600D01*
X86286800Y-77114400D02*
X86286800Y-76844400D01*
X85631790Y-77769410D02*
X86286800Y-77114400D01*
X84329495Y-77769410D02*
X85631790Y-77769410D01*
X84131685Y-77571600D02*
X84329495Y-77769410D01*
X83566000Y-77571600D02*
X84131685Y-77571600D01*
X87156800Y-76844400D02*
X88290400Y-77978000D01*
X86286800Y-76844400D02*
X87156800Y-76844400D01*
G04 #@! TO.N,VBUS*
X77090310Y-76594710D02*
X78772000Y-78276400D01*
X76538710Y-76594710D02*
X77090310Y-76594710D01*
X78772000Y-78276400D02*
X78772000Y-78826400D01*
X76168000Y-76224000D02*
X76538710Y-76594710D01*
X78772000Y-78826400D02*
X78772000Y-80194400D01*
X78772000Y-80194400D02*
X78841600Y-80264000D01*
X76168000Y-76224000D02*
X75243809Y-76224001D01*
X75243809Y-76224001D02*
X74843810Y-76624000D01*
X88065397Y-78641010D02*
X89666277Y-78641010D01*
X89666277Y-78641010D02*
X90231962Y-78641010D01*
X87665398Y-78241011D02*
X88065397Y-78641010D01*
X83407188Y-78241011D02*
X87665398Y-78241011D01*
X78841600Y-80264000D02*
X81384199Y-80264000D01*
X81384199Y-80264000D02*
X83407188Y-78241011D01*
G04 #@! TO.N,BATTPOW*
X73558400Y-69748400D02*
X73558400Y-70104000D01*
X75133200Y-68173600D02*
X73558400Y-69748400D01*
X74843802Y-69028683D02*
X74843802Y-74347570D01*
X76878000Y-75082400D02*
X78722000Y-76926400D01*
X75133200Y-68173600D02*
X75133200Y-68739285D01*
X78722000Y-76926400D02*
X78772000Y-76926400D01*
X74843802Y-74347570D02*
X75578632Y-75082400D01*
X75578632Y-75082400D02*
X76878000Y-75082400D01*
X75133200Y-68739285D02*
X74843802Y-69028683D01*
G04 #@! TO.N,USB_DP*
X76168000Y-78224000D02*
X76538710Y-78594710D01*
X76538710Y-78594710D02*
X76844056Y-78594710D01*
X76844056Y-78594710D02*
X77168010Y-78918664D01*
X77168010Y-78972961D02*
X77781815Y-79586766D01*
X77168010Y-78918664D02*
X77168010Y-78972961D01*
X92348588Y-80979990D02*
X92306800Y-80938202D01*
X89248001Y-79538999D02*
X87998516Y-79538999D01*
X92306800Y-80938202D02*
X90647204Y-80938202D01*
X87998516Y-79538999D02*
X87745497Y-79792018D01*
X90647204Y-80938202D02*
X89248001Y-79538999D01*
X94359379Y-80979990D02*
X92348588Y-80979990D01*
X95895000Y-79444369D02*
X94359379Y-80979990D01*
X95895000Y-77927200D02*
X95895000Y-79444369D01*
X87745497Y-79792018D02*
X87345498Y-80192017D01*
G04 #@! TO.N,USB_DN*
X77771997Y-77952997D02*
X77771997Y-78517616D01*
X77043000Y-77224000D02*
X76168000Y-77224000D01*
X77043000Y-77224000D02*
X77771997Y-77952997D01*
X89986303Y-79711601D02*
X89324208Y-79049506D01*
X89324208Y-79049506D02*
X87336683Y-79049506D01*
X90481201Y-79711601D02*
X89986303Y-79711601D01*
X90932000Y-80162400D02*
X90481201Y-79711601D01*
G04 #@! TO.N,Net-(L1-Pad1)*
X83478800Y-75336400D02*
X83486800Y-75344400D01*
X81838800Y-75336400D02*
X83478800Y-75336400D01*
G04 #@! TO.N,Net-(L1-Pad2)*
X82580800Y-76344400D02*
X81838800Y-77086400D01*
X83486800Y-76344400D02*
X82580800Y-76344400D01*
G04 #@! TO.N,Net-(L2-Pad2)*
X93980000Y-78740000D02*
X94488000Y-79248000D01*
X93980000Y-77300000D02*
X93980000Y-78740000D01*
G04 #@! TO.N,Net-(R3-Pad2)*
X86286800Y-74844400D02*
X86286800Y-75844400D01*
X86345600Y-75285600D02*
X86286800Y-75344400D01*
X87376000Y-75285600D02*
X86345600Y-75285600D01*
G04 #@! TO.N,+5V*
X93980000Y-73152000D02*
X93980000Y-75100000D01*
X93980000Y-76050000D02*
X93980000Y-75700000D01*
X94630000Y-76700000D02*
X93980000Y-76050000D01*
X94630000Y-77300000D02*
X94630000Y-76700000D01*
X93980000Y-75700000D02*
X93980000Y-75100000D01*
X93980000Y-75700000D02*
X93756978Y-75700000D01*
X93756978Y-75700000D02*
X93323188Y-76133790D01*
G04 #@! TD*
D24*
G04 #@! TO.N,GND*
G36*
X73508800Y-77298475D02*
X73494891Y-77368400D01*
X73508800Y-77438324D01*
X73508800Y-77438325D01*
X73549995Y-77645427D01*
X73641000Y-77781625D01*
X73641000Y-78031474D01*
X73798569Y-78411880D01*
X74089720Y-78703031D01*
X74470126Y-78860600D01*
X74758000Y-78860600D01*
X74758000Y-78938250D01*
X74916750Y-79097000D01*
X75217273Y-79097000D01*
X75237833Y-79110738D01*
X75543000Y-79171440D01*
X76123882Y-79171440D01*
X76261682Y-79263515D01*
X76315000Y-79274121D01*
X76315000Y-79351000D01*
X76295000Y-79351000D01*
X76295000Y-80000250D01*
X76453750Y-80159000D01*
X76898566Y-80159000D01*
X76904384Y-80173046D01*
X77195535Y-80464197D01*
X77450967Y-80570000D01*
X73840440Y-80570000D01*
X73840440Y-80173999D01*
X73772127Y-79830564D01*
X73577586Y-79539414D01*
X73533191Y-79509750D01*
X74758000Y-79509750D01*
X74758000Y-79650309D01*
X74854673Y-79883698D01*
X75033301Y-80062327D01*
X75266690Y-80159000D01*
X75882250Y-80159000D01*
X76041000Y-80000250D01*
X76041000Y-79351000D01*
X74916750Y-79351000D01*
X74758000Y-79509750D01*
X73533191Y-79509750D01*
X73286436Y-79344873D01*
X72943001Y-79276560D01*
X71830000Y-79276560D01*
X71830000Y-76171440D01*
X72943001Y-76171440D01*
X73286436Y-76103127D01*
X73508800Y-75954547D01*
X73508800Y-77298475D01*
X73508800Y-77298475D01*
G37*
X73508800Y-77298475D02*
X73494891Y-77368400D01*
X73508800Y-77438324D01*
X73508800Y-77438325D01*
X73549995Y-77645427D01*
X73641000Y-77781625D01*
X73641000Y-78031474D01*
X73798569Y-78411880D01*
X74089720Y-78703031D01*
X74470126Y-78860600D01*
X74758000Y-78860600D01*
X74758000Y-78938250D01*
X74916750Y-79097000D01*
X75217273Y-79097000D01*
X75237833Y-79110738D01*
X75543000Y-79171440D01*
X76123882Y-79171440D01*
X76261682Y-79263515D01*
X76315000Y-79274121D01*
X76315000Y-79351000D01*
X76295000Y-79351000D01*
X76295000Y-80000250D01*
X76453750Y-80159000D01*
X76898566Y-80159000D01*
X76904384Y-80173046D01*
X77195535Y-80464197D01*
X77450967Y-80570000D01*
X73840440Y-80570000D01*
X73840440Y-80173999D01*
X73772127Y-79830564D01*
X73577586Y-79539414D01*
X73533191Y-79509750D01*
X74758000Y-79509750D01*
X74758000Y-79650309D01*
X74854673Y-79883698D01*
X75033301Y-80062327D01*
X75266690Y-80159000D01*
X75882250Y-80159000D01*
X76041000Y-80000250D01*
X76041000Y-79351000D01*
X74916750Y-79351000D01*
X74758000Y-79509750D01*
X73533191Y-79509750D01*
X73286436Y-79344873D01*
X72943001Y-79276560D01*
X71830000Y-79276560D01*
X71830000Y-76171440D01*
X72943001Y-76171440D01*
X73286436Y-76103127D01*
X73508800Y-75954547D01*
X73508800Y-77298475D01*
G36*
X93812328Y-80269990D02*
X93413672Y-80269990D01*
X93613000Y-80136803D01*
X93812328Y-80269990D01*
X93812328Y-80269990D01*
G37*
X93812328Y-80269990D02*
X93413672Y-80269990D01*
X93613000Y-80136803D01*
X93812328Y-80269990D01*
G36*
X95810001Y-76892200D02*
X95689126Y-76892200D01*
X95477440Y-76979883D01*
X95477440Y-76850000D01*
X95428157Y-76602235D01*
X95287809Y-76392191D01*
X95270519Y-76380638D01*
X95181491Y-76247399D01*
X95181490Y-76247398D01*
X95141881Y-76188119D01*
X95082601Y-76148509D01*
X95071414Y-76137322D01*
X95189699Y-76088327D01*
X95368327Y-75909698D01*
X95465000Y-75676309D01*
X95465000Y-75385750D01*
X95306250Y-75227000D01*
X94827440Y-75227000D01*
X94827440Y-74973000D01*
X95306250Y-74973000D01*
X95465000Y-74814250D01*
X95465000Y-74523691D01*
X95368327Y-74290302D01*
X95189699Y-74111673D01*
X94956310Y-74015000D01*
X94888750Y-74015000D01*
X94757002Y-74146748D01*
X94757002Y-74015000D01*
X94722133Y-74015000D01*
X94942207Y-73794926D01*
X95115000Y-73377766D01*
X95115000Y-72926234D01*
X94942207Y-72509074D01*
X94622926Y-72189793D01*
X94205766Y-72017000D01*
X93754234Y-72017000D01*
X93337074Y-72189793D01*
X93017793Y-72509074D01*
X92845000Y-72926234D01*
X92845000Y-73377766D01*
X93017793Y-73794926D01*
X93225427Y-74002560D01*
X93130000Y-74002560D01*
X92882235Y-74051843D01*
X92672191Y-74192191D01*
X92531843Y-74402235D01*
X92498969Y-74567506D01*
X92468119Y-74588119D01*
X92428507Y-74647402D01*
X92245588Y-74830322D01*
X92186306Y-74869933D01*
X92029382Y-75104786D01*
X91997197Y-75266591D01*
X91974278Y-75381813D01*
X91988187Y-75451738D01*
X91988188Y-76348258D01*
X91987125Y-76353600D01*
X90467687Y-76353600D01*
X90423976Y-76309889D01*
X90423976Y-74120270D01*
X90643280Y-74029431D01*
X90934431Y-73738280D01*
X91092000Y-73357874D01*
X91092000Y-72946126D01*
X90934431Y-72565720D01*
X90643280Y-72274569D01*
X90262874Y-72117000D01*
X89851126Y-72117000D01*
X89470720Y-72274569D01*
X89179569Y-72565720D01*
X89022000Y-72946126D01*
X89022000Y-73334488D01*
X88990067Y-73495024D01*
X89003977Y-73564953D01*
X89003976Y-76309889D01*
X88836545Y-76477320D01*
X88678976Y-76857726D01*
X88678976Y-77018677D01*
X88496274Y-76943000D01*
X88259491Y-76943000D01*
X87708294Y-76391804D01*
X87668681Y-76332519D01*
X87624450Y-76302965D01*
X87962280Y-76163031D01*
X88253431Y-75871880D01*
X88411000Y-75491474D01*
X88411000Y-75079726D01*
X88253431Y-74699320D01*
X87962280Y-74408169D01*
X87581874Y-74250600D01*
X87170126Y-74250600D01*
X87063449Y-74294787D01*
X87044609Y-74266591D01*
X86834565Y-74126243D01*
X86586800Y-74076960D01*
X86005536Y-74076960D01*
X85959565Y-74046243D01*
X85886838Y-74031777D01*
X85859957Y-73896635D01*
X85785796Y-73785646D01*
X85906550Y-73906400D01*
X86272109Y-73906400D01*
X86505498Y-73809727D01*
X86684127Y-73631099D01*
X86780800Y-73397710D01*
X86780800Y-73082150D01*
X86622050Y-72923400D01*
X85747800Y-72923400D01*
X85747800Y-72943400D01*
X85493800Y-72943400D01*
X85493800Y-72923400D01*
X85473800Y-72923400D01*
X85473800Y-72669400D01*
X85493800Y-72669400D01*
X85493800Y-72649400D01*
X85747800Y-72649400D01*
X85747800Y-72669400D01*
X86622050Y-72669400D01*
X86780800Y-72510650D01*
X86780800Y-72195090D01*
X86684127Y-71961701D01*
X86552425Y-71830000D01*
X95810000Y-71830000D01*
X95810001Y-76892200D01*
X95810001Y-76892200D01*
G37*
X95810001Y-76892200D02*
X95689126Y-76892200D01*
X95477440Y-76979883D01*
X95477440Y-76850000D01*
X95428157Y-76602235D01*
X95287809Y-76392191D01*
X95270519Y-76380638D01*
X95181491Y-76247399D01*
X95181490Y-76247398D01*
X95141881Y-76188119D01*
X95082601Y-76148509D01*
X95071414Y-76137322D01*
X95189699Y-76088327D01*
X95368327Y-75909698D01*
X95465000Y-75676309D01*
X95465000Y-75385750D01*
X95306250Y-75227000D01*
X94827440Y-75227000D01*
X94827440Y-74973000D01*
X95306250Y-74973000D01*
X95465000Y-74814250D01*
X95465000Y-74523691D01*
X95368327Y-74290302D01*
X95189699Y-74111673D01*
X94956310Y-74015000D01*
X94888750Y-74015000D01*
X94757002Y-74146748D01*
X94757002Y-74015000D01*
X94722133Y-74015000D01*
X94942207Y-73794926D01*
X95115000Y-73377766D01*
X95115000Y-72926234D01*
X94942207Y-72509074D01*
X94622926Y-72189793D01*
X94205766Y-72017000D01*
X93754234Y-72017000D01*
X93337074Y-72189793D01*
X93017793Y-72509074D01*
X92845000Y-72926234D01*
X92845000Y-73377766D01*
X93017793Y-73794926D01*
X93225427Y-74002560D01*
X93130000Y-74002560D01*
X92882235Y-74051843D01*
X92672191Y-74192191D01*
X92531843Y-74402235D01*
X92498969Y-74567506D01*
X92468119Y-74588119D01*
X92428507Y-74647402D01*
X92245588Y-74830322D01*
X92186306Y-74869933D01*
X92029382Y-75104786D01*
X91997197Y-75266591D01*
X91974278Y-75381813D01*
X91988187Y-75451738D01*
X91988188Y-76348258D01*
X91987125Y-76353600D01*
X90467687Y-76353600D01*
X90423976Y-76309889D01*
X90423976Y-74120270D01*
X90643280Y-74029431D01*
X90934431Y-73738280D01*
X91092000Y-73357874D01*
X91092000Y-72946126D01*
X90934431Y-72565720D01*
X90643280Y-72274569D01*
X90262874Y-72117000D01*
X89851126Y-72117000D01*
X89470720Y-72274569D01*
X89179569Y-72565720D01*
X89022000Y-72946126D01*
X89022000Y-73334488D01*
X88990067Y-73495024D01*
X89003977Y-73564953D01*
X89003976Y-76309889D01*
X88836545Y-76477320D01*
X88678976Y-76857726D01*
X88678976Y-77018677D01*
X88496274Y-76943000D01*
X88259491Y-76943000D01*
X87708294Y-76391804D01*
X87668681Y-76332519D01*
X87624450Y-76302965D01*
X87962280Y-76163031D01*
X88253431Y-75871880D01*
X88411000Y-75491474D01*
X88411000Y-75079726D01*
X88253431Y-74699320D01*
X87962280Y-74408169D01*
X87581874Y-74250600D01*
X87170126Y-74250600D01*
X87063449Y-74294787D01*
X87044609Y-74266591D01*
X86834565Y-74126243D01*
X86586800Y-74076960D01*
X86005536Y-74076960D01*
X85959565Y-74046243D01*
X85886838Y-74031777D01*
X85859957Y-73896635D01*
X85785796Y-73785646D01*
X85906550Y-73906400D01*
X86272109Y-73906400D01*
X86505498Y-73809727D01*
X86684127Y-73631099D01*
X86780800Y-73397710D01*
X86780800Y-73082150D01*
X86622050Y-72923400D01*
X85747800Y-72923400D01*
X85747800Y-72943400D01*
X85493800Y-72943400D01*
X85493800Y-72923400D01*
X85473800Y-72923400D01*
X85473800Y-72669400D01*
X85493800Y-72669400D01*
X85493800Y-72649400D01*
X85747800Y-72649400D01*
X85747800Y-72669400D01*
X86622050Y-72669400D01*
X86780800Y-72510650D01*
X86780800Y-72195090D01*
X86684127Y-71961701D01*
X86552425Y-71830000D01*
X95810000Y-71830000D01*
X95810001Y-76892200D01*
G36*
X78676560Y-68506000D02*
X78744874Y-68849435D01*
X78939414Y-69140586D01*
X79230565Y-69335126D01*
X79574000Y-69403440D01*
X80574000Y-69403440D01*
X80917435Y-69335126D01*
X81078001Y-69227840D01*
X81078001Y-71050069D01*
X81064091Y-71120000D01*
X81119195Y-71397028D01*
X81276119Y-71631881D01*
X81510972Y-71788805D01*
X81718074Y-71830000D01*
X81718075Y-71830000D01*
X81788000Y-71843909D01*
X81857926Y-71830000D01*
X83111932Y-71830000D01*
X82957553Y-71933153D01*
X82765722Y-72220248D01*
X82755853Y-72269863D01*
X82733919Y-72284519D01*
X82694308Y-72343801D01*
X82057510Y-72980600D01*
X81937726Y-72980600D01*
X81557320Y-73138169D01*
X81266169Y-73429320D01*
X81108600Y-73809726D01*
X81108600Y-74221474D01*
X81145188Y-74309806D01*
X80975553Y-74423153D01*
X80783722Y-74710248D01*
X80716360Y-75048900D01*
X80716360Y-75623900D01*
X80783722Y-75962552D01*
X80949997Y-76211400D01*
X80783722Y-76460248D01*
X80716360Y-76798900D01*
X80716360Y-76828960D01*
X80322000Y-76828960D01*
X80074235Y-76878243D01*
X79869440Y-77015084D01*
X79869440Y-76526400D01*
X79820157Y-76278635D01*
X79679809Y-76068591D01*
X79469765Y-75928243D01*
X79222000Y-75878960D01*
X78678651Y-75878960D01*
X77851002Y-75051312D01*
X77851002Y-75032252D01*
X78009750Y-75191000D01*
X78350309Y-75191000D01*
X78583698Y-75094327D01*
X78762327Y-74915699D01*
X78859000Y-74682310D01*
X78859000Y-73091750D01*
X78700250Y-72933000D01*
X77851000Y-72933000D01*
X77851000Y-72953000D01*
X77597000Y-72953000D01*
X77597000Y-72933000D01*
X77577000Y-72933000D01*
X77577000Y-72679000D01*
X77597000Y-72679000D01*
X77597000Y-70579750D01*
X77851000Y-70579750D01*
X77851000Y-72679000D01*
X78700250Y-72679000D01*
X78859000Y-72520250D01*
X78859000Y-70929690D01*
X78762327Y-70696301D01*
X78583698Y-70517673D01*
X78350309Y-70421000D01*
X78009750Y-70421000D01*
X77851000Y-70579750D01*
X77597000Y-70579750D01*
X77438250Y-70421000D01*
X77097691Y-70421000D01*
X76864302Y-70517673D01*
X76685673Y-70696301D01*
X76662537Y-70752157D01*
X76608586Y-70671414D01*
X76434000Y-70554760D01*
X76434000Y-68689690D01*
X76981891Y-68141800D01*
X77218674Y-68141800D01*
X77599080Y-67984231D01*
X77890231Y-67693080D01*
X78047800Y-67312674D01*
X78047800Y-66900926D01*
X77890231Y-66520520D01*
X77599080Y-66229369D01*
X77218674Y-66071800D01*
X76806926Y-66071800D01*
X76426520Y-66229369D01*
X76135369Y-66520520D01*
X75977800Y-66900926D01*
X75977800Y-67137709D01*
X75769410Y-67346099D01*
X75719480Y-67296169D01*
X75339074Y-67138600D01*
X74927326Y-67138600D01*
X74771440Y-67203170D01*
X74771440Y-65734000D01*
X78676560Y-65734000D01*
X78676560Y-68506000D01*
X78676560Y-68506000D01*
G37*
X78676560Y-68506000D02*
X78744874Y-68849435D01*
X78939414Y-69140586D01*
X79230565Y-69335126D01*
X79574000Y-69403440D01*
X80574000Y-69403440D01*
X80917435Y-69335126D01*
X81078001Y-69227840D01*
X81078001Y-71050069D01*
X81064091Y-71120000D01*
X81119195Y-71397028D01*
X81276119Y-71631881D01*
X81510972Y-71788805D01*
X81718074Y-71830000D01*
X81718075Y-71830000D01*
X81788000Y-71843909D01*
X81857926Y-71830000D01*
X83111932Y-71830000D01*
X82957553Y-71933153D01*
X82765722Y-72220248D01*
X82755853Y-72269863D01*
X82733919Y-72284519D01*
X82694308Y-72343801D01*
X82057510Y-72980600D01*
X81937726Y-72980600D01*
X81557320Y-73138169D01*
X81266169Y-73429320D01*
X81108600Y-73809726D01*
X81108600Y-74221474D01*
X81145188Y-74309806D01*
X80975553Y-74423153D01*
X80783722Y-74710248D01*
X80716360Y-75048900D01*
X80716360Y-75623900D01*
X80783722Y-75962552D01*
X80949997Y-76211400D01*
X80783722Y-76460248D01*
X80716360Y-76798900D01*
X80716360Y-76828960D01*
X80322000Y-76828960D01*
X80074235Y-76878243D01*
X79869440Y-77015084D01*
X79869440Y-76526400D01*
X79820157Y-76278635D01*
X79679809Y-76068591D01*
X79469765Y-75928243D01*
X79222000Y-75878960D01*
X78678651Y-75878960D01*
X77851002Y-75051312D01*
X77851002Y-75032252D01*
X78009750Y-75191000D01*
X78350309Y-75191000D01*
X78583698Y-75094327D01*
X78762327Y-74915699D01*
X78859000Y-74682310D01*
X78859000Y-73091750D01*
X78700250Y-72933000D01*
X77851000Y-72933000D01*
X77851000Y-72953000D01*
X77597000Y-72953000D01*
X77597000Y-72933000D01*
X77577000Y-72933000D01*
X77577000Y-72679000D01*
X77597000Y-72679000D01*
X77597000Y-70579750D01*
X77851000Y-70579750D01*
X77851000Y-72679000D01*
X78700250Y-72679000D01*
X78859000Y-72520250D01*
X78859000Y-70929690D01*
X78762327Y-70696301D01*
X78583698Y-70517673D01*
X78350309Y-70421000D01*
X78009750Y-70421000D01*
X77851000Y-70579750D01*
X77597000Y-70579750D01*
X77438250Y-70421000D01*
X77097691Y-70421000D01*
X76864302Y-70517673D01*
X76685673Y-70696301D01*
X76662537Y-70752157D01*
X76608586Y-70671414D01*
X76434000Y-70554760D01*
X76434000Y-68689690D01*
X76981891Y-68141800D01*
X77218674Y-68141800D01*
X77599080Y-67984231D01*
X77890231Y-67693080D01*
X78047800Y-67312674D01*
X78047800Y-66900926D01*
X77890231Y-66520520D01*
X77599080Y-66229369D01*
X77218674Y-66071800D01*
X76806926Y-66071800D01*
X76426520Y-66229369D01*
X76135369Y-66520520D01*
X75977800Y-66900926D01*
X75977800Y-67137709D01*
X75769410Y-67346099D01*
X75719480Y-67296169D01*
X75339074Y-67138600D01*
X74927326Y-67138600D01*
X74771440Y-67203170D01*
X74771440Y-65734000D01*
X78676560Y-65734000D01*
X78676560Y-68506000D01*
G04 #@! TD*
M02*
