G04 #@! TF.GenerationSoftware,KiCad,Pcbnew,(5.0.0-rc2-200-g1f6f76beb)*
G04 #@! TF.CreationDate,2020-02-24T22:29:59-05:00*
G04 #@! TF.ProjectId,watch-power,77617463682D706F7765722E6B696361,rev?*
G04 #@! TF.SameCoordinates,Original*
G04 #@! TF.FileFunction,Copper,L1,Top,Signal*
G04 #@! TF.FilePolarity,Positive*
%FSLAX46Y46*%
G04 Gerber Fmt 4.6, Leading zero omitted, Abs format (unit mm)*
G04 Created by KiCad (PCBNEW (5.0.0-rc2-200-g1f6f76beb)) date Mon Feb 24 22:29:59 2020*
%MOMM*%
%LPD*%
G01*
G04 APERTURE LIST*
G04 #@! TA.AperFunction,Conductor*
%ADD10C,0.100000*%
G04 #@! TD*
G04 #@! TA.AperFunction,SMDPad,CuDef*
%ADD11C,0.950000*%
G04 #@! TD*
G04 #@! TA.AperFunction,SMDPad,CuDef*
%ADD12R,0.700000X0.250000*%
G04 #@! TD*
G04 #@! TA.AperFunction,SMDPad,CuDef*
%ADD13R,1.780000X2.350000*%
G04 #@! TD*
G04 #@! TA.AperFunction,SMDPad,CuDef*
%ADD14R,0.650000X1.060000*%
G04 #@! TD*
G04 #@! TA.AperFunction,ViaPad*
%ADD15C,0.500000*%
G04 #@! TD*
G04 #@! TA.AperFunction,SMDPad,CuDef*
%ADD16R,0.920000X0.230000*%
G04 #@! TD*
G04 #@! TA.AperFunction,SMDPad,CuDef*
%ADD17R,1.200000X0.700000*%
G04 #@! TD*
G04 #@! TA.AperFunction,BGAPad,CuDef*
%ADD18C,1.000000*%
G04 #@! TD*
G04 #@! TA.AperFunction,ViaPad*
%ADD19C,0.800000*%
G04 #@! TD*
G04 #@! TA.AperFunction,Conductor*
%ADD20C,0.150000*%
G04 #@! TD*
G04 APERTURE END LIST*
D10*
G04 #@! TO.N,GND*
G04 #@! TO.C,C1*
G36*
X72447579Y-69263944D02*
X72470634Y-69267363D01*
X72493243Y-69273027D01*
X72515187Y-69280879D01*
X72536257Y-69290844D01*
X72556248Y-69302826D01*
X72574968Y-69316710D01*
X72592238Y-69332362D01*
X72607890Y-69349632D01*
X72621774Y-69368352D01*
X72633756Y-69388343D01*
X72643721Y-69409413D01*
X72651573Y-69431357D01*
X72657237Y-69453966D01*
X72660656Y-69477021D01*
X72661800Y-69500300D01*
X72661800Y-70075300D01*
X72660656Y-70098579D01*
X72657237Y-70121634D01*
X72651573Y-70144243D01*
X72643721Y-70166187D01*
X72633756Y-70187257D01*
X72621774Y-70207248D01*
X72607890Y-70225968D01*
X72592238Y-70243238D01*
X72574968Y-70258890D01*
X72556248Y-70272774D01*
X72536257Y-70284756D01*
X72515187Y-70294721D01*
X72493243Y-70302573D01*
X72470634Y-70308237D01*
X72447579Y-70311656D01*
X72424300Y-70312800D01*
X71949300Y-70312800D01*
X71926021Y-70311656D01*
X71902966Y-70308237D01*
X71880357Y-70302573D01*
X71858413Y-70294721D01*
X71837343Y-70284756D01*
X71817352Y-70272774D01*
X71798632Y-70258890D01*
X71781362Y-70243238D01*
X71765710Y-70225968D01*
X71751826Y-70207248D01*
X71739844Y-70187257D01*
X71729879Y-70166187D01*
X71722027Y-70144243D01*
X71716363Y-70121634D01*
X71712944Y-70098579D01*
X71711800Y-70075300D01*
X71711800Y-69500300D01*
X71712944Y-69477021D01*
X71716363Y-69453966D01*
X71722027Y-69431357D01*
X71729879Y-69409413D01*
X71739844Y-69388343D01*
X71751826Y-69368352D01*
X71765710Y-69349632D01*
X71781362Y-69332362D01*
X71798632Y-69316710D01*
X71817352Y-69302826D01*
X71837343Y-69290844D01*
X71858413Y-69280879D01*
X71880357Y-69273027D01*
X71902966Y-69267363D01*
X71926021Y-69263944D01*
X71949300Y-69262800D01*
X72424300Y-69262800D01*
X72447579Y-69263944D01*
X72447579Y-69263944D01*
G37*
D11*
G04 #@! TD*
G04 #@! TO.P,C1,2*
G04 #@! TO.N,GND*
X72186800Y-69787800D03*
D10*
G04 #@! TO.N,Net-(C1-Pad1)*
G04 #@! TO.C,C1*
G36*
X72447579Y-71013944D02*
X72470634Y-71017363D01*
X72493243Y-71023027D01*
X72515187Y-71030879D01*
X72536257Y-71040844D01*
X72556248Y-71052826D01*
X72574968Y-71066710D01*
X72592238Y-71082362D01*
X72607890Y-71099632D01*
X72621774Y-71118352D01*
X72633756Y-71138343D01*
X72643721Y-71159413D01*
X72651573Y-71181357D01*
X72657237Y-71203966D01*
X72660656Y-71227021D01*
X72661800Y-71250300D01*
X72661800Y-71825300D01*
X72660656Y-71848579D01*
X72657237Y-71871634D01*
X72651573Y-71894243D01*
X72643721Y-71916187D01*
X72633756Y-71937257D01*
X72621774Y-71957248D01*
X72607890Y-71975968D01*
X72592238Y-71993238D01*
X72574968Y-72008890D01*
X72556248Y-72022774D01*
X72536257Y-72034756D01*
X72515187Y-72044721D01*
X72493243Y-72052573D01*
X72470634Y-72058237D01*
X72447579Y-72061656D01*
X72424300Y-72062800D01*
X71949300Y-72062800D01*
X71926021Y-72061656D01*
X71902966Y-72058237D01*
X71880357Y-72052573D01*
X71858413Y-72044721D01*
X71837343Y-72034756D01*
X71817352Y-72022774D01*
X71798632Y-72008890D01*
X71781362Y-71993238D01*
X71765710Y-71975968D01*
X71751826Y-71957248D01*
X71739844Y-71937257D01*
X71729879Y-71916187D01*
X71722027Y-71894243D01*
X71716363Y-71871634D01*
X71712944Y-71848579D01*
X71711800Y-71825300D01*
X71711800Y-71250300D01*
X71712944Y-71227021D01*
X71716363Y-71203966D01*
X71722027Y-71181357D01*
X71729879Y-71159413D01*
X71739844Y-71138343D01*
X71751826Y-71118352D01*
X71765710Y-71099632D01*
X71781362Y-71082362D01*
X71798632Y-71066710D01*
X71817352Y-71052826D01*
X71837343Y-71040844D01*
X71858413Y-71030879D01*
X71880357Y-71023027D01*
X71902966Y-71017363D01*
X71926021Y-71013944D01*
X71949300Y-71012800D01*
X72424300Y-71012800D01*
X72447579Y-71013944D01*
X72447579Y-71013944D01*
G37*
D11*
G04 #@! TD*
G04 #@! TO.P,C1,1*
G04 #@! TO.N,Net-(C1-Pad1)*
X72186800Y-71537800D03*
D10*
G04 #@! TO.N,VIN*
G04 #@! TO.C,C2*
G36*
X90367779Y-72678144D02*
X90390834Y-72681563D01*
X90413443Y-72687227D01*
X90435387Y-72695079D01*
X90456457Y-72705044D01*
X90476448Y-72717026D01*
X90495168Y-72730910D01*
X90512438Y-72746562D01*
X90528090Y-72763832D01*
X90541974Y-72782552D01*
X90553956Y-72802543D01*
X90563921Y-72823613D01*
X90571773Y-72845557D01*
X90577437Y-72868166D01*
X90580856Y-72891221D01*
X90582000Y-72914500D01*
X90582000Y-73389500D01*
X90580856Y-73412779D01*
X90577437Y-73435834D01*
X90571773Y-73458443D01*
X90563921Y-73480387D01*
X90553956Y-73501457D01*
X90541974Y-73521448D01*
X90528090Y-73540168D01*
X90512438Y-73557438D01*
X90495168Y-73573090D01*
X90476448Y-73586974D01*
X90456457Y-73598956D01*
X90435387Y-73608921D01*
X90413443Y-73616773D01*
X90390834Y-73622437D01*
X90367779Y-73625856D01*
X90344500Y-73627000D01*
X89769500Y-73627000D01*
X89746221Y-73625856D01*
X89723166Y-73622437D01*
X89700557Y-73616773D01*
X89678613Y-73608921D01*
X89657543Y-73598956D01*
X89637552Y-73586974D01*
X89618832Y-73573090D01*
X89601562Y-73557438D01*
X89585910Y-73540168D01*
X89572026Y-73521448D01*
X89560044Y-73501457D01*
X89550079Y-73480387D01*
X89542227Y-73458443D01*
X89536563Y-73435834D01*
X89533144Y-73412779D01*
X89532000Y-73389500D01*
X89532000Y-72914500D01*
X89533144Y-72891221D01*
X89536563Y-72868166D01*
X89542227Y-72845557D01*
X89550079Y-72823613D01*
X89560044Y-72802543D01*
X89572026Y-72782552D01*
X89585910Y-72763832D01*
X89601562Y-72746562D01*
X89618832Y-72730910D01*
X89637552Y-72717026D01*
X89657543Y-72705044D01*
X89678613Y-72695079D01*
X89700557Y-72687227D01*
X89723166Y-72681563D01*
X89746221Y-72678144D01*
X89769500Y-72677000D01*
X90344500Y-72677000D01*
X90367779Y-72678144D01*
X90367779Y-72678144D01*
G37*
D11*
G04 #@! TD*
G04 #@! TO.P,C2,1*
G04 #@! TO.N,VIN*
X90057000Y-73152000D03*
D10*
G04 #@! TO.N,GND*
G04 #@! TO.C,C2*
G36*
X92117779Y-72678144D02*
X92140834Y-72681563D01*
X92163443Y-72687227D01*
X92185387Y-72695079D01*
X92206457Y-72705044D01*
X92226448Y-72717026D01*
X92245168Y-72730910D01*
X92262438Y-72746562D01*
X92278090Y-72763832D01*
X92291974Y-72782552D01*
X92303956Y-72802543D01*
X92313921Y-72823613D01*
X92321773Y-72845557D01*
X92327437Y-72868166D01*
X92330856Y-72891221D01*
X92332000Y-72914500D01*
X92332000Y-73389500D01*
X92330856Y-73412779D01*
X92327437Y-73435834D01*
X92321773Y-73458443D01*
X92313921Y-73480387D01*
X92303956Y-73501457D01*
X92291974Y-73521448D01*
X92278090Y-73540168D01*
X92262438Y-73557438D01*
X92245168Y-73573090D01*
X92226448Y-73586974D01*
X92206457Y-73598956D01*
X92185387Y-73608921D01*
X92163443Y-73616773D01*
X92140834Y-73622437D01*
X92117779Y-73625856D01*
X92094500Y-73627000D01*
X91519500Y-73627000D01*
X91496221Y-73625856D01*
X91473166Y-73622437D01*
X91450557Y-73616773D01*
X91428613Y-73608921D01*
X91407543Y-73598956D01*
X91387552Y-73586974D01*
X91368832Y-73573090D01*
X91351562Y-73557438D01*
X91335910Y-73540168D01*
X91322026Y-73521448D01*
X91310044Y-73501457D01*
X91300079Y-73480387D01*
X91292227Y-73458443D01*
X91286563Y-73435834D01*
X91283144Y-73412779D01*
X91282000Y-73389500D01*
X91282000Y-72914500D01*
X91283144Y-72891221D01*
X91286563Y-72868166D01*
X91292227Y-72845557D01*
X91300079Y-72823613D01*
X91310044Y-72802543D01*
X91322026Y-72782552D01*
X91335910Y-72763832D01*
X91351562Y-72746562D01*
X91368832Y-72730910D01*
X91387552Y-72717026D01*
X91407543Y-72705044D01*
X91428613Y-72695079D01*
X91450557Y-72687227D01*
X91473166Y-72681563D01*
X91496221Y-72678144D01*
X91519500Y-72677000D01*
X92094500Y-72677000D01*
X92117779Y-72678144D01*
X92117779Y-72678144D01*
G37*
D11*
G04 #@! TD*
G04 #@! TO.P,C2,2*
G04 #@! TO.N,GND*
X91807000Y-73152000D03*
D10*
G04 #@! TO.N,GND*
G04 #@! TO.C,C4*
G36*
X88551179Y-75704144D02*
X88574234Y-75707563D01*
X88596843Y-75713227D01*
X88618787Y-75721079D01*
X88639857Y-75731044D01*
X88659848Y-75743026D01*
X88678568Y-75756910D01*
X88695838Y-75772562D01*
X88711490Y-75789832D01*
X88725374Y-75808552D01*
X88737356Y-75828543D01*
X88747321Y-75849613D01*
X88755173Y-75871557D01*
X88760837Y-75894166D01*
X88764256Y-75917221D01*
X88765400Y-75940500D01*
X88765400Y-76515500D01*
X88764256Y-76538779D01*
X88760837Y-76561834D01*
X88755173Y-76584443D01*
X88747321Y-76606387D01*
X88737356Y-76627457D01*
X88725374Y-76647448D01*
X88711490Y-76666168D01*
X88695838Y-76683438D01*
X88678568Y-76699090D01*
X88659848Y-76712974D01*
X88639857Y-76724956D01*
X88618787Y-76734921D01*
X88596843Y-76742773D01*
X88574234Y-76748437D01*
X88551179Y-76751856D01*
X88527900Y-76753000D01*
X88052900Y-76753000D01*
X88029621Y-76751856D01*
X88006566Y-76748437D01*
X87983957Y-76742773D01*
X87962013Y-76734921D01*
X87940943Y-76724956D01*
X87920952Y-76712974D01*
X87902232Y-76699090D01*
X87884962Y-76683438D01*
X87869310Y-76666168D01*
X87855426Y-76647448D01*
X87843444Y-76627457D01*
X87833479Y-76606387D01*
X87825627Y-76584443D01*
X87819963Y-76561834D01*
X87816544Y-76538779D01*
X87815400Y-76515500D01*
X87815400Y-75940500D01*
X87816544Y-75917221D01*
X87819963Y-75894166D01*
X87825627Y-75871557D01*
X87833479Y-75849613D01*
X87843444Y-75828543D01*
X87855426Y-75808552D01*
X87869310Y-75789832D01*
X87884962Y-75772562D01*
X87902232Y-75756910D01*
X87920952Y-75743026D01*
X87940943Y-75731044D01*
X87962013Y-75721079D01*
X87983957Y-75713227D01*
X88006566Y-75707563D01*
X88029621Y-75704144D01*
X88052900Y-75703000D01*
X88527900Y-75703000D01*
X88551179Y-75704144D01*
X88551179Y-75704144D01*
G37*
D11*
G04 #@! TD*
G04 #@! TO.P,C4,2*
G04 #@! TO.N,GND*
X88290400Y-76228000D03*
D10*
G04 #@! TO.N,+3V3*
G04 #@! TO.C,C4*
G36*
X88551179Y-77454144D02*
X88574234Y-77457563D01*
X88596843Y-77463227D01*
X88618787Y-77471079D01*
X88639857Y-77481044D01*
X88659848Y-77493026D01*
X88678568Y-77506910D01*
X88695838Y-77522562D01*
X88711490Y-77539832D01*
X88725374Y-77558552D01*
X88737356Y-77578543D01*
X88747321Y-77599613D01*
X88755173Y-77621557D01*
X88760837Y-77644166D01*
X88764256Y-77667221D01*
X88765400Y-77690500D01*
X88765400Y-78265500D01*
X88764256Y-78288779D01*
X88760837Y-78311834D01*
X88755173Y-78334443D01*
X88747321Y-78356387D01*
X88737356Y-78377457D01*
X88725374Y-78397448D01*
X88711490Y-78416168D01*
X88695838Y-78433438D01*
X88678568Y-78449090D01*
X88659848Y-78462974D01*
X88639857Y-78474956D01*
X88618787Y-78484921D01*
X88596843Y-78492773D01*
X88574234Y-78498437D01*
X88551179Y-78501856D01*
X88527900Y-78503000D01*
X88052900Y-78503000D01*
X88029621Y-78501856D01*
X88006566Y-78498437D01*
X87983957Y-78492773D01*
X87962013Y-78484921D01*
X87940943Y-78474956D01*
X87920952Y-78462974D01*
X87902232Y-78449090D01*
X87884962Y-78433438D01*
X87869310Y-78416168D01*
X87855426Y-78397448D01*
X87843444Y-78377457D01*
X87833479Y-78356387D01*
X87825627Y-78334443D01*
X87819963Y-78311834D01*
X87816544Y-78288779D01*
X87815400Y-78265500D01*
X87815400Y-77690500D01*
X87816544Y-77667221D01*
X87819963Y-77644166D01*
X87825627Y-77621557D01*
X87833479Y-77599613D01*
X87843444Y-77578543D01*
X87855426Y-77558552D01*
X87869310Y-77539832D01*
X87884962Y-77522562D01*
X87902232Y-77506910D01*
X87920952Y-77493026D01*
X87940943Y-77481044D01*
X87962013Y-77471079D01*
X87983957Y-77463227D01*
X88006566Y-77457563D01*
X88029621Y-77454144D01*
X88052900Y-77453000D01*
X88527900Y-77453000D01*
X88551179Y-77454144D01*
X88551179Y-77454144D01*
G37*
D11*
G04 #@! TD*
G04 #@! TO.P,C4,1*
G04 #@! TO.N,+3V3*
X88290400Y-77978000D03*
D10*
G04 #@! TO.N,+BATT*
G04 #@! TO.C,R1*
G36*
X77323579Y-66632944D02*
X77346634Y-66636363D01*
X77369243Y-66642027D01*
X77391187Y-66649879D01*
X77412257Y-66659844D01*
X77432248Y-66671826D01*
X77450968Y-66685710D01*
X77468238Y-66701362D01*
X77483890Y-66718632D01*
X77497774Y-66737352D01*
X77509756Y-66757343D01*
X77519721Y-66778413D01*
X77527573Y-66800357D01*
X77533237Y-66822966D01*
X77536656Y-66846021D01*
X77537800Y-66869300D01*
X77537800Y-67344300D01*
X77536656Y-67367579D01*
X77533237Y-67390634D01*
X77527573Y-67413243D01*
X77519721Y-67435187D01*
X77509756Y-67456257D01*
X77497774Y-67476248D01*
X77483890Y-67494968D01*
X77468238Y-67512238D01*
X77450968Y-67527890D01*
X77432248Y-67541774D01*
X77412257Y-67553756D01*
X77391187Y-67563721D01*
X77369243Y-67571573D01*
X77346634Y-67577237D01*
X77323579Y-67580656D01*
X77300300Y-67581800D01*
X76725300Y-67581800D01*
X76702021Y-67580656D01*
X76678966Y-67577237D01*
X76656357Y-67571573D01*
X76634413Y-67563721D01*
X76613343Y-67553756D01*
X76593352Y-67541774D01*
X76574632Y-67527890D01*
X76557362Y-67512238D01*
X76541710Y-67494968D01*
X76527826Y-67476248D01*
X76515844Y-67456257D01*
X76505879Y-67435187D01*
X76498027Y-67413243D01*
X76492363Y-67390634D01*
X76488944Y-67367579D01*
X76487800Y-67344300D01*
X76487800Y-66869300D01*
X76488944Y-66846021D01*
X76492363Y-66822966D01*
X76498027Y-66800357D01*
X76505879Y-66778413D01*
X76515844Y-66757343D01*
X76527826Y-66737352D01*
X76541710Y-66718632D01*
X76557362Y-66701362D01*
X76574632Y-66685710D01*
X76593352Y-66671826D01*
X76613343Y-66659844D01*
X76634413Y-66649879D01*
X76656357Y-66642027D01*
X76678966Y-66636363D01*
X76702021Y-66632944D01*
X76725300Y-66631800D01*
X77300300Y-66631800D01*
X77323579Y-66632944D01*
X77323579Y-66632944D01*
G37*
D11*
G04 #@! TD*
G04 #@! TO.P,R1,2*
G04 #@! TO.N,+BATT*
X77012800Y-67106800D03*
D10*
G04 #@! TO.N,BATTPOW*
G04 #@! TO.C,R1*
G36*
X75573579Y-66632944D02*
X75596634Y-66636363D01*
X75619243Y-66642027D01*
X75641187Y-66649879D01*
X75662257Y-66659844D01*
X75682248Y-66671826D01*
X75700968Y-66685710D01*
X75718238Y-66701362D01*
X75733890Y-66718632D01*
X75747774Y-66737352D01*
X75759756Y-66757343D01*
X75769721Y-66778413D01*
X75777573Y-66800357D01*
X75783237Y-66822966D01*
X75786656Y-66846021D01*
X75787800Y-66869300D01*
X75787800Y-67344300D01*
X75786656Y-67367579D01*
X75783237Y-67390634D01*
X75777573Y-67413243D01*
X75769721Y-67435187D01*
X75759756Y-67456257D01*
X75747774Y-67476248D01*
X75733890Y-67494968D01*
X75718238Y-67512238D01*
X75700968Y-67527890D01*
X75682248Y-67541774D01*
X75662257Y-67553756D01*
X75641187Y-67563721D01*
X75619243Y-67571573D01*
X75596634Y-67577237D01*
X75573579Y-67580656D01*
X75550300Y-67581800D01*
X74975300Y-67581800D01*
X74952021Y-67580656D01*
X74928966Y-67577237D01*
X74906357Y-67571573D01*
X74884413Y-67563721D01*
X74863343Y-67553756D01*
X74843352Y-67541774D01*
X74824632Y-67527890D01*
X74807362Y-67512238D01*
X74791710Y-67494968D01*
X74777826Y-67476248D01*
X74765844Y-67456257D01*
X74755879Y-67435187D01*
X74748027Y-67413243D01*
X74742363Y-67390634D01*
X74738944Y-67367579D01*
X74737800Y-67344300D01*
X74737800Y-66869300D01*
X74738944Y-66846021D01*
X74742363Y-66822966D01*
X74748027Y-66800357D01*
X74755879Y-66778413D01*
X74765844Y-66757343D01*
X74777826Y-66737352D01*
X74791710Y-66718632D01*
X74807362Y-66701362D01*
X74824632Y-66685710D01*
X74843352Y-66671826D01*
X74863343Y-66659844D01*
X74884413Y-66649879D01*
X74906357Y-66642027D01*
X74928966Y-66636363D01*
X74952021Y-66632944D01*
X74975300Y-66631800D01*
X75550300Y-66631800D01*
X75573579Y-66632944D01*
X75573579Y-66632944D01*
G37*
D11*
G04 #@! TD*
G04 #@! TO.P,R1,1*
G04 #@! TO.N,BATTPOW*
X75262800Y-67106800D03*
D10*
G04 #@! TO.N,Net-(R2-Pad1)*
G04 #@! TO.C,R2*
G36*
X73236779Y-74202144D02*
X73259834Y-74205563D01*
X73282443Y-74211227D01*
X73304387Y-74219079D01*
X73325457Y-74229044D01*
X73345448Y-74241026D01*
X73364168Y-74254910D01*
X73381438Y-74270562D01*
X73397090Y-74287832D01*
X73410974Y-74306552D01*
X73422956Y-74326543D01*
X73432921Y-74347613D01*
X73440773Y-74369557D01*
X73446437Y-74392166D01*
X73449856Y-74415221D01*
X73451000Y-74438500D01*
X73451000Y-74913500D01*
X73449856Y-74936779D01*
X73446437Y-74959834D01*
X73440773Y-74982443D01*
X73432921Y-75004387D01*
X73422956Y-75025457D01*
X73410974Y-75045448D01*
X73397090Y-75064168D01*
X73381438Y-75081438D01*
X73364168Y-75097090D01*
X73345448Y-75110974D01*
X73325457Y-75122956D01*
X73304387Y-75132921D01*
X73282443Y-75140773D01*
X73259834Y-75146437D01*
X73236779Y-75149856D01*
X73213500Y-75151000D01*
X72638500Y-75151000D01*
X72615221Y-75149856D01*
X72592166Y-75146437D01*
X72569557Y-75140773D01*
X72547613Y-75132921D01*
X72526543Y-75122956D01*
X72506552Y-75110974D01*
X72487832Y-75097090D01*
X72470562Y-75081438D01*
X72454910Y-75064168D01*
X72441026Y-75045448D01*
X72429044Y-75025457D01*
X72419079Y-75004387D01*
X72411227Y-74982443D01*
X72405563Y-74959834D01*
X72402144Y-74936779D01*
X72401000Y-74913500D01*
X72401000Y-74438500D01*
X72402144Y-74415221D01*
X72405563Y-74392166D01*
X72411227Y-74369557D01*
X72419079Y-74347613D01*
X72429044Y-74326543D01*
X72441026Y-74306552D01*
X72454910Y-74287832D01*
X72470562Y-74270562D01*
X72487832Y-74254910D01*
X72506552Y-74241026D01*
X72526543Y-74229044D01*
X72547613Y-74219079D01*
X72569557Y-74211227D01*
X72592166Y-74205563D01*
X72615221Y-74202144D01*
X72638500Y-74201000D01*
X73213500Y-74201000D01*
X73236779Y-74202144D01*
X73236779Y-74202144D01*
G37*
D11*
G04 #@! TD*
G04 #@! TO.P,R2,1*
G04 #@! TO.N,Net-(R2-Pad1)*
X72926000Y-74676000D03*
D10*
G04 #@! TO.N,GND*
G04 #@! TO.C,R2*
G36*
X74986779Y-74202144D02*
X75009834Y-74205563D01*
X75032443Y-74211227D01*
X75054387Y-74219079D01*
X75075457Y-74229044D01*
X75095448Y-74241026D01*
X75114168Y-74254910D01*
X75131438Y-74270562D01*
X75147090Y-74287832D01*
X75160974Y-74306552D01*
X75172956Y-74326543D01*
X75182921Y-74347613D01*
X75190773Y-74369557D01*
X75196437Y-74392166D01*
X75199856Y-74415221D01*
X75201000Y-74438500D01*
X75201000Y-74913500D01*
X75199856Y-74936779D01*
X75196437Y-74959834D01*
X75190773Y-74982443D01*
X75182921Y-75004387D01*
X75172956Y-75025457D01*
X75160974Y-75045448D01*
X75147090Y-75064168D01*
X75131438Y-75081438D01*
X75114168Y-75097090D01*
X75095448Y-75110974D01*
X75075457Y-75122956D01*
X75054387Y-75132921D01*
X75032443Y-75140773D01*
X75009834Y-75146437D01*
X74986779Y-75149856D01*
X74963500Y-75151000D01*
X74388500Y-75151000D01*
X74365221Y-75149856D01*
X74342166Y-75146437D01*
X74319557Y-75140773D01*
X74297613Y-75132921D01*
X74276543Y-75122956D01*
X74256552Y-75110974D01*
X74237832Y-75097090D01*
X74220562Y-75081438D01*
X74204910Y-75064168D01*
X74191026Y-75045448D01*
X74179044Y-75025457D01*
X74169079Y-75004387D01*
X74161227Y-74982443D01*
X74155563Y-74959834D01*
X74152144Y-74936779D01*
X74151000Y-74913500D01*
X74151000Y-74438500D01*
X74152144Y-74415221D01*
X74155563Y-74392166D01*
X74161227Y-74369557D01*
X74169079Y-74347613D01*
X74179044Y-74326543D01*
X74191026Y-74306552D01*
X74204910Y-74287832D01*
X74220562Y-74270562D01*
X74237832Y-74254910D01*
X74256552Y-74241026D01*
X74276543Y-74229044D01*
X74297613Y-74219079D01*
X74319557Y-74211227D01*
X74342166Y-74205563D01*
X74365221Y-74202144D01*
X74388500Y-74201000D01*
X74963500Y-74201000D01*
X74986779Y-74202144D01*
X74986779Y-74202144D01*
G37*
D11*
G04 #@! TD*
G04 #@! TO.P,R2,2*
G04 #@! TO.N,GND*
X74676000Y-74676000D03*
D10*
G04 #@! TO.N,VIN*
G04 #@! TO.C,R3*
G36*
X83991580Y-78418544D02*
X84014635Y-78421963D01*
X84037244Y-78427627D01*
X84059188Y-78435479D01*
X84080258Y-78445444D01*
X84100249Y-78457426D01*
X84118969Y-78471310D01*
X84136239Y-78486962D01*
X84151891Y-78504232D01*
X84165775Y-78522952D01*
X84177757Y-78542943D01*
X84187722Y-78564013D01*
X84195574Y-78585957D01*
X84201238Y-78608566D01*
X84204657Y-78631621D01*
X84205801Y-78654900D01*
X84205801Y-79129900D01*
X84204657Y-79153179D01*
X84201238Y-79176234D01*
X84195574Y-79198843D01*
X84187722Y-79220787D01*
X84177757Y-79241857D01*
X84165775Y-79261848D01*
X84151891Y-79280568D01*
X84136239Y-79297838D01*
X84118969Y-79313490D01*
X84100249Y-79327374D01*
X84080258Y-79339356D01*
X84059188Y-79349321D01*
X84037244Y-79357173D01*
X84014635Y-79362837D01*
X83991580Y-79366256D01*
X83968301Y-79367400D01*
X83393301Y-79367400D01*
X83370022Y-79366256D01*
X83346967Y-79362837D01*
X83324358Y-79357173D01*
X83302414Y-79349321D01*
X83281344Y-79339356D01*
X83261353Y-79327374D01*
X83242633Y-79313490D01*
X83225363Y-79297838D01*
X83209711Y-79280568D01*
X83195827Y-79261848D01*
X83183845Y-79241857D01*
X83173880Y-79220787D01*
X83166028Y-79198843D01*
X83160364Y-79176234D01*
X83156945Y-79153179D01*
X83155801Y-79129900D01*
X83155801Y-78654900D01*
X83156945Y-78631621D01*
X83160364Y-78608566D01*
X83166028Y-78585957D01*
X83173880Y-78564013D01*
X83183845Y-78542943D01*
X83195827Y-78522952D01*
X83209711Y-78504232D01*
X83225363Y-78486962D01*
X83242633Y-78471310D01*
X83261353Y-78457426D01*
X83281344Y-78445444D01*
X83302414Y-78435479D01*
X83324358Y-78427627D01*
X83346967Y-78421963D01*
X83370022Y-78418544D01*
X83393301Y-78417400D01*
X83968301Y-78417400D01*
X83991580Y-78418544D01*
X83991580Y-78418544D01*
G37*
D11*
G04 #@! TD*
G04 #@! TO.P,R3,1*
G04 #@! TO.N,VIN*
X83680801Y-78892400D03*
D10*
G04 #@! TO.N,Net-(R3-Pad2)*
G04 #@! TO.C,R3*
G36*
X85741580Y-78418544D02*
X85764635Y-78421963D01*
X85787244Y-78427627D01*
X85809188Y-78435479D01*
X85830258Y-78445444D01*
X85850249Y-78457426D01*
X85868969Y-78471310D01*
X85886239Y-78486962D01*
X85901891Y-78504232D01*
X85915775Y-78522952D01*
X85927757Y-78542943D01*
X85937722Y-78564013D01*
X85945574Y-78585957D01*
X85951238Y-78608566D01*
X85954657Y-78631621D01*
X85955801Y-78654900D01*
X85955801Y-79129900D01*
X85954657Y-79153179D01*
X85951238Y-79176234D01*
X85945574Y-79198843D01*
X85937722Y-79220787D01*
X85927757Y-79241857D01*
X85915775Y-79261848D01*
X85901891Y-79280568D01*
X85886239Y-79297838D01*
X85868969Y-79313490D01*
X85850249Y-79327374D01*
X85830258Y-79339356D01*
X85809188Y-79349321D01*
X85787244Y-79357173D01*
X85764635Y-79362837D01*
X85741580Y-79366256D01*
X85718301Y-79367400D01*
X85143301Y-79367400D01*
X85120022Y-79366256D01*
X85096967Y-79362837D01*
X85074358Y-79357173D01*
X85052414Y-79349321D01*
X85031344Y-79339356D01*
X85011353Y-79327374D01*
X84992633Y-79313490D01*
X84975363Y-79297838D01*
X84959711Y-79280568D01*
X84945827Y-79261848D01*
X84933845Y-79241857D01*
X84923880Y-79220787D01*
X84916028Y-79198843D01*
X84910364Y-79176234D01*
X84906945Y-79153179D01*
X84905801Y-79129900D01*
X84905801Y-78654900D01*
X84906945Y-78631621D01*
X84910364Y-78608566D01*
X84916028Y-78585957D01*
X84923880Y-78564013D01*
X84933845Y-78542943D01*
X84945827Y-78522952D01*
X84959711Y-78504232D01*
X84975363Y-78486962D01*
X84992633Y-78471310D01*
X85011353Y-78457426D01*
X85031344Y-78445444D01*
X85052414Y-78435479D01*
X85074358Y-78427627D01*
X85096967Y-78421963D01*
X85120022Y-78418544D01*
X85143301Y-78417400D01*
X85718301Y-78417400D01*
X85741580Y-78418544D01*
X85741580Y-78418544D01*
G37*
D11*
G04 #@! TD*
G04 #@! TO.P,R3,2*
G04 #@! TO.N,Net-(R3-Pad2)*
X85430801Y-78892400D03*
D12*
G04 #@! TO.P,U1,14*
G04 #@! TO.N,SCL*
X74774000Y-71742000D03*
G04 #@! TO.P,U1,13*
G04 #@! TO.N,SDA*
X74774000Y-71342000D03*
G04 #@! TO.P,U1,12*
G04 #@! TO.N,N/C*
X74774000Y-70942000D03*
G04 #@! TO.P,U1,11*
G04 #@! TO.N,Net-(C1-Pad1)*
X74774000Y-70542000D03*
G04 #@! TO.P,U1,10*
G04 #@! TO.N,BATTPOW*
X74774000Y-70142000D03*
G04 #@! TO.P,U1,9*
G04 #@! TO.N,N/C*
X74774000Y-69742000D03*
G04 #@! TO.P,U1,6*
G04 #@! TO.N,+BATT*
X77724000Y-69742000D03*
G04 #@! TO.P,U1,5*
G04 #@! TO.N,N/C*
X77724000Y-70142000D03*
G04 #@! TO.P,U1,4*
X77724000Y-70542000D03*
G04 #@! TO.P,U1,3*
X77724000Y-70942000D03*
G04 #@! TO.P,U1,2*
X77724000Y-71342000D03*
G04 #@! TO.P,U1,1*
X77724000Y-71742000D03*
G04 #@! TO.P,U1,7*
G04 #@! TO.N,+BATT*
X77724000Y-69342000D03*
G04 #@! TO.P,U1,8*
G04 #@! TO.N,GND*
X74774000Y-69342000D03*
D13*
G04 #@! TO.P,U1,15*
G04 #@! TO.N,N/C*
X76249000Y-70542000D03*
G04 #@! TD*
D14*
G04 #@! TO.P,U2,1*
G04 #@! TO.N,N/C*
X72710000Y-78824000D03*
G04 #@! TO.P,U2,2*
G04 #@! TO.N,GND*
X73660000Y-78824000D03*
G04 #@! TO.P,U2,3*
G04 #@! TO.N,+BATT*
X74610000Y-78824000D03*
G04 #@! TO.P,U2,4*
G04 #@! TO.N,VBUS*
X74610000Y-76624000D03*
G04 #@! TO.P,U2,5*
G04 #@! TO.N,Net-(R2-Pad1)*
X72710000Y-76624000D03*
G04 #@! TD*
D15*
G04 #@! TO.N,GND*
G04 #@! TO.C,U3*
X84886800Y-74894400D03*
X84311800Y-75844400D03*
X85461800Y-75844400D03*
X84886800Y-76794400D03*
G04 #@! TD*
D16*
G04 #@! TO.P,P1,6*
G04 #@! TO.N,SCL*
X91324000Y-77216000D03*
G04 #@! TO.P,P1,4*
G04 #@! TO.N,SDA*
X91324000Y-77616000D03*
G04 #@! TO.P,P1,8*
G04 #@! TO.N,N/C*
X91324000Y-76816000D03*
G04 #@! TO.P,P1,2*
G04 #@! TO.N,+3V3*
X91324000Y-78016000D03*
G04 #@! TO.P,P1,10*
G04 #@! TO.N,+5V*
X91324000Y-76416000D03*
G04 #@! TO.P,P1,5*
G04 #@! TO.N,USB_DN*
X94604000Y-77216000D03*
G04 #@! TO.P,P1,3*
G04 #@! TO.N,USB_DP*
X94604000Y-77616000D03*
G04 #@! TO.P,P1,7*
G04 #@! TO.N,N/C*
X94604000Y-76816000D03*
G04 #@! TO.P,P1,1*
G04 #@! TO.N,GND*
X94604000Y-78016000D03*
G04 #@! TO.P,P1,9*
G04 #@! TO.N,VBUS*
X94604000Y-76416000D03*
D17*
G04 #@! TO.P,P1,P1*
G04 #@! TO.N,N/C*
X91464000Y-78916000D03*
G04 #@! TO.P,P1,P3*
X94464000Y-78916000D03*
G04 #@! TO.P,P1,P4*
X94464000Y-75516000D03*
G04 #@! TO.P,P1,P2*
X91464000Y-75516000D03*
G04 #@! TD*
D18*
G04 #@! TO.P,TP4,1*
G04 #@! TO.N,VBUS*
X78841600Y-80264000D03*
G04 #@! TD*
D19*
G04 #@! TO.N,+BATT*
X77012800Y-67106800D03*
X74676000Y-77825600D03*
X74218800Y-73253600D03*
X75724000Y-72867228D03*
G04 #@! TO.N,GND*
X73660000Y-78824000D03*
X92354400Y-72440800D03*
X88290400Y-76228000D03*
X77724000Y-73017038D03*
X85620800Y-72796400D03*
X77368400Y-68427600D03*
X93573600Y-80314800D03*
G04 #@! TO.N,VIN*
X90057000Y-73152000D03*
X83091018Y-74085767D03*
X82683936Y-77924425D03*
X80772000Y-77876400D03*
X89713976Y-77063600D03*
X83680801Y-78892400D03*
G04 #@! TO.N,+3V3*
X88900000Y-80264000D03*
X82143600Y-74015600D03*
X83566000Y-77571600D03*
X88290400Y-77978000D03*
G04 #@! TO.N,VBUS*
X78841600Y-80264000D03*
X74843810Y-76624000D03*
X90231962Y-78641010D03*
G04 #@! TO.N,BATTPOW*
X75133200Y-68173600D03*
X73558400Y-70104000D03*
G04 #@! TO.N,USB_DP*
X95895000Y-77927200D03*
X77781815Y-79586766D03*
X87345498Y-80192017D03*
G04 #@! TO.N,USB_DN*
X77771997Y-78517616D03*
X90932000Y-80162400D03*
X87336683Y-79049506D03*
G04 #@! TO.N,Net-(R3-Pad2)*
X87376000Y-75285600D03*
G04 #@! TO.N,+5V*
X93323188Y-76133790D03*
G04 #@! TD*
D20*
G04 #@! TO.N,+BATT*
X74610000Y-78824000D02*
X74610000Y-77891600D01*
X74610000Y-77891600D02*
X74676000Y-77825600D01*
X75337628Y-73253600D02*
X75724000Y-72867228D01*
X74218800Y-73253600D02*
X75337628Y-73253600D01*
X77724000Y-69467000D02*
X78224000Y-68967000D01*
X78224000Y-68318000D02*
X77012800Y-67106800D01*
X77724000Y-69742000D02*
X77724000Y-69467000D01*
X78224000Y-68967000D02*
X78224000Y-68318000D01*
G04 #@! TO.N,GND*
X73207600Y-69342000D02*
X74774000Y-69342000D01*
X72761800Y-69787800D02*
X73207600Y-69342000D01*
X72186800Y-69787800D02*
X72761800Y-69787800D01*
X91807000Y-73152000D02*
X91807000Y-72988200D01*
X91807000Y-72988200D02*
X92354400Y-72440800D01*
X73660000Y-76267000D02*
X73660000Y-78824000D01*
X74676000Y-75251000D02*
X73660000Y-76267000D01*
X74676000Y-74676000D02*
X74676000Y-75251000D01*
X76065038Y-74676000D02*
X77724000Y-73017038D01*
X74676000Y-74676000D02*
X76065038Y-74676000D01*
X74999000Y-69342000D02*
X75913400Y-68427600D01*
X74774000Y-69342000D02*
X74999000Y-69342000D01*
X75913400Y-68427600D02*
X77368400Y-68427600D01*
X93994000Y-78016000D02*
X93573600Y-78436400D01*
X94604000Y-78016000D02*
X93994000Y-78016000D01*
X93573600Y-78436400D02*
X93573600Y-80314800D01*
G04 #@! TO.N,Net-(C1-Pad1)*
X72186800Y-71537800D02*
X73278200Y-71537800D01*
X73278200Y-71537800D02*
X74274000Y-70542000D01*
X74274000Y-70542000D02*
X74774000Y-70542000D01*
G04 #@! TO.N,VIN*
X83680801Y-78892400D02*
X82712826Y-77924425D01*
X82712826Y-77924425D02*
X82683936Y-77924425D01*
X82691019Y-73685768D02*
X82691019Y-73089819D01*
X83091018Y-74085767D02*
X82691019Y-73685768D01*
X82691019Y-73089819D02*
X82499200Y-72898000D01*
X82499200Y-72898000D02*
X81584800Y-72898000D01*
X81584800Y-72898000D02*
X80772000Y-73710800D01*
X80772000Y-73710800D02*
X80772000Y-77876400D01*
X87590390Y-77911901D02*
X87590390Y-77154010D01*
X84380811Y-79592410D02*
X85909881Y-79592410D01*
X83680801Y-78892400D02*
X84380811Y-79592410D01*
X85909881Y-79592410D02*
X87590390Y-77911901D01*
X87590390Y-77154010D02*
X87680800Y-77063600D01*
X87680800Y-77063600D02*
X89713976Y-77063600D01*
G04 #@! TO.N,+3V3*
X88290400Y-77978000D02*
X88290400Y-79654400D01*
X88290400Y-79654400D02*
X88900000Y-80264000D01*
X88328400Y-78016000D02*
X88290400Y-77978000D01*
X91324000Y-78016000D02*
X88328400Y-78016000D01*
X82143600Y-76149200D02*
X83566000Y-77571600D01*
X82143600Y-74015600D02*
X82143600Y-76149200D01*
G04 #@! TO.N,VBUS*
X90516268Y-79491001D02*
X90231962Y-79206695D01*
X90231962Y-79206695D02*
X90231962Y-78641010D01*
X93994000Y-76416000D02*
X92289001Y-78120999D01*
X92244001Y-79491001D02*
X90516268Y-79491001D01*
X92289001Y-79446001D02*
X92244001Y-79491001D01*
X94604000Y-76416000D02*
X93994000Y-76416000D01*
X92289001Y-78120999D02*
X92289001Y-79446001D01*
G04 #@! TO.N,BATTPOW*
X75262800Y-67106800D02*
X75262800Y-68044000D01*
X75262800Y-68044000D02*
X75133200Y-68173600D01*
X74736000Y-70104000D02*
X74774000Y-70142000D01*
X73558400Y-70104000D02*
X74736000Y-70104000D01*
G04 #@! TO.N,USB_DP*
X94604000Y-77616000D02*
X95583800Y-77616000D01*
X95895000Y-77927200D02*
X95583800Y-77616000D01*
X82644700Y-79857600D02*
X83379116Y-80592016D01*
X86945499Y-80592016D02*
X87345498Y-80192017D01*
X77781815Y-79586766D02*
X78181814Y-79186767D01*
X79508202Y-79857600D02*
X82644700Y-79857600D01*
X78181814Y-79186767D02*
X78837369Y-79186767D01*
X83379116Y-80592016D02*
X86945499Y-80592016D01*
X78837369Y-79186767D02*
X79508202Y-79857600D01*
G04 #@! TO.N,USB_DN*
X94604000Y-77216000D02*
X93675200Y-77216000D01*
X91497685Y-80162400D02*
X90932000Y-80162400D01*
X91869073Y-79791012D02*
X91497685Y-80162400D01*
X92589012Y-79570269D02*
X92368269Y-79791012D01*
X93675200Y-77419200D02*
X92589012Y-78505388D01*
X93675200Y-77216000D02*
X93675200Y-77419200D01*
X92589012Y-78505388D02*
X92589012Y-79570269D01*
X92368269Y-79791012D02*
X91869073Y-79791012D01*
X77771997Y-78517616D02*
X82126927Y-78517616D01*
X82126927Y-78517616D02*
X83501732Y-79892421D01*
X86493768Y-79892421D02*
X87336683Y-79049506D01*
X83501732Y-79892421D02*
X86493768Y-79892421D01*
G04 #@! TO.N,Net-(R2-Pad1)*
X72926000Y-76408000D02*
X72710000Y-76624000D01*
X72926000Y-74676000D02*
X72926000Y-76408000D01*
G04 #@! TO.N,Net-(R3-Pad2)*
X85430801Y-78892400D02*
X85430801Y-77230799D01*
X85430801Y-77230799D02*
X87376000Y-75285600D01*
G04 #@! TO.N,+5V*
X91324000Y-76416000D02*
X93040978Y-76416000D01*
X93040978Y-76416000D02*
X93323188Y-76133790D01*
G04 #@! TO.N,SCL*
X90638999Y-77064786D02*
X90790213Y-77216000D01*
X74974001Y-71942001D02*
X76209283Y-71942001D01*
X90638999Y-76059399D02*
X90638999Y-77064786D01*
X74774000Y-71742000D02*
X74974001Y-71942001D01*
X83267452Y-71796379D02*
X86375979Y-71796379D01*
X82971830Y-72092001D02*
X83267452Y-71796379D01*
X76359283Y-72092001D02*
X82971830Y-72092001D01*
X86375979Y-71796379D02*
X90638999Y-76059399D01*
X90790213Y-77216000D02*
X91324000Y-77216000D01*
X76209283Y-71942001D02*
X76359283Y-72092001D01*
G04 #@! TO.N,SDA*
X74774000Y-71342000D02*
X74274000Y-71342000D01*
X76235015Y-72392012D02*
X83096098Y-72392012D01*
X90338988Y-77240988D02*
X90714000Y-77616000D01*
X73867991Y-71748009D02*
X74361994Y-72242012D01*
X90338988Y-76335498D02*
X90338988Y-77240988D01*
X74361994Y-72242012D02*
X76085015Y-72242012D01*
X90714000Y-77616000D02*
X91324000Y-77616000D01*
X83096098Y-72392012D02*
X83391720Y-72096390D01*
X86099880Y-72096390D02*
X90338988Y-76335498D01*
X74274000Y-71342000D02*
X73867991Y-71748009D01*
X83391720Y-72096390D02*
X86099880Y-72096390D01*
X76085015Y-72242012D02*
X76235015Y-72392012D01*
G04 #@! TD*
M02*
