M48
;DRILL file {KiCad (5.0.0-rc2-200-g1f6f76beb)} date Mon Feb 24 22:30:01 2020
;FORMAT={-:-/ absolute / inch / decimal}
FMAT,2
INCH,TZ
T1C0.0079
T2C0.0157
%
G90
G05
M72
T1
X3.3194Y-2.986
X3.342Y-2.9486
X3.342Y-3.0234
X3.3646Y-2.986
T2
X2.896Y-2.76
X2.9Y-3.1033
X2.922Y-2.884
X2.94Y-3.064
X2.9466Y-3.0167
X2.958Y-2.684
X2.9813Y-2.8688
X3.032Y-2.642
X3.046Y-2.694
X3.06Y-2.8747
X3.0619Y-3.0912
X3.0623Y-3.1333
X3.104Y-3.16
X3.18Y-3.066
X3.234Y-2.914
X3.2553Y-3.0679
X3.2713Y-2.9168
X3.29Y-3.054
X3.2945Y-3.106
X3.3709Y-2.866
X3.4385Y-3.1122
X3.4388Y-3.1572
X3.44Y-2.964
X3.476Y-3.0011
X3.476Y-3.07
X3.5Y-3.16
X3.532Y-3.034
X3.5456Y-2.88
X3.5524Y-3.0961
X3.58Y-3.156
X3.636Y-2.852
X3.6741Y-2.9974
X3.684Y-3.162
X3.7754Y-3.068
T0
M30
