%TF.GenerationSoftware,KiCad,Pcbnew,(5.99.0-2309-gaf729d578)*%
%TF.CreationDate,2020-08-02T15:34:59-04:00*%
%TF.ProjectId,flex,666c6578-2e6b-4696-9361-645f70636258,rev?*%
%TF.SameCoordinates,Original*%
%TF.FileFunction,Paste,Bot*%
%TF.FilePolarity,Positive*%
%FSLAX46Y46*%
G04 Gerber Fmt 4.6, Leading zero omitted, Abs format (unit mm)*
G04 Created by KiCad (PCBNEW (5.99.0-2309-gaf729d578)) date 2020-08-02 15:34:59*
%MOMM*%
%LPD*%
G01*
G04 APERTURE LIST*
%ADD10C,0.010000*%
%ADD11R,0.750000X0.700000*%
%ADD12R,0.700000X1.200000*%
%ADD13R,4.780000X2.780000*%
%ADD14R,4.780000X0.500000*%
G04 APERTURE END LIST*
%TO.C,P1*%
G36*
X16770000Y-18510000D02*
G01*
X16571193Y-18510000D01*
X16571193Y-17996590D01*
X16770000Y-17996590D01*
X16770000Y-18510000D01*
G37*
D10*
X16770000Y-18510000D02*
X16571193Y-18510000D01*
X16571193Y-17996590D01*
X16770000Y-17996590D01*
X16770000Y-18510000D01*
G36*
X16370000Y-18510000D02*
G01*
X16170410Y-18510000D01*
X16170410Y-17997270D01*
X16370000Y-17997270D01*
X16370000Y-18510000D01*
G37*
X16370000Y-18510000D02*
X16170410Y-18510000D01*
X16170410Y-17997270D01*
X16370000Y-17997270D01*
X16370000Y-18510000D01*
G36*
X15970000Y-18510000D02*
G01*
X15769901Y-18510000D01*
X15769901Y-17998020D01*
X15970000Y-17998020D01*
X15970000Y-18510000D01*
G37*
X15970000Y-18510000D02*
X15769901Y-18510000D01*
X15769901Y-17998020D01*
X15970000Y-17998020D01*
X15970000Y-18510000D01*
G36*
X15570000Y-18510000D02*
G01*
X15369500Y-18510000D01*
X15369500Y-17998000D01*
X15570000Y-17998000D01*
X15570000Y-18510000D01*
G37*
X15570000Y-18510000D02*
X15369500Y-18510000D01*
X15369500Y-17998000D01*
X15570000Y-17998000D01*
X15570000Y-18510000D01*
G36*
X15170000Y-18510000D02*
G01*
X14968920Y-18510000D01*
X14968920Y-17997600D01*
X15170000Y-17997600D01*
X15170000Y-18510000D01*
G37*
X15170000Y-18510000D02*
X14968920Y-18510000D01*
X14968920Y-17997600D01*
X15170000Y-17997600D01*
X15170000Y-18510000D01*
G36*
X16770000Y-22000000D02*
G01*
X16571126Y-22000000D01*
X16571126Y-21492400D01*
X16770000Y-21492400D01*
X16770000Y-22000000D01*
G37*
X16770000Y-22000000D02*
X16571126Y-22000000D01*
X16571126Y-21492400D01*
X16770000Y-21492400D01*
X16770000Y-22000000D01*
G36*
X16370000Y-22000000D02*
G01*
X16170593Y-22000000D01*
X16170593Y-21492950D01*
X16370000Y-21492950D01*
X16370000Y-22000000D01*
G37*
X16370000Y-22000000D02*
X16170593Y-22000000D01*
X16170593Y-21492950D01*
X16370000Y-21492950D01*
X16370000Y-22000000D01*
G36*
X15970000Y-22000000D02*
G01*
X15769940Y-22000000D01*
X15769940Y-21490900D01*
X15970000Y-21490900D01*
X15970000Y-22000000D01*
G37*
X15970000Y-22000000D02*
X15769940Y-22000000D01*
X15769940Y-21490900D01*
X15970000Y-21490900D01*
X15970000Y-22000000D01*
G36*
X15570000Y-22000000D02*
G01*
X15369820Y-22000000D01*
X15369820Y-21490540D01*
X15570000Y-21490540D01*
X15570000Y-22000000D01*
G37*
X15570000Y-22000000D02*
X15369820Y-22000000D01*
X15369820Y-21490540D01*
X15570000Y-21490540D01*
X15570000Y-22000000D01*
G36*
X15170000Y-22000000D02*
G01*
X14969422Y-22000000D01*
X14969422Y-21490960D01*
X15170000Y-21490960D01*
X15170000Y-22000000D01*
G37*
X15170000Y-22000000D02*
X14969422Y-22000000D01*
X14969422Y-21490960D01*
X15170000Y-21490960D01*
X15170000Y-22000000D01*
%TD*%
D11*
%TO.C,SW2*%
X-13125000Y-33750000D03*
X-8875000Y-33750000D03*
X-13125000Y-30250000D03*
X-8875000Y-30250000D03*
%TD*%
%TO.C,SW1*%
X-13125000Y-9750000D03*
X-8875000Y-9750000D03*
X-13125000Y-6250000D03*
X-8875000Y-6250000D03*
%TD*%
D12*
%TO.C,P1*%
X17570000Y-21500000D03*
X17570000Y-18500000D03*
X14170000Y-18500000D03*
X14170000Y-21500000D03*
%TD*%
D13*
%TO.C,D1*%
X-11000000Y-20000000D03*
D14*
X-11000000Y-22140000D03*
X-11000000Y-17860000D03*
%TD*%
M02*
