%TF.GenerationSoftware,KiCad,Pcbnew,(5.99.0-2309-gaf729d578)*%
%TF.CreationDate,2020-08-02T15:34:59-04:00*%
%TF.ProjectId,flex,666c6578-2e6b-4696-9361-645f70636258,rev?*%
%TF.SameCoordinates,Original*%
%TF.FileFunction,Legend,Top*%
%TF.FilePolarity,Positive*%
%FSLAX46Y46*%
G04 Gerber Fmt 4.6, Leading zero omitted, Abs format (unit mm)*
G04 Created by KiCad (PCBNEW (5.99.0-2309-gaf729d578)) date 2020-08-02 15:34:59*
%MOMM*%
%LPD*%
G01*
G04 APERTURE LIST*
%ADD10C,0.125000*%
%ADD11C,0.187500*%
%ADD12C,0.150000*%
%ADD13C,0.120000*%
G04 APERTURE END LIST*
D10*
X-10107142Y-26523809D02*
X-9607142Y-26523809D01*
X-10083333Y-26523809D02*
X-10107142Y-26476190D01*
X-10107142Y-26380952D01*
X-10083333Y-26333333D01*
X-10059523Y-26309523D01*
X-10011904Y-26285714D01*
X-9869047Y-26285714D01*
X-9821428Y-26309523D01*
X-9797619Y-26333333D01*
X-9773809Y-26380952D01*
X-9773809Y-26476190D01*
X-9797619Y-26523809D01*
X-9773809Y-26071428D02*
X-10107142Y-26071428D01*
X-10011904Y-26071428D02*
X-10059523Y-26047619D01*
X-10083333Y-26023809D01*
X-10107142Y-25976190D01*
X-10107142Y-25928571D01*
X-9773809Y-25690476D02*
X-9797619Y-25738095D01*
X-9821428Y-25761904D01*
X-9869047Y-25785714D01*
X-10011904Y-25785714D01*
X-10059523Y-25761904D01*
X-10083333Y-25738095D01*
X-10107142Y-25690476D01*
X-10107142Y-25619047D01*
X-10083333Y-25571428D01*
X-10059523Y-25547619D01*
X-10011904Y-25523809D01*
X-9869047Y-25523809D01*
X-9821428Y-25547619D01*
X-9797619Y-25571428D01*
X-9773809Y-25619047D01*
X-9773809Y-25690476D01*
X-10107142Y-25095238D02*
X-9773809Y-25095238D01*
X-10107142Y-25309523D02*
X-9845238Y-25309523D01*
X-9797619Y-25285714D01*
X-9773809Y-25238095D01*
X-9773809Y-25166666D01*
X-9797619Y-25119047D01*
X-9821428Y-25095238D01*
X-9773809Y-24642857D02*
X-10273809Y-24642857D01*
X-9797619Y-24642857D02*
X-9773809Y-24690476D01*
X-9773809Y-24785714D01*
X-9797619Y-24833333D01*
X-9821428Y-24857142D01*
X-9869047Y-24880952D01*
X-10011904Y-24880952D01*
X-10059523Y-24857142D01*
X-10083333Y-24833333D01*
X-10107142Y-24785714D01*
X-10107142Y-24690476D01*
X-10083333Y-24642857D01*
X-9773809Y-24333333D02*
X-9797619Y-24380952D01*
X-9845238Y-24404761D01*
X-10273809Y-24404761D01*
X-10107142Y-24190476D02*
X-9773809Y-24071428D01*
X-10107142Y-23952380D02*
X-9773809Y-24071428D01*
X-9654761Y-24119047D01*
X-9630952Y-24142857D01*
X-9607142Y-24190476D01*
X-9773809Y-23166666D02*
X-10273809Y-23166666D01*
X-9797619Y-23166666D02*
X-9773809Y-23214285D01*
X-9773809Y-23309523D01*
X-9797619Y-23357142D01*
X-9821428Y-23380952D01*
X-9869047Y-23404761D01*
X-10011904Y-23404761D01*
X-10059523Y-23380952D01*
X-10083333Y-23357142D01*
X-10107142Y-23309523D01*
X-10107142Y-23214285D01*
X-10083333Y-23166666D01*
X-9797619Y-22738095D02*
X-9773809Y-22785714D01*
X-9773809Y-22880952D01*
X-9797619Y-22928571D01*
X-9845238Y-22952380D01*
X-10035714Y-22952380D01*
X-10083333Y-22928571D01*
X-10107142Y-22880952D01*
X-10107142Y-22785714D01*
X-10083333Y-22738095D01*
X-10035714Y-22714285D01*
X-9988095Y-22714285D01*
X-9940476Y-22952380D01*
X-9797619Y-22523809D02*
X-9773809Y-22476190D01*
X-9773809Y-22380952D01*
X-9797619Y-22333333D01*
X-9845238Y-22309523D01*
X-9869047Y-22309523D01*
X-9916666Y-22333333D01*
X-9940476Y-22380952D01*
X-9940476Y-22452380D01*
X-9964285Y-22500000D01*
X-10011904Y-22523809D01*
X-10035714Y-22523809D01*
X-10083333Y-22500000D01*
X-10107142Y-22452380D01*
X-10107142Y-22380952D01*
X-10083333Y-22333333D01*
X-9773809Y-22095238D02*
X-10107142Y-22095238D01*
X-10273809Y-22095238D02*
X-10250000Y-22119047D01*
X-10226190Y-22095238D01*
X-10250000Y-22071428D01*
X-10273809Y-22095238D01*
X-10226190Y-22095238D01*
X-10107142Y-21642857D02*
X-9702380Y-21642857D01*
X-9654761Y-21666666D01*
X-9630952Y-21690476D01*
X-9607142Y-21738095D01*
X-9607142Y-21809523D01*
X-9630952Y-21857142D01*
X-9797619Y-21642857D02*
X-9773809Y-21690476D01*
X-9773809Y-21785714D01*
X-9797619Y-21833333D01*
X-9821428Y-21857142D01*
X-9869047Y-21880952D01*
X-10011904Y-21880952D01*
X-10059523Y-21857142D01*
X-10083333Y-21833333D01*
X-10107142Y-21785714D01*
X-10107142Y-21690476D01*
X-10083333Y-21642857D01*
X-10107142Y-21404761D02*
X-9773809Y-21404761D01*
X-10059523Y-21404761D02*
X-10083333Y-21380952D01*
X-10107142Y-21333333D01*
X-10107142Y-21261904D01*
X-10083333Y-21214285D01*
X-10035714Y-21190476D01*
X-9773809Y-21190476D01*
X-9797619Y-20761904D02*
X-9773809Y-20809523D01*
X-9773809Y-20904761D01*
X-9797619Y-20952380D01*
X-9845238Y-20976190D01*
X-10035714Y-20976190D01*
X-10083333Y-20952380D01*
X-10107142Y-20904761D01*
X-10107142Y-20809523D01*
X-10083333Y-20761904D01*
X-10035714Y-20738095D01*
X-9988095Y-20738095D01*
X-9940476Y-20976190D01*
X-9773809Y-20309523D02*
X-10273809Y-20309523D01*
X-9797619Y-20309523D02*
X-9773809Y-20357142D01*
X-9773809Y-20452380D01*
X-9797619Y-20500000D01*
X-9821428Y-20523809D01*
X-9869047Y-20547619D01*
X-10011904Y-20547619D01*
X-10059523Y-20523809D01*
X-10083333Y-20500000D01*
X-10107142Y-20452380D01*
X-10107142Y-20357142D01*
X-10083333Y-20309523D01*
X-9773809Y-19690476D02*
X-10107142Y-19690476D01*
X-10273809Y-19690476D02*
X-10250000Y-19714285D01*
X-10226190Y-19690476D01*
X-10250000Y-19666666D01*
X-10273809Y-19690476D01*
X-10226190Y-19690476D01*
X-10107142Y-19452380D02*
X-9773809Y-19452380D01*
X-10059523Y-19452380D02*
X-10083333Y-19428571D01*
X-10107142Y-19380952D01*
X-10107142Y-19309523D01*
X-10083333Y-19261904D01*
X-10035714Y-19238095D01*
X-9773809Y-19238095D01*
X-9773809Y-18619047D02*
X-10273809Y-18619047D01*
X-10273809Y-18428571D01*
X-10250000Y-18380952D01*
X-10226190Y-18357142D01*
X-10178571Y-18333333D01*
X-10107142Y-18333333D01*
X-10059523Y-18357142D01*
X-10035714Y-18380952D01*
X-10011904Y-18428571D01*
X-10011904Y-18619047D01*
X-9773809Y-18119047D02*
X-10107142Y-18119047D01*
X-10273809Y-18119047D02*
X-10250000Y-18142857D01*
X-10226190Y-18119047D01*
X-10250000Y-18095238D01*
X-10273809Y-18119047D01*
X-10226190Y-18119047D01*
X-10107142Y-17952380D02*
X-10107142Y-17761904D01*
X-10273809Y-17880952D02*
X-9845238Y-17880952D01*
X-9797619Y-17857142D01*
X-9773809Y-17809523D01*
X-9773809Y-17761904D01*
X-10107142Y-17666666D02*
X-10107142Y-17476190D01*
X-10273809Y-17595238D02*
X-9845238Y-17595238D01*
X-9797619Y-17571428D01*
X-9773809Y-17523809D01*
X-9773809Y-17476190D01*
X-9797619Y-17333333D02*
X-9773809Y-17285714D01*
X-9773809Y-17190476D01*
X-9797619Y-17142857D01*
X-9845238Y-17119047D01*
X-9869047Y-17119047D01*
X-9916666Y-17142857D01*
X-9940476Y-17190476D01*
X-9940476Y-17261904D01*
X-9964285Y-17309523D01*
X-10011904Y-17333333D01*
X-10035714Y-17333333D01*
X-10083333Y-17309523D01*
X-10107142Y-17261904D01*
X-10107142Y-17190476D01*
X-10083333Y-17142857D01*
X-9773809Y-16904761D02*
X-10273809Y-16904761D01*
X-10083333Y-16904761D02*
X-10107142Y-16857142D01*
X-10107142Y-16761904D01*
X-10083333Y-16714285D01*
X-10059523Y-16690476D01*
X-10011904Y-16666666D01*
X-9869047Y-16666666D01*
X-9821428Y-16690476D01*
X-9797619Y-16714285D01*
X-9773809Y-16761904D01*
X-9773809Y-16857142D01*
X-9797619Y-16904761D01*
X-10107142Y-16238095D02*
X-9773809Y-16238095D01*
X-10107142Y-16452380D02*
X-9845238Y-16452380D01*
X-9797619Y-16428571D01*
X-9773809Y-16380952D01*
X-9773809Y-16309523D01*
X-9797619Y-16261904D01*
X-9821428Y-16238095D01*
X-9773809Y-16000000D02*
X-10107142Y-16000000D01*
X-10011904Y-16000000D02*
X-10059523Y-15976190D01*
X-10083333Y-15952380D01*
X-10107142Y-15904761D01*
X-10107142Y-15857142D01*
X-10107142Y-15476190D02*
X-9702380Y-15476190D01*
X-9654761Y-15500000D01*
X-9630952Y-15523809D01*
X-9607142Y-15571428D01*
X-9607142Y-15642857D01*
X-9630952Y-15690476D01*
X-9797619Y-15476190D02*
X-9773809Y-15523809D01*
X-9773809Y-15619047D01*
X-9797619Y-15666666D01*
X-9821428Y-15690476D01*
X-9869047Y-15714285D01*
X-10011904Y-15714285D01*
X-10059523Y-15690476D01*
X-10083333Y-15666666D01*
X-10107142Y-15619047D01*
X-10107142Y-15523809D01*
X-10083333Y-15476190D01*
X-9773809Y-15238095D02*
X-10273809Y-15238095D01*
X-9773809Y-15023809D02*
X-10035714Y-15023809D01*
X-10083333Y-15047619D01*
X-10107142Y-15095238D01*
X-10107142Y-15166666D01*
X-10083333Y-15214285D01*
X-10059523Y-15238095D01*
X-9797619Y-14761904D02*
X-9773809Y-14761904D01*
X-9726190Y-14785714D01*
X-9702380Y-14809523D01*
X-9773809Y-14166666D02*
X-10273809Y-14166666D01*
X-10273809Y-13976190D01*
X-10250000Y-13928571D01*
X-10226190Y-13904761D01*
X-10178571Y-13880952D01*
X-10107142Y-13880952D01*
X-10059523Y-13904761D01*
X-10035714Y-13928571D01*
X-10011904Y-13976190D01*
X-10011904Y-14166666D01*
X-9916666Y-13690476D02*
X-9916666Y-13452380D01*
X-9773809Y-13738095D02*
X-10273809Y-13571428D01*
X-9773809Y-13404761D01*
D11*
X-12660714Y-26267857D02*
X-12017857Y-26267857D01*
X-11946428Y-26303571D01*
X-11910714Y-26375000D01*
X-11910714Y-26410714D01*
X-12910714Y-26267857D02*
X-12875000Y-26303571D01*
X-12839285Y-26267857D01*
X-12875000Y-26232142D01*
X-12910714Y-26267857D01*
X-12839285Y-26267857D01*
X-12196428Y-25625000D02*
X-12160714Y-25696428D01*
X-12160714Y-25839285D01*
X-12196428Y-25910714D01*
X-12267857Y-25946428D01*
X-12553571Y-25946428D01*
X-12625000Y-25910714D01*
X-12660714Y-25839285D01*
X-12660714Y-25696428D01*
X-12625000Y-25625000D01*
X-12553571Y-25589285D01*
X-12482142Y-25589285D01*
X-12410714Y-25946428D01*
X-12660714Y-25375000D02*
X-12660714Y-25089285D01*
X-12160714Y-25267857D02*
X-12803571Y-25267857D01*
X-12875000Y-25232142D01*
X-12910714Y-25160714D01*
X-12910714Y-25089285D01*
X-12660714Y-24946428D02*
X-12660714Y-24660714D01*
X-12160714Y-24839285D02*
X-12803571Y-24839285D01*
X-12875000Y-24803571D01*
X-12910714Y-24732142D01*
X-12910714Y-24660714D01*
X-12517857Y-23946428D02*
X-12553571Y-23982142D01*
X-12589285Y-24053571D01*
X-12589285Y-24125000D01*
X-12553571Y-24196428D01*
X-12517857Y-24232142D01*
X-12446428Y-24267857D01*
X-12375000Y-24267857D01*
X-12303571Y-24232142D01*
X-12267857Y-24196428D01*
X-12232142Y-24125000D01*
X-12232142Y-24053571D01*
X-12267857Y-23982142D01*
X-12303571Y-23946428D01*
X-12589285Y-23946428D02*
X-12303571Y-23946428D01*
X-12267857Y-23910714D01*
X-12267857Y-23875000D01*
X-12303571Y-23803571D01*
X-12375000Y-23767857D01*
X-12553571Y-23767857D01*
X-12660714Y-23839285D01*
X-12732142Y-23946428D01*
X-12767857Y-24089285D01*
X-12732142Y-24232142D01*
X-12660714Y-24339285D01*
X-12553571Y-24410714D01*
X-12410714Y-24446428D01*
X-12267857Y-24410714D01*
X-12160714Y-24339285D01*
X-12089285Y-24232142D01*
X-12053571Y-24089285D01*
X-12089285Y-23946428D01*
X-12160714Y-23839285D01*
X-12660714Y-23553571D02*
X-12660714Y-23267857D01*
X-12910714Y-23446428D02*
X-12267857Y-23446428D01*
X-12196428Y-23410714D01*
X-12160714Y-23339285D01*
X-12160714Y-23267857D01*
X-12160714Y-23017857D02*
X-12910714Y-23017857D01*
X-12160714Y-22696428D02*
X-12553571Y-22696428D01*
X-12625000Y-22732142D01*
X-12660714Y-22803571D01*
X-12660714Y-22910714D01*
X-12625000Y-22982142D01*
X-12589285Y-23017857D01*
X-12196428Y-22053571D02*
X-12160714Y-22125000D01*
X-12160714Y-22267857D01*
X-12196428Y-22339285D01*
X-12267857Y-22375000D01*
X-12553571Y-22375000D01*
X-12625000Y-22339285D01*
X-12660714Y-22267857D01*
X-12660714Y-22125000D01*
X-12625000Y-22053571D01*
X-12553571Y-22017857D01*
X-12482142Y-22017857D01*
X-12410714Y-22375000D01*
X-12660714Y-21696428D02*
X-12017857Y-21696428D01*
X-11946428Y-21732142D01*
X-11910714Y-21803571D01*
X-11910714Y-21839285D01*
X-12910714Y-21696428D02*
X-12875000Y-21732142D01*
X-12839285Y-21696428D01*
X-12875000Y-21660714D01*
X-12910714Y-21696428D01*
X-12839285Y-21696428D01*
X-12196428Y-21053571D02*
X-12160714Y-21125000D01*
X-12160714Y-21267857D01*
X-12196428Y-21339285D01*
X-12267857Y-21375000D01*
X-12553571Y-21375000D01*
X-12625000Y-21339285D01*
X-12660714Y-21267857D01*
X-12660714Y-21125000D01*
X-12625000Y-21053571D01*
X-12553571Y-21017857D01*
X-12482142Y-21017857D01*
X-12410714Y-21375000D01*
X-12660714Y-20803571D02*
X-12660714Y-20517857D01*
X-12160714Y-20696428D02*
X-12803571Y-20696428D01*
X-12875000Y-20660714D01*
X-12910714Y-20589285D01*
X-12910714Y-20517857D01*
X-12660714Y-20375000D02*
X-12660714Y-20089285D01*
X-12160714Y-20267857D02*
X-12803571Y-20267857D01*
X-12875000Y-20232142D01*
X-12910714Y-20160714D01*
X-12910714Y-20089285D01*
X-12196428Y-19517857D02*
X-12160714Y-19589285D01*
X-12160714Y-19732142D01*
X-12196428Y-19803571D01*
X-12232142Y-19839285D01*
X-12303571Y-19875000D01*
X-12517857Y-19875000D01*
X-12589285Y-19839285D01*
X-12625000Y-19803571D01*
X-12660714Y-19732142D01*
X-12660714Y-19589285D01*
X-12625000Y-19517857D01*
X-12160714Y-19089285D02*
X-12196428Y-19160714D01*
X-12232142Y-19196428D01*
X-12303571Y-19232142D01*
X-12517857Y-19232142D01*
X-12589285Y-19196428D01*
X-12625000Y-19160714D01*
X-12660714Y-19089285D01*
X-12660714Y-18982142D01*
X-12625000Y-18910714D01*
X-12589285Y-18875000D01*
X-12517857Y-18839285D01*
X-12303571Y-18839285D01*
X-12232142Y-18875000D01*
X-12196428Y-18910714D01*
X-12160714Y-18982142D01*
X-12160714Y-19089285D01*
X-12160714Y-18410714D02*
X-12196428Y-18482142D01*
X-12232142Y-18517857D01*
X-12303571Y-18553571D01*
X-12517857Y-18553571D01*
X-12589285Y-18517857D01*
X-12625000Y-18482142D01*
X-12660714Y-18410714D01*
X-12660714Y-18303571D01*
X-12625000Y-18232142D01*
X-12589285Y-18196428D01*
X-12517857Y-18160714D01*
X-12303571Y-18160714D01*
X-12232142Y-18196428D01*
X-12196428Y-18232142D01*
X-12160714Y-18303571D01*
X-12160714Y-18410714D01*
X-12660714Y-17839285D02*
X-11910714Y-17839285D01*
X-12625000Y-17839285D02*
X-12660714Y-17767857D01*
X-12660714Y-17625000D01*
X-12625000Y-17553571D01*
X-12589285Y-17517857D01*
X-12517857Y-17482142D01*
X-12303571Y-17482142D01*
X-12232142Y-17517857D01*
X-12196428Y-17553571D01*
X-12160714Y-17625000D01*
X-12160714Y-17767857D01*
X-12196428Y-17839285D01*
X-12196428Y-16875000D02*
X-12160714Y-16946428D01*
X-12160714Y-17089285D01*
X-12196428Y-17160714D01*
X-12267857Y-17196428D01*
X-12553571Y-17196428D01*
X-12625000Y-17160714D01*
X-12660714Y-17089285D01*
X-12660714Y-16946428D01*
X-12625000Y-16875000D01*
X-12553571Y-16839285D01*
X-12482142Y-16839285D01*
X-12410714Y-17196428D01*
X-12160714Y-16517857D02*
X-12660714Y-16517857D01*
X-12517857Y-16517857D02*
X-12589285Y-16482142D01*
X-12625000Y-16446428D01*
X-12660714Y-16375000D01*
X-12660714Y-16303571D01*
X-12232142Y-16053571D02*
X-12196428Y-16017857D01*
X-12160714Y-16053571D01*
X-12196428Y-16089285D01*
X-12232142Y-16053571D01*
X-12160714Y-16053571D01*
X-12196428Y-15375000D02*
X-12160714Y-15446428D01*
X-12160714Y-15589285D01*
X-12196428Y-15660714D01*
X-12232142Y-15696428D01*
X-12303571Y-15732142D01*
X-12517857Y-15732142D01*
X-12589285Y-15696428D01*
X-12625000Y-15660714D01*
X-12660714Y-15589285D01*
X-12660714Y-15446428D01*
X-12625000Y-15375000D01*
X-12160714Y-14946428D02*
X-12196428Y-15017857D01*
X-12232142Y-15053571D01*
X-12303571Y-15089285D01*
X-12517857Y-15089285D01*
X-12589285Y-15053571D01*
X-12625000Y-15017857D01*
X-12660714Y-14946428D01*
X-12660714Y-14839285D01*
X-12625000Y-14767857D01*
X-12589285Y-14732142D01*
X-12517857Y-14696428D01*
X-12303571Y-14696428D01*
X-12232142Y-14732142D01*
X-12196428Y-14767857D01*
X-12160714Y-14839285D01*
X-12160714Y-14946428D01*
X-12160714Y-14374999D02*
X-12660714Y-14374999D01*
X-12589285Y-14374999D02*
X-12625000Y-14339285D01*
X-12660714Y-14267857D01*
X-12660714Y-14160714D01*
X-12625000Y-14089285D01*
X-12553571Y-14053571D01*
X-12160714Y-14053571D01*
X-12553571Y-14053571D02*
X-12625000Y-14017857D01*
X-12660714Y-13946428D01*
X-12660714Y-13839285D01*
X-12625000Y-13767857D01*
X-12553571Y-13732142D01*
X-12160714Y-13732142D01*
X-5589285Y-19235535D02*
X-5589285Y-19735535D01*
X-5589285Y-19306964D02*
X-5553571Y-19271250D01*
X-5482142Y-19235535D01*
X-5375000Y-19235535D01*
X-5303571Y-19271250D01*
X-5267857Y-19342678D01*
X-5267857Y-19735535D01*
X-4910714Y-19735535D02*
X-4910714Y-19235535D01*
X-4910714Y-19378392D02*
X-4875000Y-19306964D01*
X-4839285Y-19271250D01*
X-4767857Y-19235535D01*
X-4696428Y-19235535D01*
X-4553571Y-19235535D02*
X-4267857Y-19235535D01*
X-4446428Y-19735535D02*
X-4446428Y-19092678D01*
X-4410714Y-19021250D01*
X-4339285Y-18985535D01*
X-4267857Y-18985535D01*
X-3660714Y-18985535D02*
X-4017857Y-18985535D01*
X-4053571Y-19342678D01*
X-4017857Y-19306964D01*
X-3946428Y-19271250D01*
X-3767857Y-19271250D01*
X-3696428Y-19306964D01*
X-3660714Y-19342678D01*
X-3625000Y-19414107D01*
X-3625000Y-19592678D01*
X-3660714Y-19664107D01*
X-3696428Y-19699821D01*
X-3767857Y-19735535D01*
X-3946428Y-19735535D01*
X-4017857Y-19699821D01*
X-4053571Y-19664107D01*
X-3339285Y-19056964D02*
X-3303571Y-19021250D01*
X-3232142Y-18985535D01*
X-3053571Y-18985535D01*
X-2982142Y-19021250D01*
X-2946428Y-19056964D01*
X-2910714Y-19128392D01*
X-2910714Y-19199821D01*
X-2946428Y-19306964D01*
X-3375000Y-19735535D01*
X-2910714Y-19735535D01*
X-2089285Y-19235535D02*
X-1946428Y-19735535D01*
X-1803571Y-19378392D01*
X-1660714Y-19735535D01*
X-1517857Y-19235535D01*
X-910714Y-19735535D02*
X-910714Y-19342678D01*
X-946428Y-19271250D01*
X-1017857Y-19235535D01*
X-1160714Y-19235535D01*
X-1232142Y-19271250D01*
X-910714Y-19699821D02*
X-982142Y-19735535D01*
X-1160714Y-19735535D01*
X-1232142Y-19699821D01*
X-1267857Y-19628392D01*
X-1267857Y-19556964D01*
X-1232142Y-19485535D01*
X-1160714Y-19449821D01*
X-982142Y-19449821D01*
X-910714Y-19414107D01*
X-660714Y-19235535D02*
X-375000Y-19235535D01*
X-553571Y-18985535D02*
X-553571Y-19628392D01*
X-517857Y-19699821D01*
X-446428Y-19735535D01*
X-375000Y-19735535D01*
X196428Y-19699821D02*
X124999Y-19735535D01*
X-17857Y-19735535D01*
X-89285Y-19699821D01*
X-125000Y-19664107D01*
X-160714Y-19592678D01*
X-160714Y-19378392D01*
X-125000Y-19306964D01*
X-89285Y-19271250D01*
X-17857Y-19235535D01*
X124999Y-19235535D01*
X196428Y-19271250D01*
X517857Y-19735535D02*
X517857Y-18985535D01*
X839285Y-19735535D02*
X839285Y-19342678D01*
X803571Y-19271250D01*
X732142Y-19235535D01*
X624999Y-19235535D01*
X553571Y-19271250D01*
X517857Y-19306964D01*
X1767857Y-19735535D02*
X1767857Y-19235535D01*
X1767857Y-19306964D02*
X1803571Y-19271250D01*
X1874999Y-19235535D01*
X1982142Y-19235535D01*
X2053571Y-19271250D01*
X2089285Y-19342678D01*
X2089285Y-19735535D01*
X2089285Y-19342678D02*
X2124999Y-19271250D01*
X2196428Y-19235535D01*
X2303571Y-19235535D01*
X2374999Y-19271250D01*
X2410714Y-19342678D01*
X2410714Y-19735535D01*
X2767857Y-19735535D02*
X2767857Y-18985535D01*
X2839285Y-19449821D02*
X3053571Y-19735535D01*
X3053571Y-19235535D02*
X2767857Y-19521250D01*
X3339285Y-19056964D02*
X3374999Y-19021250D01*
X3446428Y-18985535D01*
X3624999Y-18985535D01*
X3696428Y-19021250D01*
X3732142Y-19056964D01*
X3767857Y-19128392D01*
X3767857Y-19199821D01*
X3732142Y-19306964D01*
X3303571Y-19735535D01*
X3767857Y-19735535D01*
X4553571Y-19235535D02*
X4839285Y-19235535D01*
X4660714Y-19735535D02*
X4660714Y-19092678D01*
X4696428Y-19021250D01*
X4767857Y-18985535D01*
X4839285Y-18985535D01*
X5089285Y-19735535D02*
X5089285Y-19235535D01*
X5089285Y-19378392D02*
X5124999Y-19306964D01*
X5160714Y-19271250D01*
X5232142Y-19235535D01*
X5303571Y-19235535D01*
X5660714Y-19735535D02*
X5589285Y-19699821D01*
X5553571Y-19664107D01*
X5517857Y-19592678D01*
X5517857Y-19378392D01*
X5553571Y-19306964D01*
X5589285Y-19271250D01*
X5660714Y-19235535D01*
X5767857Y-19235535D01*
X5839285Y-19271250D01*
X5874999Y-19306964D01*
X5910714Y-19378392D01*
X5910714Y-19592678D01*
X5874999Y-19664107D01*
X5839285Y-19699821D01*
X5767857Y-19735535D01*
X5660714Y-19735535D01*
X6232142Y-19235535D02*
X6232142Y-19735535D01*
X6232142Y-19306964D02*
X6267857Y-19271250D01*
X6339285Y-19235535D01*
X6446428Y-19235535D01*
X6517857Y-19271250D01*
X6553571Y-19342678D01*
X6553571Y-19735535D01*
X6803571Y-19235535D02*
X7089285Y-19235535D01*
X6910714Y-18985535D02*
X6910714Y-19628392D01*
X6946428Y-19699821D01*
X7017857Y-19735535D01*
X7089285Y-19735535D01*
X8232142Y-19699821D02*
X8160714Y-19735535D01*
X8017857Y-19735535D01*
X7946428Y-19699821D01*
X7910714Y-19664107D01*
X7874999Y-19592678D01*
X7874999Y-19378392D01*
X7910714Y-19306964D01*
X7946428Y-19271250D01*
X8017857Y-19235535D01*
X8160714Y-19235535D01*
X8232142Y-19271250D01*
X8874999Y-19735535D02*
X8874999Y-19342678D01*
X8839285Y-19271250D01*
X8767857Y-19235535D01*
X8624999Y-19235535D01*
X8553571Y-19271250D01*
X8874999Y-19699821D02*
X8803571Y-19735535D01*
X8624999Y-19735535D01*
X8553571Y-19699821D01*
X8517857Y-19628392D01*
X8517857Y-19556964D01*
X8553571Y-19485535D01*
X8624999Y-19449821D01*
X8803571Y-19449821D01*
X8874999Y-19414107D01*
X9232142Y-19735535D02*
X9232142Y-18985535D01*
X9232142Y-19271250D02*
X9303571Y-19235535D01*
X9446428Y-19235535D01*
X9517857Y-19271250D01*
X9553571Y-19306964D01*
X9589285Y-19378392D01*
X9589285Y-19592678D01*
X9553571Y-19664107D01*
X9517857Y-19699821D01*
X9446428Y-19735535D01*
X9303571Y-19735535D01*
X9232142Y-19699821D01*
X10017857Y-19735535D02*
X9946428Y-19699821D01*
X9910714Y-19628392D01*
X9910714Y-18985535D01*
X10589285Y-19699821D02*
X10517857Y-19735535D01*
X10374999Y-19735535D01*
X10303571Y-19699821D01*
X10267857Y-19628392D01*
X10267857Y-19342678D01*
X10303571Y-19271250D01*
X10374999Y-19235535D01*
X10517857Y-19235535D01*
X10589285Y-19271250D01*
X10624999Y-19342678D01*
X10624999Y-19414107D01*
X10267857Y-19485535D01*
X1196428Y-20943035D02*
X1196428Y-20443035D01*
X1196428Y-20585892D02*
X1232142Y-20514464D01*
X1267857Y-20478750D01*
X1339285Y-20443035D01*
X1410714Y-20443035D01*
X1946428Y-20907321D02*
X1874999Y-20943035D01*
X1732142Y-20943035D01*
X1660714Y-20907321D01*
X1625000Y-20835892D01*
X1625000Y-20550178D01*
X1660714Y-20478750D01*
X1732142Y-20443035D01*
X1874999Y-20443035D01*
X1946428Y-20478750D01*
X1982142Y-20550178D01*
X1982142Y-20621607D01*
X1625000Y-20693035D01*
X2232142Y-20443035D02*
X2410714Y-20943035D01*
X2589285Y-20443035D01*
X3839285Y-20943035D02*
X3410714Y-20943035D01*
X3625000Y-20943035D02*
X3625000Y-20193035D01*
X3553571Y-20300178D01*
X3482142Y-20371607D01*
X3410714Y-20407321D01*
D12*
X-7623809Y-23314285D02*
X-7585714Y-23276190D01*
X-7471428Y-23238095D01*
X-7395238Y-23238095D01*
X-7280952Y-23276190D01*
X-7204761Y-23352380D01*
X-7166666Y-23428571D01*
X-7128571Y-23580952D01*
X-7128571Y-23695238D01*
X-7166666Y-23847619D01*
X-7204761Y-23923809D01*
X-7280952Y-24000000D01*
X-7395238Y-24038095D01*
X-7471428Y-24038095D01*
X-7585714Y-24000000D01*
X-7623809Y-23961904D01*
X-7966666Y-24038095D02*
X-7966666Y-23390476D01*
X-8004761Y-23314285D01*
X-8042857Y-23276190D01*
X-8119047Y-23238095D01*
X-8271428Y-23238095D01*
X-8347619Y-23276190D01*
X-8385714Y-23314285D01*
X-8423809Y-23390476D01*
X-8423809Y-24038095D01*
X-8690476Y-24038095D02*
X-9147619Y-24038095D01*
X-8919047Y-23238095D02*
X-8919047Y-24038095D01*
X-7623809Y-16114285D02*
X-7585714Y-16076190D01*
X-7471428Y-16038095D01*
X-7395238Y-16038095D01*
X-7280952Y-16076190D01*
X-7204761Y-16152380D01*
X-7166666Y-16228571D01*
X-7128571Y-16380952D01*
X-7128571Y-16495238D01*
X-7166666Y-16647619D01*
X-7204761Y-16723809D01*
X-7280952Y-16800000D01*
X-7395238Y-16838095D01*
X-7471428Y-16838095D01*
X-7585714Y-16800000D01*
X-7623809Y-16761904D01*
X-7966666Y-16838095D02*
X-7966666Y-16190476D01*
X-8004761Y-16114285D01*
X-8042857Y-16076190D01*
X-8119047Y-16038095D01*
X-8271428Y-16038095D01*
X-8347619Y-16076190D01*
X-8385714Y-16114285D01*
X-8423809Y-16190476D01*
X-8423809Y-16838095D01*
X-8690476Y-16838095D02*
X-9147619Y-16838095D01*
X-8919047Y-16038095D02*
X-8919047Y-16838095D01*
X-7000000Y-17000000D02*
X-9000000Y-17000000D01*
X-7000000Y-23000000D02*
X-9000000Y-23000000D01*
D13*
%TO.C,R2*%
X12890000Y-19828733D02*
X12890000Y-20171267D01*
X13910000Y-19828733D02*
X13910000Y-20171267D01*
%TO.C,R1*%
X14390000Y-19828733D02*
X14390000Y-20171267D01*
X15410000Y-19828733D02*
X15410000Y-20171267D01*
%TO.C,Q1*%
X15940000Y-19325000D02*
X15940000Y-20735000D01*
X18260000Y-20735000D02*
X18260000Y-18000000D01*
X18270000Y-20735000D02*
X17600000Y-20735000D01*
X16600000Y-20735000D02*
X15940000Y-20735000D01*
%TD*%
M02*
