%TF.GenerationSoftware,KiCad,Pcbnew,(5.99.0-2309-gaf729d578)*%
%TF.CreationDate,2020-08-02T15:34:59-04:00*%
%TF.ProjectId,flex,666c6578-2e6b-4696-9361-645f70636258,rev?*%
%TF.SameCoordinates,Original*%
%TF.FileFunction,Legend,Bot*%
%TF.FilePolarity,Positive*%
%FSLAX46Y46*%
G04 Gerber Fmt 4.6, Leading zero omitted, Abs format (unit mm)*
G04 Created by KiCad (PCBNEW (5.99.0-2309-gaf729d578)) date 2020-08-02 15:34:59*
%MOMM*%
%LPD*%
G01*
G04 APERTURE LIST*
%ADD10C,0.150000*%
%ADD11C,0.187500*%
%ADD12C,0.050000*%
G04 APERTURE END LIST*
D10*
X-7623809Y-23885714D02*
X-7585714Y-23923809D01*
X-7471428Y-23961904D01*
X-7395238Y-23961904D01*
X-7280952Y-23923809D01*
X-7204761Y-23847619D01*
X-7166666Y-23771428D01*
X-7128571Y-23619047D01*
X-7128571Y-23504761D01*
X-7166666Y-23352380D01*
X-7204761Y-23276190D01*
X-7280952Y-23200000D01*
X-7395238Y-23161904D01*
X-7471428Y-23161904D01*
X-7585714Y-23200000D01*
X-7623809Y-23238095D01*
X-7966666Y-23161904D02*
X-7966666Y-23809523D01*
X-8004761Y-23885714D01*
X-8042857Y-23923809D01*
X-8119047Y-23961904D01*
X-8271428Y-23961904D01*
X-8347619Y-23923809D01*
X-8385714Y-23885714D01*
X-8423809Y-23809523D01*
X-8423809Y-23161904D01*
X-8690476Y-23161904D02*
X-9147619Y-23161904D01*
X-8919047Y-23961904D02*
X-8919047Y-23161904D01*
X-7623809Y-16685714D02*
X-7585714Y-16723809D01*
X-7471428Y-16761904D01*
X-7395238Y-16761904D01*
X-7280952Y-16723809D01*
X-7204761Y-16647619D01*
X-7166666Y-16571428D01*
X-7128571Y-16419047D01*
X-7128571Y-16304761D01*
X-7166666Y-16152380D01*
X-7204761Y-16076190D01*
X-7280952Y-16000000D01*
X-7395238Y-15961904D01*
X-7471428Y-15961904D01*
X-7585714Y-16000000D01*
X-7623809Y-16038095D01*
X-7966666Y-15961904D02*
X-7966666Y-16609523D01*
X-8004761Y-16685714D01*
X-8042857Y-16723809D01*
X-8119047Y-16761904D01*
X-8271428Y-16761904D01*
X-8347619Y-16723809D01*
X-8385714Y-16685714D01*
X-8423809Y-16609523D01*
X-8423809Y-15961904D01*
X-8690476Y-15961904D02*
X-9147619Y-15961904D01*
X-8919047Y-16761904D02*
X-8919047Y-15961904D01*
X-13100000Y-7900000D02*
X-11700000Y-7900000D01*
X-8900000Y-7900000D02*
X-10400000Y-7900000D01*
X-11700000Y-7900000D02*
X-11200000Y-7200000D01*
X-10399999Y-7900000D02*
G75*
G03*
X-10399999Y-7900000I-223607J0D01*
G01*
X-13100000Y-6900000D02*
X-13100000Y-9100000D01*
X-10799999Y-7000000D02*
G75*
G03*
X-10799999Y-7000000I-223607J0D01*
G01*
X-8900000Y-6900000D02*
X-8900000Y-9100000D01*
X-11700000Y-31900000D02*
X-11200000Y-31200000D01*
X-10399999Y-31900000D02*
G75*
G03*
X-10399999Y-31900000I-223607J0D01*
G01*
X-10799999Y-31000000D02*
G75*
G03*
X-10799999Y-31000000I-223607J0D01*
G01*
X-8900000Y-31900000D02*
X-10400000Y-31900000D01*
X-13100000Y-31900000D02*
X-11700000Y-31900000D01*
X-13100000Y-30900000D02*
X-13100000Y-33100000D01*
X-8900000Y-30900000D02*
X-8900000Y-33100000D01*
D11*
X-13932142Y-17160714D02*
X-13896428Y-17125000D01*
X-13860714Y-17017857D01*
X-13860714Y-16946428D01*
X-13896428Y-16839285D01*
X-13967857Y-16767857D01*
X-14039285Y-16732142D01*
X-14182142Y-16696428D01*
X-14289285Y-16696428D01*
X-14432142Y-16732142D01*
X-14503571Y-16767857D01*
X-14575000Y-16839285D01*
X-14610714Y-16946428D01*
X-14610714Y-17017857D01*
X-14575000Y-17125000D01*
X-14539285Y-17160714D01*
X-13860714Y-17482142D02*
X-14360714Y-17482142D01*
X-14217857Y-17482142D02*
X-14289285Y-17517857D01*
X-14325000Y-17553571D01*
X-14360714Y-17625000D01*
X-14360714Y-17696428D01*
X-13896428Y-18232142D02*
X-13860714Y-18160714D01*
X-13860714Y-18017857D01*
X-13896428Y-17946428D01*
X-13967857Y-17910714D01*
X-14253571Y-17910714D01*
X-14325000Y-17946428D01*
X-14360714Y-18017857D01*
X-14360714Y-18160714D01*
X-14325000Y-18232142D01*
X-14253571Y-18267857D01*
X-14182142Y-18267857D01*
X-14110714Y-17910714D01*
X-13896428Y-18875000D02*
X-13860714Y-18803571D01*
X-13860714Y-18660714D01*
X-13896428Y-18589285D01*
X-13967857Y-18553571D01*
X-14253571Y-18553571D01*
X-14325000Y-18589285D01*
X-14360714Y-18660714D01*
X-14360714Y-18803571D01*
X-14325000Y-18875000D01*
X-14253571Y-18910714D01*
X-14182142Y-18910714D01*
X-14110714Y-18553571D01*
X-14610714Y-19732142D02*
X-13860714Y-20232142D01*
X-14610714Y-20232142D02*
X-13860714Y-19732142D01*
X-13860714Y-20517857D02*
X-14610714Y-20517857D01*
X-14075000Y-20767857D01*
X-14610714Y-21017857D01*
X-13860714Y-21017857D01*
X-14146428Y-21375000D02*
X-14146428Y-21946428D01*
X-13860714Y-22660714D02*
X-13860714Y-22303571D01*
X-14610714Y-22303571D01*
X-14539285Y-22875000D02*
X-14575000Y-22910714D01*
X-14610714Y-22982142D01*
X-14610714Y-23160714D01*
X-14575000Y-23232142D01*
X-14539285Y-23267857D01*
X-14467857Y-23303571D01*
X-14396428Y-23303571D01*
X-14289285Y-23267857D01*
X-13860714Y-22839285D01*
X-13860714Y-23303571D01*
D10*
X-7000000Y-17000000D02*
X-9000000Y-17000000D01*
X-7000000Y-23000000D02*
X-9000000Y-23000000D01*
D12*
%TO.C,P1*%
X14840000Y-17700000D02*
G75*
G03*
X14840000Y-17700000I-70000J0D01*
G01*
%TD*%
M02*
