G04 #@! TF.GenerationSoftware,KiCad,Pcbnew,(5.0.0-rc2-200-g1f6f76beb)*
G04 #@! TF.CreationDate,2020-02-24T23:20:16-05:00*
G04 #@! TF.ProjectId,buttonpanel,627574746F6E70616E656C2E6B696361,rev?*
G04 #@! TF.SameCoordinates,Original*
G04 #@! TF.FileFunction,Paste,Bot*
G04 #@! TF.FilePolarity,Positive*
%FSLAX46Y46*%
G04 Gerber Fmt 4.6, Leading zero omitted, Abs format (unit mm)*
G04 Created by KiCad (PCBNEW (5.0.0-rc2-200-g1f6f76beb)) date Mon Feb 24 23:20:16 2020*
%MOMM*%
%LPD*%
G01*
G04 APERTURE LIST*
%ADD10C,0.100000*%
%ADD11C,0.600000*%
%ADD12C,1.200000*%
G04 APERTURE END LIST*
D10*
G04 #@! TO.C,J1*
G36*
X25639703Y-5200722D02*
X25654264Y-5202882D01*
X25668543Y-5206459D01*
X25682403Y-5211418D01*
X25695710Y-5217712D01*
X25708336Y-5225280D01*
X25720159Y-5234048D01*
X25731066Y-5243934D01*
X25740952Y-5254841D01*
X25749720Y-5266664D01*
X25757288Y-5279290D01*
X25763582Y-5292597D01*
X25768541Y-5306457D01*
X25772118Y-5320736D01*
X25774278Y-5335297D01*
X25775000Y-5350000D01*
X25775000Y-5650000D01*
X25774278Y-5664703D01*
X25772118Y-5679264D01*
X25768541Y-5693543D01*
X25763582Y-5707403D01*
X25757288Y-5720710D01*
X25749720Y-5733336D01*
X25740952Y-5745159D01*
X25731066Y-5756066D01*
X25720159Y-5765952D01*
X25708336Y-5774720D01*
X25695710Y-5782288D01*
X25682403Y-5788582D01*
X25668543Y-5793541D01*
X25654264Y-5797118D01*
X25639703Y-5799278D01*
X25625000Y-5800000D01*
X24375000Y-5800000D01*
X24360297Y-5799278D01*
X24345736Y-5797118D01*
X24331457Y-5793541D01*
X24317597Y-5788582D01*
X24304290Y-5782288D01*
X24291664Y-5774720D01*
X24279841Y-5765952D01*
X24268934Y-5756066D01*
X24259048Y-5745159D01*
X24250280Y-5733336D01*
X24242712Y-5720710D01*
X24236418Y-5707403D01*
X24231459Y-5693543D01*
X24227882Y-5679264D01*
X24225722Y-5664703D01*
X24225000Y-5650000D01*
X24225000Y-5350000D01*
X24225722Y-5335297D01*
X24227882Y-5320736D01*
X24231459Y-5306457D01*
X24236418Y-5292597D01*
X24242712Y-5279290D01*
X24250280Y-5266664D01*
X24259048Y-5254841D01*
X24268934Y-5243934D01*
X24279841Y-5234048D01*
X24291664Y-5225280D01*
X24304290Y-5217712D01*
X24317597Y-5211418D01*
X24331457Y-5206459D01*
X24345736Y-5202882D01*
X24360297Y-5200722D01*
X24375000Y-5200000D01*
X25625000Y-5200000D01*
X25639703Y-5200722D01*
X25639703Y-5200722D01*
G37*
D11*
X25000000Y-5500000D03*
D10*
G36*
X25639703Y-4200722D02*
X25654264Y-4202882D01*
X25668543Y-4206459D01*
X25682403Y-4211418D01*
X25695710Y-4217712D01*
X25708336Y-4225280D01*
X25720159Y-4234048D01*
X25731066Y-4243934D01*
X25740952Y-4254841D01*
X25749720Y-4266664D01*
X25757288Y-4279290D01*
X25763582Y-4292597D01*
X25768541Y-4306457D01*
X25772118Y-4320736D01*
X25774278Y-4335297D01*
X25775000Y-4350000D01*
X25775000Y-4650000D01*
X25774278Y-4664703D01*
X25772118Y-4679264D01*
X25768541Y-4693543D01*
X25763582Y-4707403D01*
X25757288Y-4720710D01*
X25749720Y-4733336D01*
X25740952Y-4745159D01*
X25731066Y-4756066D01*
X25720159Y-4765952D01*
X25708336Y-4774720D01*
X25695710Y-4782288D01*
X25682403Y-4788582D01*
X25668543Y-4793541D01*
X25654264Y-4797118D01*
X25639703Y-4799278D01*
X25625000Y-4800000D01*
X24375000Y-4800000D01*
X24360297Y-4799278D01*
X24345736Y-4797118D01*
X24331457Y-4793541D01*
X24317597Y-4788582D01*
X24304290Y-4782288D01*
X24291664Y-4774720D01*
X24279841Y-4765952D01*
X24268934Y-4756066D01*
X24259048Y-4745159D01*
X24250280Y-4733336D01*
X24242712Y-4720710D01*
X24236418Y-4707403D01*
X24231459Y-4693543D01*
X24227882Y-4679264D01*
X24225722Y-4664703D01*
X24225000Y-4650000D01*
X24225000Y-4350000D01*
X24225722Y-4335297D01*
X24227882Y-4320736D01*
X24231459Y-4306457D01*
X24236418Y-4292597D01*
X24242712Y-4279290D01*
X24250280Y-4266664D01*
X24259048Y-4254841D01*
X24268934Y-4243934D01*
X24279841Y-4234048D01*
X24291664Y-4225280D01*
X24304290Y-4217712D01*
X24317597Y-4211418D01*
X24331457Y-4206459D01*
X24345736Y-4202882D01*
X24360297Y-4200722D01*
X24375000Y-4200000D01*
X25625000Y-4200000D01*
X25639703Y-4200722D01*
X25639703Y-4200722D01*
G37*
D11*
X25000000Y-4500000D03*
D10*
G36*
X25639703Y-3200722D02*
X25654264Y-3202882D01*
X25668543Y-3206459D01*
X25682403Y-3211418D01*
X25695710Y-3217712D01*
X25708336Y-3225280D01*
X25720159Y-3234048D01*
X25731066Y-3243934D01*
X25740952Y-3254841D01*
X25749720Y-3266664D01*
X25757288Y-3279290D01*
X25763582Y-3292597D01*
X25768541Y-3306457D01*
X25772118Y-3320736D01*
X25774278Y-3335297D01*
X25775000Y-3350000D01*
X25775000Y-3650000D01*
X25774278Y-3664703D01*
X25772118Y-3679264D01*
X25768541Y-3693543D01*
X25763582Y-3707403D01*
X25757288Y-3720710D01*
X25749720Y-3733336D01*
X25740952Y-3745159D01*
X25731066Y-3756066D01*
X25720159Y-3765952D01*
X25708336Y-3774720D01*
X25695710Y-3782288D01*
X25682403Y-3788582D01*
X25668543Y-3793541D01*
X25654264Y-3797118D01*
X25639703Y-3799278D01*
X25625000Y-3800000D01*
X24375000Y-3800000D01*
X24360297Y-3799278D01*
X24345736Y-3797118D01*
X24331457Y-3793541D01*
X24317597Y-3788582D01*
X24304290Y-3782288D01*
X24291664Y-3774720D01*
X24279841Y-3765952D01*
X24268934Y-3756066D01*
X24259048Y-3745159D01*
X24250280Y-3733336D01*
X24242712Y-3720710D01*
X24236418Y-3707403D01*
X24231459Y-3693543D01*
X24227882Y-3679264D01*
X24225722Y-3664703D01*
X24225000Y-3650000D01*
X24225000Y-3350000D01*
X24225722Y-3335297D01*
X24227882Y-3320736D01*
X24231459Y-3306457D01*
X24236418Y-3292597D01*
X24242712Y-3279290D01*
X24250280Y-3266664D01*
X24259048Y-3254841D01*
X24268934Y-3243934D01*
X24279841Y-3234048D01*
X24291664Y-3225280D01*
X24304290Y-3217712D01*
X24317597Y-3211418D01*
X24331457Y-3206459D01*
X24345736Y-3202882D01*
X24360297Y-3200722D01*
X24375000Y-3200000D01*
X25625000Y-3200000D01*
X25639703Y-3200722D01*
X25639703Y-3200722D01*
G37*
D11*
X25000000Y-3500000D03*
D10*
G36*
X25639703Y-2200722D02*
X25654264Y-2202882D01*
X25668543Y-2206459D01*
X25682403Y-2211418D01*
X25695710Y-2217712D01*
X25708336Y-2225280D01*
X25720159Y-2234048D01*
X25731066Y-2243934D01*
X25740952Y-2254841D01*
X25749720Y-2266664D01*
X25757288Y-2279290D01*
X25763582Y-2292597D01*
X25768541Y-2306457D01*
X25772118Y-2320736D01*
X25774278Y-2335297D01*
X25775000Y-2350000D01*
X25775000Y-2650000D01*
X25774278Y-2664703D01*
X25772118Y-2679264D01*
X25768541Y-2693543D01*
X25763582Y-2707403D01*
X25757288Y-2720710D01*
X25749720Y-2733336D01*
X25740952Y-2745159D01*
X25731066Y-2756066D01*
X25720159Y-2765952D01*
X25708336Y-2774720D01*
X25695710Y-2782288D01*
X25682403Y-2788582D01*
X25668543Y-2793541D01*
X25654264Y-2797118D01*
X25639703Y-2799278D01*
X25625000Y-2800000D01*
X24375000Y-2800000D01*
X24360297Y-2799278D01*
X24345736Y-2797118D01*
X24331457Y-2793541D01*
X24317597Y-2788582D01*
X24304290Y-2782288D01*
X24291664Y-2774720D01*
X24279841Y-2765952D01*
X24268934Y-2756066D01*
X24259048Y-2745159D01*
X24250280Y-2733336D01*
X24242712Y-2720710D01*
X24236418Y-2707403D01*
X24231459Y-2693543D01*
X24227882Y-2679264D01*
X24225722Y-2664703D01*
X24225000Y-2650000D01*
X24225000Y-2350000D01*
X24225722Y-2335297D01*
X24227882Y-2320736D01*
X24231459Y-2306457D01*
X24236418Y-2292597D01*
X24242712Y-2279290D01*
X24250280Y-2266664D01*
X24259048Y-2254841D01*
X24268934Y-2243934D01*
X24279841Y-2234048D01*
X24291664Y-2225280D01*
X24304290Y-2217712D01*
X24317597Y-2211418D01*
X24331457Y-2206459D01*
X24345736Y-2202882D01*
X24360297Y-2200722D01*
X24375000Y-2200000D01*
X25625000Y-2200000D01*
X25639703Y-2200722D01*
X25639703Y-2200722D01*
G37*
D11*
X25000000Y-2500000D03*
D10*
G36*
X21799505Y-6201204D02*
X21823773Y-6204804D01*
X21847572Y-6210765D01*
X21870671Y-6219030D01*
X21892850Y-6229520D01*
X21913893Y-6242132D01*
X21933599Y-6256747D01*
X21951777Y-6273223D01*
X21968253Y-6291401D01*
X21982868Y-6311107D01*
X21995480Y-6332150D01*
X22005970Y-6354329D01*
X22014235Y-6377428D01*
X22020196Y-6401227D01*
X22023796Y-6425495D01*
X22025000Y-6449999D01*
X22025000Y-7150001D01*
X22023796Y-7174505D01*
X22020196Y-7198773D01*
X22014235Y-7222572D01*
X22005970Y-7245671D01*
X21995480Y-7267850D01*
X21982868Y-7288893D01*
X21968253Y-7308599D01*
X21951777Y-7326777D01*
X21933599Y-7343253D01*
X21913893Y-7357868D01*
X21892850Y-7370480D01*
X21870671Y-7380970D01*
X21847572Y-7389235D01*
X21823773Y-7395196D01*
X21799505Y-7398796D01*
X21775001Y-7400000D01*
X20474999Y-7400000D01*
X20450495Y-7398796D01*
X20426227Y-7395196D01*
X20402428Y-7389235D01*
X20379329Y-7380970D01*
X20357150Y-7370480D01*
X20336107Y-7357868D01*
X20316401Y-7343253D01*
X20298223Y-7326777D01*
X20281747Y-7308599D01*
X20267132Y-7288893D01*
X20254520Y-7267850D01*
X20244030Y-7245671D01*
X20235765Y-7222572D01*
X20229804Y-7198773D01*
X20226204Y-7174505D01*
X20225000Y-7150001D01*
X20225000Y-6449999D01*
X20226204Y-6425495D01*
X20229804Y-6401227D01*
X20235765Y-6377428D01*
X20244030Y-6354329D01*
X20254520Y-6332150D01*
X20267132Y-6311107D01*
X20281747Y-6291401D01*
X20298223Y-6273223D01*
X20316401Y-6256747D01*
X20336107Y-6242132D01*
X20357150Y-6229520D01*
X20379329Y-6219030D01*
X20402428Y-6210765D01*
X20426227Y-6204804D01*
X20450495Y-6201204D01*
X20474999Y-6200000D01*
X21775001Y-6200000D01*
X21799505Y-6201204D01*
X21799505Y-6201204D01*
G37*
D12*
X21125000Y-6800000D03*
D10*
G36*
X21799505Y-601204D02*
X21823773Y-604804D01*
X21847572Y-610765D01*
X21870671Y-619030D01*
X21892850Y-629520D01*
X21913893Y-642132D01*
X21933599Y-656747D01*
X21951777Y-673223D01*
X21968253Y-691401D01*
X21982868Y-711107D01*
X21995480Y-732150D01*
X22005970Y-754329D01*
X22014235Y-777428D01*
X22020196Y-801227D01*
X22023796Y-825495D01*
X22025000Y-849999D01*
X22025000Y-1550001D01*
X22023796Y-1574505D01*
X22020196Y-1598773D01*
X22014235Y-1622572D01*
X22005970Y-1645671D01*
X21995480Y-1667850D01*
X21982868Y-1688893D01*
X21968253Y-1708599D01*
X21951777Y-1726777D01*
X21933599Y-1743253D01*
X21913893Y-1757868D01*
X21892850Y-1770480D01*
X21870671Y-1780970D01*
X21847572Y-1789235D01*
X21823773Y-1795196D01*
X21799505Y-1798796D01*
X21775001Y-1800000D01*
X20474999Y-1800000D01*
X20450495Y-1798796D01*
X20426227Y-1795196D01*
X20402428Y-1789235D01*
X20379329Y-1780970D01*
X20357150Y-1770480D01*
X20336107Y-1757868D01*
X20316401Y-1743253D01*
X20298223Y-1726777D01*
X20281747Y-1708599D01*
X20267132Y-1688893D01*
X20254520Y-1667850D01*
X20244030Y-1645671D01*
X20235765Y-1622572D01*
X20229804Y-1598773D01*
X20226204Y-1574505D01*
X20225000Y-1550001D01*
X20225000Y-849999D01*
X20226204Y-825495D01*
X20229804Y-801227D01*
X20235765Y-777428D01*
X20244030Y-754329D01*
X20254520Y-732150D01*
X20267132Y-711107D01*
X20281747Y-691401D01*
X20298223Y-673223D01*
X20316401Y-656747D01*
X20336107Y-642132D01*
X20357150Y-629520D01*
X20379329Y-619030D01*
X20402428Y-610765D01*
X20426227Y-604804D01*
X20450495Y-601204D01*
X20474999Y-600000D01*
X21775001Y-600000D01*
X21799505Y-601204D01*
X21799505Y-601204D01*
G37*
D12*
X21125000Y-1200000D03*
G04 #@! TD*
M02*
