G04 #@! TF.GenerationSoftware,KiCad,Pcbnew,(5.0.0-rc2-200-g1f6f76beb)*
G04 #@! TF.CreationDate,2020-02-24T23:20:16-05:00*
G04 #@! TF.ProjectId,buttonpanel,627574746F6E70616E656C2E6B696361,rev?*
G04 #@! TF.SameCoordinates,Original*
G04 #@! TF.FileFunction,Profile,NP*
%FSLAX46Y46*%
G04 Gerber Fmt 4.6, Leading zero omitted, Abs format (unit mm)*
G04 Created by KiCad (PCBNEW (5.0.0-rc2-200-g1f6f76beb)) date Mon Feb 24 23:20:16 2020*
%MOMM*%
%LPD*%
G01*
G04 APERTURE LIST*
%ADD10C,0.150000*%
%ADD11C,0.200000*%
G04 APERTURE END LIST*
D10*
X30500000Y0D02*
X39000000Y0D01*
X30500000Y-2000000D02*
X30500000Y0D01*
X28000000Y-2000000D02*
X30500000Y-2000000D01*
X28000000Y0D02*
X28000000Y-2000000D01*
X17000000Y0D02*
X28000000Y0D01*
X17000000Y-2000000D02*
X17000000Y0D01*
X14500000Y-2000000D02*
X17000000Y-2000000D01*
X14500000Y0D02*
X14500000Y-2000000D01*
X6000000Y0D02*
X14500000Y0D01*
X14500000Y-8000000D02*
X6000000Y-8000000D01*
X39000000Y-8000000D02*
X30500000Y-8000000D01*
D11*
X39000000Y0D02*
X39000000Y-8000000D01*
X6000000Y0D02*
X6000000Y-8000000D01*
D10*
X17000000Y-8000000D02*
X28000000Y-8000000D01*
X30500000Y-6000000D02*
X30500000Y-8000000D01*
X28000000Y-6000000D02*
X30500000Y-6000000D01*
X28000000Y-8000000D02*
X28000000Y-6000000D01*
X17000000Y-6000000D02*
X17000000Y-8000000D01*
X14500000Y-6000000D02*
X17000000Y-6000000D01*
X14500000Y-8000000D02*
X14500000Y-6000000D01*
M02*
