G04 #@! TF.GenerationSoftware,KiCad,Pcbnew,(5.0.0-rc2-200-g1f6f76beb)*
G04 #@! TF.CreationDate,2020-02-24T23:20:16-05:00*
G04 #@! TF.ProjectId,buttonpanel,627574746F6E70616E656C2E6B696361,rev?*
G04 #@! TF.SameCoordinates,Original*
G04 #@! TF.FileFunction,Legend,Top*
G04 #@! TF.FilePolarity,Positive*
%FSLAX46Y46*%
G04 Gerber Fmt 4.6, Leading zero omitted, Abs format (unit mm)*
G04 Created by KiCad (PCBNEW (5.0.0-rc2-200-g1f6f76beb)) date Mon Feb 24 23:20:16 2020*
%MOMM*%
%LPD*%
G01*
G04 APERTURE LIST*
%ADD10C,0.120000*%
%ADD11C,0.150000*%
G04 APERTURE END LIST*
D10*
G04 #@! TO.C,SW1*
X7380000Y-2880000D02*
X10620000Y-2880000D01*
X10620000Y-2880000D02*
X10620000Y-2980000D01*
X7380000Y-2880000D02*
X7380000Y-2980000D01*
X7380000Y-5120000D02*
X10620000Y-5120000D01*
X10620000Y-5020000D02*
X10620000Y-5120000D01*
X7380000Y-5020000D02*
X7380000Y-5120000D01*
G04 #@! TO.C,SW2*
X20880000Y-5020000D02*
X20880000Y-5120000D01*
X24120000Y-5020000D02*
X24120000Y-5120000D01*
X20880000Y-5120000D02*
X24120000Y-5120000D01*
X20880000Y-2880000D02*
X20880000Y-2980000D01*
X24120000Y-2880000D02*
X24120000Y-2980000D01*
X20880000Y-2880000D02*
X24120000Y-2880000D01*
G04 #@! TO.C,SW3*
X34380000Y-2880000D02*
X37620000Y-2880000D01*
X37620000Y-2880000D02*
X37620000Y-2980000D01*
X34380000Y-2880000D02*
X34380000Y-2980000D01*
X34380000Y-5120000D02*
X37620000Y-5120000D01*
X37620000Y-5020000D02*
X37620000Y-5120000D01*
X34380000Y-5020000D02*
X34380000Y-5120000D01*
G04 #@! TO.C,SW1*
D11*
X7666666Y-2404761D02*
X7809523Y-2452380D01*
X8047619Y-2452380D01*
X8142857Y-2404761D01*
X8190476Y-2357142D01*
X8238095Y-2261904D01*
X8238095Y-2166666D01*
X8190476Y-2071428D01*
X8142857Y-2023809D01*
X8047619Y-1976190D01*
X7857142Y-1928571D01*
X7761904Y-1880952D01*
X7714285Y-1833333D01*
X7666666Y-1738095D01*
X7666666Y-1642857D01*
X7714285Y-1547619D01*
X7761904Y-1500000D01*
X7857142Y-1452380D01*
X8095238Y-1452380D01*
X8238095Y-1500000D01*
X8571428Y-1452380D02*
X8809523Y-2452380D01*
X9000000Y-1738095D01*
X9190476Y-2452380D01*
X9428571Y-1452380D01*
X10333333Y-2452380D02*
X9761904Y-2452380D01*
X10047619Y-2452380D02*
X10047619Y-1452380D01*
X9952380Y-1595238D01*
X9857142Y-1690476D01*
X9761904Y-1738095D01*
G04 #@! TO.C,SW2*
X21166666Y-2404761D02*
X21309523Y-2452380D01*
X21547619Y-2452380D01*
X21642857Y-2404761D01*
X21690476Y-2357142D01*
X21738095Y-2261904D01*
X21738095Y-2166666D01*
X21690476Y-2071428D01*
X21642857Y-2023809D01*
X21547619Y-1976190D01*
X21357142Y-1928571D01*
X21261904Y-1880952D01*
X21214285Y-1833333D01*
X21166666Y-1738095D01*
X21166666Y-1642857D01*
X21214285Y-1547619D01*
X21261904Y-1500000D01*
X21357142Y-1452380D01*
X21595238Y-1452380D01*
X21738095Y-1500000D01*
X22071428Y-1452380D02*
X22309523Y-2452380D01*
X22500000Y-1738095D01*
X22690476Y-2452380D01*
X22928571Y-1452380D01*
X23261904Y-1547619D02*
X23309523Y-1500000D01*
X23404761Y-1452380D01*
X23642857Y-1452380D01*
X23738095Y-1500000D01*
X23785714Y-1547619D01*
X23833333Y-1642857D01*
X23833333Y-1738095D01*
X23785714Y-1880952D01*
X23214285Y-2452380D01*
X23833333Y-2452380D01*
G04 #@! TO.C,SW3*
X34666666Y-2404761D02*
X34809523Y-2452380D01*
X35047619Y-2452380D01*
X35142857Y-2404761D01*
X35190476Y-2357142D01*
X35238095Y-2261904D01*
X35238095Y-2166666D01*
X35190476Y-2071428D01*
X35142857Y-2023809D01*
X35047619Y-1976190D01*
X34857142Y-1928571D01*
X34761904Y-1880952D01*
X34714285Y-1833333D01*
X34666666Y-1738095D01*
X34666666Y-1642857D01*
X34714285Y-1547619D01*
X34761904Y-1500000D01*
X34857142Y-1452380D01*
X35095238Y-1452380D01*
X35238095Y-1500000D01*
X35571428Y-1452380D02*
X35809523Y-2452380D01*
X36000000Y-1738095D01*
X36190476Y-2452380D01*
X36428571Y-1452380D01*
X36714285Y-1452380D02*
X37333333Y-1452380D01*
X37000000Y-1833333D01*
X37142857Y-1833333D01*
X37238095Y-1880952D01*
X37285714Y-1928571D01*
X37333333Y-2023809D01*
X37333333Y-2261904D01*
X37285714Y-2357142D01*
X37238095Y-2404761D01*
X37142857Y-2452380D01*
X36857142Y-2452380D01*
X36761904Y-2404761D01*
X36714285Y-2357142D01*
G04 #@! TD*
M02*
