%TF.GenerationSoftware,KiCad,Pcbnew,(5.99.0-2309-gaf729d578)*%
%TF.CreationDate,2020-09-01T21:57:29-04:00*%
%TF.ProjectId,flex,666c6578-2e6b-4696-9361-645f70636258,rev?*%
%TF.SameCoordinates,Original*%
%TF.FileFunction,Copper,L1,Top*%
%TF.FilePolarity,Positive*%
%FSLAX46Y46*%
G04 Gerber Fmt 4.6, Leading zero omitted, Abs format (unit mm)*
G04 Created by KiCad (PCBNEW (5.99.0-2309-gaf729d578)) date 2020-09-01 21:57:29*
%MOMM*%
%LPD*%
G01*
G04 APERTURE LIST*
%TA.AperFunction,SMDPad,CuDef*%
%ADD10R,0.450000X1.500000*%
%TD*%
%TA.AperFunction,ViaPad*%
%ADD11C,0.800000*%
%TD*%
%TA.AperFunction,Conductor*%
%ADD12C,0.250000*%
%TD*%
%TA.AperFunction,NonConductor*%
%ADD13C,0.254000*%
%TD*%
G04 APERTURE END LIST*
%TO.P,R3,2*%
%TO.N,Net-(D1-Pad2)*%
%TA.AperFunction,SMDPad,CuDef*%
G36*
G01*
X275150000Y-27993750D02*
X275150000Y-28506250D01*
G75*
G02*
X274931250Y-28725000I-218750J0D01*
G01*
X274493750Y-28725000D01*
G75*
G02*
X274275000Y-28506250I0J218750D01*
G01*
X274275000Y-27993750D01*
G75*
G02*
X274493750Y-27775000I218750J0D01*
G01*
X274931250Y-27775000D01*
G75*
G02*
X275150000Y-27993750I0J-218750D01*
G01*
G37*
%TD.AperFunction*%
%TO.P,R3,1*%
%TO.N,VIN*%
%TA.AperFunction,SMDPad,CuDef*%
G36*
G01*
X276725000Y-27993750D02*
X276725000Y-28506250D01*
G75*
G02*
X276506250Y-28725000I-218750J0D01*
G01*
X276068750Y-28725000D01*
G75*
G02*
X275850000Y-28506250I0J218750D01*
G01*
X275850000Y-27993750D01*
G75*
G02*
X276068750Y-27775000I218750J0D01*
G01*
X276506250Y-27775000D01*
G75*
G02*
X276725000Y-27993750I0J-218750D01*
G01*
G37*
%TD.AperFunction*%
%TD*%
%TO.P,R2,2*%
%TO.N,Net-(D1-Pad2)*%
%TA.AperFunction,SMDPad,CuDef*%
G36*
G01*
X272525000Y-26575000D02*
X272525000Y-29425000D01*
G75*
G02*
X272275000Y-29675000I-250000J0D01*
G01*
X271425000Y-29675000D01*
G75*
G02*
X271175000Y-29425000I0J250000D01*
G01*
X271175000Y-26575000D01*
G75*
G02*
X271425000Y-26325000I250000J0D01*
G01*
X272275000Y-26325000D01*
G75*
G02*
X272525000Y-26575000I0J-250000D01*
G01*
G37*
%TD.AperFunction*%
%TO.P,R2,1*%
%TO.N,VIN*%
%TA.AperFunction,SMDPad,CuDef*%
G36*
G01*
X278325000Y-26575000D02*
X278325000Y-29425000D01*
G75*
G02*
X278075000Y-29675000I-250000J0D01*
G01*
X277225000Y-29675000D01*
G75*
G02*
X276975000Y-29425000I0J250000D01*
G01*
X276975000Y-26575000D01*
G75*
G02*
X277225000Y-26325000I250000J0D01*
G01*
X278075000Y-26325000D01*
G75*
G02*
X278325000Y-26575000I0J-250000D01*
G01*
G37*
%TD.AperFunction*%
%TD*%
%TO.P,R1,2*%
%TO.N,GND*%
%TA.AperFunction,SMDPad,CuDef*%
G36*
G01*
X280412500Y-28361316D02*
X280887500Y-28361316D01*
G75*
G02*
X281125000Y-28598816I0J-237500D01*
G01*
X281125000Y-29173816D01*
G75*
G02*
X280887500Y-29411316I-237500J0D01*
G01*
X280412500Y-29411316D01*
G75*
G02*
X280175000Y-29173816I0J237500D01*
G01*
X280175000Y-28598816D01*
G75*
G02*
X280412500Y-28361316I237500J0D01*
G01*
G37*
%TD.AperFunction*%
%TO.P,R1,1*%
%TO.N,FLASHLIGHT*%
%TA.AperFunction,SMDPad,CuDef*%
G36*
G01*
X280412500Y-26611316D02*
X280887500Y-26611316D01*
G75*
G02*
X281125000Y-26848816I0J-237500D01*
G01*
X281125000Y-27423816D01*
G75*
G02*
X280887500Y-27661316I-237500J0D01*
G01*
X280412500Y-27661316D01*
G75*
G02*
X280175000Y-27423816I0J237500D01*
G01*
X280175000Y-26848816D01*
G75*
G02*
X280412500Y-26611316I237500J0D01*
G01*
G37*
%TD.AperFunction*%
%TD*%
D10*
%TO.P,Q1,3,D*%
%TO.N,Net-(D1-Pad1)*%
X282850000Y-29341316D03*
%TO.P,Q1,2,S*%
%TO.N,GND*%
X282200000Y-26681316D03*
%TO.P,Q1,1,G*%
%TO.N,FLASHLIGHT*%
X283500000Y-26681316D03*
%TD*%
D11*
%TO.N,Net-(D1-Pad1)*%
X270141863Y-30111296D03*
%TO.N,BUTTON4*%
X255750000Y-35250000D03*
X270000000Y-29000000D03*
%TO.N,Net-(D1-Pad1)*%
X272860621Y-30392622D03*
%TO.N,FLASHLIGHT*%
X280581702Y-27505718D03*
%TO.N,GND*%
X279500000Y-28000000D03*
%TO.N,VIN*%
X279069988Y-26929593D03*
%TO.N,GND*%
X275250000Y-26000000D03*
X252625000Y-19650000D03*
%TO.N,BUTTON2*%
X278250000Y-25561316D03*
X256875000Y-19650000D03*
%TO.N,GND*%
X282559026Y-28029513D03*
%TO.N,Net-(D1-Pad2)*%
X258000000Y-43250000D03*
%TO.N,Net-(D1-Pad1)*%
X257374990Y-44500000D03*
%TD*%
D12*
%TO.N,GND*%
X254500000Y-25750000D02*
X252625000Y-23875000D01*
X255776774Y-26000000D02*
X254750000Y-26000000D01*
X254750000Y-26000000D02*
X254500000Y-25750000D01*
%TO.N,Net-(D1-Pad1)*%
X255604356Y-29943754D02*
X269974321Y-29943754D01*
X269974321Y-29943754D02*
X270141863Y-30111296D01*
%TO.N,BUTTON4*%
X254824969Y-34324969D02*
X255750000Y-35250000D01*
%TO.N,Net-(D1-Pad2)*%
X271850000Y-28000000D02*
X271850000Y-29675000D01*
%TO.N,Net-(D1-Pad1)*%
X255174979Y-32674979D02*
X255174979Y-30373131D01*
%TO.N,Net-(D1-Pad2)*%
X269866863Y-30736306D02*
X269516861Y-30386304D01*
%TO.N,Net-(D1-Pad1)*%
X257374990Y-44500000D02*
X257374990Y-34874990D01*
%TO.N,BUTTON4*%
X254824969Y-30228153D02*
X254824969Y-34324969D01*
X270000000Y-29000000D02*
X256053122Y-29000000D01*
%TO.N,Net-(D1-Pad2)*%
X271850000Y-29675000D02*
X270788694Y-30736306D01*
%TO.N,BUTTON4*%
X256053122Y-29000000D02*
X254824969Y-30228153D01*
%TO.N,Net-(D1-Pad1)*%
X255174979Y-30373131D02*
X255604356Y-29943754D01*
%TO.N,Net-(D1-Pad2)*%
X269516861Y-30386304D02*
X256636304Y-30386304D01*
X270788694Y-30736306D02*
X269866863Y-30736306D01*
%TO.N,Net-(D1-Pad1)*%
X257374990Y-34874990D02*
X255174979Y-32674979D01*
%TO.N,Net-(D1-Pad2)*%
X274712500Y-28250000D02*
X274462500Y-28000000D01*
%TO.N,Net-(D1-Pad1)*%
X282850000Y-29866316D02*
X282323694Y-30392622D01*
%TO.N,Net-(D1-Pad2)*%
X274462500Y-28000000D02*
X271850000Y-28000000D01*
%TO.N,FLASHLIGHT*%
X280650000Y-27437420D02*
X280581702Y-27505718D01*
%TO.N,Net-(D1-Pad1)*%
X282850000Y-29341316D02*
X282850000Y-29866316D01*
X282323694Y-30392622D02*
X272860621Y-30392622D01*
%TO.N,FLASHLIGHT*%
X280650000Y-27136316D02*
X280650000Y-27437420D01*
%TO.N,BUTTON2*%
X255524990Y-25475010D02*
X255524990Y-25524990D01*
X278063683Y-25374999D02*
X278250000Y-25561316D01*
X255524990Y-25524990D02*
X255649989Y-25649989D01*
%TO.N,GND*%
X280650000Y-28886316D02*
X280386316Y-28886316D01*
%TO.N,BUTTON2*%
X274675009Y-25649989D02*
X274949999Y-25374999D01*
%TO.N,GND*%
X275250000Y-26000000D02*
X255776774Y-26000000D01*
X280386316Y-28886316D02*
X279500000Y-28000000D01*
%TO.N,VIN*%
X277650000Y-28000000D02*
X278720407Y-26929593D01*
%TO.N,BUTTON2*%
X274949999Y-25374999D02*
X278063683Y-25374999D01*
X255649989Y-25649989D02*
X274675009Y-25649989D01*
%TO.N,VIN*%
X278720407Y-26929593D02*
X279069988Y-26929593D01*
%TO.N,GND*%
X252625000Y-23875000D02*
X252625000Y-19650000D01*
%TO.N,BUTTON2*%
X255524990Y-25475010D02*
X255524990Y-21000010D01*
%TO.N,VIN*%
X276287500Y-28250000D02*
X277400000Y-28250000D01*
X277400000Y-28250000D02*
X277650000Y-28000000D01*
%TO.N,Net-(D1-Pad2)*%
X256613696Y-30386304D02*
X255656796Y-30386304D01*
X271850000Y-28000000D02*
X271850000Y-28400000D01*
%TO.N,BUTTON2*%
X255524990Y-21000010D02*
X256875000Y-19650000D01*
%TO.N,GND*%
X280650000Y-28886316D02*
X281702223Y-28886316D01*
X281702223Y-28886316D02*
X282559026Y-28029513D01*
X282200000Y-26681316D02*
X282559026Y-27040342D01*
X282559026Y-27040342D02*
X282559026Y-28029513D01*
%TO.N,Net-(D1-Pad2)*%
X255524990Y-30518110D02*
X255656796Y-30386304D01*
X258000000Y-43250000D02*
X258000000Y-34979526D01*
X255524990Y-32504516D02*
X255524990Y-30518110D01*
X258000000Y-34979526D02*
X255524990Y-32504516D01*
%TO.N,FLASHLIGHT*%
X283500000Y-26681316D02*
X282524999Y-25706315D01*
X282524999Y-25706315D02*
X281793685Y-25706315D01*
X281793685Y-25706315D02*
X280650000Y-26850000D01*
X280650000Y-26850000D02*
X280650000Y-27136316D01*
%TO.N,GND*%
X282200000Y-27336316D02*
X282200000Y-26681316D01*
%TD*%
D13*
X258624000Y-11984987D02*
X258018926Y-11376000D01*
X258624000Y-11376000D01*
X258624000Y-11984987D01*
%TA.AperFunction,NonConductor*%
G36*
X258624000Y-11984987D02*
G01*
X258018926Y-11376000D01*
X258624000Y-11376000D01*
X258624000Y-11984987D01*
G37*
%TD.AperFunction*%
X250876000Y-11984988D02*
X250876000Y-11376000D01*
X251481074Y-11376000D01*
X250876000Y-11984988D01*
%TA.AperFunction,NonConductor*%
G36*
X250876000Y-11984988D02*
G01*
X250876000Y-11376000D01*
X251481074Y-11376000D01*
X250876000Y-11984988D01*
G37*
%TD.AperFunction*%
X258116001Y-34019312D02*
X256634000Y-32537312D01*
X258116001Y-32537312D01*
X258116001Y-34019312D01*
%TA.AperFunction,NonConductor*%
G36*
X258116001Y-34019312D02*
G01*
X256634000Y-32537312D01*
X258116001Y-32537312D01*
X258116001Y-34019312D01*
G37*
%TD.AperFunction*%
X258116001Y-13272732D02*
X258116000Y-23453018D01*
X256285990Y-23469243D01*
X256285990Y-21315225D01*
X256915216Y-20686000D01*
X257003062Y-20686000D01*
X257019438Y-20683844D01*
X257266835Y-20617554D01*
X257282095Y-20611233D01*
X257503905Y-20483171D01*
X257517009Y-20473116D01*
X257698116Y-20292009D01*
X257708171Y-20278905D01*
X257836233Y-20057095D01*
X257842554Y-20041835D01*
X257908844Y-19794438D01*
X257911000Y-19778062D01*
X257911000Y-19521938D01*
X257908844Y-19505562D01*
X257842554Y-19258165D01*
X257836233Y-19242905D01*
X257708171Y-19021095D01*
X257698116Y-19007991D01*
X257517009Y-18826884D01*
X257503905Y-18816829D01*
X257282095Y-18688767D01*
X257266835Y-18682446D01*
X257019438Y-18616156D01*
X257003062Y-18614000D01*
X256746938Y-18614000D01*
X256730562Y-18616156D01*
X256483165Y-18682446D01*
X256467905Y-18688767D01*
X256246095Y-18816829D01*
X256232991Y-18826884D01*
X256051884Y-19007991D01*
X256041829Y-19021095D01*
X255913767Y-19242905D01*
X255907446Y-19258165D01*
X255841156Y-19505562D01*
X255839000Y-19521938D01*
X255839000Y-19609784D01*
X255057999Y-20390786D01*
X254908755Y-20540030D01*
X254897098Y-20556075D01*
X254874128Y-20601154D01*
X254844383Y-20642095D01*
X254835379Y-20659767D01*
X254819743Y-20707892D01*
X254796773Y-20752970D01*
X254790644Y-20771833D01*
X254782729Y-20821811D01*
X254767093Y-20869932D01*
X254763991Y-20889521D01*
X254763991Y-20950036D01*
X254763990Y-24937773D01*
X253386000Y-23559785D01*
X253386000Y-20354124D01*
X253448116Y-20292009D01*
X253458171Y-20278905D01*
X253586233Y-20057095D01*
X253592554Y-20041835D01*
X253658844Y-19794438D01*
X253661000Y-19778062D01*
X253661000Y-19521938D01*
X253658844Y-19505562D01*
X253592554Y-19258165D01*
X253586233Y-19242905D01*
X253458171Y-19021095D01*
X253448116Y-19007991D01*
X253267009Y-18826884D01*
X253253905Y-18816829D01*
X253032095Y-18688767D01*
X253016835Y-18682446D01*
X252769438Y-18616156D01*
X252753062Y-18614000D01*
X252496938Y-18614000D01*
X252480562Y-18616156D01*
X252233165Y-18682446D01*
X252217905Y-18688767D01*
X251996095Y-18816829D01*
X251982991Y-18826884D01*
X251801884Y-19007991D01*
X251791829Y-19021095D01*
X251663767Y-19242905D01*
X251657446Y-19258165D01*
X251591156Y-19505562D01*
X251589000Y-19521938D01*
X251589000Y-19778062D01*
X251591156Y-19794438D01*
X251657446Y-20041835D01*
X251663767Y-20057095D01*
X251791829Y-20278905D01*
X251801884Y-20292009D01*
X251864001Y-20354125D01*
X251864000Y-23930178D01*
X251864001Y-23930190D01*
X251864001Y-23985489D01*
X251867103Y-24005077D01*
X251882736Y-24053191D01*
X251890653Y-24103176D01*
X251896782Y-24122037D01*
X251919753Y-24167120D01*
X251935390Y-24215245D01*
X251944394Y-24232917D01*
X251974138Y-24273855D01*
X251997106Y-24318933D01*
X252008763Y-24334978D01*
X252165190Y-24491406D01*
X252165194Y-24491409D01*
X254000908Y-26327125D01*
X254000928Y-26327142D01*
X254123052Y-26449266D01*
X254123053Y-26449269D01*
X254290020Y-26616236D01*
X254306066Y-26627894D01*
X254351153Y-26650868D01*
X254392084Y-26680606D01*
X254409755Y-26689610D01*
X254457871Y-26705244D01*
X254502961Y-26728218D01*
X254521823Y-26734347D01*
X254571805Y-26742263D01*
X254619920Y-26757896D01*
X254639508Y-26760999D01*
X254694809Y-26760999D01*
X254694821Y-26761000D01*
X255624000Y-26761000D01*
X255624000Y-28364559D01*
X255609187Y-28372107D01*
X255593142Y-28383764D01*
X255553527Y-28423380D01*
X255553512Y-28423393D01*
X254365163Y-29611744D01*
X254365159Y-29611747D01*
X254208732Y-29768175D01*
X254197075Y-29784220D01*
X254174107Y-29829298D01*
X254144363Y-29870236D01*
X254135359Y-29887908D01*
X254119722Y-29936033D01*
X254096751Y-29981116D01*
X254090622Y-29999977D01*
X254082705Y-30049962D01*
X254067072Y-30098076D01*
X254063970Y-30117664D01*
X254063970Y-30172963D01*
X254063969Y-30172975D01*
X254063970Y-34224396D01*
X254063970Y-34435458D01*
X254067072Y-34455047D01*
X254082708Y-34503168D01*
X254090623Y-34553146D01*
X254096752Y-34572009D01*
X254119722Y-34617087D01*
X254135358Y-34665212D01*
X254144362Y-34682884D01*
X254174107Y-34723825D01*
X254197077Y-34768904D01*
X254208734Y-34784949D01*
X254251525Y-34827739D01*
X254714000Y-35290215D01*
X254714000Y-35378062D01*
X254716156Y-35394438D01*
X254782446Y-35641835D01*
X254788767Y-35657095D01*
X254916829Y-35878905D01*
X254926884Y-35892009D01*
X255107991Y-36073116D01*
X255121095Y-36083171D01*
X255342905Y-36211233D01*
X255358165Y-36217554D01*
X255605562Y-36283844D01*
X255621938Y-36286000D01*
X255878062Y-36286000D01*
X255894438Y-36283844D01*
X256141835Y-36217554D01*
X256157095Y-36211233D01*
X256378905Y-36083171D01*
X256392009Y-36073116D01*
X256573116Y-35892009D01*
X256583171Y-35878905D01*
X256613991Y-35825523D01*
X256613990Y-43795876D01*
X256551874Y-43857991D01*
X256541819Y-43871095D01*
X256413757Y-44092905D01*
X256407436Y-44108165D01*
X256341146Y-44355562D01*
X256338990Y-44371938D01*
X256338990Y-44628062D01*
X256341146Y-44644438D01*
X256407436Y-44891835D01*
X256413757Y-44907095D01*
X256541819Y-45128905D01*
X256551874Y-45142009D01*
X256732981Y-45323116D01*
X256746085Y-45333171D01*
X256967895Y-45461233D01*
X256983155Y-45467554D01*
X257230552Y-45533844D01*
X257246928Y-45536000D01*
X257503052Y-45536000D01*
X257519428Y-45533844D01*
X257766825Y-45467554D01*
X257782085Y-45461233D01*
X258003895Y-45333171D01*
X258016999Y-45323116D01*
X258116001Y-45224114D01*
X258116000Y-50738585D01*
X256736192Y-52127316D01*
X252763809Y-52127316D01*
X251384000Y-50738586D01*
X251384000Y-41737373D01*
X253060972Y-41737373D01*
X253079167Y-41997572D01*
X253080680Y-42007579D01*
X253140242Y-42261522D01*
X253143336Y-42271159D01*
X253242732Y-42512312D01*
X253247327Y-42521330D01*
X253384000Y-42743490D01*
X253389978Y-42751657D01*
X253560412Y-42949107D01*
X253567619Y-42956214D01*
X253767429Y-43123875D01*
X253775680Y-43129738D01*
X253999725Y-43263296D01*
X254008807Y-43267765D01*
X254251325Y-43363784D01*
X254261004Y-43366743D01*
X254515753Y-43422753D01*
X254525781Y-43424127D01*
X254786208Y-43438687D01*
X254796326Y-43438440D01*
X255055731Y-43411176D01*
X255065680Y-43409314D01*
X255317389Y-43340926D01*
X255326913Y-43337498D01*
X255564450Y-43229745D01*
X255573302Y-43224839D01*
X255790556Y-43080496D01*
X255798510Y-43074236D01*
X255989893Y-42897015D01*
X255996744Y-42889564D01*
X256157329Y-42684025D01*
X256162901Y-42675575D01*
X256288559Y-42447004D01*
X256292708Y-42437772D01*
X256380205Y-42192051D01*
X256382824Y-42182275D01*
X256429969Y-41925401D01*
X256431003Y-41914668D01*
X256434083Y-41620573D01*
X256433274Y-41609821D01*
X256391519Y-41352016D01*
X256389105Y-41342186D01*
X256306773Y-41094687D01*
X256302818Y-41085370D01*
X256181974Y-40854218D01*
X256176581Y-40845653D01*
X256020336Y-40636796D01*
X256013642Y-40629204D01*
X255826014Y-40448013D01*
X255818192Y-40441588D01*
X255604008Y-40292727D01*
X255595261Y-40287636D01*
X255360032Y-40174932D01*
X255350583Y-40171305D01*
X255100361Y-40097662D01*
X255090454Y-40095592D01*
X254831676Y-40062900D01*
X254821565Y-40062441D01*
X254560890Y-40071544D01*
X254550836Y-40072708D01*
X254294969Y-40123371D01*
X254285230Y-40126126D01*
X254040756Y-40217045D01*
X254031583Y-40221323D01*
X253804788Y-40350160D01*
X253796417Y-40355849D01*
X253593139Y-40519288D01*
X253585785Y-40526243D01*
X253411253Y-40720081D01*
X253405106Y-40728121D01*
X253263810Y-40947370D01*
X253259027Y-40956290D01*
X253154602Y-41195308D01*
X253151307Y-41204878D01*
X253086440Y-41457518D01*
X253084717Y-41467492D01*
X253061078Y-41727252D01*
X253060972Y-41737373D01*
X251384000Y-41737373D01*
X251384000Y-28237373D01*
X251560972Y-28237373D01*
X251579167Y-28497572D01*
X251580680Y-28507579D01*
X251640242Y-28761522D01*
X251643336Y-28771159D01*
X251742732Y-29012312D01*
X251747327Y-29021330D01*
X251884000Y-29243490D01*
X251889978Y-29251657D01*
X252060412Y-29449107D01*
X252067619Y-29456214D01*
X252267429Y-29623875D01*
X252275680Y-29629738D01*
X252499725Y-29763296D01*
X252508807Y-29767765D01*
X252751325Y-29863784D01*
X252761004Y-29866743D01*
X253015753Y-29922753D01*
X253025781Y-29924127D01*
X253286208Y-29938687D01*
X253296326Y-29938440D01*
X253555731Y-29911176D01*
X253565680Y-29909314D01*
X253817389Y-29840926D01*
X253826913Y-29837498D01*
X254064450Y-29729745D01*
X254073302Y-29724839D01*
X254290556Y-29580496D01*
X254298510Y-29574236D01*
X254489893Y-29397015D01*
X254496744Y-29389564D01*
X254657329Y-29184025D01*
X254662901Y-29175575D01*
X254788559Y-28947004D01*
X254792708Y-28937772D01*
X254880205Y-28692051D01*
X254882824Y-28682275D01*
X254929969Y-28425401D01*
X254931003Y-28414668D01*
X254934083Y-28120573D01*
X254933274Y-28109821D01*
X254891519Y-27852016D01*
X254889105Y-27842186D01*
X254806773Y-27594687D01*
X254802818Y-27585370D01*
X254681974Y-27354218D01*
X254676581Y-27345653D01*
X254520336Y-27136796D01*
X254513642Y-27129204D01*
X254326014Y-26948013D01*
X254318192Y-26941588D01*
X254104008Y-26792727D01*
X254095261Y-26787636D01*
X253860032Y-26674932D01*
X253850583Y-26671305D01*
X253600361Y-26597662D01*
X253590454Y-26595592D01*
X253331676Y-26562900D01*
X253321565Y-26562441D01*
X253060890Y-26571544D01*
X253050836Y-26572708D01*
X252794969Y-26623371D01*
X252785230Y-26626126D01*
X252540756Y-26717045D01*
X252531583Y-26721323D01*
X252304788Y-26850160D01*
X252296417Y-26855849D01*
X252093139Y-27019288D01*
X252085785Y-27026243D01*
X251911253Y-27220081D01*
X251905106Y-27228121D01*
X251763810Y-27447370D01*
X251759027Y-27456290D01*
X251654602Y-27695308D01*
X251651307Y-27704878D01*
X251586440Y-27957518D01*
X251584717Y-27967492D01*
X251561078Y-28227252D01*
X251560972Y-28237373D01*
X251384000Y-28237373D01*
X251384000Y-14737373D01*
X253060972Y-14737373D01*
X253079167Y-14997572D01*
X253080680Y-15007579D01*
X253140242Y-15261522D01*
X253143336Y-15271159D01*
X253242732Y-15512312D01*
X253247327Y-15521330D01*
X253384000Y-15743490D01*
X253389978Y-15751657D01*
X253560412Y-15949107D01*
X253567619Y-15956214D01*
X253767429Y-16123875D01*
X253775680Y-16129738D01*
X253999725Y-16263296D01*
X254008807Y-16267765D01*
X254251325Y-16363784D01*
X254261004Y-16366743D01*
X254515753Y-16422753D01*
X254525781Y-16424127D01*
X254786208Y-16438687D01*
X254796326Y-16438440D01*
X255055731Y-16411176D01*
X255065680Y-16409314D01*
X255317389Y-16340926D01*
X255326913Y-16337498D01*
X255564450Y-16229745D01*
X255573302Y-16224839D01*
X255790556Y-16080496D01*
X255798510Y-16074236D01*
X255989893Y-15897015D01*
X255996744Y-15889564D01*
X256157329Y-15684025D01*
X256162901Y-15675575D01*
X256288559Y-15447004D01*
X256292708Y-15437772D01*
X256380205Y-15192051D01*
X256382824Y-15182275D01*
X256429969Y-14925401D01*
X256431003Y-14914668D01*
X256434083Y-14620573D01*
X256433274Y-14609821D01*
X256391519Y-14352016D01*
X256389105Y-14342186D01*
X256306773Y-14094687D01*
X256302818Y-14085370D01*
X256181974Y-13854218D01*
X256176581Y-13845653D01*
X256020336Y-13636796D01*
X256013642Y-13629204D01*
X255826014Y-13448013D01*
X255818192Y-13441588D01*
X255604008Y-13292727D01*
X255595261Y-13287636D01*
X255360032Y-13174932D01*
X255350583Y-13171305D01*
X255100361Y-13097662D01*
X255090454Y-13095592D01*
X254831676Y-13062900D01*
X254821565Y-13062441D01*
X254560890Y-13071544D01*
X254550836Y-13072708D01*
X254294969Y-13123371D01*
X254285230Y-13126126D01*
X254040756Y-13217045D01*
X254031583Y-13221323D01*
X253804788Y-13350160D01*
X253796417Y-13355849D01*
X253593139Y-13519288D01*
X253585785Y-13526243D01*
X253411253Y-13720081D01*
X253405106Y-13728121D01*
X253263810Y-13947370D01*
X253259027Y-13956290D01*
X253154602Y-14195308D01*
X253151307Y-14204878D01*
X253086440Y-14457518D01*
X253084717Y-14467492D01*
X253061078Y-14727252D01*
X253060972Y-14737373D01*
X251384000Y-14737373D01*
X251384000Y-13272730D01*
X252763809Y-11884000D01*
X256736192Y-11884000D01*
X258116001Y-13272732D01*
%TA.AperFunction,NonConductor*%
G36*
X258116001Y-13272732D02*
G01*
X258116000Y-23453018D01*
X256285990Y-23469243D01*
X256285990Y-21315225D01*
X256915216Y-20686000D01*
X257003062Y-20686000D01*
X257019438Y-20683844D01*
X257266835Y-20617554D01*
X257282095Y-20611233D01*
X257503905Y-20483171D01*
X257517009Y-20473116D01*
X257698116Y-20292009D01*
X257708171Y-20278905D01*
X257836233Y-20057095D01*
X257842554Y-20041835D01*
X257908844Y-19794438D01*
X257911000Y-19778062D01*
X257911000Y-19521938D01*
X257908844Y-19505562D01*
X257842554Y-19258165D01*
X257836233Y-19242905D01*
X257708171Y-19021095D01*
X257698116Y-19007991D01*
X257517009Y-18826884D01*
X257503905Y-18816829D01*
X257282095Y-18688767D01*
X257266835Y-18682446D01*
X257019438Y-18616156D01*
X257003062Y-18614000D01*
X256746938Y-18614000D01*
X256730562Y-18616156D01*
X256483165Y-18682446D01*
X256467905Y-18688767D01*
X256246095Y-18816829D01*
X256232991Y-18826884D01*
X256051884Y-19007991D01*
X256041829Y-19021095D01*
X255913767Y-19242905D01*
X255907446Y-19258165D01*
X255841156Y-19505562D01*
X255839000Y-19521938D01*
X255839000Y-19609784D01*
X255057999Y-20390786D01*
X254908755Y-20540030D01*
X254897098Y-20556075D01*
X254874128Y-20601154D01*
X254844383Y-20642095D01*
X254835379Y-20659767D01*
X254819743Y-20707892D01*
X254796773Y-20752970D01*
X254790644Y-20771833D01*
X254782729Y-20821811D01*
X254767093Y-20869932D01*
X254763991Y-20889521D01*
X254763991Y-20950036D01*
X254763990Y-24937773D01*
X253386000Y-23559785D01*
X253386000Y-20354124D01*
X253448116Y-20292009D01*
X253458171Y-20278905D01*
X253586233Y-20057095D01*
X253592554Y-20041835D01*
X253658844Y-19794438D01*
X253661000Y-19778062D01*
X253661000Y-19521938D01*
X253658844Y-19505562D01*
X253592554Y-19258165D01*
X253586233Y-19242905D01*
X253458171Y-19021095D01*
X253448116Y-19007991D01*
X253267009Y-18826884D01*
X253253905Y-18816829D01*
X253032095Y-18688767D01*
X253016835Y-18682446D01*
X252769438Y-18616156D01*
X252753062Y-18614000D01*
X252496938Y-18614000D01*
X252480562Y-18616156D01*
X252233165Y-18682446D01*
X252217905Y-18688767D01*
X251996095Y-18816829D01*
X251982991Y-18826884D01*
X251801884Y-19007991D01*
X251791829Y-19021095D01*
X251663767Y-19242905D01*
X251657446Y-19258165D01*
X251591156Y-19505562D01*
X251589000Y-19521938D01*
X251589000Y-19778062D01*
X251591156Y-19794438D01*
X251657446Y-20041835D01*
X251663767Y-20057095D01*
X251791829Y-20278905D01*
X251801884Y-20292009D01*
X251864001Y-20354125D01*
X251864000Y-23930178D01*
X251864001Y-23930190D01*
X251864001Y-23985489D01*
X251867103Y-24005077D01*
X251882736Y-24053191D01*
X251890653Y-24103176D01*
X251896782Y-24122037D01*
X251919753Y-24167120D01*
X251935390Y-24215245D01*
X251944394Y-24232917D01*
X251974138Y-24273855D01*
X251997106Y-24318933D01*
X252008763Y-24334978D01*
X252165190Y-24491406D01*
X252165194Y-24491409D01*
X254000908Y-26327125D01*
X254000928Y-26327142D01*
X254123052Y-26449266D01*
X254123053Y-26449269D01*
X254290020Y-26616236D01*
X254306066Y-26627894D01*
X254351153Y-26650868D01*
X254392084Y-26680606D01*
X254409755Y-26689610D01*
X254457871Y-26705244D01*
X254502961Y-26728218D01*
X254521823Y-26734347D01*
X254571805Y-26742263D01*
X254619920Y-26757896D01*
X254639508Y-26760999D01*
X254694809Y-26760999D01*
X254694821Y-26761000D01*
X255624000Y-26761000D01*
X255624000Y-28364559D01*
X255609187Y-28372107D01*
X255593142Y-28383764D01*
X255553527Y-28423380D01*
X255553512Y-28423393D01*
X254365163Y-29611744D01*
X254365159Y-29611747D01*
X254208732Y-29768175D01*
X254197075Y-29784220D01*
X254174107Y-29829298D01*
X254144363Y-29870236D01*
X254135359Y-29887908D01*
X254119722Y-29936033D01*
X254096751Y-29981116D01*
X254090622Y-29999977D01*
X254082705Y-30049962D01*
X254067072Y-30098076D01*
X254063970Y-30117664D01*
X254063970Y-30172963D01*
X254063969Y-30172975D01*
X254063970Y-34224396D01*
X254063970Y-34435458D01*
X254067072Y-34455047D01*
X254082708Y-34503168D01*
X254090623Y-34553146D01*
X254096752Y-34572009D01*
X254119722Y-34617087D01*
X254135358Y-34665212D01*
X254144362Y-34682884D01*
X254174107Y-34723825D01*
X254197077Y-34768904D01*
X254208734Y-34784949D01*
X254251525Y-34827739D01*
X254714000Y-35290215D01*
X254714000Y-35378062D01*
X254716156Y-35394438D01*
X254782446Y-35641835D01*
X254788767Y-35657095D01*
X254916829Y-35878905D01*
X254926884Y-35892009D01*
X255107991Y-36073116D01*
X255121095Y-36083171D01*
X255342905Y-36211233D01*
X255358165Y-36217554D01*
X255605562Y-36283844D01*
X255621938Y-36286000D01*
X255878062Y-36286000D01*
X255894438Y-36283844D01*
X256141835Y-36217554D01*
X256157095Y-36211233D01*
X256378905Y-36083171D01*
X256392009Y-36073116D01*
X256573116Y-35892009D01*
X256583171Y-35878905D01*
X256613991Y-35825523D01*
X256613990Y-43795876D01*
X256551874Y-43857991D01*
X256541819Y-43871095D01*
X256413757Y-44092905D01*
X256407436Y-44108165D01*
X256341146Y-44355562D01*
X256338990Y-44371938D01*
X256338990Y-44628062D01*
X256341146Y-44644438D01*
X256407436Y-44891835D01*
X256413757Y-44907095D01*
X256541819Y-45128905D01*
X256551874Y-45142009D01*
X256732981Y-45323116D01*
X256746085Y-45333171D01*
X256967895Y-45461233D01*
X256983155Y-45467554D01*
X257230552Y-45533844D01*
X257246928Y-45536000D01*
X257503052Y-45536000D01*
X257519428Y-45533844D01*
X257766825Y-45467554D01*
X257782085Y-45461233D01*
X258003895Y-45333171D01*
X258016999Y-45323116D01*
X258116001Y-45224114D01*
X258116000Y-50738585D01*
X256736192Y-52127316D01*
X252763809Y-52127316D01*
X251384000Y-50738586D01*
X251384000Y-41737373D01*
X253060972Y-41737373D01*
X253079167Y-41997572D01*
X253080680Y-42007579D01*
X253140242Y-42261522D01*
X253143336Y-42271159D01*
X253242732Y-42512312D01*
X253247327Y-42521330D01*
X253384000Y-42743490D01*
X253389978Y-42751657D01*
X253560412Y-42949107D01*
X253567619Y-42956214D01*
X253767429Y-43123875D01*
X253775680Y-43129738D01*
X253999725Y-43263296D01*
X254008807Y-43267765D01*
X254251325Y-43363784D01*
X254261004Y-43366743D01*
X254515753Y-43422753D01*
X254525781Y-43424127D01*
X254786208Y-43438687D01*
X254796326Y-43438440D01*
X255055731Y-43411176D01*
X255065680Y-43409314D01*
X255317389Y-43340926D01*
X255326913Y-43337498D01*
X255564450Y-43229745D01*
X255573302Y-43224839D01*
X255790556Y-43080496D01*
X255798510Y-43074236D01*
X255989893Y-42897015D01*
X255996744Y-42889564D01*
X256157329Y-42684025D01*
X256162901Y-42675575D01*
X256288559Y-42447004D01*
X256292708Y-42437772D01*
X256380205Y-42192051D01*
X256382824Y-42182275D01*
X256429969Y-41925401D01*
X256431003Y-41914668D01*
X256434083Y-41620573D01*
X256433274Y-41609821D01*
X256391519Y-41352016D01*
X256389105Y-41342186D01*
X256306773Y-41094687D01*
X256302818Y-41085370D01*
X256181974Y-40854218D01*
X256176581Y-40845653D01*
X256020336Y-40636796D01*
X256013642Y-40629204D01*
X255826014Y-40448013D01*
X255818192Y-40441588D01*
X255604008Y-40292727D01*
X255595261Y-40287636D01*
X255360032Y-40174932D01*
X255350583Y-40171305D01*
X255100361Y-40097662D01*
X255090454Y-40095592D01*
X254831676Y-40062900D01*
X254821565Y-40062441D01*
X254560890Y-40071544D01*
X254550836Y-40072708D01*
X254294969Y-40123371D01*
X254285230Y-40126126D01*
X254040756Y-40217045D01*
X254031583Y-40221323D01*
X253804788Y-40350160D01*
X253796417Y-40355849D01*
X253593139Y-40519288D01*
X253585785Y-40526243D01*
X253411253Y-40720081D01*
X253405106Y-40728121D01*
X253263810Y-40947370D01*
X253259027Y-40956290D01*
X253154602Y-41195308D01*
X253151307Y-41204878D01*
X253086440Y-41457518D01*
X253084717Y-41467492D01*
X253061078Y-41727252D01*
X253060972Y-41737373D01*
X251384000Y-41737373D01*
X251384000Y-28237373D01*
X251560972Y-28237373D01*
X251579167Y-28497572D01*
X251580680Y-28507579D01*
X251640242Y-28761522D01*
X251643336Y-28771159D01*
X251742732Y-29012312D01*
X251747327Y-29021330D01*
X251884000Y-29243490D01*
X251889978Y-29251657D01*
X252060412Y-29449107D01*
X252067619Y-29456214D01*
X252267429Y-29623875D01*
X252275680Y-29629738D01*
X252499725Y-29763296D01*
X252508807Y-29767765D01*
X252751325Y-29863784D01*
X252761004Y-29866743D01*
X253015753Y-29922753D01*
X253025781Y-29924127D01*
X253286208Y-29938687D01*
X253296326Y-29938440D01*
X253555731Y-29911176D01*
X253565680Y-29909314D01*
X253817389Y-29840926D01*
X253826913Y-29837498D01*
X254064450Y-29729745D01*
X254073302Y-29724839D01*
X254290556Y-29580496D01*
X254298510Y-29574236D01*
X254489893Y-29397015D01*
X254496744Y-29389564D01*
X254657329Y-29184025D01*
X254662901Y-29175575D01*
X254788559Y-28947004D01*
X254792708Y-28937772D01*
X254880205Y-28692051D01*
X254882824Y-28682275D01*
X254929969Y-28425401D01*
X254931003Y-28414668D01*
X254934083Y-28120573D01*
X254933274Y-28109821D01*
X254891519Y-27852016D01*
X254889105Y-27842186D01*
X254806773Y-27594687D01*
X254802818Y-27585370D01*
X254681974Y-27354218D01*
X254676581Y-27345653D01*
X254520336Y-27136796D01*
X254513642Y-27129204D01*
X254326014Y-26948013D01*
X254318192Y-26941588D01*
X254104008Y-26792727D01*
X254095261Y-26787636D01*
X253860032Y-26674932D01*
X253850583Y-26671305D01*
X253600361Y-26597662D01*
X253590454Y-26595592D01*
X253331676Y-26562900D01*
X253321565Y-26562441D01*
X253060890Y-26571544D01*
X253050836Y-26572708D01*
X252794969Y-26623371D01*
X252785230Y-26626126D01*
X252540756Y-26717045D01*
X252531583Y-26721323D01*
X252304788Y-26850160D01*
X252296417Y-26855849D01*
X252093139Y-27019288D01*
X252085785Y-27026243D01*
X251911253Y-27220081D01*
X251905106Y-27228121D01*
X251763810Y-27447370D01*
X251759027Y-27456290D01*
X251654602Y-27695308D01*
X251651307Y-27704878D01*
X251586440Y-27957518D01*
X251584717Y-27967492D01*
X251561078Y-28227252D01*
X251560972Y-28237373D01*
X251384000Y-28237373D01*
X251384000Y-14737373D01*
X253060972Y-14737373D01*
X253079167Y-14997572D01*
X253080680Y-15007579D01*
X253140242Y-15261522D01*
X253143336Y-15271159D01*
X253242732Y-15512312D01*
X253247327Y-15521330D01*
X253384000Y-15743490D01*
X253389978Y-15751657D01*
X253560412Y-15949107D01*
X253567619Y-15956214D01*
X253767429Y-16123875D01*
X253775680Y-16129738D01*
X253999725Y-16263296D01*
X254008807Y-16267765D01*
X254251325Y-16363784D01*
X254261004Y-16366743D01*
X254515753Y-16422753D01*
X254525781Y-16424127D01*
X254786208Y-16438687D01*
X254796326Y-16438440D01*
X255055731Y-16411176D01*
X255065680Y-16409314D01*
X255317389Y-16340926D01*
X255326913Y-16337498D01*
X255564450Y-16229745D01*
X255573302Y-16224839D01*
X255790556Y-16080496D01*
X255798510Y-16074236D01*
X255989893Y-15897015D01*
X255996744Y-15889564D01*
X256157329Y-15684025D01*
X256162901Y-15675575D01*
X256288559Y-15447004D01*
X256292708Y-15437772D01*
X256380205Y-15192051D01*
X256382824Y-15182275D01*
X256429969Y-14925401D01*
X256431003Y-14914668D01*
X256434083Y-14620573D01*
X256433274Y-14609821D01*
X256391519Y-14352016D01*
X256389105Y-14342186D01*
X256306773Y-14094687D01*
X256302818Y-14085370D01*
X256181974Y-13854218D01*
X256176581Y-13845653D01*
X256020336Y-13636796D01*
X256013642Y-13629204D01*
X255826014Y-13448013D01*
X255818192Y-13441588D01*
X255604008Y-13292727D01*
X255595261Y-13287636D01*
X255360032Y-13174932D01*
X255350583Y-13171305D01*
X255100361Y-13097662D01*
X255090454Y-13095592D01*
X254831676Y-13062900D01*
X254821565Y-13062441D01*
X254560890Y-13071544D01*
X254550836Y-13072708D01*
X254294969Y-13123371D01*
X254285230Y-13126126D01*
X254040756Y-13217045D01*
X254031583Y-13221323D01*
X253804788Y-13350160D01*
X253796417Y-13355849D01*
X253593139Y-13519288D01*
X253585785Y-13526243D01*
X253411253Y-13720081D01*
X253405106Y-13728121D01*
X253263810Y-13947370D01*
X253259027Y-13956290D01*
X253154602Y-14195308D01*
X253151307Y-14204878D01*
X253086440Y-14457518D01*
X253084717Y-14467492D01*
X253061078Y-14727252D01*
X253060972Y-14737373D01*
X251384000Y-14737373D01*
X251384000Y-13272730D01*
X252763809Y-11884000D01*
X256736192Y-11884000D01*
X258116001Y-13272732D01*
G37*
%TD.AperFunction*%
X251718224Y-52873999D02*
X250876000Y-52873999D01*
X250876000Y-52026329D01*
X251718224Y-52873999D01*
%TA.AperFunction,NonConductor*%
G36*
X251718224Y-52873999D02*
G01*
X250876000Y-52873999D01*
X250876000Y-52026329D01*
X251718224Y-52873999D01*
G37*
%TD.AperFunction*%
X258624000Y-52874001D02*
X257781775Y-52874001D01*
X258624000Y-52026329D01*
X258624000Y-52874001D01*
%TA.AperFunction,NonConductor*%
G36*
X258624000Y-52874001D02*
G01*
X257781775Y-52874001D01*
X258624000Y-52026329D01*
X258624000Y-52874001D01*
G37*
%TD.AperFunction*%
M02*
