%TF.GenerationSoftware,KiCad,Pcbnew,(5.99.0-2309-gaf729d578)*%
%TF.CreationDate,2020-09-01T21:57:30-04:00*%
%TF.ProjectId,flex,666c6578-2e6b-4696-9361-645f70636258,rev?*%
%TF.SameCoordinates,Original*%
%TF.FileFunction,Paste,Bot*%
%TF.FilePolarity,Positive*%
%FSLAX46Y46*%
G04 Gerber Fmt 4.6, Leading zero omitted, Abs format (unit mm)*
G04 Created by KiCad (PCBNEW (5.99.0-2309-gaf729d578)) date 2020-09-01 21:57:30*
%MOMM*%
%LPD*%
G01*
G04 APERTURE LIST*
%ADD10C,0.010000*%
%ADD11R,0.750000X0.700000*%
%ADD12R,0.700000X1.200000*%
%ADD13R,4.780000X0.500000*%
%ADD14R,4.780000X2.780000*%
G04 APERTURE END LIST*
%TO.C,P1*%
G36*
X280920000Y-30011316D02*
G01*
X280719422Y-30011316D01*
X280719422Y-29502276D01*
X280920000Y-29502276D01*
X280920000Y-30011316D01*
G37*
D10*
X280920000Y-30011316D02*
X280719422Y-30011316D01*
X280719422Y-29502276D01*
X280920000Y-29502276D01*
X280920000Y-30011316D01*
G36*
X281320000Y-30011316D02*
G01*
X281119820Y-30011316D01*
X281119820Y-29501856D01*
X281320000Y-29501856D01*
X281320000Y-30011316D01*
G37*
X281320000Y-30011316D02*
X281119820Y-30011316D01*
X281119820Y-29501856D01*
X281320000Y-29501856D01*
X281320000Y-30011316D01*
G36*
X281720000Y-30011316D02*
G01*
X281519940Y-30011316D01*
X281519940Y-29502216D01*
X281720000Y-29502216D01*
X281720000Y-30011316D01*
G37*
X281720000Y-30011316D02*
X281519940Y-30011316D01*
X281519940Y-29502216D01*
X281720000Y-29502216D01*
X281720000Y-30011316D01*
G36*
X282120000Y-30011316D02*
G01*
X281920593Y-30011316D01*
X281920593Y-29504266D01*
X282120000Y-29504266D01*
X282120000Y-30011316D01*
G37*
X282120000Y-30011316D02*
X281920593Y-30011316D01*
X281920593Y-29504266D01*
X282120000Y-29504266D01*
X282120000Y-30011316D01*
G36*
X282520000Y-30011316D02*
G01*
X282321126Y-30011316D01*
X282321126Y-29503716D01*
X282520000Y-29503716D01*
X282520000Y-30011316D01*
G37*
X282520000Y-30011316D02*
X282321126Y-30011316D01*
X282321126Y-29503716D01*
X282520000Y-29503716D01*
X282520000Y-30011316D01*
G36*
X280920000Y-26521316D02*
G01*
X280718920Y-26521316D01*
X280718920Y-26008916D01*
X280920000Y-26008916D01*
X280920000Y-26521316D01*
G37*
X280920000Y-26521316D02*
X280718920Y-26521316D01*
X280718920Y-26008916D01*
X280920000Y-26008916D01*
X280920000Y-26521316D01*
G36*
X281320000Y-26521316D02*
G01*
X281119500Y-26521316D01*
X281119500Y-26009316D01*
X281320000Y-26009316D01*
X281320000Y-26521316D01*
G37*
X281320000Y-26521316D02*
X281119500Y-26521316D01*
X281119500Y-26009316D01*
X281320000Y-26009316D01*
X281320000Y-26521316D01*
G36*
X281720000Y-26521316D02*
G01*
X281519901Y-26521316D01*
X281519901Y-26009336D01*
X281720000Y-26009336D01*
X281720000Y-26521316D01*
G37*
X281720000Y-26521316D02*
X281519901Y-26521316D01*
X281519901Y-26009336D01*
X281720000Y-26009336D01*
X281720000Y-26521316D01*
G36*
X282120000Y-26521316D02*
G01*
X281920410Y-26521316D01*
X281920410Y-26008586D01*
X282120000Y-26008586D01*
X282120000Y-26521316D01*
G37*
X282120000Y-26521316D02*
X281920410Y-26521316D01*
X281920410Y-26008586D01*
X282120000Y-26008586D01*
X282120000Y-26521316D01*
G36*
X282520000Y-26521316D02*
G01*
X282321193Y-26521316D01*
X282321193Y-26007906D01*
X282520000Y-26007906D01*
X282520000Y-26521316D01*
G37*
X282520000Y-26521316D02*
X282321193Y-26521316D01*
X282321193Y-26007906D01*
X282520000Y-26007906D01*
X282520000Y-26521316D01*
%TD*%
D11*
%TO.C,SW2*%
X252625000Y-38150000D03*
X256875000Y-38150000D03*
X252625000Y-34650000D03*
X256875000Y-34650000D03*
%TD*%
%TO.C,SW1*%
X252625000Y-19650000D03*
X256875000Y-19650000D03*
X252625000Y-16150000D03*
X256875000Y-16150000D03*
%TD*%
D12*
%TO.C,P1*%
X279920000Y-29511316D03*
X279920000Y-26511316D03*
X283320000Y-26511316D03*
X283320000Y-29511316D03*
%TD*%
D13*
%TO.C,D1*%
X254750000Y-45110000D03*
X254750000Y-49390000D03*
D14*
X254750000Y-47250000D03*
%TD*%
M02*
