%TF.GenerationSoftware,KiCad,Pcbnew,(5.99.0-2309-gaf729d578)*%
%TF.CreationDate,2020-09-01T21:57:30-04:00*%
%TF.ProjectId,flex,666c6578-2e6b-4696-9361-645f70636258,rev?*%
%TF.SameCoordinates,Original*%
%TF.FileFunction,Copper,L2,Bot*%
%TF.FilePolarity,Positive*%
%FSLAX46Y46*%
G04 Gerber Fmt 4.6, Leading zero omitted, Abs format (unit mm)*
G04 Created by KiCad (PCBNEW (5.99.0-2309-gaf729d578)) date 2020-09-01 21:57:30*
%MOMM*%
%LPD*%
G01*
G04 APERTURE LIST*
%TA.AperFunction,SMDPad,CuDef*%
%ADD10R,0.750000X0.700000*%
%TD*%
%TA.AperFunction,SMDPad,CuDef*%
%ADD11R,0.230000X0.920000*%
%TD*%
%TA.AperFunction,SMDPad,CuDef*%
%ADD12R,0.700000X1.200000*%
%TD*%
%TA.AperFunction,SMDPad,CuDef*%
%ADD13R,4.780000X0.500000*%
%TD*%
%TA.AperFunction,SMDPad,CuDef*%
%ADD14R,4.780000X2.780000*%
%TD*%
%TA.AperFunction,ViaPad*%
%ADD15C,0.800000*%
%TD*%
%TA.AperFunction,Conductor*%
%ADD16C,0.250000*%
%TD*%
%TA.AperFunction,NonConductor*%
%ADD17C,0.254000*%
%TD*%
G04 APERTURE END LIST*
D10*
%TO.P,SW2,2,2*%
%TO.N,GND*%
X252625000Y-38150000D03*
%TO.P,SW2,1,1*%
%TO.N,BUTTON4*%
X256875000Y-38150000D03*
%TO.P,SW2,2,2*%
%TO.N,GND*%
X252625000Y-34650000D03*
%TO.P,SW2,1,1*%
%TO.N,BUTTON4*%
X256875000Y-34650000D03*
%TD*%
%TO.P,SW1,2,2*%
%TO.N,GND*%
X252625000Y-19650000D03*
%TO.P,SW1,1,1*%
%TO.N,BUTTON2*%
X256875000Y-19650000D03*
%TO.P,SW1,2,2*%
%TO.N,GND*%
X252625000Y-16150000D03*
%TO.P,SW1,1,1*%
%TO.N,BUTTON2*%
X256875000Y-16150000D03*
%TD*%
D11*
%TO.P,P1,6,6*%
%TO.N,N/C*%
X281620000Y-29651316D03*
%TO.P,P1,4,4*%
X281220000Y-29651316D03*
%TO.P,P1,8,8*%
X282020000Y-29651316D03*
%TO.P,P1,2,2*%
X280820000Y-29651316D03*
%TO.P,P1,10,10*%
X282420000Y-29651316D03*
%TO.P,P1,5,5*%
%TO.N,BUTTON2*%
X281620000Y-26371316D03*
%TO.P,P1,3,3*%
%TO.N,FLASHLIGHT*%
X281220000Y-26371316D03*
%TO.P,P1,7,7*%
%TO.N,BUTTON4*%
X282020000Y-26371316D03*
%TO.P,P1,1,1*%
%TO.N,VIN*%
X280820000Y-26371316D03*
%TO.P,P1,9,9*%
%TO.N,GND*%
X282420000Y-26371316D03*
D12*
%TO.P,P1,P1*%
%TO.N,N/C*%
X279920000Y-29511316D03*
%TO.P,P1,P3*%
X279920000Y-26511316D03*
%TO.P,P1,P4*%
X283320000Y-26511316D03*
%TO.P,P1,P2*%
X283320000Y-29511316D03*
%TD*%
D13*
%TO.P,D1,1,K*%
%TO.N,Net-(D1-Pad1)*%
X254750000Y-45110000D03*
%TO.P,D1,2,A*%
%TO.N,Net-(D1-Pad2)*%
X254750000Y-49390000D03*
D14*
%TO.P,D1,*%
%TO.N,*%
X254750000Y-47250000D03*
%TD*%
D15*
%TO.N,Net-(D1-Pad1)*%
X270141863Y-30111296D03*
%TO.N,BUTTON4*%
X255750000Y-35250000D03*
X270000000Y-29000000D03*
%TO.N,Net-(D1-Pad1)*%
X272860621Y-30392622D03*
%TO.N,FLASHLIGHT*%
X280581702Y-27505718D03*
%TO.N,GND*%
X279500000Y-28000000D03*
%TO.N,VIN*%
X279069988Y-26929593D03*
%TO.N,GND*%
X275250000Y-26000000D03*
X252625000Y-19650000D03*
%TO.N,BUTTON2*%
X278250000Y-25561316D03*
X256875000Y-19650000D03*
%TO.N,GND*%
X282559026Y-28029513D03*
%TO.N,Net-(D1-Pad2)*%
X258000000Y-43250000D03*
%TO.N,Net-(D1-Pad1)*%
X257374990Y-44500000D03*
%TD*%
D16*
%TO.N,BUTTON4*%
X282020000Y-26371316D02*
X281970010Y-26371316D01*
X271124999Y-28625001D02*
X270750000Y-29000000D01*
X270750000Y-29000000D02*
X270000000Y-29000000D01*
X281970010Y-26371316D02*
X281970010Y-27001308D01*
X280346317Y-28625001D02*
X271124999Y-28625001D01*
%TO.N,Net-(D1-Pad1)*%
X270423189Y-30392622D02*
X270141863Y-30111296D01*
X272860621Y-30392622D02*
X270423189Y-30392622D01*
%TO.N,BUTTON4*%
X281970010Y-27001308D02*
X280346317Y-28625001D01*
X255750000Y-35250000D02*
X256275000Y-35250000D01*
X256275000Y-35250000D02*
X256875000Y-34650000D01*
%TO.N,FLASHLIGHT*%
X281220000Y-26867420D02*
X280581702Y-27505718D01*
X281220000Y-26371316D02*
X281220000Y-26867420D01*
%TO.N,VIN*%
X279069988Y-26006326D02*
X279069988Y-26929593D01*
X280450001Y-25686315D02*
X279389999Y-25686315D01*
X280820000Y-26056314D02*
X280450001Y-25686315D01*
X279389999Y-25686315D02*
X279069988Y-26006326D01*
%TO.N,GND*%
X278934315Y-28000000D02*
X276934315Y-26000000D01*
X279500000Y-28000000D02*
X278934315Y-28000000D01*
X276934315Y-26000000D02*
X275250000Y-26000000D01*
%TO.N,VIN*%
X280820000Y-26371316D02*
X280820000Y-26056314D01*
%TO.N,BUTTON2*%
X278250000Y-25561316D02*
X278475012Y-25336304D01*
X281294988Y-25336304D02*
X281620000Y-25661316D01*
X278475012Y-25336304D02*
X281294988Y-25336304D01*
X281620000Y-25661316D02*
X281620000Y-26371316D01*
%TO.N,GND*%
X252625000Y-34650000D02*
X251900001Y-34650000D01*
X251900001Y-34650000D02*
X251250000Y-33999999D01*
X251250000Y-20300001D02*
X251900001Y-19650000D01*
X251900001Y-19650000D02*
X252625000Y-19650000D01*
X251250000Y-33999999D02*
X251250000Y-20300001D01*
X252625000Y-38150000D02*
X252625000Y-34650000D01*
X252625000Y-16150000D02*
X252625000Y-19650000D01*
%TO.N,BUTTON2*%
X256875000Y-19650000D02*
X256875000Y-16150000D01*
%TO.N,GND*%
X282420000Y-26371316D02*
X282420000Y-27890487D01*
X282420000Y-27890487D02*
X282559026Y-28029513D01*
%TO.N,BUTTON4*%
X256875000Y-38150000D02*
X256875000Y-34650000D01*
%TO.N,Net-(D1-Pad2)*%
X258000000Y-48530000D02*
X258000000Y-43250000D01*
%TO.N,Net-(D1-Pad1)*%
X255360000Y-44500000D02*
X257374990Y-44500000D01*
%TO.N,Net-(D1-Pad2)*%
X254750000Y-49390000D02*
X257140000Y-49390000D01*
X257140000Y-49390000D02*
X258000000Y-48530000D01*
%TO.N,Net-(D1-Pad1)*%
X254750000Y-45110000D02*
X255360000Y-44500000D01*
%TD*%
D17*
X258624000Y-11984987D02*
X258018926Y-11376000D01*
X258624000Y-11376000D01*
X258624000Y-11984987D01*
%TA.AperFunction,NonConductor*%
G36*
X258624000Y-11984987D02*
G01*
X258018926Y-11376000D01*
X258624000Y-11376000D01*
X258624000Y-11984987D01*
G37*
%TD.AperFunction*%
X250876000Y-11984988D02*
X250876000Y-11376000D01*
X251481074Y-11376000D01*
X250876000Y-11984988D01*
%TA.AperFunction,NonConductor*%
G36*
X250876000Y-11984988D02*
G01*
X250876000Y-11376000D01*
X251481074Y-11376000D01*
X250876000Y-11984988D01*
G37*
%TD.AperFunction*%
X258116001Y-13272732D02*
X258116000Y-23453018D01*
X255697021Y-23474465D01*
X255624000Y-23548136D01*
X255624000Y-32463503D01*
X255697809Y-32537312D01*
X258116001Y-32537312D01*
X258116000Y-42214000D01*
X257871938Y-42214000D01*
X257855562Y-42216156D01*
X257608165Y-42282446D01*
X257592905Y-42288767D01*
X257371095Y-42416829D01*
X257357991Y-42426884D01*
X257176884Y-42607991D01*
X257166829Y-42621095D01*
X257038767Y-42842905D01*
X257032446Y-42858165D01*
X256966156Y-43105562D01*
X256964000Y-43121938D01*
X256964000Y-43378062D01*
X256966156Y-43394438D01*
X257001797Y-43527451D01*
X256983155Y-43532446D01*
X256967895Y-43538767D01*
X256746085Y-43666829D01*
X256732981Y-43676884D01*
X256670866Y-43739000D01*
X255304821Y-43739000D01*
X255304809Y-43739001D01*
X255249509Y-43739001D01*
X255229920Y-43742103D01*
X255181805Y-43757737D01*
X255131823Y-43765654D01*
X255112961Y-43771782D01*
X255067873Y-43794755D01*
X255019754Y-43810390D01*
X255002084Y-43819394D01*
X254961150Y-43849134D01*
X254916066Y-43872106D01*
X254900020Y-43883764D01*
X254860404Y-43923381D01*
X254860389Y-43923394D01*
X254565621Y-44218163D01*
X252351742Y-44218163D01*
X252335366Y-44220319D01*
X252056142Y-44295137D01*
X252031662Y-44307880D01*
X251875410Y-44438990D01*
X251861239Y-44455879D01*
X251760641Y-44630120D01*
X251753100Y-44650837D01*
X251719122Y-44843538D01*
X251718163Y-44854499D01*
X251718163Y-45368258D01*
X251720319Y-45384634D01*
X251778027Y-45600006D01*
X251760641Y-45630120D01*
X251753100Y-45650837D01*
X251719122Y-45843538D01*
X251718163Y-45854499D01*
X251718163Y-48648258D01*
X251720319Y-48664634D01*
X251778027Y-48880006D01*
X251760641Y-48910120D01*
X251753100Y-48930837D01*
X251719122Y-49123538D01*
X251718163Y-49134499D01*
X251718163Y-49648258D01*
X251720319Y-49664634D01*
X251795137Y-49943859D01*
X251807880Y-49968339D01*
X251938990Y-50124590D01*
X251955879Y-50138761D01*
X252130120Y-50239359D01*
X252150837Y-50246900D01*
X252343538Y-50280878D01*
X252354499Y-50281837D01*
X257148258Y-50281837D01*
X257164634Y-50279681D01*
X257443859Y-50204863D01*
X257468339Y-50192120D01*
X257624590Y-50061010D01*
X257638761Y-50044121D01*
X257739359Y-49869881D01*
X257741090Y-49865126D01*
X257756407Y-49849809D01*
X257756410Y-49849805D01*
X258116000Y-49490216D01*
X258116000Y-50738585D01*
X256736192Y-52127316D01*
X252763809Y-52127316D01*
X251384000Y-50738586D01*
X251384000Y-41737373D01*
X253060972Y-41737373D01*
X253079167Y-41997572D01*
X253080680Y-42007579D01*
X253140242Y-42261522D01*
X253143336Y-42271159D01*
X253242732Y-42512312D01*
X253247327Y-42521330D01*
X253384000Y-42743490D01*
X253389978Y-42751657D01*
X253560412Y-42949107D01*
X253567619Y-42956214D01*
X253767429Y-43123875D01*
X253775680Y-43129738D01*
X253999725Y-43263296D01*
X254008807Y-43267765D01*
X254251325Y-43363784D01*
X254261004Y-43366743D01*
X254515753Y-43422753D01*
X254525781Y-43424127D01*
X254786208Y-43438687D01*
X254796326Y-43438440D01*
X255055731Y-43411176D01*
X255065680Y-43409314D01*
X255317389Y-43340926D01*
X255326913Y-43337498D01*
X255564450Y-43229745D01*
X255573302Y-43224839D01*
X255790556Y-43080496D01*
X255798510Y-43074236D01*
X255989893Y-42897015D01*
X255996744Y-42889564D01*
X256157329Y-42684025D01*
X256162901Y-42675575D01*
X256288559Y-42447004D01*
X256292708Y-42437772D01*
X256380205Y-42192051D01*
X256382824Y-42182275D01*
X256429969Y-41925401D01*
X256431003Y-41914668D01*
X256434083Y-41620573D01*
X256433274Y-41609821D01*
X256391519Y-41352016D01*
X256389105Y-41342186D01*
X256306773Y-41094687D01*
X256302818Y-41085370D01*
X256181974Y-40854218D01*
X256176581Y-40845653D01*
X256020336Y-40636796D01*
X256013642Y-40629204D01*
X255826014Y-40448013D01*
X255818192Y-40441588D01*
X255604008Y-40292727D01*
X255595261Y-40287636D01*
X255360032Y-40174932D01*
X255350583Y-40171305D01*
X255100361Y-40097662D01*
X255090454Y-40095592D01*
X254831676Y-40062900D01*
X254821565Y-40062441D01*
X254560890Y-40071544D01*
X254550836Y-40072708D01*
X254294969Y-40123371D01*
X254285230Y-40126126D01*
X254040756Y-40217045D01*
X254031583Y-40221323D01*
X253804788Y-40350160D01*
X253796417Y-40355849D01*
X253593139Y-40519288D01*
X253585785Y-40526243D01*
X253411253Y-40720081D01*
X253405106Y-40728121D01*
X253263810Y-40947370D01*
X253259027Y-40956290D01*
X253154602Y-41195308D01*
X253151307Y-41204878D01*
X253086440Y-41457518D01*
X253084717Y-41467492D01*
X253061078Y-41727252D01*
X253060972Y-41737373D01*
X251384000Y-41737373D01*
X251384000Y-35210216D01*
X251400390Y-35226606D01*
X251400405Y-35226619D01*
X251440021Y-35266236D01*
X251456067Y-35277894D01*
X251501151Y-35300866D01*
X251542085Y-35330606D01*
X251559755Y-35339610D01*
X251607874Y-35355245D01*
X251652962Y-35378218D01*
X251671824Y-35384346D01*
X251721806Y-35392263D01*
X251762656Y-35405537D01*
X251828990Y-35484590D01*
X251845879Y-35498761D01*
X251864001Y-35509224D01*
X251864000Y-37296264D01*
X251765410Y-37378990D01*
X251751239Y-37395879D01*
X251650641Y-37570120D01*
X251643100Y-37590837D01*
X251609122Y-37783538D01*
X251608163Y-37794499D01*
X251608163Y-38508258D01*
X251610319Y-38524634D01*
X251685137Y-38803859D01*
X251697880Y-38828339D01*
X251828990Y-38984590D01*
X251845879Y-38998761D01*
X252020120Y-39099359D01*
X252040837Y-39106900D01*
X252233538Y-39140878D01*
X252244499Y-39141837D01*
X253008258Y-39141837D01*
X253024634Y-39139681D01*
X253303859Y-39064863D01*
X253328339Y-39052120D01*
X253484590Y-38921010D01*
X253498761Y-38904121D01*
X253599359Y-38729880D01*
X253606900Y-38709163D01*
X253640878Y-38516462D01*
X253641837Y-38505501D01*
X253641837Y-37791742D01*
X253639681Y-37775366D01*
X253564863Y-37496142D01*
X253552120Y-37471662D01*
X253421010Y-37315410D01*
X253404121Y-37301238D01*
X253386000Y-37290776D01*
X253386000Y-35503736D01*
X253484590Y-35421010D01*
X253498761Y-35404121D01*
X253599359Y-35229880D01*
X253606900Y-35209163D01*
X253622279Y-35121938D01*
X254714000Y-35121938D01*
X254714000Y-35378062D01*
X254716156Y-35394438D01*
X254782446Y-35641835D01*
X254788767Y-35657095D01*
X254916829Y-35878905D01*
X254926884Y-35892009D01*
X255107991Y-36073116D01*
X255121095Y-36083171D01*
X255342905Y-36211233D01*
X255358165Y-36217554D01*
X255605562Y-36283844D01*
X255621938Y-36286000D01*
X255878062Y-36286000D01*
X255894438Y-36283844D01*
X256114001Y-36225012D01*
X256114000Y-37296264D01*
X256015410Y-37378990D01*
X256001239Y-37395879D01*
X255900641Y-37570120D01*
X255893100Y-37590837D01*
X255859122Y-37783538D01*
X255858163Y-37794499D01*
X255858163Y-38508258D01*
X255860319Y-38524634D01*
X255935137Y-38803859D01*
X255947880Y-38828339D01*
X256078990Y-38984590D01*
X256095879Y-38998761D01*
X256270120Y-39099359D01*
X256290837Y-39106900D01*
X256483538Y-39140878D01*
X256494499Y-39141837D01*
X257258258Y-39141837D01*
X257274634Y-39139681D01*
X257553859Y-39064863D01*
X257578339Y-39052120D01*
X257734590Y-38921010D01*
X257748761Y-38904121D01*
X257849359Y-38729880D01*
X257856900Y-38709163D01*
X257890878Y-38516462D01*
X257891837Y-38505501D01*
X257891837Y-37791742D01*
X257889681Y-37775366D01*
X257814863Y-37496142D01*
X257802120Y-37471662D01*
X257671010Y-37315410D01*
X257654121Y-37301238D01*
X257636000Y-37290776D01*
X257636000Y-35503736D01*
X257734590Y-35421010D01*
X257748761Y-35404121D01*
X257849359Y-35229880D01*
X257856900Y-35209163D01*
X257890878Y-35016462D01*
X257891837Y-35005501D01*
X257891837Y-34291742D01*
X257889681Y-34275366D01*
X257814863Y-33996142D01*
X257802120Y-33971662D01*
X257671010Y-33815410D01*
X257654121Y-33801239D01*
X257479880Y-33700641D01*
X257459163Y-33693100D01*
X257266462Y-33659122D01*
X257255501Y-33658163D01*
X256491742Y-33658163D01*
X256475366Y-33660319D01*
X256196142Y-33735137D01*
X256171662Y-33747880D01*
X256015410Y-33878990D01*
X256001239Y-33895879D01*
X255900641Y-34070120D01*
X255893100Y-34090837D01*
X255871383Y-34214000D01*
X255621938Y-34214000D01*
X255605562Y-34216156D01*
X255358165Y-34282446D01*
X255342905Y-34288767D01*
X255121095Y-34416829D01*
X255107991Y-34426884D01*
X254926884Y-34607991D01*
X254916829Y-34621095D01*
X254788767Y-34842905D01*
X254782446Y-34858165D01*
X254716156Y-35105562D01*
X254714000Y-35121938D01*
X253622279Y-35121938D01*
X253640878Y-35016462D01*
X253641837Y-35005501D01*
X253641837Y-34291742D01*
X253639681Y-34275366D01*
X253564863Y-33996142D01*
X253552120Y-33971662D01*
X253421010Y-33815410D01*
X253404121Y-33801239D01*
X253229880Y-33700641D01*
X253209163Y-33693100D01*
X253016462Y-33659122D01*
X253005501Y-33658163D01*
X252241742Y-33658163D01*
X252225366Y-33660319D01*
X252037005Y-33710789D01*
X252011000Y-33684784D01*
X252011000Y-29391863D01*
X252060412Y-29449107D01*
X252067619Y-29456214D01*
X252267429Y-29623875D01*
X252275680Y-29629738D01*
X252499725Y-29763296D01*
X252508807Y-29767765D01*
X252751325Y-29863784D01*
X252761004Y-29866743D01*
X253015753Y-29922753D01*
X253025781Y-29924127D01*
X253286208Y-29938687D01*
X253296326Y-29938440D01*
X253555731Y-29911176D01*
X253565680Y-29909314D01*
X253817389Y-29840926D01*
X253826913Y-29837498D01*
X254064450Y-29729745D01*
X254073302Y-29724839D01*
X254290556Y-29580496D01*
X254298510Y-29574236D01*
X254489893Y-29397015D01*
X254496744Y-29389564D01*
X254657329Y-29184025D01*
X254662901Y-29175575D01*
X254788559Y-28947004D01*
X254792708Y-28937772D01*
X254880205Y-28692051D01*
X254882824Y-28682275D01*
X254929969Y-28425401D01*
X254931003Y-28414668D01*
X254934083Y-28120573D01*
X254933274Y-28109821D01*
X254891519Y-27852016D01*
X254889105Y-27842186D01*
X254806773Y-27594687D01*
X254802818Y-27585370D01*
X254681974Y-27354218D01*
X254676581Y-27345653D01*
X254520336Y-27136796D01*
X254513642Y-27129204D01*
X254326014Y-26948013D01*
X254318192Y-26941588D01*
X254104008Y-26792727D01*
X254095261Y-26787636D01*
X253860032Y-26674932D01*
X253850583Y-26671305D01*
X253600361Y-26597662D01*
X253590454Y-26595592D01*
X253331676Y-26562900D01*
X253321565Y-26562441D01*
X253060890Y-26571544D01*
X253050836Y-26572708D01*
X252794969Y-26623371D01*
X252785230Y-26626126D01*
X252540756Y-26717045D01*
X252531583Y-26721323D01*
X252304788Y-26850160D01*
X252296417Y-26855849D01*
X252093139Y-27019288D01*
X252085785Y-27026243D01*
X252011000Y-27109300D01*
X252011000Y-20615216D01*
X252025059Y-20601157D01*
X252040837Y-20606900D01*
X252233538Y-20640878D01*
X252244499Y-20641837D01*
X252323789Y-20641837D01*
X252480562Y-20683844D01*
X252496937Y-20686000D01*
X252753063Y-20686000D01*
X252769438Y-20683844D01*
X252926211Y-20641837D01*
X253008258Y-20641837D01*
X253024634Y-20639681D01*
X253303859Y-20564863D01*
X253328339Y-20552120D01*
X253484590Y-20421010D01*
X253498761Y-20404121D01*
X253599359Y-20229880D01*
X253606900Y-20209163D01*
X253640878Y-20016462D01*
X253641837Y-20005501D01*
X253641837Y-19857910D01*
X253658844Y-19794438D01*
X253661000Y-19778063D01*
X253661000Y-19521937D01*
X253658844Y-19505562D01*
X253641837Y-19442090D01*
X253641837Y-19291742D01*
X253639681Y-19275366D01*
X253564863Y-18996142D01*
X253552120Y-18971662D01*
X253421010Y-18815410D01*
X253404121Y-18801238D01*
X253386000Y-18790776D01*
X253386000Y-17003736D01*
X253484590Y-16921010D01*
X253498761Y-16904121D01*
X253599359Y-16729880D01*
X253606900Y-16709163D01*
X253640878Y-16516462D01*
X253641837Y-16505501D01*
X253641837Y-16018490D01*
X253767429Y-16123875D01*
X253775680Y-16129738D01*
X253999725Y-16263296D01*
X254008807Y-16267765D01*
X254251325Y-16363784D01*
X254261004Y-16366743D01*
X254515753Y-16422753D01*
X254525781Y-16424127D01*
X254786208Y-16438687D01*
X254796326Y-16438440D01*
X255055731Y-16411176D01*
X255065680Y-16409314D01*
X255317389Y-16340926D01*
X255326913Y-16337498D01*
X255564450Y-16229745D01*
X255573302Y-16224839D01*
X255790556Y-16080496D01*
X255798510Y-16074236D01*
X255858163Y-16018997D01*
X255858163Y-16508258D01*
X255860319Y-16524634D01*
X255935137Y-16803859D01*
X255947880Y-16828339D01*
X256078990Y-16984590D01*
X256095879Y-16998761D01*
X256114001Y-17009224D01*
X256114000Y-18796264D01*
X256015410Y-18878990D01*
X256001239Y-18895879D01*
X255900641Y-19070120D01*
X255893100Y-19090837D01*
X255859122Y-19283538D01*
X255858163Y-19294499D01*
X255858163Y-19442090D01*
X255841156Y-19505562D01*
X255839000Y-19521937D01*
X255839000Y-19778063D01*
X255841156Y-19794438D01*
X255858163Y-19857910D01*
X255858163Y-20008258D01*
X255860319Y-20024634D01*
X255935137Y-20303859D01*
X255947880Y-20328339D01*
X256078990Y-20484590D01*
X256095879Y-20498761D01*
X256270120Y-20599359D01*
X256290837Y-20606900D01*
X256483538Y-20640878D01*
X256494499Y-20641837D01*
X256573789Y-20641837D01*
X256730562Y-20683844D01*
X256746937Y-20686000D01*
X257003063Y-20686000D01*
X257019438Y-20683844D01*
X257176211Y-20641837D01*
X257258258Y-20641837D01*
X257274634Y-20639681D01*
X257553859Y-20564863D01*
X257578339Y-20552120D01*
X257734590Y-20421010D01*
X257748761Y-20404121D01*
X257849359Y-20229880D01*
X257856900Y-20209163D01*
X257890878Y-20016462D01*
X257891837Y-20005501D01*
X257891837Y-19857910D01*
X257908844Y-19794438D01*
X257911000Y-19778063D01*
X257911000Y-19521937D01*
X257908844Y-19505562D01*
X257891837Y-19442090D01*
X257891837Y-19291742D01*
X257889681Y-19275366D01*
X257814863Y-18996142D01*
X257802120Y-18971662D01*
X257671010Y-18815410D01*
X257654121Y-18801238D01*
X257636000Y-18790776D01*
X257636000Y-17003736D01*
X257734590Y-16921010D01*
X257748761Y-16904121D01*
X257849359Y-16729880D01*
X257856900Y-16709163D01*
X257890878Y-16516462D01*
X257891837Y-16505501D01*
X257891837Y-15791742D01*
X257889681Y-15775366D01*
X257814863Y-15496142D01*
X257802120Y-15471662D01*
X257671010Y-15315410D01*
X257654121Y-15301239D01*
X257479880Y-15200641D01*
X257459163Y-15193100D01*
X257266462Y-15159122D01*
X257255501Y-15158163D01*
X256491742Y-15158163D01*
X256475366Y-15160319D01*
X256382004Y-15185335D01*
X256382824Y-15182275D01*
X256429969Y-14925401D01*
X256431003Y-14914668D01*
X256434083Y-14620573D01*
X256433274Y-14609821D01*
X256391519Y-14352016D01*
X256389105Y-14342186D01*
X256306773Y-14094687D01*
X256302818Y-14085370D01*
X256181974Y-13854218D01*
X256176581Y-13845653D01*
X256020336Y-13636796D01*
X256013642Y-13629204D01*
X255826014Y-13448013D01*
X255818192Y-13441588D01*
X255604008Y-13292727D01*
X255595261Y-13287636D01*
X255360032Y-13174932D01*
X255350583Y-13171305D01*
X255100361Y-13097662D01*
X255090454Y-13095592D01*
X254831676Y-13062900D01*
X254821565Y-13062441D01*
X254560890Y-13071544D01*
X254550836Y-13072708D01*
X254294969Y-13123371D01*
X254285230Y-13126126D01*
X254040756Y-13217045D01*
X254031583Y-13221323D01*
X253804788Y-13350160D01*
X253796417Y-13355849D01*
X253593139Y-13519288D01*
X253585785Y-13526243D01*
X253411253Y-13720081D01*
X253405106Y-13728121D01*
X253263810Y-13947370D01*
X253259027Y-13956290D01*
X253154602Y-14195308D01*
X253151307Y-14204878D01*
X253086440Y-14457518D01*
X253084717Y-14467492D01*
X253061078Y-14727252D01*
X253060972Y-14737373D01*
X253079167Y-14997572D01*
X253080680Y-15007579D01*
X253120528Y-15177471D01*
X253016462Y-15159122D01*
X253005501Y-15158163D01*
X252241742Y-15158163D01*
X252225366Y-15160319D01*
X251946142Y-15235137D01*
X251921662Y-15247880D01*
X251765410Y-15378990D01*
X251751239Y-15395879D01*
X251650641Y-15570120D01*
X251643100Y-15590837D01*
X251609122Y-15783538D01*
X251608163Y-15794499D01*
X251608163Y-16508258D01*
X251610319Y-16524634D01*
X251685137Y-16803859D01*
X251697880Y-16828339D01*
X251828990Y-16984590D01*
X251845880Y-16998762D01*
X251864000Y-17009223D01*
X251864001Y-18796263D01*
X251765410Y-18878990D01*
X251751239Y-18895879D01*
X251749608Y-18898703D01*
X251721806Y-18907737D01*
X251671824Y-18915654D01*
X251652962Y-18921782D01*
X251607874Y-18944755D01*
X251559755Y-18960390D01*
X251542085Y-18969394D01*
X251501151Y-18999134D01*
X251456067Y-19022106D01*
X251440021Y-19033764D01*
X251400405Y-19073381D01*
X251400390Y-19073394D01*
X251384000Y-19089784D01*
X251384000Y-13272730D01*
X252763809Y-11884000D01*
X256736192Y-11884000D01*
X258116001Y-13272732D01*
%TA.AperFunction,NonConductor*%
G36*
X258116001Y-13272732D02*
G01*
X258116000Y-23453018D01*
X255697021Y-23474465D01*
X255624000Y-23548136D01*
X255624000Y-32463503D01*
X255697809Y-32537312D01*
X258116001Y-32537312D01*
X258116000Y-42214000D01*
X257871938Y-42214000D01*
X257855562Y-42216156D01*
X257608165Y-42282446D01*
X257592905Y-42288767D01*
X257371095Y-42416829D01*
X257357991Y-42426884D01*
X257176884Y-42607991D01*
X257166829Y-42621095D01*
X257038767Y-42842905D01*
X257032446Y-42858165D01*
X256966156Y-43105562D01*
X256964000Y-43121938D01*
X256964000Y-43378062D01*
X256966156Y-43394438D01*
X257001797Y-43527451D01*
X256983155Y-43532446D01*
X256967895Y-43538767D01*
X256746085Y-43666829D01*
X256732981Y-43676884D01*
X256670866Y-43739000D01*
X255304821Y-43739000D01*
X255304809Y-43739001D01*
X255249509Y-43739001D01*
X255229920Y-43742103D01*
X255181805Y-43757737D01*
X255131823Y-43765654D01*
X255112961Y-43771782D01*
X255067873Y-43794755D01*
X255019754Y-43810390D01*
X255002084Y-43819394D01*
X254961150Y-43849134D01*
X254916066Y-43872106D01*
X254900020Y-43883764D01*
X254860404Y-43923381D01*
X254860389Y-43923394D01*
X254565621Y-44218163D01*
X252351742Y-44218163D01*
X252335366Y-44220319D01*
X252056142Y-44295137D01*
X252031662Y-44307880D01*
X251875410Y-44438990D01*
X251861239Y-44455879D01*
X251760641Y-44630120D01*
X251753100Y-44650837D01*
X251719122Y-44843538D01*
X251718163Y-44854499D01*
X251718163Y-45368258D01*
X251720319Y-45384634D01*
X251778027Y-45600006D01*
X251760641Y-45630120D01*
X251753100Y-45650837D01*
X251719122Y-45843538D01*
X251718163Y-45854499D01*
X251718163Y-48648258D01*
X251720319Y-48664634D01*
X251778027Y-48880006D01*
X251760641Y-48910120D01*
X251753100Y-48930837D01*
X251719122Y-49123538D01*
X251718163Y-49134499D01*
X251718163Y-49648258D01*
X251720319Y-49664634D01*
X251795137Y-49943859D01*
X251807880Y-49968339D01*
X251938990Y-50124590D01*
X251955879Y-50138761D01*
X252130120Y-50239359D01*
X252150837Y-50246900D01*
X252343538Y-50280878D01*
X252354499Y-50281837D01*
X257148258Y-50281837D01*
X257164634Y-50279681D01*
X257443859Y-50204863D01*
X257468339Y-50192120D01*
X257624590Y-50061010D01*
X257638761Y-50044121D01*
X257739359Y-49869881D01*
X257741090Y-49865126D01*
X257756407Y-49849809D01*
X257756410Y-49849805D01*
X258116000Y-49490216D01*
X258116000Y-50738585D01*
X256736192Y-52127316D01*
X252763809Y-52127316D01*
X251384000Y-50738586D01*
X251384000Y-41737373D01*
X253060972Y-41737373D01*
X253079167Y-41997572D01*
X253080680Y-42007579D01*
X253140242Y-42261522D01*
X253143336Y-42271159D01*
X253242732Y-42512312D01*
X253247327Y-42521330D01*
X253384000Y-42743490D01*
X253389978Y-42751657D01*
X253560412Y-42949107D01*
X253567619Y-42956214D01*
X253767429Y-43123875D01*
X253775680Y-43129738D01*
X253999725Y-43263296D01*
X254008807Y-43267765D01*
X254251325Y-43363784D01*
X254261004Y-43366743D01*
X254515753Y-43422753D01*
X254525781Y-43424127D01*
X254786208Y-43438687D01*
X254796326Y-43438440D01*
X255055731Y-43411176D01*
X255065680Y-43409314D01*
X255317389Y-43340926D01*
X255326913Y-43337498D01*
X255564450Y-43229745D01*
X255573302Y-43224839D01*
X255790556Y-43080496D01*
X255798510Y-43074236D01*
X255989893Y-42897015D01*
X255996744Y-42889564D01*
X256157329Y-42684025D01*
X256162901Y-42675575D01*
X256288559Y-42447004D01*
X256292708Y-42437772D01*
X256380205Y-42192051D01*
X256382824Y-42182275D01*
X256429969Y-41925401D01*
X256431003Y-41914668D01*
X256434083Y-41620573D01*
X256433274Y-41609821D01*
X256391519Y-41352016D01*
X256389105Y-41342186D01*
X256306773Y-41094687D01*
X256302818Y-41085370D01*
X256181974Y-40854218D01*
X256176581Y-40845653D01*
X256020336Y-40636796D01*
X256013642Y-40629204D01*
X255826014Y-40448013D01*
X255818192Y-40441588D01*
X255604008Y-40292727D01*
X255595261Y-40287636D01*
X255360032Y-40174932D01*
X255350583Y-40171305D01*
X255100361Y-40097662D01*
X255090454Y-40095592D01*
X254831676Y-40062900D01*
X254821565Y-40062441D01*
X254560890Y-40071544D01*
X254550836Y-40072708D01*
X254294969Y-40123371D01*
X254285230Y-40126126D01*
X254040756Y-40217045D01*
X254031583Y-40221323D01*
X253804788Y-40350160D01*
X253796417Y-40355849D01*
X253593139Y-40519288D01*
X253585785Y-40526243D01*
X253411253Y-40720081D01*
X253405106Y-40728121D01*
X253263810Y-40947370D01*
X253259027Y-40956290D01*
X253154602Y-41195308D01*
X253151307Y-41204878D01*
X253086440Y-41457518D01*
X253084717Y-41467492D01*
X253061078Y-41727252D01*
X253060972Y-41737373D01*
X251384000Y-41737373D01*
X251384000Y-35210216D01*
X251400390Y-35226606D01*
X251400405Y-35226619D01*
X251440021Y-35266236D01*
X251456067Y-35277894D01*
X251501151Y-35300866D01*
X251542085Y-35330606D01*
X251559755Y-35339610D01*
X251607874Y-35355245D01*
X251652962Y-35378218D01*
X251671824Y-35384346D01*
X251721806Y-35392263D01*
X251762656Y-35405537D01*
X251828990Y-35484590D01*
X251845879Y-35498761D01*
X251864001Y-35509224D01*
X251864000Y-37296264D01*
X251765410Y-37378990D01*
X251751239Y-37395879D01*
X251650641Y-37570120D01*
X251643100Y-37590837D01*
X251609122Y-37783538D01*
X251608163Y-37794499D01*
X251608163Y-38508258D01*
X251610319Y-38524634D01*
X251685137Y-38803859D01*
X251697880Y-38828339D01*
X251828990Y-38984590D01*
X251845879Y-38998761D01*
X252020120Y-39099359D01*
X252040837Y-39106900D01*
X252233538Y-39140878D01*
X252244499Y-39141837D01*
X253008258Y-39141837D01*
X253024634Y-39139681D01*
X253303859Y-39064863D01*
X253328339Y-39052120D01*
X253484590Y-38921010D01*
X253498761Y-38904121D01*
X253599359Y-38729880D01*
X253606900Y-38709163D01*
X253640878Y-38516462D01*
X253641837Y-38505501D01*
X253641837Y-37791742D01*
X253639681Y-37775366D01*
X253564863Y-37496142D01*
X253552120Y-37471662D01*
X253421010Y-37315410D01*
X253404121Y-37301238D01*
X253386000Y-37290776D01*
X253386000Y-35503736D01*
X253484590Y-35421010D01*
X253498761Y-35404121D01*
X253599359Y-35229880D01*
X253606900Y-35209163D01*
X253622279Y-35121938D01*
X254714000Y-35121938D01*
X254714000Y-35378062D01*
X254716156Y-35394438D01*
X254782446Y-35641835D01*
X254788767Y-35657095D01*
X254916829Y-35878905D01*
X254926884Y-35892009D01*
X255107991Y-36073116D01*
X255121095Y-36083171D01*
X255342905Y-36211233D01*
X255358165Y-36217554D01*
X255605562Y-36283844D01*
X255621938Y-36286000D01*
X255878062Y-36286000D01*
X255894438Y-36283844D01*
X256114001Y-36225012D01*
X256114000Y-37296264D01*
X256015410Y-37378990D01*
X256001239Y-37395879D01*
X255900641Y-37570120D01*
X255893100Y-37590837D01*
X255859122Y-37783538D01*
X255858163Y-37794499D01*
X255858163Y-38508258D01*
X255860319Y-38524634D01*
X255935137Y-38803859D01*
X255947880Y-38828339D01*
X256078990Y-38984590D01*
X256095879Y-38998761D01*
X256270120Y-39099359D01*
X256290837Y-39106900D01*
X256483538Y-39140878D01*
X256494499Y-39141837D01*
X257258258Y-39141837D01*
X257274634Y-39139681D01*
X257553859Y-39064863D01*
X257578339Y-39052120D01*
X257734590Y-38921010D01*
X257748761Y-38904121D01*
X257849359Y-38729880D01*
X257856900Y-38709163D01*
X257890878Y-38516462D01*
X257891837Y-38505501D01*
X257891837Y-37791742D01*
X257889681Y-37775366D01*
X257814863Y-37496142D01*
X257802120Y-37471662D01*
X257671010Y-37315410D01*
X257654121Y-37301238D01*
X257636000Y-37290776D01*
X257636000Y-35503736D01*
X257734590Y-35421010D01*
X257748761Y-35404121D01*
X257849359Y-35229880D01*
X257856900Y-35209163D01*
X257890878Y-35016462D01*
X257891837Y-35005501D01*
X257891837Y-34291742D01*
X257889681Y-34275366D01*
X257814863Y-33996142D01*
X257802120Y-33971662D01*
X257671010Y-33815410D01*
X257654121Y-33801239D01*
X257479880Y-33700641D01*
X257459163Y-33693100D01*
X257266462Y-33659122D01*
X257255501Y-33658163D01*
X256491742Y-33658163D01*
X256475366Y-33660319D01*
X256196142Y-33735137D01*
X256171662Y-33747880D01*
X256015410Y-33878990D01*
X256001239Y-33895879D01*
X255900641Y-34070120D01*
X255893100Y-34090837D01*
X255871383Y-34214000D01*
X255621938Y-34214000D01*
X255605562Y-34216156D01*
X255358165Y-34282446D01*
X255342905Y-34288767D01*
X255121095Y-34416829D01*
X255107991Y-34426884D01*
X254926884Y-34607991D01*
X254916829Y-34621095D01*
X254788767Y-34842905D01*
X254782446Y-34858165D01*
X254716156Y-35105562D01*
X254714000Y-35121938D01*
X253622279Y-35121938D01*
X253640878Y-35016462D01*
X253641837Y-35005501D01*
X253641837Y-34291742D01*
X253639681Y-34275366D01*
X253564863Y-33996142D01*
X253552120Y-33971662D01*
X253421010Y-33815410D01*
X253404121Y-33801239D01*
X253229880Y-33700641D01*
X253209163Y-33693100D01*
X253016462Y-33659122D01*
X253005501Y-33658163D01*
X252241742Y-33658163D01*
X252225366Y-33660319D01*
X252037005Y-33710789D01*
X252011000Y-33684784D01*
X252011000Y-29391863D01*
X252060412Y-29449107D01*
X252067619Y-29456214D01*
X252267429Y-29623875D01*
X252275680Y-29629738D01*
X252499725Y-29763296D01*
X252508807Y-29767765D01*
X252751325Y-29863784D01*
X252761004Y-29866743D01*
X253015753Y-29922753D01*
X253025781Y-29924127D01*
X253286208Y-29938687D01*
X253296326Y-29938440D01*
X253555731Y-29911176D01*
X253565680Y-29909314D01*
X253817389Y-29840926D01*
X253826913Y-29837498D01*
X254064450Y-29729745D01*
X254073302Y-29724839D01*
X254290556Y-29580496D01*
X254298510Y-29574236D01*
X254489893Y-29397015D01*
X254496744Y-29389564D01*
X254657329Y-29184025D01*
X254662901Y-29175575D01*
X254788559Y-28947004D01*
X254792708Y-28937772D01*
X254880205Y-28692051D01*
X254882824Y-28682275D01*
X254929969Y-28425401D01*
X254931003Y-28414668D01*
X254934083Y-28120573D01*
X254933274Y-28109821D01*
X254891519Y-27852016D01*
X254889105Y-27842186D01*
X254806773Y-27594687D01*
X254802818Y-27585370D01*
X254681974Y-27354218D01*
X254676581Y-27345653D01*
X254520336Y-27136796D01*
X254513642Y-27129204D01*
X254326014Y-26948013D01*
X254318192Y-26941588D01*
X254104008Y-26792727D01*
X254095261Y-26787636D01*
X253860032Y-26674932D01*
X253850583Y-26671305D01*
X253600361Y-26597662D01*
X253590454Y-26595592D01*
X253331676Y-26562900D01*
X253321565Y-26562441D01*
X253060890Y-26571544D01*
X253050836Y-26572708D01*
X252794969Y-26623371D01*
X252785230Y-26626126D01*
X252540756Y-26717045D01*
X252531583Y-26721323D01*
X252304788Y-26850160D01*
X252296417Y-26855849D01*
X252093139Y-27019288D01*
X252085785Y-27026243D01*
X252011000Y-27109300D01*
X252011000Y-20615216D01*
X252025059Y-20601157D01*
X252040837Y-20606900D01*
X252233538Y-20640878D01*
X252244499Y-20641837D01*
X252323789Y-20641837D01*
X252480562Y-20683844D01*
X252496937Y-20686000D01*
X252753063Y-20686000D01*
X252769438Y-20683844D01*
X252926211Y-20641837D01*
X253008258Y-20641837D01*
X253024634Y-20639681D01*
X253303859Y-20564863D01*
X253328339Y-20552120D01*
X253484590Y-20421010D01*
X253498761Y-20404121D01*
X253599359Y-20229880D01*
X253606900Y-20209163D01*
X253640878Y-20016462D01*
X253641837Y-20005501D01*
X253641837Y-19857910D01*
X253658844Y-19794438D01*
X253661000Y-19778063D01*
X253661000Y-19521937D01*
X253658844Y-19505562D01*
X253641837Y-19442090D01*
X253641837Y-19291742D01*
X253639681Y-19275366D01*
X253564863Y-18996142D01*
X253552120Y-18971662D01*
X253421010Y-18815410D01*
X253404121Y-18801238D01*
X253386000Y-18790776D01*
X253386000Y-17003736D01*
X253484590Y-16921010D01*
X253498761Y-16904121D01*
X253599359Y-16729880D01*
X253606900Y-16709163D01*
X253640878Y-16516462D01*
X253641837Y-16505501D01*
X253641837Y-16018490D01*
X253767429Y-16123875D01*
X253775680Y-16129738D01*
X253999725Y-16263296D01*
X254008807Y-16267765D01*
X254251325Y-16363784D01*
X254261004Y-16366743D01*
X254515753Y-16422753D01*
X254525781Y-16424127D01*
X254786208Y-16438687D01*
X254796326Y-16438440D01*
X255055731Y-16411176D01*
X255065680Y-16409314D01*
X255317389Y-16340926D01*
X255326913Y-16337498D01*
X255564450Y-16229745D01*
X255573302Y-16224839D01*
X255790556Y-16080496D01*
X255798510Y-16074236D01*
X255858163Y-16018997D01*
X255858163Y-16508258D01*
X255860319Y-16524634D01*
X255935137Y-16803859D01*
X255947880Y-16828339D01*
X256078990Y-16984590D01*
X256095879Y-16998761D01*
X256114001Y-17009224D01*
X256114000Y-18796264D01*
X256015410Y-18878990D01*
X256001239Y-18895879D01*
X255900641Y-19070120D01*
X255893100Y-19090837D01*
X255859122Y-19283538D01*
X255858163Y-19294499D01*
X255858163Y-19442090D01*
X255841156Y-19505562D01*
X255839000Y-19521937D01*
X255839000Y-19778063D01*
X255841156Y-19794438D01*
X255858163Y-19857910D01*
X255858163Y-20008258D01*
X255860319Y-20024634D01*
X255935137Y-20303859D01*
X255947880Y-20328339D01*
X256078990Y-20484590D01*
X256095879Y-20498761D01*
X256270120Y-20599359D01*
X256290837Y-20606900D01*
X256483538Y-20640878D01*
X256494499Y-20641837D01*
X256573789Y-20641837D01*
X256730562Y-20683844D01*
X256746937Y-20686000D01*
X257003063Y-20686000D01*
X257019438Y-20683844D01*
X257176211Y-20641837D01*
X257258258Y-20641837D01*
X257274634Y-20639681D01*
X257553859Y-20564863D01*
X257578339Y-20552120D01*
X257734590Y-20421010D01*
X257748761Y-20404121D01*
X257849359Y-20229880D01*
X257856900Y-20209163D01*
X257890878Y-20016462D01*
X257891837Y-20005501D01*
X257891837Y-19857910D01*
X257908844Y-19794438D01*
X257911000Y-19778063D01*
X257911000Y-19521937D01*
X257908844Y-19505562D01*
X257891837Y-19442090D01*
X257891837Y-19291742D01*
X257889681Y-19275366D01*
X257814863Y-18996142D01*
X257802120Y-18971662D01*
X257671010Y-18815410D01*
X257654121Y-18801238D01*
X257636000Y-18790776D01*
X257636000Y-17003736D01*
X257734590Y-16921010D01*
X257748761Y-16904121D01*
X257849359Y-16729880D01*
X257856900Y-16709163D01*
X257890878Y-16516462D01*
X257891837Y-16505501D01*
X257891837Y-15791742D01*
X257889681Y-15775366D01*
X257814863Y-15496142D01*
X257802120Y-15471662D01*
X257671010Y-15315410D01*
X257654121Y-15301239D01*
X257479880Y-15200641D01*
X257459163Y-15193100D01*
X257266462Y-15159122D01*
X257255501Y-15158163D01*
X256491742Y-15158163D01*
X256475366Y-15160319D01*
X256382004Y-15185335D01*
X256382824Y-15182275D01*
X256429969Y-14925401D01*
X256431003Y-14914668D01*
X256434083Y-14620573D01*
X256433274Y-14609821D01*
X256391519Y-14352016D01*
X256389105Y-14342186D01*
X256306773Y-14094687D01*
X256302818Y-14085370D01*
X256181974Y-13854218D01*
X256176581Y-13845653D01*
X256020336Y-13636796D01*
X256013642Y-13629204D01*
X255826014Y-13448013D01*
X255818192Y-13441588D01*
X255604008Y-13292727D01*
X255595261Y-13287636D01*
X255360032Y-13174932D01*
X255350583Y-13171305D01*
X255100361Y-13097662D01*
X255090454Y-13095592D01*
X254831676Y-13062900D01*
X254821565Y-13062441D01*
X254560890Y-13071544D01*
X254550836Y-13072708D01*
X254294969Y-13123371D01*
X254285230Y-13126126D01*
X254040756Y-13217045D01*
X254031583Y-13221323D01*
X253804788Y-13350160D01*
X253796417Y-13355849D01*
X253593139Y-13519288D01*
X253585785Y-13526243D01*
X253411253Y-13720081D01*
X253405106Y-13728121D01*
X253263810Y-13947370D01*
X253259027Y-13956290D01*
X253154602Y-14195308D01*
X253151307Y-14204878D01*
X253086440Y-14457518D01*
X253084717Y-14467492D01*
X253061078Y-14727252D01*
X253060972Y-14737373D01*
X253079167Y-14997572D01*
X253080680Y-15007579D01*
X253120528Y-15177471D01*
X253016462Y-15159122D01*
X253005501Y-15158163D01*
X252241742Y-15158163D01*
X252225366Y-15160319D01*
X251946142Y-15235137D01*
X251921662Y-15247880D01*
X251765410Y-15378990D01*
X251751239Y-15395879D01*
X251650641Y-15570120D01*
X251643100Y-15590837D01*
X251609122Y-15783538D01*
X251608163Y-15794499D01*
X251608163Y-16508258D01*
X251610319Y-16524634D01*
X251685137Y-16803859D01*
X251697880Y-16828339D01*
X251828990Y-16984590D01*
X251845880Y-16998762D01*
X251864000Y-17009223D01*
X251864001Y-18796263D01*
X251765410Y-18878990D01*
X251751239Y-18895879D01*
X251749608Y-18898703D01*
X251721806Y-18907737D01*
X251671824Y-18915654D01*
X251652962Y-18921782D01*
X251607874Y-18944755D01*
X251559755Y-18960390D01*
X251542085Y-18969394D01*
X251501151Y-18999134D01*
X251456067Y-19022106D01*
X251440021Y-19033764D01*
X251400405Y-19073381D01*
X251400390Y-19073394D01*
X251384000Y-19089784D01*
X251384000Y-13272730D01*
X252763809Y-11884000D01*
X256736192Y-11884000D01*
X258116001Y-13272732D01*
G37*
%TD.AperFunction*%
X251718224Y-52873999D02*
X250876000Y-52873999D01*
X250876000Y-52026329D01*
X251718224Y-52873999D01*
%TA.AperFunction,NonConductor*%
G36*
X251718224Y-52873999D02*
G01*
X250876000Y-52873999D01*
X250876000Y-52026329D01*
X251718224Y-52873999D01*
G37*
%TD.AperFunction*%
X258624000Y-52874001D02*
X257781775Y-52874001D01*
X258624000Y-52026329D01*
X258624000Y-52874001D01*
%TA.AperFunction,NonConductor*%
G36*
X258624000Y-52874001D02*
G01*
X257781775Y-52874001D01*
X258624000Y-52026329D01*
X258624000Y-52874001D01*
G37*
%TD.AperFunction*%
M02*
