%TF.GenerationSoftware,KiCad,Pcbnew,(5.99.0-2309-gaf729d578)*%
%TF.CreationDate,2020-09-01T21:57:31-04:00*%
%TF.ProjectId,flex,666c6578-2e6b-4696-9361-645f70636258,rev?*%
%TF.SameCoordinates,Original*%
%TF.FileFunction,Legend,Bot*%
%TF.FilePolarity,Positive*%
%FSLAX46Y46*%
G04 Gerber Fmt 4.6, Leading zero omitted, Abs format (unit mm)*
G04 Created by KiCad (PCBNEW (5.99.0-2309-gaf729d578)) date 2020-09-01 21:57:31*
%MOMM*%
%LPD*%
G01*
G04 APERTURE LIST*
%ADD10C,0.150000*%
%ADD11C,0.187500*%
%ADD12C,0.050000*%
G04 APERTURE END LIST*
D10*
X258126190Y-31897030D02*
X258164285Y-31935125D01*
X258278571Y-31973220D01*
X258354761Y-31973220D01*
X258469047Y-31935125D01*
X258545238Y-31858935D01*
X258583333Y-31782744D01*
X258621428Y-31630363D01*
X258621428Y-31516077D01*
X258583333Y-31363696D01*
X258545238Y-31287506D01*
X258469047Y-31211316D01*
X258354761Y-31173220D01*
X258278571Y-31173220D01*
X258164285Y-31211316D01*
X258126190Y-31249411D01*
X257783333Y-31173220D02*
X257783333Y-31820839D01*
X257745238Y-31897030D01*
X257707142Y-31935125D01*
X257630952Y-31973220D01*
X257478571Y-31973220D01*
X257402380Y-31935125D01*
X257364285Y-31897030D01*
X257326190Y-31820839D01*
X257326190Y-31173220D01*
X257059523Y-31173220D02*
X256602380Y-31173220D01*
X256830952Y-31973220D02*
X256830952Y-31173220D01*
X258126190Y-24697030D02*
X258164285Y-24735125D01*
X258278571Y-24773220D01*
X258354761Y-24773220D01*
X258469047Y-24735125D01*
X258545238Y-24658935D01*
X258583333Y-24582744D01*
X258621428Y-24430363D01*
X258621428Y-24316077D01*
X258583333Y-24163696D01*
X258545238Y-24087506D01*
X258469047Y-24011316D01*
X258354761Y-23973220D01*
X258278571Y-23973220D01*
X258164285Y-24011316D01*
X258126190Y-24049411D01*
X257783333Y-23973220D02*
X257783333Y-24620839D01*
X257745238Y-24697030D01*
X257707142Y-24735125D01*
X257630952Y-24773220D01*
X257478571Y-24773220D01*
X257402380Y-24735125D01*
X257364285Y-24697030D01*
X257326190Y-24620839D01*
X257326190Y-23973220D01*
X257059523Y-23973220D02*
X256602380Y-23973220D01*
X256830952Y-24773220D02*
X256830952Y-23973220D01*
X252650000Y-17800000D02*
X254050000Y-17800000D01*
X256850000Y-17800000D02*
X255350000Y-17800000D01*
X254050000Y-17800000D02*
X254550000Y-17100000D01*
X255350001Y-17800000D02*
G75*
G03*
X255350001Y-17800000I-223607J0D01*
G01*
X252650000Y-16800000D02*
X252650000Y-19000000D01*
X254950001Y-16900000D02*
G75*
G03*
X254950001Y-16900000I-223607J0D01*
G01*
X256850000Y-16800000D02*
X256850000Y-19000000D01*
X254050000Y-36300000D02*
X254550000Y-35600000D01*
X255350001Y-36300000D02*
G75*
G03*
X255350001Y-36300000I-223607J0D01*
G01*
X254950001Y-35400000D02*
G75*
G03*
X254950001Y-35400000I-223607J0D01*
G01*
X256850000Y-36300000D02*
X255350000Y-36300000D01*
X252650000Y-36300000D02*
X254050000Y-36300000D01*
X252650000Y-35300000D02*
X252650000Y-37500000D01*
X256850000Y-35300000D02*
X256850000Y-37500000D01*
D11*
X251767857Y-44160714D02*
X251803571Y-44125000D01*
X251839285Y-44017857D01*
X251839285Y-43946428D01*
X251803571Y-43839285D01*
X251732142Y-43767857D01*
X251660714Y-43732142D01*
X251517857Y-43696428D01*
X251410714Y-43696428D01*
X251267857Y-43732142D01*
X251196428Y-43767857D01*
X251125000Y-43839285D01*
X251089285Y-43946428D01*
X251089285Y-44017857D01*
X251125000Y-44125000D01*
X251160714Y-44160714D01*
X251839285Y-44482142D02*
X251339285Y-44482142D01*
X251482142Y-44482142D02*
X251410714Y-44517857D01*
X251375000Y-44553571D01*
X251339285Y-44625000D01*
X251339285Y-44696428D01*
X251803571Y-45232142D02*
X251839285Y-45160714D01*
X251839285Y-45017857D01*
X251803571Y-44946428D01*
X251732142Y-44910714D01*
X251446428Y-44910714D01*
X251375000Y-44946428D01*
X251339285Y-45017857D01*
X251339285Y-45160714D01*
X251375000Y-45232142D01*
X251446428Y-45267857D01*
X251517857Y-45267857D01*
X251589285Y-44910714D01*
X251803571Y-45875000D02*
X251839285Y-45803571D01*
X251839285Y-45660714D01*
X251803571Y-45589285D01*
X251732142Y-45553571D01*
X251446428Y-45553571D01*
X251375000Y-45589285D01*
X251339285Y-45660714D01*
X251339285Y-45803571D01*
X251375000Y-45875000D01*
X251446428Y-45910714D01*
X251517857Y-45910714D01*
X251589285Y-45553571D01*
X251089285Y-46732142D02*
X251839285Y-47232142D01*
X251089285Y-47232142D02*
X251839285Y-46732142D01*
X251839285Y-47517857D02*
X251089285Y-47517857D01*
X251625000Y-47767857D01*
X251089285Y-48017857D01*
X251839285Y-48017857D01*
X251553571Y-48375000D02*
X251553571Y-48946428D01*
X251839285Y-49660714D02*
X251839285Y-49303571D01*
X251089285Y-49303571D01*
X251160714Y-49875000D02*
X251125000Y-49910714D01*
X251089285Y-49982142D01*
X251089285Y-50160714D01*
X251125000Y-50232142D01*
X251160714Y-50267857D01*
X251232142Y-50303571D01*
X251303571Y-50303571D01*
X251410714Y-50267857D01*
X251839285Y-49839285D01*
X251839285Y-50303571D01*
D10*
X258750000Y-25011316D02*
X256750000Y-25011316D01*
X258750000Y-31011316D02*
X256750000Y-31011316D01*
D12*
%TO.C,P1*%
X280590000Y-25711316D02*
G75*
G03*
X280590000Y-25711316I-70000J0D01*
G01*
%TD*%
M02*
