%TF.GenerationSoftware,KiCad,Pcbnew,(5.99.0-8775-g06a515339c)*%
%TF.CreationDate,2021-02-12T19:43:06-05:00*%
%TF.ProjectId,backplate,6261636b-706c-4617-9465-2e6b69636164,rev?*%
%TF.SameCoordinates,Original*%
%TF.FileFunction,Copper,L1,Top*%
%TF.FilePolarity,Positive*%
%FSLAX46Y46*%
G04 Gerber Fmt 4.6, Leading zero omitted, Abs format (unit mm)*
G04 Created by KiCad (PCBNEW (5.99.0-8775-g06a515339c)) date 2021-02-12 19:43:06*
%MOMM*%
%LPD*%
G01*
G04 APERTURE LIST*
%TA.AperFunction,SMDPad,CuDef*%
%ADD10R,0.300000X1.000000*%
%TD*%
%TA.AperFunction,SMDPad,CuDef*%
%ADD11R,0.300000X0.700000*%
%TD*%
%TA.AperFunction,SMDPad,CuDef*%
%ADD12R,0.300000X15.000000*%
%TD*%
%TA.AperFunction,ComponentPad*%
%ADD13O,1.350000X1.350000*%
%TD*%
%TA.AperFunction,ComponentPad*%
%ADD14R,1.350000X1.350000*%
%TD*%
%TA.AperFunction,Conductor*%
%ADD15C,0.250000*%
%TD*%
%TA.AperFunction,Conductor*%
%ADD16C,0.200000*%
%TD*%
G04 APERTURE END LIST*
D10*
%TO.P,J3,S2,SHIELD__1*%
%TO.N,unconnected-(J3-PadS2)*%
X38040000Y-53250000D03*
%TO.P,J3,S1,SHIELD*%
%TO.N,unconnected-(J3-PadS1)*%
X33960000Y-53250000D03*
D11*
%TO.P,J3,6,6*%
%TO.N,GND*%
X37250000Y-50600000D03*
%TO.P,J3,5,5*%
%TO.N,unconnected-(J3-Pad5)*%
X36750000Y-50600000D03*
%TO.P,J3,4,4*%
%TO.N,unconnected-(J3-Pad4)*%
X36250000Y-50600000D03*
%TO.P,J3,3,3*%
%TO.N,DP*%
X35750000Y-50600000D03*
%TO.P,J3,2,2*%
%TO.N,DN*%
X35250000Y-50600000D03*
%TO.P,J3,1,1*%
%TO.N,VUSB*%
X34750000Y-50600000D03*
%TD*%
D12*
%TO.P,J1,6,Pin_6*%
%TO.N,GND*%
X37250000Y-42000000D03*
%TO.P,J1,5,Pin_5*%
%TO.N,N/C*%
X36750000Y-42000000D03*
%TO.P,J1,4,Pin_4*%
X36250000Y-42000000D03*
%TO.P,J1,3,Pin_3*%
%TO.N,DP*%
X35750000Y-42000000D03*
%TO.P,J1,2,Pin_2*%
%TO.N,DN*%
X35250000Y-42000000D03*
%TO.P,J1,1,Pin_1*%
%TO.N,VUSB*%
X34750000Y-42000000D03*
%TD*%
D13*
%TO.P,J2,4,Pin_4*%
%TO.N,GND*%
X39000000Y-28000000D03*
%TO.P,J2,3,Pin_3*%
%TO.N,DP*%
X37000000Y-28000000D03*
%TO.P,J2,2,Pin_2*%
%TO.N,DN*%
X35000000Y-28000000D03*
D14*
%TO.P,J2,1,Pin_1*%
%TO.N,VUSB*%
X33000000Y-28000000D03*
%TD*%
D15*
%TO.N,VUSB*%
X34750000Y-50600000D02*
X34750000Y-42000000D01*
D16*
%TO.N,DN*%
X35250000Y-50600000D02*
X35250000Y-42000000D01*
%TO.N,DP*%
X35750000Y-50600000D02*
X35750000Y-42000000D01*
D15*
%TO.N,GND*%
X37250000Y-50600000D02*
X37250000Y-42000000D01*
D16*
%TO.N,DP*%
X35750000Y-42000000D02*
X35750000Y-29250000D01*
X35750000Y-29250000D02*
X37000000Y-28000000D01*
%TO.N,DN*%
X35000000Y-28000000D02*
X35250000Y-28250000D01*
X35250000Y-28250000D02*
X35250000Y-42000000D01*
D15*
%TO.N,VUSB*%
X34750000Y-42000000D02*
X34750000Y-33750000D01*
X34750000Y-33750000D02*
X33000000Y-32000000D01*
X33000000Y-32000000D02*
X33000000Y-28000000D01*
%TO.N,GND*%
X37250000Y-42000000D02*
X37250000Y-33750000D01*
X37250000Y-33750000D02*
X39000000Y-32000000D01*
X39000000Y-32000000D02*
X39000000Y-28000000D01*
%TD*%
M02*
