%TF.GenerationSoftware,KiCad,Pcbnew,(5.99.0-8775-g06a515339c)*%
%TF.CreationDate,2021-12-27T00:45:29-05:00*%
%TF.ProjectId,mk2,6d6b322e-6b69-4636-9164-5f7063625858,rev?*%
%TF.SameCoordinates,Original*%
%TF.FileFunction,Paste,Top*%
%TF.FilePolarity,Positive*%
%FSLAX46Y46*%
G04 Gerber Fmt 4.6, Leading zero omitted, Abs format (unit mm)*
G04 Created by KiCad (PCBNEW (5.99.0-8775-g06a515339c)) date 2021-12-27 00:45:29*
%MOMM*%
%LPD*%
G01*
G04 APERTURE LIST*
G04 Aperture macros list*
%AMRoundRect*
0 Rectangle with rounded corners*
0 $1 Rounding radius*
0 $2 $3 $4 $5 $6 $7 $8 $9 X,Y pos of 4 corners*
0 Add a 4 corners polygon primitive as box body*
4,1,4,$2,$3,$4,$5,$6,$7,$8,$9,$2,$3,0*
0 Add four circle primitives for the rounded corners*
1,1,$1+$1,$2,$3*
1,1,$1+$1,$4,$5*
1,1,$1+$1,$6,$7*
1,1,$1+$1,$8,$9*
0 Add four rect primitives between the rounded corners*
20,1,$1+$1,$2,$3,$4,$5,0*
20,1,$1+$1,$4,$5,$6,$7,0*
20,1,$1+$1,$6,$7,$8,$9,0*
20,1,$1+$1,$8,$9,$2,$3,0*%
G04 Aperture macros list end*
%ADD10C,0.010000*%
%ADD11RoundRect,0.237500X0.287500X0.237500X-0.287500X0.237500X-0.287500X-0.237500X0.287500X-0.237500X0*%
%ADD12RoundRect,0.237500X-0.237500X0.287500X-0.237500X-0.287500X0.237500X-0.287500X0.237500X0.287500X0*%
%ADD13C,0.229500*%
%ADD14RoundRect,0.237500X0.237500X-0.287500X0.237500X0.287500X-0.237500X0.287500X-0.237500X-0.287500X0*%
%ADD15R,0.400000X0.600000*%
%ADD16R,0.600000X0.400000*%
%ADD17R,0.650000X1.060000*%
%ADD18R,1.220000X0.650000*%
%ADD19R,0.700000X0.450000*%
%ADD20R,0.650000X1.220000*%
%ADD21R,1.270000X0.900000*%
%ADD22R,0.800000X1.450000*%
%ADD23R,0.300000X1.300000*%
%ADD24R,1.800000X2.200000*%
%ADD25R,0.300000X0.700000*%
%ADD26R,0.300000X1.000000*%
%ADD27RoundRect,0.237500X-0.287500X-0.237500X0.287500X-0.237500X0.287500X0.237500X-0.287500X0.237500X0*%
%ADD28R,0.400000X0.420000*%
%ADD29R,0.450000X0.700000*%
%ADD30RoundRect,0.172500X0.262500X0.172500X-0.262500X0.172500X-0.262500X-0.172500X0.262500X-0.172500X0*%
%ADD31RoundRect,0.093750X0.093750X0.106250X-0.093750X0.106250X-0.093750X-0.106250X0.093750X-0.106250X0*%
%ADD32R,1.100000X1.050000*%
%ADD33R,0.250000X0.750000*%
%ADD34R,0.300000X0.750000*%
%ADD35R,1.560000X0.650000*%
G04 APERTURE END LIST*
D10*
%TO.C,U4*%
X18802000Y-20229000D02*
X18802000Y-19929000D01*
X18802000Y-19929000D02*
X19052000Y-19929000D01*
X19052000Y-19929000D02*
X19052000Y-20229000D01*
X19052000Y-20229000D02*
X18802000Y-20229000D01*
G36*
X19052000Y-20229000D02*
G01*
X18802000Y-20229000D01*
X18802000Y-19929000D01*
X19052000Y-19929000D01*
X19052000Y-20229000D01*
G37*
X19052000Y-20229000D02*
X18802000Y-20229000D01*
X18802000Y-19929000D01*
X19052000Y-19929000D01*
X19052000Y-20229000D01*
X18302000Y-18679000D02*
X18302000Y-18379000D01*
X18302000Y-18379000D02*
X18552000Y-18379000D01*
X18552000Y-18379000D02*
X18552000Y-18679000D01*
X18552000Y-18679000D02*
X18302000Y-18679000D01*
G36*
X18552000Y-18679000D02*
G01*
X18302000Y-18679000D01*
X18302000Y-18379000D01*
X18552000Y-18379000D01*
X18552000Y-18679000D01*
G37*
X18552000Y-18679000D02*
X18302000Y-18679000D01*
X18302000Y-18379000D01*
X18552000Y-18379000D01*
X18552000Y-18679000D01*
X18802000Y-18679000D02*
X18802000Y-18379000D01*
X18802000Y-18379000D02*
X19052000Y-18379000D01*
X19052000Y-18379000D02*
X19052000Y-18679000D01*
X19052000Y-18679000D02*
X18802000Y-18679000D01*
G36*
X19052000Y-18679000D02*
G01*
X18802000Y-18679000D01*
X18802000Y-18379000D01*
X19052000Y-18379000D01*
X19052000Y-18679000D01*
G37*
X19052000Y-18679000D02*
X18802000Y-18679000D01*
X18802000Y-18379000D01*
X19052000Y-18379000D01*
X19052000Y-18679000D01*
X18252000Y-19679000D02*
X18252000Y-19429000D01*
X18252000Y-19429000D02*
X18552000Y-19429000D01*
X18552000Y-19429000D02*
X18552000Y-19679000D01*
X18552000Y-19679000D02*
X18252000Y-19679000D01*
G36*
X18552000Y-19679000D02*
G01*
X18252000Y-19679000D01*
X18252000Y-19429000D01*
X18552000Y-19429000D01*
X18552000Y-19679000D01*
G37*
X18552000Y-19679000D02*
X18252000Y-19679000D01*
X18252000Y-19429000D01*
X18552000Y-19429000D01*
X18552000Y-19679000D01*
X19802000Y-19679000D02*
X19802000Y-19429000D01*
X19802000Y-19429000D02*
X20102000Y-19429000D01*
X20102000Y-19429000D02*
X20102000Y-19679000D01*
X20102000Y-19679000D02*
X19802000Y-19679000D01*
G36*
X20102000Y-19679000D02*
G01*
X19802000Y-19679000D01*
X19802000Y-19429000D01*
X20102000Y-19429000D01*
X20102000Y-19679000D01*
G37*
X20102000Y-19679000D02*
X19802000Y-19679000D01*
X19802000Y-19429000D01*
X20102000Y-19429000D01*
X20102000Y-19679000D01*
X19802000Y-19179000D02*
X19802000Y-18929000D01*
X19802000Y-18929000D02*
X20102000Y-18929000D01*
X20102000Y-18929000D02*
X20102000Y-19179000D01*
X20102000Y-19179000D02*
X19802000Y-19179000D01*
G36*
X20102000Y-19179000D02*
G01*
X19802000Y-19179000D01*
X19802000Y-18929000D01*
X20102000Y-18929000D01*
X20102000Y-19179000D01*
G37*
X20102000Y-19179000D02*
X19802000Y-19179000D01*
X19802000Y-18929000D01*
X20102000Y-18929000D01*
X20102000Y-19179000D01*
X19802000Y-20229000D02*
X19802000Y-19929000D01*
X19802000Y-19929000D02*
X20052000Y-19929000D01*
X20052000Y-19929000D02*
X20052000Y-20229000D01*
X20052000Y-20229000D02*
X19802000Y-20229000D01*
G36*
X20052000Y-20229000D02*
G01*
X19802000Y-20229000D01*
X19802000Y-19929000D01*
X20052000Y-19929000D01*
X20052000Y-20229000D01*
G37*
X20052000Y-20229000D02*
X19802000Y-20229000D01*
X19802000Y-19929000D01*
X20052000Y-19929000D01*
X20052000Y-20229000D01*
X18252000Y-19179000D02*
X18252000Y-18929000D01*
X18252000Y-18929000D02*
X18552000Y-18929000D01*
X18552000Y-18929000D02*
X18552000Y-19179000D01*
X18552000Y-19179000D02*
X18252000Y-19179000D01*
G36*
X18552000Y-19179000D02*
G01*
X18252000Y-19179000D01*
X18252000Y-18929000D01*
X18552000Y-18929000D01*
X18552000Y-19179000D01*
G37*
X18552000Y-19179000D02*
X18252000Y-19179000D01*
X18252000Y-18929000D01*
X18552000Y-18929000D01*
X18552000Y-19179000D01*
X18302000Y-20229000D02*
X18302000Y-19929000D01*
X18302000Y-19929000D02*
X18552000Y-19929000D01*
X18552000Y-19929000D02*
X18552000Y-20229000D01*
X18552000Y-20229000D02*
X18302000Y-20229000D01*
G36*
X18552000Y-20229000D02*
G01*
X18302000Y-20229000D01*
X18302000Y-19929000D01*
X18552000Y-19929000D01*
X18552000Y-20229000D01*
G37*
X18552000Y-20229000D02*
X18302000Y-20229000D01*
X18302000Y-19929000D01*
X18552000Y-19929000D01*
X18552000Y-20229000D01*
X19302000Y-18679000D02*
X19302000Y-18379000D01*
X19302000Y-18379000D02*
X19552000Y-18379000D01*
X19552000Y-18379000D02*
X19552000Y-18679000D01*
X19552000Y-18679000D02*
X19302000Y-18679000D01*
G36*
X19552000Y-18679000D02*
G01*
X19302000Y-18679000D01*
X19302000Y-18379000D01*
X19552000Y-18379000D01*
X19552000Y-18679000D01*
G37*
X19552000Y-18679000D02*
X19302000Y-18679000D01*
X19302000Y-18379000D01*
X19552000Y-18379000D01*
X19552000Y-18679000D01*
X19802000Y-18679000D02*
X19802000Y-18379000D01*
X19802000Y-18379000D02*
X20052000Y-18379000D01*
X20052000Y-18379000D02*
X20052000Y-18679000D01*
X20052000Y-18679000D02*
X19802000Y-18679000D01*
G36*
X20052000Y-18679000D02*
G01*
X19802000Y-18679000D01*
X19802000Y-18379000D01*
X20052000Y-18379000D01*
X20052000Y-18679000D01*
G37*
X20052000Y-18679000D02*
X19802000Y-18679000D01*
X19802000Y-18379000D01*
X20052000Y-18379000D01*
X20052000Y-18679000D01*
X19302000Y-20229000D02*
X19302000Y-19929000D01*
X19302000Y-19929000D02*
X19552000Y-19929000D01*
X19552000Y-19929000D02*
X19552000Y-20229000D01*
X19552000Y-20229000D02*
X19302000Y-20229000D01*
G36*
X19552000Y-20229000D02*
G01*
X19302000Y-20229000D01*
X19302000Y-19929000D01*
X19552000Y-19929000D01*
X19552000Y-20229000D01*
G37*
X19552000Y-20229000D02*
X19302000Y-20229000D01*
X19302000Y-19929000D01*
X19552000Y-19929000D01*
X19552000Y-20229000D01*
%TD*%
D11*
%TO.C,R4*%
X27799000Y-39878000D03*
X26049000Y-39878000D03*
%TD*%
%TO.C,R13*%
X29704000Y-33528000D03*
X27954000Y-33528000D03*
%TD*%
D12*
%TO.C,R14*%
X29718000Y-38368000D03*
X29718000Y-40118000D03*
%TD*%
D13*
%TO.C,U6*%
X27600000Y-47477000D03*
X28000000Y-47477000D03*
X28400000Y-47477000D03*
X27600000Y-47877000D03*
X28000000Y-47877000D03*
X28400000Y-47877000D03*
X27600000Y-48277000D03*
X28000000Y-48277000D03*
X28400000Y-48277000D03*
%TD*%
D14*
%TO.C,C4*%
X16383000Y-36816000D03*
X16383000Y-35066000D03*
%TD*%
D11*
%TO.C,C9*%
X24370000Y-18288000D03*
X22620000Y-18288000D03*
%TD*%
D14*
%TO.C,C8*%
X20193000Y-15099000D03*
X20193000Y-13349000D03*
%TD*%
D11*
%TO.C,R15*%
X15250000Y-23250000D03*
X13500000Y-23250000D03*
%TD*%
D15*
%TO.C,IC1*%
X31250000Y-21850000D03*
X30150000Y-21850000D03*
X29350000Y-21850000D03*
X27750000Y-21850000D03*
X27350000Y-22750000D03*
X26950000Y-21850000D03*
X26550000Y-22750000D03*
X26150000Y-21850000D03*
X25750000Y-22750000D03*
X25350000Y-21850000D03*
X24950000Y-22750000D03*
X24550000Y-21850000D03*
X24150000Y-22750000D03*
X23750000Y-21850000D03*
D16*
X20350000Y-21700000D03*
X20350000Y-22500000D03*
X20350000Y-23300000D03*
X20350000Y-24100000D03*
X21250000Y-24500000D03*
X20350000Y-24900000D03*
X21250000Y-25300000D03*
X20350000Y-25700000D03*
X21250000Y-26100000D03*
X20350000Y-26500000D03*
X21250000Y-26900000D03*
X20350000Y-27300000D03*
X21250000Y-27700000D03*
X20350000Y-28100000D03*
X21250000Y-28500000D03*
X20350000Y-28900000D03*
X20350000Y-29700000D03*
X20350000Y-30500000D03*
X20350000Y-31300000D03*
D15*
X21350000Y-31150000D03*
X22150000Y-31150000D03*
X22550000Y-30250000D03*
X22950000Y-31150000D03*
X23350000Y-30250000D03*
X23750000Y-31150000D03*
X24150000Y-30250000D03*
X24550000Y-31150000D03*
X24950000Y-30250000D03*
X25750000Y-30250000D03*
X26150000Y-31150000D03*
X26550000Y-30250000D03*
X26950000Y-31150000D03*
X27350000Y-30250000D03*
X27750000Y-31150000D03*
X28150000Y-30250000D03*
X28950000Y-30250000D03*
X29350000Y-31150000D03*
X29750000Y-30250000D03*
X30150000Y-31150000D03*
X30550000Y-30250000D03*
X31250000Y-31150000D03*
D16*
X26950000Y-24500000D03*
X26950000Y-25300000D03*
X26950000Y-26100000D03*
X26950000Y-26900000D03*
X26950000Y-27700000D03*
X26950000Y-28500000D03*
%TD*%
D17*
%TO.C,U3*%
X31550000Y-43600000D03*
X32500000Y-43600000D03*
X33450000Y-43600000D03*
X33450000Y-41400000D03*
X31550000Y-41400000D03*
%TD*%
D14*
%TO.C,C10*%
X30000000Y-48627000D03*
X30000000Y-46877000D03*
%TD*%
D18*
%TO.C,D1*%
X20810000Y-41600000D03*
X20810000Y-39700000D03*
X18190000Y-40650000D03*
%TD*%
D19*
%TO.C,Q4*%
X15250000Y-26150000D03*
X15250000Y-24850000D03*
X13250000Y-25500000D03*
%TD*%
D11*
%TO.C,C20*%
X29250000Y-45127000D03*
X27500000Y-45127000D03*
%TD*%
D17*
%TO.C,U5*%
X24572000Y-38524000D03*
X23622000Y-38524000D03*
X22672000Y-38524000D03*
X22672000Y-40724000D03*
X23622000Y-40724000D03*
X24572000Y-40724000D03*
%TD*%
D20*
%TO.C,D2*%
X23556000Y-13422000D03*
X21656000Y-13422000D03*
X22606000Y-16042000D03*
%TD*%
D21*
%TO.C,SW2*%
X14885000Y-14650000D03*
X14885000Y-18850000D03*
D22*
X13000000Y-13375000D03*
X13000000Y-20125000D03*
%TD*%
D23*
%TO.C,J1*%
X31750000Y-19350000D03*
X31250000Y-19350000D03*
X30750000Y-19350000D03*
X30250000Y-19350000D03*
X29750000Y-19350000D03*
X29250000Y-19350000D03*
X28750000Y-19350000D03*
X28250000Y-19350000D03*
X27750000Y-19350000D03*
X27250000Y-19350000D03*
D24*
X25350000Y-16100000D03*
X33650000Y-16100000D03*
%TD*%
D12*
%TO.C,R9*%
X29972000Y-41797000D03*
X29972000Y-43547000D03*
%TD*%
D25*
%TO.C,J4*%
X33250000Y-39825000D03*
X32750000Y-39825000D03*
X32250000Y-39825000D03*
X31750000Y-39825000D03*
D26*
X34040000Y-37175000D03*
X30960000Y-37175000D03*
%TD*%
D12*
%TO.C,C2*%
X17000000Y-23500000D03*
X17000000Y-25250000D03*
%TD*%
D27*
%TO.C,C5*%
X19445000Y-16764000D03*
X21195000Y-16764000D03*
%TD*%
D28*
%TO.C,IC2*%
X24210000Y-19616000D03*
X23310000Y-19616000D03*
X22410000Y-19616000D03*
X21510000Y-19616000D03*
X21510000Y-20516000D03*
X22410000Y-20516000D03*
X23310000Y-20516000D03*
X24210000Y-20516000D03*
%TD*%
D12*
%TO.C,R2*%
X20400000Y-33925000D03*
X20400000Y-35675000D03*
%TD*%
D21*
%TO.C,SW4*%
X14885000Y-43650000D03*
X14885000Y-47850000D03*
D22*
X13000000Y-42375000D03*
X13000000Y-49125000D03*
%TD*%
D11*
%TO.C,C6*%
X18274000Y-14097000D03*
X16524000Y-14097000D03*
%TD*%
D29*
%TO.C,Q3*%
X29352000Y-35068000D03*
X28052000Y-35068000D03*
X28702000Y-37068000D03*
%TD*%
D30*
%TO.C,U1*%
X17253000Y-15983000D03*
X17253000Y-16783000D03*
D31*
X18140500Y-17033000D03*
X18140500Y-16383000D03*
X18140500Y-15733000D03*
X16365500Y-15733000D03*
X16365500Y-16383000D03*
X16365500Y-17033000D03*
%TD*%
D32*
%TO.C,Y1*%
X18750000Y-24425000D03*
X18750000Y-22575000D03*
%TD*%
D33*
%TO.C,J2*%
X18450000Y-43525000D03*
X19250000Y-43525000D03*
X19750000Y-43525000D03*
X20250000Y-43525000D03*
X20750000Y-43525000D03*
X21250000Y-43525000D03*
X21750000Y-43525000D03*
X22250000Y-43525000D03*
X22750000Y-43525000D03*
X23250000Y-43525000D03*
X23750000Y-43525000D03*
X24550000Y-43525000D03*
X24500000Y-44775000D03*
X24000000Y-44775000D03*
X23500000Y-44775000D03*
X23000000Y-44775000D03*
X22500000Y-44775000D03*
X22000000Y-44775000D03*
X21000000Y-44775000D03*
X20500000Y-44775000D03*
X20000000Y-44775000D03*
X19500000Y-44775000D03*
X19000000Y-44775000D03*
X18500000Y-44775000D03*
D34*
X17950000Y-43525000D03*
X25050000Y-43525000D03*
%TD*%
D12*
%TO.C,C7*%
X16383000Y-31764000D03*
X16383000Y-33514000D03*
%TD*%
D19*
%TO.C,Q1*%
X17600000Y-37150000D03*
X17600000Y-38450000D03*
X19600000Y-37800000D03*
%TD*%
D11*
%TO.C,R3*%
X27799000Y-38481000D03*
X26049000Y-38481000D03*
%TD*%
D14*
%TO.C,R11*%
X27178000Y-43547000D03*
X27178000Y-41797000D03*
%TD*%
D11*
%TO.C,R16*%
X15250000Y-21750000D03*
X13500000Y-21750000D03*
%TD*%
%TO.C,C3*%
X18750000Y-27000000D03*
X17000000Y-27000000D03*
%TD*%
D21*
%TO.C,SW1*%
X14885000Y-29150000D03*
X14885000Y-33350000D03*
D22*
X13000000Y-27875000D03*
X13000000Y-34625000D03*
%TD*%
D14*
%TO.C,R12*%
X28575000Y-43547000D03*
X28575000Y-41797000D03*
%TD*%
D35*
%TO.C,U2*%
X15950000Y-40400000D03*
X15950000Y-39450000D03*
X15950000Y-38500000D03*
X13250000Y-38500000D03*
X13250000Y-40400000D03*
%TD*%
D27*
%TO.C,L1*%
X13250000Y-36750000D03*
X15000000Y-36750000D03*
%TD*%
D12*
%TO.C,C1*%
X16750000Y-20250000D03*
X16750000Y-22000000D03*
%TD*%
M02*
