M48
; DRILL file {KiCad (5.99.0-8775-g06a515339c)} date Mon Dec 27 00:45:34 2021
; FORMAT={-:-/ absolute / inch / decimal}
; #@! TF.CreationDate,2021-12-27T00:45:34-05:00
; #@! TF.GenerationSoftware,Kicad,Pcbnew,(5.99.0-8775-g06a515339c)
; #@! TF.FileFunction,Plated,1,2,PTH
FMAT,2
INCH
T1C0.0079
T2C0.0118
T3C0.0177
T4C0.0315
%
G90
G05
T1
X0.6793Y-0.6233
X0.6793Y-0.6667
T2
X0.525Y-1.16
X0.536Y-0.922
X0.5512Y-1.4075
X0.56Y-1.038
X0.5677Y-1.2433
X0.586Y-0.7421
X0.586Y-1.313
X0.587Y-1.001
X0.59Y-0.57
X0.5906Y-1.7165
X0.6097Y-1.3618
X0.6142Y-1.2677
X0.623Y-0.8632
X0.6256Y-1.0007
X0.628Y-1.5157
X0.632Y-0.71
X0.6346Y-0.9537
X0.645Y-1.3806
X0.645Y-1.4494
X0.656Y-1.182
X0.668Y-0.918
X0.6772Y-1.2047
X0.68Y-1.0994
X0.68Y-1.4066
X0.68Y-1.5877
X0.685Y-0.705
X0.6929Y-1.5138
X0.695Y-0.76
X0.6958Y-0.8108
X0.7061Y-1.6004
X0.708Y-1.286
X0.7255Y-0.7095
X0.7264Y-1.6595
X0.7382Y-1.063
X0.7529Y-0.767
X0.76Y-0.66
X0.766Y-0.816
X0.7692Y-1.0342
X0.7717Y-1.4882
X0.775Y-1.113
X0.7804Y-0.6961
X0.798Y-0.522
X0.8031Y-1.4016
X0.804Y-1.262
X0.8248Y-1.6065
X0.8307Y-1.6683
X0.8366Y-1.3634
X0.8395Y-0.8604
X0.84Y-0.705
X0.84Y-0.734
X0.84Y-0.89
X0.8414Y-1.7668
X0.8425Y-1.8189
X0.8446Y-0.8354
X0.85Y-0.57
X0.8549Y-1.4292
X0.858Y-0.912
X0.8583Y-1.6299
X0.8583Y-1.6772
X0.8595Y-0.6275
X0.8622Y-1.4685
X0.8622Y-1.7953
X0.878Y-0.98
X0.88Y-0.81
X0.8815Y-1.3461
X0.8858Y-1.6738
X0.8898Y-1.4016
X0.8926Y-1.5167
X0.896Y-0.952
X0.9055Y-1.7881
X0.9213Y-1.2913
X0.9231Y-0.944
X0.9317Y-1.6033
X0.94Y-1.335
X0.95Y-1.42
X0.958Y-0.756
X0.9583Y-1.1417
X0.97Y-1.44
X0.98Y-0.82
X0.9803Y-1.7717
X0.9887Y-1.6778
X0.9889Y-1.2907
X0.99Y-1.225
X1.0Y-0.795
X1.0061Y-0.7303
X1.0223Y-0.9167
X1.0228Y-1.6347
X1.025Y-0.82
X1.0264Y-0.9702
X1.0486Y-0.7833
X1.0493Y-0.8993
X1.05Y-1.16
X1.055Y-1.465
X1.0557Y-1.8108
X1.0626Y-1.543
X1.0709Y-1.6063
X1.0709Y-1.6457
X1.082Y-1.451
X1.0944Y-1.515
X1.0944Y-1.57
X1.0945Y-1.8268
X1.102Y-0.818
X1.1197Y-1.2282
X1.125Y-1.7144
X1.1254Y-1.3216
X1.126Y-1.811
X1.13Y-0.71
X1.13Y-1.4909
X1.1339Y-1.6063
X1.14Y-1.15
X1.1447Y-1.866
X1.15Y-0.94
X1.1516Y-1.7767
X1.165Y-1.265
X1.17Y-1.5106
X1.18Y-0.6862
X1.184Y-0.872
X1.184Y-1.715
X1.188Y-1.843
X1.2Y-1.265
X1.205Y-0.82
X1.218Y-0.902
X1.22Y-1.15
X1.232Y-1.306
X1.24Y-1.755
X1.2726Y-1.6142
X1.2792Y-1.3192
X1.285Y-1.76
X1.295Y-1.4294
X1.325Y-1.306
T4
X0.725Y-1.1406
X0.725Y-1.2194
X0.7323Y-1.3307
X0.7323Y-1.4094
X1.2598Y-1.8799
X1.3386Y-1.8799
T3
G00X0.6713Y-1.7008
M15
G01X0.6713Y-1.7402
M16
G05
G00X0.6713Y-1.8228
M15
G01X0.6713Y-1.8701
M16
G05
G00X1.0217Y-1.7008
M15
G01X1.0217Y-1.7402
M16
G05
G00X1.0217Y-1.8228
M15
G01X1.0217Y-1.8701
M16
G05
T0
M30
