%TF.GenerationSoftware,KiCad,Pcbnew,(5.99.0-8775-g06a515339c)*%
%TF.CreationDate,2021-02-12T19:12:04-05:00*%
%TF.ProjectId,mk2,6d6b322e-6b69-4636-9164-5f7063625858,rev?*%
%TF.SameCoordinates,Original*%
%TF.FileFunction,Legend,Top*%
%TF.FilePolarity,Positive*%
%FSLAX46Y46*%
G04 Gerber Fmt 4.6, Leading zero omitted, Abs format (unit mm)*
G04 Created by KiCad (PCBNEW (5.99.0-8775-g06a515339c)) date 2021-02-12 19:12:04*
%MOMM*%
%LPD*%
G01*
G04 APERTURE LIST*
%ADD10C,0.125000*%
%ADD11C,0.015000*%
%ADD12C,0.120000*%
%ADD13C,0.150000*%
%ADD14C,0.250000*%
%ADD15C,0.127000*%
%ADD16C,0.100000*%
%ADD17C,0.200000*%
G04 APERTURE END LIST*
D10*
X33750000Y-46130952D02*
X33726190Y-46178571D01*
X33726190Y-46250000D01*
X33750000Y-46321428D01*
X33797619Y-46369047D01*
X33845238Y-46392857D01*
X33940476Y-46416666D01*
X34011904Y-46416666D01*
X34107142Y-46392857D01*
X34154761Y-46369047D01*
X34202380Y-46321428D01*
X34226190Y-46250000D01*
X34226190Y-46202380D01*
X34202380Y-46130952D01*
X34178571Y-46107142D01*
X34011904Y-46107142D01*
X34011904Y-46202380D01*
X34226190Y-45892857D02*
X33726190Y-45892857D01*
X34226190Y-45607142D01*
X33726190Y-45607142D01*
X34226190Y-45369047D02*
X33726190Y-45369047D01*
X33726190Y-45250000D01*
X33750000Y-45178571D01*
X33797619Y-45130952D01*
X33845238Y-45107142D01*
X33940476Y-45083333D01*
X34011904Y-45083333D01*
X34107142Y-45107142D01*
X34154761Y-45130952D01*
X34202380Y-45178571D01*
X34226190Y-45250000D01*
X34226190Y-45369047D01*
X32035714Y-46785714D02*
X32035714Y-46404761D01*
X32226190Y-46595238D02*
X31845238Y-46595238D01*
X31964285Y-46000000D02*
X31988095Y-45928571D01*
X32011904Y-45904761D01*
X32059523Y-45880952D01*
X32130952Y-45880952D01*
X32178571Y-45904761D01*
X32202380Y-45928571D01*
X32226190Y-45976190D01*
X32226190Y-46166666D01*
X31726190Y-46166666D01*
X31726190Y-46000000D01*
X31750000Y-45952380D01*
X31773809Y-45928571D01*
X31821428Y-45904761D01*
X31869047Y-45904761D01*
X31916666Y-45928571D01*
X31940476Y-45952380D01*
X31964285Y-46000000D01*
X31964285Y-46166666D01*
X32083333Y-45690476D02*
X32083333Y-45452380D01*
X32226190Y-45738095D02*
X31726190Y-45571428D01*
X32226190Y-45404761D01*
X31726190Y-45309523D02*
X31726190Y-45023809D01*
X32226190Y-45166666D02*
X31726190Y-45166666D01*
X31726190Y-44928571D02*
X31726190Y-44642857D01*
X32226190Y-44785714D02*
X31726190Y-44785714D01*
D11*
%TO.C,J5*%
X15673123Y-36233333D02*
X16130266Y-36233333D01*
X16221695Y-36263809D01*
X16282647Y-36324761D01*
X16313123Y-36416190D01*
X16313123Y-36477142D01*
X15673123Y-35623809D02*
X15673123Y-35928571D01*
X15977885Y-35959047D01*
X15947409Y-35928571D01*
X15916933Y-35867619D01*
X15916933Y-35715238D01*
X15947409Y-35654285D01*
X15977885Y-35623809D01*
X16038838Y-35593333D01*
X16191219Y-35593333D01*
X16252171Y-35623809D01*
X16282647Y-35654285D01*
X16313123Y-35715238D01*
X16313123Y-35867619D01*
X16282647Y-35928571D01*
X16252171Y-35959047D01*
D12*
%TO.C,R4*%
X27095267Y-39368000D02*
X26752733Y-39368000D01*
X27095267Y-40388000D02*
X26752733Y-40388000D01*
%TO.C,R13*%
X29000267Y-33018000D02*
X28657733Y-33018000D01*
X29000267Y-34038000D02*
X28657733Y-34038000D01*
%TO.C,R14*%
X29208000Y-39071733D02*
X29208000Y-39414267D01*
X30228000Y-39071733D02*
X30228000Y-39414267D01*
D13*
%TO.C,U6*%
X27075000Y-48802000D02*
X27075000Y-46952000D01*
X28925000Y-48802000D02*
X27075000Y-48802000D01*
X27075000Y-46952000D02*
X28925000Y-46952000D01*
X28925000Y-46952000D02*
X28925000Y-48802000D01*
D14*
X26807000Y-47377000D02*
G75*
G03*
X26807000Y-47377000I-125000J0D01*
G01*
D12*
%TO.C,C4*%
X15873000Y-36112267D02*
X15873000Y-35769733D01*
X16893000Y-36112267D02*
X16893000Y-35769733D01*
%TO.C,C9*%
X23666267Y-17778000D02*
X23323733Y-17778000D01*
X23666267Y-18798000D02*
X23323733Y-18798000D01*
%TO.C,C8*%
X20703000Y-14395267D02*
X20703000Y-14052733D01*
X19683000Y-14395267D02*
X19683000Y-14052733D01*
D15*
%TO.C,U4*%
X20447000Y-20574000D02*
X19977000Y-20574000D01*
X20447000Y-20574000D02*
X20447000Y-20104000D01*
X20447000Y-18034000D02*
X19977000Y-18034000D01*
X20447000Y-18034000D02*
X20447000Y-18504000D01*
X17907000Y-20574000D02*
X17907000Y-20104000D01*
X17907000Y-20574000D02*
X18377000Y-20574000D01*
X17907000Y-18034000D02*
X17907000Y-18504000D01*
X17907000Y-18034000D02*
X18377000Y-18034000D01*
D13*
X18352000Y-20804000D02*
G75*
G03*
X18352000Y-20804000I-75000J0D01*
G01*
D12*
%TO.C,R15*%
X14546267Y-23760000D02*
X14203733Y-23760000D01*
X14546267Y-22740000D02*
X14203733Y-22740000D01*
D16*
%TO.C,IC1*%
X35250000Y-21250000D02*
X35250000Y-31750000D01*
X31300000Y-20900000D02*
X31300000Y-20900000D01*
X35250000Y-31750000D02*
X19750000Y-31750000D01*
X19750000Y-31750000D02*
X19750000Y-21250000D01*
X19750000Y-21250000D02*
X35250000Y-21250000D01*
X31200000Y-20900000D02*
X31200000Y-20900000D01*
X31200000Y-20900000D02*
G75*
G02*
X31300000Y-20900000I50000J0D01*
G01*
X31300000Y-20900000D02*
G75*
G02*
X31200000Y-20900000I-50000J0D01*
G01*
D12*
%TO.C,U3*%
X34110000Y-43400000D02*
X34110000Y-41600000D01*
X30890000Y-41600000D02*
X30890000Y-44050000D01*
%TO.C,C10*%
X29490000Y-47923267D02*
X29490000Y-47580733D01*
X30510000Y-47923267D02*
X30510000Y-47580733D01*
%TO.C,D1*%
X18360000Y-39000000D02*
X18360000Y-37950000D01*
X18360000Y-37950000D02*
X20210000Y-37950000D01*
X18360000Y-41000000D02*
X18360000Y-40000000D01*
X18380000Y-41010000D02*
X20810000Y-41010000D01*
%TO.C,Q4*%
X13520000Y-26660000D02*
X13520000Y-26000000D01*
X13520000Y-25000000D02*
X13520000Y-24340000D01*
X14930000Y-24340000D02*
X13520000Y-24340000D01*
X13520000Y-26660000D02*
X15550000Y-26660000D01*
%TO.C,C20*%
X28546267Y-44617000D02*
X28203733Y-44617000D01*
X28546267Y-45637000D02*
X28203733Y-45637000D01*
%TO.C,U5*%
X22012000Y-38724000D02*
X22012000Y-40524000D01*
X25232000Y-40524000D02*
X25232000Y-38074000D01*
%TO.C,D2*%
X24116000Y-15662000D02*
X24116000Y-13232000D01*
X21056000Y-15682000D02*
X21056000Y-13832000D01*
X22106000Y-15682000D02*
X21056000Y-15682000D01*
X24106000Y-15682000D02*
X23106000Y-15682000D01*
%TO.C,JP2*%
X24400000Y-34928000D02*
X24400000Y-32128000D01*
X24400000Y-32128000D02*
X26400000Y-32128000D01*
X26400000Y-34928000D02*
X24400000Y-34928000D01*
X26400000Y-32128000D02*
X26400000Y-34928000D01*
D13*
%TO.C,SW2*%
X15375000Y-13175000D02*
X15375000Y-13825000D01*
X15375000Y-15475000D02*
X15375000Y-18025000D01*
X13775000Y-20325000D02*
X15375000Y-20325000D01*
X15375000Y-19675000D02*
X15375000Y-20325000D01*
X13775000Y-13175000D02*
X15375000Y-13175000D01*
D14*
X16220000Y-14650000D02*
G75*
G03*
X16220000Y-14650000I-125000J0D01*
G01*
D12*
%TO.C,J1*%
X25350000Y-18800000D02*
X25350000Y-17460000D01*
X32160000Y-18800000D02*
X32160000Y-20000000D01*
X26840000Y-18800000D02*
X25350000Y-18800000D01*
X25350000Y-13000000D02*
X25350000Y-14740000D01*
X33650000Y-18800000D02*
X33650000Y-17460000D01*
X32160000Y-18800000D02*
X33650000Y-18800000D01*
X33650000Y-14740000D02*
X33650000Y-13000000D01*
X33650000Y-13000000D02*
X25350000Y-13000000D01*
D15*
%TO.C,J7*%
X19240000Y-45144000D02*
X19240000Y-47674000D01*
X23940000Y-45144000D02*
X23940000Y-47674000D01*
X19240000Y-45144000D02*
X23940000Y-45144000D01*
X20020000Y-49144000D02*
X23160000Y-49144000D01*
D16*
X20040000Y-44694000D02*
G75*
G03*
X20040000Y-44694000I-50000J0D01*
G01*
D12*
%TO.C,R9*%
X30482000Y-42500733D02*
X30482000Y-42843267D01*
X29462000Y-42500733D02*
X29462000Y-42843267D01*
D15*
%TO.C,J4*%
X34350000Y-37025000D02*
X34350000Y-40625000D01*
X30650000Y-40625000D02*
X30650000Y-37025000D01*
X33700000Y-37025000D02*
X31300000Y-37025000D01*
X34350000Y-40625000D02*
X30650000Y-40625000D01*
D17*
X33350000Y-41002000D02*
G75*
G03*
X33350000Y-41002000I-100000J0D01*
G01*
D12*
%TO.C,C2*%
X17510000Y-24203733D02*
X17510000Y-24546267D01*
X16490000Y-24203733D02*
X16490000Y-24546267D01*
%TO.C,C5*%
X20148733Y-17274000D02*
X20491267Y-17274000D01*
X20148733Y-16254000D02*
X20491267Y-16254000D01*
%TO.C,BT1*%
X32000000Y-48810000D02*
X30940000Y-48810000D01*
X33000000Y-48810000D02*
X35060000Y-48810000D01*
X35060000Y-48810000D02*
X35060000Y-46690000D01*
X30940000Y-48810000D02*
X30940000Y-47750000D01*
X33000000Y-48810000D02*
X33000000Y-46690000D01*
X33000000Y-46690000D02*
X35060000Y-46690000D01*
D13*
%TO.C,SW4*%
X15375000Y-48675000D02*
X15375000Y-49325000D01*
X13775000Y-42175000D02*
X15375000Y-42175000D01*
X15375000Y-42175000D02*
X15375000Y-42825000D01*
X15375000Y-44475000D02*
X15375000Y-47025000D01*
X13775000Y-49325000D02*
X15375000Y-49325000D01*
D14*
X16220000Y-43650000D02*
G75*
G03*
X16220000Y-43650000I-125000J0D01*
G01*
D12*
%TO.C,C6*%
X17570267Y-13587000D02*
X17227733Y-13587000D01*
X17570267Y-14607000D02*
X17227733Y-14607000D01*
%TO.C,Q3*%
X29862000Y-36798000D02*
X29202000Y-36798000D01*
X29862000Y-36798000D02*
X29862000Y-34768000D01*
X28202000Y-36798000D02*
X27542000Y-36798000D01*
X27542000Y-35388000D02*
X27542000Y-36798000D01*
%TO.C,U1*%
X17253000Y-17493000D02*
X16253000Y-17493000D01*
X18253000Y-15273000D02*
X16253000Y-15273000D01*
%TO.C,Y1*%
X17950000Y-25150000D02*
X19550000Y-25150000D01*
X17950000Y-22300000D02*
X17950000Y-25150000D01*
X19550000Y-25150000D02*
X19550000Y-22300000D01*
%TO.C,J2*%
X25970000Y-49590000D02*
X25970000Y-48130000D01*
X17030000Y-44080000D02*
X17030000Y-45880000D01*
X17030000Y-49590000D02*
X17030000Y-48130000D01*
X25970000Y-49590000D02*
X17030000Y-49590000D01*
X25970000Y-44080000D02*
X25970000Y-45880000D01*
%TO.C,C7*%
X15873000Y-32467733D02*
X15873000Y-32810267D01*
X16893000Y-32467733D02*
X16893000Y-32810267D01*
%TO.C,R3*%
X27095267Y-38991000D02*
X26752733Y-38991000D01*
X27095267Y-37971000D02*
X26752733Y-37971000D01*
%TO.C,R11*%
X27688000Y-42843267D02*
X27688000Y-42500733D01*
X26668000Y-42843267D02*
X26668000Y-42500733D01*
%TO.C,R16*%
X14546267Y-22260000D02*
X14203733Y-22260000D01*
X14546267Y-21240000D02*
X14203733Y-21240000D01*
D15*
%TO.C,J5*%
X17730000Y-37302000D02*
X17730000Y-37902000D01*
X21330000Y-37052000D02*
X21330000Y-33052000D01*
X17730000Y-37902000D02*
X19780000Y-37902000D01*
X17730000Y-32802000D02*
X17730000Y-32202000D01*
X17730000Y-32202000D02*
X19780000Y-32202000D01*
D17*
X16795000Y-36857000D02*
G75*
G03*
X16795000Y-36857000I-100000J0D01*
G01*
D12*
%TO.C,C3*%
X18046267Y-26490000D02*
X17703733Y-26490000D01*
X18046267Y-27510000D02*
X17703733Y-27510000D01*
D13*
%TO.C,SW1*%
X15375000Y-34175000D02*
X15375000Y-34825000D01*
X15375000Y-29975000D02*
X15375000Y-32525000D01*
X15375000Y-27675000D02*
X15375000Y-28325000D01*
X13775000Y-34825000D02*
X15375000Y-34825000D01*
X13775000Y-27675000D02*
X15375000Y-27675000D01*
D14*
X16220000Y-29150000D02*
G75*
G03*
X16220000Y-29150000I-125000J0D01*
G01*
D12*
%TO.C,J3*%
X17355000Y-27912000D02*
X18415000Y-27912000D01*
X19475000Y-29972000D02*
X19475000Y-32032000D01*
X17355000Y-29972000D02*
X17355000Y-32032000D01*
X17355000Y-29972000D02*
X19475000Y-29972000D01*
X17355000Y-32032000D02*
X19475000Y-32032000D01*
X17355000Y-28972000D02*
X17355000Y-27912000D01*
%TO.C,R12*%
X29085000Y-42843267D02*
X29085000Y-42500733D01*
X28065000Y-42843267D02*
X28065000Y-42500733D01*
%TO.C,U2*%
X15500000Y-37840000D02*
X13700000Y-37840000D01*
X13700000Y-41060000D02*
X16150000Y-41060000D01*
%TO.C,L1*%
X13953733Y-36240000D02*
X14296267Y-36240000D01*
X13953733Y-37260000D02*
X14296267Y-37260000D01*
%TO.C,C1*%
X16240000Y-20953733D02*
X16240000Y-21296267D01*
X17260000Y-20953733D02*
X17260000Y-21296267D01*
%TD*%
M02*
