M48
; DRILL file {KiCad (5.99.0-8775-g06a515339c)} date Fri Feb 12 19:06:40 2021
; FORMAT={-:-/ absolute / inch / decimal}
; #@! TF.CreationDate,2021-02-12T19:06:40-05:00
; #@! TF.GenerationSoftware,Kicad,Pcbnew,(5.99.0-8775-g06a515339c)
; #@! TF.FileFunction,Plated,1,2,PTH
FMAT,2
INCH
T1C0.0157
%
G90
G05
T1
X0.1378Y-0.2559
X0.2953Y-0.2165
X0.3346Y-0.2362
X0.3722Y-0.1287
X0.4528Y-0.2559
X0.5591Y-0.0787
X0.5591Y-0.189
X0.6067Y-0.1968
X0.6498Y-0.2573
X0.6929Y-0.2598
X0.7413Y-0.2338
X0.784Y-0.176
X0.7892Y-0.1471
X0.8526Y-0.1826
X0.8606Y-0.1266
X0.8616Y-0.247
X0.9107Y-0.2618
X1.0743Y-0.2424
X1.1466Y-0.1946
X1.1926Y-0.0326
X1.3638Y-0.1378
T0
M30
